<svg xmlns="http://www.w3.org/2000/svg" width="11.14" height="11.14" viewBox="0 0 11.14 11.14">
  <path id="Icon_metro-cross" data-name="Icon metro-cross" d="M13.609,10.878h0L10.23,7.5l3.38-3.38h0a.349.349,0,0,0,0-.492l-1.6-1.6a.349.349,0,0,0-.492,0h0l-3.38,3.38L4.761,2.03h0a.349.349,0,0,0-.492,0l-1.6,1.6a.349.349,0,0,0,0,.492h0L6.052,7.5l-3.38,3.38h0a.349.349,0,0,0,0,.492l1.6,1.6a.349.349,0,0,0,.492,0h0l3.38-3.38,3.38,3.38h0a.349.349,0,0,0,.492,0l1.6-1.6a.349.349,0,0,0,0-.492Z" transform="translate(-2.571 -1.928)" fill="#464698"/>
</svg>
