<svg xmlns="http://www.w3.org/2000/svg" width="20.575" height="16" viewBox="0 0 20.575 16">
  <path id="Icon_awesome-home" data-name="Icon awesome-home" d="M10.014,6.4,3.428,11.828v5.854A.571.571,0,0,0,4,18.254l4-.01a.571.571,0,0,0,.569-.571V14.253a.571.571,0,0,1,.571-.571h2.286a.571.571,0,0,1,.571.571v3.416a.571.571,0,0,0,.571.573l4,.011a.571.571,0,0,0,.571-.571V11.824L10.56,6.4A.435.435,0,0,0,10.014,6.4Zm10.4,3.686L17.43,7.629V2.682A.429.429,0,0,0,17,2.254H15a.429.429,0,0,0-.429.429V5.276l-3.2-2.631a1.714,1.714,0,0,0-2.179,0L.154,10.091a.429.429,0,0,0-.057.6L1.008,11.8a.429.429,0,0,0,.6.058l8.4-6.92a.435.435,0,0,1,.546,0l8.4,6.92a.429.429,0,0,0,.6-.057l.911-1.107a.429.429,0,0,0-.061-.6Z" transform="translate(0.001 -2.254)" fill="#fff"/>
</svg>
