<svg xmlns="http://www.w3.org/2000/svg" width="17.614" height="16.851" viewBox="0 0 17.614 16.851">
  <path id="Icon_material-notifications-active" data-name="Icon material-notifications-active" d="M7.948,5.115,6.684,3.88a8.953,8.953,0,0,0-3.639,6.783H4.812A7.261,7.261,0,0,1,7.948,5.115Zm10.945,5.548h1.767A9.007,9.007,0,0,0,17.02,3.88L15.765,5.115A7.3,7.3,0,0,1,18.892,10.663Zm-1.74.432a5.278,5.278,0,0,0-3.975-5.461V5.046a1.325,1.325,0,0,0-2.65,0v.588A5.262,5.262,0,0,0,6.552,11.1v4.321L4.785,17.144v.864H18.919v-.864l-1.767-1.728Zm-5.3,9.505a1.58,1.58,0,0,0,.353-.035,1.784,1.784,0,0,0,1.272-1.02,1.7,1.7,0,0,0,.133-.674H10.076A1.761,1.761,0,0,0,11.852,20.6Z" transform="translate(-3.045 -3.75)" fill="#fff"/>
</svg>
