<svg xmlns="http://www.w3.org/2000/svg" width="20" height="17" viewBox="0 0 20 17">
  <path id="Icon_awesome-user-shield" data-name="Icon awesome-user-shield" d="M19.447,9l-3.6-1.494a.915.915,0,0,0-.694,0L11.553,9A.9.9,0,0,0,11,9.828a7.581,7.581,0,0,0,4.153,7.1.916.916,0,0,0,.694,0A7.543,7.543,0,0,0,20,9.828.9.9,0,0,0,19.447,9ZM15.5,15.353V9.074l2.984,1.238a5.957,5.957,0,0,1-2.984,5.04ZM7,8.5a4.13,4.13,0,0,0,4-4.25A4.13,4.13,0,0,0,7,0,4.13,4.13,0,0,0,3,4.25,4.13,4.13,0,0,0,7,8.5Zm3,1.328a2,2,0,0,1,.034-.239c-.078,0-.153-.027-.234-.027H9.278a5.15,5.15,0,0,1-4.556,0H4.2A4.338,4.338,0,0,0,0,14.025v1.381A1.549,1.549,0,0,0,1.5,17h11a1.461,1.461,0,0,0,.6-.133A9.139,9.139,0,0,1,10,9.828Z" fill="#fff"/>
</svg>
