<svg xmlns="http://www.w3.org/2000/svg" width="17" height="17" viewBox="0 0 17 17">
  <path id="Icon_ionic-logo-whatsapp" data-name="Icon ionic-logo-whatsapp" d="M10.9,2.25a8.314,8.314,0,0,0-8.345,8.281,8.2,8.2,0,0,0,1.2,4.276L2.25,19.25l4.621-1.468A8.36,8.36,0,0,0,19.25,10.531,8.313,8.313,0,0,0,10.9,2.25Zm4.15,11.426a2.156,2.156,0,0,1-1.476.951c-.391.021-.4.3-2.536-.624a8.707,8.707,0,0,1-3.518-3.327,4.093,4.093,0,0,1-.787-2.218,2.365,2.365,0,0,1,.812-1.735.817.817,0,0,1,.578-.243c.168,0,.277-.005.4,0s.311-.026.472.4.548,1.486.6,1.593a.387.387,0,0,1,0,.371,1.449,1.449,0,0,1-.226.345c-.111.119-.234.267-.334.359s-.227.211-.11.428a6.386,6.386,0,0,0,1.13,1.508A5.823,5.823,0,0,0,11.735,12.6c.209.114.334.1.464-.035s.555-.6.706-.8.291-.166.484-.088,1.22.628,1.43.742.349.172.4.262A1.753,1.753,0,0,1,15.054,13.676Z" transform="translate(-2.25 -2.25)" fill="#fff"/>
</svg>
