<svg xmlns="http://www.w3.org/2000/svg" width="89.959" height="141.673" viewBox="0 0 89.959 141.673">
  <g id="freepik--background-complete--inject-4" transform="translate(-24.906 -42.601)">
    <path id="Path_1359" data-name="Path 1359" d="M260.927,251.573l-9.457-11.75a1.123,1.123,0,0,0-1.928.3l-1.535,4.007c-16.615-4.963-25.707,9.515-25.707,9.515l6.37,4.482c6.92-10.7,16.794-7.25,16.794-7.25l-1.338,3.475a1.124,1.124,0,0,0,1.239,1.511l14.9-2.5a1.158,1.158,0,0,0,.66-1.789Z" transform="translate(-175.156 -129.431)" fill="#f1f1f9"/>
    <path id="Path_1360" data-name="Path 1360" d="M255.12,335.51c-6.469,9.341-14.912,7.366-16.673,6.828l1.9-4.529a.521.521,0,0,0-.579-.718l-17.055,2.316a.515.515,0,0,0-.342.828l10.343,13.719a.521.521,0,0,0,.892-.116l2.027-4.847c16.256,5.16,25.666-8.808,25.666-8.808Z" transform="translate(-175.14 -169.883)" fill="#f1f1f9"/>
    <path id="Path_1369" data-name="Path 1369" d="M188.348,123.174c.087.237-.84.782-2.067,1.228s-2.287.579-2.374.371.84-.782,2.067-1.222S188.261,122.943,188.348,123.174Z" transform="translate(-158.994 -80.469)" fill="#fafafa"/>
    <path id="Path_1378" data-name="Path 1378" d="M336.267,124.528c.087.237-.759.759-1.882,1.158s-2.1.544-2.189.307.759-.753,1.882-1.158S336.186,124.3,336.267,124.528Z" transform="translate(-221.407 -81.035)" fill="#fafafa"/>
  </g>
</svg>
