<svg xmlns="http://www.w3.org/2000/svg" width="194.587" height="201.303" viewBox="0 0 194.587 201.303">
  <g id="Group_367" data-name="Group 367" transform="translate(-75.282 -138.845)">
    <g id="خدمة_التوصيل" data-name="خدمة التوصيل" transform="translate(69.951 178.845)">
      <g id="freepik--background-complete--inject-37" transform="translate(2.901 0)">
        <path id="Path_89" data-name="Path 89" d="M384.393,126.141H340.13s4.39-11.991,11.143-11.991,8.873,8.273,8.873,8.273,4.556-4.494,8.3-4.494,7,5.967,7,5.967A6.512,6.512,0,0,1,384.393,126.141Z" transform="translate(-187.376 -111.085)" fill="#f1f1f9"/>
        <path id="Path_91" data-name="Path 91" d="M98.957,136.2H58.67s5.517-12.317,11.417-13.088,8.729,9.153,8.729,9.153,3.806-3.506,6.8-3.506,5.285,4.618,5.285,4.618S96.9,130.21,98.957,136.2Z" transform="translate(-51.457 -115.391)" fill="#f1f1f9"/>
        <path id="Path_92" data-name="Path 92" d="M191.99,39.923H164.77s4.654-8.925,9.752-9.054,7.756,6.753,7.756,6.753S190.149,31.292,191.99,39.923Z" transform="translate(-102.693 -70.867)" fill="#f1f1f9"/>
        <path id="Path_93" data-name="Path 93" d="M257.177,90.426H238.81s3.154-6.024,6.577-6.107,5.223,4.556,5.223,4.556S255.936,84.6,257.177,90.426Z" transform="translate(-138.448 -96.679)" fill="#f1f1f9"/>
        <rect id="Rectangle_183" data-name="Rectangle 183" width="3.656" height="3.764" transform="translate(150.158 136.198)" fill="#ebebeb"/>
        <rect id="Rectangle_185" data-name="Rectangle 185" width="3.656" height="3.764" transform="translate(150.158 142.595)" fill="#ebebeb"/>
        <rect id="Rectangle_187" data-name="Rectangle 187" width="3.656" height="3.764" transform="translate(150.158 148.991)" fill="#ebebeb"/>
        <rect id="Rectangle_188" data-name="Rectangle 188" width="3.656" height="3.764" transform="translate(163.132 152.756) rotate(180)" fill="#ebebeb"/>
        <rect id="Rectangle_202" data-name="Rectangle 202" width="3.656" height="3.764" transform="translate(154.838 148.991)" fill="#ebebeb"/>
        <path id="Path_368" data-name="Path 368" d="M2.255,0V100.616H0Z" transform="translate(41.946 60.688)" fill="#fff"/>
        <rect id="Rectangle_258" data-name="Rectangle 258" width="2.255" height="4.494" transform="translate(29.96 70.864)" fill="#ebebeb"/>
        <rect id="Rectangle_259" data-name="Rectangle 259" width="2.255" height="4.494" transform="translate(33.952 70.864)" fill="#ebebeb"/>
        <rect id="Rectangle_260" data-name="Rectangle 260" width="2.255" height="4.494" transform="translate(37.949 70.864)" fill="#ebebeb"/>
        <rect id="Rectangle_261" data-name="Rectangle 261" width="2.255" height="4.494" transform="translate(41.946 70.864)" fill="#ebebeb"/>
        <rect id="Rectangle_262" data-name="Rectangle 262" width="2.255" height="4.494" transform="translate(45.938 70.864)" fill="#ebebeb"/>
        <rect id="Rectangle_263" data-name="Rectangle 263" width="2.255" height="4.494" transform="translate(29.96 78.165)" fill="#ebebeb"/>
        <rect id="Rectangle_264" data-name="Rectangle 264" width="2.255" height="4.494" transform="translate(33.952 78.165)" fill="#ebebeb"/>
        <rect id="Rectangle_265" data-name="Rectangle 265" width="2.255" height="4.494" transform="translate(37.949 78.165)" fill="#ebebeb"/>
        <rect id="Rectangle_266" data-name="Rectangle 266" width="2.255" height="4.494" transform="translate(41.946 78.165)" fill="#ebebeb"/>
        <rect id="Rectangle_267" data-name="Rectangle 267" width="2.255" height="4.494" transform="translate(45.938 78.165)" fill="#ebebeb"/>
        <rect id="Rectangle_268" data-name="Rectangle 268" width="2.255" height="4.494" transform="translate(29.96 85.472)" fill="#ebebeb"/>
        <rect id="Rectangle_269" data-name="Rectangle 269" width="2.255" height="4.494" transform="translate(33.952 85.472)" fill="#ebebeb"/>
        <rect id="Rectangle_270" data-name="Rectangle 270" width="2.255" height="4.494" transform="translate(37.949 85.472)" fill="#ebebeb"/>
        <rect id="Rectangle_271" data-name="Rectangle 271" width="2.255" height="4.494" transform="translate(41.946 85.472)" fill="#ebebeb"/>
        <rect id="Rectangle_272" data-name="Rectangle 272" width="2.255" height="4.494" transform="translate(45.938 85.472)" fill="#ebebeb"/>
        <rect id="Rectangle_273" data-name="Rectangle 273" width="2.255" height="4.494" transform="translate(29.96 92.773)" fill="#ebebeb"/>
        <rect id="Rectangle_274" data-name="Rectangle 274" width="2.255" height="4.494" transform="translate(33.952 92.773)" fill="#ebebeb"/>
        <rect id="Rectangle_275" data-name="Rectangle 275" width="2.255" height="4.494" transform="translate(37.949 92.773)" fill="#ebebeb"/>
        <rect id="Rectangle_276" data-name="Rectangle 276" width="2.255" height="4.494" transform="translate(41.946 92.773)" fill="#ebebeb"/>
        <rect id="Rectangle_277" data-name="Rectangle 277" width="2.255" height="4.494" transform="translate(45.938 92.773)" fill="#ebebeb"/>
        <rect id="Rectangle_278" data-name="Rectangle 278" width="2.255" height="4.494" transform="translate(29.96 100.074)" fill="#ebebeb"/>
        <rect id="Rectangle_279" data-name="Rectangle 279" width="2.255" height="4.494" transform="translate(33.952 100.074)" fill="#ebebeb"/>
        <rect id="Rectangle_280" data-name="Rectangle 280" width="2.255" height="4.494" transform="translate(37.949 100.074)" fill="#ebebeb"/>
        <rect id="Rectangle_281" data-name="Rectangle 281" width="2.255" height="4.494" transform="translate(41.946 100.074)" fill="#ebebeb"/>
        <rect id="Rectangle_282" data-name="Rectangle 282" width="2.255" height="4.494" transform="translate(45.938 100.074)" fill="#ebebeb"/>
        <rect id="Rectangle_283" data-name="Rectangle 283" width="2.255" height="4.494" transform="translate(29.96 107.376)" fill="#ebebeb"/>
        <rect id="Rectangle_284" data-name="Rectangle 284" width="2.255" height="4.494" transform="translate(33.952 107.376)" fill="#ebebeb"/>
        <rect id="Rectangle_285" data-name="Rectangle 285" width="2.255" height="4.494" transform="translate(37.949 107.376)" fill="#ebebeb"/>
        <rect id="Rectangle_286" data-name="Rectangle 286" width="2.255" height="4.494" transform="translate(41.946 107.376)" fill="#ebebeb"/>
        <rect id="Rectangle_287" data-name="Rectangle 287" width="2.255" height="4.494" transform="translate(45.938 107.376)" fill="#ebebeb"/>
        <rect id="Rectangle_288" data-name="Rectangle 288" width="2.255" height="4.494" transform="translate(29.96 114.682)" fill="#ebebeb"/>
        <rect id="Rectangle_289" data-name="Rectangle 289" width="2.255" height="4.494" transform="translate(33.952 114.682)" fill="#ebebeb"/>
        <rect id="Rectangle_290" data-name="Rectangle 290" width="2.255" height="4.494" transform="translate(37.949 114.682)" fill="#ebebeb"/>
        <rect id="Rectangle_291" data-name="Rectangle 291" width="2.255" height="4.494" transform="translate(41.946 114.682)" fill="#ebebeb"/>
        <rect id="Rectangle_292" data-name="Rectangle 292" width="2.255" height="4.494" transform="translate(45.938 114.682)" fill="#ebebeb"/>
        <rect id="Rectangle_293" data-name="Rectangle 293" width="2.255" height="4.494" transform="translate(29.96 121.984)" fill="#ebebeb"/>
        <rect id="Rectangle_294" data-name="Rectangle 294" width="2.255" height="4.494" transform="translate(33.952 121.984)" fill="#ebebeb"/>
        <rect id="Rectangle_295" data-name="Rectangle 295" width="2.255" height="4.494" transform="translate(37.949 121.984)" fill="#ebebeb"/>
        <rect id="Rectangle_296" data-name="Rectangle 296" width="2.255" height="4.494" transform="translate(41.946 121.984)" fill="#ebebeb"/>
        <rect id="Rectangle_297" data-name="Rectangle 297" width="2.255" height="4.494" transform="translate(45.938 121.984)" fill="#ebebeb"/>
        <rect id="Rectangle_301" data-name="Rectangle 301" width="2.255" height="4.494" transform="translate(41.946 129.285)" fill="#ebebeb"/>
        <rect id="Rectangle_302" data-name="Rectangle 302" width="2.255" height="4.494" transform="translate(45.938 129.285)" fill="#ebebeb"/>
        <rect id="Rectangle_306" data-name="Rectangle 306" width="2.255" height="4.494" transform="translate(41.946 136.591)" fill="#ebebeb"/>
        <rect id="Rectangle_307" data-name="Rectangle 307" width="2.255" height="4.494" transform="translate(45.938 136.591)" fill="#ebebeb"/>
        <rect id="Rectangle_312" data-name="Rectangle 312" width="2.255" height="4.494" transform="translate(45.938 143.893)" fill="#ebebeb"/>
        <rect id="Rectangle_316" data-name="Rectangle 316" width="2.255" height="4.494" transform="translate(41.946 151.194)" fill="#ebebeb"/>
        <rect id="Rectangle_317" data-name="Rectangle 317" width="2.255" height="4.494" transform="translate(45.938 151.194)" fill="#ebebeb"/>
        <rect id="Rectangle_320" data-name="Rectangle 320" width="2.255" height="2.803" transform="translate(37.949 158.495)" fill="#ebebeb"/>
        <rect id="Rectangle_321" data-name="Rectangle 321" width="2.255" height="2.803" transform="translate(41.946 158.495)" fill="#ebebeb"/>
        <rect id="Rectangle_322" data-name="Rectangle 322" width="2.255" height="2.803" transform="translate(45.938 158.495)" fill="#ebebeb"/>
        <rect id="Rectangle_331" data-name="Rectangle 331" width="2.255" height="4.494" transform="translate(52.221 70.864)" fill="#dbdbdb"/>
        <rect id="Rectangle_332" data-name="Rectangle 332" width="2.255" height="4.494" transform="translate(56.218 70.864)" fill="#dbdbdb"/>
        <rect id="Rectangle_333" data-name="Rectangle 333" width="2.255" height="4.494" transform="translate(60.215 70.864)" fill="#dbdbdb"/>
        <rect id="Rectangle_334" data-name="Rectangle 334" width="2.255" height="4.494" transform="translate(52.221 78.165)" fill="#dbdbdb"/>
        <rect id="Rectangle_335" data-name="Rectangle 335" width="2.255" height="4.494" transform="translate(56.218 78.165)" fill="#dbdbdb"/>
        <rect id="Rectangle_336" data-name="Rectangle 336" width="2.255" height="4.494" transform="translate(60.215 78.165)" fill="#dbdbdb"/>
        <rect id="Rectangle_337" data-name="Rectangle 337" width="2.255" height="4.494" transform="translate(52.221 85.472)" fill="#dbdbdb"/>
        <rect id="Rectangle_338" data-name="Rectangle 338" width="2.255" height="4.494" transform="translate(56.218 85.472)" fill="#dbdbdb"/>
        <rect id="Rectangle_339" data-name="Rectangle 339" width="2.255" height="4.494" transform="translate(60.215 85.472)" fill="#dbdbdb"/>
        <rect id="Rectangle_340" data-name="Rectangle 340" width="2.255" height="4.494" transform="translate(52.221 92.773)" fill="#dbdbdb"/>
        <rect id="Rectangle_341" data-name="Rectangle 341" width="2.255" height="4.494" transform="translate(56.218 92.773)" fill="#dbdbdb"/>
        <rect id="Rectangle_342" data-name="Rectangle 342" width="2.255" height="4.494" transform="translate(60.215 92.773)" fill="#dbdbdb"/>
        <rect id="Rectangle_343" data-name="Rectangle 343" width="2.255" height="4.494" transform="translate(52.221 100.074)" fill="#dbdbdb"/>
        <rect id="Rectangle_344" data-name="Rectangle 344" width="2.255" height="4.494" transform="translate(56.218 100.074)" fill="#dbdbdb"/>
        <rect id="Rectangle_345" data-name="Rectangle 345" width="2.255" height="4.494" transform="translate(60.215 100.074)" fill="#dbdbdb"/>
        <rect id="Rectangle_346" data-name="Rectangle 346" width="2.255" height="4.494" transform="translate(52.221 107.376)" fill="#dbdbdb"/>
        <rect id="Rectangle_347" data-name="Rectangle 347" width="2.255" height="4.494" transform="translate(56.218 107.376)" fill="#dbdbdb"/>
        <rect id="Rectangle_348" data-name="Rectangle 348" width="2.255" height="4.494" transform="translate(60.215 107.376)" fill="#dbdbdb"/>
        <rect id="Rectangle_349" data-name="Rectangle 349" width="2.255" height="4.494" transform="translate(52.221 114.682)" fill="#dbdbdb"/>
        <rect id="Rectangle_350" data-name="Rectangle 350" width="2.255" height="4.494" transform="translate(56.218 114.682)" fill="#dbdbdb"/>
        <rect id="Rectangle_351" data-name="Rectangle 351" width="2.255" height="4.494" transform="translate(60.215 114.682)" fill="#dbdbdb"/>
        <rect id="Rectangle_352" data-name="Rectangle 352" width="2.255" height="4.494" transform="translate(52.221 121.984)" fill="#dbdbdb"/>
        <rect id="Rectangle_353" data-name="Rectangle 353" width="2.255" height="4.494" transform="translate(56.218 121.984)" fill="#dbdbdb"/>
        <rect id="Rectangle_354" data-name="Rectangle 354" width="2.255" height="4.494" transform="translate(60.215 121.984)" fill="#dbdbdb"/>
        <rect id="Rectangle_355" data-name="Rectangle 355" width="2.255" height="4.494" transform="translate(52.221 129.285)" fill="#dbdbdb"/>
        <rect id="Rectangle_356" data-name="Rectangle 356" width="2.255" height="4.494" transform="translate(56.218 129.285)" fill="#dbdbdb"/>
        <rect id="Rectangle_357" data-name="Rectangle 357" width="2.255" height="4.494" transform="translate(60.215 129.285)" fill="#dbdbdb"/>
        <rect id="Rectangle_358" data-name="Rectangle 358" width="2.255" height="4.494" transform="translate(52.221 136.591)" fill="#dbdbdb"/>
        <rect id="Rectangle_359" data-name="Rectangle 359" width="2.255" height="4.494" transform="translate(56.218 136.591)" fill="#dbdbdb"/>
        <rect id="Rectangle_360" data-name="Rectangle 360" width="2.255" height="4.494" transform="translate(60.215 136.591)" fill="#dbdbdb"/>
        <rect id="Rectangle_361" data-name="Rectangle 361" width="2.255" height="4.494" transform="translate(52.221 143.893)" fill="#dbdbdb"/>
        <rect id="Rectangle_362" data-name="Rectangle 362" width="2.255" height="4.494" transform="translate(56.218 143.893)" fill="#dbdbdb"/>
        <rect id="Rectangle_363" data-name="Rectangle 363" width="2.255" height="4.494" transform="translate(60.215 143.893)" fill="#dbdbdb"/>
        <rect id="Rectangle_364" data-name="Rectangle 364" width="2.255" height="4.494" transform="translate(52.221 151.194)" fill="#dbdbdb"/>
        <rect id="Rectangle_365" data-name="Rectangle 365" width="2.255" height="4.494" transform="translate(56.218 151.194)" fill="#dbdbdb"/>
        <rect id="Rectangle_366" data-name="Rectangle 366" width="2.255" height="4.494" transform="translate(60.215 151.194)" fill="#dbdbdb"/>
        <rect id="Rectangle_367" data-name="Rectangle 367" width="2.255" height="2.803" transform="translate(52.221 158.495)" fill="#dbdbdb"/>
        <rect id="Rectangle_368" data-name="Rectangle 368" width="2.255" height="2.803" transform="translate(56.218 158.495)" fill="#dbdbdb"/>
        <rect id="Rectangle_369" data-name="Rectangle 369" width="2.255" height="2.803" transform="translate(60.215 158.495)" fill="#dbdbdb"/>
        <rect id="Rectangle_382" data-name="Rectangle 382" width="17.307" height="1.484" transform="translate(2.43 159.814)" fill="#fff"/>
        <rect id="Rectangle_386" data-name="Rectangle 386" width="10.678" height="1.484" transform="translate(24.081 104.449)" fill="#fff"/>
        <rect id="Rectangle_387" data-name="Rectangle 387" width="10.678" height="1.484" transform="translate(24.081 110.597)" fill="#fff"/>
        <rect id="Rectangle_388" data-name="Rectangle 388" width="10.678" height="1.484" transform="translate(24.081 116.751)" fill="#fff"/>
        <rect id="Rectangle_389" data-name="Rectangle 389" width="10.678" height="1.484" transform="translate(24.081 122.904)" fill="#fff"/>
        <rect id="Rectangle_396" data-name="Rectangle 396" width="17.136" height="38.497" transform="translate(61.234 122.801)" fill="#dbdbdb"/>
        <rect id="Rectangle_397" data-name="Rectangle 397" width="3.03" height="2.358" transform="translate(63.928 126.136)" fill="#c7c7c7"/>
        <rect id="Rectangle_398" data-name="Rectangle 398" width="3.03" height="2.358" transform="translate(63.928 131.172)" fill="#c7c7c7"/>
        <rect id="Rectangle_399" data-name="Rectangle 399" width="3.03" height="2.358" transform="translate(63.928 136.209)" fill="#c7c7c7"/>
        <rect id="Rectangle_400" data-name="Rectangle 400" width="3.03" height="2.358" transform="translate(63.928 141.245)" fill="#c7c7c7"/>
        <rect id="Rectangle_401" data-name="Rectangle 401" width="3.03" height="2.358" transform="translate(63.928 146.287)" fill="#c7c7c7"/>
        <rect id="Rectangle_402" data-name="Rectangle 402" width="3.03" height="2.358" transform="translate(63.928 151.323)" fill="#c7c7c7"/>
        <rect id="Rectangle_403" data-name="Rectangle 403" width="3.03" height="2.358" transform="translate(63.928 156.36)" fill="#c7c7c7"/>
        <rect id="Rectangle_404" data-name="Rectangle 404" width="3.035" height="2.358" transform="translate(68.292 126.136)" fill="#c7c7c7"/>
        <rect id="Rectangle_405" data-name="Rectangle 405" width="3.035" height="2.358" transform="translate(68.292 131.172)" fill="#c7c7c7"/>
        <rect id="Rectangle_406" data-name="Rectangle 406" width="3.035" height="2.358" transform="translate(68.292 136.209)" fill="#c7c7c7"/>
        <rect id="Rectangle_407" data-name="Rectangle 407" width="3.035" height="2.358" transform="translate(68.292 141.245)" fill="#c7c7c7"/>
        <rect id="Rectangle_408" data-name="Rectangle 408" width="3.035" height="2.358" transform="translate(68.292 146.287)" fill="#c7c7c7"/>
        <rect id="Rectangle_409" data-name="Rectangle 409" width="3.035" height="2.358" transform="translate(68.292 151.323)" fill="#c7c7c7"/>
        <rect id="Rectangle_410" data-name="Rectangle 410" width="3.035" height="2.358" transform="translate(68.292 156.36)" fill="#c7c7c7"/>
        <rect id="Rectangle_411" data-name="Rectangle 411" width="3.035" height="2.358" transform="translate(72.646 126.136)" fill="#c7c7c7"/>
        <rect id="Rectangle_412" data-name="Rectangle 412" width="3.035" height="2.358" transform="translate(72.646 131.172)" fill="#c7c7c7"/>
        <rect id="Rectangle_413" data-name="Rectangle 413" width="3.035" height="2.358" transform="translate(72.646 136.209)" fill="#c7c7c7"/>
        <rect id="Rectangle_414" data-name="Rectangle 414" width="3.035" height="2.358" transform="translate(72.646 141.245)" fill="#c7c7c7"/>
        <rect id="Rectangle_415" data-name="Rectangle 415" width="3.035" height="2.358" transform="translate(72.646 146.287)" fill="#c7c7c7"/>
        <rect id="Rectangle_416" data-name="Rectangle 416" width="3.035" height="2.358" transform="translate(72.646 151.323)" fill="#c7c7c7"/>
        <rect id="Rectangle_417" data-name="Rectangle 417" width="3.035" height="2.358" transform="translate(72.646 156.36)" fill="#c7c7c7"/>
        <rect id="Rectangle_418" data-name="Rectangle 418" width="12.022" height="38.497" transform="translate(78.37 122.801)" fill="#a6a6a6"/>
        <rect id="Rectangle_419" data-name="Rectangle 419" width="2.467" height="2.358" transform="translate(89.167 158.345) rotate(180)" fill="#c7c7c7"/>
        <rect id="Rectangle_420" data-name="Rectangle 420" width="2.467" height="2.358" transform="translate(89.167 153.304) rotate(180)" fill="#c7c7c7"/>
        <rect id="Rectangle_421" data-name="Rectangle 421" width="2.467" height="2.358" transform="translate(89.167 148.267) rotate(180)" fill="#c7c7c7"/>
        <rect id="Rectangle_422" data-name="Rectangle 422" width="2.467" height="2.358" transform="translate(89.167 143.226) rotate(180)" fill="#c7c7c7"/>
        <rect id="Rectangle_423" data-name="Rectangle 423" width="2.467" height="2.358" transform="translate(89.167 138.194) rotate(180)" fill="#c7c7c7"/>
        <rect id="Rectangle_424" data-name="Rectangle 424" width="2.467" height="2.358" transform="translate(89.167 133.153) rotate(180)" fill="#c7c7c7"/>
        <rect id="Rectangle_425" data-name="Rectangle 425" width="2.467" height="2.358" transform="translate(89.167 128.116) rotate(180)" fill="#c7c7c7"/>
        <rect id="Rectangle_426" data-name="Rectangle 426" width="2.467" height="2.358" transform="translate(85.615 158.345) rotate(180)" fill="#c7c7c7"/>
        <rect id="Rectangle_427" data-name="Rectangle 427" width="2.467" height="2.358" transform="translate(85.615 153.304) rotate(180)" fill="#c7c7c7"/>
        <rect id="Rectangle_428" data-name="Rectangle 428" width="2.467" height="2.358" transform="translate(85.615 148.267) rotate(180)" fill="#c7c7c7"/>
        <rect id="Rectangle_429" data-name="Rectangle 429" width="2.467" height="2.358" transform="translate(85.615 143.226) rotate(180)" fill="#c7c7c7"/>
        <rect id="Rectangle_430" data-name="Rectangle 430" width="2.467" height="2.358" transform="translate(85.615 138.194) rotate(180)" fill="#c7c7c7"/>
        <rect id="Rectangle_431" data-name="Rectangle 431" width="2.467" height="2.358" transform="translate(85.615 133.153) rotate(180)" fill="#c7c7c7"/>
        <rect id="Rectangle_432" data-name="Rectangle 432" width="2.467" height="2.358" transform="translate(85.615 128.116) rotate(180)" fill="#c7c7c7"/>
        <rect id="Rectangle_433" data-name="Rectangle 433" width="2.467" height="2.358" transform="translate(82.073 158.345) rotate(180)" fill="#c7c7c7"/>
        <rect id="Rectangle_434" data-name="Rectangle 434" width="2.467" height="2.358" transform="translate(82.073 153.304) rotate(180)" fill="#c7c7c7"/>
        <rect id="Rectangle_435" data-name="Rectangle 435" width="2.467" height="2.358" transform="translate(82.073 148.267) rotate(180)" fill="#c7c7c7"/>
        <rect id="Rectangle_436" data-name="Rectangle 436" width="2.467" height="2.358" transform="translate(82.073 143.226) rotate(180)" fill="#c7c7c7"/>
        <rect id="Rectangle_437" data-name="Rectangle 437" width="2.467" height="2.358" transform="translate(82.073 138.194) rotate(180)" fill="#c7c7c7"/>
        <rect id="Rectangle_438" data-name="Rectangle 438" width="2.467" height="2.358" transform="translate(82.073 133.153) rotate(180)" fill="#c7c7c7"/>
        <rect id="Rectangle_439" data-name="Rectangle 439" width="2.467" height="2.358" transform="translate(82.073 128.116) rotate(180)" fill="#c7c7c7"/>
        <rect id="Rectangle_503" data-name="Rectangle 503" width="3.997" height="2.777" transform="translate(108.605 119.884)" fill="#dbdbdb"/>
        <rect id="Rectangle_504" data-name="Rectangle 504" width="3.997" height="2.777" transform="translate(108.605 125.82)" fill="#dbdbdb"/>
        <rect id="Rectangle_505" data-name="Rectangle 505" width="3.997" height="2.777" transform="translate(108.605 131.751)" fill="#dbdbdb"/>
        <rect id="Rectangle_506" data-name="Rectangle 506" width="3.997" height="2.777" transform="translate(108.605 137.682)" fill="#dbdbdb"/>
        <rect id="Rectangle_507" data-name="Rectangle 507" width="3.997" height="2.777" transform="translate(108.605 143.619)" fill="#dbdbdb"/>
        <rect id="Rectangle_508" data-name="Rectangle 508" width="3.997" height="2.777" transform="translate(108.605 149.55)" fill="#dbdbdb"/>
        <rect id="Rectangle_509" data-name="Rectangle 509" width="3.997" height="2.777" transform="translate(108.605 155.481)" fill="#dbdbdb"/>
        <rect id="Rectangle_510" data-name="Rectangle 510" width="3.997" height="2.777" transform="translate(114.355 119.884)" fill="#dbdbdb"/>
        <rect id="Rectangle_511" data-name="Rectangle 511" width="3.997" height="2.777" transform="translate(114.355 125.82)" fill="#dbdbdb"/>
        <rect id="Rectangle_512" data-name="Rectangle 512" width="3.997" height="2.777" transform="translate(114.355 131.751)" fill="#dbdbdb"/>
        <rect id="Rectangle_513" data-name="Rectangle 513" width="3.997" height="2.777" transform="translate(114.355 137.682)" fill="#dbdbdb"/>
        <rect id="Rectangle_514" data-name="Rectangle 514" width="3.997" height="2.777" transform="translate(114.355 143.619)" fill="#dbdbdb"/>
        <rect id="Rectangle_515" data-name="Rectangle 515" width="3.997" height="2.777" transform="translate(114.355 149.55)" fill="#dbdbdb"/>
        <rect id="Rectangle_516" data-name="Rectangle 516" width="3.997" height="2.777" transform="translate(114.355 155.481)" fill="#dbdbdb"/>
        <rect id="Rectangle_517" data-name="Rectangle 517" width="3.997" height="2.777" transform="translate(120.089 119.884)" fill="#dbdbdb"/>
        <rect id="Rectangle_518" data-name="Rectangle 518" width="3.997" height="2.777" transform="translate(120.089 125.82)" fill="#dbdbdb"/>
        <rect id="Rectangle_519" data-name="Rectangle 519" width="3.997" height="2.777" transform="translate(120.089 131.751)" fill="#dbdbdb"/>
        <rect id="Rectangle_520" data-name="Rectangle 520" width="3.997" height="2.777" transform="translate(120.089 137.682)" fill="#dbdbdb"/>
        <rect id="Rectangle_521" data-name="Rectangle 521" width="3.997" height="2.777" transform="translate(120.089 143.619)" fill="#dbdbdb"/>
        <rect id="Rectangle_524" data-name="Rectangle 524" width="15.032" height="4.726" transform="translate(112.602 111.238)" fill="#dbdbdb"/>
        <rect id="Rectangle_525" data-name="Rectangle 525" width="9.53" height="2.927" transform="translate(118.104 108.312)" fill="#ebebeb"/>
        <rect id="Rectangle_527" data-name="Rectangle 527" width="3.253" height="2.777" transform="translate(141.859 157.818) rotate(180)" fill="#c7c7c7"/>
        <rect id="Rectangle_528" data-name="Rectangle 528" width="3.253" height="2.777" transform="translate(141.859 151.887) rotate(180)" fill="#c7c7c7"/>
        <rect id="Rectangle_529" data-name="Rectangle 529" width="3.253" height="2.777" transform="translate(141.859 145.951) rotate(180)" fill="#c7c7c7"/>
        <rect id="Rectangle_530" data-name="Rectangle 530" width="3.253" height="2.777" transform="translate(141.859 140.015) rotate(180)" fill="#c7c7c7"/>
        <rect id="Rectangle_531" data-name="Rectangle 531" width="3.253" height="2.777" transform="translate(141.859 134.089) rotate(180)" fill="#c7c7c7"/>
        <rect id="Rectangle_532" data-name="Rectangle 532" width="3.253" height="2.777" transform="translate(141.859 128.153) rotate(180)" fill="#c7c7c7"/>
        <rect id="Rectangle_533" data-name="Rectangle 533" width="3.253" height="2.777" transform="translate(141.859 122.221) rotate(180)" fill="#c7c7c7"/>
        <rect id="Rectangle_538" data-name="Rectangle 538" width="3.253" height="2.777" transform="translate(137.179 134.089) rotate(180)" fill="#c7c7c7"/>
        <rect id="Rectangle_539" data-name="Rectangle 539" width="3.253" height="2.777" transform="translate(137.179 128.153) rotate(180)" fill="#c7c7c7"/>
        <rect id="Rectangle_540" data-name="Rectangle 540" width="3.253" height="2.777" transform="translate(137.179 122.221) rotate(180)" fill="#c7c7c7"/>
        <rect id="Rectangle_549" data-name="Rectangle 549" width="7.286" height="2.927" transform="translate(127.634 108.312)" fill="#dbdbdb"/>
      </g>
      <g id="freepik--Chronometer--inject-37" transform="translate(122.75 -5.645)">
        <rect id="Rectangle_551" data-name="Rectangle 551" width="8.842" height="5.011" transform="translate(21.427 1.686)" fill="#263238"/>
        <rect id="Rectangle_552" data-name="Rectangle 552" width="11.34" height="3.278" transform="translate(20.176)" fill="#455a64"/>
        <rect id="Rectangle_553" data-name="Rectangle 553" width="3.408" height="5.383" transform="translate(8.09 9.047) rotate(-45)" fill="#263238"/>
        <rect id="Rectangle_554" data-name="Rectangle 554" width="5.414" height="3.516" transform="translate(6.101 8.474) rotate(-45)" fill="#455a64"/>
        <rect id="Rectangle_555" data-name="Rectangle 555" width="3.408" height="5.383" transform="translate(39.8 12.849) rotate(-135)" fill="#263238"/>
        <rect id="Rectangle_556" data-name="Rectangle 556" width="5.414" height="3.516" transform="translate(43.098 10.962) rotate(-135)" fill="#455a64"/>
        <ellipse id="Ellipse_26" data-name="Ellipse 26" cx="21.495" cy="21.495" rx="21.495" ry="21.495" transform="translate(0 43.572) rotate(-76.8)" fill="#455a64"/>
        <ellipse id="Ellipse_27" data-name="Ellipse 27" cx="20.508" cy="20.508" rx="20.508" ry="20.508" transform="translate(5.077 6.696)" fill="#263238"/>
        <ellipse id="Ellipse_28" data-name="Ellipse 28" cx="18.114" cy="18.114" rx="18.114" ry="18.114" transform="translate(5.297 42.762) rotate(-81.68)" fill="#fff"/>
        <path id="Path_114" data-name="Path 114" d="M347.428,81.308h-18.1V63.21A18.1,18.1,0,0,1,347.428,81.308Z" transform="translate(-303.466 -53.84)" fill="#464698" opacity="0.5"/>
        <rect id="Rectangle_557" data-name="Rectangle 557" width="0.352" height="2.746" transform="translate(25.672 10.668)" fill="#c7c7c7"/>
        <rect id="Rectangle_558" data-name="Rectangle 558" width="0.352" height="2.746" transform="translate(17.292 12.995) rotate(-30)" fill="#c7c7c7"/>
        <rect id="Rectangle_559" data-name="Rectangle 559" width="0.352" height="2.746" transform="translate(11.203 19.212) rotate(-60)" fill="#c7c7c7"/>
        <rect id="Rectangle_560" data-name="Rectangle 560" width="2.746" height="0.352" transform="translate(9.048 27.292)" fill="#c7c7c7"/>
        <rect id="Rectangle_561" data-name="Rectangle 561" width="2.755" height="0.353" transform="translate(11.815 35.89) rotate(-29.887)" fill="#c7c7c7"/>
        <rect id="Rectangle_562" data-name="Rectangle 562" width="2.746" height="0.352" transform="translate(17.295 41.931) rotate(-60.03)" fill="#c7c7c7"/>
        <rect id="Rectangle_563" data-name="Rectangle 563" width="0.352" height="2.746" transform="translate(25.672 41.522)" fill="#c7c7c7"/>
        <rect id="Rectangle_564" data-name="Rectangle 564" width="0.352" height="2.746" transform="translate(32.719 39.719) rotate(-30)" fill="#c7c7c7"/>
        <rect id="Rectangle_565" data-name="Rectangle 565" width="0.352" height="2.746" transform="translate(37.928 34.634) rotate(-60)" fill="#c7c7c7"/>
        <rect id="Rectangle_566" data-name="Rectangle 566" width="2.746" height="0.352" transform="translate(39.903 27.292)" fill="#c7c7c7"/>
        <rect id="Rectangle_567" data-name="Rectangle 567" width="2.746" height="0.352" transform="translate(37.929 20.279) rotate(-30)" fill="#c7c7c7"/>
        <rect id="Rectangle_568" data-name="Rectangle 568" width="2.746" height="0.352" transform="translate(32.72 15.205) rotate(-60.02)" fill="#c7c7c7"/>
        <path id="Path_115" data-name="Path 115" d="M328.594,72.855l.807,14.184-1.82-.026L328.1,72.85Z" transform="translate(-302.621 -58.496)" fill="#464698"/>
        <path id="Path_116" data-name="Path 116" d="M329.331,97.626a.62.62,0,1,1-.18-.442A.626.626,0,0,1,329.331,97.626Z" transform="translate(-302.863 -70.158)" fill="#464698"/>
        <path id="Path_117" data-name="Path 117" d="M341.444,97.669l-14.184.8.026-1.82,14.163.522Z" transform="translate(-302.467 -69.989)" fill="#263238"/>
        <path id="Path_118" data-name="Path 118" d="M329.331,97.626a.62.62,0,1,1-.18-.442A.626.626,0,0,1,329.331,97.626Z" transform="translate(-302.863 -70.158)" fill="#464698"/>
      </g>
    </g>
  </g>
</svg>
