<svg xmlns="http://www.w3.org/2000/svg" width="269.803" height="304.818" viewBox="0 0 269.803 304.818">
  <g id="Group_367" data-name="Group 367" transform="translate(-40.065 -98.845)">
    <g id="خدمة_التوصيل" data-name="خدمة التوصيل" transform="translate(69.951 178.845)">
      <g id="freepik--background-complete--inject-37" transform="translate(2.901 0)">
        <path id="Path_89" data-name="Path 89" d="M384.393,126.141H340.13s4.39-11.991,11.143-11.991,8.873,8.273,8.873,8.273,4.556-4.494,8.3-4.494,7,5.967,7,5.967A6.512,6.512,0,0,1,384.393,126.141Z" transform="translate(-147.376 -111.085)" fill="#f1f1f9" opacity="0"/>
        <path id="Path_90" data-name="Path 90" d="M331.684,71.442H311s4.623-6.722,8.273-6.722,4.721,4.462,4.721,4.462,2.585-2.068,4.949-1.706S331.684,71.442,331.684,71.442Z" transform="translate(-173.309 -87.215)" fill="#ebebeb"/>
        <path id="Path_91" data-name="Path 91" d="M98.957,136.2H58.67s5.517-12.317,11.417-13.088,8.729,9.153,8.729,9.153,3.806-3.506,6.8-3.506,5.285,4.618,5.285,4.618S96.9,130.21,98.957,136.2Z" transform="translate(-91.457 -115.391)" fill="#f1f1f9" opacity="0"/>
        <path id="Path_92" data-name="Path 92" d="M191.99,39.923H164.77s4.654-8.925,9.752-9.054,7.756,6.753,7.756,6.753S190.149,31.292,191.99,39.923Z" transform="translate(-102.693 -110.867)" fill="#f1f1f9" opacity="0"/>
        <path id="Path_93" data-name="Path 93" d="M257.177,90.426H238.81s3.154-6.024,6.577-6.107,5.223,4.556,5.223,4.556S255.936,84.6,257.177,90.426Z" transform="translate(-138.448 -136.679)" fill="#f1f1f9" opacity="0"/>
        <rect id="Rectangle_183" data-name="Rectangle 183" width="3.656" height="3.764" transform="translate(150.158 136.198)" fill="#ebebeb"/>
        <rect id="Rectangle_185" data-name="Rectangle 185" width="3.656" height="3.764" transform="translate(150.158 142.595)" fill="#ebebeb"/>
        <rect id="Rectangle_187" data-name="Rectangle 187" width="3.656" height="3.764" transform="translate(150.158 148.991)" fill="#ebebeb"/>
        <rect id="Rectangle_188" data-name="Rectangle 188" width="3.656" height="3.764" transform="translate(163.132 152.756) rotate(180)" fill="#ebebeb"/>
        <rect id="Rectangle_202" data-name="Rectangle 202" width="3.656" height="3.764" transform="translate(154.838 148.991)" fill="#ebebeb"/>
        <path id="Path_368" data-name="Path 368" d="M2.255,0V100.616H0Z" transform="translate(41.946 60.688)" fill="#fff"/>
        <rect id="Rectangle_258" data-name="Rectangle 258" width="2.255" height="4.494" transform="translate(29.96 70.864)" fill="#ebebeb"/>
        <rect id="Rectangle_259" data-name="Rectangle 259" width="2.255" height="4.494" transform="translate(33.952 70.864)" fill="#ebebeb"/>
        <rect id="Rectangle_260" data-name="Rectangle 260" width="2.255" height="4.494" transform="translate(37.949 70.864)" fill="#ebebeb"/>
        <rect id="Rectangle_261" data-name="Rectangle 261" width="2.255" height="4.494" transform="translate(41.946 70.864)" fill="#ebebeb"/>
        <rect id="Rectangle_262" data-name="Rectangle 262" width="2.255" height="4.494" transform="translate(45.938 70.864)" fill="#ebebeb"/>
        <rect id="Rectangle_263" data-name="Rectangle 263" width="2.255" height="4.494" transform="translate(29.96 78.165)" fill="#ebebeb"/>
        <rect id="Rectangle_264" data-name="Rectangle 264" width="2.255" height="4.494" transform="translate(33.952 78.165)" fill="#ebebeb"/>
        <rect id="Rectangle_265" data-name="Rectangle 265" width="2.255" height="4.494" transform="translate(37.949 78.165)" fill="#ebebeb"/>
        <rect id="Rectangle_266" data-name="Rectangle 266" width="2.255" height="4.494" transform="translate(41.946 78.165)" fill="#ebebeb"/>
        <rect id="Rectangle_267" data-name="Rectangle 267" width="2.255" height="4.494" transform="translate(45.938 78.165)" fill="#ebebeb"/>
        <rect id="Rectangle_268" data-name="Rectangle 268" width="2.255" height="4.494" transform="translate(29.96 85.472)" fill="#ebebeb"/>
        <rect id="Rectangle_269" data-name="Rectangle 269" width="2.255" height="4.494" transform="translate(33.952 85.472)" fill="#ebebeb"/>
        <rect id="Rectangle_270" data-name="Rectangle 270" width="2.255" height="4.494" transform="translate(37.949 85.472)" fill="#ebebeb"/>
        <rect id="Rectangle_271" data-name="Rectangle 271" width="2.255" height="4.494" transform="translate(41.946 85.472)" fill="#ebebeb"/>
        <rect id="Rectangle_272" data-name="Rectangle 272" width="2.255" height="4.494" transform="translate(45.938 85.472)" fill="#ebebeb"/>
        <rect id="Rectangle_273" data-name="Rectangle 273" width="2.255" height="4.494" transform="translate(29.96 92.773)" fill="#ebebeb"/>
        <rect id="Rectangle_274" data-name="Rectangle 274" width="2.255" height="4.494" transform="translate(33.952 92.773)" fill="#ebebeb"/>
        <rect id="Rectangle_275" data-name="Rectangle 275" width="2.255" height="4.494" transform="translate(37.949 92.773)" fill="#ebebeb"/>
        <rect id="Rectangle_276" data-name="Rectangle 276" width="2.255" height="4.494" transform="translate(41.946 92.773)" fill="#ebebeb"/>
        <rect id="Rectangle_277" data-name="Rectangle 277" width="2.255" height="4.494" transform="translate(45.938 92.773)" fill="#ebebeb"/>
        <rect id="Rectangle_278" data-name="Rectangle 278" width="2.255" height="4.494" transform="translate(29.96 100.074)" fill="#ebebeb"/>
        <rect id="Rectangle_279" data-name="Rectangle 279" width="2.255" height="4.494" transform="translate(33.952 100.074)" fill="#ebebeb"/>
        <rect id="Rectangle_280" data-name="Rectangle 280" width="2.255" height="4.494" transform="translate(37.949 100.074)" fill="#ebebeb"/>
        <rect id="Rectangle_281" data-name="Rectangle 281" width="2.255" height="4.494" transform="translate(41.946 100.074)" fill="#ebebeb"/>
        <rect id="Rectangle_282" data-name="Rectangle 282" width="2.255" height="4.494" transform="translate(45.938 100.074)" fill="#ebebeb"/>
        <rect id="Rectangle_283" data-name="Rectangle 283" width="2.255" height="4.494" transform="translate(29.96 107.376)" fill="#ebebeb"/>
        <rect id="Rectangle_284" data-name="Rectangle 284" width="2.255" height="4.494" transform="translate(33.952 107.376)" fill="#ebebeb"/>
        <rect id="Rectangle_285" data-name="Rectangle 285" width="2.255" height="4.494" transform="translate(37.949 107.376)" fill="#ebebeb"/>
        <rect id="Rectangle_286" data-name="Rectangle 286" width="2.255" height="4.494" transform="translate(41.946 107.376)" fill="#ebebeb"/>
        <rect id="Rectangle_287" data-name="Rectangle 287" width="2.255" height="4.494" transform="translate(45.938 107.376)" fill="#ebebeb"/>
        <rect id="Rectangle_288" data-name="Rectangle 288" width="2.255" height="4.494" transform="translate(29.96 114.682)" fill="#ebebeb"/>
        <rect id="Rectangle_289" data-name="Rectangle 289" width="2.255" height="4.494" transform="translate(33.952 114.682)" fill="#ebebeb"/>
        <rect id="Rectangle_290" data-name="Rectangle 290" width="2.255" height="4.494" transform="translate(37.949 114.682)" fill="#ebebeb"/>
        <rect id="Rectangle_291" data-name="Rectangle 291" width="2.255" height="4.494" transform="translate(41.946 114.682)" fill="#ebebeb"/>
        <rect id="Rectangle_292" data-name="Rectangle 292" width="2.255" height="4.494" transform="translate(45.938 114.682)" fill="#ebebeb"/>
        <rect id="Rectangle_293" data-name="Rectangle 293" width="2.255" height="4.494" transform="translate(29.96 121.984)" fill="#ebebeb"/>
        <rect id="Rectangle_294" data-name="Rectangle 294" width="2.255" height="4.494" transform="translate(33.952 121.984)" fill="#ebebeb"/>
        <rect id="Rectangle_295" data-name="Rectangle 295" width="2.255" height="4.494" transform="translate(37.949 121.984)" fill="#ebebeb"/>
        <rect id="Rectangle_296" data-name="Rectangle 296" width="2.255" height="4.494" transform="translate(41.946 121.984)" fill="#ebebeb"/>
        <rect id="Rectangle_297" data-name="Rectangle 297" width="2.255" height="4.494" transform="translate(45.938 121.984)" fill="#ebebeb"/>
        <rect id="Rectangle_301" data-name="Rectangle 301" width="2.255" height="4.494" transform="translate(41.946 129.285)" fill="#ebebeb"/>
        <rect id="Rectangle_302" data-name="Rectangle 302" width="2.255" height="4.494" transform="translate(45.938 129.285)" fill="#ebebeb"/>
        <rect id="Rectangle_306" data-name="Rectangle 306" width="2.255" height="4.494" transform="translate(41.946 136.591)" fill="#ebebeb"/>
        <rect id="Rectangle_307" data-name="Rectangle 307" width="2.255" height="4.494" transform="translate(45.938 136.591)" fill="#ebebeb"/>
        <rect id="Rectangle_312" data-name="Rectangle 312" width="2.255" height="4.494" transform="translate(45.938 143.893)" fill="#ebebeb"/>
        <rect id="Rectangle_316" data-name="Rectangle 316" width="2.255" height="4.494" transform="translate(41.946 151.194)" fill="#ebebeb"/>
        <rect id="Rectangle_317" data-name="Rectangle 317" width="2.255" height="4.494" transform="translate(45.938 151.194)" fill="#ebebeb"/>
        <rect id="Rectangle_320" data-name="Rectangle 320" width="2.255" height="2.803" transform="translate(37.949 158.495)" fill="#ebebeb"/>
        <rect id="Rectangle_321" data-name="Rectangle 321" width="2.255" height="2.803" transform="translate(41.946 158.495)" fill="#ebebeb"/>
        <rect id="Rectangle_322" data-name="Rectangle 322" width="2.255" height="2.803" transform="translate(45.938 158.495)" fill="#ebebeb"/>
        <rect id="Rectangle_331" data-name="Rectangle 331" width="2.255" height="4.494" transform="translate(52.221 70.864)" fill="#dbdbdb"/>
        <rect id="Rectangle_332" data-name="Rectangle 332" width="2.255" height="4.494" transform="translate(56.218 70.864)" fill="#dbdbdb"/>
        <rect id="Rectangle_333" data-name="Rectangle 333" width="2.255" height="4.494" transform="translate(60.215 70.864)" fill="#dbdbdb"/>
        <rect id="Rectangle_334" data-name="Rectangle 334" width="2.255" height="4.494" transform="translate(52.221 78.165)" fill="#dbdbdb"/>
        <rect id="Rectangle_335" data-name="Rectangle 335" width="2.255" height="4.494" transform="translate(56.218 78.165)" fill="#dbdbdb"/>
        <rect id="Rectangle_336" data-name="Rectangle 336" width="2.255" height="4.494" transform="translate(60.215 78.165)" fill="#dbdbdb"/>
        <rect id="Rectangle_337" data-name="Rectangle 337" width="2.255" height="4.494" transform="translate(52.221 85.472)" fill="#dbdbdb"/>
        <rect id="Rectangle_338" data-name="Rectangle 338" width="2.255" height="4.494" transform="translate(56.218 85.472)" fill="#dbdbdb"/>
        <rect id="Rectangle_339" data-name="Rectangle 339" width="2.255" height="4.494" transform="translate(60.215 85.472)" fill="#dbdbdb"/>
        <rect id="Rectangle_340" data-name="Rectangle 340" width="2.255" height="4.494" transform="translate(52.221 92.773)" fill="#dbdbdb"/>
        <rect id="Rectangle_341" data-name="Rectangle 341" width="2.255" height="4.494" transform="translate(56.218 92.773)" fill="#dbdbdb"/>
        <rect id="Rectangle_342" data-name="Rectangle 342" width="2.255" height="4.494" transform="translate(60.215 92.773)" fill="#dbdbdb"/>
        <rect id="Rectangle_343" data-name="Rectangle 343" width="2.255" height="4.494" transform="translate(52.221 100.074)" fill="#dbdbdb"/>
        <rect id="Rectangle_344" data-name="Rectangle 344" width="2.255" height="4.494" transform="translate(56.218 100.074)" fill="#dbdbdb"/>
        <rect id="Rectangle_345" data-name="Rectangle 345" width="2.255" height="4.494" transform="translate(60.215 100.074)" fill="#dbdbdb"/>
        <rect id="Rectangle_346" data-name="Rectangle 346" width="2.255" height="4.494" transform="translate(52.221 107.376)" fill="#dbdbdb"/>
        <rect id="Rectangle_347" data-name="Rectangle 347" width="2.255" height="4.494" transform="translate(56.218 107.376)" fill="#dbdbdb"/>
        <rect id="Rectangle_348" data-name="Rectangle 348" width="2.255" height="4.494" transform="translate(60.215 107.376)" fill="#dbdbdb"/>
        <rect id="Rectangle_349" data-name="Rectangle 349" width="2.255" height="4.494" transform="translate(52.221 114.682)" fill="#dbdbdb"/>
        <rect id="Rectangle_350" data-name="Rectangle 350" width="2.255" height="4.494" transform="translate(56.218 114.682)" fill="#dbdbdb"/>
        <rect id="Rectangle_351" data-name="Rectangle 351" width="2.255" height="4.494" transform="translate(60.215 114.682)" fill="#dbdbdb"/>
        <rect id="Rectangle_352" data-name="Rectangle 352" width="2.255" height="4.494" transform="translate(52.221 121.984)" fill="#dbdbdb"/>
        <rect id="Rectangle_353" data-name="Rectangle 353" width="2.255" height="4.494" transform="translate(56.218 121.984)" fill="#dbdbdb"/>
        <rect id="Rectangle_354" data-name="Rectangle 354" width="2.255" height="4.494" transform="translate(60.215 121.984)" fill="#dbdbdb"/>
        <rect id="Rectangle_355" data-name="Rectangle 355" width="2.255" height="4.494" transform="translate(52.221 129.285)" fill="#dbdbdb"/>
        <rect id="Rectangle_356" data-name="Rectangle 356" width="2.255" height="4.494" transform="translate(56.218 129.285)" fill="#dbdbdb"/>
        <rect id="Rectangle_357" data-name="Rectangle 357" width="2.255" height="4.494" transform="translate(60.215 129.285)" fill="#dbdbdb"/>
        <rect id="Rectangle_358" data-name="Rectangle 358" width="2.255" height="4.494" transform="translate(52.221 136.591)" fill="#dbdbdb"/>
        <rect id="Rectangle_359" data-name="Rectangle 359" width="2.255" height="4.494" transform="translate(56.218 136.591)" fill="#dbdbdb"/>
        <rect id="Rectangle_360" data-name="Rectangle 360" width="2.255" height="4.494" transform="translate(60.215 136.591)" fill="#dbdbdb"/>
        <rect id="Rectangle_361" data-name="Rectangle 361" width="2.255" height="4.494" transform="translate(52.221 143.893)" fill="#dbdbdb"/>
        <rect id="Rectangle_362" data-name="Rectangle 362" width="2.255" height="4.494" transform="translate(56.218 143.893)" fill="#dbdbdb"/>
        <rect id="Rectangle_363" data-name="Rectangle 363" width="2.255" height="4.494" transform="translate(60.215 143.893)" fill="#dbdbdb"/>
        <rect id="Rectangle_364" data-name="Rectangle 364" width="2.255" height="4.494" transform="translate(52.221 151.194)" fill="#dbdbdb"/>
        <rect id="Rectangle_365" data-name="Rectangle 365" width="2.255" height="4.494" transform="translate(56.218 151.194)" fill="#dbdbdb"/>
        <rect id="Rectangle_366" data-name="Rectangle 366" width="2.255" height="4.494" transform="translate(60.215 151.194)" fill="#dbdbdb"/>
        <rect id="Rectangle_367" data-name="Rectangle 367" width="2.255" height="2.803" transform="translate(52.221 158.495)" fill="#dbdbdb"/>
        <rect id="Rectangle_368" data-name="Rectangle 368" width="2.255" height="2.803" transform="translate(56.218 158.495)" fill="#dbdbdb"/>
        <rect id="Rectangle_369" data-name="Rectangle 369" width="2.255" height="2.803" transform="translate(60.215 158.495)" fill="#dbdbdb"/>
        <rect id="Rectangle_382" data-name="Rectangle 382" width="17.307" height="1.484" transform="translate(2.43 159.814)" fill="#fff"/>
        <rect id="Rectangle_386" data-name="Rectangle 386" width="10.678" height="1.484" transform="translate(24.081 104.449)" fill="#fff"/>
        <rect id="Rectangle_387" data-name="Rectangle 387" width="10.678" height="1.484" transform="translate(24.081 110.597)" fill="#fff"/>
        <rect id="Rectangle_388" data-name="Rectangle 388" width="10.678" height="1.484" transform="translate(24.081 116.751)" fill="#fff"/>
        <rect id="Rectangle_389" data-name="Rectangle 389" width="10.678" height="1.484" transform="translate(24.081 122.904)" fill="#fff"/>
        <rect id="Rectangle_396" data-name="Rectangle 396" width="17.136" height="38.497" transform="translate(61.234 122.801)" fill="#dbdbdb"/>
        <rect id="Rectangle_397" data-name="Rectangle 397" width="3.03" height="2.358" transform="translate(63.928 126.136)" fill="#c7c7c7"/>
        <rect id="Rectangle_398" data-name="Rectangle 398" width="3.03" height="2.358" transform="translate(63.928 131.172)" fill="#c7c7c7"/>
        <rect id="Rectangle_399" data-name="Rectangle 399" width="3.03" height="2.358" transform="translate(63.928 136.209)" fill="#c7c7c7"/>
        <rect id="Rectangle_400" data-name="Rectangle 400" width="3.03" height="2.358" transform="translate(63.928 141.245)" fill="#c7c7c7"/>
        <rect id="Rectangle_401" data-name="Rectangle 401" width="3.03" height="2.358" transform="translate(63.928 146.287)" fill="#c7c7c7"/>
        <rect id="Rectangle_402" data-name="Rectangle 402" width="3.03" height="2.358" transform="translate(63.928 151.323)" fill="#c7c7c7"/>
        <rect id="Rectangle_403" data-name="Rectangle 403" width="3.03" height="2.358" transform="translate(63.928 156.36)" fill="#c7c7c7"/>
        <rect id="Rectangle_404" data-name="Rectangle 404" width="3.035" height="2.358" transform="translate(68.292 126.136)" fill="#c7c7c7"/>
        <rect id="Rectangle_405" data-name="Rectangle 405" width="3.035" height="2.358" transform="translate(68.292 131.172)" fill="#c7c7c7"/>
        <rect id="Rectangle_406" data-name="Rectangle 406" width="3.035" height="2.358" transform="translate(68.292 136.209)" fill="#c7c7c7"/>
        <rect id="Rectangle_407" data-name="Rectangle 407" width="3.035" height="2.358" transform="translate(68.292 141.245)" fill="#c7c7c7"/>
        <rect id="Rectangle_408" data-name="Rectangle 408" width="3.035" height="2.358" transform="translate(68.292 146.287)" fill="#c7c7c7"/>
        <rect id="Rectangle_409" data-name="Rectangle 409" width="3.035" height="2.358" transform="translate(68.292 151.323)" fill="#c7c7c7"/>
        <rect id="Rectangle_410" data-name="Rectangle 410" width="3.035" height="2.358" transform="translate(68.292 156.36)" fill="#c7c7c7"/>
        <rect id="Rectangle_411" data-name="Rectangle 411" width="3.035" height="2.358" transform="translate(72.646 126.136)" fill="#c7c7c7"/>
        <rect id="Rectangle_412" data-name="Rectangle 412" width="3.035" height="2.358" transform="translate(72.646 131.172)" fill="#c7c7c7"/>
        <rect id="Rectangle_413" data-name="Rectangle 413" width="3.035" height="2.358" transform="translate(72.646 136.209)" fill="#c7c7c7"/>
        <rect id="Rectangle_414" data-name="Rectangle 414" width="3.035" height="2.358" transform="translate(72.646 141.245)" fill="#c7c7c7"/>
        <rect id="Rectangle_415" data-name="Rectangle 415" width="3.035" height="2.358" transform="translate(72.646 146.287)" fill="#c7c7c7"/>
        <rect id="Rectangle_416" data-name="Rectangle 416" width="3.035" height="2.358" transform="translate(72.646 151.323)" fill="#c7c7c7"/>
        <rect id="Rectangle_417" data-name="Rectangle 417" width="3.035" height="2.358" transform="translate(72.646 156.36)" fill="#c7c7c7"/>
        <rect id="Rectangle_418" data-name="Rectangle 418" width="12.022" height="38.497" transform="translate(78.37 122.801)" fill="#a6a6a6"/>
        <rect id="Rectangle_419" data-name="Rectangle 419" width="2.467" height="2.358" transform="translate(89.167 158.345) rotate(180)" fill="#c7c7c7"/>
        <rect id="Rectangle_420" data-name="Rectangle 420" width="2.467" height="2.358" transform="translate(89.167 153.304) rotate(180)" fill="#c7c7c7"/>
        <rect id="Rectangle_421" data-name="Rectangle 421" width="2.467" height="2.358" transform="translate(89.167 148.267) rotate(180)" fill="#c7c7c7"/>
        <rect id="Rectangle_422" data-name="Rectangle 422" width="2.467" height="2.358" transform="translate(89.167 143.226) rotate(180)" fill="#c7c7c7"/>
        <rect id="Rectangle_423" data-name="Rectangle 423" width="2.467" height="2.358" transform="translate(89.167 138.194) rotate(180)" fill="#c7c7c7"/>
        <rect id="Rectangle_424" data-name="Rectangle 424" width="2.467" height="2.358" transform="translate(89.167 133.153) rotate(180)" fill="#c7c7c7"/>
        <rect id="Rectangle_425" data-name="Rectangle 425" width="2.467" height="2.358" transform="translate(89.167 128.116) rotate(180)" fill="#c7c7c7"/>
        <rect id="Rectangle_426" data-name="Rectangle 426" width="2.467" height="2.358" transform="translate(85.615 158.345) rotate(180)" fill="#c7c7c7"/>
        <rect id="Rectangle_427" data-name="Rectangle 427" width="2.467" height="2.358" transform="translate(85.615 153.304) rotate(180)" fill="#c7c7c7"/>
        <rect id="Rectangle_428" data-name="Rectangle 428" width="2.467" height="2.358" transform="translate(85.615 148.267) rotate(180)" fill="#c7c7c7"/>
        <rect id="Rectangle_429" data-name="Rectangle 429" width="2.467" height="2.358" transform="translate(85.615 143.226) rotate(180)" fill="#c7c7c7"/>
        <rect id="Rectangle_430" data-name="Rectangle 430" width="2.467" height="2.358" transform="translate(85.615 138.194) rotate(180)" fill="#c7c7c7"/>
        <rect id="Rectangle_431" data-name="Rectangle 431" width="2.467" height="2.358" transform="translate(85.615 133.153) rotate(180)" fill="#c7c7c7"/>
        <rect id="Rectangle_432" data-name="Rectangle 432" width="2.467" height="2.358" transform="translate(85.615 128.116) rotate(180)" fill="#c7c7c7"/>
        <rect id="Rectangle_433" data-name="Rectangle 433" width="2.467" height="2.358" transform="translate(82.073 158.345) rotate(180)" fill="#c7c7c7"/>
        <rect id="Rectangle_434" data-name="Rectangle 434" width="2.467" height="2.358" transform="translate(82.073 153.304) rotate(180)" fill="#c7c7c7"/>
        <rect id="Rectangle_435" data-name="Rectangle 435" width="2.467" height="2.358" transform="translate(82.073 148.267) rotate(180)" fill="#c7c7c7"/>
        <rect id="Rectangle_436" data-name="Rectangle 436" width="2.467" height="2.358" transform="translate(82.073 143.226) rotate(180)" fill="#c7c7c7"/>
        <rect id="Rectangle_437" data-name="Rectangle 437" width="2.467" height="2.358" transform="translate(82.073 138.194) rotate(180)" fill="#c7c7c7"/>
        <rect id="Rectangle_438" data-name="Rectangle 438" width="2.467" height="2.358" transform="translate(82.073 133.153) rotate(180)" fill="#c7c7c7"/>
        <rect id="Rectangle_439" data-name="Rectangle 439" width="2.467" height="2.358" transform="translate(82.073 128.116) rotate(180)" fill="#c7c7c7"/>
        <rect id="Rectangle_503" data-name="Rectangle 503" width="3.997" height="2.777" transform="translate(108.605 119.884)" fill="#dbdbdb"/>
        <rect id="Rectangle_504" data-name="Rectangle 504" width="3.997" height="2.777" transform="translate(108.605 125.82)" fill="#dbdbdb"/>
        <rect id="Rectangle_505" data-name="Rectangle 505" width="3.997" height="2.777" transform="translate(108.605 131.751)" fill="#dbdbdb"/>
        <rect id="Rectangle_506" data-name="Rectangle 506" width="3.997" height="2.777" transform="translate(108.605 137.682)" fill="#dbdbdb"/>
        <rect id="Rectangle_507" data-name="Rectangle 507" width="3.997" height="2.777" transform="translate(108.605 143.619)" fill="#dbdbdb"/>
        <rect id="Rectangle_508" data-name="Rectangle 508" width="3.997" height="2.777" transform="translate(108.605 149.55)" fill="#dbdbdb"/>
        <rect id="Rectangle_509" data-name="Rectangle 509" width="3.997" height="2.777" transform="translate(108.605 155.481)" fill="#dbdbdb"/>
        <rect id="Rectangle_510" data-name="Rectangle 510" width="3.997" height="2.777" transform="translate(114.355 119.884)" fill="#dbdbdb"/>
        <rect id="Rectangle_511" data-name="Rectangle 511" width="3.997" height="2.777" transform="translate(114.355 125.82)" fill="#dbdbdb"/>
        <rect id="Rectangle_512" data-name="Rectangle 512" width="3.997" height="2.777" transform="translate(114.355 131.751)" fill="#dbdbdb"/>
        <rect id="Rectangle_513" data-name="Rectangle 513" width="3.997" height="2.777" transform="translate(114.355 137.682)" fill="#dbdbdb"/>
        <rect id="Rectangle_514" data-name="Rectangle 514" width="3.997" height="2.777" transform="translate(114.355 143.619)" fill="#dbdbdb"/>
        <rect id="Rectangle_515" data-name="Rectangle 515" width="3.997" height="2.777" transform="translate(114.355 149.55)" fill="#dbdbdb"/>
        <rect id="Rectangle_516" data-name="Rectangle 516" width="3.997" height="2.777" transform="translate(114.355 155.481)" fill="#dbdbdb"/>
        <rect id="Rectangle_517" data-name="Rectangle 517" width="3.997" height="2.777" transform="translate(120.089 119.884)" fill="#dbdbdb"/>
        <rect id="Rectangle_518" data-name="Rectangle 518" width="3.997" height="2.777" transform="translate(120.089 125.82)" fill="#dbdbdb"/>
        <rect id="Rectangle_519" data-name="Rectangle 519" width="3.997" height="2.777" transform="translate(120.089 131.751)" fill="#dbdbdb"/>
        <rect id="Rectangle_520" data-name="Rectangle 520" width="3.997" height="2.777" transform="translate(120.089 137.682)" fill="#dbdbdb"/>
        <rect id="Rectangle_521" data-name="Rectangle 521" width="3.997" height="2.777" transform="translate(120.089 143.619)" fill="#dbdbdb"/>
        <rect id="Rectangle_524" data-name="Rectangle 524" width="15.032" height="4.726" transform="translate(112.602 111.238)" fill="#dbdbdb"/>
        <rect id="Rectangle_525" data-name="Rectangle 525" width="9.53" height="2.927" transform="translate(118.104 108.312)" fill="#ebebeb"/>
        <rect id="Rectangle_527" data-name="Rectangle 527" width="3.253" height="2.777" transform="translate(141.859 157.818) rotate(180)" fill="#c7c7c7"/>
        <rect id="Rectangle_528" data-name="Rectangle 528" width="3.253" height="2.777" transform="translate(141.859 151.887) rotate(180)" fill="#c7c7c7"/>
        <rect id="Rectangle_529" data-name="Rectangle 529" width="3.253" height="2.777" transform="translate(141.859 145.951) rotate(180)" fill="#c7c7c7"/>
        <rect id="Rectangle_530" data-name="Rectangle 530" width="3.253" height="2.777" transform="translate(141.859 140.015) rotate(180)" fill="#c7c7c7"/>
        <rect id="Rectangle_531" data-name="Rectangle 531" width="3.253" height="2.777" transform="translate(141.859 134.089) rotate(180)" fill="#c7c7c7"/>
        <rect id="Rectangle_532" data-name="Rectangle 532" width="3.253" height="2.777" transform="translate(141.859 128.153) rotate(180)" fill="#c7c7c7"/>
        <rect id="Rectangle_533" data-name="Rectangle 533" width="3.253" height="2.777" transform="translate(141.859 122.221) rotate(180)" fill="#c7c7c7"/>
        <rect id="Rectangle_538" data-name="Rectangle 538" width="3.253" height="2.777" transform="translate(137.179 134.089) rotate(180)" fill="#c7c7c7"/>
        <rect id="Rectangle_539" data-name="Rectangle 539" width="3.253" height="2.777" transform="translate(137.179 128.153) rotate(180)" fill="#c7c7c7"/>
        <rect id="Rectangle_540" data-name="Rectangle 540" width="3.253" height="2.777" transform="translate(137.179 122.221) rotate(180)" fill="#c7c7c7"/>
        <rect id="Rectangle_549" data-name="Rectangle 549" width="7.286" height="2.927" transform="translate(127.634 108.312)" fill="#dbdbdb"/>
      </g>
      <g id="freepik--Shadow--inject-37" transform="translate(10.998 208.881)">
        <ellipse id="Ellipse_25" data-name="Ellipse 25" cx="98.051" cy="7.968" rx="98.051" ry="7.968" transform="translate(0)" fill="#f1f1f9"/>
      </g>
      <g id="freepik--Plants--inject-37" transform="translate(3.878 155.196)">
        <path id="Path_107" data-name="Path 107" d="M74.85,337.1s-.434-2.032-1.3-2.342a1.242,1.242,0,0,0-1.4.6s-.2-1.944-1.438-2.523a1.858,1.858,0,0,0-2.156.61S67.606,331,65.915,331s-2.539,3.62-2.539,3.62-1-1.07-2.022-.465-1.034,2.984-1.034,2.984Z" transform="translate(-53.231 -331)" fill="#37474f"/>
        <path id="Path_108" data-name="Path 108" d="M353.7,337.1s-.434-2.032-1.3-2.342a1.233,1.233,0,0,0-1.4.6s-.207-1.944-1.438-2.523a1.862,1.862,0,0,0-2.156.61S346.461,331,344.775,331s-2.544,3.62-2.544,3.62-.993-1.07-2.017-.465-1.034,2.984-1.034,2.984Z" transform="translate(-187.895 -331)" fill="#455a64"/>
        <path id="Path_109" data-name="Path 109" d="M148.43,338.1H133.15s.517-2.151,1.515-2.306a1.5,1.5,0,0,1,1.51.858s-.046-3,1.846-3.516,3.475,2.141,3.475,2.141a3.773,3.773,0,0,1,2.8-1.417c1.613.1,2.032,2.585,2.032,2.585S147.779,335.585,148.43,338.1Z" transform="translate(-88.401 -332.001)" fill="#37474f"/>
        <path id="Path_110" data-name="Path 110" d="M54.651,339.613H46.61s0-1.194.807-1.515a1.081,1.081,0,0,1,1.262.305s.321-2.2,1.794-2.2,2.182,1.9,2.182,1.9a1.127,1.127,0,0,1,1.148-.465C54.62,337.736,54.651,339.613,54.651,339.613Z" transform="translate(-46.61 -333.511)" fill="#455a64"/>
        <path id="Path_111" data-name="Path 111" d="M167.391,339.613H159.35s0-1.194.807-1.515a1.081,1.081,0,0,1,1.262.305s.326-2.2,1.8-2.2,2.177,1.9,2.177,1.9a1.127,1.127,0,0,1,1.148-.465C167.36,337.736,167.391,339.613,167.391,339.613Z" transform="translate(-101.053 -333.511)" fill="#455a64"/>
        <path id="Path_112" data-name="Path 112" d="M423.191,339.613H415.15s0-1.194.807-1.515a1.081,1.081,0,0,1,1.262.305s.321-2.2,1.794-2.2,2.182,1.9,2.182,1.9a1.122,1.122,0,0,1,1.148-.465C423.16,337.736,423.191,339.613,423.191,339.613Z" transform="translate(-224.581 -333.511)" fill="#455a64"/>
        <path id="Path_113" data-name="Path 113" d="M441.008,337.57H427.75s.031-1.975,1.334-2.5a1.779,1.779,0,0,1,2.068.517s.517-3.62,2.963-3.62,3.589,3.118,3.589,3.118a1.862,1.862,0,0,1,1.893-.771C440.956,334.478,441.008,337.57,441.008,337.57Z" transform="translate(-230.666 -331.468)" fill="#37474f"/>
      </g>
      <g id="freepik--Chronometer--inject-37" transform="translate(122.75 -48.645)" opacity="0">
        <rect id="Rectangle_551" data-name="Rectangle 551" width="8.842" height="5.011" transform="translate(21.427 1.686)" fill="#263238"/>
        <rect id="Rectangle_552" data-name="Rectangle 552" width="11.34" height="3.278" transform="translate(20.176)" fill="#455a64"/>
        <rect id="Rectangle_553" data-name="Rectangle 553" width="3.408" height="5.383" transform="translate(8.09 9.047) rotate(-45)" fill="#263238"/>
        <rect id="Rectangle_554" data-name="Rectangle 554" width="5.414" height="3.516" transform="translate(6.101 8.474) rotate(-45)" fill="#455a64"/>
        <rect id="Rectangle_555" data-name="Rectangle 555" width="3.408" height="5.383" transform="translate(39.8 12.849) rotate(-135)" fill="#263238"/>
        <rect id="Rectangle_556" data-name="Rectangle 556" width="5.414" height="3.516" transform="translate(43.098 10.962) rotate(-135)" fill="#455a64"/>
        <ellipse id="Ellipse_26" data-name="Ellipse 26" cx="21.495" cy="21.495" rx="21.495" ry="21.495" transform="translate(0 43.572) rotate(-76.8)" fill="#455a64"/>
        <ellipse id="Ellipse_27" data-name="Ellipse 27" cx="20.508" cy="20.508" rx="20.508" ry="20.508" transform="translate(5.077 6.696)" fill="#263238"/>
        <ellipse id="Ellipse_28" data-name="Ellipse 28" cx="18.114" cy="18.114" rx="18.114" ry="18.114" transform="translate(5.297 42.762) rotate(-81.68)" fill="#fff"/>
        <rect id="Rectangle_557" data-name="Rectangle 557" width="0.352" height="2.746" transform="translate(25.672 10.668)" fill="#c7c7c7"/>
        <rect id="Rectangle_558" data-name="Rectangle 558" width="0.352" height="2.746" transform="translate(17.292 12.995) rotate(-30)" fill="#c7c7c7"/>
        <rect id="Rectangle_559" data-name="Rectangle 559" width="0.352" height="2.746" transform="translate(11.203 19.212) rotate(-60)" fill="#c7c7c7"/>
        <rect id="Rectangle_560" data-name="Rectangle 560" width="2.746" height="0.352" transform="translate(9.048 27.292)" fill="#c7c7c7"/>
        <rect id="Rectangle_561" data-name="Rectangle 561" width="2.755" height="0.353" transform="translate(11.815 35.89) rotate(-29.887)" fill="#c7c7c7"/>
        <rect id="Rectangle_562" data-name="Rectangle 562" width="2.746" height="0.352" transform="translate(17.295 41.931) rotate(-60.03)" fill="#c7c7c7"/>
        <rect id="Rectangle_563" data-name="Rectangle 563" width="0.352" height="2.746" transform="translate(25.672 41.522)" fill="#c7c7c7"/>
        <rect id="Rectangle_564" data-name="Rectangle 564" width="0.352" height="2.746" transform="translate(32.719 39.719) rotate(-30)" fill="#c7c7c7"/>
        <rect id="Rectangle_565" data-name="Rectangle 565" width="0.352" height="2.746" transform="translate(37.928 34.634) rotate(-60)" fill="#c7c7c7"/>
        <rect id="Rectangle_566" data-name="Rectangle 566" width="2.746" height="0.352" transform="translate(39.903 27.292)" fill="#c7c7c7"/>
        <rect id="Rectangle_567" data-name="Rectangle 567" width="2.746" height="0.352" transform="translate(37.929 20.279) rotate(-30)" fill="#c7c7c7"/>
        <rect id="Rectangle_568" data-name="Rectangle 568" width="2.746" height="0.352" transform="translate(32.72 15.205) rotate(-60.02)" fill="#c7c7c7"/>
        <path id="Path_115" data-name="Path 115" d="M328.594,72.855l.807,14.184-1.82-.026L328.1,72.85Z" transform="translate(-302.621 -58.496)" fill="#464698"/>
        <path id="Path_116" data-name="Path 116" d="M329.331,97.626a.62.62,0,1,1-.18-.442A.626.626,0,0,1,329.331,97.626Z" transform="translate(-302.863 -70.158)" fill="#464698"/>
        <path id="Path_117" data-name="Path 117" d="M341.444,97.669l-14.184.8.026-1.82,14.163.522Z" transform="translate(-302.467 -69.989)" fill="#263238"/>
        <path id="Path_118" data-name="Path 118" d="M329.331,97.626a.62.62,0,1,1-.18-.442A.626.626,0,0,1,329.331,97.626Z" transform="translate(-302.863 -70.158)" fill="#464698"/>
      </g>
      <g id="freepik--Character--inject-37" transform="translate(18.403 43.09)">
        <path id="Path_119" data-name="Path 119" d="M186.314,167.3c2.663,10.161,6.133,16.8,8.46,19.091,5.574,5.5,17.581,6.722,24.334,9.525,2.2.915,8.273-13.026,6.024-14.246-1.66-.9-20.937-3.346-22.576-3.847-.843-.259-7.239-8.589-10.859-13.274C185.864,157.037,184.855,161.747,186.314,167.3Z" transform="translate(-128.311 -136.631)" fill="#ffc4c0"/>
        <path id="Path_120" data-name="Path 120" d="M260.346,230.017c-1.034-.026-1.07.517.372,1.712s8.16,4.654,6.748,6.9-10.818-2.8-13.067-4.959a50.893,50.893,0,0,1-5.14-6.443C251.292,227.845,256.365,228.864,260.346,230.017Z" transform="translate(-158.997 -168.782)" fill="#ffc4c0"/>
        <path id="Path_121" data-name="Path 121" d="M254.2,200.44c10.011,1.551,13.992,3.511,18.377,8.63a3.356,3.356,0,0,1,.858,2c2.006,2.255,1.551,3.883,1.551,3.883,1.22,2.673.517,4.271.517,4.271s2.327,2.673.941,4.349c-1.551,1.882-4.509-2.244-7.524-3.516-6.913-2.922-17.581-5.135-19.649-5.776Z" transform="translate(-159.001 -155.845)" fill="#ffc4c0"/>
        <path id="Path_122" data-name="Path 122" d="M277.324,222.546a47.722,47.722,0,0,1,5.91,2.9,48.039,48.039,0,0,1,5.688,4.426.062.062,0,0,0,.083-.088,25.534,25.534,0,0,0-11.64-7.327C277.262,222.422,277.221,222.5,277.324,222.546Z" transform="translate(-172.52 -166.472)" fill="#263238"/>
        <path id="Path_123" data-name="Path 123" d="M279.542,213.975A35.528,35.528,0,0,1,289.5,221.5h.031a22.907,22.907,0,0,0-9.944-7.6C279.464,213.83,279.418,213.908,279.542,213.975Z" transform="translate(-173.585 -162.332)" fill="#263238"/>
        <path id="Path_124" data-name="Path 124" d="M280.834,209.362a36.175,36.175,0,0,1,7.782,5.962s.041,0,.026-.026a21.462,21.462,0,0,0-7.756-6.055C280.761,209.181,280.709,209.289,280.834,209.362Z" transform="translate(-174.209 -160.087)" fill="#263238"/>
        <path id="Path_125" data-name="Path 125" d="M196.767,170.958l-9.22,8.641s-3.723-13.4-3.7-17.643c0-4.783,2.461-3.728,5.688-.517A69.941,69.941,0,0,1,196.767,170.958Z" transform="translate(-127.409 -135.686)" fill="#464698"/>
        <path id="Path_126" data-name="Path 126" d="M196.767,170.958l-9.22,8.641s-3.723-13.4-3.7-17.643c0-4.783,2.461-3.728,5.688-.517A69.941,69.941,0,0,1,196.767,170.958Z" transform="translate(-127.409 -135.686)" opacity="0.1"/>
        <path id="Path_127" data-name="Path 127" d="M198.322,179.765c-1.324.941-4.9,4.323-5.5,4.876-.315.295-1.515,1.51-1.831,1.8-.041.036,0,.093.062.057.6-.548,1.267-1.034,1.872-1.587s4.369-3.857,5.435-5.1C198.389,179.785,198.353,179.744,198.322,179.765Z" transform="translate(-130.852 -145.858)" fill="#263238"/>
        <path id="Path_128" data-name="Path 128" d="M266.489,349.72c-1.251.409-37.282-1.034-38.632-1.908-.165-.1-.807-7.027-.807-7.027l4.168-26.625,23.657.315-4.566,22.752s5.212,2.4,9.509,4.493h0a50.616,50.616,0,0,1,5.476,2.885C266.68,345.713,267.745,349.317,266.489,349.72Z" transform="translate(-148.271 -210.761)" fill="#ffc4c0"/>
        <path id="Path_129" data-name="Path 129" d="M266.489,366.926c-1.251.408-37.293-1.034-38.637-1.9-.16-.1-.812-7.032-.812-7.032l1.288-8.2,22.7,1.034-.734,3.589s5.207,2.4,9.509,4.488h0a50.589,50.589,0,0,1,5.476,2.885C266.67,362.924,267.735,366.528,266.489,366.926Z" transform="translate(-148.266 -227.967)" fill="#ebebeb"/>
        <path id="Path_130" data-name="Path 130" d="M266.256,370.314c-1.277.4-37.546-.445-38.906-1.355-.517-.336-.708-5.631-.75-12.033v-.2l23.409.284v.393s13.739,6.536,15.13,7.694S267.533,369.931,266.256,370.314Z" transform="translate(-148.054 -231.319)" fill="rgba(162,162,203,0.65)"/>
        <path id="Path_131" data-name="Path 131" d="M264.187,370.422c-7.937.083-35.679-.662-36.838-1.453-.517-.336-.708-5.631-.75-12.033v-.2l14.66.176Z" transform="translate(-148.054 -231.324)" fill="#bbbbd6"/>
        <path id="Path_132" data-name="Path 132" d="M268.112,379.574c-6.112-.295-30.788-.9-36.848-.724-.052,0-.052.036,0,.041,6.05.419,30.726.822,36.843.781C268.236,379.673,268.241,379.58,268.112,379.574Z" transform="translate(-150.287 -241.986)" fill="#263238"/>
        <path id="Path_133" data-name="Path 133" d="M268.842,358.067c-2.394-.517-5.347-.207-7.239,1.469-.072.062,0,.165.1.14a33.777,33.777,0,0,1,7.11-1.3.155.155,0,0,0,.031-.305Z" transform="translate(-164.943 -231.854)" fill="#263238"/>
        <path id="Path_134" data-name="Path 134" d="M272.152,360.168c-2.394-.517-5.347-.2-7.239,1.469-.072.062,0,.165.1.145a33.786,33.786,0,0,1,7.126-1.293.161.161,0,0,0,.016-.321Z" transform="translate(-166.541 -232.869)" fill="#263238"/>
        <path id="Path_135" data-name="Path 135" d="M275.462,362.268c-2.394-.517-5.347-.2-7.239,1.469-.072.067,0,.165.1.145a33.847,33.847,0,0,1,7.11-1.308.155.155,0,0,0,.031-.305Z" transform="translate(-168.14 -233.883)" fill="#263238"/>
        <path id="Path_136" data-name="Path 136" d="M210.449,291.988l-26.408-1.2s9.127-37.06,8.155-38.265c-1.034-1.293-39.268,8.273-46.911-1.21-7.829-9.716-3.9-23.7-3.9-23.7h26.077a20.848,20.848,0,0,0-.166,5.171s36.714-5.616,44.7-1.386c1.551.833,7.239,5.507,7.332,9.939C219.824,260.905,210.449,291.988,210.449,291.988Z" transform="translate(-106.426 -168.966)" fill="#455a64"/>
        <path id="Path_137" data-name="Path 137" d="M253.746,341.431c-3.134-.393-6.272-.631-9.421-.869s-6.3-.424-9.447-.543c-1.779-.072-3.558-.057-5.336-.119a.047.047,0,0,0,0,.088c1.582.114,3.159.315,4.742.44l4.685.341c3.149.207,6.3.383,9.447.574,1.774.109,3.547.165,5.326.207a.062.062,0,0,0,.005-.119Z" transform="translate(-149.459 -223.191)" fill="#263238"/>
        <path id="Path_138" data-name="Path 138" d="M199.911,250.059c-5.073.165-10.119.605-15.166,1.1s-10.125,1.034-15.213,1.365c-2.523.16-5.057.264-7.591.279a21.493,21.493,0,0,1-6.252-.652,8.465,8.465,0,0,1-4.855-3.723,15.843,15.843,0,0,1-2.125-5.972c-.667-4.276,0-8.646.781-12.865.1-.517.2-1.034.29-1.593,0-.047-.067-.067-.083,0-1.034,4.256-2,8.635-1.691,13.031a17.462,17.462,0,0,0,1.551,6.236,9.824,9.824,0,0,0,3.982,4.581,13.483,13.483,0,0,0,6.045,1.443c2.43.124,4.892,0,7.322-.109,5.2-.253,10.383-.791,15.554-1.329s10.316-1.065,15.513-1.324c.574-.031,1.148-.052,1.722-.072-.786,4.654-7.441,32.36-7.813,34.552-.036.217.171.284.228.062,1.138-4.318,7.6-32.06,8.025-34.769a.2.2,0,0,0-.222-.243Z" transform="translate(-110.071 -169.133)" fill="#263238"/>
        <rect id="Rectangle_569" data-name="Rectangle 569" width="56.435" height="6.241" transform="translate(53.762 140.04)" fill="#464698"/>
        <path id="Path_139" data-name="Path 139" d="M82.76,279.13h3.2l20.684,23.662h-3.2Z" transform="translate(-78.592 -193.845)" fill="#a6a6a6"/>
        <rect id="Rectangle_570" data-name="Rectangle 570" width="44.48" height="1.872" transform="translate(0 83.408)" fill="#a6a6a6"/>
        <path id="Path_140" data-name="Path 140" d="M106.1,279.13h3.2l20.684,23.662h-3.2Z" transform="translate(-89.863 -193.845)" fill="#a6a6a6"/>
        <path id="Path_141" data-name="Path 141" d="M122.981,363.49c16.071,0,25.384,11.164,25.384,24.3s-8.625,24.05-24.3,24.05c-17.343,0-25.627-13.8-25.627-24.169S106.713,363.49,122.981,363.49Z" transform="translate(-86.164 -234.583)" fill="#37474f"/>
        <path id="Path_142" data-name="Path 142" d="M119.331,363.49c15.28,0,24.127,11.164,24.127,24.3s-8.2,24.05-23.1,24.05c-16.49,0-24.355-13.817-24.355-24.19S103.865,363.49,119.331,363.49Z" transform="translate(-84.986 -234.583)" fill="#263238"/>
        <path id="Path_143" data-name="Path 143" d="M128.135,381.74c9.308,0,14.7,6.8,14.7,14.809s-5,14.649-14.075,14.649c-10.052,0-14.851-8.408-14.851-14.732S118.709,381.74,128.135,381.74Z" transform="translate(-93.635 -243.396)" fill="#f1f1f9"/>
        <path id="Path_144" data-name="Path 144" d="M167.268,304.545V302.43l-54.083,1.743v4.757s-15.663,17.3-17.245,35.276l54.233,1.148,8.713-.217h10.7V334.267s-8.087-5.895-6.67-17.938C163.384,312.332,167.268,304.545,167.268,304.545Z" transform="translate(-84.957 -205.097)" fill="#464698"/>
        <path id="Path_145" data-name="Path 145" d="M144.464,351.358c-.564,1.034-8.791,2.518-24.386,2.937-14.039.377-24.526.067-25.337-.838S96,336.548,105.5,327.882s22.959-9.913,31.832-4.742C145.136,327.675,150.958,339.2,144.464,351.358Z" transform="translate(-84.3 -213.619)" fill="#464698"/>
        <path id="Path_146" data-name="Path 146" d="M157.116,335.849a19.908,19.908,0,0,0-5.533-9.964,22.189,22.189,0,0,0-10.068-5.786,25.586,25.586,0,0,0-12.927.14,28.911,28.911,0,0,0-6.1,2.363,34.055,34.055,0,0,0-5.75,3.894c-.476.393-.957.786-1.427,1.189-.041.031,0,.088.062.057a37.026,37.026,0,0,1,5.786-4.173,28.9,28.9,0,0,1,5.941-2.56,25.989,25.989,0,0,1,12.684-.714,21.527,21.527,0,0,1,10.233,5.171,20.534,20.534,0,0,1,5.905,9.282,23.852,23.852,0,0,1-.419,13.444c-.171.579-.357,1.148-.548,1.717,0,.062.072.083.093.026C156.79,345.472,158.088,340.663,157.116,335.849Z" transform="translate(-94.305 -213.261)" opacity="0.1"/>
        <path id="Path_147" data-name="Path 147" d="M107.66,383.5c-9.416,0-14.4-.29-16.93-1.293L91.9,379.25c2.958,1.174,12.219,1.153,27.121.982,11.009-.129,19.132-1.169,24.2-3.1l1.132,2.968c-5.481,2.068-13.755,3.165-25.3,3.3C114.682,383.459,110.907,383.5,107.66,383.5Z" transform="translate(-82.441 -241.17)" fill="#dbdbdb"/>
        <path id="Path_148" data-name="Path 148" d="M181,292.4s.362-11.831,0-12.3-55.112-1.453-56.751-1.308-1.8,13.961-1.681,14.608S179.574,292.525,181,292.4Z" transform="translate(-97.801 -193.677)" fill="#37474f"/>
        <path id="Path_149" data-name="Path 149" d="M238.152,281.433c-.16-.186-7.1-.383-7.482-.393s-.517,12.6-.31,12.591,7.539.093,7.782-.176S238.5,281.836,238.152,281.433Z" transform="translate(-149.823 -194.767)" fill="#455a64"/>
        <path id="Path_150" data-name="Path 150" d="M170.179,278.83a1.375,1.375,0,0,0-.367.745,7.324,7.324,0,0,0-.14.895c-.067.6-.1,1.21-.134,1.815-.052,1.22-.083,2.446-.1,3.677s-.052,2.451,0,3.666a14.74,14.74,0,0,0,.124,1.8,3.409,3.409,0,0,0,.2.843.786.786,0,0,0,.517.517.713.713,0,0,1-.636-.434,3.961,3.961,0,0,1-.336-.853,11.138,11.138,0,0,1-.284-1.846,35.862,35.862,0,0,1-.093-3.723c.031-1.236.083-2.477.222-3.713a18.431,18.431,0,0,1,.295-1.841,8.789,8.789,0,0,1,.264-.889C169.791,279.233,169.936,278.918,170.179,278.83Z" transform="translate(-120.197 -193.7)" fill="#455a64"/>
        <rect id="Rectangle_571" data-name="Rectangle 571" width="51.704" height="32.142" transform="translate(53.762 83.382) rotate(180)" fill="#37474f"/>
        <rect id="Rectangle_572" data-name="Rectangle 572" width="37.355" height="32.142" transform="translate(39.413 83.382) rotate(180)" fill="#263238"/>
        <rect id="Rectangle_573" data-name="Rectangle 573" width="4.018" height="32.142" transform="translate(18.729 51.234)" fill="#464698"/>
        <rect id="Rectangle_574" data-name="Rectangle 574" width="38.41" height="2.973" transform="translate(1.008 48.261)" fill="#37474f"/>
        <rect id="Rectangle_575" data-name="Rectangle 575" width="15.508" height="2.973" transform="translate(39.413 48.261)" fill="#263238"/>
        <rect id="Rectangle_576" data-name="Rectangle 576" width="4.695" height="2.973" transform="translate(18.388 48.261)" fill="#464698"/>
        <rect id="Rectangle_577" data-name="Rectangle 577" width="37.742" height="23.466" transform="translate(45.277 48.396) rotate(180)" fill="#37474f"/>
        <rect id="Rectangle_578" data-name="Rectangle 578" width="27.266" height="23.466" transform="translate(34.8 48.396) rotate(180)" fill="#263238"/>
        <rect id="Rectangle_579" data-name="Rectangle 579" width="2.932" height="23.466" transform="translate(19.701 24.935)" fill="#464698"/>
        <rect id="Rectangle_580" data-name="Rectangle 580" width="28.037" height="2.172" transform="translate(6.764 22.763)" fill="#37474f"/>
        <rect id="Rectangle_581" data-name="Rectangle 581" width="11.319" height="2.172" transform="translate(34.8 22.763)" fill="#263238"/>
        <rect id="Rectangle_582" data-name="Rectangle 582" width="3.428" height="2.172" transform="translate(19.453 22.763)" fill="#464698"/>
        <path id="Path_151" data-name="Path 151" d="M351.251,363.11c16.076,0,25.384,11.164,25.384,24.3s-8.625,24.034-24.3,24.034c-17.348,0-25.632-13.8-25.632-24.164S334.984,363.11,351.251,363.11Z" transform="translate(-196.393 -234.4)" fill="#37474f"/>
        <path id="Path_152" data-name="Path 152" d="M347.606,363.11c15.28,0,24.133,11.164,24.133,24.3s-8.2,24.034-23.1,24.034c-16.49,0-24.365-13.8-24.365-24.164S332.145,363.11,347.606,363.11Z" transform="translate(-195.22 -234.4)" fill="#263238"/>
        <path id="Path_153" data-name="Path 153" d="M356.42,381.36c9.308,0,14.706,6.8,14.706,14.81s-5,14.649-14.08,14.649c-10.047,0-14.846-8.408-14.846-14.727S347,381.36,356.42,381.36Z" transform="translate(-203.878 -243.213)" fill="#f1f1f9"/>
        <path id="Path_154" data-name="Path 154" d="M313.937,251.02h-6.324l-4.333-6.36h7.41Z" transform="translate(-185.083 -177.199)" fill="#464698"/>
        <path id="Path_155" data-name="Path 155" d="M303.28,244.66l2.539,3.723,1.794,2.637h6.324l-1.712-3.351-1.541-3.009Z" transform="translate(-185.083 -177.199)" fill="#464698"/>
        <path id="Path_156" data-name="Path 156" d="M303.28,244.66l2.539,3.723,6.407-.714-1.541-3.009Z" transform="translate(-185.083 -177.199)" opacity="0.1"/>
        <path id="Path_157" data-name="Path 157" d="M342.585,343.641l-6.159,1.417-5.647-5.233L338,338.17Z" transform="translate(-198.363 -222.356)" fill="#464698"/>
        <path id="Path_158" data-name="Path 158" d="M330.78,339.825l3.3,3.066,2.337,2.167,6.169-1.417-2.42-2.88L338,338.17Z" transform="translate(-198.363 -222.356)" fill="#464698"/>
        <path id="Path_159" data-name="Path 159" d="M330.78,339.825l3.3,3.066,6.086-2.13L338,338.17Z" transform="translate(-198.363 -222.356)" opacity="0.1"/>
        <path id="Path_160" data-name="Path 160" d="M370,353.328l-5.983,3.144s-17.328-3.144-28.44-.765-14.111,8.315-14.111,8.315H315.85s4.819-17.121,12.994-23.336,21.315-4.824,28.58-.91S370,353.328,370,353.328Z" transform="translate(-191.153 -221.515)" fill="#464698"/>
        <path id="Path_161" data-name="Path 161" d="M369.509,364.212a30.887,30.887,0,0,0-3.754-3.33,33.352,33.352,0,0,0-4.2-2.782,25.644,25.644,0,0,0-9.194-3.02A20.648,20.648,0,0,0,334.781,361a40.707,40.707,0,0,0-6.246,9.535c-.026.052.047.093.072.041a37.592,37.592,0,0,1,5.626-8.273,20.167,20.167,0,0,1,7.824-5.274c5.962-2.187,12.41-1.35,18.14,1.293a36.44,36.44,0,0,1,4.737,2.585,54.816,54.816,0,0,1,4.473,3.356.062.062,0,0,0,.1-.052Z" transform="translate(-197.276 -230.439)" opacity="0.1"/>
        <path id="Path_162" data-name="Path 162" d="M267.753,247.206c-.093.217-12.581,2.513-12.581,2.513s-2.068-1.4-.791-3.165l12.529-2.7A2.906,2.906,0,0,1,267.753,247.206Z" transform="translate(-161.269 -176.808)" fill="#263238"/>
        <path id="Path_163" data-name="Path 163" d="M310.342,219.117v14.815s-8-.7-10.13-.77-11.6,1.153-11.6,1.153l-.734-3.32s7.3-2.549,10.4-4.54,6.676-5.8,8.594-6.639A7.757,7.757,0,0,1,310.342,219.117Z" transform="translate(-177.647 -164.862)" fill="#464698"/>
        <path id="Path_164" data-name="Path 164" d="M282.976,241.28a4.52,4.52,0,0,1,1.241,3.739s-5.962,1.091-6.035,1.091a3.387,3.387,0,0,0-2.042-3.351Z" transform="translate(-171.977 -175.567)" fill="#dbdbdb"/>
        <ellipse id="Ellipse_29" data-name="Ellipse 29" cx="3.92" cy="7.405" rx="3.92" ry="7.405" transform="translate(128.854 54.259)" fill="#dbdbdb"/>
        <ellipse id="Ellipse_30" data-name="Ellipse 30" cx="3.356" cy="6.608" rx="3.356" ry="6.608" transform="translate(129.661 55.056)" fill="#fff"/>
        <path id="Path_165" data-name="Path 165" d="M308.852,257c1.3,1.908,6.52,27.856,7.544,29.159a4.471,4.471,0,0,0,2.984,1.4l3.449,8.573s-8.568,2.7-13.325,6.614c-6.148,5.052-11.831,21.8-11.831,21.8-.931.652-12.483,5.4-15.652,5.59,0,0,14.732-16.175,15.932-38.559.465-8.672-4.871-20.885-5.217-26.935-.383-6.495,1.582-7.637,5.031-7.637Z" transform="translate(-174.817 -183.158)" fill="#464698"/>
        <path id="Path_166" data-name="Path 166" d="M278.5,330.461l-2.306-2.182c12.927-13.682,17.695-35.24,17.317-41.124a50.019,50.019,0,0,0-2.192-9.959,77,77,0,0,1-2.865-12.819c-.491-4.354,0-7.167,1.484-8.847s3.521-1.675,4.876-1.67h12.307v3.175H294.805c-1.184,0-1.991.041-2.5.615s-1.179,2.068-.693,6.376a75.5,75.5,0,0,0,2.761,12.291,53.62,53.62,0,0,1,2.306,10.631C297.081,293.231,292.122,316.1,278.5,330.461Z" transform="translate(-172.001 -181.641)" fill="#dbdbdb"/>
        <path id="Path_167" data-name="Path 167" d="M348.41,321.506c.724,2.668,3,4.364,5.093,3.8s3.2-3.19,2.472-5.853-3.01-4.369-5.1-3.8S347.681,318.843,348.41,321.506Z" transform="translate(-206.769 -211.427)" fill="#dbdbdb"/>
        <path id="Path_168" data-name="Path 168" d="M349.929,321.757c.646,2.379,2.622,3.909,4.411,3.423s2.71-2.808,2.068-5.171-2.622-3.909-4.406-3.423S349.282,319.379,349.929,321.757Z" transform="translate(-207.511 -211.89)" fill="#fff"/>
        <path id="Path_169" data-name="Path 169" d="M326.439,296.773c-.574-2.684-1.194-5.357-1.732-8.046s-1.034-5.383-1.453-8.087c-.408-2.518-.848-5.062-1.008-7.612a14.243,14.243,0,0,1,1.293-7.756.042.042,0,0,0-.072-.041,12.125,12.125,0,0,0-1.836,6.583,44.658,44.658,0,0,0,.672,7.6,163.308,163.308,0,0,0,3.1,16.387c.75,3.056,1.717,6.06,2.751,9.028a.036.036,0,0,0,.072,0Q327.3,300.78,326.439,296.773Z" transform="translate(-193.945 -187.123)" opacity="0.1"/>
        <path id="Path_170" data-name="Path 170" d="M223.831,334.267v10.859h-9.266V336.9s-5.171-2.611-6.205-12.11c-.931-8.6,5.936-20.089,7.239-22.173l5.9-.191v2.115s-3.883,7.787-4.354,11.785C215.743,328.372,223.831,334.267,223.831,334.267Z" transform="translate(-139.204 -205.097)" opacity="0.1"/>
        <path id="Path_171" data-name="Path 171" d="M246.6,356.7c-1.251.4-37.287-1.034-38.637-1.908-.16-.1-.8-7.032-.8-7.032l4.168-26.625,23.657.315L230.419,344.2s5.207,2.394,9.509,4.488h0a52.638,52.638,0,0,1,5.476,2.885C246.785,352.688,247.85,356.292,246.6,356.7Z" transform="translate(-138.666 -214.127)" fill="#ffc4c0"/>
        <path id="Path_172" data-name="Path 172" d="M246.6,373.9c-1.257.4-37.293-1.034-38.637-1.908-.165-.1-.812-7.027-.812-7.027l1.288-8.206,22.7,1.034-.719,3.578s5.207,2.4,9.509,4.488h0a53.241,53.241,0,0,1,5.476,2.885C246.78,369.9,247.845,373.5,246.6,373.9Z" transform="translate(-138.661 -231.333)" fill="#ebebeb"/>
        <path id="Path_173" data-name="Path 173" d="M246.361,377.309c-1.272.4-37.546-.45-38.906-1.36-.517-.336-.7-5.626-.745-12.027v-.2l23.4.284v.4s13.739,6.531,15.13,7.689S247.638,376.911,246.361,377.309Z" transform="translate(-138.449 -234.694)" fill="rgba(162,162,203,0.65)"/>
        <path id="Path_174" data-name="Path 174" d="M248.217,386.549c-6.107-.29-30.782-.895-36.843-.719-.052,0-.052.036,0,.036,6.05.424,30.726.827,36.843.786C248.346,386.648,248.346,386.554,248.217,386.549Z" transform="translate(-140.682 -245.357)" fill="#263238"/>
        <path id="Path_175" data-name="Path 175" d="M248.95,365.038c-2.394-.517-5.347-.2-7.239,1.469-.078.067,0,.165.1.145a33.78,33.78,0,0,1,7.11-1.308.155.155,0,0,0,.031-.305Z" transform="translate(-155.336 -235.221)" fill="#263238"/>
        <path id="Path_176" data-name="Path 176" d="M252.262,367.147c-2.394-.517-5.347-.207-7.239,1.463-.072.067,0,.171.1.145a33.785,33.785,0,0,1,7.115-1.308.151.151,0,0,0,.026-.3Z" transform="translate(-156.936 -236.239)" fill="#263238"/>
        <path id="Path_177" data-name="Path 177" d="M255.572,369.247c-2.394-.517-5.347-.207-7.239,1.469-.072.062,0,.165.1.14a34.126,34.126,0,0,1,7.11-1.3.155.155,0,0,0,.031-.305Z" transform="translate(-158.534 -237.253)" fill="#263238"/>
        <path id="Path_178" data-name="Path 178" d="M195.082,296.838l-26.408-1.2s9.132-37.06,8.16-38.265c-1.034-1.3-35.855,8.273-43.5-1.21-7.829-9.716,0-25.979,0-25.979H160.1a21.786,21.786,0,0,1-1.82,7.436s30.353-5.621,38.353-1.391c1.577.838,7.239,5.512,7.332,9.944C204.431,265.766,195.082,296.838,195.082,296.838Z" transform="translate(-101.333 -170.207)" fill="#455a64"/>
        <path id="Path_179" data-name="Path 179" d="M233.842,348.406c-3.134-.393-6.277-.636-9.427-.869s-6.293-.424-9.447-.548c-1.774-.067-3.552-.052-5.331-.119a.047.047,0,0,0,0,.093c1.582.114,3.159.31,4.742.434s3.1.238,4.685.341c3.144.212,6.293.383,9.442.579,1.779.109,3.552.165,5.331.207a.062.062,0,0,0,.005-.119Z" transform="translate(-139.84 -226.557)" fill="#263238"/>
        <path id="Path_180" data-name="Path 180" d="M149.95,234.49a1.865,1.865,0,0,1-.134.315.041.041,0,0,0,0,.052c-.31.967-.44,1.991-.739,2.963a4.654,4.654,0,0,1-1.789,2.554,18.242,18.242,0,0,1-6.159,2.373.062.062,0,0,0,0,.119,11.693,11.693,0,0,0,3.62-.553,9.628,9.628,0,0,0,3.061-1.469,4.809,4.809,0,0,0,1.758-2.648,17.23,17.23,0,0,0,.305-1.7,13.544,13.544,0,0,0,.212-1.991.093.093,0,0,0-.134-.016Z" transform="translate(-106.758 -172.277)" fill="#263238"/>
        <path id="Path_181" data-name="Path 181" d="M185.384,235.259a27.126,27.126,0,0,0-4.24,1.619l-.067.031a1.551,1.551,0,0,0,.062-.259,1.568,1.568,0,0,1,.052-.305c.021-.1,0-.212.031-.321v-.165h0a1.277,1.277,0,0,0,.91-.471,3.258,3.258,0,0,0,.564-1.334c.16-.6.31-1.21.44-1.82s.269-1.36.377-2.068a12.873,12.873,0,0,0,.233-2.032.093.093,0,1,0-.186,0c-.16.626-.233,1.272-.352,1.9s-.253,1.267-.4,1.9-.3,1.262-.476,1.882-.31,1.36-.951,1.551c-1.324.377-.729-2.585-.672-3.175.134-1.344.217-2.72.455-4.054,0-.052-.078-.078-.088,0-.29,1.225-.615,2.43-.833,3.671-.109.61-.186,1.225-.253,1.836a2.886,2.886,0,0,0,.124,1.582,1.163,1.163,0,0,0,.874.646l-.041.14c-.031.1-.062.2-.088.295s-.047.2-.067.3a.76.76,0,0,0-.047.367.15.15,0,0,0,.067.083c-.564.243-1.132.486-1.691.75a14.488,14.488,0,0,0-2.032.988c-.078.036,0,.14.057.124a15.436,15.436,0,0,0,2.13-.77c.708-.269,1.406-.558,2.11-.853a26.422,26.422,0,0,0,4.028-1.877.082.082,0,0,0-.031-.16Z" transform="translate(-124.129 -169.173)" fill="#263238"/>
        <path id="Path_182" data-name="Path 182" d="M228.2,246.851a11.857,11.857,0,0,0-5.223-6.407,18.17,18.17,0,0,0-8.273-1.851c-3.278-.1-6.577.072-9.851.279-3.485.217-6.97.548-10.435,1.034s-6.867,1.081-10.275,1.815c-.817.176-1.629.393-2.441.621-.062,0-.052.134,0,.124,3.387-.476,6.758-1.034,10.145-1.5s6.81-.832,10.233-1.091,6.81-.4,10.218-.455a24.855,24.855,0,0,1,8.341.9,10.342,10.342,0,0,1,3.573,1.991,10.8,10.8,0,0,1,2.482,3.263c1.4,2.746,1.525,5.895,1.665,8.935.4,9.023-6.086,37.7-7.239,42.3a.171.171,0,0,0,.326.083c1.3-5.2,7.756-32.287,7.756-40.426C229.205,253.222,229.324,249.912,228.2,246.851Z" transform="translate(-126.351 -174.256)" fill="#263238"/>
        <path id="Path_183" data-name="Path 183" d="M182.971,256.07c-4.731.165-9.437.605-14.142,1.1s-9.447,1.034-14.184,1.365c-2.358.16-4.721.264-7.084.279a18.614,18.614,0,0,1-5.828-.652,8,8,0,0,1-4.53-3.718,16.7,16.7,0,0,1-1.98-5.988c-.621-4.276,0-8.646.729-12.865.093-.517.181-1.034.274-1.587,0-.052-.067-.072-.078,0-.988,4.256-1.872,8.635-1.551,13.031a18.656,18.656,0,0,0,1.443,6.241,9.643,9.643,0,0,0,3.713,4.576,12.2,12.2,0,0,0,5.636,1.443,64.064,64.064,0,0,0,6.831-.109c4.85-.253,9.68-.791,14.5-1.329s9.618-1.065,14.448-1.324c.517-.026,1.07-.052,1.6-.067-.729,4.628-6.934,32.354-7.281,34.547-.036.217.16.284.212.067,1.034-4.323,7.084-32.06,7.482-34.774a.2.2,0,0,0-.217-.238Z" transform="translate(-103.593 -172.032)" fill="#263238"/>
        <path id="Path_184" data-name="Path 184" d="M133.591,198.053c.072.1,35.447,2.823,35.819,2.492.517-.471-2.984-36.713-6.143-42.029-.677-1.132-3.268-1.727-5.538-1.706a9.872,9.872,0,0,0-1.763.15h-.057a4.209,4.209,0,0,0-1.339.471c-6.795,4.24-14.044,20.984-15.87,26.051C135.675,191.837,133.327,197.68,133.591,198.053Z" transform="translate(-103.129 -134.775)" fill="#464698"/>
        <path id="Path_185" data-name="Path 185" d="M182.884,156.841c-1.758,0-4.726-2.839-5.316-5.5-.041-.186.688-1.774,1.474-3.749.476-1.2.977-2.549,1.344-3.811.072-.264,7.358,4.225,7.358,4.225a20.942,20.942,0,0,0-2.172,4.628,2.982,2.982,0,0,0-.1.517.626.626,0,0,1,0,.088C185.335,154.287,184.761,156.867,182.884,156.841Z" transform="translate(-124.375 -128.478)" fill="#ffc4c0"/>
        <path id="Path_186" data-name="Path 186" d="M188.274,153.252a.63.63,0,0,1,0,.088,5.029,5.029,0,0,1-.822-.191c-4.654-1.458-4.168-7.653-3.971-9.2,1.35.61,7.079,4.137,7.079,4.137a21.243,21.243,0,0,0-2.177,4.628A3.5,3.5,0,0,0,188.274,153.252Z" transform="translate(-127.175 -128.565)" fill="#263238"/>
        <path id="Path_187" data-name="Path 187" d="M183.572,121.483c-1.277,2.782-.884,11.376.92,13.506,2.622,3.1,7.482,4.039,10.269.76,2.7-3.18,1.991-14.354-.078-16.366C191.628,116.426,185.464,117.382,183.572,121.483Z" transform="translate(-126.914 -115.871)" fill="#ffc4c0"/>
        <path id="Path_188" data-name="Path 188" d="M198.228,136.89s-.041.031-.041.057c.041.574,0,1.246-.517,1.458v.031C198.306,138.322,198.358,137.433,198.228,136.89Z" transform="translate(-134.083 -125.156)" fill="#263238"/>
        <path id="Path_189" data-name="Path 189" d="M197.042,135.77c-.931-.036-.926,1.836-.062,1.867S197.828,135.8,197.042,135.77Z" transform="translate(-133.44 -124.615)" fill="#263238"/>
        <path id="Path_190" data-name="Path 190" d="M205.19,137.07s.047.026.041.052c0,.574.062,1.241.584,1.432v.031C205.174,138.5,205.071,137.613,205.19,137.07Z" transform="translate(-137.694 -125.243)" fill="#263238"/>
        <path id="Path_191" data-name="Path 191" d="M205.717,135.9c.926-.072,1,1.794.14,1.856S204.936,135.95,205.717,135.9Z" transform="translate(-137.704 -124.676)" fill="#263238"/>
        <path id="Path_192" data-name="Path 192" d="M195.8,132.881a6.986,6.986,0,0,0,.719-.258,1.21,1.21,0,0,0,.688-.4.4.4,0,0,0-.062-.481.977.977,0,0,0-.988-.1,1.422,1.422,0,0,0-.827.626.424.424,0,0,0,.471.61Z" transform="translate(-132.927 -122.58)" fill="#263238"/>
        <path id="Path_193" data-name="Path 193" d="M206.178,132.9a6.285,6.285,0,0,1-.745-.191,1.2,1.2,0,0,1-.719-.336.4.4,0,0,1,0-.481.977.977,0,0,1,.977-.186,1.427,1.427,0,0,1,.879.548.419.419,0,0,1-.393.646Z" transform="translate(-137.446 -122.625)" fill="#263238"/>
        <path id="Path_194" data-name="Path 194" d="M197.692,147.271a.886.886,0,0,0,.517.341,1.551,1.551,0,0,0,.62-.15s.036,0,.026.031a.781.781,0,0,1-.734.315.61.61,0,0,1-.455-.517C197.63,147.266,197.672,147.25,197.692,147.271Z" transform="translate(-134.075 -130.165)" fill="#263238"/>
        <path id="Path_195" data-name="Path 195" d="M198.891,138.1a1.97,1.97,0,0,0,1.319.874,2.492,2.492,0,0,0,.708.031.561.561,0,0,0,.134,0h.129a.145.145,0,0,0,.114-.129h0a.212.212,0,0,0,0-.057h0v-.052c0-.445-.036-1.122-.036-1.122.165.083,1,.455.982.222a29.471,29.471,0,0,0-.776-5.962.052.052,0,1,0-.1,0c.041,1.856.4,3.692.476,5.554a3.5,3.5,0,0,0-.931-.279c-.062,0,.109,1.308.088,1.51a2.746,2.746,0,0,1-2.037-.631C198.906,138.014,198.86,138.05,198.891,138.1Z" transform="translate(-134.668 -122.722)" fill="#263238"/>
        <path id="Path_196" data-name="Path 196" d="M200.439,144.593a2.307,2.307,0,0,1-.936.729,1.06,1.06,0,0,1-.636.041c-.46-.119-.476-.517-.393-.91a2.811,2.811,0,0,1,.207-.553,3.02,3.02,0,0,0,1.758.693Z" transform="translate(-134.453 -128.541)" fill="#263238"/>
        <path id="Path_197" data-name="Path 197" d="M199.5,145.839a1.06,1.06,0,0,1-.636.041c-.46-.119-.476-.517-.393-.91A1.086,1.086,0,0,1,199.5,145.839Z" transform="translate(-134.453 -129.058)" fill="#ff9bbc"/>
        <path id="Path_198" data-name="Path 198" d="M195.745,121.933c-.315-.734-.683-1.474-1.127-1.624s-.729.936-1.737,1c-1.355.093-2.011-1.153-3.909-1.288-2.73-.186-3.93,2.068-3.992,5.957-.057,3.454-2.146,3.78-2.146,3.78s-1.267-7.617.879-10.14a8.2,8.2,0,0,1,10.383-1.231C195.3,119.265,195.745,121.933,195.745,121.933Z" transform="translate(-126.739 -115.582)" fill="#263238"/>
        <path id="Path_199" data-name="Path 199" d="M183.269,136.7s-1.587-2.932-2.9-2.4-.336,4.654,1.034,5.342a1.484,1.484,0,0,0,2.068-.564Z" transform="translate(-125.432 -123.874)" fill="#ffc4c0"/>
        <path id="Path_200" data-name="Path 200" d="M181.55,136.61v.036A3.775,3.775,0,0,1,183.2,139.2a.817.817,0,0,0-1.189-.362c-.031,0,0,.062,0,.057a.92.92,0,0,1,.962.429,4.616,4.616,0,0,1,.383.864c.036.093.207.067.181-.041v-.026C183.717,138.823,182.92,136.9,181.55,136.61Z" transform="translate(-126.299 -125.021)" fill="#263238"/>
        <path id="Path_201" data-name="Path 201" d="M195.266,118.279a19.22,19.22,0,0,0-7.239.8,35.446,35.446,0,0,0-5.724,3.878c-.181.15-1.1-7.172,4.845-8.506C193.616,112.994,195.266,118.279,195.266,118.279Z" transform="translate(-126.586 -114.198)" fill="#464698"/>
        <path id="Path_202" data-name="Path 202" d="M183.11,123.449s3.925-5.171,6.107-6.36,7.069-1.851,10.094-.517c2.353,1.034-3.4,4.064-3.4,4.064a1.634,1.634,0,0,0-.92-1.138c-1.469-.584-4.261-.134-5.853.4A35.777,35.777,0,0,0,183.11,123.449Z" transform="translate(-127.052 -114.988)" fill="#464698"/>
        <path id="Path_203" data-name="Path 203" d="M183.11,123.476s3.925-5.2,6.107-6.386,7.069-1.851,10.094-.517c2.353,1.034-3.4,4.064-3.4,4.064a1.634,1.634,0,0,0-.92-1.138c-1.469-.584-4.261-.134-5.854.4C187.133,120.575,183.11,123.476,183.11,123.476Z" transform="translate(-127.052 -114.989)" opacity="0.2"/>
        <path id="Path_204" data-name="Path 204" d="M169.831,170.855c-.331,10.2,3.433,29.293,6.205,30.591,8.946,4.178,24,4.442,29.154,4.488,2.223,0,5.636-15.813,3.433-16.7-1.463-.589-23.533-.595-23.921-1.381s-5.647-12.141-7.917-18.429C173.771,161.061,170.022,164.867,169.831,170.855Z" transform="translate(-120.63 -138.531)" fill="#ffc4c0"/>
        <path id="Path_205" data-name="Path 205" d="M234.814,211.84s6.758.414,11.159.889c2.461.264,6.634,1.1,8.346,2.115,2.585,1.551,12.327,9.556,10.435,11.965-1.717,2.177-9.225-5.781-9.225-5.781s8.273,7.358,5.74,9.608-9.825-7.88-9.825-7.88,8.346,7.756,5.352,9.659c-2.26,1.432-9.38-7.363-9.38-7.363s7.131,6.722,4.866,8.273c-2.5,1.743-9.582-5.967-9.582-5.967-6.427,3.04-10.73,1.856-13.693.652C228.278,227.741,234.814,211.84,234.814,211.84Z" transform="translate(-149.189 -161.35)" fill="#ffc4c0"/>
        <path id="Path_206" data-name="Path 206" d="M275.078,224.324c1,.827,2.027,1.66,2.953,2.585s1.825,1.867,2.663,2.865a22.5,22.5,0,0,1,2.9,4.194,46.714,46.714,0,0,0-5.817-6.81c-.931-.915-1.8-1.877-2.73-2.792A.027.027,0,0,1,275.078,224.324Z" transform="translate(-171.442 -167.375)" fill="#263238"/>
        <path id="Path_207" data-name="Path 207" d="M268.575,230.685c1.236,1.112,2.5,2.177,3.692,3.346s2.2,2.373,3.3,3.62c.083.093,0,.109-.088,0-1.148-1.194-2.3-2.213-3.459-3.4s-2.28-2.415-3.48-3.552C268.523,230.7,268.554,230.67,268.575,230.685Z" transform="translate(-168.305 -170.448)" fill="#263238"/>
        <path id="Path_208" data-name="Path 208" d="M261.945,235.133a37.078,37.078,0,0,1,5.259,5.548c.078.1-.026.109-.114,0-1.712-1.877-3.041-3.361-5.2-5.486C261.872,235.169,261.945,235.1,261.945,235.133Z" transform="translate(-165.094 -172.594)" fill="#263238"/>
        <path id="Path_209" data-name="Path 209" d="M239.969,213.118a16.546,16.546,0,0,0-5.052-1.267c-3.754-.46-7.529-.76-11.3-1.034s-7.606-.517-11.412-.657q-3.211-.124-6.422-.191c-2.141-.041-2.585.036-4.737.062-.057,0-.052.078,0,.083,3.749.2,5.817.352,9.566.548s7.487.419,11.226.677,7.415.517,11.107.931a29.114,29.114,0,0,1,5.29.853,15.446,15.446,0,0,1,4.654,2.71c1.582,1.246,7.513,6.95,8.056,7.689.067.088.093.062.057-.052C250.569,221.924,243.438,214.736,239.969,213.118Z" transform="translate(-135.692 -160.441)" fill="#263238"/>
        <path id="Path_210" data-name="Path 210" d="M180.129,175.772l-11,6.236s-.465-13.9.553-18.026c1.148-4.654,3.268-3.04,5.657.827S180.129,175.772,180.129,175.772Z" transform="translate(-120.25 -136.865)" fill="#464698"/>
        <path id="Path_211" data-name="Path 211" d="M180.129,175.772l-11,6.236s-.465-13.9.553-18.026c1.148-4.654,3.268-3.04,5.657.827S180.129,175.772,180.129,175.772Z" transform="translate(-120.25 -136.865)" opacity="0.1"/>
        <path id="Path_212" data-name="Path 212" d="M179.439,186c-1.5.6-5.776,3.056-6.484,3.454-.372.207-1.831,1.112-2.2,1.319-.047.026,0,.093.047.067.719-.393,1.474-.714,2.2-1.1s5.171-2.725,6.474-3.687a.031.031,0,0,0-.031-.052Z" transform="translate(-121.075 -148.87)" fill="#263238"/>
        <path id="Path_213" data-name="Path 213" d="M168.81,177.372c0-.057-.083-.052-.088,0q-.14,1.768-.207,3.542a10.5,10.5,0,0,1-.186-1.846h-.041a8.275,8.275,0,0,0,.222,2.13c-.031.822-.057,1.65-.067,2.472-.031,2.094-.088,4.2,0,6.293a.145.145,0,0,0,.222.114c.372-.228.739-.465,1.1-.719.041-.031,0-.1-.036-.078-.336.14-.662.295-.988.45.083-2.022.067-4.049.093-6.076S168.867,179.466,168.81,177.372Z" transform="translate(-119.893 -144.686)" fill="#263238"/>
        <path id="Path_214" data-name="Path 214" d="M185.783,176.544c-.171-.646-.346-1.288-.543-1.929h0c.109.476.233.951.357,1.427-.4-.9-.807-1.789-1.251-2.653h-.026c.481,1.4,1.034,2.777,1.551,4.168s1.034,2.72,1.551,4.08c-.233.181-.46.357-.7.517a.043.043,0,0,0,.047.072c.284-.145.569-.29.864-.419a.145.145,0,0,0,.088-.176C187.143,179.942,186.5,178.225,185.783,176.544Z" transform="translate(-127.636 -142.782)" fill="#263238"/>
      </g>
      <g id="freepik--Line--inject-37" transform="translate(44.465 34.543)">
        <g id="Group_26" data-name="Group 26" transform="translate(0 0)" opacity="0.5">
          <path id="Path_215" data-name="Path 215" d="M420.09,165.325a2.42,2.42,0,1,1-.707-1.715A2.425,2.425,0,0,1,420.09,165.325Z" transform="translate(-265.211 -129.17)" fill="#464698"/>
          <path id="Path_216" data-name="Path 216" d="M416.053,167.813a4.137,4.137,0,1,1,4.111-4.111A4.137,4.137,0,0,1,416.053,167.813Zm0-7.7a3.594,3.594,0,1,0,2.55,1.062,3.594,3.594,0,0,0-2.55-1.062Z" transform="translate(-263.593 -127.548)" fill="#464698"/>
          <path id="Path_217" data-name="Path 217" d="M133.31,120.48a2.425,2.425,0,1,1-2.425-2.42,2.425,2.425,0,0,1,2.425,2.42Z" transform="translate(-126.722 -107.516)" fill="#464698"/>
          <path id="Path_218" data-name="Path 218" d="M129.262,122.973a4.137,4.137,0,1,1,4.111-4.137,4.137,4.137,0,0,1-4.111,4.137Zm0-7.71a3.62,3.62,0,1,0,3.594,3.594,3.62,3.62,0,0,0-3.594-3.594Z" transform="translate(-125.1 -105.894)" fill="#464698"/>
          <path id="Path_219" data-name="Path 219" d="M228.247,146.628H196.911V98.187H155.559v12.7H140.6v-.517h14.442V97.67h42.386v48.441h30.3V132.693H263.2V119.626H285.3v10.347h-.517v-9.83H263.714V133.21H228.247Z" transform="translate(-132.585 -97.67)" fill="#464698"/>
        </g>
      </g>
      <g id="freepik--Locator--inject-37" transform="translate(39.959 13.715)">
        <path id="Path_220" data-name="Path 220" d="M133.664,65.979c-.429-4.3-3.4-8.589-8.61-8.589s-8.175,4.307-8.6,8.589c-.657,6.645,3.821,12.664,8.6,18.155C129.837,78.663,134.321,72.644,133.664,65.979Zm-8.61,4.778a1.954,1.954,0,1,1,0,.021Z" transform="translate(-116.386 -57.39)" fill="#464698"/>
      </g>
    </g>
  </g>
</svg>
