<svg id="freepik--Plants--inject-4" xmlns="http://www.w3.org/2000/svg" width="60.534" height="156.357" viewBox="0 0 60.534 156.357">
  <path id="Path_1388" data-name="Path 1388" d="M255.123,382.429a6.515,6.515,0,0,1,5.085-.342,11.484,11.484,0,0,1,4.372,2.8c2.432,2.351,3.955,5.93,4.824,9.19-3.677.741-7.488-1.372-9.347-2.56-2.948-1.888-7.135-7.077-4.934-9.086" transform="translate(-221.61 -248.124)" fill="#455a64"/>
  <path id="Path_1389" data-name="Path 1389" d="M289.031,396.242a5.536,5.536,0,0,1-3.087-4.633,7.337,7.337,0,0,1,1.969-5.345,3.081,3.081,0,0,1,2.316-1.234,2.375,2.375,0,0,1,1.928,1.436,4.8,4.8,0,0,1,.3,2.479c-.272,2.9-1.071,5.617-3.417,7.3" transform="translate(-234.838 -249.515)" fill="#455a64"/>
  <path id="Path_1390" data-name="Path 1390" d="M296.927,408.775a3.471,3.471,0,0,1-.486-.5l-1.268-1.407a19.545,19.545,0,0,1-3.55-5.16,11.918,11.918,0,0,1-.99-6.156,8.206,8.206,0,0,1,.452-1.853c.075-.208.156-.365.2-.475a.657.657,0,0,1,.093-.156,11.107,11.107,0,0,0,.469,8.548,20.893,20.893,0,0,0,3.475,5.137l1.21,1.459a4.349,4.349,0,0,1,.394.562Z" transform="translate(-236.786 -252.899)" fill="#263238"/>
  <path id="Path_1391" data-name="Path 1391" d="M261.68,389.28a1.477,1.477,0,0,1,.261.156l.712.486c.62.429,1.511,1.06,2.606,1.842,2.183,1.575,5.171,3.787,8.414,6.307s6.133,4.865,8.194,6.59c1.031.869,1.865,1.569,2.432,2.067l.649.579a1.433,1.433,0,0,1,.214.214,1.733,1.733,0,0,1-.249-.174l-.678-.539c-.608-.5-1.448-1.158-2.479-2-2.091-1.7-4.992-4.019-8.235-6.538s-6.208-4.749-8.368-6.37L262.6,390c-.284-.214-.515-.388-.689-.527A1.4,1.4,0,0,1,261.68,389.28Z" transform="translate(-224.628 -251.303)" fill="#263238"/>
  <path id="Path_1392" data-name="Path 1392" d="M278.962,412.13a12.966,12.966,0,0,0-11.86-.18c-.932.469-1.923,1.268-1.836,2.316s1.187,1.679,2.195,1.975a11.1,11.1,0,0,0,11.681-3.886" transform="translate(-226.136 -260.278)" fill="#455a64"/>
  <path id="Path_1393" data-name="Path 1393" d="M273.28,414.445a3.6,3.6,0,0,1,.579-.313,5.932,5.932,0,0,1,.7-.318,9.706,9.706,0,0,1,.956-.353,11.578,11.578,0,0,1,1.193-.33,12.843,12.843,0,0,1,1.4-.249,14.111,14.111,0,0,1,3.249,0,13.968,13.968,0,0,1,3.162.77,12.279,12.279,0,0,1,1.3.579,10.1,10.1,0,0,1,1.071.608,9.668,9.668,0,0,1,.834.579,6.187,6.187,0,0,1,.579.486,3.093,3.093,0,0,1,.469.458c-.035.041-.712-.579-1.992-1.378a11.319,11.319,0,0,0-1.071-.579,13.409,13.409,0,0,0-1.286-.55,14.655,14.655,0,0,0-3.11-.735,15.126,15.126,0,0,0-3.2,0c-.486.064-.95.127-1.378.226q-.586.119-1.158.3C274.131,414.069,273.3,414.5,273.28,414.445Z" transform="translate(-229.511 -261.198)" fill="#263238"/>
  <path id="Path_1394" data-name="Path 1394" d="M215.419,191.011a8.351,8.351,0,0,1,4.193,3.092,4.291,4.291,0,0,1,1.071,2.583,1.823,1.823,0,0,1-1.737,1.871,2.455,2.455,0,0,1-1.448-.811c-.984-.95-1.923-2.166-3.278-2.316-.776-.087-1.61.2-2.316-.145a1.737,1.737,0,0,1-.817-1.957,3.017,3.017,0,0,1,1.361-1.737A3.4,3.4,0,0,1,215.419,191.011Z" transform="translate(-203.31 -167.803)" fill="#464698"/>
  <path id="Path_1395" data-name="Path 1395" d="M222.313,171.912c-.243,1.662,1.43,2.612,2.635,2.594a6.951,6.951,0,0,0,3.341-1.257c2.369-1.4,4.836-2.9,6.272-5.212a4.488,4.488,0,0,0,.764-2.316,2.363,2.363,0,0,0-1.112-2.073,3.436,3.436,0,0,0-2.826.151,19.3,19.3,0,0,0-7.094,4.726,6.741,6.741,0,0,0-1.981,3.417" transform="translate(-208.049 -156.232)" fill="#464698"/>
  <path id="Path_1396" data-name="Path 1396" d="M214.175,166.328a5.015,5.015,0,0,0,3.724-2.809,8.849,8.849,0,0,0,.73-4.743,14.634,14.634,0,0,0-1.569-5.438,5.148,5.148,0,0,0-1.338-1.778,2.316,2.316,0,0,0-2.1-.452c-1.042.359-1.5,1.558-1.778,2.629a36.391,36.391,0,0,0-1.019,5.745,8.748,8.748,0,0,0,.486,4.633c.678,1.436,1.83,2.409,3.092,2.2" transform="translate(-203.183 -151.024)" fill="#464698"/>
  <path id="Path_1397" data-name="Path 1397" d="M197.7,199.79a3.14,3.14,0,0,0,.492-.394l1.291-1.123a23,23,0,0,1,1.992-1.552,19.069,19.069,0,0,1,2.681-1.523,10.771,10.771,0,0,1,2.925-.9,5.594,5.594,0,0,1,2.473.156,5.258,5.258,0,0,1,1.506.735,3.04,3.04,0,0,0,.515.359,3.232,3.232,0,0,0-.452-.44,4.836,4.836,0,0,0-1.517-.828,5.554,5.554,0,0,0-2.554-.22,10.424,10.424,0,0,0-3,.909,18.183,18.183,0,0,0-2.716,1.558,21.593,21.593,0,0,0-1.975,1.61c-.539.486-.956.9-1.239,1.187a3.08,3.08,0,0,0-.423.469Z" transform="translate(-197.7 -169.111)" fill="#263238"/>
  <path id="Path_1398" data-name="Path 1398" d="M199.4,189.258a1.344,1.344,0,0,0,.214-.2,7.727,7.727,0,0,1,.579-.579c.492-.527,1.21-1.28,2.12-2.189,1.807-1.824,3.863-3.677,6.851-6.22,2.809-2.386,6.127-5.114,8.449-6.735.521-.376,1-.7,1.425-.984s.788-.533,1.095-.718l.689-.457a1.339,1.339,0,0,0,.232-.168.979.979,0,0,0-.255.127l-.724.411c-.313.174-.683.411-1.112.683s-.927.579-1.454.956a93.852,93.852,0,0,0-7.974,6.121c-2.994,2.548-5.577,5-7.355,6.857-.892.927-1.587,1.7-2.056,2.247l-.533.637A1.157,1.157,0,0,0,199.4,189.258Z" transform="translate(-198.415 -159.436)" fill="#263238"/>
  <path id="Path_1399" data-name="Path 1399" d="M207.55,179.2a6.009,6.009,0,0,0,.579-.637,23.275,23.275,0,0,0,1.413-1.882,30.115,30.115,0,0,0,1.789-3.006,28.069,28.069,0,0,0,1.737-3.921,21.554,21.554,0,0,0,1.43-7.621,10.264,10.264,0,0,0-.087-1.344,1.8,1.8,0,0,0-.064-.579,3.137,3.137,0,0,1-.093-.452,6.093,6.093,0,0,0-.208-.84,25.931,25.931,0,0,1,.272,3.185,22.586,22.586,0,0,1-1.494,7.528,31.77,31.77,0,0,1-1.7,3.9,34.168,34.168,0,0,1-1.737,3.011c-.539.834-1.008,1.483-1.344,1.923a5.212,5.212,0,0,0-.492.735Z" transform="translate(-201.846 -154.347)" fill="#263238"/>
</svg>
