<svg id="freepik--character-1--inject-4" xmlns="http://www.w3.org/2000/svg" width="98.817" height="162.332" viewBox="0 0 98.817 162.332">
  <path id="Path_1520" data-name="Path 1520" d="M103.3,174.436a1.3,1.3,0,0,1-1.807,1.558c-.863-.423-.984-1.6-.828-2.548a4.858,4.858,0,0,0,.058-2.826,6.506,6.506,0,0,0-1.488-1.6,4.135,4.135,0,0,1-1.193-3.475,3.475,3.475,0,0,1,2.357-2.768c1.257-.365,2.809,0,3.735-.921.672-.666.7-1.737,1.21-2.542.8-1.234,2.525-1.448,3.984-1.268s2.942.631,4.366.261a20.2,20.2,0,0,0,3.26-1.679,6.434,6.434,0,0,1,8.484,8.727c-.434.851-1.3,3.307-4.025,3.307" transform="translate(-81.21 -156.008)" fill="#263238"/>
  <path id="Path_1521" data-name="Path 1521" d="M106.18,169.211l.035,1.957.394,29.315a6.291,6.291,0,0,0,6.654,5.994h0a6.642,6.642,0,0,0,6.677-6.37c0-3.608.087-7.407.087-7.407s4.633-.77,5.612-6.839a64.632,64.632,0,0,0,.075-12,6.411,6.411,0,0,0-7.065-5.971Z" transform="translate(-84.649 -160.992)" fill="#ffc4c0"/>
  <path id="Path_1522" data-name="Path 1522" d="M136.632,183.669a.77.77,0,0,1-.747.782.747.747,0,0,1-.8-.7.782.782,0,0,1,.753-.782.741.741,0,0,1,.8.7Z" transform="translate(-96.812 -167.354)" fill="#263238"/>
  <path id="Path_1523" data-name="Path 1523" d="M135.815,182.082c-.1.1-.689-.336-1.523-.336s-1.454.423-1.54.319.052-.226.319-.423a2.166,2.166,0,0,1,1.234-.382,2.056,2.056,0,0,1,1.211.394C135.78,181.851,135.861,182.036,135.815,182.082Z" transform="translate(-95.821 -166.636)" fill="#263238"/>
  <path id="Path_1524" data-name="Path 1524" d="M122.172,183.669a.782.782,0,0,1-.753.782.741.741,0,0,1-.8-.7.77.77,0,0,1,.747-.782.747.747,0,0,1,.8.7Z" transform="translate(-90.726 -167.354)" fill="#263238"/>
  <path id="Path_1525" data-name="Path 1525" d="M121.6,182.4c-.1.1-.689-.336-1.523-.336s-1.454.423-1.54.319.052-.226.319-.423a2.137,2.137,0,0,1,1.234-.382,2.09,2.09,0,0,1,1.216.394C121.564,182.142,121.651,182.327,121.6,182.4Z" transform="translate(-89.841 -166.771)" fill="#263238"/>
  <path id="Path_1526" data-name="Path 1526" d="M128.806,188.592a5.973,5.973,0,0,1,1.361-.243c.214,0,.417-.064.452-.208a1.071,1.071,0,0,0-.139-.637c-.2-.515-.411-1.06-.637-1.627a28.455,28.455,0,0,1-1.419-4.256,26.405,26.405,0,0,1,1.737,4.135c.214.579.411,1.118.608,1.639a1.216,1.216,0,0,1,.11.834.527.527,0,0,1-.353.313,1.256,1.256,0,0,1-.365.052A5.12,5.12,0,0,1,128.806,188.592Z" transform="translate(-94.007 -166.787)" fill="#263238"/>
  <path id="Path_1527" data-name="Path 1527" d="M124.2,209.2a15.45,15.45,0,0,1-8.108-2.166s1.969,4.164,8.038,3.6Z" transform="translate(-88.82 -177.483)" fill="#ffc4c0"/>
  <path id="Path_1528" data-name="Path 1528" d="M124.733,194.66c.139,0,.139.9.915,1.546s1.737.544,1.737.672-.22.18-.625.191a2.316,2.316,0,0,1-1.465-.51,1.957,1.957,0,0,1-.707-1.3C124.571,194.857,124.67,194.66,124.733,194.66Z" transform="translate(-92.396 -172.276)" fill="#263238"/>
  <path id="Path_1529" data-name="Path 1529" d="M121.445,176.824c-.081.226-.915.122-1.9.237s-1.778.388-1.905.185c-.058-.1.081-.313.4-.533a3.318,3.318,0,0,1,2.9-.324C121.318,176.534,121.48,176.714,121.445,176.824Z" transform="translate(-89.467 -164.505)" fill="#263238"/>
  <path id="Path_1530" data-name="Path 1530" d="M135.456,177.868c-.151.191-.724,0-1.419,0s-1.28.127-1.419-.069c-.058-.1.035-.284.29-.469a2.073,2.073,0,0,1,2.316.075C135.438,177.584,135.519,177.775,135.456,177.868Z" transform="translate(-95.769 -164.848)" fill="#263238"/>
  <path id="Path_1531" data-name="Path 1531" d="M125.2,170.374a8.619,8.619,0,0,1-7.256-.3c-2.728-1.257-5.884-1.813-6.556-1.251s-.73,3.336-3.365,4.228c0,0,.347,5.276-1.737,5.154S104.5,167.5,104.5,167.5l5.791-.313,5.588-1.239,5.322.579,4.135.99Z" transform="translate(-83.935 -160.192)" fill="#263238"/>
  <path id="Path_1532" data-name="Path 1532" d="M104.21,165.891c0-.075.469-.266,1.048-.052s.851.666.776.712-.388-.243-.88-.417S104.227,165.995,104.21,165.891Z" transform="translate(-83.82 -160.104)" fill="#263238"/>
  <path id="Path_1533" data-name="Path 1533" d="M107.084,162.94c.1,0,.064.631.174,1.344s.417,1.239.342,1.291-.533-.44-.654-1.239A2.085,2.085,0,0,1,107.084,162.94Z" transform="translate(-84.945 -158.926)" fill="#263238"/>
  <path id="Path_1534" data-name="Path 1534" d="M105.455,183.225c-.093-.041-3.77-1.286-3.8,2.513s3.782,3.058,3.787,2.948S105.455,183.225,105.455,183.225Z" transform="translate(-82.742 -167.368)" fill="#ffc4c0"/>
  <path id="Path_1535" data-name="Path 1535" d="M104.993,188.119a1.556,1.556,0,0,1-.18.1.66.66,0,0,1-.5,0,1.633,1.633,0,0,1-.741-1.477,2.166,2.166,0,0,1,.2-.944.759.759,0,0,1,.5-.5.342.342,0,0,1,.388.185c.046.11,0,.185.041.191s.087-.064.058-.22a.434.434,0,0,0-.151-.243.5.5,0,0,0-.365-.1.932.932,0,0,0-.695.579,2.212,2.212,0,0,0-.243,1.054,1.737,1.737,0,0,0,.95,1.65.707.707,0,0,0,.579-.093C104.982,188.211,105,188.124,104.993,188.119Z" transform="translate(-83.439 -168.254)" fill="#a36957"/>
  <path id="Path_1536" data-name="Path 1536" d="M128.072,161.066a.973.973,0,0,1,.382-.174,1.737,1.737,0,0,1,1.193.145,1.6,1.6,0,0,1,.672.579,1.564,1.564,0,0,1,.191,1.042,1.876,1.876,0,0,1-.579,1.071,2.484,2.484,0,0,1-1.216.614,3.556,3.556,0,0,1-2.936-.747,4.228,4.228,0,0,1-1.129-1.315,2.432,2.432,0,0,1-.261-1.83,2.357,2.357,0,0,1,1.332-1.413,4.141,4.141,0,0,1,1.986-.347,4.934,4.934,0,0,1,3.6,2.027,3.793,3.793,0,0,1,.724,2.021,4.112,4.112,0,0,1-.44,2.044,4.425,4.425,0,0,1-1.291,1.546,5.148,5.148,0,0,1-1.737.834,7.4,7.4,0,0,1-3.515.069c-1.066-.342-1.963-.811-2.838-1.112a11.548,11.548,0,0,0-2.392-.625,8.286,8.286,0,0,0-1.871-.041c-1.019.116-1.558.353-1.569.307a2.8,2.8,0,0,1,.388-.151,6.307,6.307,0,0,1,1.158-.272,7.6,7.6,0,0,1,1.9,0,11.669,11.669,0,0,1,2.45.579c.88.3,1.807.759,2.826,1.071a7.2,7.2,0,0,0,3.376-.093,4.424,4.424,0,0,0,2.838-2.247,3.6,3.6,0,0,0-.272-3.758,4.633,4.633,0,0,0-3.37-1.905,3.886,3.886,0,0,0-1.847.313,2.079,2.079,0,0,0-1.187,1.228,2.183,2.183,0,0,0,.226,1.627,4,4,0,0,0,1.048,1.245,3.353,3.353,0,0,0,2.745.735,2.316,2.316,0,0,0,1.123-.544,1.691,1.691,0,0,0,.533-.961,1.425,1.425,0,0,0-.145-.944,1.546,1.546,0,0,0-.579-.55,1.737,1.737,0,0,0-1.123-.191A3.894,3.894,0,0,0,128.072,161.066Z" transform="translate(-88.942 -157.133)" fill="#455a64"/>
  <path id="Path_1537" data-name="Path 1537" d="M134.887,390.426l-4.639-61.982L91.94,327.28v62.909l20.732.093.683-46.966,2.7,46.983Z" transform="translate(-78.655 -228.094)" fill="#263238"/>
  <path id="Path_1538" data-name="Path 1538" d="M130.514,329.32a13.46,13.46,0,0,1,.162,2.253c.058,1.4.1,3.324.133,5.449,0,1.06,0,2.067.029,3.006a5.953,5.953,0,0,1-.411,2.461,2.74,2.74,0,0,1-1.118,1.268,1.031,1.031,0,0,1-.579.185c0-.035.208-.087.521-.307a2.832,2.832,0,0,0,.95-1.251,6.04,6.04,0,0,0,.307-2.357c0-.932-.035-1.94-.058-3,0-2.125-.035-4.054,0-5.449A13.556,13.556,0,0,1,130.514,329.32Z" transform="translate(-94.14 -228.953)" fill="#455a64"/>
  <path id="Path_1539" data-name="Path 1539" d="M126.216,331.728c.035.041-.261.22-.272.672a.735.735,0,0,0,.284.625.689.689,0,0,0,.793-.07.579.579,0,0,0,.041-.984.828.828,0,0,0-.793-.191v-.145c.156.081.243.139.232.162s-.11,0-.29,0l-.156-.035.145-.116a.938.938,0,0,1,1.071.087.99.99,0,0,1,.4.712.95.95,0,0,1-.423.828,1.019,1.019,0,0,1-1.216.029.979.979,0,0,1-.342-.927A.915.915,0,0,1,126,331.8C126.118,331.71,126.2,331.7,126.216,331.728Z" transform="translate(-92.853 -229.878)" fill="#455a64"/>
  <path id="Path_1540" data-name="Path 1540" d="M215.26,301.148v-.035c2.826.185,5.669.405,7.389.51,2.855.174,3.695-.1,3.706-.527.029-.927-6.063-.828-5.588-1.506,0,0,5.438,1.239,5.617.527.359-1.454-5.71-2.027-5.71-2.027,3.776,1.4,5.947,1.315,5.861.342-.064-.649-5.861-1.969-5.861-1.969a44.357,44.357,0,0,0,5.293,1.228c.846-.029,1.008-.764.44-1.436s-7.494-3.2-8.582-3.59-.486-1.616-.486-1.616c1.077-2.316,1.668-4,1.419-4.633a.747.747,0,0,0-1.4.22,9.127,9.127,0,0,1-1.158,2.183,5.855,5.855,0,0,1-1.338,1.436c-.608.463-1.158.828-1.6,1.129l-4.256.741,1,7.685Z" transform="translate(-127.924 -210.724)" fill="#ffc4c0"/>
  <path id="Path_1541" data-name="Path 1541" d="M221.646,304.145c-.046.029-.249-.255-.66-.625a4.633,4.633,0,0,0-1.871-1.019l-.405-.11.353-.237.261-.174a5.455,5.455,0,0,0,1.575-1.737c.3-.533.423-.909.481-.892s0,.417-.237,1.013a4.772,4.772,0,0,1-1.6,1.946c-.093.069-.191.127-.284.185l-.046-.347a4.106,4.106,0,0,1,1.957,1.21C221.553,303.78,221.681,304.121,221.646,304.145Z" transform="translate(-132.011 -216.339)" fill="#a36957"/>
  <path id="Path_1542" data-name="Path 1542" d="M233.669,305.086a16.879,16.879,0,0,1-2.739-.788,15.95,15.95,0,0,1-2.71-.892,7.823,7.823,0,0,1,2.82.527A8.2,8.2,0,0,1,233.669,305.086Z" transform="translate(-136.014 -218.033)" fill="#a36957"/>
  <path id="Path_1543" data-name="Path 1543" d="M233.952,307.754a12.307,12.307,0,0,1-2.479-.515,13.155,13.155,0,0,1-2.444-.666,7.021,7.021,0,0,1,2.537.29A6.65,6.65,0,0,1,233.952,307.754Z" transform="translate(-136.355 -219.363)" fill="#a36957"/>
  <path id="Path_1544" data-name="Path 1544" d="M111.19,221.64a1.842,1.842,0,0,0-1.291.168,2.172,2.172,0,0,0-.915,1.066,5.262,5.262,0,0,0-.29.822l-.122.458a1.158,1.158,0,0,1-.243.533.527.527,0,0,1-.342.162.77.77,0,0,1-.324-.064c-.168-.069-.3-.139-.44-.208l-.811-.4-1.367-.695a5.072,5.072,0,0,1-1.216-.73,5.432,5.432,0,0,1,1.332.486l1.4.62.822.382.423.191c.133.052.185.046.243,0a3.122,3.122,0,0,0,.278-.828,5.01,5.01,0,0,1,.336-.869,2.316,2.316,0,0,1,1.112-1.158,1.569,1.569,0,0,1,1.071-.127C111.1,221.519,111.2,221.623,111.19,221.64Z" transform="translate(-83.66 -183.534)" fill="#263238"/>
  <path id="Path_1545" data-name="Path 1545" d="M126.532,222.169a21.4,21.4,0,0,1-2.988,2.484l-.249.185-.052-.307a2.5,2.5,0,0,0-.069-.388,4.552,4.552,0,0,0-1.123-2.641,4.124,4.124,0,0,0-1.019-.649,1.455,1.455,0,0,1,1.2.446,3.063,3.063,0,0,1,.851,1.158,6.747,6.747,0,0,1,.469,1.639l.069.394-.307-.122A20.44,20.44,0,0,1,126.532,222.169Z" transform="translate(-90.899 -183.292)" fill="#263238"/>
  <path id="Path_1546" data-name="Path 1546" d="M151.564,261l-1.587-.058c-2.247.266-8.687-.4-13.754-1.587s-4.888-1.917-5.542-2.843-1.789-5.959-1.789-5.959a133.052,133.052,0,0,0-4.112-16.713c-2.757-8.565-9.109-10.7-9.109-10.7a5.42,5.42,0,0,0-.874-.376c-.5-.29-7.621-2.565-10.262-2.71v-4.98c-4.436.434-6.723,5.675-6.723,5.675-1.836-4.436-8.733-5.079-8.733-5.079l.127,4.581a32.43,32.43,0,0,0-7.233,1.32c-3.845,1.39-5.652,2.739-8.843,5.258S69,234.76,69,239.352l14.061,5.473v.347l-.162,16.3-.625,18.578,38.4,1.158-1.946-15.8c1.077,1.894,4.893,4.459,12.538,6.4,8.594,2.183,21.358.371,21.358.371Z" transform="translate(-69 -180.867)" fill="#464698"/>
  <path id="Path_1547" data-name="Path 1547" d="M123.942,240.952c0-.041.29-.18.649.127a.849.849,0,1,1-1.3,1.083.869.869,0,0,1-.052-.776c.191-.429.539-.446.527-.394a1.1,1.1,0,0,0-.266.481.62.62,0,0,0,.087.5.579.579,0,0,0,.944-.22.631.631,0,0,0-.139-.486C124.191,240.992,123.942,241,123.942,240.952Z" transform="translate(-91.801 -191.732)" fill="#263238"/>
  <path id="Path_1548" data-name="Path 1548" d="M126.38,264.532c0-.041.29-.18.643.127a.863.863,0,0,1,.3.724.886.886,0,0,1-1.587.365.863.863,0,0,1-.052-.782c.191-.429.539-.446.527-.394a1.077,1.077,0,0,0-.272.481.649.649,0,0,0,.093.5.579.579,0,0,0,.967-.2.654.654,0,0,0-.139-.486C126.629,264.584,126.38,264.589,126.38,264.532Z" transform="translate(-92.826 -201.656)" fill="#263238"/>
  <path id="Path_1549" data-name="Path 1549" d="M127.882,287.572c-.029-.041.29-.18.649.127a.869.869,0,0,1,.29.724.886.886,0,0,1-1.587.359.869.869,0,0,1-.052-.776c.191-.429.539-.446.527-.4a1.1,1.1,0,0,0-.266.481.614.614,0,0,0,.087.5.5.5,0,0,0,.533.162.51.51,0,0,0,.411-.376.625.625,0,0,0-.139-.486C128.131,287.624,127.882,287.629,127.882,287.572Z" transform="translate(-93.459 -211.354)" fill="#263238"/>
  <path id="Path_1550" data-name="Path 1550" d="M129.444,312.642c0-.041.3-.18.649.127a.863.863,0,0,1,.3.724.887.887,0,0,1-1.587.359.851.851,0,0,1-.052-.776c.185-.429.533-.446.527-.394a1.14,1.14,0,0,0-.272.481.666.666,0,0,0,.087.5.533.533,0,0,0,.539.162.5.5,0,0,0,.405-.382.654.654,0,0,0-.133-.486C129.67,312.694,129.444,312.7,129.444,312.642Z" transform="translate(-94.119 -221.905)" fill="#263238"/>
  <g id="Group_32" data-name="Group 32" transform="translate(13.285 57.959)" opacity="0.3">
    <path id="Path_1551" data-name="Path 1551" d="M93.492,256.09l3.451,41.395h-5l.539-17.084.214-18.317Z" transform="translate(-91.94 -256.09)"/>
  </g>
  <path id="Path_1552" data-name="Path 1552" d="M153.639,292.839a1.621,1.621,0,0,1-.093-.371c-.052-.29-.116-.649-.2-1.083-.168-.944-.382-2.316-.631-4.007-.5-3.382-1.118-8.067-1.737-13.25s-1.228-9.845-1.737-13.25c-.243-1.645-.446-3-.579-4-.058-.44-.11-.8-.156-1.095a1.738,1.738,0,0,1-.029-.382,1.2,1.2,0,0,1,.11.371c.058.29.133.643.226,1.077.185.938.44,2.316.712,3.99.579,3.376,1.2,8.061,1.836,13.244s1.216,9.816,1.639,13.262c.208,1.656.382,3.011.51,4.019.052.44.093.8.127,1.095a1.28,1.28,0,0,1,0,.382Z" transform="translate(-102.452 -197.841)" fill="#263238"/>
  <g id="Group_33" data-name="Group 33" transform="translate(46.838 61.312)" opacity="0.3">
    <path id="Path_1553" data-name="Path 1553" d="M149.88,261.88c2.206,7.6,2.93,14.281,7.077,20.558a19.388,19.388,0,0,0,5.751,5.652c4.465,2.843,9.845,3.782,15.144,4.274h3.567a64.772,64.772,0,0,1-14.507-.51s-9.978-1.778-13.9-6.37Z" transform="translate(-149.88 -261.88)"/>
  </g>
  <path id="Path_1554" data-name="Path 1554" d="M123.006,282.972a3.4,3.4,0,0,1-.058-.579c0-.423-.052-.99-.093-1.7-.075-1.511-.18-3.631-.313-6.237-.272-5.264-.718-12.538-1.332-20.558s-1.257-15.283-1.737-20.535c-.226-2.6-.411-4.714-.544-6.225-.052-.707-.1-1.268-.127-1.691a3.474,3.474,0,0,1,0-.579,2.843,2.843,0,0,1,.1.579c.052.417.116.979.2,1.685.162,1.506.388,3.619.66,6.208.533,5.253,1.222,12.5,1.836,20.535s1.019,15.3,1.222,20.576c.1,2.635.162,4.766.191,6.243v1.7a3.9,3.9,0,0,1-.006.579Z" transform="translate(-89.956 -184.991)" fill="#263238"/>
  <ellipse id="Ellipse_56" data-name="Ellipse 56" cx="24.259" cy="23.726" rx="24.259" ry="23.726" transform="translate(46.271 63.808)" fill="#464698"/>
  <ellipse id="Ellipse_57" data-name="Ellipse 57" cx="24.259" cy="23.726" rx="24.259" ry="23.726" transform="translate(46.271 63.808)" opacity="0.4"/>
  <ellipse id="Ellipse_58" data-name="Ellipse 58" cx="24.259" cy="23.726" rx="24.259" ry="23.726" transform="translate(44.794 61.317)" fill="#464698"/>
  <ellipse id="Ellipse_59" data-name="Ellipse 59" cx="18.485" cy="17.634" rx="18.485" ry="17.634" transform="translate(49.554 68.149) rotate(-2.95)" fill="#fff" opacity="0.2"/>
  <path id="Path_1555" data-name="Path 1555" d="M176.383,318.634a18.381,18.381,0,0,1-20.113-15.729,2.572,2.572,0,0,0,.035.515A18.481,18.481,0,0,0,193.09,299.9a3.714,3.714,0,0,0-.064-.51A18.186,18.186,0,0,1,176.383,318.634Z" transform="translate(-105.731 -216.356)" fill="#fafafa"/>
  <path id="Path_1556" data-name="Path 1556" d="M172.8,271.476A18.387,18.387,0,0,1,192.916,287.2a2.211,2.211,0,0,0-.041-.515A18.478,18.478,0,0,0,156.1,290.21a3.715,3.715,0,0,0,.064.51A18.209,18.209,0,0,1,172.8,271.476Z" transform="translate(-105.62 -204.148)" opacity="0.3"/>
  <path id="Path_1560" data-name="Path 1560" d="M192.5,275.325s-.041-.052-.11-.162-.168-.284-.29-.492l-.457-.8a9.753,9.753,0,0,0-.672-1.071l-.915-1.291c-.33-.475-.776-.921-1.2-1.442a15.714,15.714,0,0,0-1.517-1.535,8.119,8.119,0,0,0-.869-.8l-.979-.759a25.131,25.131,0,0,0-4.749-2.843l-1.419-.579c-.237-.093-.475-.2-.724-.284l-.759-.22c-.51-.145-1.025-.313-1.552-.44l-1.633-.313a14.563,14.563,0,0,0-1.685-.214,13.276,13.276,0,0,0-1.737-.11h-1.778l-1.8.168a25.584,25.584,0,0,0-7.239,2.062,26.216,26.216,0,0,0-6.278,4.135,25.441,25.441,0,0,0-4.419,5.438l-.788,1.43-.191.359-.156.371-.313.741a24.324,24.324,0,0,0-1.013,2.9c-.145.475-.214.961-.324,1.43a13.326,13.326,0,0,0-.249,1.4,21.43,21.43,0,0,0-.208,2.647,17.373,17.373,0,0,0,.069,2.421,14.913,14.913,0,0,0,.272,2.143c.139.654.22,1.286.382,1.836s.319,1.06.452,1.517a9.146,9.146,0,0,0,.434,1.158c.139.336.255.62.347.857s.156.4.214.533a.7.7,0,0,1,.058.185,1.851,1.851,0,0,1-.087-.174c-.064-.127-.139-.3-.237-.515l-.376-.851a8.109,8.109,0,0,1-.463-1.158l-.481-1.517c-.174-.579-.261-1.187-.411-1.847a15.726,15.726,0,0,1-.3-2.154,17.492,17.492,0,0,1-.093-2.438,21.792,21.792,0,0,1,.191-2.681,11.223,11.223,0,0,1,.237-1.361c.1-.475.168-.967.313-1.454a23.706,23.706,0,0,1,1.013-2.948c.1-.249.2-.5.307-.753l.162-.376.191-.365c.261-.486.527-.979.793-1.483a25.649,25.649,0,0,1,4.453-5.513,26.314,26.314,0,0,1,6.37-4.187,25.609,25.609,0,0,1,7.326-2.033l1.824-.168h1.8a13.6,13.6,0,0,1,1.737.122,14.855,14.855,0,0,1,1.7.214l1.645.324c.539.133,1.054.307,1.569.452l.77.226c.249.093.486.2.73.29l1.425.579a25.564,25.564,0,0,1,4.778,2.9l.984.782c.324.249.579.579.869.8a15.721,15.721,0,0,1,1.506,1.569c.429.527.874.984,1.2,1.465l.9,1.315a8.621,8.621,0,0,1,.649,1.089c.168.324.319.579.434.822l.266.51a1.032,1.032,0,0,1,.1.156Z" transform="translate(-101.511 -200.497)" fill="#fafafa"/>
  <path id="Path_1566" data-name="Path 1566" d="M181.21,345.481c-.069.041-.452-.481-.851-1.158a3.637,3.637,0,0,1-.579-1.315c.075-.041.457.481.857,1.158A3.474,3.474,0,0,1,181.21,345.481Z" transform="translate(-115.626 -234.713)" fill="#263238"/>
  <path id="Path_1567" data-name="Path 1567" d="M174.337,343.388c-.075.046-.44-.452-.828-1.112a3.313,3.313,0,0,1-.579-1.268c.075-.041.44.457.822,1.118a3.266,3.266,0,0,1,.585,1.262Z" transform="translate(-112.743 -233.872)" fill="#263238"/>
  <path id="Path_1568" data-name="Path 1568" d="M167.981,340.434c-.069.041-.44-.458-.822-1.118a3.237,3.237,0,0,1-.579-1.268c.075-.041.44.457.828,1.118A3.278,3.278,0,0,1,167.981,340.434Z" transform="translate(-110.07 -232.626)" fill="#263238"/>
  <path id="Path_1569" data-name="Path 1569" d="M188.5,346.351c-.075.041-.457-.481-.857-1.158a3.475,3.475,0,0,1-.579-1.315c.069-.041.452.481.851,1.158A3.683,3.683,0,0,1,188.5,346.351Z" transform="translate(-118.69 -235.08)" fill="#263238"/>
  <path id="Path_1570" data-name="Path 1570" d="M195.25,345.977c-.069.041-.452-.481-.851-1.158a3.643,3.643,0,0,1-.579-1.32c.075-.041.458.481.857,1.158a3.475,3.475,0,0,1,.573,1.32Z" transform="translate(-121.535 -234.92)" fill="#263238"/>
  <path id="Path_1571" data-name="Path 1571" d="M201.89,344.571c-.07.041-.452-.481-.851-1.158a3.637,3.637,0,0,1-.579-1.315c.075-.046.457.481.857,1.158A3.417,3.417,0,0,1,201.89,344.571Z" transform="translate(-124.33 -234.33)" fill="#263238"/>
  <path id="Path_1572" data-name="Path 1572" d="M207.956,342.387c-.075.041-.458-.481-.857-1.158a3.475,3.475,0,0,1-.579-1.32c.07-.041.452.481.851,1.158A3.683,3.683,0,0,1,207.956,342.387Z" transform="translate(-126.881 -233.409)" fill="#263238"/>
  <path id="Path_1573" data-name="Path 1573" d="M213.77,339.057c-.069.041-.452-.481-.851-1.158a3.567,3.567,0,0,1-.579-1.32c.07-.041.452.481.857,1.158A3.475,3.475,0,0,1,213.77,339.057Z" transform="translate(-129.33 -232.007)" fill="#263238"/>
  <path id="Path_1574" data-name="Path 1574" d="M218.81,334.977c-.069.046-.452-.481-.851-1.158a3.6,3.6,0,0,1-.579-1.32c.075-.041.458.481.857,1.158a3.475,3.475,0,0,1,.573,1.32Z" transform="translate(-131.452 -230.29)" fill="#263238"/>
  <path id="Path_1575" data-name="Path 1575" d="M222.68,330.539c-.075.041-.434-.44-.8-1.083s-.62-1.187-.544-1.228.429.44.8,1.077a3.214,3.214,0,0,1,.544,1.234Z" transform="translate(-133.109 -228.493)" fill="#263238"/>
  <path id="Path_1576" data-name="Path 1576" d="M226.315,325.581c-.075.041-.434-.446-.8-1.089a3.144,3.144,0,0,1-.55-1.234c.075-.041.434.446.811,1.083a3.185,3.185,0,0,1,.544,1.239Z" transform="translate(-134.642 -226.401)" fill="#263238"/>
  <path id="Path_1577" data-name="Path 1577" d="M229.16,319.8c-.075.046-.411-.405-.764-1.008s-.579-1.118-.5-1.158.411.411.759,1.008A2.727,2.727,0,0,1,229.16,319.8Z" transform="translate(-135.872 -224.035)" fill="#263238"/>
  <path id="Path_1578" data-name="Path 1578" d="M231.013,313.442c-.069.041-.405-.394-.741-.979s-.579-1.089-.486-1.158.405.4.747.984S231.089,313.39,231.013,313.442Z" transform="translate(-136.665 -221.368)" fill="#263238"/>
  <path id="Path_1579" data-name="Path 1579" d="M231.613,306.257c-.075.046-.463-.492-.874-1.193a3.817,3.817,0,0,1-.608-1.344,3.724,3.724,0,0,1,.869,1.193,3.77,3.77,0,0,1,.614,1.344Z" transform="translate(-136.818 -218.178)" fill="#263238"/>
  <path id="Path_1580" data-name="Path 1580" d="M230.771,297.026a4.285,4.285,0,0,1-.921-1.28,4.239,4.239,0,0,1-.66-1.436,4.251,4.251,0,0,1,.921,1.286,4.054,4.054,0,0,1,.66,1.43Z" transform="translate(-136.422 -214.218)" fill="#263238"/>
  <path id="Path_1581" data-name="Path 1581" d="M137.59,315.564c2.635.625,12.711,1.61,14.35,1.772,3.411.342,3.446.035,3.417-.365-.075-1.089-5.976-.828-4.737-1.616s7.25.515,7.123-.614c-.162-1.471-6.335-1.083-6.857-1.095s-.539-.764-.064-.73c.683.041,7.841.33,7.7-1.118-.081-.8-1.511-.527-1.511-.527s-6.718.226-6.764-.457,3.892-.961,5.212-.956,1.859-.625,1.378-1.21c-.33-.4-4.419-.51-5.739-.481s-4.94.162-3.214-1.361,2.49-3.336,2.351-3.973a.718.718,0,0,0-1.361,0,8.239,8.239,0,0,1-1.425,1.83,5.4,5.4,0,0,1-1.488,1.118l-.741.365a23.849,23.849,0,0,1-6.8.921Z" transform="translate(-97.869 -217.6)" fill="#ffc4c0"/>
  <path id="Path_1582" data-name="Path 1582" d="M69,254.454v23.8c0,6.868,13.7,12.879,21.329,14.177l20.651,2.623.683-12.017s-25.608-6.718-26.975-8.409-.747-23.68-.747-23.68Z" transform="translate(-69 -195.968)" fill="#464698"/>
  <path id="Path_1583" data-name="Path 1583" d="M91.53,290.34a2.018,2.018,0,0,1,.319.11l.921.353,3.475,1.384h0c1.245.515,2.8.967,4.546,1.5l5.832,1.7c4.251,1.222,9.19,2.606,14.53,4.054l.116.035v.122c-.087,1.627-.185,3.341-.284,5.079-.133,2.374-.266,4.7-.394,6.949v.145h-.139a97.207,97.207,0,0,1-20.645-2.722c-2.537-.62-4.546-1.2-5.919-1.627-.683-.208-1.21-.382-1.569-.5l-.405-.139-.133-.058.145.029.411.116,1.581.452c1.384.394,3.4.95,5.936,1.54a100.694,100.694,0,0,0,20.6,2.612l-.151.139c.127-2.235.255-4.558.388-6.949.1-1.737.2-3.475.29-5.079l.11.151c-5.334-1.483-10.273-2.9-14.518-4.123-2.125-.625-4.054-1.21-5.826-1.737a42.762,42.762,0,0,1-4.552-1.558h0l-3.475-1.454-.909-.388a1.824,1.824,0,0,1-.284-.139Z" transform="translate(-78.483 -212.547)" fill="#263238"/>
  <path id="Path_1584" data-name="Path 1584" d="M95.051,290.094a18.556,18.556,0,0,1-2.681-3.874,9.348,9.348,0,0,1,1.465,1.853A9.741,9.741,0,0,1,95.051,290.094Z" transform="translate(-78.836 -210.813)" fill="#263238"/>
  <g id="Group_34" data-name="Group 34" transform="translate(20.17 38.03)" opacity="0.3">
    <path id="Path_1585" data-name="Path 1585" d="M103.83,222.866s4.673,4.818,5.322,4.106.938-5.345,2.838-4.424a1.807,1.807,0,0,0-1.158-.84c-.724-.081-1.894-.191-2.473,2.461,0,0,0,.822-.62.579S103.83,222.866,103.83,222.866Z" transform="translate(-103.83 -221.678)"/>
  </g>
  <g id="Group_35" data-name="Group 35" transform="translate(29.535 37.562)" opacity="0.3">
    <path id="Path_1586" data-name="Path 1586" d="M120,221.878a1.286,1.286,0,0,1,1.228,1.019,29.482,29.482,0,0,1,.313,3.8l4.146-4.094-2.716,1.894s-.371-3.22-2.38-3.631Z" transform="translate(-120 -220.87)"/>
  </g>
  <path id="Path_1587" data-name="Path 1587" d="M115.459,283.585h-.2l-.579-.093-2.212-.382-8.108-1.483c-3.428-.637-7.528-1.4-12.034-2.282l-3.475-.695-1.789-.376c-.3-.058-.579-.139-.909-.214a7.512,7.512,0,0,1-.9-.3,9.445,9.445,0,0,1-3.237-2.16,9.932,9.932,0,0,1-2.172-3.324,10.291,10.291,0,0,1-.718-3.909V257.305c0-4.6,0-8.756.035-12.248s.035-6.289.046-8.258v-2.826a1.372,1.372,0,0,1,0-.2.926.926,0,0,1,0,.2c0,.145,0,.336,0,.579V236.8c0,1.969,0,4.783.052,8.258s0,7.644.029,12.248v11.061a10,10,0,0,0,.695,3.793,9.688,9.688,0,0,0,2.1,3.226,9.214,9.214,0,0,0,3.127,2.05c.284.116.579.2.869.3a8.14,8.14,0,0,0,.9.214l1.784.376,3.475.707,12.156,2.363,8.108,1.575,2.2.44.579.122A.9.9,0,0,1,115.459,283.585Z" transform="translate(-73.259 -188.737)" fill="#fafafa"/>
  <path id="Path_1588" data-name="Path 1588" d="M103.872,267.327a2.514,2.514,0,0,1-.075-.446c-.035-.324-.081-.759-.145-1.3-.116-1.158-.278-2.768-.481-4.754-.376-4.054-.9-9.59-1.471-15.711-.3-3.064-.515-6-.8-8.646a13.9,13.9,0,0,0-2.183-6.608,7.609,7.609,0,0,0-3.695-2.826,7.746,7.746,0,0,0-1.737-.307,2.32,2.32,0,0,1,.458,0,5.213,5.213,0,0,1,1.291.214,7.529,7.529,0,0,1,3.828,2.814,14.339,14.339,0,0,1,2.316,6.695c.347,2.641.539,5.583.828,8.652.544,6.127,1.031,11.669,1.39,15.717.162,1.992.29,3.614.382,4.772.041.539.069.973.093,1.3A2.421,2.421,0,0,1,103.872,267.327Z" transform="translate(-79.219 -185.77)" fill="#fafafa"/>
  <path id="Path_1589" data-name="Path 1589" d="M140.591,275.129a2.9,2.9,0,0,1-.052-.5c0-.353-.058-.834-.1-1.436-.075-1.274-.191-3.069-.33-5.276-.29-4.459-.753-10.609-1.43-17.373s-1.442-12.9-2.044-17.321l-.718-5.212q-.122-.892-.191-1.425a3.939,3.939,0,0,1-.046-.5,2.832,2.832,0,0,1,.11.486c.058.353.139.822.243,1.419.208,1.234.492,3.017.817,5.212.649,4.419,1.448,10.54,2.131,17.327s1.106,12.937,1.344,17.4c.116,2.23.2,4.054.237,5.281,0,.579,0,1.083.035,1.436A3.042,3.042,0,0,1,140.591,275.129Z" transform="translate(-97.065 -185.505)" fill="#fafafa"/>
  <path id="Path_1590" data-name="Path 1590" d="M156.649,254.9a5.952,5.952,0,0,1-.174-.921c-.1-.649-.232-1.5-.388-2.525-.319-2.131-.782-5.073-1.361-8.31s-1.158-6.156-1.6-8.264c-.208-1.019-.382-1.859-.515-2.5a5,5,0,0,1-.156-.927,5.827,5.827,0,0,1,.266.9c.156.579.365,1.43.614,2.484.486,2.1,1.106,5.015,1.691,8.258s1.008,6.191,1.28,8.333c.133,1.071.232,1.94.29,2.536a5.161,5.161,0,0,1,.058.938Z" transform="translate(-104.123 -187.761)" fill="#fafafa"/>
  <path id="Path_1591" data-name="Path 1591" d="M124.624,247.1h-.562l-1.593-.035-5.855-.127c-4.951-.1-11.785-.191-19.331-.133s-14.385.243-19.331.423l-5.855.22-1.593.052h-.417a.371.371,0,0,1-.139,0h.139l.411-.041,1.593-.11c1.378-.087,3.376-.2,5.849-.313,4.946-.232,11.785-.452,19.337-.51s14.391.064,19.342.22c2.473.075,4.471.156,5.855.226l1.593.087.411.029Z" transform="translate(-69.4 -194.101)" fill="#fafafa"/>
  <path id="Path_1592" data-name="Path 1592" d="M108.649,222.1a13.32,13.32,0,0,1-2.421-1.4,12.954,12.954,0,0,1-2.259-1.639,12.6,12.6,0,0,1,2.426,1.39A12.29,12.29,0,0,1,108.649,222.1Z" transform="translate(-83.719 -182.55)" fill="#fafafa"/>
  <path id="Path_1593" data-name="Path 1593" d="M127.821,219.07a8.334,8.334,0,0,1-1.65,1.54c-.486.388-.938.724-1.28.956a3.322,3.322,0,0,1-.423.243.307.307,0,0,1-.133.046c-.064,0-.052-.052-.035-.035a21.872,21.872,0,0,1,1.679-1.448,8.6,8.6,0,0,1,1.842-1.3Z" transform="translate(-92.269 -182.55)" fill="#fafafa"/>
  <path id="Path_1594" data-name="Path 1594" d="M83.979,282.9c0,.087-3.127.319-7,.521s-7.013.3-7.013.214,3.127-.313,7-.515S83.979,282.818,83.979,282.9Z" transform="translate(-69.408 -209.403)" fill="#fafafa"/>
  <path id="Path_1595" data-name="Path 1595" d="M127.083,285.855c0,.081-6.984.376-15.607.66s-15.636.44-15.636.359,6.984-.382,15.636-.66S127.077,285.774,127.083,285.855Z" transform="translate(-80.297 -210.65)" fill="#fafafa"/>
  <path id="Path_1596" data-name="Path 1596" d="M94,308.746a19.113,19.113,0,0,1,.8-1.911c.51-1.158,1.187-2.774,1.847-4.587s1.193-3.475,1.552-4.691a16.534,16.534,0,0,1,.62-1.957,2.392,2.392,0,0,1-.075.55c-.069.347-.185.845-.336,1.465-.313,1.228-.811,2.9-1.477,4.737A49.225,49.225,0,0,1,95,306.922c-.278.579-.515,1.025-.689,1.338a1.941,1.941,0,0,1-.307.486Z" transform="translate(-79.522 -214.761)" fill="#fafafa"/>
  <path id="Path_1597" data-name="Path 1597" d="M124.052,316.129a10.562,10.562,0,0,1,.046-1.934c.081-1.193.255-2.838.544-4.633s.643-3.417.944-4.575a10.134,10.134,0,0,1,.579-1.847,15.931,15.931,0,0,1-.353,1.9c-.243,1.158-.579,2.78-.857,4.575s-.492,3.423-.625,4.6a15.525,15.525,0,0,1-.278,1.911Z" transform="translate(-92.161 -217.934)" fill="#fafafa"/>
  <path id="Path_1598" data-name="Path 1598" d="M88.049,249.045a4.094,4.094,0,0,1-.133-.834c-.064-.544-.116-1.332-.156-2.316s-.052-2.131-.139-3.405a17.773,17.773,0,0,0-.7-4.054,8.9,8.9,0,0,0-2-3.544,6.735,6.735,0,0,0-2.809-1.737,5.4,5.4,0,0,0-2.235-.214c-.533.069-.817.18-.828.145a.835.835,0,0,1,.2-.087,3.409,3.409,0,0,1,.579-.174,5.108,5.108,0,0,1,2.316.127,6.77,6.77,0,0,1,2.953,1.737,9.063,9.063,0,0,1,2.085,3.654,16.945,16.945,0,0,1,.689,4.141c.069,1.291.064,2.444.075,3.417s.029,1.737.058,2.316A5.212,5.212,0,0,1,88.049,249.045Z" transform="translate(-73.23 -188.306)" fill="#263238"/>
</svg>
