<svg id="freepik--device-2--inject-4" xmlns="http://www.w3.org/2000/svg" width="93.405" height="190.354" viewBox="0 0 93.405 190.354">
  <path id="Path_1400" data-name="Path 1400" d="M375.181,309.574l-64.588-.3a14.067,14.067,0,0,1-14-14.13l.683-161.914a14.072,14.072,0,0,1,14.136-14.009l64.582.3a14.072,14.072,0,0,1,14,14.13l-.683,161.919a14.067,14.067,0,0,1-14.13,14.009Z" transform="translate(-296.59 -119.22)" fill="#263238"/>
  <path id="Path_1401" data-name="Path 1401" d="M379.018,129.628l-12.52-.058a3.1,3.1,0,0,0-3.052,3.162V135a3.11,3.11,0,0,1-3.052,3.168l-24.41-.116a3.116,3.116,0,0,1-3.029-3.191v-2.27a3.116,3.116,0,0,0-3.029-3.191h-4.4l-10.963-.052a9.845,9.845,0,0,0-9.9,9.816L304,297.182a9.845,9.845,0,0,0,9.8,9.891l64.455.3a9.845,9.845,0,0,0,9.9-9.816l.672-158.039a9.845,9.845,0,0,0-9.81-9.891Z" transform="translate(-299.709 -123.483)" fill="#fafafa"/>
  <path id="Path_1402" data-name="Path 1402" d="M331.131,189.283a17.217,17.217,0,0,1,9.127-22.2l-.463.168a17.228,17.228,0,1,0,12.822,31.98l.451-.2A17.217,17.217,0,0,1,331.131,189.283Z" transform="translate(-310.219 -139.364)" fill="#fafafa"/>
  <path id="Path_1406" data-name="Path 1406" d="M371.463,181.094c-.145.058-.672-.88-1.355-2.374l.486.208c-.718.324-1.575.7-2.508,1.083l-.411.168-.174-.417-.272-.678c-.475-1.193-.892-2.316-1.216-3.243l.486.208c-1.546.539-2.594.811-2.652.666s.886-.678,2.374-1.361l.324-.145.162.353c.411.9.886,1.992,1.361,3.185.093.232.18.463.266.678l-.579-.249c.944-.365,1.818-.689,2.565-.944l.371-.127.116.336A7.77,7.77,0,0,1,371.463,181.094Z" transform="translate(-324.897 -142.785)" fill="#fafafa"/>
  <path id="Path_1407" data-name="Path 1407" d="M379.018,190.909c-.232.093-.695-.515-1.031-1.355s-.423-1.6-.191-1.691.695.515,1.031,1.355S379.243,190.834,379.018,190.909Z" transform="translate(-330.714 -148.107)" fill="#fafafa"/>
  <path id="Path_1408" data-name="Path 1408" d="M344,185.16c-.093-.232,2.519-1.494,5.832-2.82s6.075-2.218,6.168-1.986-2.519,1.494-5.832,2.826S344.091,185.392,344,185.16Z" transform="translate(-316.542 -144.935)" fill="#fafafa"/>
  <path id="Path_1409" data-name="Path 1409" d="M360.632,193.934c-.232.093-.857-.921-1.4-2.264s-.782-2.5-.55-2.594.851.921,1.39,2.259S360.864,193.842,360.632,193.934Z" transform="translate(-322.689 -148.619)" fill="#fafafa"/>
  <path id="Path_1410" data-name="Path 1410" d="M347.792,199.269c-.232.093-.857-.921-1.4-2.259s-.782-2.5-.55-2.594.851.915,1.39,2.259S348.024,199.176,347.792,199.269Z" transform="translate(-317.284 -150.866)" fill="#fafafa"/>
</svg>
