<svg id="freepik--character-2--inject-4" xmlns="http://www.w3.org/2000/svg" width="88.389" height="154.226" viewBox="0 0 88.389 154.226">
  <path id="Path_1422" data-name="Path 1422" d="M310.639,267.7s0,13.163-3.3,14.408c-8.965,3.394-19.69,2.612-23.454,2.253-.452-.313-.973-.695-1.564-1.158a5.844,5.844,0,0,1-1.291-1.477,9.4,9.4,0,0,1-1.071-2.218.741.741,0,0,0-1.39-.266,6.247,6.247,0,0,0,1.268,4.876.99.99,0,0,1-.544,1.4c-1.506.735-6.845,2.994-7.691,3.5-.759.458-1.454,1.2-.608,1.257a45.141,45.141,0,0,0,5.328-1.054s-5.907,1.332-5.669,2.183c.156.579,1.8.712,5.617-.579,0,0-4.859,1.158-5.322,1.7-1.048,1.28,4.812-.029,4.812-.029-4.094.956-4.054.73-4.054,1.3,0,.434.961.51,3.243.313,1.853-.162,3.8.041,6.637-.058h0s36.594,6.521,39.924-9.631c1.8-8.687,1.494-11.918,1.853-17.547" transform="translate(-270.612 -210.976)" fill="#ffc4c0"/>
  <path id="Path_1423" data-name="Path 1423" d="M279.695,310.208a11.624,11.624,0,0,1-2.78.77,10.816,10.816,0,0,1-2.855.394,21.657,21.657,0,0,1,5.635-1.164Z" transform="translate(-272.063 -229.2)" fill="#eb996e"/>
  <path id="Path_1424" data-name="Path 1424" d="M279.152,307.426a12.5,12.5,0,0,1-2.9.99,11.914,11.914,0,0,1-3.017.614,12.342,12.342,0,0,1,2.9-.984A12.743,12.743,0,0,1,279.152,307.426Z" transform="translate(-271.718 -228.033)" fill="#eb996e"/>
  <path id="Path_1425" data-name="Path 1425" d="M279.008,304.544a11.419,11.419,0,0,1-2.739.979,10.911,10.911,0,0,1-2.849.608,11.121,11.121,0,0,1,2.745-.979A10.848,10.848,0,0,1,279.008,304.544Z" transform="translate(-271.793 -226.819)" fill="#eb996e"/>
  <path id="Path_1426" data-name="Path 1426" d="M386.846,254.136s-.208-1.963-1.569-12.949c-.579-4.783-4.326-7.528-7.812-9.347v-.064l-.307-.087a28.735,28.735,0,0,0-9.133-2.658l-12.329-.2s-8.548-.649-14.785,5.131c-2.044,1.9-4.141,18.867-4.141,18.867l6.168,2.195-.052-2.5s-.255,5.079,1.425,8.038l3.967,6.99-2.623,12.329c-1.633,4.7-7.007,21.867-4.9,38.87,2.612,21.062,3.411,30.259,3.411,30.259l35.615.168s7.083-31.486,3.2-59.318c-1.737-12.37-6.532-13.725-7.221-16.366l.776-18.949Z" transform="translate(-298.457 -194.954)" fill="#464698"/>
  <path id="Path_1427" data-name="Path 1427" d="M386.365,246.492c0,.081-10.146.156-22.661.168s-22.655-.046-22.655-.127,10.14-.162,22.655-.174S386.36,246.405,386.365,246.492Z" transform="translate(-300.259 -202.338)" fill="#fafafa"/>
  <path id="Path_1428" data-name="Path 1428" d="M340.436,256.891c0,.081-.324.151-.724.151s-.712-.081-.712-.151.324-.151.724-.151S340.436,256.792,340.436,256.891Z" transform="translate(-299.396 -206.708)" fill="#fafafa"/>
  <path id="Path_1429" data-name="Path 1429" d="M349.618,256.878a3.771,3.771,0,0,1-1.494.151,3.811,3.811,0,0,1-1.494-.145,3.8,3.8,0,0,1,1.494-.156A3.9,3.9,0,0,1,349.618,256.878Z" transform="translate(-302.607 -206.696)" fill="#fafafa"/>
  <path id="Path_1430" data-name="Path 1430" d="M359.928,256.878a3.806,3.806,0,0,1-1.494.156,3.9,3.9,0,0,1-1.494-.151,3.828,3.828,0,0,1,1.494-.156A3.874,3.874,0,0,1,359.928,256.878Z" transform="translate(-306.946 -206.695)" fill="#fafafa"/>
  <path id="Path_1431" data-name="Path 1431" d="M370.248,256.82a3.683,3.683,0,0,1-1.494.156,3.9,3.9,0,0,1-1.494-.151,3.771,3.771,0,0,1,1.494-.151A3.811,3.811,0,0,1,370.248,256.82Z" transform="translate(-311.29 -206.673)" fill="#fafafa"/>
  <path id="Path_1432" data-name="Path 1432" d="M380.568,256.817a7.488,7.488,0,0,1-2.988,0,3.874,3.874,0,0,1,1.494-.151A3.771,3.771,0,0,1,380.568,256.817Z" transform="translate(-315.634 -206.669)" fill="#fafafa"/>
  <path id="Path_1433" data-name="Path 1433" d="M390.888,256.807a7.488,7.488,0,0,1-2.988,0,3.873,3.873,0,0,1,1.494-.151A3.77,3.77,0,0,1,390.888,256.807Z" transform="translate(-319.977 -206.665)" fill="#fafafa"/>
  <path id="Path_1434" data-name="Path 1434" d="M401.2,256.8a3.852,3.852,0,0,1-1.488.151,3.747,3.747,0,0,1-1.494-.151,3.874,3.874,0,0,1,1.494-.151A3.729,3.729,0,0,1,401.2,256.8Z" transform="translate(-324.321 -206.661)" fill="#fafafa"/>
  <path id="Path_1435" data-name="Path 1435" d="M411.518,256.787a3.874,3.874,0,0,1-1.494.151,3.77,3.77,0,0,1-1.494-.151,3.9,3.9,0,0,1,1.494-.151A3.747,3.747,0,0,1,411.518,256.787Z" transform="translate(-328.66 -206.656)" fill="#fafafa"/>
  <path id="Path_1436" data-name="Path 1436" d="M420.312,256.791c0,.087-.324.151-.718.151s-.724-.064-.724-.151.324-.151.718-.151S420.312,256.709,420.312,256.791Z" transform="translate(-333.012 -206.666)" fill="#fafafa"/>
  <path id="Path_1437" data-name="Path 1437" d="M372.221,265.441c0,.087-7.737.151-17.281.151s-17.281-.064-17.281-.151,7.737-.151,17.281-.151S372.221,265.359,372.221,265.441Z" transform="translate(-298.832 -210.307)" fill="#fafafa"/>
  <path id="Path_1438" data-name="Path 1438" d="M412.138,265.891c0,.081-2.93.151-6.544.151s-6.544-.069-6.544-.151,2.93-.151,6.544-.151S412.138,265.8,412.138,265.891Z" transform="translate(-324.67 -210.496)" fill="#fafafa"/>
  <path id="Path_1439" data-name="Path 1439" d="M381.512,284.863c0,.081-5.142.035-11.484-.116s-11.484-.33-11.478-.417,5.142-.029,11.484.116S381.512,284.782,381.512,284.863Z" transform="translate(-307.624 -218.303)" fill="#fafafa"/>
  <path id="Path_1440" data-name="Path 1440" d="M392.748,327.481c0,.081-6.857.151-15.306.151s-15.312-.069-15.312-.151,6.851-.151,15.312-.151S392.748,327.394,392.748,327.481Z" transform="translate(-309.131 -236.419)" fill="#fafafa"/>
  <path id="Path_1441" data-name="Path 1441" d="M386.132,350.711c0,.087-9.509.151-21.236.151s-21.236-.064-21.236-.151,9.509-.151,21.236-.151S386.132,350.629,386.132,350.711Z" transform="translate(-301.357 -246.196)" fill="#fafafa"/>
  <path id="Path_1442" data-name="Path 1442" d="M386.374,377.791c0,.081-9.619.151-21.479.151s-21.485-.069-21.485-.151,9.619-.151,21.485-.151S386.374,377.7,386.374,377.791Z" transform="translate(-301.252 -257.594)" fill="#fafafa"/>
  <path id="Path_1443" data-name="Path 1443" d="M386.862,403.581c0,.081-9.057.151-20.228.151s-20.234-.07-20.234-.151,9.057-.151,20.234-.151S386.862,403.5,386.862,403.581Z" transform="translate(-302.51 -268.448)" fill="#fafafa"/>
  <path id="Path_1444" data-name="Path 1444" d="M386.083,425.961c0,.087-8.31.151-18.566.151s-18.566-.064-18.566-.151,8.31-.151,18.566-.151S386.083,425.879,386.083,425.961Z" transform="translate(-303.584 -277.868)" fill="#fafafa"/>
  <path id="Path_1445" data-name="Path 1445" d="M354.218,277.251c0,.081-.324.151-.724.151s-.724-.069-.724-.151.324-.151.724-.151S354.218,277.169,354.218,277.251Z" transform="translate(-305.191 -215.277)" fill="#fafafa"/>
  <path id="Path_1446" data-name="Path 1446" d="M362.492,277.25a5.913,5.913,0,0,1-2.652,0A5.913,5.913,0,0,1,362.492,277.25Z" transform="translate(-308.167 -215.277)" fill="#fafafa"/>
  <path id="Path_1447" data-name="Path 1447" d="M371.637,277.251a5.89,5.89,0,0,1-2.647,0A5.889,5.889,0,0,1,371.637,277.251Z" transform="translate(-312.018 -215.277)" fill="#fafafa"/>
  <path id="Path_1448" data-name="Path 1448" d="M380.777,277.251a5.89,5.89,0,0,1-2.647,0A5.889,5.889,0,0,1,380.777,277.251Z" transform="translate(-315.865 -215.277)" fill="#fafafa"/>
  <path id="Path_1449" data-name="Path 1449" d="M389.922,277.25a5.913,5.913,0,0,1-2.652,0A5.913,5.913,0,0,1,389.922,277.25Z" transform="translate(-319.712 -215.277)" fill="#fafafa"/>
  <path id="Path_1450" data-name="Path 1450" d="M397.868,277.251c0,.081-.324.151-.724.151s-.724-.069-.724-.151.324-.151.724-.151S397.868,277.169,397.868,277.251Z" transform="translate(-323.563 -215.277)" fill="#fafafa"/>
  <path id="Path_1451" data-name="Path 1451" d="M366.048,295.511c0,.081-.324.151-.724.151s-.724-.064-.724-.145.319-.156.718-.156S366.048,295.424,366.048,295.511Z" transform="translate(-310.17 -222.963)" fill="#fafafa"/>
  <path id="Path_1452" data-name="Path 1452" d="M375.7,295.451a4.251,4.251,0,0,1-1.581.156,4.117,4.117,0,0,1-1.581-.145,4.4,4.4,0,0,1,1.581-.156,4.279,4.279,0,0,1,1.581.145Z" transform="translate(-313.512 -222.932)" fill="#fafafa"/>
  <path id="Path_1453" data-name="Path 1453" d="M386.642,295.4a4.117,4.117,0,0,1-1.581.156,4.332,4.332,0,0,1-1.581-.139,4.181,4.181,0,0,1,1.581-.162A4.429,4.429,0,0,1,386.642,295.4Z" transform="translate(-318.117 -222.912)" fill="#fafafa"/>
  <path id="Path_1454" data-name="Path 1454" d="M395.848,295.38c0,.081-.324.151-.724.151s-.724-.064-.724-.145.324-.151.724-.156S395.848,295.293,395.848,295.38Z" transform="translate(-322.713 -222.908)" fill="#fafafa"/>
  <path id="Path_1455" data-name="Path 1455" d="M353.948,339.551c0,.081-.324.151-.724.151s-.724-.069-.724-.151.324-.151.724-.151S353.948,339.464,353.948,339.551Z" transform="translate(-305.078 -241.499)" fill="#fafafa"/>
  <path id="Path_1456" data-name="Path 1456" d="M363.46,339.537a4.227,4.227,0,0,1-1.558.151,4.18,4.18,0,0,1-1.552-.151,8.105,8.105,0,0,1,3.11,0Z" transform="translate(-308.382 -241.485)" fill="#fafafa"/>
  <path id="Path_1457" data-name="Path 1457" d="M374.19,339.551a8.107,8.107,0,0,1-3.11,0,8.108,8.108,0,0,1,3.11,0Z" transform="translate(-312.898 -241.499)" fill="#fafafa"/>
  <path id="Path_1458" data-name="Path 1458" d="M384.92,339.537a4.181,4.181,0,0,1-1.552.151,4.228,4.228,0,0,1-1.558-.151,8.105,8.105,0,0,1,3.11,0Z" transform="translate(-317.414 -241.485)" fill="#fafafa"/>
  <path id="Path_1459" data-name="Path 1459" d="M395.654,339.551a8.073,8.073,0,0,1-3.1,0,8.072,8.072,0,0,1,3.1,0Z" transform="translate(-321.934 -241.499)" fill="#fafafa"/>
  <path id="Path_1460" data-name="Path 1460" d="M406.39,339.537a4.227,4.227,0,0,1-1.558.151,4.18,4.18,0,0,1-1.552-.151,8.105,8.105,0,0,1,3.11,0Z" transform="translate(-326.45 -241.485)" fill="#fafafa"/>
  <path id="Path_1461" data-name="Path 1461" d="M415.458,339.551c0,.081-.324.151-.724.151s-.724-.069-.724-.151.324-.151.724-.151S415.458,339.464,415.458,339.551Z" transform="translate(-330.967 -241.499)" fill="#fafafa"/>
  <path id="Path_1462" data-name="Path 1462" d="M344.418,365.511c0,.081-.324.151-.724.151s-.724-.07-.724-.151.324-.151.724-.151S344.418,365.424,344.418,365.511Z" transform="translate(-301.067 -252.425)" fill="#fafafa"/>
  <path id="Path_1463" data-name="Path 1463" d="M353.934,365.511a8.075,8.075,0,0,1-3.1,0A8.072,8.072,0,0,1,353.934,365.511Z" transform="translate(-304.375 -252.425)" fill="#fafafa"/>
  <path id="Path_1464" data-name="Path 1464" d="M364.654,365.511a8.075,8.075,0,0,1-3.1,0A8.072,8.072,0,0,1,364.654,365.511Z" transform="translate(-308.887 -252.425)" fill="#fafafa"/>
  <path id="Path_1465" data-name="Path 1465" d="M375.374,365.511a8.075,8.075,0,0,1-3.1,0A8.072,8.072,0,0,1,375.374,365.511Z" transform="translate(-313.399 -252.425)" fill="#fafafa"/>
  <path id="Path_1466" data-name="Path 1466" d="M386.1,365.511a8.075,8.075,0,0,1-3.1,0A8.072,8.072,0,0,1,386.1,365.511Z" transform="translate(-317.915 -252.425)" fill="#fafafa"/>
  <path id="Path_1467" data-name="Path 1467" d="M396.824,365.511a8.075,8.075,0,0,1-3.1,0A8.072,8.072,0,0,1,396.824,365.511Z" transform="translate(-322.427 -252.425)" fill="#fafafa"/>
  <path id="Path_1468" data-name="Path 1468" d="M407.544,365.511a8.075,8.075,0,0,1-3.1,0A8.072,8.072,0,0,1,407.544,365.511Z" transform="translate(-326.939 -252.425)" fill="#fafafa"/>
  <ellipse id="Ellipse_52" data-name="Ellipse 52" cx="0.724" cy="0.151" rx="0.724" ry="0.151" transform="translate(83.715 112.935)" fill="#fafafa"/>
  <path id="Path_1469" data-name="Path 1469" d="M345.858,392.891c0,.081-.324.151-.724.151s-.724-.069-.724-.151.324-.151.724-.151S345.858,392.815,345.858,392.891Z" transform="translate(-301.673 -263.949)" fill="#fafafa"/>
  <path id="Path_1470" data-name="Path 1470" d="M355.1,392.877a3.956,3.956,0,0,1-1.506.151,3.915,3.915,0,0,1-1.5-.151,3.787,3.787,0,0,1,1.5-.151A3.829,3.829,0,0,1,355.1,392.877Z" transform="translate(-304.905 -263.935)" fill="#fafafa"/>
  <path id="Path_1471" data-name="Path 1471" d="M365.46,392.89a7.528,7.528,0,0,1-3,0A7.528,7.528,0,0,1,365.46,392.89Z" transform="translate(-309.27 -263.949)" fill="#fafafa"/>
  <path id="Path_1472" data-name="Path 1472" d="M375.82,392.89a7.528,7.528,0,0,1-3,0A7.527,7.527,0,0,1,375.82,392.89Z" transform="translate(-313.63 -263.949)" fill="#fafafa"/>
  <path id="Path_1473" data-name="Path 1473" d="M386.2,392.89a7.528,7.528,0,0,1-3,0A7.527,7.527,0,0,1,386.2,392.89Z" transform="translate(-317.999 -263.949)" fill="#fafafa"/>
  <path id="Path_1474" data-name="Path 1474" d="M396.566,392.891a7.575,7.575,0,0,1-3.006,0A7.574,7.574,0,0,1,396.566,392.891Z" transform="translate(-322.359 -263.949)" fill="#fafafa"/>
  <path id="Path_1475" data-name="Path 1475" d="M406.936,392.891a7.575,7.575,0,0,1-3.006,0A7.574,7.574,0,0,1,406.936,392.891Z" transform="translate(-326.724 -263.949)" fill="#fafafa"/>
  <path id="Path_1476" data-name="Path 1476" d="M415.748,392.891c0,.081-.324.151-.724.151s-.724-.069-.724-.151.324-.151.724-.151S415.748,392.815,415.748,392.891Z" transform="translate(-331.089 -263.949)" fill="#fafafa"/>
  <path id="Path_1477" data-name="Path 1477" d="M349.318,415.981c0,.081-.324.151-.724.151s-.724-.069-.724-.151.324-.151.724-.151A1.2,1.2,0,0,1,349.318,415.981Z" transform="translate(-303.129 -273.667)" fill="#fafafa"/>
  <path id="Path_1478" data-name="Path 1478" d="M358.635,415.981a7.719,7.719,0,0,1-3.035,0,7.72,7.72,0,0,1,3.035,0Z" transform="translate(-306.382 -273.667)" fill="#fafafa"/>
  <path id="Path_1479" data-name="Path 1479" d="M369.1,415.981a7.719,7.719,0,0,1-3.035,0,7.72,7.72,0,0,1,3.035,0Z" transform="translate(-310.789 -273.667)" fill="#fafafa"/>
  <path id="Path_1480" data-name="Path 1480" d="M379.575,415.981a7.719,7.719,0,0,1-3.035,0,7.72,7.72,0,0,1,3.035,0Z" transform="translate(-315.196 -273.667)" fill="#fafafa"/>
  <path id="Path_1481" data-name="Path 1481" d="M390.045,415.981a7.719,7.719,0,0,1-3.035,0,7.72,7.72,0,0,1,3.035,0Z" transform="translate(-319.603 -273.667)" fill="#fafafa"/>
  <path id="Path_1482" data-name="Path 1482" d="M400.515,415.981a7.719,7.719,0,0,1-3.035,0,7.72,7.72,0,0,1,3.035,0Z" transform="translate(-324.009 -273.667)" fill="#fafafa"/>
  <path id="Path_1483" data-name="Path 1483" d="M409.4,415.981c0,.081-.318.151-.718.151s-.73-.069-.73-.151.324-.151.73-.151A1.163,1.163,0,0,1,409.4,415.981Z" transform="translate(-328.416 -273.667)" fill="#fafafa"/>
  <path id="Path_1484" data-name="Path 1484" d="M379.695,302.142a4.973,4.973,0,0,1-.95.191c-.614.1-1.506.214-2.618.33a75.223,75.223,0,0,1-8.687.353,73.412,73.412,0,0,1-8.687-.666c-1.106-.151-1.992-.3-2.606-.423a4.773,4.773,0,0,1-.938-.22,4.261,4.261,0,0,1,.961.075l2.612.3c2.206.237,5.264.486,8.652.55s6.445-.081,8.687-.243l2.623-.208a4.374,4.374,0,0,1,.95-.04Z" transform="translate(-306.218 -225.633)" fill="#263238"/>
  <path id="Path_1485" data-name="Path 1485" d="M399.37,273.337a3.737,3.737,0,0,1-.093-.874c-.029-.649-.07-1.448-.116-2.392-.1-2.1-.237-4.847-.382-7.882s-.249-5.866-.272-7.888V251.91a4.1,4.1,0,0,1,.058-.88,3.741,3.741,0,0,1,.093.874c.029.643.07,1.442.122,2.392.1,2.1.232,4.841.382,7.876s.243,5.872.266,7.893v2.392a4.1,4.1,0,0,1-.058.88Z" transform="translate(-324.44 -204.305)" fill="#263238"/>
  <g id="Group_31" data-name="Group 31" transform="translate(54.812 48.022)" opacity="0.4">
    <path id="Path_1486" data-name="Path 1486" d="M365.26,282.069a41.477,41.477,0,0,0,8.368-1.338,13.994,13.994,0,0,0,7.059-4.477c2.27-2.9,2.681-6.758,2.948-10.424.29-4.019.4-8.206,1.042-12.561l.747,20.113v9.266l-9.845,4.193Z" transform="translate(-365.26 -253.27)"/>
  </g>
  <ellipse id="Ellipse_53" data-name="Ellipse 53" cx="24.259" cy="23.726" rx="24.259" ry="23.726" transform="translate(7.336 56.593)" fill="#263238"/>
  <ellipse id="Ellipse_54" data-name="Ellipse 54" cx="24.259" cy="23.726" rx="24.259" ry="23.726" transform="translate(5.86 54.097)" fill="#455a64"/>
  <ellipse id="Ellipse_55" data-name="Ellipse 55" cx="18.485" cy="17.634" rx="18.485" ry="17.634" transform="translate(10.618 60.924) rotate(-2.95)" fill="#fff" opacity="0.2"/>
  <path id="Path_1487" data-name="Path 1487" d="M310.773,320.5a18.378,18.378,0,0,1-20.113-15.723,2.517,2.517,0,0,0,.035.51,18.481,18.481,0,0,0,36.785-3.515,3.933,3.933,0,0,0-.069-.515A18.2,18.2,0,0,1,310.773,320.5Z" transform="translate(-279.05 -225.446)" fill="#fafafa"/>
  <path id="Path_1488" data-name="Path 1488" d="M307.187,273.353A18.373,18.373,0,0,1,327.3,289.076a2.6,2.6,0,0,0-.035-.515,18.478,18.478,0,0,0-36.779,3.521,3.92,3.92,0,0,0,.064.515A18.193,18.193,0,0,1,307.187,273.353Z" transform="translate(-278.939 -213.238)" opacity="0.3"/>
  <path id="Path_1491" data-name="Path 1491" d="M326.874,277.171a.688.688,0,0,1-.11-.168c-.075-.122-.168-.284-.29-.492l-.463-.8a8.414,8.414,0,0,0-.666-1.071l-.915-1.3c-.33-.469-.776-.921-1.21-1.436a15.057,15.057,0,0,0-1.511-1.54,8.06,8.06,0,0,0-.869-.793l-.979-.764a25.48,25.48,0,0,0-4.754-2.843l-1.413-.579c-.237-.093-.481-.2-.724-.278l-.759-.226c-.515-.139-1.025-.313-1.558-.44l-1.627-.313a13.4,13.4,0,0,0-1.685-.208,14.354,14.354,0,0,0-1.737-.116h-1.778l-1.8.168A25.567,25.567,0,0,0,294.786,266a26.217,26.217,0,0,0-6.278,4.164,25.442,25.442,0,0,0-4.419,5.438l-.788,1.459-.2.359-.156.376c-.1.249-.208.492-.307.735a23.32,23.32,0,0,0-1.013,2.9c-.151.475-.214.967-.324,1.43a12.19,12.19,0,0,0-.249,1.4,21.419,21.419,0,0,0-.208,2.652,16.463,16.463,0,0,0,.069,2.415,15.693,15.693,0,0,0,.266,2.143c.145.66.22,1.286.388,1.842s.313,1.054.452,1.511a8.843,8.843,0,0,0,.434,1.158l.347.863.208.527a.974.974,0,0,1,.064.185,1.291,1.291,0,0,1-.087-.168c-.052-.116-.139-.307-.237-.521s-.232-.521-.382-.851a8.573,8.573,0,0,1-.457-1.158c-.145-.457-.307-.961-.481-1.517s-.266-1.158-.411-1.847a15.723,15.723,0,0,1-.3-2.154,16.644,16.644,0,0,1-.093-2.438,21.864,21.864,0,0,1,.191-2.681,12.349,12.349,0,0,1,.243-1.407c.11-.475.174-.967.318-1.448a23.745,23.745,0,0,1,1.008-2.953l.313-.747.156-.382.2-.365c.261-.486.521-.979.793-1.477a25.677,25.677,0,0,1,4.453-5.519,26.314,26.314,0,0,1,6.37-4.187,25.557,25.557,0,0,1,7.326-2.05l1.824-.168h1.8a12.527,12.527,0,0,1,1.737.116,14.97,14.97,0,0,1,1.708.22l1.645.324c.539.127,1.054.3,1.569.452l.764.226c.255.087.492.191.735.29l1.425.579a25.144,25.144,0,0,1,4.778,2.9l.984.776c.319.249.579.579.869.811a15.084,15.084,0,0,1,1.506,1.564c.429.527.869.984,1.2,1.465l.9,1.315a8.657,8.657,0,0,1,.649,1.095l.434.822.266.5A1.347,1.347,0,0,1,326.874,277.171Z" transform="translate(-274.825 -209.557)" fill="#fafafa"/>
  <path id="Path_1497" data-name="Path 1497" d="M348.146,340.927c-.075.046-.457-.481-.857-1.158a3.416,3.416,0,0,1-.579-1.32c.069-.041.452.481.851,1.158A3.637,3.637,0,0,1,348.146,340.927Z" transform="translate(-302.641 -241.097)" fill="#263238"/>
  <path id="Path_1498" data-name="Path 1498" d="M370.79,272.54s.22,13.974-3.075,15.225c-8.959,3.388-19.69,2.612-23.448,2.253-.452-.313-.973-.7-1.569-1.158a5.75,5.75,0,0,1-1.286-1.483,8.844,8.844,0,0,1-1.071-2.212.741.741,0,0,0-1.39-.272,6.22,6.22,0,0,0,1.262,4.882.99.99,0,0,1-.544,1.4c-1.506.73-6.845,2.994-7.691,3.5-.753.457-1.454,1.2-.608,1.257a45.112,45.112,0,0,0,5.334-1.06s-5.907,1.338-5.675,2.189c.162.579,1.8.712,5.623-.579,0,0-4.859,1.158-5.322,1.7-1.048,1.286,4.812,0,4.812,0-4.1.95-4.054.73-4.054,1.3,0,.429.967.51,3.249.307,1.853-.162,3.8.041,6.637-.052h0s36.588,6.521,39.924-9.631c1.8-8.687,1.494-11.918,1.853-17.547" transform="translate(-296.022 -213.358)" fill="#ffc4c0"/>
  <path id="Path_1499" data-name="Path 1499" d="M340.07,315.868a11.573,11.573,0,0,1-2.78.764,11.3,11.3,0,0,1-2.861.4,10.929,10.929,0,0,1,2.78-.77A11.041,11.041,0,0,1,340.07,315.868Z" transform="translate(-297.472 -231.582)" fill="#eb996e"/>
  <path id="Path_1500" data-name="Path 1500" d="M339.522,313.086a12.222,12.222,0,0,1-2.9.984,12.459,12.459,0,0,1-3.017.62,12.342,12.342,0,0,1,2.9-.984A12.8,12.8,0,0,1,339.522,313.086Z" transform="translate(-297.127 -230.415)" fill="#eb996e"/>
  <path id="Path_1501" data-name="Path 1501" d="M339.384,310.19a10.854,10.854,0,0,1-2.745.979,11.427,11.427,0,0,1-2.849.614,11.122,11.122,0,0,1,2.745-.979A10.3,10.3,0,0,1,339.384,310.19Z" transform="translate(-297.202 -229.193)" fill="#eb996e"/>
  <path id="Path_1502" data-name="Path 1502" d="M359.87,175.41c-1.633.828-3.33,4.969-3.214,6.8s.579,3.7.075,5.455c-.376,1.28-1.262,2.392-1.494,3.706a6.949,6.949,0,0,0,.66,3.689A12.254,12.254,0,0,1,357,198.673a3.321,3.321,0,0,1-1.523,3.237,53.406,53.406,0,0,0,15.6-.718" transform="translate(-306.216 -172.477)" fill="#263238"/>
  <path id="Path_1503" data-name="Path 1503" d="M365.8,208.269c.324-3.423.579-7.036.579-7.036s-4.338-1.158-4.685-7.007c-.33-5.571,1.824-18.155,1.824-18.155h0a16.615,16.615,0,0,1,18.028,6.046h0l-3.11,27.763a5.992,5.992,0,0,1-6.868,5.067h0A6.356,6.356,0,0,1,365.8,208.269Z" transform="translate(-308.933 -172.471)" fill="#ffc4c0"/>
  <path id="Path_1504" data-name="Path 1504" d="M364.107,193.27a.747.747,0,0,0,.637.817.712.712,0,0,0,.828-.579.741.741,0,0,0-.637-.817.706.706,0,0,0-.828.579Z" transform="translate(-309.961 -179.745)" fill="#263238"/>
  <path id="Path_1505" data-name="Path 1505" d="M364.114,191.83c.081.1.678-.255,1.477-.174s1.332.533,1.43.446-.029-.22-.266-.429a2.027,2.027,0,0,0-1.158-.481,1.969,1.969,0,0,0-1.187.261C364.171,191.616,364.073,191.784,364.114,191.83Z" transform="translate(-309.962 -179.116)" fill="#263238"/>
  <path id="Path_1506" data-name="Path 1506" d="M378.367,195.121a.741.741,0,0,0,.637.817.707.707,0,0,0,.828-.579.747.747,0,0,0-.637-.817.712.712,0,0,0-.828.579Z" transform="translate(-315.963 -180.525)" fill="#263238"/>
  <path id="Path_1507" data-name="Path 1507" d="M378.364,193.739c.087.1.683-.255,1.477-.174s1.338.533,1.436.446,0-.226-.266-.434a2.044,2.044,0,0,0-1.158-.475,1.905,1.905,0,0,0-1.187.261C378.427,193.525,378.323,193.687,378.364,193.739Z" transform="translate(-315.96 -179.919)" fill="#263238"/>
  <path id="Path_1508" data-name="Path 1508" d="M370.962,199.107a5.988,5.988,0,0,0-1.268-.359c-.2-.041-.388-.1-.411-.237a1.071,1.071,0,0,1,.2-.579c.237-.469.487-.967.753-1.483a25.545,25.545,0,0,0,1.737-3.909,26.322,26.322,0,0,0-2.05,3.741c-.255.521-.5,1.019-.724,1.494a1.158,1.158,0,0,0-.2.822.533.533,0,0,0,.3.33,1.512,1.512,0,0,0,.342.081,5.05,5.05,0,0,0,1.326.1Z" transform="translate(-312.015 -179.687)" fill="#263238"/>
  <path id="Path_1509" data-name="Path 1509" d="M369.812,219.057a14.709,14.709,0,0,0,7.911-1.3s-2.259,3.77-7.963,2.664Z" transform="translate(-312.342 -190.302)" fill="#ffc4c0"/>
  <path id="Path_1510" data-name="Path 1510" d="M372.57,206.925a1.442,1.442,0,0,1,1.338-.4,1.286,1.286,0,0,1,.851.579.834.834,0,0,1-.029.956.967.967,0,0,1-1.066.162,2.994,2.994,0,0,1-.956-.707.794.794,0,0,1-.2-.261.261.261,0,0,1,0-.3" transform="translate(-313.479 -185.559)" fill="#ffc4c0"/>
  <path id="Path_1511" data-name="Path 1511" d="M374.339,205.23c-.127,0-.214.84-1.013,1.378s-1.708.353-1.737.475.191.191.579.237a2.137,2.137,0,0,0,1.43-.347,1.871,1.871,0,0,0,.793-1.158C374.472,205.456,374.4,205.23,374.339,205.23Z" transform="translate(-313.111 -185.028)" fill="#263238"/>
  <path id="Path_1512" data-name="Path 1512" d="M390.681,197.545a3.474,3.474,0,0,1,1.842.3,2.426,2.426,0,0,1,1.234,1.367,2.519,2.519,0,0,1-.168,1.842,4.221,4.221,0,0,1-1.2,1.442,2.9,2.9,0,0,1-1.187.631,1.378,1.378,0,0,1-1.262-.324" transform="translate(-320.836 -181.785)" fill="#ffbe9d"/>
  <path id="Path_1513" data-name="Path 1513" d="M391.161,201.949c-.07,0,.162.417.735.319a1.2,1.2,0,0,0,.759-.539,2.769,2.769,0,0,0,.405-.99,1.61,1.61,0,0,0-.156-1.106,1.042,1.042,0,0,0-.759-.579c-.579-.075-.8.313-.73.33a1.113,1.113,0,0,1,.654,0,1.037,1.037,0,0,1,.521,1.251,1.744,1.744,0,0,1-.782,1.291A1.421,1.421,0,0,1,391.161,201.949Z" transform="translate(-321.345 -182.424)" fill="#eb996e"/>
  <path id="Path_1514" data-name="Path 1514" d="M387.892,192.87a7.939,7.939,0,0,0-.718-4.893c-.608-1.1-1.564-2-2.073-3.15a16.022,16.022,0,0,1-.747-4.222,11.629,11.629,0,0,0-5.635-8.264c-2.832-1.61-7.187-3.075-10.372-.892a4.407,4.407,0,0,0-2.1-.579,6.26,6.26,0,0,0-3.764,1.234,8.108,8.108,0,0,0-3.035,3.921,6.706,6.706,0,0,0,.191,4.917c.191.417.5.851.95.909a1.477,1.477,0,0,0,.973-.359,28.376,28.376,0,0,0,5.791-5.716,24.589,24.589,0,0,0,7.389,6.561,4.853,4.853,0,0,1,1.992,1.616,4.425,4.425,0,0,1,.3,2.519q-.475,6.139-.961,12.283a12.341,12.341,0,0,0,4.372.73,1.425,1.425,0,0,0,.938-.243c.614-.521.255-1.8,1-2.1a2.762,2.762,0,0,0,4.228,2.415c-.162-.376-.324-.759-.481-1.158a2.317,2.317,0,0,0,.382-.73,23.518,23.518,0,0,0,1.384-4.8Z" transform="translate(-307.843 -170.346)" fill="#263238"/>
  <path id="Path_1515" data-name="Path 1515" d="M385.827,184.979a2.317,2.317,0,0,1-.608.318,8.106,8.106,0,0,1-1.789.533,9.063,9.063,0,0,1-10.065-5.542,8.2,8.2,0,0,1-.515-1.8,2.538,2.538,0,0,1-.052-.683,16.215,16.215,0,0,0,.764,2.4,9.15,9.15,0,0,0,9.845,5.409,15.161,15.161,0,0,0,2.421-.637Z" transform="translate(-313.618 -173.487)" fill="#263238"/>
  <path id="Path_1516" data-name="Path 1516" d="M356.037,198.23a5.35,5.35,0,0,1-.515-.822,15.553,15.553,0,0,1-1.129-2.4,6.747,6.747,0,0,1-.284-3.921,4.8,4.8,0,0,1,.429-1.083c.2-.353.434-.672.643-1a3.19,3.19,0,0,0,.458-1.071,5.3,5.3,0,0,0,.069-1.222,24.714,24.714,0,0,1,.133-4.812A11.4,11.4,0,0,1,357,178.135a6.231,6.231,0,0,1,1.674-2.067,3.348,3.348,0,0,1,.625-.371.788.788,0,0,1,.237-.087,4.67,4.67,0,0,0-.788.55,6.444,6.444,0,0,0-1.558,2.073,11.641,11.641,0,0,0-1.095,3.7,26.208,26.208,0,0,0-.1,4.766,5.7,5.7,0,0,1-.075,1.291,3.474,3.474,0,0,1-.5,1.158c-.22.347-.458.66-.637.984a4.506,4.506,0,0,0-.417,1.013,6.77,6.77,0,0,0,.22,3.787,18.069,18.069,0,0,0,1.031,2.409,7.462,7.462,0,0,1,.429.886Z" transform="translate(-305.684 -172.561)" fill="#263238"/>
  <path id="Path_1517" data-name="Path 1517" d="M388.344,200.026a1.475,1.475,0,0,1-.278-.214,3.927,3.927,0,0,1-.637-.77,5.838,5.838,0,0,1-.724-3.567,26.159,26.159,0,0,1,1.442-5.212,10.243,10.243,0,0,0,.5-3.1,5.172,5.172,0,0,0-1.048-3.11,11.327,11.327,0,0,0-2.479-2.316c-.892-.643-1.784-1.251-2.594-1.871a45.813,45.813,0,0,1-4.112-3.538c-1.112-1.071-1.952-2-2.519-2.647-.284-.33-.5-.579-.637-.764a1.841,1.841,0,0,1-.2-.278,1.408,1.408,0,0,1,.249.237l.678.724c.579.625,1.454,1.529,2.577,2.577a50.557,50.557,0,0,0,4.135,3.475c.811.62,1.7,1.21,2.6,1.859a11.583,11.583,0,0,1,2.548,2.351,5.45,5.45,0,0,1,1.1,3.284,10.287,10.287,0,0,1-.533,3.185,27.905,27.905,0,0,0-1.494,5.166,5.791,5.791,0,0,0,.614,3.475,6.136,6.136,0,0,0,.811,1.054Z" transform="translate(-314.572 -171.311)" fill="#455a64"/>
  <path id="Path_1518" data-name="Path 1518" d="M391.625,182.91a2.85,2.85,0,0,1-.614-.214c-.388-.151-.938-.4-1.61-.73a34.2,34.2,0,0,1-9.416-6.851c-.515-.539-.921-.99-1.187-1.315a2.456,2.456,0,0,1-.388-.521c.035-.029.66.649,1.737,1.685a43.908,43.908,0,0,0,4.442,3.735,42.616,42.616,0,0,0,4.917,3.075C390.809,182.476,391.648,182.864,391.625,182.91Z" transform="translate(-315.983 -171.58)" fill="#455a64"/>
  <path id="Path_1519" data-name="Path 1519" d="M360.59,181.024A15.476,15.476,0,0,1,361.864,180a19.8,19.8,0,0,0,2.774-2.757,19.112,19.112,0,0,0,2.16-3.26c.469-.886.712-1.465.753-1.448a5.792,5.792,0,0,1-.579,1.546,15.878,15.878,0,0,1-2.091,3.353,15.636,15.636,0,0,1-2.9,2.733,6.069,6.069,0,0,1-1.4.851Z" transform="translate(-308.483 -171.269)" fill="#455a64"/>
</svg>
