<svg id="freepik--device-1--inject-4" xmlns="http://www.w3.org/2000/svg" width="93.405" height="190.354" viewBox="0 0 93.405 190.354">
  <path id="Path_1411" data-name="Path 1411" d="M123.061,309.574l-64.588-.3a14.067,14.067,0,0,1-14-14.13l.683-161.914A14.072,14.072,0,0,1,59.289,119.22l64.582.3a14.072,14.072,0,0,1,14,14.13l-.683,161.914a14.067,14.067,0,0,1-14.13,14.015Z" transform="translate(-44.47 -119.22)" fill="#455a64"/>
  <path id="Path_1412" data-name="Path 1412" d="M128.221,129.188l-12.526-.058a3.11,3.11,0,0,0-3.052,3.168v2.27a3.1,3.1,0,0,1-3.052,3.162l-24.421-.081a3.1,3.1,0,0,1-3.023-3.191v-2.276a3.1,3.1,0,0,0-2.994-3.22H74.745l-10.957-.052a9.845,9.845,0,0,0-9.9,9.81L53.22,296.759a9.845,9.845,0,0,0,9.81,9.9l64.455.3a9.845,9.845,0,0,0,9.9-9.81l.666-158.039a9.845,9.845,0,0,0-9.828-9.914Z" transform="translate(-48.153 -123.298)" fill="#fafafa"/>
  <path id="Path_1413" data-name="Path 1413" d="M143.57,209.464a17.159,17.159,0,0,1-21.78-9.9c.052.156.1.313.151.463a17.164,17.164,0,1,0,32.3-11.617c-.053-.156-.117-.307-.174-.457A17.165,17.165,0,0,1,143.57,209.464Z" transform="translate(-77.013 -148.148)" fill="#fafafa"/>
  <path id="Path_1417" data-name="Path 1417" d="M136.623,180.26c.052.145-.9.631-2.415,1.262l.226-.475c.3.724.637,1.587.99,2.531l.151.423-.423.151-.683.249c-1.2.434-2.316.811-3.272,1.095l.226-.475a7.355,7.355,0,0,1,.579,2.664c-.133.052-.637-.9-1.268-2.415l-.133-.324.359-.151c.909-.382,2.015-.811,3.22-1.245l.683-.243-.266.579c-.336-.95-.625-1.836-.851-2.589l-.116-.371.342-.1C135.54,180.341,136.588,180.087,136.623,180.26Z" transform="translate(-80.721 -144.888)" fill="#fafafa"/>
  <path id="Path_1418" data-name="Path 1418" d="M146.619,177.465c.087.232-.533.672-1.384.979s-1.6.359-1.691.127.539-.678,1.384-.979S146.532,177.227,146.619,177.465Z" transform="translate(-86.166 -143.674)" fill="#fafafa"/>
  <path id="Path_1419" data-name="Path 1419" d="M139.958,204.429c-.237.087-1.4-2.56-2.606-5.907s-1.992-6.127-1.737-6.214,1.4,2.56,2.606,5.907S140.19,204.348,139.958,204.429Z" transform="translate(-82.812 -149.981)" fill="#fafafa"/>
  <path id="Path_1420" data-name="Path 1420" d="M148.959,195.459c.087.232-.944.822-2.316,1.309s-2.519.689-2.606.458.944-.822,2.316-1.309S148.872,195.221,148.959,195.459Z" transform="translate(-86.374 -151.267)" fill="#fafafa"/>
  <path id="Path_1421" data-name="Path 1421" d="M153.809,208.43c.087.237-.944.822-2.316,1.309s-2.519.695-2.606.457.944-.822,2.316-1.309S153.728,208.2,153.809,208.43Z" transform="translate(-88.415 -156.727)" fill="#fafafa"/>
</svg>
