<svg xmlns="http://www.w3.org/2000/svg" width="68.257" height="28.766" viewBox="0 0 68.257 28.766">
  <g id="logo" transform="translate(-66.047 -27.537)">
    <path id="Path_1809" data-name="Path 1809" d="M271.913,105.276c.261.127,2.057.8,2.4.891a9.61,9.61,0,0,1,1.431.5c2.74,1.241,4.76,3.288,4.792,6.366l-9.077,0c-.2.048-.594,1.658-.667,1.909-.194.661-.448,1.379-.594,2.019l13.9.008c0-6.27.694-13.548-10.9-15.8Z" transform="translate(-180.772 -67.649)" fill="#464698"/>
    <path id="Path_1811" data-name="Path 1811" d="M261.3,159.721V156.3h-1.316v-.695h3.527v.695H262.2v3.417Zm6.339,0-1.781-4.111H264.9l-1.726,4.111h.952l.37-.936h1.784l.384.936Zm-1.646-1.631h-1.218l.6-1.521Zm2.125-2.48H269.9a5.6,5.6,0,0,1,.788.04,1.228,1.228,0,0,1,.464.169,1.093,1.093,0,0,1,.342.343.876.876,0,0,1,.137.48.9.9,0,0,1-.168.528,1.021,1.021,0,0,1-.455.361,1.186,1.186,0,0,1,.623.374.948.948,0,0,1,.217.621,1.15,1.15,0,0,1-.14.547,1.135,1.135,0,0,1-.386.425,1.345,1.345,0,0,1-.6.2q-.223.022-1.082.028h-1.515Zm.9.683v.947h.588c.349,0,.567,0,.651-.014a.612.612,0,0,0,.362-.146.415.415,0,0,0,.131-.32.431.431,0,0,0-.113-.309.531.531,0,0,0-.337-.144c-.089-.01-.345-.014-.766-.014Zm0,1.631v1.1h.832a4.488,4.488,0,0,0,.616-.025.572.572,0,0,0,.326-.164.485.485,0,0,0,.127-.35.5.5,0,0,0-.1-.315.543.543,0,0,0-.281-.189,3.28,3.28,0,0,0-.8-.059Zm7.591,1.8h-.97l-.384-.936H273.47l-.369.936h-.952l1.727-4.111h.951Zm-1.646-1.631-.618-1.521-.6,1.521Zm2.125-2.48h1.637a3.44,3.44,0,0,1,.845.078,1.506,1.506,0,0,1,.669.379,1.763,1.763,0,0,1,.424.666,2.845,2.845,0,0,1,.145.971,2.515,2.515,0,0,1-.137.875,1.791,1.791,0,0,1-.475.726,1.6,1.6,0,0,1-.629.328,2.9,2.9,0,0,1-.793.087h-1.686Zm.9.695v2.722h.667a2.637,2.637,0,0,0,.54-.039.837.837,0,0,0,.361-.172.85.85,0,0,0,.234-.4,2.477,2.477,0,0,0,.091-.753,2.269,2.269,0,0,0-.091-.731.927.927,0,0,0-.254-.4.879.879,0,0,0-.414-.194,4.377,4.377,0,0,0-.734-.039Zm3.585-.695h.9v2.228a4.368,4.368,0,0,0,.033.687.662.662,0,0,0,.271.406,1,1,0,0,0,.588.153.938.938,0,0,0,.57-.145.567.567,0,0,0,.231-.355,4.345,4.345,0,0,0,.039-.7V155.61h.9v2.162a5.1,5.1,0,0,1-.073,1.047,1.125,1.125,0,0,1-.268.517,1.348,1.348,0,0,1-.521.335,2.428,2.428,0,0,1-.853.126,2.621,2.621,0,0,1-.963-.136,1.373,1.373,0,0,1-.519-.354,1.1,1.1,0,0,1-.25-.456,4.592,4.592,0,0,1-.088-1.044Zm4.51,4.111v-4.077h.9v3.382h2.23v.695Z" transform="translate(-173.907 -104.237)" fill="#464698"/>
    <path id="Path_1812" data-name="Path 1812" d="M217.879,99.958c0,1.676.094,3.707-.565,5.148-.628,1.373-1.7,2.111-3.653,2.382-2.5.348-5.506.064-6.792-2.083-1.384-2.311-.817-4.991-.5-7.241l-3.453-.58a16.248,16.248,0,0,0-.252,6.831,8.289,8.289,0,0,0,8.76,7.1c5.114.093,8.278-1.722,9.529-6.4a28.351,28.351,0,0,0,.473-7.163V82.934h-3.549Z" transform="translate(-135.217 -55.397)" fill="#464698"/>
    <path id="Path_1813" data-name="Path 1813" d="M214.386,100.134c0,1.676.094,3.707-.565,5.148-.627,1.373-1.7,2.111-3.653,2.382-2.5.348-5.506.064-6.793-2.083-1.384-2.311-.817-5.345-.5-7.594l-3.453-.58a17.959,17.959,0,0,0-.252,7.184,8.289,8.289,0,0,0,8.76,7.1c5.114.093,8.279-1.722,9.529-6.4a28.351,28.351,0,0,0,.474-7.163v-15.2h-3.55Z" transform="translate(-132.87 -55.397)" fill="#464698"/>
    <path id="Path_1814" data-name="Path 1814" d="M269.279,107.433c.262.127,1.2.269,1.54.361a9.655,9.655,0,0,1,1.431.5c2.74,1.241,4.76,3.288,4.792,6.366l-9.077,0c-.2.048-.594,1.658-.667,1.909-.193.661-.448,1.379-.594,2.019l13.9.009c0-4.125.288-7.193-1.894-10.348a9.788,9.788,0,0,0-3.279-3.016,12.739,12.739,0,0,0-4.775-1.645Z" transform="translate(-178.424 -69.276)" fill="#464698"/>
    <path id="Path_1817" data-name="Path 1817" d="M319.623,88.074h2.461q1.593,0,1.592,1.505v13.048a1.958,1.958,0,0,0,.687,1.623,3.53,3.53,0,0,0,2.208.552h2.28a1.812,1.812,0,0,0,1.357-.435,1.532,1.532,0,0,0,.416-1.1V97.509a1.384,1.384,0,0,1,1.592-1.539h2.461v8.264q0,.368.669.468a15.48,15.48,0,0,0,2.081.1h2.425a3.45,3.45,0,0,0,2.081-.569,1.906,1.906,0,0,0,.778-1.64V97.509a1.368,1.368,0,0,1,1.556-1.539h2.5V103a4.889,4.889,0,0,1-1.683,4.1A8.152,8.152,0,0,1,340,108.416h-2.569a7.144,7.144,0,0,1-1.882-.318,6.647,6.647,0,0,1-2.026-.954,6.033,6.033,0,0,1-1.574.887,5.944,5.944,0,0,1-2.226.385h-3.185a10.3,10.3,0,0,1-3.384-.468,5.134,5.134,0,0,1-2.117-1.338,4.766,4.766,0,0,1-1.1-2.125,11.906,11.906,0,0,1-.308-2.827Z" transform="translate(-213.988 -58.851)" fill="#464698"/>
    <path id="Path_1818" data-name="Path 1818" d="M324.281,88.074h2.461q1.592,0,1.592,1.505v13.048a1.958,1.958,0,0,0,.687,1.623,3.531,3.531,0,0,0,2.208.552h2.28a1.812,1.812,0,0,0,1.357-.435,1.532,1.532,0,0,0,.416-1.1V97.509a1.384,1.384,0,0,1,1.592-1.539h2.461v8.264q0,.368.669.468a15.478,15.478,0,0,0,2.081.1h2.425a3.45,3.45,0,0,0,2.081-.569,1.906,1.906,0,0,0,.778-1.64V97.509a1.368,1.368,0,0,1,1.556-1.539h2.5V103a4.89,4.89,0,0,1-1.683,4.1,8.152,8.152,0,0,1-5.084,1.322h-2.569a7.144,7.144,0,0,1-1.882-.318,6.648,6.648,0,0,1-2.026-.954,6.031,6.031,0,0,1-1.574.887,5.943,5.943,0,0,1-2.226.385h-3.185a10.3,10.3,0,0,1-3.384-.468,5.134,5.134,0,0,1-2.117-1.338,4.766,4.766,0,0,1-1.1-2.125,11.9,11.9,0,0,1-.308-2.827Z" transform="translate(-217.118 -58.851)" fill="#464698"/>
    <circle id="Ellipse_68" data-name="Ellipse 68" cx="2.087" cy="2.087" r="2.087" transform="translate(122.614 28.874)" fill="#464698"/>
    <circle id="Ellipse_70" data-name="Ellipse 70" cx="1.826" cy="1.826" r="1.826" transform="translate(115.309 50.791)" fill="#464698"/>
    <circle id="Ellipse_69" data-name="Ellipse 69" cx="2.087" cy="2.087" r="2.087" transform="translate(128.355 28.874)" fill="#464698"/>
  </g>
</svg>
