<svg xmlns="http://www.w3.org/2000/svg" width="211.458" height="210.853" viewBox="0 0 211.458 210.853">
  <g id="إضافة_معلومات" data-name="إضافة معلومات" transform="translate(-20.281 -38.681)">
    <g id="freepik--background-simple--inject-17" transform="translate(48.048 51.072)">
      <path id="Path_1137" data-name="Path 1137" d="M243.722,88.166l-1.044-1.724c-8.792-14.489-24.694-23.223-41.452-22.164a43.926,43.926,0,0,0-6.416.879,47.718,47.718,0,0,0-34,29.547c-3.23,8.68-4.134,18.676-10.268,25.569-7.985,8.966-21.537,9.229-33.457,8.874s-25.476-.053-33.423,8.947c-4.974,5.664-6.557,13.663-6.154,21.207,1.059,19.992,14.989,37.887,32.7,46.751s38.571,9.681,57.962,5.77c27.162-5.474,52.988-20.507,68.516-43.715S256.142,113.235,243.722,88.166Z" transform="translate(-77.447 -64.192)" fill="#f1f1f9"/>
      <circle id="Ellipse_35" data-name="Ellipse 35" cx="19.337" cy="19.337" r="19.337" transform="translate(7.04 0.859)" fill="#f1f1f9"/>
    </g>
    <g id="freepik--Plants--inject-17" transform="translate(20.281 141.589)">
      <path id="Path_1138" data-name="Path 1138" d="M70.094,395.058a5.911,5.911,0,0,1,.656-4.561,10.385,10.385,0,0,1,3.3-3.342A18.351,18.351,0,0,1,83.1,384.62c-.044,3.4-2.628,6.368-4.032,7.772-2.225,2.254-7.606,4.974-8.971,2.647" transform="translate(-45.798 -319.496)" fill="#464698"/>
      <path id="Path_1139" data-name="Path 1139" d="M90.648,368.328a5.013,5.013,0,0,1-4.687,1.855,6.654,6.654,0,0,1-4.372-2.749,2.786,2.786,0,0,1-.661-2.273,2.137,2.137,0,0,1,1.637-1.433,4.313,4.313,0,0,1,2.254.2c2.492.787,4.765,2.006,5.829,4.4" transform="translate(-51.44 -308.717)" fill="#464698"/>
      <path id="Path_1140" data-name="Path 1140" d="M104.139,366a3.673,3.673,0,0,1-.534.335l-1.486.86a17.661,17.661,0,0,1-5.265,2.157,10.725,10.725,0,0,1-5.634-.282,7.285,7.285,0,0,1-1.554-.748c-.175-.107-.3-.209-.384-.272s-.126-.1-.121-.107a12,12,0,0,0,2.108.971,11.215,11.215,0,0,0,5.542.214,19.027,19.027,0,0,0,5.2-2.089c.636-.335,1.156-.612,1.515-.792A3.4,3.4,0,0,1,104.139,366Z" transform="translate(-55.703 -309.92)" fill="#263238"/>
      <path id="Path_1141" data-name="Path 1141" d="M78.37,382.735a1.229,1.229,0,0,1,.185-.2c.151-.136.335-.316.568-.539.486-.486,1.219-1.137,2.118-1.943,1.807-1.637,4.328-3.886,7.169-6.256s5.46-4.508,7.378-6c.971-.753,1.739-1.355,2.288-1.763l.627-.486a1.494,1.494,0,0,1,.233-.151,1.148,1.148,0,0,1-.2.189l-.6.486-2.244,1.817c-1.889,1.53-4.493,3.658-7.334,6.052s-5.377,4.6-7.2,6.2l-2.186,1.919-.593.51A1.571,1.571,0,0,1,78.37,382.735Z" transform="translate(-50.155 -309.607)" fill="#263238"/>
      <path id="Path_1142" data-name="Path 1142" d="M106.846,377.627a11.745,11.745,0,0,0-2.4,10.458c.243.918.763,1.943,1.7,2.064s1.71-.738,2.161-1.574a10.035,10.035,0,0,0-1.234-11.065" transform="translate(-63.379 -315.84)" fill="#464698"/>
      <path id="Path_1143" data-name="Path 1143" d="M108.246,380.653a2.915,2.915,0,0,1-.175-.568,5.753,5.753,0,0,1-.146-.68c-.039-.267-.112-.568-.136-.908a9.846,9.846,0,0,1-.063-1.117,11.662,11.662,0,0,1,.039-1.282,13.114,13.114,0,0,1,.6-2.88,12.934,12.934,0,0,1,1.282-2.652,10,10,0,0,1,.758-1.035,9.289,9.289,0,0,1,.743-.835,8.526,8.526,0,0,1,.675-.631,4.854,4.854,0,0,1,.539-.432,2.675,2.675,0,0,1,.486-.33c.034.039-.665.52-1.593,1.5a10.038,10.038,0,0,0-.714.84,12.363,12.363,0,0,0-.729,1.035,13.163,13.163,0,0,0-1.239,2.613,13.561,13.561,0,0,0-.607,2.827c-.034.442-.068.865-.058,1.263a9.915,9.915,0,0,0,.039,1.1C108.061,379.827,108.29,380.643,108.246,380.653Z" transform="translate(-65.25 -310.589)" fill="#263238"/>
      <path id="Path_1144" data-name="Path 1144" d="M73.215,297.74c6.266-8.631,4.44-19.992.782-29.513-.612-1.588-1.02-3.347-2.273-4.493s-3.371-1.491-4.576-.316c-1,.971-1.039,2.54-1.311,3.92a9.948,9.948,0,0,1-2.526,4.906,3.852,3.852,0,0,1-3.2,1.457c-1.651-.287-2.477-2.147-3.021-3.75l-3.031-8.986a15.715,15.715,0,0,0-2.127-4.58,5.26,5.26,0,0,0-4.274-2.278,3.187,3.187,0,0,0-3.031,3.3,15.543,15.543,0,0,0,.646,2.006,1.825,1.825,0,0,1-.437,1.943,2.019,2.019,0,0,1-2.011-.131,22.956,22.956,0,0,1-5.829-4.44,31.784,31.784,0,0,0-5.62-4.716,9.091,9.091,0,0,0-6.994-1.263c-2.336.68-4.284,2.914-4.085,5.343s2.3,4.289,4.372,5.62a37.791,37.791,0,0,0,9.894,4.537,3.128,3.128,0,0,1,1.7.908c.719.947.073,2.356-.86,3.07A19.765,19.765,0,0,1,31.821,272a3.834,3.834,0,0,0-2.429,2.914c-.087,1.865,1.87,3.1,3.6,3.759a32.354,32.354,0,0,0,10.856,2.1,10.582,10.582,0,0,1,3.93.486,3.143,3.143,0,0,1,2.118,3.06,3.2,3.2,0,0,1-2.841,2.395,22.707,22.707,0,0,1-3.973-.126c-2.482-.073-5.27,1.064-6.018,3.449a5.312,5.312,0,0,0,1.005,4.663,12.411,12.411,0,0,0,3.794,3.113,32.544,32.544,0,0,0,16.32,4.687c5.707,0,10.6-1.151,15.023-4.755" transform="translate(-20.281 -250.545)" fill="#455a64"/>
      <path id="Path_1145" data-name="Path 1145" d="M75.289,303.415c-1.666-3.7-1.865-3.716-4.974-8.078a151.8,151.8,0,0,0-11.021-13.464l-3.07-3.376c-1.01-1.107-2.011-2.205-3.06-3.22a75.471,75.471,0,0,0-6.344-5.479c-2.1-1.647-4.158-3.128-6.091-4.5s-3.764-2.613-5.479-3.677a59.984,59.984,0,0,0-8.456-4.406c-1.035-.437-1.846-.753-2.4-.971l-.631-.233-.219-.068a1.231,1.231,0,0,0,.209.1l.622.262c.544.223,1.35.559,2.38,1.015a63.288,63.288,0,0,1,8.388,4.483c1.7,1.073,3.517,2.322,5.445,3.7s3.968,2.871,6.062,4.517a76.932,76.932,0,0,1,6.314,5.469c1.039,1.01,2.03,2.1,3.041,3.211l3.07,3.4a155.119,155.119,0,0,1,11.016,13.416c3.113,4.342,3.322,4.333,5.008,8" transform="translate(-21.957 -253.319)" fill="#263238"/>
      <path id="Path_1146" data-name="Path 1146" d="M80.359,276.3a3.729,3.729,0,0,0-.078-.738c-.068-.486-.194-1.151-.355-1.987-.325-1.666-.85-3.959-1.457-6.484s-1.083-4.818-1.379-6.489c-.151-.835-.267-1.511-.34-1.982a3.729,3.729,0,0,0-.151-.724,3.162,3.162,0,0,0,.029.738c.039.486.121,1.161.243,2,.243,1.685.7,4,1.3,6.523s1.122,4.746,1.53,6.465c.175.777.325,1.457.447,1.943a3.584,3.584,0,0,0,.214.733Z" transform="translate(-49.24 -254.327)" fill="#263238"/>
      <path id="Path_1147" data-name="Path 1147" d="M39.29,299a5.063,5.063,0,0,0,.85-.185c.544-.136,1.331-.335,2.312-.554,1.943-.447,4.673-.971,7.7-1.418s5.785-.724,7.772-.869c1-.083,1.812-.126,2.37-.16a4.9,4.9,0,0,0,.87-.078,4.143,4.143,0,0,0-.874-.044c-.563,0-1.379,0-2.38.058-2.011.092-4.784.34-7.82.782a75.9,75.9,0,0,0-7.7,1.515c-.971.243-1.753.486-2.293.651A4.541,4.541,0,0,0,39.29,299Z" transform="translate(-30.057 -273.76)" fill="#263238"/>
      <path id="Path_1148" data-name="Path 1148" d="M119.043,304.858a1.171,1.171,0,0,0,.053-.3c.029-.233.058-.52.1-.865.078-.753.165-1.841.253-3.191.175-2.7.306-6.436.389-10.555s.18-7.859.3-10.555c.063-1.316.117-2.395.155-3.2a6.491,6.491,0,0,1,.034-.869.933.933,0,0,0,0-.306,1.17,1.17,0,0,0-.053.3c0,.233-.053.515-.092.865-.078.748-.165,1.841-.253,3.191-.18,2.7-.306,6.431-.393,10.56s-.18,7.854-.3,10.55c-.063,1.311-.117,2.395-.155,3.2a6.492,6.492,0,0,1-.034.869,1.35,1.35,0,0,0,0,.306Z" transform="translate(-71.069 -263.132)" fill="#263238"/>
      <path id="Path_1149" data-name="Path 1149" d="M56.53,337.072a1.349,1.349,0,0,0,.311,0h.889l3.25-.063c2.749-.053,6.543-.083,10.739-.112s8-.092,10.739-.2c1.375-.053,2.487-.112,3.25-.165l.884-.068a1.259,1.259,0,0,0,.306-.044,1.408,1.408,0,0,0-.311,0H85.7l-3.254.063c-2.744.053-6.543.083-10.735.112s-8,.087-10.739.2c-1.375.053-2.487.107-3.254.165l-.879.063A.971.971,0,0,0,56.53,337.072Z" transform="translate(-38.923 -294.704)" fill="#263238"/>
    </g>
    <g id="freepik--Character--inject-17" transform="translate(64.572 38.681)">
      <path id="Path_1150" data-name="Path 1150" d="M216.257,49.873a2.511,2.511,0,0,0,1.234-4.26,1.75,1.75,0,1,0-1.637-3.094,2.04,2.04,0,0,0-3.152-1.943A2.429,2.429,0,0,0,208.748,42a2.021,2.021,0,0,0-3.789.758,2.674,2.674,0,0,0-2.429.092,2.548,2.548,0,0,0-.627,2.2,12.79,12.79,0,0,0,.272,2.793,6.416,6.416,0,0,0,2.341,3.556,3.769,3.769,0,0,0,4.444.748" transform="translate(-157.973 -39.362)" fill="#263238"/>
      <path id="Path_1151" data-name="Path 1151" d="M221.533,62.664a2.234,2.234,0,1,0-2.856-3.4c-.243.238-.486.549-.816.568s-.583-.228-.855-.408a2.2,2.2,0,0,0-3.4,2.093c-1.122-.486-2.676-.34-3.245.738a2.244,2.244,0,0,0,1.01,2.773,4.857,4.857,0,0,0,3.167.4,12.629,12.629,0,0,0,6.863-3.342" transform="translate(-162.234 -48.908)" fill="#464698"/>
      <path id="Path_1152" data-name="Path 1152" d="M218.212,65.778c-.024.063-.393-.083-.665-.461s-.282-.777-.214-.787.185.311.423.636S218.251,65.73,218.212,65.778Z" transform="translate(-165.893 -51.974)" fill="#fff"/>
      <path id="Path_1153" data-name="Path 1153" d="M226.72,64.062c-.073,0,0-.554-.2-1.19s-.486-1.083-.413-1.132a1.666,1.666,0,0,1,.661,1.069,1.642,1.642,0,0,1-.049,1.253Z" transform="translate(-170.418 -50.54)" fill="#fff"/>
      <path id="Path_1154" data-name="Path 1154" d="M231.32,62.941c-.073,0,.068-.559-.058-1.209s-.437-1.1-.379-1.151A1.943,1.943,0,0,1,231.32,62.941Z" transform="translate(-172.875 -49.943)" fill="#fff"/>
      <path id="Path_1155" data-name="Path 1155" d="M214.275,67.652c0,.029-.175.029-.423-.073a1.885,1.885,0,0,1-1.112-1.647c0-.267.058-.427.087-.423a4.143,4.143,0,0,0,.442,1.263C213.682,67.39,214.323,67.584,214.275,67.652Z" transform="translate(-163.549 -52.478)" fill="#fff"/>
      <path id="Path_1156" data-name="Path 1156" d="M228.538,90.881a3.526,3.526,0,0,0,2.361-4.066,4.24,4.24,0,0,0,.9-6.115,2.987,2.987,0,0,0-1.807-5.251,4.046,4.046,0,0,0-4.435-5.435,3.7,3.7,0,0,0-5.736-3.633,5.329,5.329,0,0,0-7.966-.282,5.006,5.006,0,0,0-6.863,2.1c-1.506-1.4-4.133-.9-5.5.636a7.773,7.773,0,0,0-1.53,5.829,3.4,3.4,0,0,0-.486,5.9,5.852,5.852,0,0,0,1.064,8.073,6.732,6.732,0,0,0,3.308,6.679" transform="translate(-154.934 -51.931)" fill="#263238"/>
      <path id="Path_1157" data-name="Path 1157" d="M211.207,89.248l-.86-2.429,15.193-2.429c4.673-.355,9.569,4.464,9.715,9.146.175,5.2.18,11.56-.549,15.417-1.457,7.772-7.47,8.573-7.47,8.573l-.486,12.235-17.17-.685Z" transform="translate(-161.924 -62.179)" fill="#ffbe9d"/>
      <path id="Path_1158" data-name="Path 1158" d="M254.562,112.762a1.006,1.006,0,0,1-.971.971.971.971,0,0,1-1-.933,1,1,0,0,1,.971-.971A.971.971,0,0,1,254.562,112.762Z" transform="translate(-184.043 -76.299)" fill="#263238"/>
      <path id="Path_1159" data-name="Path 1159" d="M254.692,108.721c-.126.126-.865-.457-1.943-.486s-1.88.486-1.991.35c-.053-.063.078-.291.427-.534a2.783,2.783,0,0,1,1.6-.442,2.628,2.628,0,0,1,1.54.549C254.653,108.424,254.755,108.667,254.692,108.721Z" transform="translate(-183.095 -74.128)" fill="#263238"/>
      <path id="Path_1160" data-name="Path 1160" d="M232.7,111.607a1,1,0,0,1-.971.971.971.971,0,0,1-1-.928,1,1,0,0,1,.971-.971A.971.971,0,0,1,232.7,111.607Z" transform="translate(-172.801 -75.708)" fill="#263238"/>
      <path id="Path_1161" data-name="Path 1161" d="M232.43,108.455c-.126.126-.869-.457-1.943-.486s-1.88.486-1.991.35c-.058-.058.073-.291.427-.529a2.73,2.73,0,0,1,1.6-.442,2.642,2.642,0,0,1,1.545.549C232.387,108.149,232.493,108.4,232.43,108.455Z" transform="translate(-171.645 -73.993)" fill="#263238"/>
      <path id="Path_1162" data-name="Path 1162" d="M244.395,116.826a7.082,7.082,0,0,1,1.758-.262c.272,0,.534-.068.588-.253a1.457,1.457,0,0,0-.16-.821l-.753-2.113a35.833,35.833,0,0,1-1.661-5.528,36.059,36.059,0,0,1,2.1,5.377l.724,2.127a1.588,1.588,0,0,1,.107,1.083.69.69,0,0,1-.486.389,1.874,1.874,0,0,1-.486.049,6.8,6.8,0,0,1-1.734-.049Z" transform="translate(-179.704 -74.252)" fill="#263238"/>
      <path id="Path_1163" data-name="Path 1163" d="M234.758,149.324a20.638,20.638,0,0,1-10.618-3.114s2.472,5.532,10.56,5.056Z" transform="translate(-169.412 -93.98)" fill="#eb996e"/>
      <path id="Path_1164" data-name="Path 1164" d="M230.785,97.447c-.058.306-1.141.34-2.361.695s-2.176.855-2.385.622c-.092-.112.039-.413.4-.758a2.516,2.516,0,0,1,1.69-.918,4.07,4.07,0,0,1,1.943-.083C230.542,97.117,230.81,97.306,230.785,97.447Z" transform="translate(-170.374 -68.634)" fill="#263238"/>
      <path id="Path_1165" data-name="Path 1165" d="M254.968,101.587c-.209.228-.928-.083-1.817-.16s-1.651.034-1.807-.233c-.063-.131.073-.364.418-.568a2.482,2.482,0,0,1,1.511-.287,2.545,2.545,0,0,1,1.409.6C254.977,101.218,255.055,101.475,254.968,101.587Z" transform="translate(-183.394 -70.38)" fill="#263238"/>
      <path id="Path_1166" data-name="Path 1166" d="M228.93,79.14a3.784,3.784,0,0,0,.913,1.685,1.316,1.316,0,0,0,1.749.1,1.734,1.734,0,0,0,2.686-.185,2.366,2.366,0,0,0,2.851.282l2.322.486c.84.185,1.889.3,2.4-.393.121-.155.209-.359.389-.442a1.136,1.136,0,0,1,.6,0,2.006,2.006,0,0,0,1.744-.821,5.912,5.912,0,0,0,.865-1.807c.34-.971.607-2.234-.189-2.914a2.565,2.565,0,0,0-1.117-.442,5.907,5.907,0,0,0-2.429-.185,4.318,4.318,0,0,0-2.429,1.753,1.088,1.088,0,0,0-.665-1.345,2.142,2.142,0,0,0-1.627.146,4.264,4.264,0,0,0-1.831,1.6,3.512,3.512,0,0,0-3.143,1.944,2.574,2.574,0,0,0-2-.36.908.908,0,0,0-.6.379.408.408,0,0,0,.2.593" transform="translate(-171.875 -57.078)" fill="#263238"/>
      <path id="Path_1167" data-name="Path 1167" d="M244.221,82.8a2.574,2.574,0,0,0,3.939,3,2.37,2.37,0,0,0,2.662,1.53,3.711,3.711,0,0,0,1.9,3.274,2.914,2.914,0,0,0-.053,2.127,1.763,1.763,0,0,0,.879,1.039,2.016,2.016,0,0,0,1.6-.112A2.885,2.885,0,0,0,256.8,92.07a1.656,1.656,0,0,0-.738-2.016,6.222,6.222,0,0,0,1.564-2.229,1.987,1.987,0,0,0,.126-1.52.874.874,0,0,0-1.277-.427,2.293,2.293,0,0,0-2.429-3.342,1.9,1.9,0,0,0-3.157-1.4" transform="translate(-179.647 -60.27)" fill="#263238"/>
      <path id="Path_1168" data-name="Path 1168" d="M210.161,80.747a1.933,1.933,0,0,0-1.768-1.875,4.8,4.8,0,0,0-2.72.656,3.332,3.332,0,0,0-3.692-.942c-1.258.486-2.064,1.7-3.1,2.574a6.8,6.8,0,0,0-1.569,1.457,1.408,1.408,0,0,0,.248,1.914,2.429,2.429,0,0,0-.695,4.206c.219.17.486.321.573.583a1.1,1.1,0,0,1-.068.68,24.443,24.443,0,0,0-1.166,3.1,2.847,2.847,0,0,0,.937,2.987c.243.16.544.287.656.559a.894.894,0,0,1,0,.563,10.584,10.584,0,0,1-.787,1.724,2.637,2.637,0,0,0-.291,1.826,1.2,1.2,0,0,0,1.457.869,3.9,3.9,0,0,0,.389,3.614c.772,1,3.337,1.457,4.857.525l.141-3.57c-.2-.627.772-3.973.369-4.653,0,0-1.073,2.322,1.341,1.943.782.214,2.288-2.089,2.395-2.914a2.166,2.166,0,0,0-1.1-2.025,3.658,3.658,0,0,0,.942-4.595,1.943,1.943,0,0,0,.384-3.779,4.017,4.017,0,0,0,2.574-5.4" transform="translate(-154.903 -59.094)" fill="#263238"/>
      <path id="Path_1169" data-name="Path 1169" d="M200.555,84.309a1.062,1.062,0,0,0-.267.267,2.084,2.084,0,0,0,.194,2.613,2.22,2.22,0,0,0,2.123.583l-.194-.194a1.569,1.569,0,1,0,3.07.641h-.364a1.574,1.574,0,0,0,.971,1.141,1.535,1.535,0,0,0,1,.053,1.409,1.409,0,0,0,.782-.593,1.6,1.6,0,0,0,0-1.773l-.228.257a3.949,3.949,0,0,0,3.128.267,3.789,3.789,0,0,0,2.5-3.065,1.4,1.4,0,0,0,0-.578,4.814,4.814,0,0,1-.743,1.977,3.6,3.6,0,0,1-1.855,1.375,3.711,3.711,0,0,1-2.866-.287l-.7-.393.486.651a1.253,1.253,0,0,1,0,1.365,1.059,1.059,0,0,1-1.326.4,1.214,1.214,0,0,1-.758-.86l-.2-1.1-.165,1.107a1.282,1.282,0,0,1-1.559.971,1.307,1.307,0,0,1-.845-1.5l.073-.272-.267.078a1.943,1.943,0,0,1-1.855-.457,1.855,1.855,0,0,1-.559-1.4A2.511,2.511,0,0,1,200.555,84.309Z" transform="translate(-156.954 -61.951)" fill="#455a64"/>
      <path id="Path_1170" data-name="Path 1170" d="M245.932,75.869a1.025,1.025,0,0,1,.083.452.544.544,0,0,1-.253.418.573.573,0,0,1-.622,0l-.316-.219.155.355a1.545,1.545,0,0,1-.379,1.661,1.457,1.457,0,0,1-2.016-.107l-.185-.2-.107.248a2.71,2.71,0,0,1-4.5.733l-.112-.131-.136.112a4.609,4.609,0,0,1-2.239,1.025,4.955,4.955,0,0,1-1.943-.044,7.956,7.956,0,0,1-1.661-.651,2.1,2.1,0,0,0,.369.311,4.294,4.294,0,0,0,1.234.554,5.022,5.022,0,0,0,2.069.131,4.886,4.886,0,0,0,2.429-1.054h-.243a3.036,3.036,0,0,0,5.086-.826l-.291.049a1.729,1.729,0,0,0,2.856-1.88l-.16.136a.763.763,0,0,0,.84-.039.7.7,0,0,0,.277-.559C246.141,75.976,245.932,75.854,245.932,75.869Z" transform="translate(-173.3 -57.805)" fill="#455a64"/>
      <path id="Path_1171" data-name="Path 1171" d="M232.147,66c0,.029.165-.068.452-.083a1.4,1.4,0,0,1,1.069.432A1.836,1.836,0,0,1,234.031,68a4.454,4.454,0,0,1-1.127,1.9l.267.257h0c.185-.189.617,0,.733.233a1.248,1.248,0,0,1-.024.971,4.372,4.372,0,0,1-.971,1.535,9.126,9.126,0,0,1-1.379,1.039,1.38,1.38,0,0,0,.486-.131,4.017,4.017,0,0,0,1.1-.719,4.372,4.372,0,0,0,1.117-1.608,1.545,1.545,0,0,0,.029-1.234.971.971,0,0,0-.559-.481.753.753,0,0,0-.763.126h0l.267.257a4.546,4.546,0,0,0,1.185-2.084,2.069,2.069,0,0,0-.515-1.9,1.5,1.5,0,0,0-1.273-.384C232.244,65.841,232.137,65.987,232.147,66Z" transform="translate(-173.212 -52.605)" fill="#455a64"/>
      <path id="Path_1172" data-name="Path 1172" d="M206.619,71.519a4.921,4.921,0,0,1,1.37-.33,2.832,2.832,0,0,1,1.486.355A2.866,2.866,0,0,1,210.724,73l.121.316.189-.282a1.627,1.627,0,0,1,2.958.879v.219l.214-.049a2.23,2.23,0,0,1,1.812.427,2.132,2.132,0,0,1,.777,1.282,3.351,3.351,0,0,1-.087,1.394,1.044,1.044,0,0,0,.194-.34,2.234,2.234,0,0,0,.112-1.093,2.336,2.336,0,0,0-.806-1.457,2.516,2.516,0,0,0-2.079-.534l.214.17a1.967,1.967,0,0,0-3.6-1.073l.311.039a3.075,3.075,0,0,0-1.457-1.574,2.914,2.914,0,0,0-1.642-.311,2.773,2.773,0,0,0-1.044.316C206.712,71.407,206.61,71.485,206.619,71.519Z" transform="translate(-160.401 -55.301)" fill="#455a64"/>
      <path id="Path_1173" data-name="Path 1173" d="M206.748,44.937a2.05,2.05,0,0,1,.714-.578,1.336,1.336,0,0,1,1.015-.034,1.379,1.379,0,0,1,.85.971l.16.729.121-.738a1.982,1.982,0,0,1,1.457-1.54A1.943,1.943,0,0,1,213.2,44.82l.073.165.17-.073a1.7,1.7,0,0,1,.709-.136A1.88,1.88,0,0,1,216,46.151a2,2,0,0,1-.661,2l-.447.335.554-.053a1.525,1.525,0,0,1,1.413.724,1.428,1.428,0,0,1,.1,1.258,2.026,2.026,0,0,1-.743.9.624.624,0,0,0,.306-.121,1.632,1.632,0,0,0,.6-.724,1.6,1.6,0,0,0-.049-1.457,1.768,1.768,0,0,0-1.661-.9l.112.282a2.317,2.317,0,0,0,.816-2.331,2.239,2.239,0,0,0-2.186-1.656,2.181,2.181,0,0,0-.855.17l.243.1a2.215,2.215,0,0,0-4.216.573h.287a1.617,1.617,0,0,0-1.054-1.122,1.506,1.506,0,0,0-1.161.1,1.457,1.457,0,0,0-.544.486C206.757,44.845,206.738,44.932,206.748,44.937Z" transform="translate(-160.466 -41.081)" fill="#455a64"/>
      <path id="Path_1174" data-name="Path 1174" d="M184.35,51.606a1.943,1.943,0,0,1,1.122-.33,1.428,1.428,0,0,1,1.137.607,1.535,1.535,0,0,1,.049,1.608l-.631,1.015.86-.835a1.457,1.457,0,0,1,1.787-.107,1.418,1.418,0,0,1,.243,1.943l.306.194a1.526,1.526,0,1,1,2.754,1.316l.282-.058a.607.607,0,0,1,0-.792.8.8,0,0,1,.806-.223,1.676,1.676,0,0,1,1.093,1.311l.282-.1a.743.743,0,0,1,.18-.792.894.894,0,0,1,.724-.291,1.753,1.753,0,0,1,1.2.636c.486.617.685,1.064.729,1.035a1.025,1.025,0,0,0-.117-.316,3.978,3.978,0,0,0-.486-.826,1.894,1.894,0,0,0-1.321-.753,1.175,1.175,0,0,0-.937.35,1.025,1.025,0,0,0-.253,1.1l.277-.1a2.667,2.667,0,0,0-.4-.918,1.554,1.554,0,0,0-.9-.641,1.117,1.117,0,0,0-1.156.335.971.971,0,0,0,.034,1.277l.18.17.107-.228a1.889,1.889,0,0,0-3.4-1.632l.306.194a1.7,1.7,0,0,0-2.526-2.263l.228.18a1.763,1.763,0,0,0-.117-1.914,1.661,1.661,0,0,0-2.21-.369C184.408,51.5,184.345,51.6,184.35,51.606Z" transform="translate(-148.948 -45.078)" fill="#263238"/>
      <path id="Path_1175" data-name="Path 1175" d="M268.881,119.081a.82.82,0,0,1-.3-.083,1.034,1.034,0,0,1-.554-.6,1.311,1.311,0,0,1,.131-1.243,4.265,4.265,0,0,1,1.307-1.171l-.18-.253a2.23,2.23,0,0,1-2.351.058,2.025,2.025,0,0,1-.855-2.429,2.2,2.2,0,0,1,.486-.821,1.2,1.2,0,0,1,.714-.423c.209,0,.364.272.35.52a.607.607,0,0,1-.427.539,1.9,1.9,0,0,1-1.52-.2,2.691,2.691,0,0,1-1.039-.971,2.773,2.773,0,0,1-.34-2.011c.1-.486.262-.738.228-.753a1.525,1.525,0,0,0-.369.714,2.812,2.812,0,0,0,.257,2.186,2.914,2.914,0,0,0,1.112,1.093,2.2,2.2,0,0,0,1.8.248,1.1,1.1,0,0,0,.442-.306.865.865,0,0,0,.214-.539.972.972,0,0,0-.141-.563.69.69,0,0,0-.544-.335,1.03,1.03,0,0,0-.573.18,2.3,2.3,0,0,0-.427.355,2.574,2.574,0,0,0-.563.971,2.613,2.613,0,0,0,0,1.647,2.215,2.215,0,0,0,1.02,1.2,2.535,2.535,0,0,0,2.71-.117l-.18-.248a4.255,4.255,0,0,0-1.345,1.3,1.5,1.5,0,0,0-.078,1.457,1.093,1.093,0,0,0,.685.622A.49.49,0,0,0,268.881,119.081Z" transform="translate(-189.935 -74.968)" fill="#263238"/>
      <path id="Path_1176" data-name="Path 1176" d="M228.871,47.467a1.2,1.2,0,0,0,.223.17,4.132,4.132,0,0,0,.7.359,1.943,1.943,0,0,0,1.273.112,1.54,1.54,0,0,0,.7-.442,1.064,1.064,0,0,0,.267-.913l-.189.16a1.326,1.326,0,1,0,.971-2.468l-.073.34a1.457,1.457,0,0,0,1.491-1.248,1.627,1.627,0,0,0-1.107-1.744,1.9,1.9,0,0,0-.918-.112l.1.35a1.753,1.753,0,1,0-2.127-2.652h.243a1.991,1.991,0,0,0-1.991-.641,1.87,1.87,0,0,0-1.35,2.074.675.675,0,0,0,.117.34,2.249,2.249,0,0,1,.18-1.287,1.617,1.617,0,0,1,1.107-.884,1.744,1.744,0,0,1,1.7.588l.121.155.121-.16a1.52,1.52,0,0,1,2.137-.136,1.457,1.457,0,0,1-.413,2.268l-1.059.486,1.161-.141a1.457,1.457,0,0,1,.733.092,1.248,1.248,0,0,1,.879,1.326,1.132,1.132,0,0,1-1.1.971l-1.5-.151,1.428.486a1.044,1.044,0,0,1,.573,1.394,1.078,1.078,0,0,1-1.3.486l-.253-.107.058.262a1.039,1.039,0,0,1-.763,1.088,1.894,1.894,0,0,1-1.151-.049C229.221,47.632,228.886,47.433,228.871,47.467Z" transform="translate(-170.918 -38.681)" fill="#263238"/>
      <path id="Path_1177" data-name="Path 1177" d="M209.093,113.919c-.107-.058-4.372-1.8-4.712,2.72s4.294,3.915,4.308,3.784S209.093,113.919,209.093,113.919Z" transform="translate(-159.241 -77.179)" fill="#ffbe9d"/>
      <path id="Path_1178" data-name="Path 1178" d="M208.651,120.142a1.7,1.7,0,0,1-.219.1.821.821,0,0,1-.593-.029,1.882,1.882,0,0,1-.777-1.817,2.637,2.637,0,0,1,.3-1.112.923.923,0,0,1,.636-.563.408.408,0,0,1,.452.248c.049.131,0,.219.039.228s.1-.068.078-.257a.486.486,0,0,0-.155-.3.627.627,0,0,0-.427-.146,1.112,1.112,0,0,0-.874.646,2.681,2.681,0,0,0-.359,1.243,2.047,2.047,0,0,0,1.01,2.035.85.85,0,0,0,.729-.073C208.637,120.24,208.666,120.142,208.651,120.142Z" transform="translate(-160.466 -78.701)" fill="#eb996e"/>
      <path id="Path_1179" data-name="Path 1179" d="M238.055,128.941a1.569,1.569,0,0,1,2.511.486,1.5,1.5,0,0,1,0,1.2,1.418,1.418,0,0,1-1.409.787,1.394,1.394,0,0,1-1.175-1.1c-.107-.568-.287-1.239.219-1.511" transform="translate(-176.469 -84.876)" fill="#eb996e"/>
      <path id="Path_1180" data-name="Path 1180" d="M237.978,127c.17,0,.248,1.117,1.277,1.865s2.234.539,2.259.695c0,.073-.257.243-.772.287a2.807,2.807,0,0,1-1.875-.515,2.463,2.463,0,0,1-1-1.569C237.794,127.3,237.92,127,237.978,127Z" transform="translate(-176.46 -84.101)" fill="#263238"/>
      <path id="Path_1181" data-name="Path 1181" d="M200.115,156.52,203.2,156l17.355,1.54,6.193,2.943,1.647.971s-6.455,8.986-13.071,8.5-18.04-9.919-18.04-9.919l-.053-3.084Z" transform="translate(-155.573 -99.015)" fill="#ffbe9d"/>
      <path id="Path_1182" data-name="Path 1182" d="M226.1,171.764l-14.188-8.2c-1.758-.583-9.953-3.366-9.953-3.366s-6.363,10.1-11.628,9.452c-2.846-.35-6.314-2.812-8.874-4.993a26.389,26.389,0,0,1-5.566-6.577l-.573-.971c-2.492,0-10.244,1.87-12.983,2.555a3.434,3.434,0,0,0-1.7,1c-1.52,1.627-4.459,4.726-5.081,7.772-.6,2.914-3.031,12.294-3.031,12.294l69.843-2.137Z" transform="translate(-132.579 -99.586)" fill="#464698"/>
      <path id="Path_1183" data-name="Path 1183" d="M322.481,187.77c-1.064.486-9.865,3.483-10.258,3.93s-12.464-3.818-12.464-3.818l-3.449,6.533,31.135-.675Z" transform="translate(-206.527 -115.354)" fill="#ffbe9d"/>
      <path id="Path_1184" data-name="Path 1184" d="M179.508,175.4c-.044,0-.189-.559-.617-1.394a11.41,11.41,0,0,0-2.205-2.914,26.229,26.229,0,0,0-2.846-2.322,9.649,9.649,0,0,1-1.209-.937,8.65,8.65,0,0,1,1.311.787,19.823,19.823,0,0,1,2.914,2.293,10.2,10.2,0,0,1,2.191,3,6.227,6.227,0,0,1,.384,1.059,1.244,1.244,0,0,1,.078.427Z" transform="translate(-142.921 -105.099)" fill="#263238"/>
      <path id="Path_1185" data-name="Path 1185" d="M273,185.7a7.588,7.588,0,0,1-.087-1.457c0-.9,0-2.137.058-3.507s.175-2.6.272-3.492a7.652,7.652,0,0,1,.228-1.457,9.639,9.639,0,0,1-.049,1.457c-.053.971-.121,2.171-.194,3.492s-.1,2.521-.136,3.492A8.411,8.411,0,0,1,273,185.7Z" transform="translate(-194.493 -109.193)" fill="#263238"/>
      <path id="Path_1186" data-name="Path 1186" d="M189.981,164.3a.992.992,0,0,1-.1.141,2.472,2.472,0,0,1-.359.355,4.007,4.007,0,0,1-1.642.831,4.43,4.43,0,0,1-2.725-.175,4.2,4.2,0,0,1-1.36-.908c-.413-.389-.782-.831-1.209-1.219a4.372,4.372,0,0,0-2.914-1.175,4.24,4.24,0,0,0-2.492.753,4.624,4.624,0,0,0-1.258,1.273c-.233.355-.325.578-.35.568a.588.588,0,0,1,.049-.17,3.935,3.935,0,0,1,.219-.452,4.425,4.425,0,0,1,3.832-2.205,4.556,4.556,0,0,1,3.1,1.224c.442.4.811.85,1.209,1.224a4.134,4.134,0,0,0,1.277.874,4.372,4.372,0,0,0,4.221-.52C189.807,164.475,189.957,164.281,189.981,164.3Z" transform="translate(-144.433 -102.06)" fill="#fff"/>
      <path id="Path_1187" data-name="Path 1187" d="M228.042,179.077a8.648,8.648,0,0,0-.486-.719,6.1,6.1,0,0,0-1.909-1.588,5.9,5.9,0,0,0-3.823-.641,6.081,6.081,0,0,0-4.1,2.944,5.124,5.124,0,0,0-.7,2.89,3.079,3.079,0,0,0,.486,1.457,2.468,2.468,0,0,0,1.287.942,1.807,1.807,0,0,0,1.583-.248,2.4,2.4,0,0,0,.947-1.4,2.618,2.618,0,0,0-.223-1.739,3.672,3.672,0,0,0-1.185-1.4,5.241,5.241,0,0,0-3.706-.826,8.418,8.418,0,0,0-3.755,1.506c-2.322,1.559-4.153,3.93-6.732,5.523a8.743,8.743,0,0,1-4.231,1.345,8.976,8.976,0,0,1-4.236-.811,7.2,7.2,0,0,1-3.157-2.7,4.92,4.92,0,0,1-.6-3.91,3.769,3.769,0,0,1,2.521-2.739,3.565,3.565,0,0,1,3.4.845,2.735,2.735,0,0,1,.748,1.564,3.186,3.186,0,0,1-.267,1.642,4.269,4.269,0,0,1-2.186,2.161,5.2,5.2,0,0,1-2.788.277,8.533,8.533,0,0,1-2.375-.782,21.819,21.819,0,0,1-3.337-2.2c-.874-.661-1.564-1.151-2.055-1.457-.243-.151-.427-.267-.559-.34a1.842,1.842,0,0,1-.189-.117s.073.029.2.1.325.17.573.316c.486.3,1.2.772,2.084,1.418a21.575,21.575,0,0,0,3.337,2.147,8.432,8.432,0,0,0,2.341.753,5.042,5.042,0,0,0,2.7-.282,4.09,4.09,0,0,0,2.074-2.074,3.031,3.031,0,0,0,.248-1.54,2.5,2.5,0,0,0-.7-1.457,3.332,3.332,0,0,0-3.2-.782,3.551,3.551,0,0,0-2.361,2.584,4.716,4.716,0,0,0,.578,3.726,7.023,7.023,0,0,0,3.055,2.6,8.816,8.816,0,0,0,4.124.787,8.544,8.544,0,0,0,4.1-1.311c2.531-1.559,4.372-3.925,6.727-5.513a8.68,8.68,0,0,1,3.886-1.545,5.494,5.494,0,0,1,3.886.879,3.939,3.939,0,0,1,1.258,1.5,2.914,2.914,0,0,1,.228,1.889,2.6,2.6,0,0,1-1.039,1.53,2.04,2.04,0,0,1-1.763.272,2.715,2.715,0,0,1-1.394-1.03,3.269,3.269,0,0,1-.539-1.579,5.275,5.275,0,0,1,.738-2.992,6.237,6.237,0,0,1,4.231-3,5.955,5.955,0,0,1,3.886.695,6.023,6.023,0,0,1,1.909,1.647,4.119,4.119,0,0,1,.452.787Z" transform="translate(-150.013 -109.234)" fill="#fff"/>
      <path id="Path_1188" data-name="Path 1188" d="M282.868,180.719a1.4,1.4,0,0,1-.155.4,5.589,5.589,0,0,1-.627,1,6.241,6.241,0,0,1-1.253,1.209,8.354,8.354,0,0,1-1.87,1.025,7.68,7.68,0,0,1-3.818.461,6.869,6.869,0,0,1-1.141-.262,1.151,1.151,0,0,1-.393-.17c0-.044.588.16,1.554.253a8.048,8.048,0,0,0,3.706-.52A7.689,7.689,0,0,0,281.95,182C282.572,181.258,282.824,180.695,282.868,180.719Z" transform="translate(-194.853 -111.727)" fill="#fff"/>
      <path id="Path_1189" data-name="Path 1189" d="M292.064,186.608a2.563,2.563,0,0,0-.452-.155,2.487,2.487,0,0,0-1.263.029,5.222,5.222,0,0,0-1.671.913c-.588.437-1.214.942-1.846,1.5A28.178,28.178,0,0,0,283.826,192c-.714.85-1.112,1.409-1.146,1.389a1.943,1.943,0,0,1,.238-.427c.17-.257.427-.631.767-1.073a22.93,22.93,0,0,1,2.978-3.186,22.548,22.548,0,0,1,1.88-1.5,5.018,5.018,0,0,1,1.763-.9,2.361,2.361,0,0,1,1.336.049A.9.9,0,0,1,292.064,186.608Z" transform="translate(-199.517 -114.566)" fill="#fff"/>
      <path id="Path_1190" data-name="Path 1190" d="M256.251,167.43a1.981,1.981,0,0,1-.69.525,5.717,5.717,0,0,1-4.07.583,2,2,0,0,1-.811-.311,9.53,9.53,0,0,0,2.866.151A9.422,9.422,0,0,0,256.251,167.43Z" transform="translate(-183.061 -104.893)" fill="#fff"/>
      <path id="Path_1191" data-name="Path 1191" d="M167.255,191.209a19.163,19.163,0,0,0-.087-2.142,9.6,9.6,0,0,0-1.943-4.687,10.23,10.23,0,0,0-2.03-1.943,8.582,8.582,0,0,0-2.04-1.073,16.245,16.245,0,0,0-2.074-.525,2.1,2.1,0,0,1,.578,0,7.227,7.227,0,0,1,1.554.335,8.223,8.223,0,0,1,2.113,1.054,9.821,9.821,0,0,1,2.1,1.991,9.307,9.307,0,0,1,1.943,4.823,8.174,8.174,0,0,1,0,1.588A2.321,2.321,0,0,1,167.255,191.209Z" transform="translate(-135.953 -111.779)" fill="#fff"/>
      <g id="Group_28" data-name="Group 28" transform="translate(20.028 75.501)" opacity="0.3">
        <path id="Path_1192" data-name="Path 1192" d="M168.918,195.6a2.623,2.623,0,0,0-2.7-.282c-.364.175-.685.437-1.059.6a1.132,1.132,0,0,1-1.156-.068c-.272-.228-.35-.617-.559-.9a1.814,1.814,0,0,0-1.817-.486,8.258,8.258,0,0,1-1.943.316,10.462,10.462,0,0,1-1.88-.539,3.886,3.886,0,0,0-3.934,1.287L152.7,199l17.146-.865A2.623,2.623,0,0,0,168.918,195.6Z" transform="translate(-152.7 -194.12)"/>
      </g>
      <path id="Path_1193" data-name="Path 1193" d="M190.461,198.49a11.128,11.128,0,0,0-.665-1.064A4.464,4.464,0,0,0,184.452,196c-.714.3-1.078.631-1.107.593s.073-.1.238-.248a3.992,3.992,0,0,1,.8-.51,4.372,4.372,0,0,1,5.571,1.481,3.783,3.783,0,0,1,.437.835A.859.859,0,0,1,190.461,198.49Z" transform="translate(-148.429 -119.269)" fill="#fff"/>
      <g id="Group_29" data-name="Group 29" transform="translate(69.456 72.761)" opacity="0.3">
        <path id="Path_1194" data-name="Path 1194" d="M267.686,193.182a7.227,7.227,0,0,1-3.167-1.5,2.956,2.956,0,0,1-.874-3.2,10.147,10.147,0,0,1-9.185,6.081l16.573-.272A14.2,14.2,0,0,0,267.686,193.182Z" transform="translate(-254.46 -188.48)"/>
      </g>
      <path id="Path_1195" data-name="Path 1195" d="M231.125,108.008a11.038,11.038,0,0,0-.228-1.214,5.008,5.008,0,0,0-1.88-2.681,4.935,4.935,0,0,0-4.678-.607,4.916,4.916,0,0,0-2.152,7.553,4.6,4.6,0,0,0,1.054,1.03,4.745,4.745,0,0,0,1.253.651,4.979,4.979,0,0,0,6.446-3.512,11.976,11.976,0,0,0,.185-1.219,3.992,3.992,0,0,1-.087,1.239,5.09,5.09,0,0,1-6.635,3.711,5.139,5.139,0,0,1,2.535-9.928,5.081,5.081,0,0,1,4.041,3.74A3.968,3.968,0,0,1,231.125,108.008Z" transform="translate(-167.755 -71.734)" fill="#455a64"/>
      <path id="Path_1196" data-name="Path 1196" d="M257.125,107.583a11.549,11.549,0,0,0-.228-1.214,4.984,4.984,0,0,0-1.885-2.676,4.891,4.891,0,0,0-2.094-.879,4.969,4.969,0,0,0-2.579.267,4.643,4.643,0,0,0-1.234.695,4.507,4.507,0,0,0-1.015,1.064,4.857,4.857,0,0,0,.1,5.8,4.581,4.581,0,0,0,1.054,1.025,4.41,4.41,0,0,0,1.253.651,4.925,4.925,0,0,0,4.653-.767,5.023,5.023,0,0,0,1.792-2.744,11.555,11.555,0,0,0,.185-1.219,3.959,3.959,0,0,1-.092,1.243,4.979,4.979,0,0,1-1.773,2.861,5.086,5.086,0,0,1-4.857.85,5.169,5.169,0,0,1-2.429-1.749,5.115,5.115,0,0,1-.087-6.076,4.856,4.856,0,0,1,1.073-1.112,4.993,4.993,0,0,1,1.292-.719,5.168,5.168,0,0,1,2.7-.253,5.085,5.085,0,0,1,4.041,3.735,3.974,3.974,0,0,1,.131,1.219Z" transform="translate(-181.132 -71.528)" fill="#455a64"/>
      <path id="Path_1197" data-name="Path 1197" d="M217.374,111.65a6.232,6.232,0,0,1-1.831.8,6.412,6.412,0,0,1-1.943.418,10.735,10.735,0,0,1,1.87-.661,11.42,11.42,0,0,1,1.9-.554Z" transform="translate(-163.991 -76.207)" fill="#455a64"/>
      <path id="Path_1198" data-name="Path 1198" d="M244.8,110.016a9.146,9.146,0,0,0-1.666-.078,8.781,8.781,0,0,0-1.6.486,2.312,2.312,0,0,1,1.569-.724A2.283,2.283,0,0,1,244.8,110.016Z" transform="translate(-178.36 -75.18)" fill="#455a64"/>
      <path id="Path_1199" data-name="Path 1199" d="M225.21,116.45a1.69,1.69,0,0,1-.8-.3,3.886,3.886,0,0,1-1.943-3.468,1.647,1.647,0,0,1,.16-.835,4.742,4.742,0,0,1,0,.835A4.25,4.25,0,0,0,224.5,116C224.923,116.294,225.224,116.411,225.21,116.45Z" transform="translate(-168.548 -76.31)" fill="#fff"/>
      <path id="Path_1200" data-name="Path 1200" d="M251.077,115.972a1.579,1.579,0,0,1-.748-.291,3.8,3.8,0,0,1-1.36-1.389,3.886,3.886,0,0,1-.486-1.88,1.579,1.579,0,0,1,.136-.792,6.207,6.207,0,0,1,.044.782,4.372,4.372,0,0,0,.539,1.763,4.3,4.3,0,0,0,1.234,1.365,6.455,6.455,0,0,1,.641.442Z" transform="translate(-181.928 -76.192)" fill="#fff"/>
      <path id="Path_1201" data-name="Path 1201" d="M111.609,202.947s-1.292,78.1,9.486,130.631l134.415-.418L220.324,202.32Z" transform="translate(-111.515 -122.836)" fill="#e0e0e0"/>
      <path id="Path_1202" data-name="Path 1202" d="M111.593,202.839l108.715-.729h.078l.024.073c10.021,37.255,22.12,82.209,35.205,130.835l.044.16h-.165l-10.686.034-123.729.369h-.092v-.087q-.68-3.624-1.336-7.164c-.209-1.185-.452-2.356-.636-3.531s-.355-2.341-.534-3.5q-.525-3.492-1.044-6.892-.432-3.4-.85-6.752-.209-1.661-.418-3.308c-.136-1.1-.238-2.191-.355-3.274q-.335-3.259-.665-6.421c-.238-2.108-.384-4.2-.568-6.251s-.35-4.075-.52-6.062c-1.234-15.937-1.807-29.877-2.142-41.36s-.384-20.522-.389-26.686c0-3.084,0-5.445.034-7.038q0-1.195.029-1.807v8.845c0,6.135.107,15.2.447,26.681s.971,25.418,2.2,41.35c.175,1.987.35,4.012.525,6.062s.335,4.138.573,6.246.447,4.25.675,6.416c.117,1.083.219,2.176.355,3.274s.277,2.2.418,3.308q.423,3.337.855,6.747c.35,2.268.695,4.566,1.049,6.888q.272,1.739.539,3.5c.18,1.175.427,2.346.636,3.526l1.336,7.16-.107-.087,123.729-.408,10.686-.029-.121.155c-13.066-48.626-25.151-93.59-35.162-130.84l.1.073Z" transform="translate(-111.499 -122.728)" fill="#263238"/>
      <path id="Path_1203" data-name="Path 1203" d="M111.658,201.579s-.112,10.293,1.632,28.619c1.151,12.143,1.025,28.051,4.24,48.344,6.8,42.875,10.37,49.432,10.37,49.432l131.1-.889L224.109,199.66Z" transform="translate(-111.565 -121.468)" fill="#ebebeb"/>
      <path id="Path_1204" data-name="Path 1204" d="M111.634,201.465l112.45-2.025h.083v.078C234.2,236,246.19,279.789,259.115,326.972l.044.16H259l-7.145.049-123.977.787h-.049l-.029-.058a27.8,27.8,0,0,1-1.2-3.4c-.35-1.132-.656-2.273-.971-3.4s-.583-2.263-.85-3.4-.525-2.249-.777-3.366q-1.511-6.688-2.681-13.115c-1.6-8.583-2.953-16.758-4.153-24.451-.588-3.847-1.054-7.587-1.457-11.211s-.69-7.111-.928-10.472c-.486-6.727-.753-12.915-1.1-18.5-.165-2.793-.389-5.43-.622-7.912s-.418-4.809-.578-6.975c-.325-4.338-.534-8.029-.661-11.026s-.185-5.294-.2-6.844V201.49c0,.112,0,.826.034,2.346s.1,3.852.238,6.844.359,6.688.695,11.021c.165,2.166.359,4.5.593,6.975s.461,5.12.631,7.912c.359,5.586.636,11.774,1.132,18.492q.364,5.042.937,10.472c.384,3.614.855,7.354,1.457,11.2,1.2,7.689,2.56,15.859,4.172,24.437q1.195,6.441,2.686,13.149c.248,1.117.486,2.244.777,3.366s.554,2.259.85,3.4.607,2.263.971,3.4a27.578,27.578,0,0,0,1.19,3.342l-.1-.058,123.972-.835,7.145-.049-.121.16c-12.915-47.208-24.9-91.01-34.87-127.488l.1.078Z" transform="translate(-111.54 -121.355)" fill="#263238"/>
      <path id="Path_1205" data-name="Path 1205" d="M236.067,212.13l-124.2,2.113c-.525,33.685,11.337,86.26,20.031,113.912l130.349-1.365C248.9,291.357,233.551,251.071,236.067,212.13Z" transform="translate(-111.661 -127.881)" fill="#f5f5f5"/>
      <path id="Path_1206" data-name="Path 1206" d="M235.953,212.13c0,.112,0,.758-.063,2.161,0,.714-.053,1.6-.087,2.662s-.121,2.288-.063,3.672c.063,2.773.039,6.2.384,10.2q.1,1.506.209,3.123c.107,1.073.238,2.186.364,3.332s.262,2.327.4,3.541.359,2.463.544,3.74.393,2.6.6,3.944.51,2.715.772,4.124.515,2.851.845,4.308.661,2.953,1,4.478c.175.763.34,1.535.529,2.307l.593,2.341q.607,2.361,1.229,4.814t1.4,4.959c.238.84.486,1.69.724,2.54l.782,2.569c4.153,13.843,9.821,29.144,16.116,45.8l.053.146h-.155l-126.036,1.345-4.323.044h-.1l-.024-.087c-3.143-10.127-5.829-20.221-8.184-30.159s-4.425-19.73-6.164-29.309-3.157-18.943-4.172-28.056a214.412,214.412,0,0,1-1.5-26.433v-.107h.107l124.2-2.006-124.2,2.225.107-.107a214.1,214.1,0,0,0,1.515,26.4c1.015,9.1,2.429,18.458,4.182,28.036s3.794,19.361,6.164,29.294,5.042,20.022,8.18,30.139l-.121-.087,4.328-.044L262.129,326.7l-.1.146c-6.285-16.66-11.939-31.975-16.082-45.828-.262-.865-.52-1.724-.782-2.574s-.486-1.7-.719-2.545l-1.394-4.959q-.617-2.458-1.224-4.818c-.2-.787-.393-1.569-.593-2.341s-.35-1.549-.52-2.312c-.34-1.525-.675-3.016-1-4.483s-.563-2.914-.84-4.313-.534-2.778-.763-4.124l-.6-3.934c-.18-1.282-.408-2.526-.539-3.74s-.262-2.4-.389-3.551-.253-2.259-.355-3.332-.141-2.123-.2-3.123c-.33-4.017-.3-7.441-.355-10.2-.049-1.389.058-2.6.083-3.662s.078-1.943.107-2.657C235.924,212.9,235.949,212.242,235.953,212.13Z" transform="translate(-111.548 -127.881)" fill="#263238"/>
      <path id="Path_1207" data-name="Path 1207" d="M236.164,199.24l-124.54,2.123a291.422,291.422,0,0,0,13.7,92.288l35.944,22.256,104.319-1.778C252.227,278.685,233.648,238.181,236.164,199.24Z" transform="translate(-111.53 -121.252)" fill="#fafafa"/>
      <path id="Path_1208" data-name="Path 1208" d="M236.1,199.24c0,.112-.029.767-.087,2.181-.034.724-.078,1.627-.083,2.691s-.049,2.3,0,3.7a143.042,143.042,0,0,0,2.467,24.092,252.393,252.393,0,0,0,9.919,36.357c2.365,6.892,5.076,14.159,8.014,21.794s6.115,15.626,9.287,24.029l.053.146h-.155l-104.314,1.8h-.068l-15.543-9.637-20.371-12.629-.039-.024v-.044A301.64,301.64,0,0,1,114.3,245.816a287.71,287.71,0,0,1-2.8-44.449v-.107h.107l124.54-2.011-124.535,2.229.107-.107a288.522,288.522,0,0,0,2.778,44.381,301.639,301.639,0,0,0,10.88,47.834l-.053-.068,20.371,12.629,15.543,9.642h-.068l104.314-1.758-.1.146c-3.167-8.4-6.339-16.4-9.268-24.039s-5.639-14.907-8-21.8a251.22,251.22,0,0,1-9.87-36.391,140.029,140.029,0,0,1-2.429-24.116c-.039-1.4,0-2.638.024-3.7s.058-1.943.1-2.681C236.072,200.012,236.1,199.352,236.1,199.24Z" transform="translate(-111.467 -121.252)" fill="#263238"/>
      <path id="Path_1209" data-name="Path 1209" d="M140.07,389.98l31.645-3.4,4.182,25.666Z" transform="translate(-126.177 -217.596)" fill="#e0e0e0"/>
      <path id="Path_1210" data-name="Path 1210" d="M175.789,412.128a.486.486,0,0,1-.029-.126,2.185,2.185,0,0,0-.078-.379l-.262-1.457c-.219-1.3-.534-3.143-.923-5.435-.763-4.624-1.821-11.031-3.016-18.239l.141.107-2.948.316L148.3,389.065l-6.174.622-1.681.16-.437.034h-.151a.585.585,0,0,1,.146-.029l.437-.058,1.676-.2,6.164-.7,20.366-2.22,2.943-.316h.121v.117c1.156,7.213,2.186,13.6,2.914,18.254.355,2.293.646,4.148.845,5.445q.136.942.219,1.457l.049.384a.335.335,0,0,1,.049.121Z" transform="translate(-126.069 -217.478)" fill="#263238"/>
      <path id="Path_1211" data-name="Path 1211" d="M240.557,271.548c0,.068-16.782.413-37.479.767s-37.488.578-37.488.51,16.777-.413,37.483-.763S240.557,271.48,240.557,271.548Z" transform="translate(-139.301 -158.432)" fill="#263238"/>
      <path id="Path_1212" data-name="Path 1212" d="M244.867,295.6c0,.068-16.782.413-37.483.767s-37.483.578-37.483.51,16.777-.413,37.483-.767S244.862,295.529,244.867,295.6Z" transform="translate(-141.517 -170.8)" fill="#263238"/>
      <path id="Path_1213" data-name="Path 1213" d="M254.527,319.556c0,.068-16.782.413-37.479.763s-37.488.583-37.488.515,16.777-.413,37.483-.767S254.527,319.483,254.527,319.556Z" transform="translate(-146.485 -183.121)" fill="#263238"/>
      <path id="Path_1214" data-name="Path 1214" d="M264.627,346.717c0,.073-16.782.413-37.479.767s-37.488.583-37.488.51,16.777-.408,37.483-.763S264.627,346.649,264.627,346.717Z" transform="translate(-151.679 -197.09)" fill="#263238"/>
      <path id="Path_1215" data-name="Path 1215" d="M276.087,371.986c0,.068-16.782.413-37.479.763s-37.488.583-37.488.515,16.777-.413,37.483-.767S276.087,371.913,276.087,371.986Z" transform="translate(-157.573 -210.084)" fill="#263238"/>
      <path id="Path_1216" data-name="Path 1216" d="M121.74,200.224a12.607,12.607,0,0,1,2.3-2.569,2.414,2.414,0,0,1,2.463-.044l.515.437s2.574-1.248,3.852-.384c0,0,2.429-1.243,3.672.063,0,0,1.875-1.3,2.715-.238a4.45,4.45,0,0,1,.447,3.852c-.364.937-1.005,4.2-1.574,4.27,0,0-1.52.2-1.744-.612s-.325-1.214-.325-1.214-.486,2.914-1.195,3.1-2.04.121-2.123-1.156c0,0-.622.971-1.268.724s-1.457-.7-1.394-1.5a15.678,15.678,0,0,0,.034-1.588s-.316,1.166-.9.933-1.161-.165-1.511-1.132-1.239-2.876-1.239-2.876Z" transform="translate(-116.75 -120.138)" fill="#ffbe9d"/>
      <path id="Path_1217" data-name="Path 1217" d="M133.534,204.238c-.039,0,.107-.321.223-.835a4.542,4.542,0,0,0-.831-3.852c-.321-.418-.573-.631-.549-.665s.316.146.685.554a4.109,4.109,0,0,1,.971,1.889,4.163,4.163,0,0,1-.1,2.123A1.821,1.821,0,0,1,133.534,204.238Z" transform="translate(-122.22 -121.068)" fill="#eb996e"/>
      <path id="Path_1218" data-name="Path 1218" d="M140.546,198.31a4.05,4.05,0,0,1,.364,1.141,11.371,11.371,0,0,1-.219,5.727,3.847,3.847,0,0,1-.452,1.1,15.479,15.479,0,0,0,.306-7.971Z" transform="translate(-126.264 -120.774)" fill="#eb996e"/>
      <path id="Path_1219" data-name="Path 1219" d="M147.654,198.49a12.211,12.211,0,0,1-.525,6.1c-.073,0,.257-1.355.4-3.036S147.576,198.5,147.654,198.49Z" transform="translate(-129.802 -120.867)" fill="#eb996e"/>
      <path id="Path_1220" data-name="Path 1220" d="M165.415,198.676a.971.971,0,0,0-.675-.486,2.123,2.123,0,0,0-1.875.559,6.357,6.357,0,0,0-1.195,1.642l3.556-.029C165.177,199.773,165.634,199.2,165.415,198.676Z" transform="translate(-137.285 -120.693)" fill="#ffbe9d"/>
      <path id="Path_1221" data-name="Path 1221" d="M446.828,434.229c-.039-.034.578-.7,1.365-1.914a17.135,17.135,0,0,0,2.662-8.253,16.234,16.234,0,0,0-.058-2.526c-.141-1.457-.393-2.312-.34-2.327a3.4,3.4,0,0,1,.189.607,5.973,5.973,0,0,1,.17.724c.053.287.126.612.16.971a15.5,15.5,0,0,1,.112,2.569,17.385,17.385,0,0,1-.432,3.118,17.8,17.8,0,0,1-1.03,2.978,15.644,15.644,0,0,1-1.268,2.239c-.2.311-.413.563-.588.8a6.755,6.755,0,0,1-.486.568,3.075,3.075,0,0,1-.457.447Z" transform="translate(-283.934 -234.377)" fill="#263238"/>
      <path id="Path_1222" data-name="Path 1222" d="M431.449,442.433c-.029-.029.578-.583,1.457-1.574a21.745,21.745,0,0,0,4.707-9.005c.321-1.273.427-2.084.486-2.074a2.98,2.98,0,0,1-.068.593,13.606,13.606,0,0,1-.262,1.545A19.706,19.706,0,0,1,433.023,441a13.85,13.85,0,0,1-1.122,1.1A2.106,2.106,0,0,1,431.449,442.433Z" transform="translate(-276.025 -239.813)" fill="#263238"/>
      <circle id="Ellipse_36" data-name="Ellipse 36" cx="18.054" cy="18.054" r="18.054" transform="translate(104.634 99.562) rotate(-24.42)" fill="#464698"/>
      <path id="Path_1223" data-name="Path 1223" d="M375.19,247.91l.214,12.561a1.215,1.215,0,0,0,2.429,0q-.1-6.28-.214-12.561A1.215,1.215,0,0,0,375.19,247.91Z" transform="translate(-247.093 -145.68)" fill="#fff"/>
      <path id="Path_1224" data-name="Path 1224" d="M362.84,262l13.44-.233a1.215,1.215,0,0,0,0-2.429l-13.44.233A1.215,1.215,0,0,0,362.84,262Z" transform="translate(-240.139 -152.16)" fill="#fff"/>
      <g id="Group_30" data-name="Group 30" transform="translate(121.69 90.401)" opacity="0.3">
        <path id="Path_1225" data-name="Path 1225" d="M372.2,225.138a17.044,17.044,0,0,0-10.2,1.073,22.889,22.889,0,0,0,2.365,3.347c.758.942,1.894,1.943,3.036,1.52a2.851,2.851,0,0,1,.942-.321c.515,0,.86.51,1.146.942a11.253,11.253,0,0,0,2.866,2.948c.607.432,1.525.767,2.016.209a1.589,1.589,0,0,0,.277-1.044A20.776,20.776,0,0,0,372.2,225.138Z" transform="translate(-362 -224.795)"/>
      </g>
      <path id="Path_1226" data-name="Path 1226" d="M350.19,186.542l2.914-.874a7.874,7.874,0,0,1,6.834,1.3,24.708,24.708,0,0,1,3.823,3.284l2.5,3.356a2.88,2.88,0,0,1,.486,2.565.836.836,0,0,1-.282.486l-.884,1.282s.262,1.943.272,3.182a9.421,9.421,0,0,1-1.195,3.352l2.361,6.446a1.6,1.6,0,0,1-.384,1.729.675.675,0,0,1-.971.053c-.928-.748-3.4-6-3.4-6l-.971-1.127-1.345-.335s.243,1.943-.631,2.327l-3.7-3.186-2.861-4.857s-.078-6.645-.8-8.481Z" transform="translate(-234.236 -114.126)" fill="#ffbe9d"/>
      <path id="Path_1227" data-name="Path 1227" d="M376.375,214.21a10.637,10.637,0,0,1,1.724,5.1c-.073,0-.3-1.175-.772-2.574S376.312,214.249,376.375,214.21Z" transform="translate(-247.699 -128.951)" fill="#eb996e"/>
      <path id="Path_1228" data-name="Path 1228" d="M380.79,208.069a2.872,2.872,0,0,1,.486,1.409,4.051,4.051,0,0,1,.146,1.486,4.858,4.858,0,0,1-.393-1.433A8.738,8.738,0,0,1,380.79,208.069Z" transform="translate(-249.973 -125.792)" fill="#eb996e"/>
      <path id="Path_1229" data-name="Path 1229" d="M369.4,223.24a13.081,13.081,0,0,1-.806-1.321c-.486-.826-1.175-1.943-1.977-3.162-.4-.612-.792-1.185-1.151-1.7a5.182,5.182,0,0,0-1.088-1.224,2.6,2.6,0,0,0-1.4-.486.777.777,0,0,1,.418-.044,2.273,2.273,0,0,1,1.083.4,4.96,4.96,0,0,1,1.175,1.234c.374.515.772,1.088,1.175,1.7.8,1.219,1.457,2.365,1.919,3.216A7.191,7.191,0,0,1,369.4,223.24Z" transform="translate(-240.814 -129.505)" fill="#eb996e"/>
      <path id="Path_1230" data-name="Path 1230" d="M364.761,216.55c.039,0,.078.384.272.971a5.556,5.556,0,0,0,1.219,2.045,7.085,7.085,0,0,1,.923,1,2.035,2.035,0,0,1,.34,1.093,2.161,2.161,0,0,1-.151,1.015c-.044,0,.024-.393-.029-1a1.943,1.943,0,0,0-.35-.971,8.3,8.3,0,0,0-.918-.971,4.954,4.954,0,0,1-1.2-2.166,2.287,2.287,0,0,1-.1-1.015Z" transform="translate(-241.72 -130.154)" fill="#eb996e"/>
      <path id="Path_1231" data-name="Path 1231" d="M354.074,197.006c-.073,0,0-1.156-.219-2.555a22.944,22.944,0,0,1-.447-2.521,2.886,2.886,0,0,1,.291.695,10.472,10.472,0,0,1,.408,1.792A6.544,6.544,0,0,1,354.074,197.006Z" transform="translate(-235.88 -117.493)" fill="#eb996e"/>
    </g>
  </g>
</svg>
