<svg id="freepik--Confetti--inject-2" xmlns="http://www.w3.org/2000/svg" width="226.633" height="160.771" viewBox="0 0 226.633 160.771">
  <path id="Path_1232" data-name="Path 1232" d="M122.271,117.547a1.542,1.542,0,1,1-1.734-1.324A1.542,1.542,0,0,1,122.271,117.547Z" transform="translate(-92.465 -71.132)" fill="#464698"/>
  <path id="Path_1233" data-name="Path 1233" d="M119.941,158.167a1.542,1.542,0,1,1-1.734-1.324,1.542,1.542,0,0,1,1.734,1.324Z" transform="translate(-91.677 -84.863)" fill="#263238"/>
  <path id="Path_1234" data-name="Path 1234" d="M203.466,207.967a.771.771,0,1,1-.864-.665A.771.771,0,0,1,203.466,207.967Z" transform="translate(-120.433 -101.924)" fill="#464698"/>
  <path id="Path_1235" data-name="Path 1235" d="M162.5,76.119a.774.774,0,1,1-.867-.662A.774.774,0,0,1,162.5,76.119Z" transform="translate(-106.583 -57.352)" fill="#464698"/>
  <path id="Path_1236" data-name="Path 1236" d="M307.216,49.947a.771.771,0,1,1-.864-.665.771.771,0,0,1,.864.665Z" transform="translate(-155.507 -48.503)" fill="#263238"/>
  <path id="Path_1237" data-name="Path 1237" d="M175.709,138.612a.774.774,0,1,1-.858-.6.774.774,0,0,1,.858.6Z" transform="translate(-111.051 -78.501)" fill="#263238"/>
  <path id="Path_1238" data-name="Path 1238" d="M282.986,243.287a.771.771,0,1,1-.864-.665A.771.771,0,0,1,282.986,243.287Z" transform="translate(-147.316 -113.865)" fill="#455a64"/>
  <path id="Path_1239" data-name="Path 1239" d="M117.769,250.018a.761.761,0,1,1-.292-.511.768.768,0,0,1,.292.511Z" transform="translate(-91.464 -116.141)" fill="#464698"/>
  <path id="Path_1240" data-name="Path 1240" d="M81.881,205.726a1.536,1.536,0,1,1-.591-1.023,1.542,1.542,0,0,1,.591,1.023Z" transform="translate(-78.81 -100.941)" fill="#464698"/>
  <path id="Path_1241" data-name="Path 1241" d="M223.861,49.447a1.542,1.542,0,1,1-1.734-1.324A1.542,1.542,0,0,1,223.861,49.447Z" transform="translate(-126.809 -48.109)" fill="#464698"/>
  <path id="Path_1242" data-name="Path 1242" d="M383.078,279.67l2.184-.735a3.415,3.415,0,0,1-1.489-3.157c0-2.39,2.045-3.31,1.165-5.487l-2.436.662a4.508,4.508,0,0,1,.113,3.661C381.992,275.976,381.383,277.611,383.078,279.67Z" transform="translate(-181.3 -123.221)" fill="#464698"/>
  <path id="Path_1243" data-name="Path 1243" d="M105.964,276.234l-2.158-.814a3.443,3.443,0,0,1-.834,3.389c-1.5,1.853-3.687,1.324-4.362,3.535l2.3,1.026a4.514,4.514,0,0,1,2.224-2.913C104.5,279.776,105.977,278.9,105.964,276.234Z" transform="translate(-85.504 -124.955)" fill="#464698"/>
  <path id="Path_1244" data-name="Path 1244" d="M196.531,122.594l-2.184-.794a3.443,3.443,0,0,1-.834,3.389c-1.5,1.853-3.687,1.324-4.362,3.528l2.3,1.033a4.5,4.5,0,0,1,2.224-2.913A4.184,4.184,0,0,0,196.531,122.594Z" transform="translate(-116.112 -73.021)" fill="#455a64"/>
  <path id="Path_1245" data-name="Path 1245" d="M315.244,226.858l-2.158-.808a3.443,3.443,0,0,1-.834,3.389c-1.5,1.853-3.687,1.324-4.362,3.528l2.3,1.033a4.5,4.5,0,0,1,2.224-2.913C313.794,230.419,315.277,229.525,315.244,226.858Z" transform="translate(-156.254 -108.265)" fill="#455a64"/>
  <path id="Path_1246" data-name="Path 1246" d="M175.872,193.548l.311-2.277a3.4,3.4,0,0,1-3.488-.066c-2.165-1.059-2.078-3.31-4.408-3.475l-.5,2.469a4.514,4.514,0,0,1,3.31,1.522C172.1,192.913,173.3,194.157,175.872,193.548Z" transform="translate(-108.891 -95.31)" fill="#464698"/>
  <path id="Path_1247" data-name="Path 1247" d="M332.632,261.505l.311-2.284a3.4,3.4,0,0,1-3.488-.066c-2.165-1.059-2.079-3.31-4.408-3.475l-.5,2.469a4.508,4.508,0,0,1,3.31,1.529A4.233,4.233,0,0,0,332.632,261.505Z" transform="translate(-161.886 -118.281)" fill="#455a64"/>
  <path id="Path_1248" data-name="Path 1248" d="M318.552,102.118l.311-2.277a3.4,3.4,0,0,1-3.488-.066c-2.165-1.059-2.078-3.31-4.408-3.475l-.5,2.469a4.514,4.514,0,0,1,3.31,1.522C314.753,101.476,315.957,102.721,318.552,102.118Z" transform="translate(-157.126 -64.401)" fill="#464698"/>
  <path id="Path_1249" data-name="Path 1249" d="M384.366,120.924l-2.423-1.324s-1.986,2.959.4,4.455C382.334,124.061,381.845,122.135,384.366,120.924Z" transform="translate(-181.027 -72.278)" fill="#464698"/>
  <path id="Path_1250" data-name="Path 1250" d="M382.97,129.954l2.555-.947s.152-2.191-2.615-2.648C382.923,126.347,384.657,128.333,382.97,129.954Z" transform="translate(-181.616 -74.563)" fill="#464698"/>
  <path id="Path_1251" data-name="Path 1251" d="M188.943,228.144l-2.429-1.324s-1.986,2.965.4,4.455C186.911,231.281,186.428,229.362,188.943,228.144Z" transform="translate(-114.959 -108.525)" fill="#455a64"/>
  <path id="Path_1252" data-name="Path 1252" d="M187.559,237.161l2.548-.953s.152-2.184-2.648-2.648C187.493,233.56,189.227,235.546,187.559,237.161Z" transform="translate(-115.541 -110.803)" fill="#455a64"/>
  <path id="Path_1253" data-name="Path 1253" d="M333.623,95.807a1.542,1.542,0,1,1,1.728,1.324,1.542,1.542,0,0,1-1.728-1.324Z" transform="translate(-164.949 -63.643)" fill="#263238"/>
  <path id="Path_1254" data-name="Path 1254" d="M370.453,152.5a1.542,1.542,0,1,1,1.734,1.324A1.542,1.542,0,0,1,370.453,152.5Z" transform="translate(-177.4 -82.808)" fill="#464698"/>
  <path id="Path_1255" data-name="Path 1255" d="M360.8,236.967a.768.768,0,1,1,.861.662A.768.768,0,0,1,360.8,236.967Z" transform="translate(-174.138 -111.662)" fill="#464698"/>
  <path id="Path_1256" data-name="Path 1256" d="M225.478,200.02l-.318,2.284a3.4,3.4,0,0,1,3.488.066c2.165,1.059,2.085,3.31,4.415,3.475l.49-2.469a4.514,4.514,0,0,1-3.31-1.522C229.271,200.662,228.073,199.418,225.478,200.02Z" transform="translate(-128.286 -99.412)" fill="#455a64"/>
  <path id="Path_1257" data-name="Path 1257" d="M415.238,236.892l-3.674,1.039s-1.754-4.594,1.893-5.891C413.458,232.013,412.213,234.489,415.238,236.892Z" transform="translate(-191.16 -110.289)" fill="#455a64"/>
  <path id="Path_1258" data-name="Path 1258" d="M415.818,224.71l3.157,2.059s-.463,3-4.336,2.793C414.64,229.536,417.579,227.411,415.818,224.71Z" transform="translate(-192.343 -107.812)" fill="#455a64"/>
  <path id="Path_1259" data-name="Path 1259" d="M315.9,180.925l-3.694,1.066s-1.748-4.594,1.893-5.891C314.1,176.073,312.861,178.523,315.9,180.925Z" transform="translate(-157.571 -91.378)" fill="#263238"/>
  <path id="Path_1260" data-name="Path 1260" d="M316.465,168.73l3.157,2.059s-.463,3-4.342,2.793C315.28,173.582,318.226,171.431,316.465,168.73Z" transform="translate(-158.752 -88.887)" fill="#263238"/>
  <path id="Path_1261" data-name="Path 1261" d="M126.376,213.692l-3.68,1.039s-1.748-4.594,1.893-5.891C124.589,208.84,123.345,211.289,126.376,213.692Z" transform="translate(-93.505 -102.447)" fill="#263238"/>
  <path id="Path_1262" data-name="Path 1262" d="M126.955,201.51l3.157,2.059s-.47,3-4.342,2.793C125.77,206.362,128.716,204.211,126.955,201.51Z" transform="translate(-94.686 -99.969)" fill="#263238"/>
  <path id="Path_1263" data-name="Path 1263" d="M361.76,170.621l2.429,1.324s1.986-2.965-.4-4.455C363.792,167.483,364.275,169.4,361.76,170.621Z" transform="translate(-174.466 -88.468)" fill="#455a64"/>
  <path id="Path_1264" data-name="Path 1264" d="M363.424,162l-2.555.953s-.146,2.184,2.648,2.648C363.491,165.627,361.756,163.642,363.424,162Z" transform="translate(-174.164 -86.612)" fill="#455a64"/>
  <path id="Path_1265" data-name="Path 1265" d="M234.17,153.021l2.429,1.324s1.986-2.959-.4-4.455C236.2,149.883,236.705,151.81,234.17,153.021Z" transform="translate(-131.332 -82.518)" fill="#464698"/>
  <path id="Path_1266" data-name="Path 1266" d="M235.834,144.43l-2.555.947s-.146,2.191,2.648,2.648C235.9,148.038,234.166,146.058,235.834,144.43Z" transform="translate(-131.03 -80.672)" fill="#464698"/>
  <path id="Path_1267" data-name="Path 1267" d="M266.32,286.735l.4,2.727s3.548-.205,3.31-2.992C270.08,286.47,268.8,288.012,266.32,286.735Z" transform="translate(-142.201 -128.691)" fill="#464698"/>
  <path id="Path_1268" data-name="Path 1268" d="M274.564,282.369l-2.29-1.469s-1.84,1.191-.556,3.687C271.751,284.587,272.26,282.012,274.564,282.369Z" transform="translate(-143.872 -126.807)" fill="#464698"/>
</svg>
