<svg xmlns="http://www.w3.org/2000/svg" width="286.803" height="444.245" viewBox="0 0 286.803 444.245">
  <g id="تم_التسجيل_بنجاح" data-name="تم التسجيل بنجاح" transform="translate(-33.36 56.051)">
    <g id="freepik--Confetti--inject-2" transform="translate(33.445 -56.051)" opacity="0">
      <path id="Path_1232" data-name="Path 1232" d="M122.271,117.547a1.542,1.542,0,1,1-1.734-1.324A1.542,1.542,0,0,1,122.271,117.547Z" transform="translate(-92.465 -71.132)" fill="#464698"/>
      <path id="Path_1233" data-name="Path 1233" d="M119.941,158.167a1.542,1.542,0,1,1-1.734-1.324,1.542,1.542,0,0,1,1.734,1.324Z" transform="translate(-91.677 -84.863)" fill="#263238"/>
      <path id="Path_1234" data-name="Path 1234" d="M203.466,207.967a.771.771,0,1,1-.864-.665A.771.771,0,0,1,203.466,207.967Z" transform="translate(-120.433 -101.924)" fill="#464698"/>
      <path id="Path_1235" data-name="Path 1235" d="M162.5,76.119a.774.774,0,1,1-.867-.662A.774.774,0,0,1,162.5,76.119Z" transform="translate(-106.583 -57.352)" fill="#464698"/>
      <path id="Path_1236" data-name="Path 1236" d="M307.216,49.947a.771.771,0,1,1-.864-.665.771.771,0,0,1,.864.665Z" transform="translate(-155.507 -48.503)" fill="#263238"/>
      <path id="Path_1237" data-name="Path 1237" d="M175.709,138.612a.774.774,0,1,1-.858-.6.774.774,0,0,1,.858.6Z" transform="translate(-111.051 -78.501)" fill="#263238"/>
      <path id="Path_1238" data-name="Path 1238" d="M282.986,243.287a.771.771,0,1,1-.864-.665A.771.771,0,0,1,282.986,243.287Z" transform="translate(-147.316 -113.865)" fill="#455a64"/>
      <path id="Path_1239" data-name="Path 1239" d="M117.769,250.018a.761.761,0,1,1-.292-.511.768.768,0,0,1,.292.511Z" transform="translate(-91.464 -116.141)" fill="#464698"/>
      <path id="Path_1240" data-name="Path 1240" d="M81.881,205.726a1.536,1.536,0,1,1-.591-1.023,1.542,1.542,0,0,1,.591,1.023Z" transform="translate(-78.81 -100.941)" fill="#464698"/>
      <path id="Path_1241" data-name="Path 1241" d="M223.861,49.447a1.542,1.542,0,1,1-1.734-1.324A1.542,1.542,0,0,1,223.861,49.447Z" transform="translate(-126.809 -48.109)" fill="#464698"/>
      <path id="Path_1242" data-name="Path 1242" d="M383.078,279.67l2.184-.735a3.415,3.415,0,0,1-1.489-3.157c0-2.39,2.045-3.31,1.165-5.487l-2.436.662a4.508,4.508,0,0,1,.113,3.661C381.992,275.976,381.383,277.611,383.078,279.67Z" transform="translate(-181.3 -123.221)" fill="#464698"/>
      <path id="Path_1243" data-name="Path 1243" d="M105.964,276.234l-2.158-.814a3.443,3.443,0,0,1-.834,3.389c-1.5,1.853-3.687,1.324-4.362,3.535l2.3,1.026a4.514,4.514,0,0,1,2.224-2.913C104.5,279.776,105.977,278.9,105.964,276.234Z" transform="translate(-85.504 -124.955)" fill="#464698"/>
      <path id="Path_1244" data-name="Path 1244" d="M196.531,122.594l-2.184-.794a3.443,3.443,0,0,1-.834,3.389c-1.5,1.853-3.687,1.324-4.362,3.528l2.3,1.033a4.5,4.5,0,0,1,2.224-2.913A4.184,4.184,0,0,0,196.531,122.594Z" transform="translate(-116.112 -73.021)" fill="#455a64"/>
      <path id="Path_1245" data-name="Path 1245" d="M315.244,226.858l-2.158-.808a3.443,3.443,0,0,1-.834,3.389c-1.5,1.853-3.687,1.324-4.362,3.528l2.3,1.033a4.5,4.5,0,0,1,2.224-2.913C313.794,230.419,315.277,229.525,315.244,226.858Z" transform="translate(-156.254 -108.265)" fill="#455a64"/>
      <path id="Path_1246" data-name="Path 1246" d="M175.872,193.548l.311-2.277a3.4,3.4,0,0,1-3.488-.066c-2.165-1.059-2.078-3.31-4.408-3.475l-.5,2.469a4.514,4.514,0,0,1,3.31,1.522C172.1,192.913,173.3,194.157,175.872,193.548Z" transform="translate(-108.891 -95.31)" fill="#464698"/>
      <path id="Path_1247" data-name="Path 1247" d="M332.632,261.505l.311-2.284a3.4,3.4,0,0,1-3.488-.066c-2.165-1.059-2.079-3.31-4.408-3.475l-.5,2.469a4.508,4.508,0,0,1,3.31,1.529A4.233,4.233,0,0,0,332.632,261.505Z" transform="translate(-161.886 -118.281)" fill="#455a64"/>
      <path id="Path_1248" data-name="Path 1248" d="M318.552,102.118l.311-2.277a3.4,3.4,0,0,1-3.488-.066c-2.165-1.059-2.078-3.31-4.408-3.475l-.5,2.469a4.514,4.514,0,0,1,3.31,1.522C314.753,101.476,315.957,102.721,318.552,102.118Z" transform="translate(-157.126 -64.401)" fill="#464698"/>
      <path id="Path_1249" data-name="Path 1249" d="M384.366,120.924l-2.423-1.324s-1.986,2.959.4,4.455C382.334,124.061,381.845,122.135,384.366,120.924Z" transform="translate(-181.027 -72.278)" fill="#464698"/>
      <path id="Path_1250" data-name="Path 1250" d="M382.97,129.954l2.555-.947s.152-2.191-2.615-2.648C382.923,126.347,384.657,128.333,382.97,129.954Z" transform="translate(-181.616 -74.563)" fill="#464698"/>
      <path id="Path_1251" data-name="Path 1251" d="M188.943,228.144l-2.429-1.324s-1.986,2.965.4,4.455C186.911,231.281,186.428,229.362,188.943,228.144Z" transform="translate(-114.959 -108.525)" fill="#455a64"/>
      <path id="Path_1252" data-name="Path 1252" d="M187.559,237.161l2.548-.953s.152-2.184-2.648-2.648C187.493,233.56,189.227,235.546,187.559,237.161Z" transform="translate(-115.541 -110.803)" fill="#455a64"/>
      <path id="Path_1253" data-name="Path 1253" d="M333.623,95.807a1.542,1.542,0,1,1,1.728,1.324,1.542,1.542,0,0,1-1.728-1.324Z" transform="translate(-164.949 -63.643)" fill="#263238"/>
      <path id="Path_1254" data-name="Path 1254" d="M370.453,152.5a1.542,1.542,0,1,1,1.734,1.324A1.542,1.542,0,0,1,370.453,152.5Z" transform="translate(-177.4 -82.808)" fill="#464698"/>
      <path id="Path_1255" data-name="Path 1255" d="M360.8,236.967a.768.768,0,1,1,.861.662A.768.768,0,0,1,360.8,236.967Z" transform="translate(-174.138 -111.662)" fill="#464698"/>
      <path id="Path_1256" data-name="Path 1256" d="M225.478,200.02l-.318,2.284a3.4,3.4,0,0,1,3.488.066c2.165,1.059,2.085,3.31,4.415,3.475l.49-2.469a4.514,4.514,0,0,1-3.31-1.522C229.271,200.662,228.073,199.418,225.478,200.02Z" transform="translate(-128.286 -99.412)" fill="#455a64"/>
      <path id="Path_1257" data-name="Path 1257" d="M415.238,236.892l-3.674,1.039s-1.754-4.594,1.893-5.891C413.458,232.013,412.213,234.489,415.238,236.892Z" transform="translate(-191.16 -110.289)" fill="#455a64"/>
      <path id="Path_1258" data-name="Path 1258" d="M415.818,224.71l3.157,2.059s-.463,3-4.336,2.793C414.64,229.536,417.579,227.411,415.818,224.71Z" transform="translate(-192.343 -107.812)" fill="#455a64"/>
      <path id="Path_1259" data-name="Path 1259" d="M315.9,180.925l-3.694,1.066s-1.748-4.594,1.893-5.891C314.1,176.073,312.861,178.523,315.9,180.925Z" transform="translate(-157.571 -91.378)" fill="#263238"/>
      <path id="Path_1260" data-name="Path 1260" d="M316.465,168.73l3.157,2.059s-.463,3-4.342,2.793C315.28,173.582,318.226,171.431,316.465,168.73Z" transform="translate(-158.752 -88.887)" fill="#263238"/>
      <path id="Path_1261" data-name="Path 1261" d="M126.376,213.692l-3.68,1.039s-1.748-4.594,1.893-5.891C124.589,208.84,123.345,211.289,126.376,213.692Z" transform="translate(-93.505 -102.447)" fill="#263238"/>
      <path id="Path_1262" data-name="Path 1262" d="M126.955,201.51l3.157,2.059s-.47,3-4.342,2.793C125.77,206.362,128.716,204.211,126.955,201.51Z" transform="translate(-94.686 -99.969)" fill="#263238"/>
      <path id="Path_1263" data-name="Path 1263" d="M361.76,170.621l2.429,1.324s1.986-2.965-.4-4.455C363.792,167.483,364.275,169.4,361.76,170.621Z" transform="translate(-174.466 -88.468)" fill="#455a64"/>
      <path id="Path_1264" data-name="Path 1264" d="M363.424,162l-2.555.953s-.146,2.184,2.648,2.648C363.491,165.627,361.756,163.642,363.424,162Z" transform="translate(-174.164 -86.612)" fill="#455a64"/>
      <path id="Path_1265" data-name="Path 1265" d="M234.17,153.021l2.429,1.324s1.986-2.959-.4-4.455C236.2,149.883,236.705,151.81,234.17,153.021Z" transform="translate(-131.332 -82.518)" fill="#464698"/>
      <path id="Path_1266" data-name="Path 1266" d="M235.834,144.43l-2.555.947s-.146,2.191,2.648,2.648C235.9,148.038,234.166,146.058,235.834,144.43Z" transform="translate(-131.03 -80.672)" fill="#464698"/>
      <path id="Path_1267" data-name="Path 1267" d="M266.32,286.735l.4,2.727s3.548-.205,3.31-2.992C270.08,286.47,268.8,288.012,266.32,286.735Z" transform="translate(-142.201 -128.691)" fill="#464698"/>
      <path id="Path_1268" data-name="Path 1268" d="M274.564,282.369l-2.29-1.469s-1.84,1.191-.556,3.687C271.751,284.587,272.26,282.012,274.564,282.369Z" transform="translate(-143.872 -126.807)" fill="#464698"/>
    </g>
    <g id="freepik--Floor--inject-2" transform="translate(33.36 387.533)">
      <path id="Path_1269" data-name="Path 1269" d="M33.36,446.641l35.85-.159,35.85-.06,71.7-.113,71.7.113,35.85.06,35.85.159-35.85.165-35.85.053-71.7.113-71.7-.113-35.85-.06Z" transform="translate(-33.36 -446.31)" fill="#263238"/>
    </g>
    <g id="freepik--Character--inject-2" transform="translate(49.849 115.805)">
      <path id="Path_1270" data-name="Path 1270" d="M221.392,208.18c-9.823,6.3-26.689,10.459-39.855,9.3a37.2,37.2,0,0,1-6.143-.973c-2.707-.662-5.342-1.41-7.884-2.1-16.919-4.634-31.521-8.605-56.7-1.741-30.072,8.195-36.777,11.915-37.36,11.994l4.442-4.839L72,216.143c.139,0,6.944-3.753,36.519-11.816,27.444-7.473,43.853-2.992,61.229,1.747,2.515.662,5.11,1.4,7.745,2.072a30.555,30.555,0,0,0,3.1.609c12.524,1.8,30.661-2.648,38.147-8.605a6.97,6.97,0,0,0,1.906-2.231l.126,9.267A4.7,4.7,0,0,1,221.392,208.18Z" transform="translate(-62.912 -90.61)" fill="#464698"/>
      <path id="Path_1271" data-name="Path 1271" d="M221.392,208.18c-9.823,6.3-26.689,10.459-39.855,9.3a37.2,37.2,0,0,1-6.143-.973c-2.707-.662-5.342-1.41-7.884-2.1-16.919-4.634-31.521-8.605-56.7-1.741-30.072,8.195-36.777,11.915-37.36,11.994l4.442-4.839L72,216.143c.139,0,6.944-3.753,36.519-11.816,27.444-7.473,43.853-2.992,61.229,1.747,2.515.662,5.11,1.4,7.745,2.072a30.555,30.555,0,0,0,3.1.609c12.524,1.8,30.661-2.648,38.147-8.605a6.97,6.97,0,0,0,1.906-2.231l.126,9.267A4.7,4.7,0,0,1,221.392,208.18Z" transform="translate(-62.912 -90.61)" opacity="0.2"/>
      <path id="Path_1272" data-name="Path 1272" d="M238.909,193.06s.152,22.254-4.2,27.06c0,0-28.735,52.9-44.217,55.9-13.113,2.548-60.858-32.805-60.858-32.805l15.1-23.26s8.347,4.064,19.732,10.28c9.4,5.137,17.475,10.955,17.72,10.525,3.561-6.408,18.084-24.617,17.8-25.815-3.144-13.325,6.361-21.844,6.361-21.844Z" transform="translate(-82.394 -88.967)" fill="#263238"/>
      <path id="Path_1273" data-name="Path 1273" d="M270.3,220.13s-7.056,13-16.065,26.477l-18.66-31.674h0c-3.131-13.318,6.374-21.844,6.374-21.844h32.567S274.657,215.324,270.3,220.13Z" transform="translate(-117.997 -88.977)" fill="#37474f"/>
      <path id="Path_1274" data-name="Path 1274" d="M64.175,241.869c.43-1.609,25.471-39.18,27.338-40,.7-.324,31.111,21.063,31.111,21.063L107.538,246.1,88.17,233.615s-15.608,9.843-17.753,10.531S63.738,243.471,64.175,241.869Z" transform="translate(-60.256 -91.944)" fill="#ffc4c0"/>
      <path id="Path_1275" data-name="Path 1275" d="M64.185,241.869c.43-1.608,25.465-39.18,27.325-40,.338-.159,9.929,6.368,15.655,10.3L91.655,235.9l-3.515-2.257s-15.575,9.81-17.72,10.5S63.741,243.465,64.185,241.869Z" transform="translate(-60.259 -91.944)" fill="#ebebeb"/>
      <path id="Path_1276" data-name="Path 1276" d="M64.045,241.878c.437-1.6,25.385-39.65,27.232-40.477.7-.318,6.388,3.5,12.425,8.254L88.034,233.868s-15.642,9.585-17.766,10.286S63.615,243.493,64.045,241.878Z" transform="translate(-60.213 -91.781)" fill="#464698"/>
      <path id="Path_1277" data-name="Path 1277" d="M66.792,243.884c4.336-6.169,21.215-31.462,25.028-37.889,0-.053,0-.079-.04,0-4.422,6.017-21.1,31.449-25.087,37.843C66.607,243.95,66.706,244.009,66.792,243.884Z" transform="translate(-61.106 -93.323)" fill="#263238"/>
      <path id="Path_1278" data-name="Path 1278" d="M77.142,259.407a6.03,6.03,0,0,0,.966-4.773A5.852,5.852,0,0,0,75.692,251s-.079.04-.046.073a6.983,6.983,0,0,1,1.417,8.274C77.036,259.407,77.109,259.46,77.142,259.407Z" transform="translate(-64.141 -108.555)" fill="#263238"/>
      <path id="Path_1279" data-name="Path 1279" d="M97.2,248.207c1.708-2.482,2.76-5.957,1.748-8.91-.04-.113-.2-.06-.212.04a41.7,41.7,0,0,1-1.873,8.711.192.192,0,0,0,.338.159Z" transform="translate(-71.314 -104.577)" fill="#263238"/>
      <path id="Path_1280" data-name="Path 1280" d="M94.106,250.415c1.708-2.482,2.76-5.957,1.748-8.916-.04-.113-.2-.053-.212.046a41.808,41.808,0,0,1-1.873,8.711.192.192,0,0,0,.338.159Z" transform="translate(-70.269 -105.322)" fill="#263238"/>
      <path id="Path_1281" data-name="Path 1281" d="M91.014,252.545c1.708-2.489,2.76-5.957,1.748-8.916-.04-.113-.2-.053-.212.046a41.748,41.748,0,0,1-1.873,8.7.192.192,0,0,0,.338.165Z" transform="translate(-69.224 -106.042)" fill="#263238"/>
      <path id="Path_1282" data-name="Path 1282" d="M87.924,254.715c1.708-2.489,2.76-5.99,1.748-8.916-.04-.113-.2-.053-.212.046a41.747,41.747,0,0,1-1.873,8.7.192.192,0,0,0,.338.165Z" transform="translate(-68.179 -106.776)" fill="#263238"/>
      <path id="Path_1283" data-name="Path 1283" d="M109.59,212.35c1.867-2.82-2.515-5.726-4.382-2.9S107.724,215.176,109.59,212.35Z" transform="translate(-73.985 -94.118)" fill="#263238"/>
      <path id="Path_1284" data-name="Path 1284" d="M102.626,258.035c1.906-.576,1.939-2.866,1.37-4.369a15.886,15.886,0,0,0-3.614-5.428c-.212-.225-.437-.43-.662-.662a3.729,3.729,0,0,1-.3-.252h0l-.086-.053-.245-.2a.079.079,0,0,0-.119.04.4.4,0,0,0-.41.093.278.278,0,0,0-.093.218v2.2a3.682,3.682,0,0,0,0,.384,16.111,16.111,0,0,0,.622,5.348C99.581,256.857,100.832,258.564,102.626,258.035Zm-3.31-6.619c0-.622-.04-1.244-.06-1.86s-.04-1.046-.066-1.569v-.417l.119.146h0c.252.338.5.662.755.986a30.138,30.138,0,0,1,1.9,2.74,17.211,17.211,0,0,1,1.086,2.039c.463,1.1.913,4.965-1.986,3.389-1.589-.854-1.655-3.945-1.714-5.468Z" transform="translate(-71.852 -107.223)" fill="#263238"/>
      <path id="Path_1285" data-name="Path 1285" d="M98.9,243.486a.079.079,0,0,0,.1.079,1.185,1.185,0,0,0,.232-.066.132.132,0,0,0,.093,0h0a1.582,1.582,0,0,0,.4-.113,9.926,9.926,0,0,0,1.423-.523,15.721,15.721,0,0,0,4.965-3.31c1.139-1.145,2.026-3.25.516-4.541a1.639,1.639,0,0,0-.172-.126c-1.4-1.013-3.138,0-4.15,1.112a15.39,15.39,0,0,0-2.443,3.972c-.443,1-.861,1.986-1.324,2.985h0a.364.364,0,0,0,.357.53Zm2.065-3.74c.662-1.377,1.986-4.17,3.813-4.322a2.449,2.449,0,0,1,1.238.152c1.4.662-.086,3.065-.808,3.747a17.344,17.344,0,0,1-1.814,1.443,13.737,13.737,0,0,1-1.469.933c-.814.49-1.648.933-2.476,1.4h0c-.053,0-.1.066-.152.086a.542.542,0,0,0,.073-.152c.079-.132.146-.252.212-.391C100.048,241.692,100.485,240.712,100.962,239.746Z" transform="translate(-71.87 -102.967)" fill="#263238"/>
      <path id="Path_1286" data-name="Path 1286" d="M410,396.3c-1.039,1.324-38.981,25.769-41.04,25.815-.774,0-20.1-31.713-20.1-31.713l23.088-15.224,12.775,19.2s18.2-2.787,20.441-2.568S411.042,395,410,396.3Z" transform="translate(-156.508 -150.536)" fill="#ffc4c0"/>
      <path id="Path_1287" data-name="Path 1287" d="M415.027,404.3c-1.033,1.324-38.981,25.769-41.04,25.815-.371,0-6.56-9.8-10.247-15.694l23.691-15.575,2.317,3.475s18.2-2.787,20.441-2.568S416.073,403.014,415.027,404.3Z" transform="translate(-161.539 -158.538)" fill="#ebebeb"/>
      <path id="Path_1288" data-name="Path 1288" d="M416.315,404.564c-1.033,1.324-39.087,26.239-41.113,26.259-.774,0-4.461-5.752-8.1-12.524l24.022-15.953s18.17-2.562,20.394-2.343S417.341,403.267,416.315,404.564Z" transform="translate(-162.675 -158.923)" fill="#464698"/>
      <path id="Path_1289" data-name="Path 1289" d="M419.711,405.122c-6.434,3.932-32,20.394-38.061,24.763-.046.04,0,.073,0,.04,6.461-3.753,31.9-20.421,38.1-24.7C419.909,405.135,419.85,405.029,419.711,405.122Z" transform="translate(-167.586 -160.646)" fill="#263238"/>
      <path id="Path_1290" data-name="Path 1290" d="M427.721,400.326a6.063,6.063,0,0,0-2.793,3.972,5.851,5.851,0,0,0,.768,4.289c0,.04.093,0,.073-.046a7,7,0,0,1,1.986-8.155C427.82,400.365,427.767,400.293,427.721,400.326Z" transform="translate(-182.183 -159.034)" fill="#263238"/>
      <path id="Path_1291" data-name="Path 1291" d="M404.366,402.554c-2.555,1.6-4.918,4.389-5.156,7.48,0,.119.159.132.212.04a41.6,41.6,0,0,1,5.2-7.235.192.192,0,0,0-.252-.285Z" transform="translate(-173.53 -159.779)" fill="#263238"/>
      <path id="Path_1292" data-name="Path 1292" d="M408.076,401.8c-2.562,1.6-4.918,4.4-5.156,7.48,0,.119.159.132.212.046a41.646,41.646,0,0,1,5.19-7.242.192.192,0,0,0-.245-.285Z" transform="translate(-174.784 -159.526)" fill="#263238"/>
      <path id="Path_1293" data-name="Path 1293" d="M411.776,401.048c-2.562,1.6-4.918,4.389-5.156,7.48,0,.119.159.132.212.04a41.6,41.6,0,0,1,5.19-7.235.192.192,0,0,0-.245-.285Z" transform="translate(-176.035 -159.273)" fill="#263238"/>
      <path id="Path_1294" data-name="Path 1294" d="M415.476,400.288c-2.562,1.6-4.918,4.4-5.156,7.48,0,.119.159.132.212.046a41.652,41.652,0,0,1,5.19-7.242.192.192,0,0,0-.245-.285Z" transform="translate(-177.286 -159.016)" fill="#263238"/>
      <path id="Path_1295" data-name="Path 1295" d="M377.64,431.674c-2.84,1.84,0,6.255,2.86,4.408S380.479,429.827,377.64,431.674Z" transform="translate(-165.84 -169.485)" fill="#263238"/>
      <path id="Path_1296" data-name="Path 1296" d="M403.025,389.67c-1.986-.238-2.919,1.853-3,3.462a15.986,15.986,0,0,0,1.145,6.414c.106.291.232.569.357.841.066.113.119.232.172.344h0l.06.086.146.278a.08.08,0,0,0,.126,0,.39.39,0,0,0,.417.079.285.285,0,0,0,.172-.159c.271-.662.576-1.324.874-2.026.06-.113.106-.225.159-.344a16.178,16.178,0,0,0,1.562-5.156C405.349,391.967,404.885,389.882,403.025,389.67Zm.364,7.387c-.225.583-.463,1.158-.662,1.728s-.384.98-.569,1.47a.76.76,0,0,1-.073.205l-.066.185a.889.889,0,0,0-.046-.179h0c-.1-.4-.185-.8-.291-1.2a28.586,28.586,0,0,1-.662-3.27,17.829,17.829,0,0,1-.179-2.3c0-1.191,1.139-4.912,3.164-2.317C405.1,392.775,403.939,395.641,403.389,397.058Z" transform="translate(-173.804 -155.428)" fill="#263238"/>
      <path id="Path_1297" data-name="Path 1297" d="M398.083,406.057a.08.08,0,0,0-.06-.113,1.051,1.051,0,0,0-.238,0,.106.106,0,0,0-.093,0h0a1.783,1.783,0,0,0-.41-.053,9.7,9.7,0,0,0-1.516-.093,15.655,15.655,0,0,0-5.865,1.039c-1.5.6-3.151,2.171-2.284,3.972a1.681,1.681,0,0,0,.106.185c.88,1.483,2.886,1.238,4.25.662a15.3,15.3,0,0,0,3.839-2.694c.808-.735,1.589-1.5,2.39-2.217h0a.364.364,0,0,0-.119-.688Zm-3.382,2.608c-1.172.993-3.5,3.025-5.223,2.443a2.376,2.376,0,0,1-1.072-.629c-1.033-1.158,1.324-2.78,2.231-3.118a17.408,17.408,0,0,1,2.237-.6c.569-.119,1.145-.205,1.721-.278.947-.119,1.887-.192,2.833-.3h.179a1.078,1.078,0,0,0-.132.113c-.126.093-.232.179-.351.278C396.309,407.255,395.521,407.97,394.7,408.665Z" transform="translate(-169.53 -160.886)" fill="#263238"/>
      <path id="Path_1298" data-name="Path 1298" d="M334.473,314.316,310.7,328.793s-24.233-25.438-29.787-47.4c-1.675-6.619-29.966-47.858-39.458-58.191-12.491-13.6.1-30.171.1-30.171h34.5l.172,12.451C278.943,209.883,334.473,314.316,334.473,314.316Z" transform="translate(-118.331 -88.957)" fill="#263238"/>
      <path id="Path_1299" data-name="Path 1299" d="M286,203a29.126,29.126,0,0,1,3.8,2.694,29.7,29.7,0,0,1,3.376,3.21,28.579,28.579,0,0,1-3.8-2.7A29.63,29.63,0,0,1,286,203Z" transform="translate(-135.258 -92.328)" fill="#37474f"/>
      <path id="Path_1300" data-name="Path 1300" d="M255.225,92.686c-.424-2.648-.986-5.434-4.945-6.719-8.493-2.747-14.563,8.83-24.366,12.537-11.809,4.488-16.548,11.617-11.743,16.2,5.368,5.13,15.337,2.27,23.585-11.915,5.163-8.863,9.764-11.1,11.882-11.068,1.529,0,3.674,3.1,3.674,3.1Z" transform="translate(-110.348 -52.622)" fill="#263238"/>
      <path id="Path_1301" data-name="Path 1301" d="M240.994,104.34c-.92,1.324-1.681,2.787-2.489,4.2s-1.589,2.833-2.423,4.217a45.859,45.859,0,0,1-2.687,4.031,24.228,24.228,0,0,1-3.2,3.574,12.378,12.378,0,0,1-4.011,2.522,13.993,13.993,0,0,1-4.746.768,10.69,10.69,0,0,1-4.7-1.139,9.611,9.611,0,0,1-2.045-1.37,9.823,9.823,0,0,1-.867-.874,4.3,4.3,0,0,1-.7-1.019,6.143,6.143,0,0,0,1.436,2.039,9.731,9.731,0,0,0,1.986,1.549,10.658,10.658,0,0,0,2.35.993,11.207,11.207,0,0,0,2.522.41,13.5,13.5,0,0,0,2.535-.113l.629-.1.616-.126a10.908,10.908,0,0,0,1.231-.344,13.04,13.04,0,0,0,4.276-2.648,30.9,30.9,0,0,0,5.885-7.864c.8-1.43,1.529-2.886,2.237-4.349S240.226,105.77,240.994,104.34Z" transform="translate(-110.619 -58.974)" fill="#263238"/>
      <path id="Path_1302" data-name="Path 1302" d="M255.612,92.923a13.3,13.3,0,0,0-.662-3.31,7.281,7.281,0,0,0-4.541-4.495,8.526,8.526,0,0,0-1.6-.377,7.89,7.89,0,0,0-1.628-.1,9.452,9.452,0,0,0-3.144.8,16.164,16.164,0,0,0-2.84,1.708c-1.8,1.324-3.469,2.86-5.2,4.336a45.5,45.5,0,0,1-5.481,4.13,44.575,44.575,0,0,1-6.176,2.992,50.744,50.744,0,0,0-6.156,2.8,13.239,13.239,0,0,0-2.727,1.986l-.6.589c-.185.218-.351.443-.53.662l-.265.331-.225.357-.443.728a11.511,11.511,0,0,1,4.554-5A52.188,52.188,0,0,1,224.07,98a50.15,50.15,0,0,0,6-3.078,44.689,44.689,0,0,0,5.348-4.091c1.734-1.456,3.4-3.005,5.3-4.336a16.807,16.807,0,0,1,3.018-1.741,9.519,9.519,0,0,1,3.429-.774,8.679,8.679,0,0,1,1.761.172,9.929,9.929,0,0,1,1.688.463,7.354,7.354,0,0,1,4.574,4.951,11.967,11.967,0,0,1,.43,3.356Z" transform="translate(-110.714 -52.091)" fill="#263238"/>
      <path id="Path_1303" data-name="Path 1303" d="M278.273,95.6c-.079-.821-.794-1.8-1.324-1.88s-4.25,2.078-4.468,3.124,1.635,1.714,1.635,1.714Z" transform="translate(-130.681 -55.383)" fill="#464698"/>
      <path id="Path_1304" data-name="Path 1304" d="M290.493,113.029c4.773-10.591,9.393-18.872,16.548-31.409,3.72-6.527,10.194-17.038,11.855-19.858,2.191-3.68,17.839,10.591,16.072,12.908-1.152,1.529-7.712,11.021-14.046,17.733-8.135,8.605-14.139,16.6-23.221,25.5C290.837,124.646,287.342,120.025,290.493,113.029Z" transform="translate(-136.382 -44.376)" fill="#ffc4c0"/>
      <path id="Path_1305" data-name="Path 1305" d="M346.079,71.927C350,70.4,361.912,62,363.885,59.853s7.208-8.843,5.7-10.525-3.2.146-3.2.146,1.986-3.435.086-4.72c-1.509-1.019-4.018,1.43-4.018,1.43s1.986-3.879-.066-4.912c-1.86-.947-3.9,2.383-3.9,2.383s1.324-3.416-.662-3.972c-2.363-.662-4.634,5.229-7.017,7.467-.536.51-15.6,9.6-15.6,9.6Z" transform="translate(-151.894 -37.099)" fill="#ffc4c0"/>
      <path id="Path_1306" data-name="Path 1306" d="M366.715,45.377c-2.164,4.25-3.184,5.957-6.871,8.671-.073.053,0,.172.066.119,3.859-2.337,5.216-4.256,7.023-8.718C367.02,45.231,366.821,45.178,366.715,45.377Z" transform="translate(-160.212 -38.999)" fill="#263238"/>
      <path id="Path_1307" data-name="Path 1307" d="M372.469,49.451c-2.184,4.356-3.806,6-7.48,9.141a.059.059,0,0,0,.073.093c3.846-2.774,5.957-4.561,7.539-9.194C372.694,49.279,372.568,49.252,372.469,49.451Z" transform="translate(-161.954 -40.372)" fill="#263238"/>
      <path id="Path_1308" data-name="Path 1308" d="M377.9,54.658c-2.39,4.064-4.064,6.063-8,8.658a.086.086,0,0,0,.086.146,15.649,15.649,0,0,0,8.036-8.718C378.149,54.473,378.07,54.4,377.9,54.658Z" transform="translate(-163.61 -42.124)" fill="#263238"/>
      <path id="Path_1309" data-name="Path 1309" d="M330.89,59.205s1.622-6.388,7.685-8.738c2.443-.953,5.865-8.215,8.122-8.069,2.522.165.715,6.738-2.357,10.273,0,0,4.1,6.513,1.324,10.048-.6.768-5,3.2-6.1,2.972Z" transform="translate(-150.433 -38.033)" fill="#ffc4c0"/>
      <path id="Path_1310" data-name="Path 1310" d="M350.854,58.375c1.688,2.482,2.86,6.249,1.661,8.989a.068.068,0,0,0,.119.066c1.688-2.76.364-7.136-1.271-9.267C351.046,57.76,350.417,57.74,350.854,58.375Z" transform="translate(-157.132 -43.266)" fill="#263238"/>
      <path id="Path_1311" data-name="Path 1311" d="M280.311,168.116l-1.033,5.454H245.52s5.3-27.662,17.641-35.87c6.182-4.1,11.822-2.3,14.563,2.3.7,1.165,7.758,13.371,7.559,19.2C285.1,164.389,280.311,168.116,280.311,168.116Z" transform="translate(-121.573 -69.477)" fill="#ffc4c0"/>
      <path id="Path_1312" data-name="Path 1312" d="M286.273,167.562c-.179,4.839-4.409,8.426-4.931,8.857h0L248.43,174.2c.768-2.687,1.761-5.838,3.025-9.088a60.368,60.368,0,0,0,9.79-.444c1.436-.271,4.634-5.057,8.724-4.567s8.181,4.567,8.181,4.567a13.239,13.239,0,0,1,6.686-3.859A20.6,20.6,0,0,1,286.273,167.562Z" transform="translate(-122.556 -77.814)" fill="#263238"/>
      <path id="Path_1313" data-name="Path 1313" d="M277.354,140.325a8.85,8.85,0,0,0-.576-.861c.973,2.82,2.813,9.035.444,9.651-2.6.662-9.148-9.486-11.173-12.736a15.078,15.078,0,0,0-3.257,1.648c-9.472,6.189-17.409,28.543-18.382,35.85h34.5l1.026-5.454s4.786-3.727,4.978-8.89C285.112,153.7,278.05,141.5,277.354,140.325Zm-12.861,13.537c-1.748,3.78-5.726,6.712-8.373,6.355-2.165-.3-3.177-3.237-2.317-6.99,1.483-6.394,7.791-15.82,10.664-15.6C267.763,137.889,267.392,147.567,264.493,153.862Z" transform="translate(-121.197 -69.806)" fill="#263238"/>
      <path id="Path_1314" data-name="Path 1314" d="M281.552,177.9a31.977,31.977,0,0,1,5.428,1.423c.88.331,1.734.715,2.595,1.112.424.205.854.384,1.324.563a4.977,4.977,0,0,0,1.4.41c.04,0,.033.079,0,.079a8.547,8.547,0,0,1-1.364-.113,9.148,9.148,0,0,1-1.284-.377c-.894-.324-1.774-.7-2.648-1.039-1.8-.662-3.594-1.324-5.428-1.88C281.433,178.058,281.466,177.879,281.552,177.9Z" transform="translate(-133.729 -83.841)" fill="#263238"/>
      <path id="Path_1315" data-name="Path 1315" d="M274.475,180.421a34.418,34.418,0,0,1,4.6,0c.768.06,1.522.172,2.284.3.357.066.722.139,1.079.218s.781.238,1.178.318c.046,0,.04.086,0,.079-.377-.066-.768-.046-1.145-.086l-1.145-.106c-.761-.066-1.522-.126-2.29-.205-1.522-.159-3.045-.291-4.574-.384C274.375,180.566,274.4,180.421,274.475,180.421Z" transform="translate(-131.338 -84.668)" fill="#263238"/>
      <path id="Path_1316" data-name="Path 1316" d="M249.2,162.482a90.637,90.637,0,0,0,9.823,0c6.308-.43,13.424-1.575,13.57-1.483.265.172,12.7-.119,12.7-.119l.96.543.152-.662-.854-.463a6.182,6.182,0,0,0,.2-2.939c-.291-1.556-2.648-7.943-2.714-8.122s-4.144-9.413-4.2-9.466-.437-.338-.437-.338l4.064,9.856a27.98,27.98,0,0,1-4.071.589,49.011,49.011,0,0,1-4.991-.5s-2.913-7.652-3.376-8.44-2.039-4.713-2.2-4.634a4.559,4.559,0,0,1-.457.126s2.383,5.957,2.727,6.566,2.568,6.825,2.568,6.825.477,5.19.5,6.123a34.967,34.967,0,0,1-.622,4.111s-7.083,1.039-13.338,1.575c-5.216.457-9.783.43-9.85.43S249.2,162.482,249.2,162.482Z" transform="translate(-122.817 -69.782)" fill="#fff"/>
      <path id="Path_1317" data-name="Path 1317" d="M289.718,160.624l.3,6.381c0,.338-.165.6-.391.616s-.417-.238-.43-.576l-.251-5.3-.285.258a.3.3,0,0,1-.205.1.417.417,0,0,1-.364-.285.748.748,0,0,1,.1-.821l.874-.834h.113a.073.073,0,0,1,.053,0h.179s.033.033.046.033a.073.073,0,0,0,.033,0v.033l.033.04c.033.04,0,0,0,.046l.033.04h0v.106a.3.3,0,0,1,0,.053.113.113,0,0,0,0,.079Z" transform="translate(-135.937 -77.846)" fill="#263238"/>
      <path id="Path_1318" data-name="Path 1318" d="M293.469,160.448l.3,6.388c0,.331-.165.6-.391.616s-.417-.245-.437-.583l-.245-5.3-.291.265a.265.265,0,0,1-.2.093.4.4,0,0,1-.364-.285.741.741,0,0,1,.093-.821l.88-.827h.079a.086.086,0,0,1,.053,0h.113a.06.06,0,0,1,.046,0h.046l.033.033h0l.033.046a.106.106,0,0,1,0,.04l.033.04h0v.033a.126.126,0,0,1,0,.053.274.274,0,0,1,0,.053v.053a.192.192,0,0,0,0,.073Z" transform="translate(-137.206 -77.788)" fill="#263238"/>
      <path id="Path_1319" data-name="Path 1319" d="M299.092,160.309l-1.556,6.487c-.053.225-.192.364-.364.371a.284.284,0,0,1-.159-.033.755.755,0,0,1-.258-.768l1.324-5.626-1.913.086c-.225,0-.424-.265-.437-.589s.159-.6.377-.609l2.548-.119a.145.145,0,0,1,.073,0,.45.45,0,0,1,.159.079v.033a.059.059,0,0,1,0,.04l.033.04v.046a.451.451,0,0,1,0,.053v.106a.173.173,0,0,0,0,.053,1.425,1.425,0,0,1,0,.238C299.1,160.242,299.1,160.275,299.092,160.309Z" transform="translate(-138.547 -77.623)" fill="#263238"/>
      <path id="Path_1320" data-name="Path 1320" d="M280.91,130.577c.126.748,3.349,5.765,6.738,5.825,1.1,0,1.463-6,1.463-6l.126-.443,1.787-6.13-7.01-5.17L283,118s-.377,1.708-.827,3.846a1.327,1.327,0,0,1-.066.3c-.026.106-.053.232-.073.344-.073.318-.146.662-.212.966s-.1.49-.139.748-.093.516-.146.781a41.793,41.793,0,0,0-.622,5.587Z" transform="translate(-133.537 -63.592)" fill="#ffc4c0"/>
      <path id="Path_1321" data-name="Path 1321" d="M282.81,121.833a12.815,12.815,0,0,0,7.069,8.129l1.787-6.13-7.01-5.17L283.637,118S283.26,119.695,282.81,121.833Z" transform="translate(-134.179 -63.592)" fill="#263238"/>
      <path id="Path_1322" data-name="Path 1322" d="M293.473,100.749c5.487,9.783.245,14.172-1.867,15.35-1.913,1.072-8.605,4.481-15.039-4.68s-3.654-14.807.6-17.488S287.985,90.972,293.473,100.749Z" transform="translate(-130.782 -54.913)" fill="#ffc4c0"/>
      <path id="Path_1323" data-name="Path 1323" d="M299.092,103.4a5.9,5.9,0,0,1-.735.232,1.244,1.244,0,0,1-.8.093.4.4,0,0,1-.238-.424.986.986,0,0,1,.735-.662,1.463,1.463,0,0,1,1.046,0,.424.424,0,0,1-.007.761Z" transform="translate(-139.082 -58.367)" fill="#263238"/>
      <path id="Path_1324" data-name="Path 1324" d="M289.993,108.542a5.374,5.374,0,0,0,.6-.5,1.231,1.231,0,0,0,.516-.616.391.391,0,0,0-.232-.43.966.966,0,0,0-.966.252,1.417,1.417,0,0,0-.569.88.424.424,0,0,0,.655.41Z" transform="translate(-136.385 -59.86)" fill="#263238"/>
      <path id="Path_1325" data-name="Path 1325" d="M298.4,119.11a1.152,1.152,0,0,0,.768.119,1.886,1.886,0,0,0,.662-.53h.046a1.026,1.026,0,0,1-.662.8.814.814,0,0,1-.834-.351C298.317,119.137,298.363,119.1,298.4,119.11Z" transform="translate(-139.433 -63.829)" fill="#263238"/>
      <path id="Path_1326" data-name="Path 1326" d="M298.6,110.078s.7.92.953,1.39c0,.04-.073.126-.232.225h0a2.562,2.562,0,0,1-2.648.371.06.06,0,0,1,.033-.106,3.839,3.839,0,0,0,2.363-.549c-.04-.146-1.238-1.536-1.165-1.582a4.634,4.634,0,0,1,1.2-.351c-1.383-1.986-3.071-3.68-4.422-5.646a.073.073,0,0,1,.106-.1,38.862,38.862,0,0,1,5.024,5.878C300,109.86,298.859,110.052,298.6,110.078Z" transform="translate(-138.187 -58.762)" fill="#263238"/>
      <path id="Path_1327" data-name="Path 1327" d="M299.812,116a2.608,2.608,0,0,1-.536,1.191,1.179,1.179,0,0,1-.6.371c-.51.119-.741-.285-.847-.662a2.489,2.489,0,0,1-.086-.662A3.309,3.309,0,0,0,299.812,116Z" transform="translate(-139.226 -62.916)" fill="#263238"/>
      <path id="Path_1328" data-name="Path 1328" d="M299.32,117.567a1.178,1.178,0,0,1-.6.371c-.51.119-.741-.285-.847-.662a1.2,1.2,0,0,1,1.45.291Z" transform="translate(-139.27 -63.304)" fill="#ff9cbd"/>
      <path id="Path_1329" data-name="Path 1329" d="M291.69,112.513a.709.709,0,0,1-.06.271.5.5,0,0,1-.3.311c-.437.172-.841-.172-1.086-.582v-.04c.285.126.6.245.821.086a1.026,1.026,0,0,0,.271-.51A2.962,2.962,0,0,0,291.69,112.513Z" transform="translate(-136.691 -61.581)" fill="#263238"/>
      <path id="Path_1330" data-name="Path 1330" d="M291.956,112.078a1.218,1.218,0,0,1-.066-.662.894.894,0,0,1,.41-.569.788.788,0,0,1,.708,0,1.364,1.364,0,0,1,.5.4,2.409,2.409,0,0,1,.212.318,1.741,1.741,0,0,1,.238.755,3.015,3.015,0,0,0-.311-.483,3.969,3.969,0,0,0-.357-.384c-.258-.238-.569-.384-.794-.238a.662.662,0,0,0-.252.794,5.588,5.588,0,0,0,.357,1.046,2.476,2.476,0,0,1-.642-.973Z" transform="translate(-137.242 -61.146)" fill="#263238"/>
      <path id="Path_1331" data-name="Path 1331" d="M301.435,106.451a1.032,1.032,0,0,0,.258.1.53.53,0,0,0,.43-.086.94.94,0,0,0,.106-1.225s-.04-.046-.046,0c-.053.311-.126.662-.377.735a.973.973,0,0,1-.576-.053,2.462,2.462,0,0,1,.205.53Z" transform="translate(-140.406 -59.271)" fill="#263238"/>
      <path id="Path_1332" data-name="Path 1332" d="M300.927,106.5a1.271,1.271,0,0,0-.5-.4.893.893,0,0,0-.7.033.8.8,0,0,0-.41.576,1.43,1.43,0,0,0,.06.662c.046.119.1.238.152.351a1.748,1.748,0,0,0,.51.609,2.36,2.36,0,0,1-.238-.53,3.309,3.309,0,0,1-.132-.5c-.053-.351,0-.662.238-.794a.662.662,0,0,1,.8.225,5.34,5.34,0,0,1,.662.867A2.482,2.482,0,0,0,300.927,106.5Z" transform="translate(-139.753 -59.551)" fill="#263238"/>
      <path id="Path_1333" data-name="Path 1333" d="M280.854,94.546a4.958,4.958,0,0,1,1.238,2.648c.106,2.807-2.906,3.634-3.363,5s.775,2.853.43,4.1c-.483,1.721-1.655,1.284-1.423,2.151s1.006,3.608.185,4.442-13.987-13.239-.794-19.474c0,0,1.4-1.774,4.872-1.714,4.984.086,8.294,4.832,8.294,4.832a3.634,3.634,0,0,1-1.516.079c-.907-.218-1.436-.47-2.078-.589-1.013-.179-1.244.45-2.277.3A9.985,9.985,0,0,1,280.854,94.546Z" transform="translate(-130.284 -54.7)" fill="#263238"/>
      <path id="Path_1334" data-name="Path 1334" d="M283.152,95.22A9.848,9.848,0,0,1,284.569,97a4.064,4.064,0,0,1,.735,2.065,3.038,3.038,0,0,1-.907,1.966c-.5.549-1.139.966-1.661,1.582a2.291,2.291,0,0,0-.523,1.105,3.078,3.078,0,0,0,.139,1.191,4.03,4.03,0,0,1,.225,2.165,2.542,2.542,0,0,1-1.324,1.635,5.264,5.264,0,0,0-1.953,1.158c.536-.583,1.324-.662,2.026-1a2.714,2.714,0,0,0,1.542-1.721,4.011,4.011,0,0,0-.172-2.323,2.841,2.841,0,0,1-.119-1.059,1.986,1.986,0,0,1,.463-.927c.463-.563,1.105-1,1.628-1.589a3.826,3.826,0,0,0,.662-.986,2.39,2.39,0,0,0,.258-1.172,4.257,4.257,0,0,0-.867-2.158,9.651,9.651,0,0,0-1.569-1.714Z" transform="translate(-132.993 -55.891)" fill="#263238"/>
      <path id="Path_1335" data-name="Path 1335" d="M286,95.91a7.943,7.943,0,0,0,1.562,1.456,3.753,3.753,0,0,0,2.045.741,5.427,5.427,0,0,0,1.072-.119,1.741,1.741,0,0,1,.947.1,5.628,5.628,0,0,0,.96.47,2.363,2.363,0,0,0,1.072.046,2.562,2.562,0,0,1-1.006-.218,5.116,5.116,0,0,1-.894-.543,1.847,1.847,0,0,0-1.119-.192,5.64,5.64,0,0,1-1.019.1,3.972,3.972,0,0,1-1.9-.662A16.553,16.553,0,0,1,286,95.91Z" transform="translate(-135.258 -56.124)" fill="#263238"/>
      <path id="Path_1336" data-name="Path 1336" d="M279.379,119.834s-3.561-2.356-4.713-.96,2.416,5.434,4.408,5.395a1.893,1.893,0,0,0,1.986-1.88Z" transform="translate(-131.35 -63.738)" fill="#ffc4c0"/>
      <path id="Path_1337" data-name="Path 1337" d="M276.362,120.764c-.033,0,0,.053,0,.053a4.777,4.777,0,0,1,3.409,1.873,1.046,1.046,0,0,0-1.562.311c0,.04,0,.073.06.053a1.165,1.165,0,0,1,1.324-.093,5.675,5.675,0,0,1,.953.741c.1.086.271-.053.179-.159h0C280.149,121.955,278.1,120.261,276.362,120.764Z" transform="translate(-131.994 -64.496)" fill="#263238"/>
      <path id="Path_1338" data-name="Path 1338" d="M302.342,109.18a12.351,12.351,0,0,1,1.258,4.514,9.473,9.473,0,0,1-.1,2.37,9.932,9.932,0,0,1-.265,1.165,10.086,10.086,0,0,1-.444,1.119,8.869,8.869,0,0,1-1.324,1.986,9.087,9.087,0,0,1-1.834,1.509,9.6,9.6,0,0,1-4.455,1.4,10.591,10.591,0,0,0,2.224-.662,9.876,9.876,0,0,0,3.727-2.568,8.2,8.2,0,0,0,1.244-1.88,9.155,9.155,0,0,0,.874-4.415,12.7,12.7,0,0,0-.258-2.284A14.962,14.962,0,0,0,302.342,109.18Z" transform="translate(-138.361 -60.61)" fill="#263238"/>
      <path id="Path_1339" data-name="Path 1339" d="M266.568,149.487c-.159-.258-.318-.516-.483-.774,1.033,1.046,2.1,2.039,3.217,3,0,0,.066,0,.04-.04-1.092-1.258-2.2-2.489-3.363-3.687-.549-.563-1.079-1.145-1.648-1.695s-1.324-1.2-1.906-1.847c-.073-.079-.2,0-.126.1.576.616,1.092,1.284,1.648,1.926s.993,1.086,1.509,1.609a6.45,6.45,0,0,0,.324.6c.2.311.4.616.616.913.437.589.9,1.165,1.324,1.741C267.336,150.758,266.946,150.1,266.568,149.487Z" transform="translate(-127.238 -72.521)" fill="#263238"/>
      <path id="Path_1340" data-name="Path 1340" d="M252.522,111.794a345.939,345.939,0,0,0-16.9-32.686c-3.972-6.93-8.963-15.224-10.73-18.216-2.323-3.912-18.938,11.207-17.058,13.7,1.218,1.628,5.256,6.884,12.385,15.33A362.87,362.87,0,0,0,244.876,117C252.158,124.126,255.871,119.221,252.522,111.794Z" transform="translate(-108.783 -44.068)" fill="#ffc4c0"/>
      <path id="Path_1341" data-name="Path 1341" d="M201.229,70.1c-4.17-1.615-16.807-10.512-18.9-12.822s-7.652-9.38-6.05-11.167,3.4.152,3.4.152-2.1-3.647-.093-5.011c1.6-1.086,4.263,1.516,4.263,1.516s-2.092-4.117.073-5.216c1.986-1,4.144,2.529,4.144,2.529s-1.4-3.621.662-4.223c2.509-.715,4.938,5.56,7.447,7.943C196.734,44.347,212.713,54,212.713,54Z" transform="translate(-98.066 -35.805)" fill="#ffc4c0"/>
      <path id="Path_1342" data-name="Path 1342" d="M194.215,41.93c2.3,4.514,3.389,6.315,7.281,9.208.073.053,0,.179-.079.126-4.1-2.482-5.534-4.521-7.453-9.267C193.9,41.771,194.109,41.712,194.215,41.93Z" transform="translate(-104.139 -37.829)" fill="#263238"/>
      <path id="Path_1343" data-name="Path 1343" d="M187.84,46.247c2.284,4.634,4.038,6.374,7.943,9.7a.067.067,0,0,1-.079.106c-4.078-2.952-6.328-4.852-8-9.77C187.595,46.068,187.734,46.035,187.84,46.247Z" transform="translate(-102.013 -39.287)" fill="#263238"/>
      <path id="Path_1344" data-name="Path 1344" d="M181.747,51.773c2.535,4.316,4.316,6.441,8.5,9.194a.093.093,0,0,1-.093.159,16.607,16.607,0,0,1-8.532-9.267C181.5,51.575,181.588,51.5,181.747,51.773Z" transform="translate(-99.952 -41.146)" fill="#263238"/>
      <path id="Path_1345" data-name="Path 1345" d="M226.94,56.611s-1.721-6.785-8.155-9.267c-2.6-1.006-6.235-8.718-8.605-8.565-2.648.179-.761,7.156,2.5,10.909,0,0-4.356,6.911-1.39,10.67.662.814,5.3,3.389,6.474,3.157Z" transform="translate(-109.202 -36.809)" fill="#ffc4c0"/>
      <path id="Path_1346" data-name="Path 1346" d="M213.469,55.73c-1.787,2.648-3.038,6.619-1.761,9.538a.076.076,0,1,1-.132.073c-1.787-2.932-.384-7.579,1.357-9.836C213.264,55.068,213.933,55.068,213.469,55.73Z" transform="translate(-109.817 -42.362)" fill="#263238"/>
      <path id="Path_1347" data-name="Path 1347" d="M216,180.75C207.98,176.93,185,169.126,169.3,165.333c-14.053-3.382-28.576,1.5-42.615,6.209-8.877,2.979-17.257,5.792-25.385,6.54-31.9,2.939-42.317-19.726-43.026-20.692l5.891,1.469,1.039-6.58c.6.808,8.393,19.712,35.314,17.21,7.129-.662,15.046-3.31,23.432-6.13,14.49-4.865,30.912-10.379,47.368-6.421,16.277,3.912,41.252,11.69,47.1,15.509Z" transform="translate(-58.27 -75.181)" fill="#464698"/>
      <path id="Path_1348" data-name="Path 1348" d="M128.17,434.307l6.189-1.119s-6.619-6.752-2.548-10.909,10.147-.483,10.147-.483-.947-9.883,6.7-11.948,14.364,12.7,14.364,12.7,1.125-3.469,6.831-2.1,10.214,9.135,10.214,9.135l117.3,4.667" transform="translate(-81.901 -162.189)" fill="#fff"/>
      <path id="Path_1349" data-name="Path 1349" d="M128.17,434.247l6.182-1.145v.046a17.044,17.044,0,0,1-3.257-4.819,7.619,7.619,0,0,1-.662-2.846,4.521,4.521,0,0,1,.874-2.78,5.719,5.719,0,0,1,1.013-1.066,6.42,6.42,0,0,1,1.238-.808,6.752,6.752,0,0,1,2.846-.662,11.392,11.392,0,0,1,5.62,1.5l-.165.106a16.666,16.666,0,0,1,.291-4.442,11.835,11.835,0,0,1,1.628-4.137,8.281,8.281,0,0,1,5.454-3.647,5.891,5.891,0,0,1,2.257.066,9.611,9.611,0,0,1,3.972,2.065,21.435,21.435,0,0,1,3.091,3.2,40.3,40.3,0,0,1,4.634,7.573h-.278a3.852,3.852,0,0,1,1.946-1.986,6,6,0,0,1,2.714-.523,10.293,10.293,0,0,1,5.229,1.562,19.084,19.084,0,0,1,4.137,3.574,30.16,30.16,0,0,1,3.25,4.4l-.086-.053L297.4,434.2l-117.308-4.567h-.053v-.046a29.239,29.239,0,0,0-3.243-4.349,18.68,18.68,0,0,0-4.1-3.508,10.022,10.022,0,0,0-5.1-1.509,5.68,5.68,0,0,0-2.588.51,3.535,3.535,0,0,0-1.781,1.82l-.132.318-.146-.3a40.128,40.128,0,0,0-4.634-7.486,20.8,20.8,0,0,0-3.032-3.164,9.366,9.366,0,0,0-3.819-2.025,5.7,5.7,0,0,0-2.224-.066,8.142,8.142,0,0,0-2.059.662,7.877,7.877,0,0,0-3.23,2.84,11.643,11.643,0,0,0-1.6,4.051,16.688,16.688,0,0,0-.311,4.369v.205l-.179-.1a11.173,11.173,0,0,0-5.5-1.5,6.573,6.573,0,0,0-2.774.662,6.229,6.229,0,0,0-2.191,1.807,4.349,4.349,0,0,0-.847,2.648,7.473,7.473,0,0,0,.609,2.8,17.117,17.117,0,0,0,3.184,4.826l.04.04h-.053Z" transform="translate(-81.901 -162.128)" fill="#263238"/>
      <path id="Path_1350" data-name="Path 1350" d="M225.963,187.2c-3.31.132-6.619.2-9.929.252s-6.619.053-9.929.079-6.619,0-9.929-.079l-4.971-.093c-1.655-.053-3.31-.086-4.965-.159,1.655-.073,3.31-.106,4.965-.165l4.971-.093c3.31-.053,6.619-.046,9.929-.073s6.619,0,9.929.079S222.646,187.057,225.963,187.2Z" transform="translate(-101.532 -86.87)" fill="#263238"/>
      <path id="Path_1351" data-name="Path 1351" d="M303.219,68.667c-3.31.132-6.619.2-9.929.252s-6.619.046-9.929.073-6.619,0-9.929-.073l-4.971-.093c-1.655-.053-3.31-.086-4.971-.159,1.661-.079,3.31-.113,4.971-.165l4.971-.093c3.31-.053,6.619-.053,9.929-.073s6.619,0,9.929.073S299.9,68.528,303.219,68.667Z" transform="translate(-127.648 -46.8)" fill="#263238"/>
      <path id="Path_1352" data-name="Path 1352" d="M318.1,74.73c-2.171.139-4.336.2-6.507.252s-4.336.073-6.5.079-4.342,0-6.507-.073l-3.25-.093c-1.079-.06-2.164-.086-3.25-.165,1.086-.073,2.171-.106,3.25-.159l3.257-.093c2.165-.06,4.336-.073,6.507-.079s4.336,0,6.5.079S315.933,74.6,318.1,74.73Z" transform="translate(-137.316 -48.852)" fill="#263238"/>
      <path id="Path_1353" data-name="Path 1353" d="M99.307,260.026c-2.906.132-5.818.2-8.724.252s-5.818.053-8.724.079-5.818,0-8.731-.079l-4.356-.093c-1.456-.053-2.913-.086-4.362-.159,1.45-.073,2.906-.106,4.362-.165l4.362-.093c2.913-.053,5.818-.046,8.731-.073s5.818,0,8.724.079S96.4,259.894,99.307,260.026Z" transform="translate(-60.346 -111.491)" fill="#263238"/>
      <path id="Path_1354" data-name="Path 1354" d="M128.35,251.016c-2.913.132-5.818.2-8.731.252s-5.818.053-8.724.079-5.818,0-8.731-.079l-4.362-.093c-1.456-.053-2.906-.086-4.362-.159,1.456-.079,2.906-.106,4.362-.165l4.362-.093c2.913-.053,5.818-.046,8.731-.073s5.818,0,8.724.073S125.438,250.89,128.35,251.016Z" transform="translate(-70.16 -108.445)" fill="#263238"/>
      <path id="Path_1355" data-name="Path 1355" d="M226.873,200.071c-4.634.139-9.267.2-13.9.252l-13.9.079-13.9-.073-6.937-.093c-2.317-.06-4.634-.086-6.944-.165,2.317-.073,4.634-.106,6.944-.159l6.937-.093,13.9-.079,13.9.079C217.625,199.872,222.246,199.912,226.873,200.071Z" transform="translate(-96.478 -91.226)" fill="#263238"/>
      <path id="Path_1356" data-name="Path 1356" d="M342.036,428.726c-3.349.139-6.7.2-10.048.251s-6.705.053-10.055.079-6.7,0-10.048-.079l-5.031-.093c-1.675-.053-3.349-.086-5.024-.159,1.675-.073,3.349-.106,5.024-.165l5.031-.093c3.349-.046,6.7-.046,10.048-.073s6.705,0,10.055.079S338.687,428.587,342.036,428.726Z" transform="translate(-140.609 -168.523)" fill="#263238"/>
      <path id="Path_1357" data-name="Path 1357" d="M318.837,435.261c-4.733.139-9.472.205-14.205.258l-14.212.073-14.205-.073-7.1-.093c-2.37-.053-4.733-.086-7.1-.166,2.37-.073,4.733-.106,7.1-.159l7.1-.093,14.205-.079,14.212.079C309.365,435.062,314.1,435.129,318.837,435.261Z" transform="translate(-127.147 -170.735)" fill="#263238"/>
      <path id="Path_1358" data-name="Path 1358" d="M187.908,192.076c-3.972.132-7.99.2-11.981.252s-7.99.046-11.981.079-7.99,0-11.988-.079l-5.99-.093c-1.986-.053-3.972-.086-5.957-.159,1.986-.079,3.972-.113,5.957-.165l5.99-.093c3.972-.053,7.99-.046,11.988-.073s7.983,0,11.981.073S183.916,191.91,187.908,192.076Z" transform="translate(-85.903 -88.519)" fill="#263238"/>
    </g>
  </g>
</svg>
