<svg xmlns="http://www.w3.org/2000/svg" width="176.609" height="184.585" viewBox="0 0 176.609 184.585">
  <g id="تسجيل_الخدول" data-name="تسجيل الخدول" transform="translate(-47.18 -49.45)">
    <g id="freepik--background-complete--inject-74" transform="translate(47.18 49.45)">
      <path id="Path_221" data-name="Path 221" d="M410.752,268.888l5.818-.122,2.868-.048c.954-.022,1.9,0,2.855-.026l-.2.2-.022-4.877.218.218-5.77-.031c-1.926,0-3.848-.048-5.77-.07l.118-.118c0,.8-.039,1.6-.057,2.41Zm0,0-.065-2.415c0-.815-.048-1.634-.057-2.462v-.135h.122c1.922,0,3.844-.065,5.77-.07l5.77-.026h.218V264l-.026,4.877v.231h-.192c-.976,0-1.948,0-2.92-.022l-2.9-.048Z" transform="translate(-252.339 -170.368)" fill="#f1f1f9"/>
      <path id="Path_222" data-name="Path 222" d="M425.522,283.021l5.818-.122,2.868-.048c.954-.022,1.9,0,2.855-.026l-.2.2v-4.877l.218.218-5.77-.031c-1.926,0-3.848-.048-5.77-.07l.118-.118c0,.8-.039,1.6-.057,2.41Zm0,0-.061-2.415c-.022-.815-.052-1.634-.061-2.462v-.118h.122c1.922-.022,3.844-.065,5.77-.07l5.77-.026h.218v.218l-.026,4.877v.2h-.192c-.972,0-1.948,0-2.92-.022l-2.9-.048Z" transform="translate(-260.672 -178.35)" fill="#f1f1f9"/>
      <rect id="Rectangle_583" data-name="Rectangle 583" width="11.541" height="4.877" transform="translate(163.49 104.666) rotate(180)" fill="#f1f1f9"/>
      <path id="Path_223" data-name="Path 223" d="M47.688,360.261l5.823-.122,2.868-.048c.95,0,1.9,0,2.85-.026l-.192.2-.026-4.877.218.218-5.77-.03c-1.922,0-3.844-.048-5.77-.07l.118-.118c0,.8-.035,1.6-.057,2.41Zm0,0-.061-2.415c-.022-.815-.048-1.634-.057-2.462v-.118h.118c1.926-.022,3.848-.065,5.77-.07l5.77-.026h.218v5.291h-.2c-.972,0-1.948,0-2.916-.022l-2.911-.057Z" transform="translate(-47.513 -221.927)" fill="#f1f1f9"/>
      <rect id="Rectangle_584" data-name="Rectangle 584" width="11.541" height="4.877" transform="translate(18.157 144.479) rotate(180)" fill="#f1f1f9"/>
      <path id="Path_224" data-name="Path 224" d="M116.3,151.265l5.823-.122,2.868-.048c.95-.022,1.9,0,2.85-.022l-.192.192-.026-4.877.218.218-5.77-.026c-1.922,0-3.848-.048-5.77-.074l.118-.118c0,.8-.035,1.6-.057,2.415Zm0,0-.061-2.41c0-.815-.048-1.639-.057-2.467v-.118h.118c1.922-.022,3.848-.07,5.77-.07l5.77-.031h.218v.218l-.022,4.877v.2h-.192c-.972,0-1.948,0-2.916-.026l-2.9-.048Z" transform="translate(-86.221 -104.016)" fill="#f1f1f9"/>
      <rect id="Rectangle_585" data-name="Rectangle 585" width="11.541" height="4.877" transform="translate(18.096 5.095) rotate(180)" fill="#f1f1f9"/>
      <path id="Path_225" data-name="Path 225" d="M47.562,68.655l5.818-.109,2.868-.048H59.1l-.2.192V63.813l.218.218L53.35,63.97c-1.926,0-3.848-.048-5.77-.074l.118-.118c0,.8-.039,1.6-.057,2.415Zm0,0-.065-2.41c0-.815-.048-1.639-.057-2.467V63.66h.122c1.922,0,3.844-.07,5.77-.074l5.77-.026h.218v.218l-.026,4.877v.2H59.1c-.976,0-1.948,0-2.92-.026l-2.9-.048Z" transform="translate(-47.44 -57.41)" fill="#f1f1f9"/>
      <path id="Path_226" data-name="Path 226" d="M410.752,54.545l5.818-.122,2.868-.048h2.855l-.2.192-.022-4.877.218.218-5.77-.026c-1.926,0-3.848-.048-5.77-.074l.118-.118c0,.8-.039,1.6-.057,2.415Zm0,0-.065-2.41c0-.815-.048-1.639-.057-2.467V49.55h.122c1.922,0,3.844-.07,5.77-.074l5.77-.026h.218v.24l-.026,4.877v.2h-.192c-.976,0-1.948,0-2.92-.026l-2.916-.07Z" transform="translate(-252.339 -49.45)" fill="#f1f1f9"/>
      <rect id="Rectangle_586" data-name="Rectangle 586" width="11.541" height="4.877" transform="translate(151.71 66.081) rotate(180)" fill="#f1f1f9"/>
    </g>
    <g id="freepik--Shadow--inject-74" transform="translate(52.375 224.978)">
      <ellipse id="Ellipse_31" data-name="Ellipse 31" cx="31.642" cy="4.528" rx="31.642" ry="4.528" fill="#f1f1f9"/>
    </g>
    <g id="freepik--Plant--inject-74" transform="translate(178.325 145.363)">
      <path id="Path_230" data-name="Path 230" d="M369.185,340.014c-3.225-6.629-8.869-10.024-15.254-8.154s-7.348,10.752-2.615,12.992,9.5-4.3,12.007-5.644S369.185,340.014,369.185,340.014Z" transform="translate(-348.346 -304.401)" fill="#464698"/>
      <path id="Path_231" data-name="Path 231" d="M376.557,359.725c0-.8-.048-1.6-.078-2.4-.057-1.6-.109-3.19-.166-4.794a22.511,22.511,0,0,0-1.634-8.473,13.123,13.123,0,0,0-5.117-5.9A10.783,10.783,0,0,0,366.873,337a6.275,6.275,0,0,0-3.142-1.743,12.838,12.838,0,0,0-4.472-.113c-.057,0-.052.092,0,.083a10.856,10.856,0,0,1,4.236.3,9.215,9.215,0,0,1,1.7.667,8.168,8.168,0,0,1,.985.623,9.153,9.153,0,0,0-3.888.039,8.555,8.555,0,0,0-1.347.436,4.2,4.2,0,0,0-1.063-.091,6.683,6.683,0,0,0-1.377.2,10.349,10.349,0,0,0-2.615,1.146c-.048.026,0,.1.044.07a9.884,9.884,0,0,1,2.554-.963,8.819,8.819,0,0,1,1.307-.192,6.838,6.838,0,0,1,.732,0,8.442,8.442,0,0,0-4.114,4.1c-.022.048.052.092.074.039a7.749,7.749,0,0,1,5.23-4.2c.139-.035.283-.052.436-.083a6.39,6.39,0,0,0-.065.641c-.044.323-.1.645-.161.963a16.581,16.581,0,0,1-.519,1.944,15.312,15.312,0,0,1-.771,1.878,8.758,8.758,0,0,1-1.077,1.817.044.044,0,1,0,.07.048c.379-.6.824-1.151,1.172-1.77a12.981,12.981,0,0,0,.872-1.852,12.157,12.157,0,0,0,.567-1.987c.074-.357.126-.719.17-1.081a2.563,2.563,0,0,0,.039-.658,8.718,8.718,0,0,1,2.258-.044,12.262,12.262,0,0,1-1.469,4.6c-.031.048.048.092.074.039a18.3,18.3,0,0,0,1.09-2.262,8.568,8.568,0,0,0,.549-2.354,10.429,10.429,0,0,1,3.735,1.251,12.36,12.36,0,0,1,4.973,5.439,20.484,20.484,0,0,1,1.844,7.8c.209,3.386.253,6.8.593,10.177a.223.223,0,0,0,.436.044A12.3,12.3,0,0,0,376.557,359.725Z" transform="translate(-352.593 -306.461)" fill="#263238"/>
      <path id="Path_232" data-name="Path 232" d="M381.78,338.24a3.749,3.749,0,0,0-.732-.68,9.162,9.162,0,0,0-.819-.619,6.215,6.215,0,0,0-1.83-.872c-.052,0-.074.074,0,.083a4.908,4.908,0,0,1,1.809.872c.27.2.527.41.78.632a4.6,4.6,0,0,0,.741.628C381.754,338.345,381.815,338.288,381.78,338.24Z" transform="translate(-365.274 -307.064)" fill="#263238"/>
      <path id="Path_233" data-name="Path 233" d="M359.26,346.543a20.04,20.04,0,0,0-1.482,1.957,12.049,12.049,0,0,0-1.1,2.179c0,.022.026.035.039,0a26.243,26.243,0,0,1,2.615-4.1C359.356,346.56,359.3,346.5,359.26,346.543Z" transform="translate(-353.048 -312.965)" fill="#263238"/>
      <path id="Path_234" data-name="Path 234" d="M377.256,345.02a4.792,4.792,0,0,1-.362,1.2,8.318,8.318,0,0,1-.615,1.064c0,.022,0,.044.035.026a4.3,4.3,0,0,0,1.024-2.271C377.348,344.994,377.265,344.963,377.256,345.02Z" transform="translate(-364.106 -312.096)" fill="#263238"/>
      <path id="Path_235" data-name="Path 235" d="M402.3,346.244s4.568-5.744,13.38-3.709c8.381,1.935,12.247,17.3,3.783,19.137S412.49,349.295,409.4,346.88A7.3,7.3,0,0,0,402.3,346.244Z" transform="translate(-378.785 -310.465)" fill="#464698"/>
      <path id="Path_236" data-name="Path 236" d="M417.062,352.481a17.618,17.618,0,0,0-1.817-1.395,8.04,8.04,0,0,0-1.935-.968,12.1,12.1,0,0,0-1.151-1.477,11.6,11.6,0,0,0-2.663-2.123h.262a13.627,13.627,0,0,1,1.4,0,7.846,7.846,0,0,1,2.724.676c.048,0,.083-.057.035-.074a12.349,12.349,0,0,0-2.715-.819,7.7,7.7,0,0,0-1.377-.118,6.957,6.957,0,0,0-.741.044h-.144a11.835,11.835,0,0,0-2.541-.933l.248-.07a13.075,13.075,0,0,1,1.308-.214,10.307,10.307,0,0,1,2.641.039.044.044,0,0,0,0-.083,17.031,17.031,0,0,0-2.667-.1,11.057,11.057,0,0,0-2.218.288,11.58,11.58,0,0,0-1.6-.183,9.911,9.911,0,0,0-8.32,3.543c-1.892,2.528-2.262,5.9-2.615,8.952a67.75,67.75,0,0,0-.336,12.818c0,.248.375.2.379-.035.118-3.622.244-7.248.593-10.857.161-1.674.336-3.352.615-5.008a14.923,14.923,0,0,1,1.216-4.123,7.532,7.532,0,0,1,2.977-3.2,10.025,10.025,0,0,1,4.215-1.307,11.267,11.267,0,0,1,3.953.37,2.614,2.614,0,0,0-.022.78,4.552,4.552,0,0,0,.2.963,4.891,4.891,0,0,0,.366.872c.166.3.37.571.553.872a.041.041,0,1,0,.065-.048,4.026,4.026,0,0,1-.684-1.743,7.749,7.749,0,0,1-.1-.9v-.684A11.714,11.714,0,0,1,411,348.267c.214.174.436.353.623.54a4.391,4.391,0,0,0-.75.92,9.154,9.154,0,0,0-.784,1.395,12.038,12.038,0,0,0-.815,3.051.042.042,0,1,0,.083,0,8.88,8.88,0,0,1,1.007-2.9,11.862,11.862,0,0,1,.78-1.308c.148-.209.3-.436.462-.623.087-.109.183-.222.262-.34a12.169,12.169,0,0,1,2.5,3.522h0a5.893,5.893,0,0,0-1.024,1.547,13.548,13.548,0,0,0-.824,1.743,30.036,30.036,0,0,0-1.055,3.591c0,.052.074.07.083,0a15.3,15.3,0,0,1,1.251-3.543c.266-.549.545-1.094.837-1.63a15.888,15.888,0,0,0,.828-1.543,11.366,11.366,0,0,1,1.007,4.084c0,.052.087.048.083,0a14.251,14.251,0,0,0-1.979-6.267,15.06,15.06,0,0,1,1.6.732,8.949,8.949,0,0,1,1.831,1.307C417.044,352.582,417.1,352.516,417.062,352.481Z" transform="translate(-373.355 -312.017)" fill="#263238"/>
      <path id="Path_237" data-name="Path 237" d="M432.216,363.055c-.262.872-.6,1.717-.837,2.615a10.024,10.024,0,0,0-.379,2.571c0,.026.039.026.044,0a25.312,25.312,0,0,1,1.264-5.16.048.048,0,0,0-.092-.026Z" transform="translate(-394.977 -322.269)" fill="#263238"/>
      <path id="Path_238" data-name="Path 238" d="M443.29,356.452a4.88,4.88,0,0,0-1.168-.832,8.281,8.281,0,0,0-1.351-.479c-.052,0-.07.07,0,.083a5.071,5.071,0,0,1,1.307.536,9.712,9.712,0,0,1,1.2.737.026.026,0,0,0,.013-.044Z" transform="translate(-400.463 -317.823)" fill="#263238"/>
      <path id="Path_239" data-name="Path 239" d="M412.26,315.515s.841-10.312,8.507-13.655c6.4-2.789,10.068,4.4,5.544,8.808C422.65,314.234,416.78,312.626,412.26,315.515Z" transform="translate(-384.404 -287.412)" fill="#464698"/>
      <path id="Path_240" data-name="Path 240" d="M419.052,306.222a32.555,32.555,0,0,0-3.413,1.617,25.532,25.532,0,0,0-2.646,1.743c.126-.262.235-.532.366-.789.2-.4.414-.789.649-1.164a10.854,10.854,0,0,1,1.691-2.14c.039-.035-.026-.1-.061-.057a16.386,16.386,0,0,0-1.778,2.07,12.37,12.37,0,0,0-.728,1.164,4.8,4.8,0,0,0-.519,1.19l-.083.061a25.177,25.177,0,0,0-3.661,3.583c.022-.1.039-.2.07-.3.144-.5.3-1,.462-1.5a12.98,12.98,0,0,1,1.386-3.007c.031-.044-.044-.087-.074-.039a24.207,24.207,0,0,0-1.6,2.933,11.088,11.088,0,0,0-.532,1.525,6.562,6.562,0,0,0-.248,1.037c-.336.436-.662.85-.972,1.307a31.672,31.672,0,0,0-5.339,16.026,49.339,49.339,0,0,0-.087,5.078,31.721,31.721,0,0,0,.436,5.1c.022.109.187.074.187-.031-.039-1.491-.192-2.972-.222-4.463a43.911,43.911,0,0,1,.144-4.48,41.483,41.483,0,0,1,1.674-8.773,31.441,31.441,0,0,1,3.9-8.255c.323-.065.645-.153.963-.235s.767-.2,1.146-.3a11.5,11.5,0,0,0,2.136-.784.041.041,0,1,0-.044-.07,6.908,6.908,0,0,1-2.179.745c-.6.122-1.225.2-1.826.336.558-.811,1.151-1.6,1.783-2.345a13.363,13.363,0,0,0,4.358-.323,17.9,17.9,0,0,0,2.231-.7c.771-.3,1.495-.676,2.253-.994a.041.041,0,0,0-.035-.074,12.8,12.8,0,0,1-4.419,1.447,26.893,26.893,0,0,1-4.136.34c.545-.623,1.107-1.233,1.708-1.8a20.2,20.2,0,0,1,7.056-4.6C419.126,306.288,419.1,306.205,419.052,306.222Z" transform="translate(-378.561 -289.773)" fill="#263238"/>
      <path id="Path_241" data-name="Path 241" d="M424.837,307.319a11.417,11.417,0,0,0-.941,1.373,7.587,7.587,0,0,0-.676,1.6s0,.031.03,0c.257-.506.471-1.033.732-1.534a7.622,7.622,0,0,1,.915-1.395C424.933,307.333,424.867,307.276,424.837,307.319Z" transform="translate(-390.587 -290.835)" fill="#263238"/>
      <path id="Path_242" data-name="Path 242" d="M439.16,315.2a7.655,7.655,0,0,1-1.573.658,14.685,14.685,0,0,1-1.6.436c-.026,0-.022.048,0,.044a7.737,7.737,0,0,0,1.661-.362,14.542,14.542,0,0,0,1.552-.7A.044.044,0,0,0,439.16,315.2Z" transform="translate(-397.78 -295.288)" fill="#263238"/>
      <path id="Path_243" data-name="Path 243" d="M376.657,295.773a18.515,18.515,0,0,0-7.645-7.466c-5.884-3.378-12.914-12.164-7.139-17.717C366.532,266.11,378.81,275.877,376.657,295.773Z" transform="translate(-354.763 -269.517)" fill="#464698"/>
      <path id="Path_244" data-name="Path 244" d="M387.586,324.245a114.521,114.521,0,0,0-1.029-13.018,58.591,58.591,0,0,0-2.741-11.667c-.479-1.364-1.033-2.7-1.63-4.023a9.562,9.562,0,0,0-.026-1.543c-.031-.662-.092-1.308-.153-1.979s-.126-1.308-.2-1.974-.218-1.307-.244-1.966a.044.044,0,1,0-.083,0,13.971,13.971,0,0,1,.231,2.088q.078.954.1,1.909c.022.641,0,1.277,0,1.918,0,.227,0,.471-.022.719-.606-1.308-1.26-2.558-1.97-3.792a22.662,22.662,0,0,0-.68-8.128c0-.052-.092-.026-.078.026a23.018,23.018,0,0,1,.436,4.167c.026,1.1-.026,2.205-.031,3.308-.157-.262-.309-.527-.471-.789-.841-1.373-1.743-2.72-2.693-4.023a6.258,6.258,0,0,0-.061-1.913,15.018,15.018,0,0,0-.471-2.1,19.948,19.948,0,0,0-.719-2.022c-.283-.662-.654-1.329-.924-2.009-.026-.061-.109,0-.078.031a9.672,9.672,0,0,1,.811,2.035,17.843,17.843,0,0,1,.532,2.018c.139.68.248,1.364.344,2.057.065.436.1.928.183,1.386a49.96,49.96,0,0,0-4.537-5.282c-.039-.039-.1.022-.061.061a59.817,59.817,0,0,1,6.594,8.969l.2.357c-.357-.222-.767-.4-1.1-.588l-1.887-1.037-1.839-1c-.314-.174-.623-.357-.946-.523a7.477,7.477,0,0,1-1.1-.606.041.041,0,0,0-.048.065c.623.344,1.177.872,1.778,1.238s1.22.758,1.852,1.111c1.151.641,2.4,1.1,3.539,1.77q1.177,2.066,2.179,4.232c-.689-.436-1.39-.872-2.105-1.264-.458-.257-.92-.51-1.386-.754a7,7,0,0,1-1.307-.789.044.044,0,0,0-.057.061,12.2,12.2,0,0,0,2.493,1.743c.832.488,1.674.959,2.541,1.382q1.037,2.284,1.874,4.642c2.728,7.727,3.731,15.93,4.21,24.076.144,2.428.218,4.855.248,7.287s-.1,4.855-.1,7.283a.066.066,0,0,0,.131,0c.292-2.153.34-4.358.436-6.511S387.634,326.455,387.586,324.245Z" transform="translate(-361.229 -273.97)" fill="#263238"/>
      <path id="Path_245" data-name="Path 245" d="M373.064,299.617a31.364,31.364,0,0,1-3.443-1.778,37.677,37.677,0,0,1-3.273-2.079s-.035,0-.022.03a27.973,27.973,0,0,0,3.142,2.179,31.678,31.678,0,0,0,3.556,1.7C373.077,299.713,373.117,299.639,373.064,299.617Z" transform="translate(-358.488 -284.323)" fill="#263238"/>
      <path id="Path_246" data-name="Path 246" d="M385.2,281.992c-.1-.375-.214-.745-.34-1.111a.044.044,0,0,0,0-.044c-.083-.209-.17-.436-.253-.623l-.031-.078c0-.039-.035-.078-.048-.118s-.026,0-.022,0,.039.144.061.214a1.2,1.2,0,0,0,.035.118,30.368,30.368,0,0,1,.963,4.4c0,.048.078.048.074,0A14.912,14.912,0,0,0,385.2,281.992Z" transform="translate(-368.748 -275.431)" fill="#263238"/>
      <path id="Path_247" data-name="Path 247" d="M400.038,388.47l-.462,5.483-1.416,16.723H382.988l-1.416-16.723-.462-5.483Z" transform="translate(-366.83 -336.626)" fill="#37474f"/>
      <path id="Path_248" data-name="Path 248" d="M400.038,388.47l-.462,5.483h-18l-.462-5.483Z" transform="translate(-366.83 -336.626)" fill="#263238"/>
      <rect id="Rectangle_587" data-name="Rectangle 587" width="21.905" height="5.261" transform="translate(12.789 49.643)" fill="#37474f"/>
    </g>
    <g id="freepik--Device--inject-74" transform="translate(91.164 52.553)">
      <path id="Path_250" data-name="Path 250" d="M229.49,56.57H155.834a7.523,7.523,0,0,0-7.475,7.6V215.837a7.527,7.527,0,0,0,7.457,7.592h73.656a7.535,7.535,0,0,0,7.483-7.592V64.167a7.531,7.531,0,0,0-7.466-7.6Zm2.8,154.578a6.963,6.963,0,0,1-6.677,7.222H159.7a6.965,6.965,0,0,1-6.686-7.222V69.911c0-8.133,2.99-8.529,6.686-8.529h13.2c.767,0,1.395.872,1.395,1.953V63.8c0,2.545,1.386,2.545,3.1,2.545h30.508c1.713,0,3.09,0,3.09-2.541v-.471c0-1.081.615-1.953,1.395-1.953H225.6c3.687,0,6.677,1.081,6.677,8.529Z" transform="translate(-148.359 -56.57)" fill="#263238"/>
      <path id="Path_251" data-name="Path 251" d="M248.1,70.4h-8.329a.514.514,0,0,1-.514-.514h0a.514.514,0,0,1,.514-.514H248.1a.514.514,0,0,1,.514.514h0A.514.514,0,0,1,248.1,70.4Z" transform="translate(-199.642 -63.791)" fill="#fff"/>
      <path id="Path_252" data-name="Path 252" d="M238.35,76.139V217.376a6.963,6.963,0,0,1-6.677,7.222H165.736a6.965,6.965,0,0,1-6.686-7.222V76.139c0-8.133,2.99-8.529,6.686-8.529h13.2c.767,0,1.395.872,1.395,1.953v.466c0,2.545,1.386,2.545,3.1,2.545h30.508c1.717,0,3.09,0,3.09-2.541v-.471c0-1.081.619-1.953,1.4-1.953h13.206C235.339,67.61,238.35,68.691,238.35,76.139Z" transform="translate(-153.965 -62.798)" fill="#fff"/>
      <path id="Path_253" data-name="Path 253" d="M174.425,93.869l-2.345-2.192,2.345-2.2.362.388-1.926,1.809,1.926,1.809Z" transform="translate(-161.742 -75.137)" fill="#c7c7c7"/>
      <path id="Path_254" data-name="Path 254" d="M325.664,90.782a.458.458,0,1,1-.134-.328A.462.462,0,0,1,325.664,90.782Z" transform="translate(-247.867 -75.611)" fill="#c7c7c7"/>
      <path id="Path_255" data-name="Path 255" d="M325.664,94.542a.458.458,0,1,1-.134-.328A.462.462,0,0,1,325.664,94.542Z" transform="translate(-247.867 -77.732)" fill="#c7c7c7"/>
      <path id="Path_256" data-name="Path 256" d="M325.664,98.3a.458.458,0,1,1-.134-.328A.462.462,0,0,1,325.664,98.3Z" transform="translate(-247.867 -79.853)" fill="#c7c7c7"/>
      <g id="freepik--u5Zjqx--inject-74" transform="translate(19.412 7.4)">
        <path id="Path_257" data-name="Path 257" d="M195.755,74.134l-.126.126-.074.07a1.743,1.743,0,0,0-2.458,0l-.07-.074-.126-.126h0l.161-.144a2.248,2.248,0,0,1,.375-.235,1.8,1.8,0,0,1,.5-.166,2.178,2.178,0,0,1,.244-.035h.384a2.058,2.058,0,0,1,.458.109,2.152,2.152,0,0,1,.305.144,1.952,1.952,0,0,1,.292.2l.135.122Z" transform="translate(-192.9 -73.55)" fill="#c7c7c7"/>
        <path id="Path_258" data-name="Path 258" d="M194.015,75.452l-.2-.2a1.46,1.46,0,0,1,2.057,0l-.2.2a1.168,1.168,0,0,0-1.647,0Z" transform="translate(-193.413 -74.271)" fill="#c7c7c7"/>
        <path id="Path_259" data-name="Path 259" d="M195.953,76.373l-.2.2a.61.61,0,0,0-.436-.174.593.593,0,0,0-.436.179c-.065-.07-.135-.135-.2-.2a.872.872,0,0,1,1.273,0Z" transform="translate(-193.904 -74.987)" fill="#c7c7c7"/>
        <path id="Path_260" data-name="Path 260" d="M196.122,77.369a.183.183,0,0,1-.183.183.182.182,0,1,1,.183-.183Z" transform="translate(-194.513 -75.603)" fill="#c7c7c7"/>
      </g>
      <path id="Path_261" data-name="Path 261" d="M170.91,75.087a.523.523,0,1,1,.152.373A.527.527,0,0,1,170.91,75.087Z" transform="translate(-161.082 -66.719)" fill="#c7c7c7"/>
      <path id="Path_262" data-name="Path 262" d="M174.7,75.1a.527.527,0,1,1,.151.378A.527.527,0,0,1,174.7,75.1Z" transform="translate(-163.22 -66.731)" fill="#c7c7c7"/>
      <path id="Path_263" data-name="Path 263" d="M178.5,75.1a.527.527,0,1,1,.151.378A.527.527,0,0,1,178.5,75.1Z" transform="translate(-165.363 -66.731)" fill="#c7c7c7"/>
      <path id="Path_264" data-name="Path 264" d="M182.3,75.1a.523.523,0,1,1,.148.378A.527.527,0,0,1,182.3,75.1Z" transform="translate(-167.507 -66.731)" fill="#c7c7c7"/>
      <path id="Path_265" data-name="Path 265" d="M186.1,75.1a.523.523,0,1,1,.148.378A.527.527,0,0,1,186.1,75.1Z" transform="translate(-169.651 -66.731)" fill="#c7c7c7"/>
      <path id="Path_266" data-name="Path 266" d="M321.764,75.837H317.48V73.85h4.284Zm-4.058-.222h3.835V74.072h-3.835Z" transform="translate(-243.771 -66.319)" fill="#c7c7c7"/>
      <rect id="Rectangle_588" data-name="Rectangle 588" width="2.759" height="1.308" transform="translate(74.066 7.871)" fill="#c7c7c7"/>
      <rect id="Rectangle_589" data-name="Rectangle 589" width="0.379" height="1.059" transform="translate(77.993 7.993)" fill="#c7c7c7"/>
      <path id="Path_267" data-name="Path 267" d="M179.632,404.35h-.606v2.768H177.9v-1.412h-2v1.412h-1.124V404.35h-.6l2.724-2.82Z" transform="translate(-162.926 -251.184)" fill="#f1f1f9"/>
      <rect id="Rectangle_590" data-name="Rectangle 590" width="6.572" height="0.937" transform="translate(70.776 150.346)" fill="#f1f1f9"/>
      <rect id="Rectangle_591" data-name="Rectangle 591" width="6.572" height="0.937" transform="translate(70.776 152.669)" fill="#f1f1f9"/>
      <rect id="Rectangle_592" data-name="Rectangle 592" width="6.572" height="0.937" transform="translate(70.776 154.992)" fill="#f1f1f9"/>
      <path id="Path_268" data-name="Path 268" d="M249.449,406.685l-1.87,2-1.87-2,.331-.305,1.538,1.639,1.538-1.639Z" transform="translate(-203.281 -253.921)" fill="#f1f1f9"/>
      <path id="Path_269" data-name="Path 269" d="M245.605,407.6a3.4,3.4,0,1,1,3.4-3.4A3.4,3.4,0,0,1,245.605,407.6Zm0-6.341a2.946,2.946,0,1,0,2.946,2.946,2.946,2.946,0,0,0-2.946-2.946Z" transform="translate(-201.307 -250.778)" fill="#f1f1f9"/>
      <path id="Path_270" data-name="Path 270" d="M235.436,379.143a1.129,1.129,0,1,1-.331-.8A1.133,1.133,0,0,1,235.436,379.143Z" transform="translate(-196.206 -237.915)" fill="rgba(70,70,152,0.71)"/>
      <path id="Path_271" data-name="Path 271" d="M249.774,378.387a1.717,1.717,0,1,1-1.717-1.717A1.717,1.717,0,0,1,249.774,378.387Z" transform="translate(-203.637 -237.159)" fill="#464698"/>
      <path id="Path_272" data-name="Path 272" d="M264.456,379.143a1.129,1.129,0,1,1-.331-.8A1.133,1.133,0,0,1,264.456,379.143Z" transform="translate(-212.579 -237.915)" fill="rgba(70,70,152,0.71)"/>
      <rect id="Rectangle_593" data-name="Rectangle 593" width="30.587" height="9.728" transform="translate(30.337 109.249)" fill="#464698"/>
      <path id="Path_278" data-name="Path 278" d="M247.818,125.2v3.186h-2.253V125.2a5.15,5.15,0,1,0-10.277,0v7.976H233V125.2a7.423,7.423,0,1,1,14.818,0Z" transform="translate(-196.111 -90.843)" fill="#f1f1f9"/>
      <path id="Path_279" data-name="Path 279" d="M233.04,142.72l2.253.092v4.69H233.04Z" transform="translate(-196.133 -105.173)" fill="#f1f1f9"/>
      <rect id="Rectangle_594" data-name="Rectangle 594" width="20.563" height="18.654" transform="translate(34.017 39.657)" fill="#464698"/>
      <rect id="Rectangle_595" data-name="Rectangle 595" width="10.281" height="18.654" transform="translate(44.299 39.657)" opacity="0.1"/>
      <path id="Path_280" data-name="Path 280" d="M248.4,166.147l.872,4.079H245.62l.872-4.079a1.83,1.83,0,1,1,1.931,0Z" transform="translate(-203.23 -116.48)" fill="#263238"/>
      <rect id="Rectangle_596" data-name="Rectangle 596" width="52.958" height="9.065" transform="translate(17.822 78.895)" fill="#fff"/>
      <path id="Path_281" data-name="Path 281" d="M242.14,246.591H188.75v-9.5h53.39Zm-52.954-.436H241.7v-8.63H189.186Z" transform="translate(-171.146 -158.413)" fill="#f1f1f9"/>
      <rect id="Rectangle_598" data-name="Rectangle 598" width="3.875" height="0.436" transform="translate(21.164 83.114)" fill="#464698"/>
      <rect id="Rectangle_602" data-name="Rectangle 602" width="3.875" height="0.436" transform="translate(27.737 83.114)" fill="#464698"/>
      <rect id="Rectangle_606" data-name="Rectangle 606" width="3.875" height="0.436" transform="translate(34.309 83.114)" fill="#464698"/>
      <rect id="Rectangle_610" data-name="Rectangle 610" width="3.875" height="0.436" transform="translate(40.882 83.114)" fill="#464698"/>
      <rect id="Rectangle_614" data-name="Rectangle 614" width="3.875" height="0.436" transform="translate(47.454 83.114)" fill="#464698"/>
      <rect id="Rectangle_618" data-name="Rectangle 618" width="3.875" height="0.436" transform="translate(54.031 83.114)" fill="#464698"/>
      <path id="Path_282" data-name="Path 282" d="M297.136,247.518a3.238,3.238,0,0,1-2.41-1.307l-.1-.131.1-.126a2.885,2.885,0,0,1,4.794,0l.091.126-.091.131A3.234,3.234,0,0,1,297.136,247.518Zm-1.953-1.421a2.423,2.423,0,0,0,3.923,0,2.423,2.423,0,0,0-3.923,0Z" transform="translate(-230.88 -162.692)" fill="#f1f1f9"/>
      <circle id="Ellipse_32" data-name="Ellipse 32" cx="0.981" cy="0.981" r="0.981" transform="translate(65.271 82.425)" fill="#ebebeb"/>
      <rect id="Rectangle_621" data-name="Rectangle 621" width="4.925" height="0.436" transform="translate(64.385 84.922) rotate(-45)" fill="#f1f1f9"/>
      <text id="رقم_الجوال" data-name="رقم الجوال" transform="translate(31.32 71.196)" fill="#3b3b80" font-size="6" font-family="HelveticaNeueLTArabic-Bold, Helvetica Neue LT Arabic" font-weight="700"><tspan x="0" y="0">رقم الجوال</tspan></text>
      <text id="تسجيل_دخول" data-name="تسجيل دخول" transform="translate(37.312 115.121)" fill="#fff" font-size="3" font-family="HelveticaNeueLTArabic-Bold, Helvetica Neue LT Arabic" font-weight="700"><tspan x="0" y="0">تسجيل دخول</tspan></text>
    </g>
    <g id="freepik--Character--inject-74" transform="translate(47.438 72.674)">
      <rect id="Rectangle_622" data-name="Rectangle 622" width="30.578" height="6.333" transform="translate(44.672 62.91) rotate(180)" fill="#dadafa"/>
      <path id="Path_291" data-name="Path 291" d="M131.7,246.96l.854,8.093,10.573,75.766h3.02l-8.342-75.766-.676-8.093Z" transform="translate(-95.234 -184.102)" fill="#f1f1f9"/>
      <path id="Path_292" data-name="Path 292" d="M66.03,330.819h3.025l10.573-75.766.854-8.093H75.052l-.676,8.093Z" transform="translate(-58.186 -184.102)" fill="#f1f1f9"/>
      <rect id="Rectangle_623" data-name="Rectangle 623" width="33.729" height="1.9" transform="translate(46.677 121.966) rotate(180)" fill="#f1f1f9"/>
      <path id="Path_293" data-name="Path 293" d="M137.806,254.77h-5.252l-.854-7.81h5.43Z" transform="translate(-95.234 -184.102)" fill="#dadafa"/>
      <path id="Path_294" data-name="Path 294" d="M85.18,254.77h5.252l.854-7.81H85.856Z" transform="translate(-68.989 -184.102)" fill="#a6a6a6"/>
      <path id="Path_295" data-name="Path 295" d="M85.271,128.879c1.308.671,1.534,2.985,5.6,2.859.58,0,1.055-.248,1.586-.052a10.925,10.925,0,0,1,2.088,1.36,4.471,4.471,0,0,0,1.857.715,5.535,5.535,0,0,0,3.644-.841c.667-.41,1.225-.976,1.87-1.421s4.537-1.386,5.2-3.574c.436-1.39.353-2.972-1.308-5a2.541,2.541,0,0,1-.745-1.351,3.025,3.025,0,0,1,.3-1.308,2.567,2.567,0,0,0,.24-1.495,3.3,3.3,0,0,0-.872-1.277c-.61-.737-.5-1.8,0-3.107a3.848,3.848,0,0,0-.392-3.373,8.041,8.041,0,0,0-1.4-1.525,4.791,4.791,0,0,1-1.207-2.358,5.251,5.251,0,0,0-2.785-3.369c-1.05-.527-1.015-.327-2.14-.157a5.906,5.906,0,0,0-3.8-.819,6.43,6.43,0,0,0-3.173,1.769,3.682,3.682,0,0,0-1.63,2.654c-.026.684.139,1.364.109,2.048a2.848,2.848,0,0,1-1.107,1.974,5.13,5.13,0,0,0-1.7,2.846c-.153.928.763,2.371-.309,3.744-.941,1.212-2.615,2.615-3.051,4.132C80.812,126.687,84.038,128.234,85.271,128.879Z" transform="translate(-67.097 -102.736)" fill="#263238"/>
      <path id="Path_296" data-name="Path 296" d="M125.851,153.274c1.87-.283,4.742.07,5.736-2.014a3.2,3.2,0,0,0,1.172-2.672,4.69,4.69,0,0,0-1.416-2.837,7.191,7.191,0,0,1-1.185-1.451,9.486,9.486,0,0,1-.231-1.264,6.459,6.459,0,0,1,.436-1.586h0a3.448,3.448,0,0,0-.41,2.772,3.049,3.049,0,0,0,.2.4,7.74,7.74,0,0,0,.558,1.46,7.128,7.128,0,0,1,1.094,3.748,3.4,3.4,0,0,1-.336,1.373,5.16,5.16,0,0,1-2.89,1.255c-.026,0-.026.048,0,.044a5.871,5.871,0,0,0,2.7-.981c-1.085,1.556-3.609,1.342-5.435,1.7C125.794,153.222,125.812,153.279,125.851,153.274Zm5.879-2.367v-.039a5.23,5.23,0,0,0-.235-3.487c-.3-.728-.741-1.382-1.033-2.114-.048-.126-.1-.253-.139-.384.436.571.985,1.046,1.395,1.6a3.412,3.412,0,0,1,.318,3.966A3.605,3.605,0,0,1,131.731,150.908Z" transform="translate(-91.913 -124.577)" fill="#263238"/>
      <path id="Path_297" data-name="Path 297" d="M79.743,135.726a.035.035,0,1,0,.057-.039,4.084,4.084,0,0,1,.07-4.036c-.305,1.878.065,3.984,1.783,4.995.031,0,.052-.031.026-.048-1.778-1.063-2.048-3.487-1.565-5.391a10.844,10.844,0,0,1,1.373-1.809,15.314,15.314,0,0,0,2.436-2.829,2.563,2.563,0,0,1-1.007,1.582c-.031.026,0,.078.031.057a2.755,2.755,0,0,0,1.133-1.626,2.01,2.01,0,0,0,.044-.436,3.923,3.923,0,0,0,.3-1.107H84.4a3.783,3.783,0,0,1-.275.989,8.071,8.071,0,0,0-.4-1.743c-.436-1.63.384-2.589,1.395-3.465l.248-.157a3.487,3.487,0,0,0,1.342-1.242c.074-.074.139-.148.2-.222h0s-.109.109-.166.161a2.009,2.009,0,0,0,.17-.471h0a2.519,2.519,0,0,1-.436.745c-.4.336-.846.641-1.273.968a3.687,3.687,0,0,0-1.9,1.918,7.339,7.339,0,0,0,0,2.859,3.023,3.023,0,0,1-1.743,3.243c-.022,0-.022.035,0,.026.1-.035.2-.061.3-.1a5.073,5.073,0,0,0-1.787,2.345A4.461,4.461,0,0,0,79.743,135.726Zm3.386-8.176c-.148.118-.3.235-.436.344a2.572,2.572,0,0,0,.484-.837,8.811,8.811,0,0,0,.039-3.208,2.772,2.772,0,0,1,.994-2.349,3.112,3.112,0,0,0-.662,1.172,3.746,3.746,0,0,0,.235,2.262,3.792,3.792,0,0,1,.174,1.469,6.647,6.647,0,0,1-.828,1.146ZM80.4,130.409a6.581,6.581,0,0,1,1.865-2.118c.057-.039.1-.083.157-.126.209-.17.436-.34.623-.514C82.188,128.609,81.125,129.459,80.4,130.409Z" transform="translate(-65.597 -111.85)" fill="#263238"/>
      <path id="Path_298" data-name="Path 298" d="M86.572,160.27Z" transform="translate(-69.772 -135.195)" fill="#263238"/>
      <path id="Path_299" data-name="Path 299" d="M129.665,117.563a25.979,25.979,0,0,1,1.992,1.926,2.585,2.585,0,0,1,.741,1.656,2.763,2.763,0,0,1-.562,1.743c-.139.209-.283.436-.41.641a2.645,2.645,0,0,0,.187,1.19c.305.719.981,1.164,1.307,1.892.506,1.177-.057,2.144-.554,3.195h0a3.966,3.966,0,0,0,.584-2.689,6.581,6.581,0,0,0-1.251-1.878,2.711,2.711,0,0,1-.436-1.382,2.08,2.08,0,0,0,.166,2.462c.031.039,0,.092-.052.057a2.26,2.26,0,0,1-.109-2.9,5.152,5.152,0,0,1,.362-1.613c0-.052.1,0,.092.039-.078.41-.183.819-.24,1.225l.092-.135a2.6,2.6,0,0,0,.17-3.225c-.6-.8-1.421-1.425-2.092-2.179C129.621,117.576,129.647,117.546,129.665,117.563Z" transform="translate(-94.071 -111.098)" fill="#263238"/>
      <path id="Path_300" data-name="Path 300" d="M127.071,306.39s-7.806,17.338-7.815,17.351c-1.508,3.308-2.776,6.232-3.286,7.81a.035.035,0,0,0,0,.026,2.51,2.51,0,0,0-.222,1.133v.026c.68,1.12,26.76,13.947,27.824,14.1s1.547-2.868.933-4.175-8.407-10.687-8.407-10.687l7.653-17.407Z" transform="translate(-86.234 -217.631)" fill="#ffc4c0"/>
      <path id="Path_301" data-name="Path 301" d="M120.862,338s-1.6,3.548-1.6,3.561c-1.508,3.308-2.776,6.232-3.286,7.81a.035.035,0,0,0,0,.026,4.755,4.755,0,0,0-.222,1.133v.026c.68,1.12,26.76,13.947,27.824,14.1s1.547-2.868.933-4.175-8.407-10.687-8.407-10.687l1.678-3.591Z" transform="translate(-86.236 -235.464)" fill="#ebebeb"/>
      <path id="Path_302" data-name="Path 302" d="M143.5,369.051c-1.063-.139-27.153-12.953-27.837-14.073-.266-.436,1.377-4.332,3.487-9l.065-.148,16.928,8.08-.148.283s7.8,9.375,8.416,10.682S144.559,369.2,143.5,369.051Z" transform="translate(-86.171 -239.881)" fill="#263238"/>
      <path id="Path_303" data-name="Path 303" d="M142.478,378.751c.379.41-.493,1.931-.872,1.892s-28.765-14.139-29.2-14.487.6-1.992,1.2-1.8S142.478,378.751,142.478,378.751Z" transform="translate(-84.29 -250.322)" fill="#464698"/>
      <path id="Path_304" data-name="Path 304" d="M158.085,364.707a6.831,6.831,0,0,0-5.749-1.364c-.074,0-.039.131.026.139a26.932,26.932,0,0,1,5.609,1.443.126.126,0,0,0,.113-.218Z" transform="translate(-106.853 -249.649)" fill="#fff"/>
      <path id="Path_305" data-name="Path 305" d="M160.1,367.846a6.816,6.816,0,0,0-5.749-1.364c-.074.022-.039.126.026.139a26.917,26.917,0,0,1,5.609,1.438.122.122,0,0,0,.113-.214Z" transform="translate(-107.993 -251.42)" fill="#fff"/>
      <path id="Path_306" data-name="Path 306" d="M162.121,370.977a6.834,6.834,0,0,0-5.749-1.364c-.074.026-.044.131,0,.139a26.9,26.9,0,0,1,5.614,1.443.128.128,0,0,0,.135-.218Z" transform="translate(-109.128 -253.186)" fill="#fff"/>
      <path id="Path_307" data-name="Path 307" d="M126.212,356.47c-1.43-1.874-4.358.34-2.916,2.218A1.833,1.833,0,0,0,126.212,356.47Z" transform="translate(-90.274 -245.483)" fill="#fff"/>
      <path id="Path_308" data-name="Path 308" d="M120.014,224.826c-.174,5.043-9.893,26.821-9.893,26.821l17.045,7.845s13.759-24.219,12.482-35.377c-1.09-9.466-24.908-26.974-28.73-31.907-.567-.732-.375-3.678-.375-3.678H95.08v3.692c5.906,12.535,23.57,27.571,24.877,31.986a1.965,1.965,0,0,1,.057.619Z" transform="translate(-74.575 -151.138)" fill="#37474f"/>
      <path id="Path_309" data-name="Path 309" d="M149.653,334.5c-2.807-1.347-1.983-1-4.794-2.314-1.382-.641-8.311-3.888-9.706-4.249a.031.031,0,1,0-.026.057c1.194.811,8.2,3.892,9.588,4.507,2.846,1.255,2.044.872,4.9,2.083C149.666,334.609,149.705,334.522,149.653,334.5Z" transform="translate(-97.157 -229.785)" fill="#263238"/>
      <path id="Path_310" data-name="Path 310" d="M103.911,203.023a162.686,162.686,0,0,0,15.607,20.149c1.4,1.53,2.846,3.016,4.289,4.507a8.82,8.82,0,0,1,2.768,4.45c.34,2-.436,3.984-1.059,5.845-.684,2.048-1.373,4.092-2.1,6.128-.785,2.179-3.992,10.107-4.52,11.175-.266.532,4.245-10.9,4.977-13.005s1.473-4.206,2.1-6.341a8.913,8.913,0,0,0,.436-3.378,6.1,6.1,0,0,0-1.273-3.016,59.1,59.1,0,0,0-4.31-4.62q-4.432-4.746-8.451-9.859a141,141,0,0,1-8.525-12,.036.036,0,0,1,.065-.031Z" transform="translate(-79.518 -159.303)" fill="#263238"/>
      <path id="Path_311" data-name="Path 311" d="M82.013,393.12s-.758,19.007-.763,19.02c.087,3.635.227,6.821.436,8.46a.087.087,0,0,0,0,.03,2.511,2.511,0,0,0,.327,1.116v.022c1.1.706,30.168.872,31.184.536s.139-3.26-.981-4.167-12.234-5.945-12.234-5.945l.58-18.994Z" transform="translate(-66.772 -266.561)" fill="#ffc4c0"/>
      <path id="Path_312" data-name="Path 312" d="M81.373,428.09s-.148,3.748-.153,3.761c.087,3.635.227,6.821.436,8.46a.087.087,0,0,0,0,.03,5.031,5.031,0,0,0,.34,1.116v.022c1.1.706,30.168.872,31.184.536s.139-3.26-.981-4.167S99.965,431.9,99.965,431.9l.118-3.844Z" transform="translate(-66.755 -286.273)" fill="#ebebeb"/>
      <path id="Path_313" data-name="Path 313" d="M113.124,446.516c-1.015.336-30.073.2-31.188-.506-.436-.262-.649-4.5-.776-9.628v-.161L99.9,436.1v.318s11.105,5.03,12.238,5.936S114.144,446.185,113.124,446.516Z" transform="translate(-66.722 -290.809)" fill="#263238"/>
      <path id="Path_314" data-name="Path 314" d="M112.946,457.168c.519.2.4,1.953.022,2.088s-32.069-.148-32.609-.27-.331-2.057.3-2.153S112.946,457.168,112.946,457.168Z" transform="translate(-66.095 -302.497)" fill="#464698"/>
      <path id="Path_315" data-name="Path 315" d="M120.286,436.808a6.83,6.83,0,0,0-5.766,1.281c-.057.052,0,.135.078.113a27.128,27.128,0,0,1,5.666-1.151.123.123,0,0,0,.022-.244Z" transform="translate(-85.529 -291.125)" fill="#fff"/>
      <path id="Path_316" data-name="Path 316" d="M123.507,438.738a6.833,6.833,0,0,0-5.766,1.281c-.057.052,0,.135.083.113a27.022,27.022,0,0,1,5.666-1.151.122.122,0,1,0,.017-.244Z" transform="translate(-87.346 -292.213)" fill="#fff"/>
      <path id="Path_317" data-name="Path 317" d="M126.654,440.677a6.816,6.816,0,0,0-5.766,1.281c-.061.052,0,.135.078.113a27.022,27.022,0,0,1,5.666-1.151.123.123,0,0,0,.022-.244Z" transform="translate(-89.121 -293.307)" fill="#fff"/>
      <path id="Path_318" data-name="Path 318" d="M88.725,443.638a1.833,1.833,0,0,0-1.656,3.269A1.833,1.833,0,0,0,88.725,443.638Z" transform="translate(-69.505 -294.943)" fill="#fff"/>
      <path id="Path_319" data-name="Path 319" d="M97.518,290.665l-19,.157s3.164-77.609,1.046-80.146c-5.038-6.028-4.236-14.064-.841-22.136H96.036s-.832,12.256-.75,12.613C100.613,224.383,97.518,290.665,97.518,290.665Z" transform="translate(-63.798 -151.144)" fill="#37474f"/>
      <path id="Path_320" data-name="Path 320" d="M101.692,413.762a155.143,155.143,0,0,0-16.44.24.039.039,0,0,0,0,.07c1.364.275,13.881-.118,16.435-.218a.048.048,0,0,0,0-.092Z" transform="translate(-69.018 -278.133)" fill="#263238"/>
      <path id="Path_321" data-name="Path 321" d="M119.239,199.047c-.174,2.179-.087,5.936-1.355,5.993s-1.046-4.52-1.081-5.574c-.035-.954-.362-.824-.4.3-.1,3.051,0,5.749,1.6,5.622s1.608-4.855,1.569-5.936C119.558,198.894,119.292,198.354,119.239,199.047Z" transform="translate(-86.592 -156.887)" fill="#263238"/>
      <path id="Path_322" data-name="Path 322" d="M119.936,213.317a9.449,9.449,0,0,0,.048,2.314c.022.061.266,0,.292-.039a14.775,14.775,0,0,0,.07-2.223.207.207,0,0,0-.41-.052Z" transform="translate(-88.57 -165.02)" fill="#263238"/>
      <path id="Path_323" data-name="Path 323" d="M120.944,219.28a27.533,27.533,0,0,1,.963,6.538c0,.087-.139.118-.157.026-.174-1.029-.941-5.975-1.02-6.494S120.792,218.744,120.944,219.28Z" transform="translate(-89.033 -168.282)" fill="#263238"/>
      <path id="Path_324" data-name="Path 324" d="M113.572,217.414a7.16,7.16,0,0,1,.811-.684c.283-.222.567-.436.872-.649.6-.436,1.22-.811,1.852-1.185s1.251-.7,1.9-1.029,1.386-.6,2.057-.933c.039-.022.074.035.035.057-.636.353-1.229.793-1.848,1.181s-1.238.789-1.861,1.177-1.212.767-1.822,1.142q-.475.3-.968.575a8.163,8.163,0,0,1-.915.51C113.576,217.615,113.515,217.479,113.572,217.414Z" transform="translate(-84.995 -164.903)" fill="#263238"/>
      <path id="Path_325" data-name="Path 325" d="M84.675,257.8c.275-6.219.71-13.167.815-19.377q.074-4.668.07-9.34c0-3.09,0-7.217-.139-10.3-.083-1.569-2.846-2.781-3.408-7.348a17.346,17.346,0,0,1,.606-7.767,16.525,16.525,0,0,1,.693-1.791c0-.039.074,0,.057.035a17.063,17.063,0,0,0-1.338,8.146,13.824,13.824,0,0,0,.872,4.1c.741,1.844,2.567,3.339,2.663,4.319.144,1.46.166,2.724.183,4.193s.035,3.051.044,4.576q.026,4.672-.026,9.34-.1,9.3-.488,18.584c-.262,6.193-1.865,37.2-1.97,37.918,0,.078-.139.061-.135,0C83.364,289.955,84.4,264.015,84.675,257.8Z" transform="translate(-67.095 -158.654)" fill="#263238"/>
      <path id="Path_326" data-name="Path 326" d="M110.123,147.839c4.123,8.508,9.357,17.721,14.256,19.177,4.663,1.373,13.7-10.077,16.562-13.075,1.02-1.09-7.265-7.322-8.551-6.376-2.423,1.783-6.777,6.638-7.509,6.468s-6.847-5.984-12.356-10.865C109.186,140.207,107.268,141.942,110.123,147.839Z" transform="translate(-82.278 -124.747)" fill="#ffc4c0"/>
      <path id="Path_327" data-name="Path 327" d="M197.461,152.056c1.133-.475,9.859-.754,9.859-2.646s-11.109-1.36-11.109-1.36Z" transform="translate(-131.629 -128.262)" fill="#ffc4c0"/>
      <path id="Path_328" data-name="Path 328" d="M160.68,152.143c1.525-1.9,2.868-3.923,4.193-4.315.92-.261,10.8.166,12.343.074s7.047.048,7.178,1.4c.179,1.913-6.341,1.9-7.034,2.876-2.4,3.373-11.532,8.368-11.532,8.368Z" transform="translate(-111.584 -128.127)" fill="#ffc4c0"/>
      <path id="Path_329" data-name="Path 329" d="M206.839,149.4a1.5,1.5,0,0,0-.632-.872,4.69,4.69,0,0,0-2.358-.575,21.35,21.35,0,0,0-3.617-.03.022.022,0,1,0,0,.044c.9,0,1.8.022,2.707.1a11.244,11.244,0,0,1,2.445.375,1.974,1.974,0,0,1,.941.567.78.78,0,0,1,.187.728c-.266.832-1.909,1.081-2.667,1.251-.989.222-2.018.436-3.016.619-.044,0,0,.078.022.07,1.033-.2,2.127-.288,3.164-.475a5.248,5.248,0,0,0,2.423-.872A.955.955,0,0,0,206.839,149.4Z" transform="translate(-133.885 -128.192)" fill="#263238"/>
      <path id="Path_330" data-name="Path 330" d="M0,0H1.5V17.494a.6.6,0,0,1-.6.6H.6a.6.6,0,0,1-.6-.6V0Z" transform="translate(57.596 17.085) rotate(-78.95)" fill="#464698"/>
      <rect id="Rectangle_624" data-name="Rectangle 624" width="1.499" height="2.109" transform="translate(57.594 17.088) rotate(-78.95)" opacity="0.1"/>
      <path id="Path_331" data-name="Path 331" d="M165.033,130.715l-.506,2.615a3.4,3.4,0,1,0,6.668,1.307l.51-2.615a3.4,3.4,0,0,0-6.673-1.308Zm5.6.649a1.922,1.922,0,0,1-1.665,1.469,1.948,1.948,0,0,1,.994,1.987,2.254,2.254,0,0,1-4.376-.85,1.935,1.935,0,0,1,1.669-1.469,1.931,1.931,0,0,1-.994-1.987,2.252,2.252,0,0,1,4.371.85Z" transform="translate(-113.718 -116.971)" fill="#464698"/>
      <rect id="Rectangle_625" data-name="Rectangle 625" width="3.404" height="0.689" rx="0.344" transform="translate(57.411 18.022) rotate(-78.95)" fill="#464698"/>
      <rect id="Rectangle_626" data-name="Rectangle 626" width="3.404" height="0.689" rx="0.344" transform="translate(58.087 18.156) rotate(-78.95)" fill="#464698"/>
      <path id="Path_332" data-name="Path 332" d="M209.83,140.888l.51.1.288-1.486.44.087-.153.776.51.1.153-.776.384.074-.235,1.225.51.1.24-1.225.549.109-.318,1.634.51.1.318-1.634.519.1-.405,2.088-4.568-.889.405-2.092.632.126Z" transform="translate(-138.89 -123.353)" fill="#464698"/>
      <path id="Path_333" data-name="Path 333" d="M76.56,163.855l24.328.4-1.909-7.287a7.627,7.627,0,0,0,1.094-6.35c-.584-2.144-3.352-5.356-5.051-7.409-4.132-4.969-7.723-2.724-8.869-1.447C81.781,146.657,76.56,163.855,76.56,163.855Z" transform="translate(-64.126 -123.835)" fill="#464698"/>
      <path id="Path_334" data-name="Path 334" d="M91.887,148.576V147.19l.92,1.029.994-.309-.484.872.466.488-.723.074v.941l-.793-.662-.645.536.074-.793-.941-.436Zm10.364,15.572-.767.7-.706-.375.248.806-.915.475.872.375-.214.7.636-.244.628.793.1-1.037,1.308-.436-1.273-.554Zm-8.9-5.173.745,1.482.737-1.416,1.4.244-.745-1.491,1.042-.994-1.477.052-.3-1.447-.776,1.5-1.97-.153,1.159,1.2-1.072.824Zm5.8-8.564.357-.6-.671.061-.231-.553-.362.6-.588-.144.353.514-.436.436.71-.065.392.732.161-.68.532.192Zm-11.41,15.873.357-.6-.667.057-.235-.553-.357.606-.588-.148.353.514-.436.436.71-.061.392.732.161-.684.536.2Zm4-10.8.357-.6-.671.057-.231-.554-.357.606-.593-.148.353.514-.436.436.71-.061.392.728.161-.68.536.192ZM87.415,157.1l-.122-.392-.235.318-.336-.118.122.4-.292.2.362.048v.366l.248-.34.475.118-.235-.34.3-.161Zm11.292,9.349-.122-.392-.24.318-.331-.113.122.392-.3.2.366.044v.366l.248-.336.475.113-.235-.34.3-.157Zm3.378-11.393.309-.275-.388-.083-.035-.353-.309.275-.305-.183.109.349-.327.166.41.087.092.484.214-.357.266.2Zm-6.1,7.361.305-.275-.388-.083-.035-.353-.305.275-.309-.183.109.349-.327.166.41.087.092.484.214-.357.266.2Zm-12.561,2.31.305-.275-.388-.087-.031-.353-.309.279-.288-.187.1.353-.327.161.41.092.1.479.209-.353.266.2Z" transform="translate(-67.472 -127.816)" fill="#fff"/>
      <path id="Path_335" data-name="Path 335" d="M113.04,177.666a20.842,20.842,0,0,1,3.129-.052c.519.035,1.033.1,1.547.17.253.035.51.061.767.087a3.363,3.363,0,0,0,.811,0s.031.031,0,.039a6.315,6.315,0,0,1-.754.122,6.073,6.073,0,0,1-.745,0c-.523-.035-1.05-.092-1.573-.126-1.059-.078-2.118-.153-3.182-.153C113.01,177.762,113.01,177.671,113.04,177.666Z" transform="translate(-84.694 -144.96)" fill="#263238"/>
      <path id="Path_336" data-name="Path 336" d="M107.612,179.9a23.389,23.389,0,0,1,2.515-.584c.436-.07.872-.118,1.281-.153l.615-.044h.68c.026,0,.031.035,0,.039-.214.022-.436.078-.636.109l-.636.1-1.273.2q-1.273.183-2.545.41C107.577,179.979,107.568,179.913,107.612,179.9Z" transform="translate(-81.628 -145.829)" fill="#263238"/>
      <path id="Path_337" data-name="Path 337" d="M104,133.61c.1.436,2.179,3.247,4.162,3.151.645-.035.628-3.565.628-3.565l.057-.262.819-3.657-4.289-2.746-.619-.362s-.157,1.015-.34,2.279v.179a2.089,2.089,0,0,1-.035.209c-.031.187-.061.379-.083.571s-.039.292-.057.436l-.052.462A24.629,24.629,0,0,0,104,133.61Z" transform="translate(-79.606 -115.957)" fill="#ffc4c0"/>
      <path id="Path_338" data-name="Path 338" d="M105,128.445a7.536,7.536,0,0,0,4.446,4.489l.785-3.657-4.289-2.746-.619-.362S105.166,127.181,105,128.445Z" transform="translate(-80.171 -115.957)" fill="#263238"/>
      <path id="Path_339" data-name="Path 339" d="M113.256,110.594c1.277,6.45-2.445,7.941-3.835,8.215-1.26.248-5.592.928-7.527-5.352s.662-8.913,3.522-9.632S111.983,104.148,113.256,110.594Z" transform="translate(-78.041 -103.24)" fill="#ffc4c0"/>
      <path id="Path_340" data-name="Path 340" d="M123.189,116.639a4.015,4.015,0,0,1-.436.074.754.754,0,0,1-.471,0,.235.235,0,0,1-.1-.266.58.58,0,0,1,.484-.336.841.841,0,0,1,.606.087.248.248,0,0,1-.078.44Z" transform="translate(-89.858 -110.27)" fill="#263238"/>
      <path id="Path_341" data-name="Path 341" d="M113.629,119.449a4.023,4.023,0,0,0,.436-.092.724.724,0,0,0,.436-.179.222.222,0,0,0,0-.283.567.567,0,0,0-.571-.139.833.833,0,0,0-.536.3.248.248,0,0,0,.235.4Z" transform="translate(-84.878 -111.759)" fill="#263238"/>
      <path id="Path_342" data-name="Path 342" d="M115.825,122.28s-.031,0-.026.044c.078.436.1.959-.279,1.164v.026C116,123.37,115.973,122.681,115.825,122.28Z" transform="translate(-86.106 -113.762)" fill="#263238"/>
      <path id="Path_343" data-name="Path 343" d="M114.549,121.349c-.719.052-.562,1.491.1,1.438S115.15,121.305,114.549,121.349Z" transform="translate(-85.292 -113.236)" fill="#263238"/>
      <path id="Path_344" data-name="Path 344" d="M113.466,121.585c-.118.092-.222.248-.375.283s-.318-.1-.436-.231h0c.026.275.161.545.462.554s.436-.257.475-.54C113.566,121.615,113.514,121.546,113.466,121.585Z" transform="translate(-84.483 -113.364)" fill="#263238"/>
      <path id="Path_345" data-name="Path 345" d="M122.48,121.32a.034.034,0,0,1,.035.035c.035.436.144.954.562,1.059v.026C122.576,122.423,122.437,121.747,122.48,121.32Z" transform="translate(-90.029 -113.221)" fill="#263238"/>
      <path id="Path_346" data-name="Path 346" d="M122.825,120.15c.71-.126.911,1.307.253,1.421S122.228,120.259,122.825,120.15Z" transform="translate(-90.025 -112.556)" fill="#263238"/>
      <path id="Path_347" data-name="Path 347" d="M123.92,120.054c.126.061.257.183.392.17s.253-.183.331-.344h.026c.044.27,0,.571-.262.658s-.436-.126-.545-.392C123.846,120.111,123.872,120.028,123.92,120.054Z" transform="translate(-90.81 -112.408)" fill="#263238"/>
      <path id="Path_348" data-name="Path 348" d="M118.035,130.9c.113.1.231.235.392.24a1.229,1.229,0,0,0,.475-.144h0a.6.6,0,0,1-.549.279.471.471,0,0,1-.353-.331S118,130.884,118.035,130.9Z" transform="translate(-87.505 -118.623)" fill="#263238"/>
      <path id="Path_349" data-name="Path 349" d="M119.972,121.126s.174.649.214.963c0,.031-.07.052-.179.074h0a1.508,1.508,0,0,1-1.517-.379c0-.026,0-.065.044-.048a2.253,2.253,0,0,0,1.408.222c0-.087-.336-1.107-.288-1.116a2.767,2.767,0,0,1,.732.074c-.318-1.369-.872-2.676-1.155-4.045,0-.048.061-.074.078-.031a22.541,22.541,0,0,1,1.43,4.3C120.778,121.317,120.107,121.16,119.972,121.126Z" transform="translate(-87.782 -110.681)" fill="#263238"/>
      <path id="Path_350" data-name="Path 350" d="M119.884,128.47a1.8,1.8,0,0,1-.615.684.819.819,0,0,1-.484.122c-.366-.031-.436-.353-.436-.641a2,2,0,0,1,.083-.436A2.345,2.345,0,0,0,119.884,128.47Z" transform="translate(-87.703 -117.102)" fill="#263238"/>
      <path id="Path_351" data-name="Path 351" d="M119.27,129.7a.82.82,0,0,1-.484.122c-.366-.031-.436-.353-.436-.641a.841.841,0,0,1,.92.519Z" transform="translate(-87.703 -117.651)" fill="#ff9abb"/>
      <path id="Path_352" data-name="Path 352" d="M101.774,114.029c1.233,0,1.151-2.833,1.151-2.833s5.038-1.608,4.881-5.866a7.178,7.178,0,0,0,4.136,3.378s-.832-4.576-4.611-4.955c0,0-4.764-1.007-6.8,2.951S100.946,114.042,101.774,114.029Z" transform="translate(-77.202 -103.245)" fill="#263238"/>
      <path id="Path_353" data-name="Path 353" d="M113.22,106.8a4.655,4.655,0,0,1,.039,1.948,4.764,4.764,0,0,1-.732,1.835,3.791,3.791,0,0,1-.3.4l-.153.2c-.057.061-.118.118-.179.174s-.235.231-.357.34l-.4.3c-.065.048-.131.1-.2.139l-.214.122-.436.24c-.3.131-.6.244-.907.353.279-.17.567-.309.837-.479l.4-.27.2-.135c.065-.048.122-.1.183-.153l.362-.305c.118-.109.222-.227.331-.34l.166-.17L112,110.8a3.8,3.8,0,0,0,.275-.379,5.5,5.5,0,0,0,.763-1.743,6.1,6.1,0,0,0,.161-.937A5.916,5.916,0,0,0,113.22,106.8Z" transform="translate(-82.642 -105.029)" fill="#263238"/>
      <path id="Path_354" data-name="Path 354" d="M99.605,118.59l-.305.619,2.04,1.491.654-1.39Zm1.591,1.473-1.408-.915.065-.144,1.582.571Z" transform="translate(-76.955 -111.68)" fill="#464698"/>
      <path id="Path_355" data-name="Path 355" d="M100.138,115.775l-.048.689,2.454.615.083-1.538Zm2.031.763-1.652-.314v-.161L102.2,116Z" transform="translate(-77.401 -109.96)" fill="#464698"/>
      <path id="Path_356" data-name="Path 356" d="M102.968,124.4s-1.652-1.887-2.519-1.277.523,3.452,1.652,3.735a1.107,1.107,0,0,0,1.416-.754Z" transform="translate(-77.45 -114.169)" fill="#ffc4c0"/>
      <path id="Path_357" data-name="Path 357" d="M101.76,125.13v.026a2.8,2.8,0,0,1,1.63,1.591.61.61,0,0,0-.928-.065s0,.044.026.039a.68.68,0,0,1,.771.153,3.386,3.386,0,0,1,.436.567c.039.065.161,0,.126-.061h0C103.717,126.381,102.815,125.112,101.76,125.13Z" transform="translate(-78.343 -115.37)" fill="#263238"/>
      <path id="Path_358" data-name="Path 358" d="M75.324,144.339C69.78,153.9,61.495,175.85,60,178.988c-1.015,2.131,10.124,7.749,10.6,6.2.6-1.983,8.333-27.549,8.839-38.955C79.669,140.948,77.1,141.28,75.324,144.339Z" transform="translate(-54.744 -124.96)" fill="#ffc4c0"/>
      <path id="Path_359" data-name="Path 359" d="M73.092,243.251c.588-.514.872-.209.606,1.151s-2.419,6.538-.553,7.126,4.794-6.729,5.064-9.026a35.158,35.158,0,0,0-.148-6.1C77.2,237.716,74.836,240.7,73.092,243.251Z" transform="translate(-61.775 -178.145)" fill="#ffc4c0"/>
      <path id="Path_360" data-name="Path 360" d="M62.618,258.342l-13.947-2.51c-.436-.035-.7-.322-.628-.645l1.277-5.7a.819.819,0,0,1,.876-.5l13.947,2.5c.436.039.7.327.628.645l-1.277,5.7a.806.806,0,0,1-.876.51Z" transform="translate(-48.032 -185.242)" fill="#f1f1f9"/>
      <path id="Path_361" data-name="Path 361" d="M62.956,256.784l-13.973-2.51c-.436-.039-.7-.327-.628-.645l1.281-5.7a.8.8,0,0,1,.872-.51l13.973,2.51c.436.035.7.323.628.641l-1.268,5.705A.811.811,0,0,1,62.956,256.784Z" transform="translate(-48.208 -184.356)" fill="#dadafa"/>
      <path id="Path_362" data-name="Path 362" d="M80.389,264.709c-.323-.122-.628,0-.68.27a.7.7,0,0,0,.492.7c.323.122.628,0,.68-.266A.7.7,0,0,0,80.389,264.709Z" transform="translate(-65.903 -194.089)" fill="#263238"/>
      <path id="Path_363" data-name="Path 363" d="M54.764,224.4c-2.846,3.835-5.365,8.351-5.426,13.341a2.489,2.489,0,0,0,.475,1.547c-.065,2.231.968,2.937.968,2.937a4.1,4.1,0,0,0,1.743,2.672s.166,1.8,1.434,1.774,1.966-2.977,3.051-5.13c2.541-4.942,7.161-10.556,8.032-11.907Z" transform="translate(-48.768 -171.375)" fill="#ffc4c0"/>
      <path id="Path_364" data-name="Path 364" d="M59.735,249.075a25.119,25.119,0,0,0-3.107,9.684.044.044,0,0,1-.087,0,18.946,18.946,0,0,1,3.129-9.693C59.713,248.975,59.791,249.005,59.735,249.075Z" transform="translate(-52.832 -185.258)" fill="#263238"/>
      <path id="Path_365" data-name="Path 365" d="M54.777,244.538a26.371,26.371,0,0,0-2.079,9h-.031a17,17,0,0,1,2.04-9.035C54.756,244.42,54.821,244.438,54.777,244.538Z" transform="translate(-50.633 -182.687)" fill="#263238"/>
      <path id="Path_366" data-name="Path 366" d="M52.007,242.169a26.458,26.458,0,0,0-1.586,7.078H50.39a15.771,15.771,0,0,1,1.534-7.126C51.963,242.042,52.042,242.068,52.007,242.169Z" transform="translate(-49.362 -181.346)" fill="#263238"/>
    </g>
  </g>
</svg>
