<svg xmlns="http://www.w3.org/2000/svg" width="183.422" height="208.174" viewBox="0 0 183.422 208.174">
  <g id="Group_367" data-name="Group 367" transform="translate(-88.286 -166.495)">
    <path id="Path_2435" data-name="Path 2435" d="M287.955,265.655c-.212,28.871-3.425,73.337-20.809,96.948-7.344,9.416-16.784,9.545-24.21,0-17.5-23.54-20.891-68.076-21.186-96.983.318-28.86,3.731-73.467,21.186-96.983,7.38-9.416,16.819-9.51,24.222,0,17.384,23.54,20.6,68.076,20.809,96.948Zm0,0c-.318-28.812-3.7-73.208-21.115-96.712-12.947-16.019-24.975-1.295-30.672,12.358-10.934,26.564-13.276,55.883-13.571,84.354.282,28.471,2.636,57.79,13.559,84.354,5.661,13.547,17.655,28.424,30.684,12.358C284.259,338.887,287.637,294.468,287.955,265.655Z" transform="translate(-74.996 4.955)" fill="#464698"/>
    <path id="Path_2436" data-name="Path 2436" d="M280.269,230.423c24.563,14.524,48.821,31.237,66.4,54.047,16.854,22.7,8.921,36.734-19.326,33.544-28.6-3.731-55.318-16.278-80.211-30.225-24.846-14.689-61.768-39.958-73.4-66.864-4.461-11.087.177-19.314,12.146-20.95,29.177-3.248,69.218,16.183,94.37,30.448Zm0,0c-25.164-14.124-65.2-33.391-94.311-30.072-20.373,3.248-13.618,20.986-4.649,32.755,17.549,22.751,41.759,39.429,66.275,53.917,24.8,13.994,51.363,26.623,79.834,30.437,27.694,3.225,35.662-10.181,18.985-32.79-17.466-22.845-41.641-39.641-66.134-54.247Z" transform="translate(-83.788 11.693)" fill="#464698"/>
    <path id="Path_2437" data-name="Path 2437" d="M247.307,230.422c25.164-14.265,65.169-33.685,94.37-30.448,11.852,1.636,16.654,9.757,12.135,20.95-11.64,26.929-48.515,52.128-73.384,66.864-24.881,13.947-51.587,26.447-80.2,30.225-28.036,3.178-36.333-10.675-19.314-33.544,17.584-22.81,41.842-39.523,66.4-54.047Zm0,0c-24.493,14.606-48.656,31.4-66.134,54.247-16.478,22.363-8.957,36.039,18.985,32.791,28.471-3.813,55.024-16.478,79.834-30.437,24.516-14.477,48.727-31.166,66.276-53.917,16.631-22.363,9-35.98-18.914-32.838-28.518,3.707-55.153,16.242-80.034,30.154Z" transform="translate(-83.781 11.694)" fill="#464698"/>
    <path id="Path_2438" data-name="Path 2438" d="M288.628,227.95v36.239h-10.24V227.95c0-13.782-10.463-24.987-23.339-24.987s-23.339,11.2-23.339,24.987v36.239H221.47V227.95c0-19.738,15.065-35.78,33.579-35.78S288.628,208.212,288.628,227.95Z" transform="translate(-75.045 10.376)" fill="#f1f1f9"/>
    <path id="Path_2439" data-name="Path 2439" d="M221.47,230.58l10.24.412v26.4H221.47Z" transform="translate(-75.045 17.174)" fill="#7f7fe4"/>
    <path id="Path_2440" data-name="Path 2440" d="M280.07,232.964v24.081H269.83v-24.5Z" transform="translate(-66.487 17.52)" fill="#7f7fe4"/>
    <rect id="Rectangle_1492" data-name="Rectangle 1492" width="93.417" height="68.83" transform="translate(133.29 253.933)" fill="#464698"/>
    <rect id="Rectangle_1493" data-name="Rectangle 1493" width="46.702" height="68.83" transform="translate(180.004 253.933)" opacity="0.1"/>
    <path id="Path_2441" data-name="Path 2441" d="M254.738,268.981l3.531,16.878H243.215l3.531-16.878a7.556,7.556,0,1,1,7.98,0Z" transform="translate(-71.204 21.497)" fill="#263238"/>
    <path id="Path_2442" data-name="Path 2442" d="M214.691,263.493a99.43,99.43,0,0,1-.824-24.163c5.037.177,10.063.424,15.1.918-4.708.471-9.522.718-14.277.894l.883-.894c.153,1.942.235,3.872.259,5.814a91.948,91.948,0,0,1-1.177,17.431Z" transform="translate(-76.458 18.722)" fill="#fff"/>
  </g>
</svg>
