<svg xmlns="http://www.w3.org/2000/svg" width="220.672" height="245.88" viewBox="0 0 220.672 245.88">
  <g id="تسجيل_مزود_الخدمة" data-name="تسجيل مزود الخدمة" transform="translate(-47.882 -24.52)">
    <g id="freepik--background-complete--inject-21" transform="translate(47.882 77.449)">
      <path id="Path_1599" data-name="Path 1599" d="M356.383,201.715,316.668,186.7a5.308,5.308,0,0,1-3.085-6.848l20.783-54.966a5.313,5.313,0,0,1,6.848-3.091l25.19,9.523L378.3,158.784l-15.066,39.862a5.313,5.313,0,0,1-6.848,3.069Z" transform="translate(-168.338 -121.449)" fill="#f1f1f9"/>
      <path id="Path_1600" data-name="Path 1600" d="M405.466,139.52l-5.854,15.47a4.942,4.942,0,0,0,2.872,6.372l14.875,5.624Z" transform="translate(-207.401 -129.652)" fill="#dadaf8"/>
      <path id="Path_1601" data-name="Path 1601" d="M399.028,170.48a5.538,5.538,0,0,0,2.184,6.553,4.515,4.515,0,0,0,.448.295c1.813,1.092,13.739,8.191,13.848,7.9l1.573-4.161-14.875-5.624S398.547,173.887,399.028,170.48Z" transform="translate(-207.127 -143.706)" fill="rgba(70,70,152,0.26)"/>
      <path id="Path_1602" data-name="Path 1602" d="M378.949,158.611c-.076.2-4.248-1.2-9.321-3.113s-9.125-3.637-9.048-3.822,4.248,1.2,9.321,3.113S379.025,158.4,378.949,158.611Z" transform="translate(-189.828 -135.163)" fill="#dadaf8"/>
      <path id="Path_1603" data-name="Path 1603" d="M384.755,179.11c-.076.2-6.9-2.184-15.251-5.357s-15.06-5.881-14.984-6.083,6.9,2.184,15.257,5.362S384.815,178.908,384.755,179.11Z" transform="translate(-187.077 -142.425)" fill="#dadaf8"/>
      <path id="Path_1604" data-name="Path 1604" d="M382.42,193.518c-.076.2-7.514-2.43-16.617-5.876s-16.42-6.394-16.344-6.591,7.514,2.43,16.617,5.876S382.518,193.316,382.42,193.518Z" transform="translate(-184.78 -148.5)" fill="#dadaf8"/>
      <path id="Path_1605" data-name="Path 1605" d="M377.65,206.14c-.077.2-7.514-2.43-16.617-5.876s-16.42-6.416-16.344-6.591,7.514,2.43,16.617,5.87S377.726,205.938,377.65,206.14Z" transform="translate(-182.615 -154.231)" fill="#dadaf8"/>
      <path id="Path_1606" data-name="Path 1606" d="M372.875,218.758c-.077.2-7.519-2.43-16.617-5.876s-16.42-6.394-16.349-6.591,7.514,2.43,16.622,5.87S372.946,218.556,372.875,218.758Z" transform="translate(-180.445 -159.958)" fill="#dadaf8"/>
      <path id="Path_1607" data-name="Path 1607" d="M368.1,231.378c-.071.2-7.514-2.435-16.611-5.876s-16.425-6.394-16.349-6.591,7.514,2.43,16.617,5.87S368.176,231.176,368.1,231.378Z" transform="translate(-178.28 -165.687)" fill="#dadaf8"/>
      <rect id="Rectangle_1424" data-name="Rectangle 1424" width="62.42" height="86.425" rx="6.36" transform="matrix(0.944, -0.331, 0.331, 0.944, 0, 42.684)" fill="#f1f1f9"/>
      <rect id="Rectangle_1425" data-name="Rectangle 1425" width="53.661" height="78.775" transform="matrix(0.944, -0.331, 0.331, 0.944, 5.66, 45.599)" fill="#dadaf8"/>
      <rect id="Rectangle_1426" data-name="Rectangle 1426" width="53.661" height="77.273" transform="matrix(0.944, -0.331, 0.331, 0.944, 4.754, 45.25)" fill="#fafafa"/>
      <path id="Path_1608" data-name="Path 1608" d="M132.715,244.721l-25.6-72.9.093.044L56.567,189.6h0l.049-.1c9.545,27.39,18.43,52.689,25.523,72.932l-.082-.038,50.663-17.676L82.1,262.528h-.06v-.06c-7.1-20.242-15.956-45.541-25.556-72.926v-.076h.071l50.642-17.725h.071v.066Z" transform="translate(-51.785 -144.278)" fill="#f1f1f9"/>
      <path id="Path_1609" data-name="Path 1609" d="M163.2,300.768s11.276-9.512,13.231-19.418a14.334,14.334,0,0,1-9.643,5.816S166.564,297.541,163.2,300.768Z" transform="translate(-100.23 -194.035)" fill="#dadaf8"/>
      <rect id="Rectangle_1427" data-name="Rectangle 1427" width="6.558" height="6.558" rx="3.279" transform="matrix(0.944, -0.331, 0.331, 0.944, 17.634, 63.05)" fill="#dadaf8"/>
      <path id="Path_1610" data-name="Path 1610" d="M86.523,239.846h0a.131.131,0,0,1-.12,0l-1.223-.71a.153.153,0,0,1,.153-.262l1.092.622,1.289-2.73a.164.164,0,0,1,.208-.076.153.153,0,0,1,.071.207l-1.36,2.905A.142.142,0,0,1,86.523,239.846Z" transform="translate(-64.786 -173.756)" fill="#fff"/>
      <path id="Path_1611" data-name="Path 1611" d="M127.267,213.4c0,.044-6.553,2.386-14.684,5.231s-14.744,5.117-14.744,5.078,6.553-2.386,14.689-5.231S127.256,213.361,127.267,213.4Z" transform="translate(-70.56 -163.189)" fill="#ddddf8"/>
      <path id="Path_1612" data-name="Path 1612" d="M113.168,232.62s-.169.076-.475.2l-1.321.491c-1.092.4-2.665.956-4.368,1.556s-3.276,1.136-4.368,1.513l-1.338.442a3.524,3.524,0,0,1-.5.142,3.219,3.219,0,0,1,.475-.2l1.321-.486c1.092-.41,2.665-.961,4.368-1.562s3.276-1.13,4.368-1.513l1.338-.442A2.992,2.992,0,0,1,113.168,232.62Z" transform="translate(-71.904 -171.914)" fill="#ddddf8"/>
      <path id="Path_1613" data-name="Path 1613" d="M128.533,217.079c0,.038-6.553,2.381-14.689,5.226S99.1,227.427,99.1,227.384s6.553-2.381,14.694-5.226S128.533,217.036,128.533,217.079Z" transform="translate(-71.132 -164.859)" fill="#ddddf8"/>
      <rect id="Rectangle_1428" data-name="Rectangle 1428" width="6.558" height="6.558" rx="3.279" transform="matrix(0.944, -0.331, 0.331, 0.944, 21.438, 73.916)" fill="#dadaf8"/>
      <path id="Path_1614" data-name="Path 1614" d="M93.479,259.724h0a.142.142,0,0,1-.126,0l-1.218-.71a.152.152,0,1,1,.153-.262l1.092.623,1.289-2.758a.158.158,0,0,1,.2-.076.153.153,0,0,1,.076.2l-1.36,2.911A.158.158,0,0,1,93.479,259.724Z" transform="translate(-67.936 -182.767)" fill="#fff"/>
      <path id="Path_1615" data-name="Path 1615" d="M134.233,233.3c0,.044-6.553,2.381-14.689,5.231s-14.744,5.117-14.744,5.078,6.553-2.386,14.689-5.231S134.222,233.261,134.233,233.3Z" transform="translate(-73.72 -172.223)" fill="#dadaf8"/>
      <path id="Path_1616" data-name="Path 1616" d="M120.138,252.52s-.169.076-.481.2l-1.316.491c-1.092.4-2.665.956-4.368,1.556s-3.276,1.136-4.368,1.513l-1.338.442a3.525,3.525,0,0,1-.5.142,2.905,2.905,0,0,1,.475-.2l1.321-.486c1.092-.41,2.665-.961,4.368-1.562s3.276-1.13,4.368-1.513l1.338-.442a2.994,2.994,0,0,1,.5-.137Z" transform="translate(-75.068 -180.948)" fill="#dadaf8"/>
      <path id="Path_1617" data-name="Path 1617" d="M135.533,237c0,.038-6.553,2.381-14.689,5.226S106.1,247.347,106.1,247.3s6.553-2.381,14.689-5.226S135.533,236.945,135.533,237Z" transform="translate(-74.31 -173.902)" fill="#dadaf8"/>
      <rect id="Rectangle_1429" data-name="Rectangle 1429" width="6.558" height="6.558" rx="3.279" transform="matrix(0.944, -0.331, 0.331, 0.944, 25.247, 84.781)" fill="#dadaf8"/>
      <path id="Path_1618" data-name="Path 1618" d="M100.432,279.626h0a.142.142,0,0,1-.126,0l-1.223-.7a.153.153,0,1,1,.153-.262l1.092.622,1.289-2.758a.153.153,0,1,1,.278.126l-1.36,2.91a.18.18,0,0,1-.1.06Z" transform="translate(-71.082 -191.803)" fill="#fff"/>
      <path id="Path_1619" data-name="Path 1619" d="M141.2,253.2c0,.044-6.553,2.381-14.689,5.231s-14.744,5.117-14.744,5.073,6.553-2.381,14.694-5.226S141.186,253.161,141.2,253.2Z" transform="translate(-76.883 -181.256)" fill="#dadaf8"/>
      <path id="Path_1620" data-name="Path 1620" d="M127.1,272.41a3.53,3.53,0,0,1-.481.2l-1.321.491c-1.092.4-2.659.956-4.368,1.556s-3.276,1.13-4.368,1.513l-1.338.442a3.774,3.774,0,0,1-.5.142,2.9,2.9,0,0,1,.475-.2l1.321-.491c1.092-.4,2.665-.956,4.368-1.556s3.276-1.13,4.368-1.513l1.332-.442a4.648,4.648,0,0,1,.508-.142Z" transform="translate(-78.227 -189.977)" fill="#dadaf8"/>
      <path id="Path_1621" data-name="Path 1621" d="M142.533,256.88c0,.038-6.553,2.381-14.689,5.226s-14.744,5.122-14.744,5.078,6.553-2.381,14.689-5.231S142.494,256.836,142.533,256.88Z" transform="translate(-77.487 -182.926)" fill="#dadaf8"/>
      <rect id="Rectangle_1430" data-name="Rectangle 1430" width="6.558" height="6.558" rx="3.279" transform="matrix(0.944, -0.331, 0.331, 0.944, 29.05, 95.647)" fill="#dadaf8"/>
      <path id="Path_1622" data-name="Path 1622" d="M107.412,299.545h0a.153.153,0,0,1-.12,0l-1.223-.71a.153.153,0,1,1,.158-.262l1.092.623,1.289-2.73a.153.153,0,0,1,.2-.076.158.158,0,0,1,.076.2l-1.365,2.91A.158.158,0,0,1,107.412,299.545Z" transform="translate(-74.262 -200.855)" fill="#fff"/>
      <path id="Path_1623" data-name="Path 1623" d="M148.173,273.1c0,.044-6.553,2.381-14.689,5.226s-14.744,5.122-14.744,5.078,6.553-2.381,14.689-5.226S148.156,273.045,148.173,273.1Z" transform="translate(-80.047 -190.289)" fill="#dadaf8"/>
      <path id="Path_1624" data-name="Path 1624" d="M134.068,292.31a2.908,2.908,0,0,1-.475.2l-1.321.491c-1.092.4-2.665.956-4.368,1.556s-3.276,1.13-4.368,1.513l-1.338.442c-.317.1-.5.147-.5.142a2.908,2.908,0,0,1,.475-.2l1.321-.491c1.092-.4,2.665-.956,4.368-1.556s3.276-1.13,4.368-1.513l1.338-.442a3.78,3.78,0,0,1,.5-.142Z" transform="translate(-81.391 -199.01)" fill="#dadaf8"/>
      <path id="Path_1625" data-name="Path 1625" d="M149.463,276.78c0,.038-6.553,2.381-14.689,5.226s-14.744,5.117-14.744,5.078,6.553-2.381,14.689-5.231S149.446,276.736,149.463,276.78Z" transform="translate(-80.633 -191.96)" fill="#dadaf8"/>
      <path id="Path_1626" data-name="Path 1626" d="M67.09,180.8l1.332,3.822a4.254,4.254,0,0,0,5.417,2.61l28.013-9.829a4.243,4.243,0,0,0,2.6-5.411l-1.332-3.822Z" transform="translate(-56.601 -142.658)" fill="#dadaf8"/>
      <path id="Path_1627" data-name="Path 1627" d="M96.355,175.379a3.986,3.986,0,1,1,2.441-5.073,3.986,3.986,0,0,1-2.441,5.073Zm-2.13-6.078a2.457,2.457,0,1,0,3.129,1.507A2.457,2.457,0,0,0,94.226,169.3Z" transform="translate(-67.476 -142.413)" fill="#dadaf8"/>
      <path id="Path_1628" data-name="Path 1628" d="M114.266,200c0,.071-7.361,2.73-16.5,5.925s-16.562,5.734-16.589,5.663,7.361-2.73,16.5-5.925S114.238,199.905,114.266,200Z" transform="translate(-62.997 -157.105)" fill="#dadaf8"/>
      <path id="Path_1629" data-name="Path 1629" d="M112.292,202.447c0,.071-3.222,1.278-7.257,2.692s-7.328,2.523-7.355,2.425,3.227-1.278,7.263-2.692S112.271,202.376,112.292,202.447Z" transform="translate(-70.487 -158.216)" fill="#dadaf8"/>
    </g>
    <g id="freepik--Plants--inject-21" transform="translate(66.578 205.865)">
      <path id="Path_1630" data-name="Path 1630" d="M389.026,404.262a10.375,10.375,0,0,1,6.449-.781,5.358,5.358,0,0,1,3.183,1.42,2.29,2.29,0,0,1,.033,3.178,3.03,3.03,0,0,1-2.02.508c-1.709,0-3.6-.322-4.958.7-.781.584-1.294,1.556-2.222,1.846a2.184,2.184,0,0,1-2.419-1.092,3.762,3.762,0,0,1-.273-2.769A4.226,4.226,0,0,1,389.026,404.262Z" transform="translate(-220.359 -377.799)" fill="#464698"/>
      <path id="Path_1631" data-name="Path 1631" d="M381.78,374.443c1.2,1.709,3.533,1.147,4.614.1a8.712,8.712,0,0,0,1.949-4c.95-3.3,1.911-6.766,1.207-10.129a5.646,5.646,0,0,0-1.294-2.73,2.943,2.943,0,0,0-2.785-.928,4.3,4.3,0,0,0-2.435,2.556,24.151,24.151,0,0,0-2.386,10.375,8.45,8.45,0,0,0,1.13,4.8" transform="translate(-217.635 -356.651)" fill="#464698"/>
      <path id="Path_1632" data-name="Path 1632" d="M365.219,381.469a6.231,6.231,0,0,0,.972-5.739,11.063,11.063,0,0,0-3.4-4.915,18.288,18.288,0,0,0-6.083-3.588,6.471,6.471,0,0,0-2.73-.464,2.862,2.862,0,0,0-2.293,1.387c-.644,1.223,0,2.7.633,3.91a45.8,45.8,0,0,0,4,6.083,10.789,10.789,0,0,0,4.4,3.768c1.829.7,3.719.612,4.685-.65" transform="translate(-204.367 -361.22)" fill="#464698"/>
      <path id="Path_1633" data-name="Path 1633" d="M382.554,423.419a3.98,3.98,0,0,0,.1-.775c.06-.546.126-1.278.207-2.124a29.732,29.732,0,0,1,.481-3.118,23.884,23.884,0,0,1,1.13-3.675,13.581,13.581,0,0,1,1.878-3.326,7.022,7.022,0,0,1,2.375-1.977,6.606,6.606,0,0,1,2-.622,3.757,3.757,0,0,0,.775-.109,3.69,3.69,0,0,0-.792,0,6.139,6.139,0,0,0-2.08.546,6.985,6.985,0,0,0-2.506,1.988,13.348,13.348,0,0,0-1.944,3.4,22.073,22.073,0,0,0-1.125,3.735,26.66,26.66,0,0,0-.415,3.156c-.071.9-.093,1.638-.1,2.135a3.271,3.271,0,0,0,.016.77Z" transform="translate(-218.485 -379.793)" fill="#263238"/>
      <path id="Path_1634" data-name="Path 1634" d="M382.708,404.323a1.331,1.331,0,0,0,0-.36v-1.016c0-.9,0-2.184.044-3.822.082-3.205.355-6.651.89-11.511.5-4.57,1.179-9.889,1.895-13.346.153-.786.306-1.5.453-2.113s.257-1.158.371-1.589.175-.743.24-1a2.728,2.728,0,0,0,.066-.36,1.558,1.558,0,0,0-.126.339c-.082.262-.18.59-.3.994s-.273.961-.426,1.578-.333,1.321-.5,2.108a118.7,118.7,0,0,0-1.971,12.4,122.145,122.145,0,0,0-.792,12.516c0,1.605,0,2.905.055,3.822,0,.42.044.764.06,1.032A1.939,1.939,0,0,0,382.708,404.323Z" transform="translate(-218.497 -362.329)" fill="#263238"/>
      <path id="Path_1635" data-name="Path 1635" d="M373.356,397.95a6.545,6.545,0,0,0,0-1.092,29.222,29.222,0,0,0-.333-2.921,37.677,37.677,0,0,0-.95-4.259,34.478,34.478,0,0,0-1.78-5.04,26.905,26.905,0,0,0-5.226-8.142,13.322,13.322,0,0,0-1.234-1.141,5.042,5.042,0,0,0-.546-.448l-.475-.328A6.091,6.091,0,0,0,361.9,374a30.686,30.686,0,0,1,2.976,2.654,28.066,28.066,0,0,1,5.1,8.114,39.551,39.551,0,0,1,1.791,4.991,40.99,40.99,0,0,1,1.01,4.216c.224,1.218.355,2.184.431,2.894A7.433,7.433,0,0,0,373.356,397.95Z" transform="translate(-209.124 -364.508)" fill="#263238"/>
      <path id="Path_1636" data-name="Path 1636" d="M367.74,445.49l.857,11.74h15.088l.852-11.74Z" transform="translate(-211.775 -396.96)" fill="#263238"/>
      <rect id="Rectangle_1431" data-name="Rectangle 1431" width="20.057" height="4.631" transform="translate(154.513 43.899)" fill="#263238"/>
      <path id="Path_1637" data-name="Path 1637" d="M365.08,466.17v1.278H384.8V466.17Z" transform="translate(-210.567 -406.348)" fill="#455a64"/>
      <path id="Path_1638" data-name="Path 1638" d="M367.723,470.771l-.923-2.261h18.064l-1.081,2.261Z" transform="translate(-211.348 -407.41)" fill="#455a64"/>
      <path id="Path_1639" data-name="Path 1639" d="M384.486,451.148s0,.044-.071.109l-.224.3-.879,1.125-.038.049-.038-.055-2.157-2.981h.131l-2.13,3.009-.066.093-.077-.087-2.517-3h.142l-.137.175-2.255,2.823-.071.1-.071-.1c-.764-1.092-1.48-2.1-2.13-3.009h.126l-2.616,2.982-.049.055-.038-.06c-.344-.579-.617-1.043-.819-1.376l-.207-.366a.545.545,0,0,1-.066-.131.83.83,0,0,1,.087.115l.235.355.857,1.349h-.082l2.577-3.02.066-.076.06.082,2.146,3h-.147l2.266-2.823.142-.175.071-.093.071.087,2.517,3.009h-.142l2.146-3,.06-.087.065.087c.846,1.218,1.573,2.25,2.113,3.02h-.082l.917-1.092.246-.284Z" transform="translate(-211.997 -398.785)" fill="#e0e0e0"/>
      <path id="Path_1640" data-name="Path 1640" d="M384.854,445.263c0,.055-3.779.1-8.442.1s-8.442-.044-8.442-.1,3.779-.093,8.442-.093S384.854,445.214,384.854,445.263Z" transform="translate(-211.879 -396.815)" fill="#455a64"/>
      <path id="Path_1641" data-name="Path 1641" d="M385.038,468.668c0,.049-4.112.093-9.174.093s-9.174-.044-9.174-.093,4.106-.1,9.174-.1S385.038,468.614,385.038,468.668Z" transform="translate(-211.298 -407.437)" fill="#263238"/>
      <path id="Path_1642" data-name="Path 1642" d="M126.643,399.217c-.044.049-.388-.158-.77-.464s-.661-.6-.617-.65.382.158.764.464S126.681,399.162,126.643,399.217Z" transform="translate(-101.699 -375.445)" fill="#263238"/>
      <path id="Path_1643" data-name="Path 1643" d="M137.648,365.382a11.948,11.948,0,0,0-.355-4.341,3.819,3.819,0,0,0-7.186-.874,12.072,12.072,0,0,0-1.5,4.734,167.312,167.312,0,0,0-2.048,34.375l6.684.939C136.152,388.219,137.1,377.729,137.648,365.382Z" transform="translate(-102.22 -357.25)" fill="#455a64"/>
      <path id="Path_1644" data-name="Path 1644" d="M135.131,358l-.033.109-.109.3-.448,1.158c-.093.251-.218.546-.317.835l-.322,1.01-.377,1.163-.344,1.327a57.888,57.888,0,0,0-1.294,6.656c-.36,2.512-.6,5.3-.786,8.224-.339,5.859-.393,11.178-.546,15.022-.071,1.928-.137,3.484-.208,4.554-.038.546-.066.934-.087,1.24v-.005c0-.3,0-.715.038-1.24.044-1.092.082-2.627.131-4.554.109-3.822.136-9.163.481-15.028.186-2.932.431-5.723.8-8.246a55.024,55.024,0,0,1,1.349-6.629l.36-1.327q.213-.612.393-1.163l.349-1.01c.1-.306.235-.579.333-.83l.491-1.136q.076-.18.131-.295A.416.416,0,0,1,135.131,358Z" transform="translate(-103.973 -357.245)" fill="#263238"/>
      <path id="Path_1645" data-name="Path 1645" d="M139.03,358.05a4.821,4.821,0,0,1,.819,1.382,10.228,10.228,0,0,1,.606,4.325c-.175,3.7-.508,8.786-.945,14.41s-.934,10.7-1.327,14.378c-.2,1.835-.371,3.32-.5,4.368-.066.5-.115.89-.153,1.179l-.044.306a.714.714,0,0,1,0,.1v-.415c0-.289.06-.683.1-1.185.1-1.048.246-2.528.42-4.368.349-3.68.814-8.737,1.256-14.383s.8-10.708,1.016-14.394a10.44,10.44,0,0,0-.546-4.287A8.964,8.964,0,0,0,139.03,358.05Z" transform="translate(-107.255 -357.268)" fill="#263238"/>
      <path id="Path_1646" data-name="Path 1646" d="M146.762,389.014a3.642,3.642,0,0,1-1.267-.328,3.7,3.7,0,0,1-1.185-.546,3.5,3.5,0,0,1,1.267.328A3.642,3.642,0,0,1,146.762,389.014Z" transform="translate(-110.351 -370.927)" fill="#263238"/>
      <path id="Path_1647" data-name="Path 1647" d="M148.192,377.26a4.172,4.172,0,0,1-1.207.672,4.047,4.047,0,0,1-1.305.453A7.967,7.967,0,0,1,148.192,377.26Z" transform="translate(-110.972 -365.988)" fill="#263238"/>
      <path id="Path_1648" data-name="Path 1648" d="M147.867,366.886a4.042,4.042,0,0,1-1.977-.137,4.237,4.237,0,0,1,1.977.137Z" transform="translate(-111.068 -361.178)" fill="#263238"/>
      <path id="Path_1649" data-name="Path 1649" d="M135.953,359.087c-.055.033-.349-.333-.65-.814a2.408,2.408,0,0,1-.453-.945c.055-.033.349.328.655.814S136.024,359.048,135.953,359.087Z" transform="translate(-106.056 -356.939)" fill="#263238"/>
      <path id="Path_1650" data-name="Path 1650" d="M131.125,366.576a1.994,1.994,0,0,1-.95.1,1.971,1.971,0,0,1-.945-.142,1.993,1.993,0,0,1,.95-.1A1.971,1.971,0,0,1,131.125,366.576Z" transform="translate(-103.505 -361.065)" fill="#263238"/>
      <path id="Path_1651" data-name="Path 1651" d="M128.111,378.36a2.3,2.3,0,0,1-1-.273,2.36,2.36,0,0,1-.912-.5,2.3,2.3,0,0,1,1,.273,2.358,2.358,0,0,1,.912.5Z" transform="translate(-102.13 -366.138)" fill="#263238"/>
      <path id="Path_1652" data-name="Path 1652" d="M127.922,389.368a1.8,1.8,0,0,1-.852.3c-.486.1-.885.137-.9.071s.371-.2.852-.3A1.846,1.846,0,0,1,127.922,389.368Z" transform="translate(-102.116 -371.472)" fill="#263238"/>
      <path id="Path_1653" data-name="Path 1653" d="M126.461,406.319a2.029,2.029,0,0,1-.906.284,1.966,1.966,0,0,1-.945.044,2,2,0,0,1,.906-.279A1.928,1.928,0,0,1,126.461,406.319Z" transform="translate(-101.408 -379.162)" fill="#263238"/>
      <path id="Path_1654" data-name="Path 1654" d="M125.655,415.7c.033.055-.306.295-.754.546s-.835.382-.863.322.306-.295.754-.546S125.655,415.638,125.655,415.7Z" transform="translate(-101.148 -383.43)" fill="#263238"/>
      <path id="Path_1655" data-name="Path 1655" d="M133.753,424.721c-.055.033-.349-.371-.655-.906a2.632,2.632,0,0,1-.448-1.027c.055-.033.349.371.655.906a2.633,2.633,0,0,1,.448,1.027Z" transform="translate(-105.058 -386.654)" fill="#263238"/>
      <path id="Path_1656" data-name="Path 1656" d="M135.519,408.676c.044.044-.284.442-.732.885s-.852.759-.9.71.284-.442.732-.885S135.47,408.627,135.519,408.676Z" transform="translate(-105.617 -380.247)" fill="#263238"/>
      <path id="Path_1657" data-name="Path 1657" d="M135.4,398.353c-.049.049-.349-.2-.677-.546s-.546-.677-.5-.721.349.2.677.546S135.454,398.309,135.4,398.353Z" transform="translate(-105.77 -374.985)" fill="#263238"/>
      <path id="Path_1658" data-name="Path 1658" d="M136.743,387.577c.049.044-.224.431-.612.857s-.737.748-.786.7.224-.431.606-.863S136.694,387.533,136.743,387.577Z" transform="translate(-106.279 -370.669)" fill="#263238"/>
      <path id="Path_1659" data-name="Path 1659" d="M137.481,377.743c-.049.049-.426-.251-.852-.666s-.726-.792-.683-.841.426.251.852.672S137.525,377.694,137.481,377.743Z" transform="translate(-106.552 -365.521)" fill="#263238"/>
      <path id="Path_1660" data-name="Path 1660" d="M139.551,367.378a2.4,2.4,0,0,1-.431.95c-.289.491-.573.863-.628.83a2.336,2.336,0,0,1,.426-.95C139.213,367.717,139.491,367.346,139.551,367.378Z" transform="translate(-107.705 -361.501)" fill="#263238"/>
      <path id="Path_1661" data-name="Path 1661" d="M142.787,356.619c.06.033-.109.459-.377.95a2.6,2.6,0,0,1-.59.841,2.277,2.277,0,0,1,.377-.95C142.464,356.963,142.726,356.591,142.787,356.619Z" transform="translate(-109.22 -356.617)" fill="#263238"/>
      <path id="Path_1662" data-name="Path 1662" d="M146.088,361.494c.027.06-.24.246-.6.421s-.672.262-.7.2.24-.246.6-.421S146.061,361.434,146.088,361.494Z" transform="translate(-110.567 -358.823)" fill="#263238"/>
      <path id="Path_1663" data-name="Path 1663" d="M145.221,399.283a4.084,4.084,0,0,1-2.441-1.043,6.789,6.789,0,0,1,1.229.508A6.484,6.484,0,0,1,145.221,399.283Z" transform="translate(-109.656 -375.512)" fill="#263238"/>
      <path id="Path_1664" data-name="Path 1664" d="M144.256,408.3a2,2,0,0,1-.9.295,1.939,1.939,0,0,1-.945.06,2.048,2.048,0,0,1,.9-.295C143.824,408.262,144.245,408.235,144.256,408.3Z" transform="translate(-109.488 -380.062)" fill="#263238"/>
      <path id="Path_1665" data-name="Path 1665" d="M142.625,420.626c-.038.055-.546-.3-1.016-.89a2.66,2.66,0,0,1-.639-1.2,7.562,7.562,0,0,1,.825,1.048,7.22,7.22,0,0,1,.83,1.037Z" transform="translate(-108.834 -384.727)" fill="#263238"/>
      <path id="Path_1666" data-name="Path 1666" d="M124.306,427.8c-.044-.049.229-.355.606-.677s.721-.546.764-.491-.229.349-.606.677S124.35,427.851,124.306,427.8Z" transform="translate(-101.268 -388.397)" fill="#263238"/>
      <path id="Path_1667" data-name="Path 1667" d="M114.3,395.7c-.437-1.36-1.25-2.943-2.676-2.965a2.37,2.37,0,0,0-2.01,1.343,4.915,4.915,0,0,0-.546,2.457,64.2,64.2,0,0,0,3.063,17.812h5.226A62.18,62.18,0,0,0,114.3,395.7Z" transform="translate(-94.35 -373.01)" fill="#455a64"/>
      <path id="Path_1668" data-name="Path 1668" d="M93.88,378.632a5.8,5.8,0,0,0-5.461-4.641c-2.31.4-3.205,2.676-3.478,5a16.554,16.554,0,0,0,1.163,6.875q3.429,10.746,6.869,21.5l6.5-.71C97.44,397.056,96.261,388.155,93.88,378.632Z" transform="translate(-83.374 -364.504)" fill="#455a64"/>
      <path id="Path_1669" data-name="Path 1669" d="M113,392.73a4.869,4.869,0,0,0-.442.737,4.811,4.811,0,0,0-.246,2.31c.1.994.213,2.184.382,3.495s.4,2.73.7,4.248c.59,3,1.256,5.69,1.676,7.645.213.977.377,1.775.475,2.326.044.257.082.464.109.639s.033.224,0,.224a1.207,1.207,0,0,1-.066-.213l-.153-.628c-.142-.584-.328-1.365-.546-2.31-.464-1.955-1.158-4.636-1.747-7.645-.295-1.507-.546-2.949-.683-4.27-.087-.655-.142-1.289-.2-1.873s-.109-1.136-.137-1.638a4.74,4.74,0,0,1,.328-2.359,2.043,2.043,0,0,1,.546-.688Z" transform="translate(-95.725 -373.01)" fill="#263238"/>
      <path id="Path_1670" data-name="Path 1670" d="M89.958,373.65a8.3,8.3,0,0,0-.786,1.054,7.454,7.454,0,0,0-.988,3.4,15.836,15.836,0,0,0,.8,5.226c.546,1.933,1.2,4.057,1.857,6.28,1.294,4.456,2.463,8.486,3.32,11.429l.983,3.473c.109.393.191.7.257.945a1.569,1.569,0,0,1,.071.333,1.769,1.769,0,0,1-.12-.317c-.071-.24-.175-.546-.295-.939-.257-.836-.617-2.01-1.054-3.446l-3.391-11.413c-.655-2.233-1.272-4.368-1.84-6.291a15.6,15.6,0,0,1-.759-5.3,7.3,7.3,0,0,1,1.092-3.44A3.992,3.992,0,0,1,89.958,373.65Z" transform="translate(-84.792 -364.349)" fill="#263238"/>
      <path id="Path_1671" data-name="Path 1671" d="M100.779,405.916a3.045,3.045,0,0,1-.147-.311c-.082-.213-.218-.513-.366-.917a31.221,31.221,0,0,1-1.092-3.446c-.382-1.474-.819-3.276-1.212-5.242s-.786-4.166-1.223-6.46a62.617,62.617,0,0,0-1.534-6.378,36.134,36.134,0,0,0-1.895-5.007A26.915,26.915,0,0,0,91.556,375c-.224-.36-.426-.628-.546-.814a2.013,2.013,0,0,1-.18-.295,2.015,2.015,0,0,1,.218.262c.137.186.349.437.584.8a23.217,23.217,0,0,1,1.829,3.134,33.462,33.462,0,0,1,1.949,5.013,63.217,63.217,0,0,1,1.518,6.4c.431,2.288.835,4.472,1.207,6.465s.764,3.757,1.158,5.237.759,2.654,1.043,3.457c.131.41.257.715.328.928A1.567,1.567,0,0,1,100.779,405.916Z" transform="translate(-86.074 -364.458)" fill="#263238"/>
      <path id="Path_1672" data-name="Path 1672" d="M86.023,393.753a1.737,1.737,0,0,1-.792.311c-.453.109-.83.147-.841.082s.333-.2.786-.311S86.006,393.688,86.023,393.753Z" transform="translate(-83.15 -373.46)" fill="#263238"/>
      <path id="Path_1673" data-name="Path 1673" d="M84.3,385.541a3.356,3.356,0,0,1-1.092.12,3.229,3.229,0,0,1-1.092-.033,3.732,3.732,0,0,1,2.184-.087Z" transform="translate(-82.12 -369.682)" fill="#263238"/>
      <path id="Path_1674" data-name="Path 1674" d="M86.276,377.236c-.044.055-.4-.175-.786-.508s-.677-.644-.633-.694.393.175.786.508S86.32,377.187,86.276,377.236Z" transform="translate(-83.36 -365.428)" fill="#263238"/>
      <path id="Path_1675" data-name="Path 1675" d="M90.921,371.379c.066,0,.044.333.038.71s0,.7-.082.71-.169-.306-.158-.715S90.872,371.363,90.921,371.379Z" transform="translate(-86.023 -363.318)" fill="#263238"/>
      <path id="Path_1676" data-name="Path 1676" d="M97.743,374.607c.055.038-.1.36-.355.715s-.5.617-.546.579.1-.355.349-.715S97.689,374.569,97.743,374.607Z" transform="translate(-88.799 -364.782)" fill="#263238"/>
      <path id="Path_1677" data-name="Path 1677" d="M101.988,382.98a1.8,1.8,0,0,1-.748.437c-.437.18-.819.273-.841.213s.311-.257.748-.431S101.966,382.9,101.988,382.98Z" transform="translate(-90.417 -368.574)" fill="#263238"/>
      <path id="Path_1678" data-name="Path 1678" d="M104.441,391.57a1.906,1.906,0,0,1-1.027.453,2.042,2.042,0,0,1-1.125.038,4.26,4.26,0,0,1,1.092-.273,4.452,4.452,0,0,1,1.059-.218Z" transform="translate(-91.276 -372.484)" fill="#263238"/>
      <path id="Path_1679" data-name="Path 1679" d="M92.81,387.985c-.06,0,0-.344.1-.726s.268-.672.328-.65,0,.344-.1.726S92.9,388.007,92.81,387.985Z" transform="translate(-86.962 -370.231)" fill="#263238"/>
      <path id="Path_1680" data-name="Path 1680" d="M94.7,398.385a2.25,2.25,0,0,1,.295-.977c.224-.513.453-.906.513-.879a2.25,2.25,0,0,1-.295.977C94.989,398.02,94.76,398.424,94.7,398.385Z" transform="translate(-87.831 -374.734)" fill="#263238"/>
      <path id="Path_1681" data-name="Path 1681" d="M88.568,402.4a2.475,2.475,0,0,1-.934-.207c-.5-.158-.9-.3-.885-.366a1.813,1.813,0,0,1,.956.137C88.213,402.123,88.6,402.341,88.568,402.4Z" transform="translate(-84.221 -377.134)" fill="#263238"/>
      <path id="Path_1682" data-name="Path 1682" d="M91.589,411.682c.038.055-.24.317-.617.59s-.726.448-.764.4.24-.322.623-.6S91.55,411.627,91.589,411.682Z" transform="translate(-85.789 -381.609)" fill="#263238"/>
      <path id="Path_1683" data-name="Path 1683" d="M93.554,420.442a1.617,1.617,0,0,1-.77.306c-.442.1-.808.142-.825.082s.328-.2.77-.311S93.538,420.376,93.554,420.442Z" transform="translate(-86.586 -385.575)" fill="#263238"/>
      <path id="Path_1684" data-name="Path 1684" d="M105.217,398.9c.033.055-.262.289-.688.448s-.808.18-.819.12.328-.186.732-.344S105.184,398.837,105.217,398.9Z" transform="translate(-91.92 -375.803)" fill="#263238"/>
      <path id="Path_1685" data-name="Path 1685" d="M106.9,411.974c-.027.06-.377-.044-.781-.235s-.71-.393-.683-.453.382.049.786.235S106.935,411.914,106.9,411.974Z" transform="translate(-92.704 -381.426)" fill="#263238"/>
      <path id="Path_1686" data-name="Path 1686" d="M109.4,421.691a2.556,2.556,0,0,1-1.038-.279c-.546-.213-.967-.437-.945-.5a2.539,2.539,0,0,1,1.032.278C109,421.4,109.423,421.625,109.4,421.691Z" transform="translate(-93.604 -385.802)" fill="#263238"/>
      <path id="Path_1687" data-name="Path 1687" d="M95.349,428.816c-.033-.06.393-.344.885-.732s.874-.737.923-.688-.262.47-.775.874a2.1,2.1,0,0,1-1.032.546Z" transform="translate(-88.124 -388.745)" fill="#263238"/>
      <path id="Path_1688" data-name="Path 1688" d="M102.566,423.708c-.066,0-.158-.349-.322-.764s-.328-.748-.273-.786.328.246.5.7S102.632,423.708,102.566,423.708Z" transform="translate(-91.126 -386.367)" fill="#263238"/>
      <path id="Path_1689" data-name="Path 1689" d="M100.1,412.615c-.038.055-.311-.076-.612-.289s-.508-.431-.47-.486.311.076.612.289S100.152,412.56,100.1,412.615Z" transform="translate(-89.788 -381.679)" fill="#263238"/>
      <path id="Path_1690" data-name="Path 1690" d="M117.894,394.842c.038.055-.229.317-.6.584s-.693.448-.732.393.224-.311.59-.584S117.894,394.787,117.894,394.842Z" transform="translate(-97.755 -373.964)" fill="#263238"/>
      <path id="Path_1691" data-name="Path 1691" d="M120.247,402.09c0,.066-.41.153-.923.1s-.9-.229-.885-.289a2.833,2.833,0,0,1,.912.049C119.843,402,120.242,402.025,120.247,402.09Z" transform="translate(-98.607 -377.161)" fill="#263238"/>
      <path id="Path_1692" data-name="Path 1692" d="M108.618,403.907a1.5,1.5,0,0,1-.868.229c-.5.033-.9-.049-.89-.115s.4-.087.879-.12S108.607,403.841,108.618,403.907Z" transform="translate(-93.35 -378.066)" fill="#263238"/>
      <path id="Path_1693" data-name="Path 1693" d="M109.883,396.354c0,.066-.393.077-.819-.126s-.672-.491-.628-.546.339.153.726.328S109.888,396.289,109.883,396.354Z" transform="translate(-94.064 -374.347)" fill="#263238"/>
      <path id="Path_1694" data-name="Path 1694" d="M121.377,409.36c-.033.055-.431-.131-.89-.42s-.8-.546-.759-.622.431.137.89.42S121.415,409.305,121.377,409.36Z" transform="translate(-99.19 -380.079)" fill="#263238"/>
      <rect id="Rectangle_1432" data-name="Rectangle 1432" width="33.992" height="6.023" transform="translate(3.741 40.65)" fill="#464698"/>
      <path id="Path_1695" data-name="Path 1695" d="M93.62,439.91l4.134,18h20.259l4.521-18Z" transform="translate(-87.34 -394.427)" fill="#464698"/>
      <path id="Path_1696" data-name="Path 1696" d="M122.719,442.01c0,.065-7.645.12-17.124.12s-17.124-.055-17.124-.12,7.645-.12,17.124-.12S122.719,441.95,122.719,442.01Z" transform="translate(-85.003 -395.326)" fill="#263238"/>
      <path id="Path_1697" data-name="Path 1697" d="M115.866,403.066c-.055.033-.289-.235-.519-.606s-.371-.7-.317-.732.289.235.519.606S115.92,403.027,115.866,403.066Z" transform="translate(-97.054 -377.094)" fill="#263238"/>
      <path id="Path_1698" data-name="Path 1698" d="M116.588,411.592a1.9,1.9,0,0,1,.18-.912c.158-.486.344-.863.4-.841a1.911,1.911,0,0,1-.18.917C116.812,411.237,116.653,411.614,116.588,411.592Z" transform="translate(-97.765 -380.777)" fill="#263238"/>
      <path id="Path_1699" data-name="Path 1699" d="M118.886,420.775c-.06.033-.311-.377-.546-.906a2.484,2.484,0,0,1-.349-1.01c.06-.033.311.377.546.906A2.484,2.484,0,0,1,118.886,420.775Z" transform="translate(-98.403 -384.87)" fill="#263238"/>
      <path id="Path_1700" data-name="Path 1700" d="M113.054,428.826c-.049-.044.153-.355.453-.7s.579-.59.633-.546-.153.36-.453.7S113.1,428.9,113.054,428.826Z" transform="translate(-96.159 -388.826)" fill="#263238"/>
      <path id="Path_1701" data-name="Path 1701" d="M110.5,416.021c0,.066-.339.06-.732,0s-.7-.175-.688-.24.339-.06.726,0S110.51,415.956,110.5,416.021Z" transform="translate(-94.358 -383.453)" fill="#263238"/>
    </g>
    <g id="freepik--Character--inject-21" transform="translate(110.905 84.79)">
      <rect id="Rectangle_1433" data-name="Rectangle 1433" width="80.609" height="64.282" transform="translate(9.465 120.322)" fill="#f1f1f9"/>
      <g id="Group_36" data-name="Group 36" transform="translate(15.335 120.229)">
        <path id="Path_1702" data-name="Path 1702" d="M191.38,355.294c9.491,3.386,19.958,4.112,30.142,4.3a27.808,27.808,0,0,1,6.291.546,7.979,7.979,0,0,1,5.062,3.506,8.649,8.649,0,0,1,.371,6.689c-.65,2.2-1.769,4.237-2.577,6.383a23.836,23.836,0,0,0-1.272,11.91,11.184,11.184,0,0,0,1.682,4.805,5.51,5.51,0,0,0,4.27,2.5c3.063.044,5.16-2.965,6.678-5.63,6.23-10.921,12.969-23.317,16.955-35.237Z" transform="translate(-191.38 -355.07)" fill="#dadaf8"/>
      </g>
      <path id="Path_1703" data-name="Path 1703" d="M230.812,419.423c-.082,0-.142-14.247-.142-31.819s.06-31.824.142-31.824.142,14.247.142,31.824S230.888,419.423,230.812,419.423Z" transform="translate(-193.88 -235.163)" fill="#455a64"/>
      <path id="Path_1704" data-name="Path 1704" d="M240.288,231.77c-.24-1.605-5.035-6.9-5.035-6.9s-2.392-9.616-3.113-12.45a9.358,9.358,0,0,0-1.043-2.326,18.7,18.7,0,0,0-6.99-6.744l-6.635-3.73-1.584-3.528L199.956,187.9l-4.319,7.645s-10.49,3.331-11.877,5.7.688,34.293.688,34.293-4.368,18.413-5.313,22.225a19.376,19.376,0,0,0,.295,8.355l7.814-9.8c2.43-3.047,7.759-4.45,11.587-4.4l32.714.147L230.23,242.9l26.468,5.122s4.549-8.879,4.915-9.054S240.288,231.77,240.288,231.77Z" transform="translate(-170.325 -158.955)" fill="#464698"/>
      <path id="Path_1705" data-name="Path 1705" d="M216.306,207.345a131.041,131.041,0,0,0,4.456,13.93,35.117,35.117,0,0,1,2.113,12.052V259.21l15.683-1.065L236.215,241.1s-1.911-11-2.446-15.18c-.491-3.822-2.184-14.2-2.184-14.2S222.875,214.034,216.306,207.345Z" transform="translate(-187.352 -167.78)" fill="#fff"/>
      <path id="Path_1706" data-name="Path 1706" d="M280.045,274.578a1.093,1.093,0,0,1,0-.4,5.728,5.728,0,0,1,.208-1.054,7.1,7.1,0,0,1,1.791-3.042,7.192,7.192,0,0,1,3.042-1.8,5.726,5.726,0,0,1,1.054-.207,1.048,1.048,0,0,1,.393,0c0,.049-.546.109-1.387.4a7.558,7.558,0,0,0-4.7,4.712C280.154,274.032,280.094,274.578,280.045,274.578Z" transform="translate(-216.285 -195.341)" fill="#263238"/>
      <path id="Path_1707" data-name="Path 1707" d="M281.54,268.025a5.056,5.056,0,0,1,2.4-.693,4.914,4.914,0,0,1,2.474.295c0,.087-1.092-.126-2.452,0S281.573,268.107,281.54,268.025Z" transform="translate(-216.972 -194.991)" fill="#263238"/>
      <g id="Group_37" data-name="Group 37" transform="translate(11.18 87.16)" opacity="0.3">
        <path id="Path_1708" data-name="Path 1708" d="M185.135,294.51l-1.365,1.54a11.03,11.03,0,0,0,5.526,3.659,28.131,28.131,0,0,0,6.667.6,9.5,9.5,0,0,0,2.7-.257,12.569,12.569,0,0,1,2.637-.814,6.734,6.734,0,0,1,1.829.262,3.549,3.549,0,0,0,1.835.027,1.442,1.442,0,0,0,1.065-1.349A96.2,96.2,0,0,0,185.135,294.51Z" transform="translate(-183.77 -294.51)"/>
      </g>
      <path id="Path_1709" data-name="Path 1709" d="M245.282,293.078l-3.822-4.085L233.515,287s-7.252,2.184-7.426,2.184-6.312-1.682-6.312-1.682l-2.146,7.874,11.058.759,12.625-.508s.661-.612.268-1.032,2.113.71,2.408.721.863.24,1.256-.229A1.711,1.711,0,0,0,245.282,293.078Z" transform="translate(-187.961 -203.941)" fill="#ffbe9d"/>
      <path id="Path_1710" data-name="Path 1710" d="M254.331,299.013a7.049,7.049,0,0,1-1.256-.36c-.764-.24-1.829-.546-3.014-.874s-2.277-.546-3.069-.683a6.433,6.433,0,0,1-1.272-.3,5.521,5.521,0,0,1,1.305.1,28.264,28.264,0,0,1,3.1.612,26.313,26.313,0,0,1,3.014.961A5.148,5.148,0,0,1,254.331,299.013Z" transform="translate(-200.712 -208.385)" fill="#eb996e"/>
      <path id="Path_1711" data-name="Path 1711" d="M258.183,295.564a17.227,17.227,0,0,1-1.758-.546c-1.092-.36-2.583-.808-4.259-1.272a25.2,25.2,0,0,0-4.292-1.059,10.132,10.132,0,0,0-1.824.071,1.486,1.486,0,0,1,.475-.164,5.162,5.162,0,0,1,1.36-.109,17.71,17.71,0,0,1,4.368.988c1.638.491,3.178.945,4.248,1.36.546.2.956.388,1.251.519a1.641,1.641,0,0,1,.431.213Z" transform="translate(-200.862 -206.427)" fill="#eb996e"/>
      <path id="Path_1712" data-name="Path 1712" d="M176.731,212.33s-5.706,3.97-7.1,9.682-7.4,29.056-6.17,32.545,25.228,6.919,25.228,6.919l2.845-12.013-12.188-3.336s.158-11.112.311-15.716S176.731,212.33,176.731,212.33Z" transform="translate(-163.296 -170.045)" fill="#464698"/>
      <path id="Path_1713" data-name="Path 1713" d="M212.823,283.64l3.926.967-2.364,9.054-3.855-.617Z" transform="translate(-184.738 -202.416)" fill="#fff"/>
      <path id="Path_1714" data-name="Path 1714" d="M163.422,281.49a3.53,3.53,0,0,0,.06.546,2.659,2.659,0,0,0,.835,1.36,11.53,11.53,0,0,0,5.559,2.233h0c1.152.382,2.468.683,3.872,1s2.921.639,4.516.961c3.194.655,6.727,1.343,10.473,2.042l-.164.1c.268-1.092.546-2.288.846-3.484.672-2.73,1.327-5.417,1.944-7.945l.1.164-10.807-3.063h0a10.768,10.768,0,0,0-4.723-.83,10.468,10.468,0,0,0-3.566.841,11.95,11.95,0,0,0-2.048,1.136l-.5.36a1.061,1.061,0,0,1-.175.115,1.691,1.691,0,0,1,.153-.142c.1-.087.262-.224.481-.388a11.047,11.047,0,0,1,2.037-1.2,10.343,10.343,0,0,1,3.6-.9,10.812,10.812,0,0,1,4.816.8h0l10.839,3.036.131.033-.033.131c-.617,2.528-1.267,5.193-1.933,7.951-.295,1.19-.579,2.37-.852,3.478l-.033.131h-.131c-3.746-.7-7.273-1.4-10.468-2.07-1.595-.333-3.107-.666-4.516-.994s-2.73-.639-3.888-1.038h0a11.421,11.421,0,0,1-5.6-2.348,2.637,2.637,0,0,1-.819-1.425A1.665,1.665,0,0,1,163.422,281.49Z" transform="translate(-163.344 -198.212)" fill="#263238"/>
      <path id="Path_1715" data-name="Path 1715" d="M186.347,273.264c-.033.038-.442-.339-1.174-.825a11.222,11.222,0,0,0-6.487-1.895c-.885,0-1.425.12-1.436.071a4.506,4.506,0,0,1,1.425-.268,9.922,9.922,0,0,1,6.629,1.928A4.369,4.369,0,0,1,186.347,273.264Z" transform="translate(-169.63 -196.37)" fill="#263238"/>
      <path id="Path_1716" data-name="Path 1716" d="M193.876,239.91a4.462,4.462,0,0,1,0,.732c0,.475-.049,1.152-.115,1.993-.137,1.676-.382,3.986-.825,6.52a44.5,44.5,0,0,1-1.513,6.4c-.131.4-.273.759-.388,1.092l-.349.786a3.411,3.411,0,0,1-.377.633,3.7,3.7,0,0,1,.273-.677c.093-.235.191-.5.306-.8s.224-.677.344-1.092a57.119,57.119,0,0,0,1.425-6.389c.437-2.523.715-4.822.9-6.493.082-.792.153-1.453.208-1.977A3.1,3.1,0,0,1,193.876,239.91Z" transform="translate(-175.559 -182.565)" fill="#263238"/>
      <path id="Path_1717" data-name="Path 1717" d="M216.146,216.451a4.222,4.222,0,0,0-.186-.4,2.424,2.424,0,0,0-.825-.9,2.042,2.042,0,0,0-1.775-.262,2.282,2.282,0,0,0-1.5,1.7l-.076.388-.169-.36a37.928,37.928,0,0,1-1.665-4.216,22.165,22.165,0,0,1-1.234-7.448c0-.486.066-.923.093-1.311a5.929,5.929,0,0,1,.175-.972,5.1,5.1,0,0,1,.24-.808,19.385,19.385,0,0,0-.311,3.091,23.824,23.824,0,0,0,1.305,7.361,42.19,42.19,0,0,0,1.638,4.194l-.246.033a2.506,2.506,0,0,1,1.687-1.851,2.184,2.184,0,0,1,1.928.333,2.37,2.37,0,0,1,.808.988,1.419,1.419,0,0,1,.1.328C216.151,216.407,216.157,216.451,216.146,216.451Z" transform="translate(-183.915 -165.292)" fill="#263238"/>
      <path id="Path_1718" data-name="Path 1718" d="M246.486,218.151a4.3,4.3,0,0,1-.126-.65,6.894,6.894,0,0,1-.115-1.829,3.822,3.822,0,0,1,1.316-2.419,2.517,2.517,0,0,1,1.589-.573,2.184,2.184,0,0,1,1.671.748l-.24.142-.519-1.305c-1.021-2.572-1.928-4.915-2.572-6.6l-.748-2.015a3.78,3.78,0,0,1-.235-.748,4.28,4.28,0,0,1,.339.71c.218.546.5,1.185.835,1.982.694,1.676,1.638,4,2.648,6.553l.513,1.311.333.841-.546-.7a1.889,1.889,0,0,0-1.458-.655,2.266,2.266,0,0,0-1.431.5,3.719,3.719,0,0,0-1.283,2.244,7.748,7.748,0,0,0,.033,1.8A2.762,2.762,0,0,1,246.486,218.151Z" transform="translate(-200.943 -165.764)" fill="#263238"/>
      <path id="Path_1719" data-name="Path 1719" d="M265.247,233.31c.076,0,1.311,8.289,2.758,18.539s2.55,18.566,2.474,18.566-1.311-8.289-2.758-18.566S265.17,233.321,265.247,233.31Z" transform="translate(-209.574 -179.569)" fill="#263238"/>
      <g id="Group_38" data-name="Group 38" transform="translate(26.202 47.194)" opacity="0.3">
        <path id="Path_1720" data-name="Path 1720" d="M211.28,221.32a17.119,17.119,0,0,0,1.36,6.17,4.334,4.334,0,0,1,2.184-1.731,3.427,3.427,0,0,1,3.08,1.278,5.586,5.586,0,0,0-.983-2.359,2.768,2.768,0,0,0-2.184-1.13,1.911,1.911,0,0,0-1.818,1.485l-1.567-3.675" transform="translate(-211.28 -221.32)"/>
      </g>
      <path id="Path_1721" data-name="Path 1721" d="M189.973,225.751c-.049,0-.033-.573-.2-1.463a8.982,8.982,0,0,0-1.327-3.249,9.8,9.8,0,0,0-1.25-1.48,8.4,8.4,0,0,0-1.25-.977c-.77-.486-1.311-.672-1.289-.721a1.141,1.141,0,0,1,.388.1,2.308,2.308,0,0,1,.442.169,4.178,4.178,0,0,1,.546.284,7.646,7.646,0,0,1,1.327.95,9.062,9.062,0,0,1,1.305,1.518,8.141,8.141,0,0,1,1.289,3.375,5.509,5.509,0,0,1,.055,1.092C190.011,225.609,189.994,225.751,189.973,225.751Z" transform="translate(-172.994 -172.555)" fill="#263238"/>
      <path id="Path_1722" data-name="Path 1722" d="M234.469,152.3a11.7,11.7,0,0,0-11.937-10.457h-.606c-6.525.546-9.7,6.394-8.972,12.9l1.791,22.88.759.928a12.232,12.232,0,0,0,14.525,3.424h0l-.5-7.361s6.258-1.136,6.17-7.415C235.659,164.153,235.07,157.917,234.469,152.3Z" transform="translate(-185.791 -138.048)" fill="#ffbe9d"/>
      <path id="Path_1723" data-name="Path 1723" d="M236.594,200.014a15.2,15.2,0,0,1-8.284-2.184s2.048,4.472,8.3,3.746Z" transform="translate(-192.809 -163.463)" fill="#eb996e"/>
      <path id="Path_1724" data-name="Path 1724" d="M247.315,169.8a.906.906,0,0,1-.841.928.863.863,0,0,1-.945-.786.9.9,0,0,1,.841-.928.857.857,0,0,1,.945.786Z" transform="translate(-200.625 -150.381)" fill="#263238"/>
      <path id="Path_1725" data-name="Path 1725" d="M246.9,164.134c-.071.109-.781.186-1.638.644s-1.36,1.032-1.474,1.021,0-.158.213-.415a4.123,4.123,0,0,1,1.147-.89,3.735,3.735,0,0,1,1.332-.442C246.807,164.02,246.943,164.08,246.9,164.134Z" transform="translate(-199.816 -148.126)" fill="#263238"/>
      <path id="Path_1726" data-name="Path 1726" d="M230.715,170.672a.89.89,0,0,1-.841.928.857.857,0,0,1-.945-.786.9.9,0,0,1,.841-.928.857.857,0,0,1,.945.786Z" transform="translate(-193.09 -150.776)" fill="#263238"/>
      <path id="Path_1727" data-name="Path 1727" d="M229.142,165.791a15.085,15.085,0,0,0-1.638-.6c-.928-.229-1.7-.18-1.78-.257s.1-.109.431-.137a4.637,4.637,0,0,1,1.447.137,4.194,4.194,0,0,1,1.289.546C229.109,165.66,229.175,165.78,229.142,165.791Z" transform="translate(-191.626 -148.466)" fill="#263238"/>
      <path id="Path_1728" data-name="Path 1728" d="M238.336,173.681a6.728,6.728,0,0,1,1.562-.322c.246,0,.475-.087.513-.257a1.234,1.234,0,0,0-.18-.721l-.781-1.862a30.336,30.336,0,0,1-1.758-4.86,29.423,29.423,0,0,1,2.146,4.707c.262.655.513,1.278.748,1.873a1.436,1.436,0,0,1,.153.961.622.622,0,0,1-.4.371,1.574,1.574,0,0,1-.415.071A6.2,6.2,0,0,1,238.336,173.681Z" transform="translate(-197.063 -148.859)" fill="#263238"/>
      <path id="Path_1729" data-name="Path 1729" d="M228.357,159.116c-.109.257-1.065.087-2.184.164s-2.07.349-2.184.1c-.066-.115.109-.355.486-.59a3.822,3.822,0,0,1,3.358-.208C228.193,158.778,228.39,158.991,228.357,159.116Z" transform="translate(-190.841 -145.516)" fill="#263238"/>
      <path id="Path_1730" data-name="Path 1730" d="M246.082,159.372c-.213.224-1.043,0-2.037,0s-1.84.169-2.037-.06c-.087-.109.044-.333.41-.546a3.545,3.545,0,0,1,3.276.049C246.055,159.039,246.175,159.268,246.082,159.372Z" transform="translate(-199.015 -145.558)" fill="#263238"/>
      <path id="Path_1731" data-name="Path 1731" d="M235.173,143.568a1.2,1.2,0,0,0-1.256-.967,2.489,2.489,0,0,0,.863-.442.868.868,0,0,0,.3-.874c-.164-.486-.786-.59-1.278-.726a3.277,3.277,0,0,1-1.638-1.092c-.6-.754-.825-1.736-1.343-2.55a4.166,4.166,0,0,0-6.454-.71,4.341,4.341,0,0,0-6.984,1.065,5.062,5.062,0,0,0-6.935,5.543l3.91,2.4a2.113,2.113,0,0,1,2.577-1.835c1.18.344,1.933,1.709,3.156,1.8.956.071,1.769-.666,2.692-.912a4.559,4.559,0,0,1,3.315.715,13.228,13.228,0,0,0,3.1,1.562,6.438,6.438,0,0,0,3.981-.475,4.035,4.035,0,0,0,1.474-.912A1.824,1.824,0,0,0,235.173,143.568Z" transform="translate(-184.666 -134.893)" fill="#263238"/>
      <path id="Path_1732" data-name="Path 1732" d="M214.35,145.621l17.911-.1a8.137,8.137,0,0,0-2.73-2.971,13.979,13.979,0,0,0-8.191-2.692c-2.921,0-8.764,3.751-10.823,5.821a4.585,4.585,0,0,0-1.594,3.052c-.208,2.326,1.163,4.915,1.747,7.192.295,1.169.912,4.707.912,4.707h0c.983-.027,1.327-.825,1.152-1.8l-.289-3.822a5.783,5.783,0,0,0,1.578-6.793C213.777,147.882,213.187,146.3,214.35,145.621Z" transform="translate(-183.998 -137.148)" fill="#263238"/>
      <path id="Path_1733" data-name="Path 1733" d="M209.477,159.07c-.912-3.167-1.753-6.553-.781-9.72h-.546l-.218.158a2.506,2.506,0,0,0-2.818,3.861,2.184,2.184,0,0,0-2.184,1.895,4.052,4.052,0,0,0,.584,2.086,4.882,4.882,0,0,1,.683,2.075,1.556,1.556,0,0,1-1.19,1.611,1.786,1.786,0,0,0,2.026.988,3.566,3.566,0,0,1-1.229,1.551,4.055,4.055,0,0,0,4.035-.093,3.44,3.44,0,0,0,1.8-1.671A4.311,4.311,0,0,0,209.477,159.07Z" transform="translate(-181.288 -141.456)" fill="#263238"/>
      <path id="Path_1734" data-name="Path 1734" d="M210.961,173.784c-.109-.044-4.368-1.163-4.1,3.123s4.5,3.156,4.5,3.031S210.961,173.784,210.961,173.784Z" transform="translate(-183.066 -152.473)" fill="#ffbe9d"/>
      <path id="Path_1735" data-name="Path 1735" d="M211.59,179.544a1.46,1.46,0,0,1-.2.12.737.737,0,0,1-.546.044,1.849,1.849,0,0,1-.95-1.611,2.49,2.49,0,0,1,.147-1.092.874.874,0,0,1,.546-.606.388.388,0,0,1,.453.18c.066.115.038.2.066.213s.087-.082.044-.257a.517.517,0,0,0-.606-.344,1.059,1.059,0,0,0-.743.71,2.653,2.653,0,0,0-.191,1.212,1.929,1.929,0,0,0,1.2,1.791.808.808,0,0,0,.672-.153C211.59,179.648,211.607,179.549,211.59,179.544Z" transform="translate(-184.318 -153.635)" fill="#eb996e"/>
      <path id="Path_1736" data-name="Path 1736" d="M206.156,159.852a.745.745,0,0,1-.082-.5,1.6,1.6,0,0,1,.8-1.092,4.915,4.915,0,0,1,1.966-.475,2.419,2.419,0,0,0,1.955-.994,3.566,3.566,0,0,0,.338-2.255c-.1-.721-.295-1.371-.388-1.933a3.172,3.172,0,0,1,.027-1.84,8.514,8.514,0,0,0,.2,1.791c.12.546.333,1.185.464,1.944a3.752,3.752,0,0,1-.36,2.468,2.091,2.091,0,0,1-1.021.863,4.423,4.423,0,0,1-1.185.262,5.116,5.116,0,0,0-1.884.371,1.6,1.6,0,0,0-.792.939A3.452,3.452,0,0,0,206.156,159.852Z" transform="translate(-182.711 -142.096)" fill="#455a64"/>
      <path id="Path_1737" data-name="Path 1737" d="M204.211,157.581a.876.876,0,0,1-.131-.388,1.829,1.829,0,0,1,.213-1.092,1.943,1.943,0,0,1,.508-.612,2.184,2.184,0,0,1,.825-.382,2.419,2.419,0,0,0,.814-.339.972.972,0,0,0,.322-.786c0-.322-.038-.666-.027-1.01a5.049,5.049,0,0,1,.109-.977,4.521,4.521,0,0,1,.617-1.529,1.18,1.18,0,0,1,.945-.606c.284,0,.4.131.393.142a1.026,1.026,0,0,0-.382,0,1.092,1.092,0,0,0-.759.6,4.979,4.979,0,0,0-.513,1.463,5.511,5.511,0,0,0-.082.917c0,.317.049.655.033,1.027a1.272,1.272,0,0,1-.453,1.027,2.457,2.457,0,0,1-.934.377,1.775,1.775,0,0,0-1.212.819,2.4,2.4,0,0,0-.284,1.349Z" transform="translate(-181.804 -141.687)" fill="#455a64"/>
      <path id="Path_1738" data-name="Path 1738" d="M234.37,141.4a.871.871,0,0,1-.885-.027,2.576,2.576,0,0,1-.814-.693,3.419,3.419,0,0,0-.994-.879,2.965,2.965,0,0,0-3.233.213c-.546.382-1,.923-1.638,1.371a2.862,2.862,0,0,1-1.092.5,2.316,2.316,0,0,1-1.218-.115c-.775-.279-1.387-.754-2.053-.994a5.51,5.51,0,0,0-2.015-.366,5.335,5.335,0,0,0-3.276,1.119,5.865,5.865,0,0,0-1.529,1.8c-.268.5-.366.8-.393.792s0-.082.044-.229a4.743,4.743,0,0,1,.229-.623,5.581,5.581,0,0,1,1.5-1.922,5.493,5.493,0,0,1,3.391-1.24,5.57,5.57,0,0,1,2.135.366c.721.262,1.343.737,2.048.983a1.983,1.983,0,0,0,1.048.1,2.522,2.522,0,0,0,.945-.437c.573-.41,1.054-.95,1.638-1.354a3.091,3.091,0,0,1,1.873-.617,3.309,3.309,0,0,1,1.638.448,3.718,3.718,0,0,1,1.021.967,2.463,2.463,0,0,0,.726.7A1.229,1.229,0,0,0,234.37,141.4Z" transform="translate(-186.867 -136.821)" fill="#455a64"/>
      <path id="Path_1739" data-name="Path 1739" d="M234.451,182.41c.137,0,.289.885,1.185,1.4s1.851.257,1.884.382-.191.218-.6.295a2.31,2.31,0,0,1-1.562-.262,2.053,2.053,0,0,1-.939-1.19C234.32,182.661,234.386,182.415,234.451,182.41Z" transform="translate(-195.559 -156.463)" fill="#263238"/>
      <path id="Path_1740" data-name="Path 1740" d="M329.938,336.983a8.355,8.355,0,0,0-6.007-2l-3.691,11.724c2.7.12,5.4,1.513,8.011.8a5.717,5.717,0,0,0,3.981-4.7A6.788,6.788,0,0,0,329.938,336.983Z" transform="translate(-234.539 -225.714)" fill="#464698"/>
      <path id="Path_1741" data-name="Path 1741" d="M324.5,334.374c0-.093.4-.169,1.092-.164a9.119,9.119,0,0,1,3.02.573,8.191,8.191,0,0,1,3.68,2.856,7.607,7.607,0,0,1,1.229,2.545,6.7,6.7,0,0,1,.087,3.074,6.252,6.252,0,0,1-1.338,2.8,5.913,5.913,0,0,1-2.381,1.638,8.557,8.557,0,0,1-4.642.3,14.016,14.016,0,0,1-2.894-.9c-.65-.278-.994-.486-.961-.579s.426-.066,1.092.049,1.676.328,2.878.437a8.328,8.328,0,0,0,4.014-.546,4.778,4.778,0,0,0,1.8-1.332,5.034,5.034,0,0,0,1.016-2.184,6.007,6.007,0,0,0-1-4.587,7.911,7.911,0,0,0-3-2.687,13.57,13.57,0,0,0-2.692-.939C324.867,334.587,324.484,334.472,324.5,334.374Z" transform="translate(-235.06 -225.371)" fill="#f5f5f5"/>
      <path id="Path_1742" data-name="Path 1742" d="M257.777,415.06l-8.027,22.492,27.931,10.129c.808-2.73-11.7-13.324-11.7-13.324l5.734-14.2Z" transform="translate(-202.541 -262.072)" fill="#464698"/>
      <g id="Group_39" data-name="Group 39" transform="translate(53.975 167.921)" opacity="0.6">
        <path id="Path_1743" data-name="Path 1743" d="M263.407,442.431a1.212,1.212,0,0,0-1.261,1.016,1.163,1.163,0,0,0,.994,1.256,1.278,1.278,0,0,0,1.332-1.092c0-.6-.59-1.278-1.179-1.2" transform="translate(-262.141 -442.408)" fill="#fff"/>
      </g>
      <path id="Path_1744" data-name="Path 1744" d="M249.75,454.366l.814-2.266,26.528,10.583s1.048.988.59,1.813Z" transform="translate(-202.541 -278.886)" fill="#fff"/>
      <path id="Path_1745" data-name="Path 1745" d="M277.819,450.109c-.055.137-.759-.049-1.589.147s-1.4.639-1.5.546.382-.814,1.392-1.032S277.89,449.994,277.819,450.109Z" transform="translate(-213.874 -277.802)" fill="#263238"/>
      <path id="Path_1746" data-name="Path 1746" d="M282.865,454.457c0,.142-.694.158-1.365.546s-1.027.972-1.163.917.06-.857.906-1.354S282.865,454.326,282.865,454.457Z" transform="translate(-216.408 -279.873)" fill="#263238"/>
      <path id="Path_1747" data-name="Path 1747" d="M285.622,460.473c-.131,0-.076-.764.546-1.387s1.365-.683,1.382-.546-.519.388-1.021.906S285.764,460.511,285.622,460.473Z" transform="translate(-218.798 -281.782)" fill="#263238"/>
      <path id="Path_1748" data-name="Path 1748" d="M279.674,443.295c-.1.1-.661-.311-1.447-.546s-1.48-.2-1.507-.344.721-.42,1.638-.137S279.783,443.213,279.674,443.295Z" transform="translate(-214.783 -274.367)" fill="#263238"/>
      <path id="Path_1749" data-name="Path 1749" d="M280.036,434.764a2.829,2.829,0,0,1-1.392-.513,6.406,6.406,0,0,1-1.3-.983,6.891,6.891,0,0,1-.65-.715,1.874,1.874,0,0,1-.306-.48.628.628,0,0,1,.2-.748.8.8,0,0,1,.71-.1,2,2,0,0,1,.5.262,5.455,5.455,0,0,1,.764.617,5.219,5.219,0,0,1,.983,1.311,2.484,2.484,0,0,1,.41,1.436c-.076,0-.24-.519-.715-1.256a6.1,6.1,0,0,0-.994-1.152,5.7,5.7,0,0,0-.715-.546c-.268-.186-.519-.278-.639-.175s-.06.06-.027.169a1.429,1.429,0,0,0,.224.355,6.662,6.662,0,0,0,.584.688,8.011,8.011,0,0,0,1.163,1.01C279.556,434.463,280.069,434.693,280.036,434.764Z" transform="translate(-214.611 -269.391)" fill="#263238"/>
      <path id="Path_1750" data-name="Path 1750" d="M282.605,434.614a2.4,2.4,0,0,1,.12-1.485,4.914,4.914,0,0,1,.748-1.463,5.374,5.374,0,0,1,.661-.721,1.251,1.251,0,0,1,1.152-.382.7.7,0,0,1,.442.606,2.033,2.033,0,0,1-.044.546,3.386,3.386,0,0,1-1.463,2.184c-.808.546-1.436.48-1.431.431a6.252,6.252,0,0,0,1.223-.721,3.451,3.451,0,0,0,.917-1.152,3.068,3.068,0,0,0,.268-.819c.066-.311.038-.6-.082-.6a.836.836,0,0,0-.655.279,4.852,4.852,0,0,0-.622.633,5.191,5.191,0,0,0-.775,1.294C282.725,434.068,282.687,434.614,282.605,434.614Z" transform="translate(-217.426 -269.1)" fill="#263238"/>
      <path id="Path_1751" data-name="Path 1751" d="M198.16,304.606c-4.237.1-8.256.694-11.178,3.768-3.872,4.079-8.655,9.884-8.928,13.908-.4,6.007,3.227,7.809,5.876,9.283a7.437,7.437,0,0,0,3.822.89l48.971-.371,1.534-8.295-31.671-7.809L207.9,304.06Z" transform="translate(-169.981 -211.685)" fill="#263238"/>
      <path id="Path_1752" data-name="Path 1752" d="M231.682,303.46l15.4-.71s26.615,1.48,32.288,6.684,4.969,11.118,3.074,16.791-18.566,41.981-18.566,41.981a6.28,6.28,0,0,1,.6,4.614,6.089,6.089,0,0,1-4.369,4.139L245.3,371.5s-2.009-.71-.59-2.6a6.486,6.486,0,0,1,2.364-2.244v-3.784s5.2-9.463,5.674-10.763,5.461-20.554,5.461-20.554l3.315-5.7s-8.011-3.768-14.957-6.5l-16.218-4Z" transform="translate(-193.735 -211.09)" fill="#263238"/>
      <path id="Path_1753" data-name="Path 1753" d="M270.443,424.315a14.553,14.553,0,0,1-1.3-.852,17.588,17.588,0,0,0-6.913-2.627,15.261,15.261,0,0,1-1.54-.229,5.909,5.909,0,0,1,1.562.027,14.744,14.744,0,0,1,7.006,2.665A5.943,5.943,0,0,1,270.443,424.315Z" transform="translate(-207.507 -264.573)" fill="#455a64"/>
      <path id="Path_1754" data-name="Path 1754" d="M287.915,416.982a4.942,4.942,0,0,1-.857-.906c-.5-.584-1.169-1.414-1.862-2.364s-1.294-1.829-1.7-2.479a5.59,5.59,0,0,1-.612-1.092,5.733,5.733,0,0,1,.775.977l1.769,2.425c.661.9,1.267,1.7,1.791,2.408a5.732,5.732,0,0,1,.7,1.032Z" transform="translate(-217.58 -259.839)" fill="#455a64"/>
      <path id="Path_1755" data-name="Path 1755" d="M295.055,335.58c0,.044-.546.164-1.4.448a14.743,14.743,0,0,0-5.93,3.7,14.693,14.693,0,0,1-1.021,1.065,5.087,5.087,0,0,1,.874-1.2,12.466,12.466,0,0,1,2.73-2.31,12.319,12.319,0,0,1,3.276-1.447,4.962,4.962,0,0,1,1.474-.257Z" transform="translate(-219.314 -225.993)" fill="#455a64"/>
      <path id="Path_1756" data-name="Path 1756" d="M274.3,359.014a1.3,1.3,0,0,1,.06-.322l.229-.9.885-3.3,3.031-10.872c.617-2.124,1.141-4.145,1.736-5.979a12.489,12.489,0,0,1,2.79-4.254,15.99,15.99,0,0,1,2.643-2.184c.344-.218.612-.382.8-.48a1.738,1.738,0,0,1,.289-.147s-.371.251-1.027.715a17.737,17.737,0,0,0-2.566,2.233,12.488,12.488,0,0,0-2.687,4.2c-.546,1.807-1.092,3.855-1.709,5.968l-3.107,10.845c-.4,1.36-.737,2.468-.977,3.276-.115.36-.2.655-.279.885a1.251,1.251,0,0,1-.115.317Z" transform="translate(-213.685 -223.719)" fill="#455a64"/>
      <path id="Path_1757" data-name="Path 1757" d="M248.36,321.152c-.082,0-.4-2.872-.726-6.433a60.793,60.793,0,0,1-.437-6.46,62.512,62.512,0,0,1,.721,6.433C248.24,318.253,248.436,321.147,248.36,321.152Z" transform="translate(-201.369 -213.592)" fill="#455a64"/>
      <path id="Path_1758" data-name="Path 1758" d="M196.489,341.388c-.044,0-.279-.442-.764-1.125a11.3,11.3,0,0,0-2.233-2.353,11.468,11.468,0,0,0-2.823-1.6c-.781-.306-1.289-.421-1.278-.47a4.365,4.365,0,0,1,1.343.279,9.692,9.692,0,0,1,5.16,4.03A4.2,4.2,0,0,1,196.489,341.388Z" transform="translate(-175.141 -226.111)" fill="#455a64"/>
      <path id="Path_1759" data-name="Path 1759" d="M208.635,324.572c0,.044-.677-.371-1.807-.89a17.059,17.059,0,0,0-9.48-1.354c-1.229.175-1.977.393-1.988.344a1.887,1.887,0,0,1,.508-.2,11.829,11.829,0,0,1,1.447-.35A15.574,15.574,0,0,1,206.9,323.5a11.569,11.569,0,0,1,1.289.743,1.984,1.984,0,0,1,.442.328Z" transform="translate(-177.851 -219.779)" fill="#455a64"/>
      <path id="Path_1760" data-name="Path 1760" d="M256.1,334.009a1.681,1.681,0,0,1-.388-.066l-1.092-.235-3.986-.879c-3.369-.754-8.033-1.769-13.2-2.79s-9.867-1.868-13.269-2.452l-4.035-.693-1.092-.191a1.563,1.563,0,0,1-.377-.093,3.45,3.45,0,0,1,.388.033l1.092.142c.956.131,2.337.339,4.046.606,3.413.546,8.12,1.343,13.3,2.37s9.829,2.07,13.193,2.872c1.676.4,3.036.743,3.97.988l1.092.284a2.111,2.111,0,0,1,.366.1Z" transform="translate(-188.428 -221.921)" fill="#455a64"/>
      <path id="Path_1761" data-name="Path 1761" d="M223.321,322.19a15.146,15.146,0,0,0-.677-1.562,6.734,6.734,0,0,0-1.092-1.447,17.762,17.762,0,0,0-1.715-1.485,25.946,25.946,0,0,0-3.511-2.184,11.7,11.7,0,0,1-1.5-.852,9.222,9.222,0,0,1,1.589.672,20.52,20.52,0,0,1,3.593,2.135,16.081,16.081,0,0,1,1.726,1.524,6.327,6.327,0,0,1,1.092,1.534,5.215,5.215,0,0,1,.442,1.2A1.266,1.266,0,0,1,223.321,322.19Z" transform="translate(-186.69 -216.497)" fill="#455a64"/>
      <path id="Path_1762" data-name="Path 1762" d="M328.336,342c.06.066-.759.89-1.4,2.151s-.846,2.4-.928,2.381a4.958,4.958,0,0,1,.677-2.512A5.018,5.018,0,0,1,328.336,342Z" transform="translate(-237.159 -228.907)" fill="#263238"/>
      <g id="Group_40" data-name="Group 40" transform="translate(56.126 57.143)" opacity="0.3">
        <path id="Path_1763" data-name="Path 1763" d="M266.08,239.54l3.506,24.693.175.393a52.968,52.968,0,0,0-3.68-25.086Z" transform="translate(-266.08 -239.54)"/>
      </g>
      <path id="Path_1764" data-name="Path 1764" d="M267.771,264.984l-11.4,19.92-28.084.612-.071,1.272,27.194-.2.863-.033,28.712.06,5.8-10.009,7.415-10.626a1.048,1.048,0,0,0-.868-1.638l-28.663.109A1.048,1.048,0,0,0,267.771,264.984Z" transform="translate(-192.768 -193.654)" fill="#dadaf8"/>
      <path id="Path_1765" data-name="Path 1765" d="M335.061,286.83s1.474,1.354,1.245,2.5-.158,2-1.245,2.081a1.638,1.638,0,0,1-1.474,1.709,1.822,1.822,0,0,1-1.764,2.113s-.644,1.928-1.966,1.458a11.433,11.433,0,0,1-2.184-1.01l-.388-.7s-1.949-.732-1.469-1.829c.295-.666,1.3-.841,1.3-.841a1.873,1.873,0,0,1,.126-1.7c.464-.628,1.982-.109,1.982-.109a2.151,2.151,0,0,1,.48-1.485c.546-.617,2.938,1.048,2.938,1.048l1.316-1.573Z" transform="translate(-237.036 -203.864)" fill="#ffbe9d"/>
      <path id="Path_1766" data-name="Path 1766" d="M332.976,299.791a13.653,13.653,0,0,1-2.425-1.338,13.284,13.284,0,0,1-2.272-1.584,13.933,13.933,0,0,1,2.424,1.343,13.738,13.738,0,0,1,2.272,1.578Z" transform="translate(-238.189 -208.421)" fill="#eb996e"/>
      <path id="Path_1767" data-name="Path 1767" d="M336.492,296.171a11.379,11.379,0,0,1-2.25-1.19,11.553,11.553,0,0,1-2.1-1.431,11.03,11.03,0,0,1,2.25,1.19A11.547,11.547,0,0,1,336.492,296.171Z" transform="translate(-239.941 -206.914)" fill="#eb996e"/>
      <path id="Path_1768" data-name="Path 1768" d="M335.71,291.1a7.512,7.512,0,0,1,1.993,1.059,17.845,17.845,0,0,1,1.873,1.245,6.053,6.053,0,0,1-2.026-1A10.694,10.694,0,0,1,335.71,291.1Z" transform="translate(-241.562 -205.799)" fill="#eb996e"/>
      <path id="Path_1769" data-name="Path 1769" d="M322.571,265.578a.432.432,0,0,1-.137,0H320.48l-5.7.044-18.812.044H294.6a1.13,1.13,0,0,0-1.043.492q-.655,1.168-1.278,2.3l-2.424,4.368-4.112,7.388c-1.169,2.086-2.124,3.779-2.8,4.975-.322.546-.584,1.016-.77,1.343l-.208.344-.076.115a.288.288,0,0,1,.049-.131l.186-.36.726-1.365,2.73-5.018,4.063-7.421c.764-1.392,1.573-2.856,2.4-4.368l1.283-2.321a1.42,1.42,0,0,1,1.283-.623h1.371l18.812.038,5.7.049,1.551.027h.4A.431.431,0,0,1,322.571,265.578Z" transform="translate(-217.131 -194.128)" fill="#263238"/>
      <path id="Path_1770" data-name="Path 1770" d="M319.211,283.685a1.212,1.212,0,1,0,1.807-.213,1.294,1.294,0,0,0-1.807.213Z" transform="translate(-233.975 -202.215)" fill="#fff"/>
      <g id="Group_41" data-name="Group 41" transform="translate(4.993 73.092)" opacity="0.3">
        <path id="Path_1771" data-name="Path 1771" d="M172.959,269.431c-.24.1-.519.262-.519.546a.47.47,0,0,0,.4.426,5.073,5.073,0,0,0,1.169-.311c2.954-.65,5.384-.027,8.191,1.092l.093-.093C181.177,268.672,176.137,268.137,172.959,269.431Z" transform="translate(-172.44 -268.747)"/>
      </g>
    </g>
    <g id="freepik--Floor--inject-21" transform="translate(47.947 269.275)">
      <path id="Path_1772" data-name="Path 1772" d="M268.608,472.882c0,.076-49.391.142-110.3.142S48,472.937,48,472.882s49.38-.142,110.3-.142S268.608,472.778,268.608,472.882Z" transform="translate(-48 -472.74)" fill="#263238"/>
    </g>
    <g id="freepik--Ribbon--inject-21" transform="translate(96.256 51.92)">
      <path id="Path_1773" data-name="Path 1773" d="M141.357,135.807c.093.093,18.227-6.138,18.227-6.138l-6.99-16-16.125,6.187,8.879,5.1Z" transform="translate(-136.47 -92.389)" fill="#455a64"/>
      <path id="Path_1774" data-name="Path 1774" d="M161,100.8V79.013s25.015-4.576,43.04-4.3a296.869,296.869,0,0,1,36.586,3.227V98.852S184.131,93.806,161,100.8Z" transform="translate(-147.605 -74.698)" fill="#455a64"/>
      <path id="Path_1775" data-name="Path 1775" d="M160.76,120.9l9.829,11.254V118.93S162.371,119.913,160.76,120.9Z" transform="translate(-147.496 -94.777)" fill="#263238"/>
      <path id="Path_1776" data-name="Path 1776" d="M160.818,82.59c.082,0,.115,4.915.082,10.921s-.131,10.921-.207,10.921-.115-4.882-.082-10.921S160.736,82.59,160.818,82.59Z" transform="translate(-147.423 -78.281)" fill="#263238"/>
      <path id="Path_1777" data-name="Path 1777" d="M307.167,132.743c-.093.093-18.227-6.138-18.227-6.138l6.973-16,16.142,6.176-8.884,5.1Z" transform="translate(-205.682 -90.996)" fill="#455a64"/>
      <path id="Path_1778" data-name="Path 1778" d="M298.829,118.63,289,129.884V117.62A72.493,72.493,0,0,1,298.829,118.63Z" transform="translate(-205.71 -94.182)" fill="#263238"/>
      <path id="Path_1779" data-name="Path 1779" d="M306.716,80.63c.076,0,.164,4.745.191,10.6s0,10.6-.093,10.6-.164-4.745-.191-10.6S306.634,80.63,306.716,80.63Z" transform="translate(-213.705 -77.391)" fill="#263238"/>
      <path id="Path_1780" data-name="Path 1780" d="M186.816,97.212a3.2,3.2,0,0,1,5.226-2.73l-.764.917a1.889,1.889,0,0,0-1.54-.475,1.864,1.864,0,1,0,1.868,2.807l.961.672a3.194,3.194,0,0,1-5.766-1.19Z" transform="translate(-159.317 -83.347)" fill="#fff"/>
      <path id="Path_1781" data-name="Path 1781" d="M197.706,95.517a3.189,3.189,0,1,1,3.473,2.665,3.014,3.014,0,0,1-3.473-2.665ZM202.681,95a1.818,1.818,0,1,0-1.638,2.037A1.775,1.775,0,0,0,202.681,95Z" transform="translate(-164.249 -82.471)" fill="#fff"/>
      <path id="Path_1782" data-name="Path 1782" d="M216.63,97.031l-.235-3.484-1.524,2.981-.6.038-1.884-2.687.224,3.407-1.261.082-.349-5.8,1.092-.071,2.4,3.467,1.906-3.741,1.092-.071.393,5.8Z" transform="translate(-170.302 -82.167)" fill="#fff"/>
      <path id="Path_1783" data-name="Path 1783" d="M230.836,92.928c.033,1.3-.917,2.13-2.468,2.184l-1.174.033.049,1.605-1.349.038-.164-5.848,2.517-.071C229.8,90.848,230.792,91.629,230.836,92.928Zm-1.365.038c0-.639-.442-1-1.267-.977l-1.092.033.06,2.02,1.092-.033C229.083,93.988,229.487,93.6,229.471,92.966Z" transform="translate(-176.989 -82.039)" fill="#fff"/>
      <path id="Path_1784" data-name="Path 1784" d="M237,90.77h1.343v4.718h2.916V96.58H237Z" transform="translate(-182.105 -81.994)" fill="#fff"/>
      <path id="Path_1785" data-name="Path 1785" d="M250.6,95.684v1.092l-4.505-.131.169-5.816,4.368.131-.033,1.092-3.058-.093-.033,1.267,2.7.076-.033,1.048-2.7-.082-.038,1.349Z" transform="translate(-186.236 -82.021)" fill="#fff"/>
      <path id="Path_1786" data-name="Path 1786" d="M257.367,92.3l-1.857-.109.066-1.092,5.057.306-.066,1.092-1.857-.115-.284,4.712-1.343-.082Z" transform="translate(-190.507 -82.144)" fill="#fff"/>
      <path id="Path_1787" data-name="Path 1787" d="M270.047,96.931l-.1,1.092-4.489-.415.546-5.788,4.368.4-.1,1.092-3.047-.306-.115,1.261,2.687.246-.093,1.043-2.692-.246-.12,1.338Z" transform="translate(-195.024 -82.471)" fill="#fff"/>
      <path id="Path_1788" data-name="Path 1788" d="M276.3,92.79l2.616.349a2.908,2.908,0,1,1-.77,5.734l-2.616-.349Zm1.928,5.007a1.8,1.8,0,1,0,.475-3.571l-1.218-.164-.475,3.571Z" transform="translate(-199.595 -82.911)" fill="#fff"/>
    </g>
    <g id="freepik--Confetti--inject-21" transform="translate(99.833 47.067)">
      <path id="Path_1789" data-name="Path 1789" d="M327.29,82.794l1.431,1.676,4.03-1.676-1.18-1.764Z" transform="translate(-226.668 -72.719)" fill="#455a64"/>
      <path id="Path_1790" data-name="Path 1790" d="M320.424,67.907a2.1,2.1,0,1,1-2.1-2.1A2.1,2.1,0,0,1,320.424,67.907Z" transform="translate(-221.647 -65.81)" fill="#464698"/>
      <path id="Path_1791" data-name="Path 1791" d="M236.147,126.054A1.048,1.048,0,1,1,235.115,125a1.048,1.048,0,0,1,1.032,1.054Z" transform="translate(-184.342 -92.679)" fill="#464698"/>
      <path id="Path_1792" data-name="Path 1792" d="M147.115,97.407a.8.8,0,1,1-.786-.8.8.8,0,0,1,.786.8Z" transform="translate(-144.155 -79.791)" fill="#464698"/>
      <path id="Path_1793" data-name="Path 1793" d="M143.02,78.278l2.348.142,1.114-4.62-2.2.093Z" transform="translate(-143.02 -69.437)" fill="#455a64"/>
      <path id="Path_1794" data-name="Path 1794" d="M277.42,149.072l.792,2.217,4.685-.786-.945-1.982Z" transform="translate(-204.03 -103.355)" fill="#464698"/>
      <path id="Path_1795" data-name="Path 1795" d="M189.437,126.1l-1.447,1.857,3.173,3.533,1.169-1.862Z" transform="translate(-163.434 -93.178)" fill="#455a64"/>
    </g>
    <g id="freepik--Stars--inject-21" transform="translate(112.016 24.52)">
      <path id="Path_1796" data-name="Path 1796" d="M173.543,46.23l5.542,5.652,7.8-2.949.311,1.939-3.38,6.919,3.118,5.166-.262,1.545-7.552-1.272-4.467,4.9-1.048-.792-.923-6.231-7.044-3.67-.311-1.425,7.093-1.939Z" transform="translate(-165.33 -34.375)" fill="#464698"/>
      <g id="Group_42" data-name="Group 42" transform="translate(0 11.855)" opacity="0.3">
        <path id="Path_1797" data-name="Path 1797" d="M173.543,46.23l5.542,5.652,7.8-2.949.311,1.939-3.38,6.919,3.118,5.166-.262,1.545-7.552-1.272-4.467,4.9-1.048-.792-.923-6.231-7.044-3.67-.311-1.425,7.093-1.939Z" transform="translate(-165.33 -46.23)"/>
      </g>
      <path id="Path_1798" data-name="Path 1798" d="M173.543,43.32l5.542,5.657,7.8-1.365-3.664,7.022,3.713,7-7.814-1.311-5.515,5.69-1.163-7.836-7.115-3.489,7.093-3.528Z" transform="translate(-165.33 -33.054)" fill="#464698"/>
      <path id="Path_1799" data-name="Path 1799" d="M274.262,46.23l-5.548,5.652-7.8-2.949-.311,1.939,3.38,6.919-3.118,5.166.262,1.545,7.552-1.272,4.467,4.9,1.048-.792.923-6.231,7.044-3.67.311-1.425-7.093-1.939Z" transform="translate(-208.577 -34.375)" fill="#464698"/>
      <g id="Group_43" data-name="Group 43" transform="translate(52.023 11.855)" opacity="0.3">
        <path id="Path_1800" data-name="Path 1800" d="M274.262,46.23l-5.548,5.652-7.8-2.949-.311,1.939,3.38,6.919-3.118,5.166.262,1.545,7.552-1.272,4.467,4.9,1.048-.792.923-6.231,7.044-3.67.311-1.425-7.093-1.939Z" transform="translate(-260.6 -46.23)"/>
      </g>
      <path id="Path_1801" data-name="Path 1801" d="M274.48,43.32l-5.548,5.657-7.8-1.365,3.664,7.022-3.713,7,7.814-1.311,5.515,5.69,1.163-7.836,7.115-3.489-7.093-3.528Z" transform="translate(-208.795 -33.054)" fill="#464698"/>
      <path id="Path_1802" data-name="Path 1802" d="M221.1,28.06l4.614,9.015,10.643-.628-.36,2.479-6.76,7.159,1.829,7.486-.9,1.786-8.731-4.429L214.12,55.21l-.977-1.371,1.245-7.956-7.2-7.159.164-1.851,9.392.333Z" transform="translate(-184.332 -26.127)" fill="#464698"/>
      <g id="Group_44" data-name="Group 44" transform="translate(22.858 1.933)" opacity="0.3">
        <path id="Path_1803" data-name="Path 1803" d="M221.1,28.06l4.614,9.015,10.643-.628-.36,2.479-6.76,7.159,1.829,7.486-.9,1.786-8.731-4.429L214.12,55.21l-.977-1.371,1.245-7.956-7.2-7.159.164-1.851,9.392.333Z" transform="translate(-207.19 -28.06)"/>
      </g>
      <path id="Path_1804" data-name="Path 1804" d="M221.835,24.52l4.614,9.01,10.042,1.311-7.148,7.175,1.857,9.949-9.026-4.576-8.9,4.844,1.567-10-7.355-6.962,10-1.605Z" transform="translate(-184.468 -24.52)" fill="#464698"/>
    </g>
    <g id="freepik--speech-bubble--inject-21" transform="translate(167.768 98.475)">
      <path id="Path_1805" data-name="Path 1805" d="M267.43,166.98l7.71.852a18.074,18.074,0,1,1-2.73,5.881h0Z" transform="translate(-267.43 -160.058)" fill="#fafafa"/>
      <path id="Path_1806" data-name="Path 1806" d="M267.43,166.876c.3.4,1.862,2.468,5.051,6.7h-.115a.066.066,0,0,1,.1-.027.071.071,0,0,1,.033.076,17.949,17.949,0,0,0,.12,9.321,15.74,15.74,0,0,0,1,2.654c.218.437.426.885.661,1.327l.814,1.294a18.069,18.069,0,0,0,11,7.388,17.856,17.856,0,0,0,7.514.033,18.2,18.2,0,0,0,7.192-3.331,17.517,17.517,0,0,0,5.215-6.405,17.856,17.856,0,0,0,1.791-8.235,18.206,18.206,0,0,0-2.02-7.82,17.6,17.6,0,0,0-4.882-5.887,18.124,18.124,0,0,0-12.914-3.691,19.6,19.6,0,0,0-5.652,1.562,18.02,18.02,0,0,0-7.137,5.93.055.055,0,0,1-.06.027l-7.7-.917,7.721.781-.066.033a17.927,17.927,0,0,1,7.164-6.007,19.368,19.368,0,0,1,5.7-1.627,18.32,18.32,0,0,1,13.105,3.7,17.763,17.763,0,0,1,4.964,5.968,18.342,18.342,0,0,1,2.059,7.94,18.134,18.134,0,0,1-1.813,8.366,17.812,17.812,0,0,1-5.3,6.5,18.494,18.494,0,0,1-7.306,3.375,18.02,18.02,0,0,1-7.645-.049,18.216,18.216,0,0,1-11.1-7.486l-.819-1.311c-.235-.448-.442-.906-.666-1.349a16.031,16.031,0,0,1-.994-2.687,17.982,17.982,0,0,1-.066-9.409l.131.049h0a.076.076,0,0,1-.1.027h0Z" transform="translate(-267.43 -159.953)" fill="#263238"/>
      <path id="Path_1807" data-name="Path 1807" d="M296.232,181.408a1.683,1.683,0,0,1,0,.251v.7c0,.633,0,1.513.033,2.627,0,2.266.038,5.461.066,9.283l-.126-.126h12.849c.033-.033-.268.268-.142.136h0V181.43l.12.126-9.283-.066-2.627-.027h-.049l2.594-.033,9.354-.06h.126v12.9h0c.131-.126-.169.18-.142.147H296.03v-.147c0-3.855.044-7.071.06-9.354,0-1.092,0-1.977.033-2.6v-.677A.968.968,0,0,1,296.232,181.408Z" transform="translate(-280.413 -169.675)" fill="#263238"/>
      <path id="Path_1808" data-name="Path 1808" d="M309.885,185.325c.186.147-1.54,2.637-3.861,5.564-.459.584-.912,1.141-1.332,1.638l-.273.333-.306-.278c-2.009-1.807-3.369-3.194-3.249-3.336s1.7,1,3.779,2.73l-.584.055c.4-.546.835-1.092,1.3-1.671C307.673,187.432,309.7,185.183,309.885,185.325Z" transform="translate(-282.604 -171.468)" fill="#464698"/>
    </g>
  </g>
</svg>
