<svg xmlns="http://www.w3.org/2000/svg" width="235.52" height="224.489" viewBox="0 0 235.52 224.489">
  <g id="سيتم_التواصل_خلال_ساعات" data-name="سيتم التواصل خلال ساعات" transform="translate(-30.76 -34.156)">
    <g id="freepik--Desk--inject-18" transform="translate(30.76 250.68)">
      <path id="Path_2135" data-name="Path 2135" d="M30.76,437.533,60.2,437.4l29.44-.048,58.88-.086,58.88.086,29.44.048,29.44.129-29.44.134-29.44.048-58.88.086-58.88-.086-29.44-.048Z" transform="translate(-30.76 -437.27)" fill="#263238"/>
    </g>
    <g id="freepik--character-2--inject-18" transform="translate(141.707 54.33)">
      <rect id="Rectangle_1460" data-name="Rectangle 1460" width="89.056" height="90.012" transform="translate(30.705 9.827)" fill="#f1f1f9"/>
      <path id="Path_2136" data-name="Path 2136" d="M353.611,76.695c2.97-3.486,8.057-4.324,12.977-3.33s10.812,3.475,11.35,11.7c.44,6.682-1.611,13.2-1.611,20.653s8.438,25.616-5.065,34.478c-12.134,7.96-36.718.65-37.475-15.738-.6-12.988,14.809-25,16.431-30.138S350.356,80.508,353.611,76.695Z" transform="translate(-281.961 -72.298)" fill="#263238"/>
      <path id="Path_2137" data-name="Path 2137" d="M351.34,93.55a29.22,29.22,0,0,1-2.149,10.984A10.559,10.559,0,0,1,347.661,107c-.6.752-1.23,1.461-1.864,2.149-1.278,1.391-2.541,2.772-3.76,4.206a38.337,38.337,0,0,0-5.941,9.341,29.371,29.371,0,0,0-2.358,10.743,25.358,25.358,0,0,1,.167-5.6,27.6,27.6,0,0,1,1.434-5.457,34,34,0,0,1,5.865-9.7c1.219-1.456,2.514-2.847,3.8-4.222a18.954,18.954,0,0,0,3.395-4.3,23.63,23.63,0,0,0,1.864-5.178A44.334,44.334,0,0,0,351.34,93.55Z" transform="translate(-281.908 -81.822)" fill="#263238"/>
      <path id="Path_2138" data-name="Path 2138" d="M414.352,105.94c-.091,3.792-.333,7.579-.231,11.344a46.358,46.358,0,0,0,.473,5.6c.279,1.826.827,3.652,1.284,5.5s.865,3.722,1.166,5.613a32.6,32.6,0,0,1,.365,5.742,20.366,20.366,0,0,1-1.074,5.667,14.4,14.4,0,0,1-3.164,4.8,15.185,15.185,0,0,0,2.686-4.963,20.213,20.213,0,0,0,.741-5.522,48.588,48.588,0,0,0-1.751-11.1c-.43-1.842-.978-3.669-1.241-5.608a36.593,36.593,0,0,1-.29-5.731,93.04,93.04,0,0,1,1.037-11.344Z" transform="translate(-318.713 -87.557)" fill="#263238"/>
      <path id="Path_2139" data-name="Path 2139" d="M324.228,147.126c-12.354,13.6-22.436,20.132-32.373,20.132-9.448,0-29.633-22.941-31.116-25.965-1.278-2.61,15.292-16.893,17.838-15.115,4.3,2.976,18.08,20.2,19.541,20.282s6.843-3.475,19.8-9.545C325.8,133.236,332.822,137.7,324.228,147.126Z" transform="translate(-248.125 -96.854)" fill="#ffc4c0"/>
      <path id="Path_2140" data-name="Path 2140" d="M251.852,127.578c-1.816-1.966-9.437-11.779-10.947-14.981s-5.167-12.73-2.831-14.132,3.626,1.3,3.626,1.3-.908-4.265,1.574-5.463,4.351,3.072,4.351,3.072-.612-4.447,1.944-5.468,3.728,3.6,3.728,3.6-.752-4.045,1.708-4c2.96.059,3.5,7.67,5.43,11.081.435.773,9.985,15.04,9.985,15.04Z" transform="translate(-237.315 -80.877)" fill="#ffc4c0"/>
      <path id="Path_2141" data-name="Path 2141" d="M266.569,98.045c.414,5.591,1.563,7.971,4.834,12.413.065.086-.048.2-.124.118-3.615-4.061-5.484-6.832-5-12.526C266.322,97.771,266.547,97.777,266.569,98.045Z" transform="translate(-250.688 -83.809)" fill="#263238"/>
      <path id="Path_2142" data-name="Path 2142" d="M256.234,101.471c.935,5.774,2.148,8.363,5.258,13.267.043.07-.07.15-.118.086-3.443-4.56-5.248-7.369-5.425-13.262C255.939,101.294,256.191,101.2,256.234,101.471Z" transform="translate(-245.94 -85.413)" fill="#263238"/>
      <path id="Path_2143" data-name="Path 2143" d="M245.656,107.136c1.311,5.527,2.53,8.422,6.15,12.794.086.107-.059.242-.15.145a18.849,18.849,0,0,1-6.161-12.891C245.463,106.84,245.576,106.787,245.656,107.136Z" transform="translate(-241.099 -88.001)" fill="#263238"/>
      <path id="Path_2144" data-name="Path 2144" d="M293.6,123.387s-.124-7.031-.859-10.109-7.67-13.53-10.039-12.155c-3.024,1.773-.2,8.594,1.611,11.763,0,0-6.983,4.1-6.032,9.443S293.6,123.387,293.6,123.387Z" transform="translate(-256.237 -85.27)" fill="#ffc4c0"/>
      <path id="Path_2145" data-name="Path 2145" d="M281.78,102.612c-1.611,3.61,1.074,7.611,2.605,10.807a.328.328,0,0,1-.236.478c-2.825,1.918-6.247,5.436-6.29,9.034a.081.081,0,1,1-.161,0c-.478-3.867,2.6-7.606,5.822-9.5-1.611-3.26-4.12-7.386-1.773-10.85Z" transform="translate(-255.984 -86.002)" fill="#263238"/>
      <path id="Path_2146" data-name="Path 2146" d="M339.34,150.263l9.926,18.52s13.46-13.068,15.609-18.52-.167-9.411-9.744-6.494a83.83,83.83,0,0,0-15.792,6.494Z" transform="translate(-284.54 -104.61)" fill="#464698"/>
      <path id="Path_2147" data-name="Path 2147" d="M354.907,170.939c-.489-1-.918-2.041-1.429-3.04s-1.021-1.987-1.552-2.965c-1.074-1.977-2.149-3.959-3.266-5.908-.634-1.074-1.3-2.181-1.993-3.223-.027-.048-.118,0-.091.038,1.821,4.077,4.028,7.982,6.231,11.86.639,1.123,1.364,2.191,2.03,3.3C354.858,171.025,354.934,170.976,354.907,170.939Z" transform="translate(-287.887 -110.627)" fill="#263238"/>
      <path id="Path_2148" data-name="Path 2148" d="M367.666,151.424c-2.149,5.452-15.609,18.52-15.609,18.52l-6.687-12.456,22.06-12.2C368.7,146.611,368.681,148.851,367.666,151.424Z" transform="translate(-287.331 -105.771)" fill="#263238"/>
      <path id="Path_2149" data-name="Path 2149" d="M340.153,180.789s-5.457,13.063-3.529,23h60.169c-1.955-27.012-15.421-50.227-23.376-57.741-6.413-6.059-13.165-5.516-17.865-2.417-1.107.736-13.315,17.607-14.637,20.277C335.674,174.44,340.153,180.789,340.153,180.789Z" transform="translate(-283.092 -103.956)" fill="#464698"/>
      <path id="Path_2150" data-name="Path 2150" d="M371.053,132.477s-3.76,10.812-1.579,11.376c5.425,1.4,12.7-7.461,13.138-8.363.107-.231.591-6.284.951-11,.231-3.029.408-5.506.408-5.506l-13.385,4.592.43,8.3Z" transform="translate(-298.173 -93.597)" fill="#ffc4c0"/>
      <path id="Path_2151" data-name="Path 2151" d="M372.09,123.582l.43,8.3c2.723-.381,8.712-1.858,12.547-7.386.231-3.029.408-5.506.408-5.506l-1.676.537Z" transform="translate(-299.699 -93.597)" fill="#263238"/>
      <path id="Path_2152" data-name="Path 2152" d="M353.5,90.358c-.161,4.216.258,7.627,1.284,9.894a11.5,11.5,0,0,0,9.985,6.736,16.7,16.7,0,0,0,9.609-2.922c2.61-1.987,4.184-5.57,5.076-11.871,2.041-14.406-4.549-19.251-11.043-19.831S354.038,75.823,353.5,90.358Z" transform="translate(-291.079 -71.991)" fill="#ffc4c0"/>
      <path id="Path_2153" data-name="Path 2153" d="M359.92,98.54c.338-.048.65-.145.978-.22a1.681,1.681,0,0,0,.961-.414.537.537,0,0,0,0-.634,1.289,1.289,0,0,0-1.268-.285,1.891,1.891,0,0,0-1.176.682.537.537,0,0,0,.5.87Z" transform="translate(-293.775 -83.385)" fill="#263238"/>
      <path id="Path_2154" data-name="Path 2154" d="M376.375,99.206a9.586,9.586,0,0,1-.978-.226,1.611,1.611,0,0,1-.956-.419.537.537,0,0,1,0-.634,1.284,1.284,0,0,1,1.273-.274,1.885,1.885,0,0,1,1.182.693.537.537,0,0,1-.521.859Z" transform="translate(-300.739 -83.691)" fill="#263238"/>
      <path id="Path_2155" data-name="Path 2155" d="M373.62,107.352c0-.038.075.048.075.091-.081.983,0,2.149.875,2.5V110C373.475,109.8,373.389,108.27,373.62,107.352Z" transform="translate(-300.359 -88.206)" fill="#263238"/>
      <path id="Path_2156" data-name="Path 2156" d="M374.583,105.51c1.611-.043,1.568,3.153.086,3.2S373.267,105.547,374.583,105.51Z" transform="translate(-300.387 -87.357)" fill="#263238"/>
      <path id="Path_2157" data-name="Path 2157" d="M376.454,105.764c.274.183.537.5.881.537s.688-.29.945-.612c.027-.032.054,0,.054.038,0,.612-.236,1.241-.9,1.327s-1.021-.473-1.171-1.074C376.239,105.85,376.341,105.689,376.454,105.764Z" transform="translate(-301.63 -87.434)" fill="#263238"/>
      <path id="Path_2158" data-name="Path 2158" d="M362.917,106.572c0-.038-.075.048-.075.086,0,.994-.1,2.149-1,2.46-.027,0-.027.059,0,.054C362.944,109.021,363.1,107.507,362.917,106.572Z" transform="translate(-294.946 -87.845)" fill="#263238"/>
      <path id="Path_2159" data-name="Path 2159" d="M361.112,104.647c-1.611-.124-1.724,3.072-.247,3.185S362.444,104.754,361.112,104.647Z" transform="translate(-294.022 -86.957)" fill="#263238"/>
      <path id="Path_2160" data-name="Path 2160" d="M359.547,104.8c-.258.161-.537.457-.822.467s-.6-.349-.806-.688c0-.038-.048,0-.054.032-.038.612.134,1.252.72,1.4s.945-.381,1.112-.983C359.708,104.9,359.628,104.732,359.547,104.8Z" transform="translate(-293.112 -86.918)" fill="#263238"/>
      <path id="Path_2161" data-name="Path 2161" d="M371.859,121.66c-.231.242-.457.569-.811.612a2.756,2.756,0,0,1-1.074-.209.032.032,0,0,0-.043.048,1.343,1.343,0,0,0,1.278.494,1.074,1.074,0,0,0,.747-.9.054.054,0,0,0-.1-.043Z" transform="translate(-298.694 -94.822)" fill="#263238"/>
      <path id="Path_2162" data-name="Path 2162" d="M364.527,106.549s-.236,1.477-.247,2.175c0,.064.167.1.4.118h.027a3.314,3.314,0,0,0,3.223-1.171c.048-.064-.038-.14-.1-.1a5.028,5.028,0,0,1-3.046.806c-.043-.2.489-2.514.376-2.524a5.951,5.951,0,0,0-1.611.328c.4-3.088,1.295-6.086,1.644-9.163,0-.107-.145-.145-.177-.048a50.456,50.456,0,0,0-2.2,9.792C362.776,107.167,364.226,106.667,364.527,106.549Z" transform="translate(-295.407 -83.38)" fill="#263238"/>
      <path id="Path_2163" data-name="Path 2163" d="M367.12,117.686a3.663,3.663,0,0,0,1.375,1.246,1.665,1.665,0,0,0,.988.14c.736-.134.806-.795.72-1.37a4.16,4.16,0,0,0-.258-.892A4.737,4.737,0,0,1,367.12,117.686Z" transform="translate(-297.398 -92.588)" fill="#263238"/>
      <path id="Path_2164" data-name="Path 2164" d="M369.68,119.7a1.665,1.665,0,0,0,.988.14c.736-.134.806-.795.72-1.37A1.7,1.7,0,0,0,369.68,119.7Z" transform="translate(-298.583 -93.355)" fill="#ff98b9"/>
      <path id="Path_2165" data-name="Path 2165" d="M379.617,90.625c-1.585.048-6.08-3.9-6.9-11.5,0,0,1.209,6.768,1.81,7.719s-2.514-2.229-3.26-8.342a24.81,24.81,0,0,1-5.994,3.835c-2.825,1.074-4.592,1.214-4.834,1.021s3.91-1.923,4.942-3.352c0,0-7.375,4.3-10.9,4.877-.408.064.279-6.279,5.441-10.361s12.257-3.062,14.8-1.021c0,0,2.782.145,6.134,3.932S381.32,90.571,379.617,90.625Z" transform="translate(-291.504 -71.715)" fill="#263238"/>
      <path id="Path_2166" data-name="Path 2166" d="M396.942,107.96s2.949-4.689,5.06-3.658.054,7.719-2.315,8.734a2.455,2.455,0,0,1-3.357-1.155Z" transform="translate(-310.919 -86.73)" fill="#ffc4c0"/>
      <path id="Path_2167" data-name="Path 2167" d="M402.516,108c.043,0,.048.048,0,.064a6.228,6.228,0,0,0-3.019,4.045,1.36,1.36,0,0,1,2.014-.473c.043.027,0,.1-.043.091a1.52,1.52,0,0,0-1.611.612,7.7,7.7,0,0,0-.73,1.38c-.07.156-.349.091-.3-.086a.127.127,0,0,1,0-.043C398.681,111.422,400.212,108.317,402.516,108Z" transform="translate(-312.072 -88.51)" fill="#263238"/>
      <path id="Path_2168" data-name="Path 2168" d="M406.229,152.762c5.951,6.87,22.635,31.739,18.767,38.458-3.712,6.446-12.128,8.261-16.973-.4-3.486-6.193-9.346-24.67-10.8-33.533C396.04,150.114,400.729,146.408,406.229,152.762Z" transform="translate(-311.246 -107.721)" fill="#ffc4c0"/>
      <path id="Path_2169" data-name="Path 2169" d="M399.876,173.689l19.723-7.246s-11.07-15.152-16.168-18.037-9.341-1.144-7.783,8.744a83.214,83.214,0,0,0,4.227,16.538Z" transform="translate(-310.452 -106.631)" fill="#464698"/>
      <path id="Path_2170" data-name="Path 2170" d="M420.044,177.828c-1.074.349-2.149.628-3.223.994s-2.106.736-3.148,1.128c-2.111.784-4.216,1.568-6.306,2.412-1.171.473-2.342.983-3.486,1.52-.054,0-.032.113,0,.1,4.3-1.235,8.465-2.879,12.612-4.517,1.2-.478,2.358-1.074,3.545-1.552C420.119,177.887,420.082,177.812,420.044,177.828Z" transform="translate(-314.399 -120.831)" fill="#263238"/>
      <path id="Path_2171" data-name="Path 2171" d="M401.369,182.61a7.215,7.215,0,0,0-1.144.354,76.073,76.073,0,0,1-2.106-7.606c-.591-2.621-1.074-5.269-1.692-7.89,0-.075-.145-.054-.134,0,.183,1.456.408,2.906.661,4.345-.269-.688-.537-1.38-.747-2.084a.032.032,0,1,0-.059,0,21.339,21.339,0,0,0,.9,2.567c.209,2.686,2.653,11.221,2.723,11.188a16.155,16.155,0,0,0,1.611-.843C401.438,182.658,401.438,182.6,401.369,182.61Z" transform="translate(-310.833 -116.014)" fill="#263238"/>
      <path id="Path_2172" data-name="Path 2172" d="M382.808,100.45,377.2,124.411c-.242.7.118,1.268.806,1.257l10.716,2.181a1.987,1.987,0,0,0,1.687-1.3l5.613-23.961c.242-.7-.118-1.268-.806-1.252L384.495,99.15a1.987,1.987,0,0,0-1.687,1.3Z" transform="translate(-302.027 -84.414)" fill="#d6d6fc"/>
      <path id="Path_2173" data-name="Path 2173" d="M384.532,100.7l-5.6,23.961c-.242.7.118,1.268.806,1.257l10.716,2.181a1.987,1.987,0,0,0,1.687-1.294l5.592-23.961c.242-.709-.118-1.268-.806-1.257L386.219,99.4A2,2,0,0,0,384.532,100.7Z" transform="translate(-302.832 -84.53)" fill="#f1f1f9"/>
      <path id="Path_2174" data-name="Path 2174" d="M393.889,102.837a1.074,1.074,0,1,1-1.042-1.047A1.047,1.047,0,0,1,393.889,102.837Z" transform="translate(-308.794 -85.635)" fill="#263238"/>
      <path id="Path_2175" data-name="Path 2175" d="M415.293,194.818c3.486,6.446,12.714,2.772,14.11-1.773,3.276-10.662,1.246-28.387-.709-38.286-.628-3.185-22.264,0-22.135,3.443C406.71,162.364,408.461,182.141,415.293,194.818Z" transform="translate(-315.653 -109.546)" fill="#ffc4c0"/>
      <path id="Path_2176" data-name="Path 2176" d="M424.962,133.917a33.591,33.591,0,0,0,.193-14.3c-1.139-5.151-4.861-16.076-19.825-20.948-3.55-1.16-9.432-.3-4.3,3.7,3.631,2.841,6.789,3.545,8.594,5.586,0,0-7.348,1.987-8.368,5.586a69.406,69.406,0,0,0-2,9.6,14.7,14.7,0,0,0,1.762.537,14.282,14.282,0,0,0,2.073,8.959Z" transform="translate(-312.163 -83.972)" fill="#ffc4c0"/>
      <path id="Path_2177" data-name="Path 2177" d="M417.663,122.233c-2.224-1.611-6.983-5.038-11.865-6.446-5.414-1.611-16.259-3.169-17.387.833-.827,2.938,3.26,3.91,3.26,3.91s-4.619.29-4.786,3.1c-.15,2.567,3.056,3.131,3.056,3.131s-2.772.655-2.444,3.158c.4,3,6.15,1.133,9.185,3.83C397.365,134.345,417.663,122.233,417.663,122.233Z" transform="translate(-306.545 -91.329)" fill="#ffc4c0"/>
      <path id="Path_2178" data-name="Path 2178" d="M409.189,126.815a22.416,22.416,0,0,0-13.321-1.332c-.113,0-.15.124-.043.124a55.635,55.635,0,0,1,13.353,1.257C409.2,126.874,409.216,126.825,409.189,126.815Z" transform="translate(-310.655 -96.378)" fill="#263238"/>
      <path id="Path_2179" data-name="Path 2179" d="M405.881,137.415a25.23,25.23,0,0,0-13.38-.537c-.113.032-.145.134-.038.129a59.008,59.008,0,0,1,13.428.462.027.027,0,0,0-.011-.054Z" transform="translate(-309.098 -101.564)" fill="#263238"/>
      <path id="Path_2180" data-name="Path 2180" d="M411.457,189.105c-.161-.537-.317-1.074-.489-1.563-.354-1.074-.661-2.149-.972-3.223-.634-2.149-1.241-4.329-1.773-6.521a115.435,115.435,0,0,1-2.412-13.256c-.15-1.235-.279-2.471-.414-3.706s-.177-2.519-.414-3.76c0-.064-.628-1.01-.876-1.477a12.569,12.569,0,0,1-.671-1.5,13.91,13.91,0,0,1-.811-3.266.038.038,0,0,0-.07,0,10.589,10.589,0,0,0,.473,3.76,6.644,6.644,0,0,0,1.665,2.686c0,.161.038,2.148.1,3.26s.167,2.224.29,3.33c.252,2.224.564,4.442.956,6.65a101.043,101.043,0,0,0,3.191,13.2.8.8,0,0,0,.07.209v.483a9.751,9.751,0,0,0,.1,1.187,11.207,11.207,0,0,0,.575,2.294.043.043,0,1,0,.081,0,15.276,15.276,0,0,1-.387-2.363l-.1-.816c.3.87.607,1.74.913,2.605.215.6.435,1.187.682,1.773s.44,1.155.73,1.7c0,.043.086,0,.075-.032C411.838,190.174,411.623,189.648,411.457,189.105Z" transform="translate(-313.793 -108.324)" fill="#263238"/>
    </g>
    <g id="freepik--character-1--inject-18" transform="translate(38.169 127.199)">
      <path id="Path_2182" data-name="Path 2182" d="M136.881,306.179c4.727,20.567,14.5,45.221,18.676,49.222,5.28,5.06,40.209,14.341,41.95,14.529,4.3.435,12.961-30.616,8.363-31.288-6.983-1.01-32.421-2.39-33.941-3.953s-12.316-15.174-23.349-30.466C140.963,293.659,133.943,293.417,136.881,306.179Z" transform="translate(-86.972 -248.604)" fill="#ffc4c0"/>
      <path id="Path_2183" data-name="Path 2183" d="M243.9,404.2a94.263,94.263,0,0,0,12.322,5.237c3.368.978,13.133,3.529,14.578-.075.988-2.449-4.582-4.625-8.481-6.252-2.057-.859-4.592-3.008-3.985-4.329,1.074-2.31,6.354,0,9.835,2.03,6.73,3.91,15.695,10.952,19.8,7.52,1.552-1.289-.252-3.642-2.89-5.946,4.3,2.686,8.852,4.888,10.63,3.524,1.026-.779,1.074-1.848.5-3.062a2.964,2.964,0,0,0,3.3-.537c1.391-1.461.714-3.609-.811-5.817a1.655,1.655,0,0,0,1.268-.827c2.949-4.5-11.817-17.4-16.914-18.612-15.013-3.572-30.837-2.906-30.837-2.906C246.328,378.88,243.884,404.189,243.9,404.2Z" transform="translate(-136.825 -284.549)" fill="#ffc4c0"/>
      <path id="Path_2184" data-name="Path 2184" d="M284.972,404.409a25.492,25.492,0,0,1,10.017,3.851c3.808,2.514,6.333,5.457,9.523,8.417a.091.091,0,0,1-.118.134c-1.52-1.407-7.826-6.7-9.453-7.906a24.31,24.31,0,0,0-9.969-4.437C284.924,404.463,284.935,404.4,284.972,404.409Z" transform="translate(-155.821 -298.578)" fill="#263238"/>
      <path id="Path_2185" data-name="Path 2185" d="M290.172,392.539a58.832,58.832,0,0,1,11.656,4.039c4.007,2.041,7.144,5.371,10.205,8.594q2.782,2.884,5.43,5.908c.07.086-.043.22-.118.134q-4.694-4.963-9.668-9.668a32.132,32.132,0,0,0-10.635-6.7c-2.256-.865-4.576-1.547-6.9-2.234C290.113,392.6,290.129,392.528,290.172,392.539Z" transform="translate(-158.223 -293.084)" fill="#263238"/>
      <path id="Path_2186" data-name="Path 2186" d="M298.046,382.169c3.835.79,7.181,1.461,10.576,3.513,4.5,2.723,8.836,7.3,10.356,8.932,1.681,1.794,3.3,3.642,4.893,5.516.064.075-.064.193-.134.118a127.3,127.3,0,0,0-11.693-11.586,25.471,25.471,0,0,0-6.542-4.254,45.448,45.448,0,0,0-7.461-2.213S298.014,382.164,298.046,382.169Z" transform="translate(-161.881 -288.284)" fill="#263238"/>
      <path id="Path_2187" data-name="Path 2187" d="M199.938,336.562,189.2,370.594s-29.085-8.3-34.376-14.035-15.126-35.327-18.01-49.674,4.367-13.965,11.033-4.947S171.1,332.9,172.013,333.382,199.938,336.562,199.938,336.562Z" transform="translate(-86.955 -248.198)" fill="#464698"/>
      <path id="Path_2188" data-name="Path 2188" d="M199.938,336.562,189.2,370.594s-29.085-8.3-34.376-14.035-15.126-35.327-18.01-49.674,4.367-13.965,11.033-4.947S171.1,332.9,172.013,333.382,199.938,336.562,199.938,336.562Z" transform="translate(-86.955 -248.198)" opacity="0.1"/>
      <path id="Path_2189" data-name="Path 2189" d="M225.988,390.643c1.305-4.012,2.637-8.014,3.787-12.075.655-2.3,1.321-4.614,1.955-6.924.027-.091-.118-.14-.15-.054-1.466,3.975-2.927,7.966-4.211,12s-2.589,8.057-3.814,12.069c-.693,2.3-1.321,4.609-1.875,6.945,0,.043.064.07.081.027C223.361,398.711,224.677,394.682,225.988,390.643Z" transform="translate(-126.54 -283.368)" fill="#263238"/>
      <path id="Path_2190" data-name="Path 2190" d="M174.545,365.924l-1.289-.451c-2.422-.865-4.893-1.794-7.219-2.745-.3-.118-.6-.242-.886-.365-.467-.193-.935-.392-1.386-.591l-.677-.3-.242-.107-.7-.322c-.924-.424-1.8-.849-2.616-1.278l-.537-.3a20.232,20.232,0,0,1-3.588-2.358c-.1-.091-.2-.183-.3-.274s-.188-.183-.269-.269c-5.318-5.731-15.126-35.327-18.01-49.674l-.1-.494v-.107c-.193-1.074-.365-2.439-.5-3.9h0c-.4-7.138,2.976-8.3,7.149-5.167C153.785,319.554,169.722,356.449,174.545,365.924Z" transform="translate(-86.973 -248.206)" fill="#263238"/>
      <path id="Path_2191" data-name="Path 2191" d="M124.881,370.1l-63.381.333c.054-1.364,9.077-41.273,16.253-56,9.2-18.885,13.965-20.411,16.775-21.421,3.626-1.3,10.082-.655,11.613.07,1.74.811,7.273,10.469,9.255,17.553C119.359,324.89,125.773,369.235,124.881,370.1Z" transform="translate(-52.397 -246.672)" fill="#ebebeb"/>
      <path id="Path_2192" data-name="Path 2192" d="M90.144,296.44s8.057,29.837,8.46,31.819c.607,2.879,4.625,43.959,4.625,43.959l-44.179.15s9.641-38.029,16.817-54.68C83.7,299.426,90.144,296.44,90.144,296.44Z" transform="translate(-51.263 -248.603)" fill="#464698"/>
      <g id="Group_47" data-name="Group 47" transform="translate(7.787 47.837)" opacity="0.1">
        <path id="Path_2193" data-name="Path 2193" d="M90.144,296.44s8.057,29.837,8.46,31.819c.607,2.879,4.625,43.959,4.625,43.959l-44.179.15s9.641-38.029,16.817-54.68C83.7,299.426,90.144,296.44,90.144,296.44Z" transform="translate(-59.05 -296.44)"/>
      </g>
      <path id="Path_2194" data-name="Path 2194" d="M145.69,294.65c.236.951,7.665,25.191,8.18,31.234.575,6.7,5.656,45.656,5.656,45.656h6.446s-9.33-55.963-11.892-61.877C148.838,297.594,145.69,294.65,145.69,294.65Z" transform="translate(-91.366 -247.774)" fill="#464698"/>
      <path id="Path_2195" data-name="Path 2195" d="M145.69,294.65c.236.951,7.665,25.191,8.18,31.234.575,6.7,5.656,45.656,5.656,45.656h6.446s-9.33-55.963-11.892-61.877C148.838,297.594,145.69,294.65,145.69,294.65Z" transform="translate(-91.366 -247.774)" opacity="0.1"/>
      <path id="Path_2196" data-name="Path 2196" d="M75.722,305.018C65.108,316.389,39.3,359.531,47.49,367.4s53.632-2.723,66.394-8.809c3.8-1.8-10.63-25.481-15.093-26.035-3.717-.457-22.71,8.229-23.263,7.138-.618-1.235,2.4-10.35,6.983-26.856C87.769,293.813,80.416,299.99,75.722,305.018Z" transform="translate(-45.182 -250.203)" fill="#ffc4c0"/>
      <path id="Path_2197" data-name="Path 2197" d="M179.48,340.245c9.228-1.289,11.817-.2,19.009-5.42,4.732-3.427,8.954-1.875,6.252,3.567-4.415,8.906-15.974,13.063-20.411,13.353Z" transform="translate(-107.007 -265.53)" fill="#ffc4c0"/>
      <path id="Path_2198" data-name="Path 2198" d="M133.84,355.088s10.372-5.758,20.072-8.1c6.7-1.611,21.689-3.518,36.031,11.28,3.4,3.507,5.758,10.92-1.875,7.208-5.425-2.637-8.057-5.946-11.5-6.907,0,0,1.88,9.781-1.767,13.052a90.175,90.175,0,0,1-10.136,7.864,18.521,18.521,0,0,1-1.644-1.762s-3.7,2.734-10.646,2.068Z" transform="translate(-85.881 -271.5)" fill="#ffc4c0"/>
      <path id="Path_2199" data-name="Path 2199" d="M182.087,347c3.223,1.67,9.942,5.328,14.411,10.238,4.968,5.457,13.063,17.3,9,20.948-2.976,2.659-6.446-1.611-6.446-1.611s2.315,5.6-.9,7.412c-2.927,1.654-5.43-1.794-5.43-1.794s.822,3.636-2.31,4.684c-3.76,1.257-4.866-6.574-9.781-8.594C179.5,377.8,182.087,347,182.087,347Z" transform="translate(-107.407 -272.006)" fill="#ffc4c0"/>
      <path id="Path_2200" data-name="Path 2200" d="M198.022,374a29.376,29.376,0,0,1,9.212,14.895c.032.15-.059.252-.118.124a72.442,72.442,0,0,0-9.131-14.97C197.942,374,197.985,374,198.022,374Z" transform="translate(-115.564 -284.503)" fill="#263238"/>
      <path id="Path_2201" data-name="Path 2201" d="M188.037,383.622c2.2,2.03,7.122,8.755,8.309,15.421.027.15-.075.247-.124.113a77.653,77.653,0,0,0-8.234-15.491C187.957,383.633,187.989,383.6,188.037,383.622Z" transform="translate(-110.939 -288.953)" fill="#263238"/>
      <path id="Path_2202" data-name="Path 2202" d="M213.34,369.36c3.008.886,4.963,2.363,7.52,4.125a41.325,41.325,0,0,0,3.873,2.455c1.225.661,3.035,1.66,4.335.623a2.394,2.394,0,0,0,.537-2.455,12.068,12.068,0,0,0-1.654-3.422c0-.043.038-.091.07-.054a17.463,17.463,0,0,1,1.8,3.051,4.007,4.007,0,0,1,.274,2.347c-.446,1.654-2.4,1.875-3.76,1.418a13.325,13.325,0,0,1-2.363-1.144c-.73-.419-1.44-.87-2.149-1.343-1.429-.967-2.8-2.014-4.216-3a39.02,39.02,0,0,0-4.3-2.5.054.054,0,0,1,.027-.1Z" transform="translate(-122.653 -282.355)" fill="#263238"/>
      <path id="Path_2203" data-name="Path 2203" d="M219.634,379.945a94.738,94.738,0,0,0-6.36-10.512.043.043,0,0,1,.059-.059c2.347,2.224,6.113,8.127,6.983,10.017a16.56,16.56,0,0,1,1.869,6.338c0,3.142-2.084,3.76-2.852,3.894a4.061,4.061,0,0,1-2.686-.44,8.175,8.175,0,0,1-2.428-2.277c-.032-.043.027-.1.064-.059,1.074,1.241,2.9,2.46,4.6,2.234a2.836,2.836,0,0,0,1.944-1.047,3.712,3.712,0,0,0,.5-2.53A17.371,17.371,0,0,0,219.634,379.945Z" transform="translate(-122.646 -282.359)" fill="#263238"/>
      <path id="Path_2204" data-name="Path 2204" d="M92.512,333.315l14.545,30.616S50.164,376.7,45.255,366.8,62.443,318.136,72.4,306.845c11.543-13.084,13.015-8.632,10.474,2.965-2.686,12.139-7.8,29.692-7.8,29.692Z" transform="translate(-44.553 -249.727)" fill="#464698"/>
      <path id="Path_2205" data-name="Path 2205" d="M92.512,333.315l14.545,30.616S50.164,376.7,45.255,366.8,62.443,318.136,72.4,306.845c11.543-13.084,13.015-8.632,10.474,2.965-2.686,12.139-7.8,29.692-7.8,29.692Z" transform="translate(-44.553 -249.727)" opacity="0.1"/>
      <path id="Path_2206" data-name="Path 2206" d="M69.159,381.094a64.181,64.181,0,0,1,17.1-8.428c1.724-.537,3.464-1.047,5.2-1.547.054,0,.075.07,0,.086a81.982,81.982,0,0,0-8.911,3.47q-4.345,1.934-8.594,4.023c-1.611.79-3.18,1.654-4.759,2.5a.064.064,0,0,1-.038-.1Z" transform="translate(-55.936 -283.17)" fill="#263238"/>
      <path id="Path_2207" data-name="Path 2207" d="M118.572,352.424c-.285.075-15.845,5.216-16.356,5.452.064-.236,2.858-8.508,3.276-9.722.038-.118.075-.242.118-.36.279-.537.569-1.074.833-1.611.333-.7.666-1.418.994-2.149h-.032l-1.074,2.079c-.167.317-.322.645-.478.972.274-.854.537-1.713.8-2.578.419-1.37.795-2.755,1.166-4.141,0-.048-.054-.059-.07,0-.827,2.412-1.73,4.8-2.562,7.208s-4.034,11.28-4.007,11.28,17.134-6.048,17.467-6.182a.129.129,0,1,0-.075-.247Z" transform="translate(-70.764 -268.916)" fill="#263238"/>
      <path id="Path_2208" data-name="Path 2208" d="M128.623,386.255c-1.611-3.411-3.174-6.843-4.9-10.205-.983-1.907-1.955-3.819-2.954-5.715-.038-.07-.167,0-.134.059,1.472,3.491,2.954,6.983,4.587,10.415s3.223,6.822,4.882,10.205q1.418,2.884,3.013,5.677c0,.038.086,0,.07,0C131.835,393.136,130.239,389.7,128.623,386.255Z" transform="translate(-79.767 -282.793)" fill="#263238"/>
      <path id="Path_2209" data-name="Path 2209" d="M112.772,417.967c-.569-.945-1.289-2.3-1.9-3.223-.161-.242-.349-.193-.22.059.435.859.795,1.821,1.219,2.686-.795.161-1.611.3-2.4.467-.924.193-1.842.392-2.766.58l-5.436,1.074q-5.511,1.026-11.065,1.8a216.943,216.943,0,0,1-22.377,2.1c-2.095.075-4.195.113-6.29.086a60.6,60.6,0,0,1-6.188-.3.051.051,0,0,0,0,.1,34.33,34.33,0,0,0,5.371.7c1.9.091,3.8.134,5.7.113,3.76-.043,7.557-.29,11.323-.634,7.466-.688,14.911-1.7,22.291-3q3.1-.537,6.193-1.166c1.042-.209,2.079-.419,3.115-.65S112.869,418.128,112.772,417.967Z" transform="translate(-49.532 -303.289)" fill="#263238"/>
      <path id="Path_2210" data-name="Path 2210" d="M134.256,293.813c-3.76,1.037-10.49-4.523-13.24-9.131-.188-.317.183-3.733.435-7.907.145-2.53.242-5.371.145-7.939,0-.537,16.345,3.341,16.345,3.341a41.063,41.063,0,0,0-1.2,9.969,5.909,5.909,0,0,0,.15,1.074,1.23,1.23,0,0,1,.032.172C137.323,285.385,137.892,292.808,134.256,293.813Z" transform="translate(-79.922 -235.802)" fill="#ffc4c0"/>
      <path id="Path_2211" data-name="Path 2211" d="M124,269c.913,4.34,4.018,14.787,12.665,14.664a10.279,10.279,0,0,0,1.654-.15.774.774,0,0,0,0-.177,6.98,6.98,0,0,1-.156-1.074,41.443,41.443,0,0,1,1.2-9.98S127.54,269.489,124,269Z" transform="translate(-81.327 -235.902)" fill="#263238"/>
      <path id="Path_2212" data-name="Path 2212" d="M156.192,248.507c-.183,3.964,2.492,7.3,5.973,7.466s6.446-2.933,6.623-6.9-2.5-7.3-5.973-7.461S156.37,244.542,156.192,248.507Z" transform="translate(-96.224 -223.223)" fill="#f1f1f9"/>
      <ellipse id="Ellipse_82" data-name="Ellipse 82" cx="7.992" cy="7.015" rx="7.992" ry="7.015" transform="translate(57.549 33.422) rotate(-87.41)" fill="#dcd3f2"/>
      <path id="Path_2213" data-name="Path 2213" d="M124.268,224.73c-2.815,5.307-2.992,22.178.317,26.593,4.8,6.392,14.223,8.739,20.035,2.632,5.656-5.941,5.495-27.931,1.654-32.1C140.628,215.69,128.425,216.893,124.268,224.73Z" transform="translate(-80.461 -212.263)" fill="#ffc4c0"/>
      <path id="Path_2214" data-name="Path 2214" d="M151.211,254.861c0-.043-.091.059-.086.107.059,1.133-.059,2.444-1.074,2.841-.032,0-.027.07,0,.064C151.308,257.67,151.447,255.93,151.211,254.861Z" transform="translate(-93.375 -229.352)" fill="#263238"/>
      <path id="Path_2215" data-name="Path 2215" d="M149.064,252.708c-1.832-.1-1.891,3.572-.2,3.658S150.6,252.789,149.064,252.708Z" transform="translate(-92.27 -228.36)" fill="#263238"/>
      <path id="Path_2216" data-name="Path 2216" d="M163.99,255.121c0-.043.086.059.086.1-.054,1.139.075,2.449,1.074,2.841.032,0,0,.07,0,.064C163.909,257.93,163.754,256.19,163.99,255.121Z" transform="translate(-99.794 -229.473)" fill="#263238"/>
      <path id="Path_2217" data-name="Path 2217" d="M165.046,253c1.826-.113,1.912,3.556.215,3.658S163.51,253.062,165.046,253Z" transform="translate(-99.813 -228.494)" fill="#263238"/>
      <path id="Path_2218" data-name="Path 2218" d="M146.492,245.273a14.685,14.685,0,0,0,1.493-.215,2.428,2.428,0,0,0,1.477-.537.773.773,0,0,0,.054-.945,1.918,1.918,0,0,0-1.864-.537,2.8,2.8,0,0,0-1.832.886.827.827,0,0,0,.671,1.348Z" transform="translate(-91.341 -223.857)" fill="#263238"/>
      <path id="Path_2219" data-name="Path 2219" d="M166.637,245.87a13.829,13.829,0,0,1-1.45-.4,2.423,2.423,0,0,1-1.4-.671.773.773,0,0,1,.059-.945,1.934,1.934,0,0,1,1.923-.328,2.831,2.831,0,0,1,1.708,1.107.827.827,0,0,1-.838,1.241Z" transform="translate(-99.68 -224.052)" fill="#263238"/>
      <path id="Path_2220" data-name="Path 2220" d="M148.271,274.462c.269.269.537.639.945.682a3.051,3.051,0,0,0,1.225-.269.043.043,0,0,1,.048.059,1.52,1.52,0,0,1-1.45.6,1.219,1.219,0,0,1-.881-1.021C148.142,274.446,148.228,274.419,148.271,274.462Z" transform="translate(-92.508 -238.42)" fill="#263238"/>
      <path id="Path_2221" data-name="Path 2221" d="M150.679,257.638a3.862,3.862,0,0,0,2.551,1.762,4.834,4.834,0,0,0,1.391.091,2.148,2.148,0,0,0,.269-.027l.247-.038a.285.285,0,0,0,.236-.247h0a.868.868,0,0,0,0-.118h0v-.1c.038-.875,0-2.208,0-2.208.317.167,1.939.929,1.918.473a58.109,58.109,0,0,0-1.305-11.736.107.107,0,0,0-.209,0c0,3.647.666,7.267.736,10.931a6.907,6.907,0,0,0-1.815-.585c-.124.038.167,2.573.118,2.965a.241.241,0,0,1,0,.043,5.372,5.372,0,0,1-3.985-1.311C150.7,257.471,150.609,257.541,150.679,257.638Z" transform="translate(-93.665 -224.98)" fill="#263238"/>
      <path id="Path_2222" data-name="Path 2222" d="M153.694,269.558a4.56,4.56,0,0,1-1.858,1.4,2.078,2.078,0,0,1-1.257.059c-.9-.258-.913-1.074-.736-1.8a4.947,4.947,0,0,1,.424-1.074,5.951,5.951,0,0,0,3.427,1.418Z" transform="translate(-93.247 -235.504)" fill="#263238"/>
      <path id="Path_2223" data-name="Path 2223" d="M151.835,271.88a2.079,2.079,0,0,1-1.257.059c-.9-.258-.913-1.074-.736-1.8A2.144,2.144,0,0,1,151.835,271.88Z" transform="translate(-93.247 -236.429)" fill="#ff98b9"/>
      <path id="Path_2224" data-name="Path 2224" d="M122.18,238.389c1.106-.177,3.76-3.921,4.882-5.409s1.773-9.464,1.875-11.28a11.951,11.951,0,0,0-4.652,4.759C123.029,228.844,122.3,233.533,122.18,238.389Z" transform="translate(-80.484 -214.008)" fill="#263238" opacity="0.2"/>
      <path id="Path_2225" data-name="Path 2225" d="M151.92,232.38a5.715,5.715,0,0,1-5.275,1.767,5.822,5.822,0,0,1-4.372-3.615c0-.059-.107-.027-.086.027a5.758,5.758,0,0,0,4.367,4.045,5.876,5.876,0,0,0,5.473-2.149.07.07,0,0,0-.107-.075Z" transform="translate(-89.744 -218.082)" fill="#263238"/>
      <path id="Path_2226" data-name="Path 2226" d="M142.806,207.38a9.011,9.011,0,0,0-7.692,3.916,6.414,6.414,0,0,0-.752,4.157c0,.059.124.048.118,0A7.031,7.031,0,0,1,138,209.206a9.072,9.072,0,0,1,8.057-.709,5.693,5.693,0,0,1,3,2.567c.064.124.312.054.263-.07C148.478,208.889,145.8,207.406,142.806,207.38Z" transform="translate(-86.087 -207.379)" fill="#263238"/>
      <path id="Path_2227" data-name="Path 2227" d="M177.219,217.419a7.321,7.321,0,0,0-2.986-4.023c-1.993-1.321-4.3-1.209-6.574-1.047a.048.048,0,1,0,0,.1,10.026,10.026,0,0,1,5.677.822,7.165,7.165,0,0,1,3.223,3.593,6.983,6.983,0,0,1-3.169,8.594,7.112,7.112,0,0,1-5.618.392c-.075-.027-.129.075-.059.107a7.149,7.149,0,0,0,9.518-8.535Z" transform="translate(-101.513 -209.635)" fill="#263238"/>
      <path id="Path_2228" data-name="Path 2228" d="M122.709,224.115s-2.933-6.032-.183-9.362c1.558-1.885,6.489-1.456,6.489-1.456a8.913,8.913,0,0,1,5.817-3.567c4.125-.79,8.992,1.794,8.992,1.794s4.007-2.1,7.606.134c5.022,3.115,4.1,10.9-1.155,13.219-3.685,1.611-8.487-1.751-8.487-1.751-.478.048-5.43,2.788-8.932-1.665,0,0-3.072,2.535-5.677.585A4.3,4.3,0,0,1,122.709,224.115Z" transform="translate(-80.1 -208.398)" fill="#263238"/>
      <path id="Path_2229" data-name="Path 2229" d="M121.95,252.16s-2.788-5.908-5.414-5.028-1.171,9.056,1.461,10.592a2.911,2.911,0,0,0,4.109-.876Z" transform="translate(-77.23 -225.739)" fill="#ffc4c0"/>
      <path id="Path_2230" data-name="Path 2230" d="M118.575,251.54c-.043,0-.064.054,0,.075,1.837,1.139,2.562,3.153,2.96,5.178a1.6,1.6,0,0,0-2.288-.843.064.064,0,0,0,.032.118,1.8,1.8,0,0,1,1.837.951,8.825,8.825,0,0,1,.655,1.73c.064.193.4.15.365-.064a.156.156,0,0,0,0-.048C122.587,256.127,121.239,252.265,118.575,251.54Z" transform="translate(-78.797 -227.82)" fill="#263238"/>
      <path id="Path_2231" data-name="Path 2231" d="M130.895,271.62l-5.291-2.283-4.254-5.3.816-.661,4.093,5.1,5.054,2.181Z" transform="translate(-80.1 -233.3)" fill="#f1f1f9"/>
      <path id="Path_2232" data-name="Path 2232" d="M138.028,276.407c.537-1.542,4.834-.972,4.055,1.359S137.507,277.938,138.028,276.407Z" transform="translate(-87.797 -238.931)" fill="#fff"/>
      <path id="Path_2233" data-name="Path 2233" d="M117.532,229.14s-.575-8.664,1.961-13.428c2.825-5.323,14.535-10.388,22.559-4.668,0,0-13.036-2.331-19.111,5.049-2.557,3.1-2.492,13.289-2.492,13.289Z" transform="translate(-78.307 -207.907)" fill="#dcd3f2"/>
      <ellipse id="Ellipse_83" data-name="Ellipse 83" cx="7.015" cy="7.992" rx="7.015" ry="7.992" transform="matrix(1, -0.01, 0.01, 1, 33.234, 17.762)" fill="#dcd3f2"/>
      <path id="Path_2234" data-name="Path 2234" d="M118.016,248.5c.038,3.969-2.75,7.214-6.231,7.246s-6.338-3.153-6.376-7.122,2.75-7.214,6.231-7.246S117.978,244.533,118.016,248.5Z" transform="translate(-72.722 -223.117)" fill="#f1f1f9"/>
      <path id="Path_2235" data-name="Path 2235" d="M134.141,293.36l-3.787,9.561L118.441,290.9l-3.341,3.889s11.683,19.127,11.752,18.262l3.894-8.245,5.7,5.7-.537-14.363Z" transform="translate(-77.207 -246.039)" fill="#ebebeb"/>
      <path id="Path_2236" data-name="Path 2236" d="M136.359,306.737c-.167-2.369-.263-4.759-.537-7.117a.081.081,0,0,0-.161,0c-.462,2.294.22,11.344.22,13.52h-.027c-.236-.247-5.285-5.011-5.334-4.936-.843,1.311-3.706,7.31-3.9,7.858-1.848-3.04-9.668-15.013-11.871-17.886a.081.081,0,1,0-.14.081c1.611,3.223,11.763,19.02,11.9,18.977a93.792,93.792,0,0,0,4.077-8.712c.854,1.037,5.946,6.419,5.962,6.064A74.117,74.117,0,0,0,136.359,306.737Z" transform="translate(-76.976 -249.387)" fill="#263238"/>
    </g>
    <g id="freepik--Device--inject-18" transform="translate(113.573 190.108)">
      <rect id="Rectangle_1461" data-name="Rectangle 1461" width="3.685" height="2.406" transform="translate(39.824 61.501)" fill="#455a64"/>
      <rect id="Rectangle_1462" data-name="Rectangle 1462" width="3.685" height="2.406" transform="translate(44.599 61.34)" fill="#455a64"/>
      <rect id="Rectangle_1463" data-name="Rectangle 1463" width="3.685" height="2.406" transform="translate(49.38 61.179)" fill="#455a64"/>
      <rect id="Rectangle_1464" data-name="Rectangle 1464" width="3.685" height="2.406" transform="translate(54.16 61.023)" fill="#455a64"/>
      <rect id="Rectangle_1465" data-name="Rectangle 1465" width="3.685" height="2.406" transform="translate(58.94 60.862)" fill="#455a64"/>
      <rect id="Rectangle_1466" data-name="Rectangle 1466" width="3.685" height="2.406" transform="translate(63.721 60.706)" fill="#455a64"/>
      <rect id="Rectangle_1467" data-name="Rectangle 1467" width="3.685" height="2.406" transform="translate(68.501 60.545)" fill="#455a64"/>
      <rect id="Rectangle_1468" data-name="Rectangle 1468" width="3.685" height="2.406" transform="translate(73.282 60.384)" fill="#455a64"/>
      <rect id="Rectangle_1469" data-name="Rectangle 1469" width="3.685" height="2.406" transform="translate(78.057 60.228)" fill="#455a64"/>
      <path id="Path_2237" data-name="Path 2237" d="M301.123,442.477H257.39v-2.927l43.733-1.219Z" transform="translate(-218.474 -377.189)" fill="#37474f"/>
      <path id="Path_2238" data-name="Path 2238" d="M356.06,378.245H283.87L295.348,324.5h72.19Z" transform="translate(-230.731 -324.5)" fill="#455a64"/>
      <path id="Path_2239" data-name="Path 2239" d="M361.03,378.245H288.84L300.318,324.5h72.19Z" transform="translate(-233.031 -324.5)" fill="#37474f"/>
      <ellipse id="Ellipse_84" data-name="Ellipse 84" cx="4.829" cy="4.125" rx="4.829" ry="4.125" transform="matrix(0.734, -0.679, 0.679, 0.734, 93.073, 23.995)" fill="#263238"/>
      <path id="Path_2240" data-name="Path 2240" d="M354.634,447.325h-35.5v-2.761l35.5-1.144Z" transform="translate(-247.051 -379.545)" fill="#455a64"/>
      <path id="Path_2241" data-name="Path 2241" d="M376.877,424.727H357.814L346.33,394.61h19.063Z" transform="translate(-259.642 -356.952)" fill="#455a64"/>
      <path id="Path_2242" data-name="Path 2242" d="M382.721,424.727H363.658L352.18,394.61h19.063Z" transform="translate(-262.349 -356.952)" fill="#263238"/>
      <path id="Path_2243" data-name="Path 2243" d="M222.506,440.938H185.9c-3.121,0,1.4-8.895,12.8-12.306S226.1,437.6,222.506,440.938Z" transform="translate(-184.938 -372.428)" fill="#37474f"/>
      <path id="Path_2244" data-name="Path 2244" d="M228.14,443.654a11.108,11.108,0,0,1,.5-2.986,12.514,12.514,0,0,1,1.23-2.788,10.141,10.141,0,0,1,1.944-2.358,8.6,8.6,0,0,1,2.573-1.611c-.392.322-.838.537-1.2.9l-.537.478-.537.537a12.751,12.751,0,0,0-1.773,2.336,17.54,17.54,0,0,0-1.3,2.648,22.171,22.171,0,0,0-.9,2.847Z" transform="translate(-204.935 -375.143)" fill="#263238"/>
      <path id="Path_2245" data-name="Path 2245" d="M236.21,436.29a23.522,23.522,0,0,1,6.107,3.067,13.171,13.171,0,0,1,2.551,2.31,7.838,7.838,0,0,1,.94,1.456,4.221,4.221,0,0,1,.43,1.66,4.774,4.774,0,0,0-.661-1.536,7.7,7.7,0,0,0-1.021-1.305,18.126,18.126,0,0,0-2.551-2.149c-.908-.655-1.869-1.241-2.831-1.821-.483-.29-.978-.569-1.472-.838S236.71,436.564,236.21,436.29Z" transform="translate(-208.67 -376.244)" fill="#263238"/>
    </g>
    <g id="freepik--speech-bubbles--inject-18" transform="translate(117.904 34.156)">
      <path id="Path_2246" data-name="Path 2246" d="M229.322,209.415a16.259,16.259,0,0,1-27.173,10.265L194,220.893l4.071-7.031a16.263,16.263,0,1,1,31.234-4.447Z" transform="translate(-193.463 -106.967)" fill="#fff"/>
      <path id="Path_2247" data-name="Path 2247" d="M228.859,209.285a16.345,16.345,0,0,1-3.282,8.245,18.409,18.409,0,0,1-1.472,1.7,19.178,19.178,0,0,1-1.719,1.45,15.861,15.861,0,0,1-3.921,2.186,16.168,16.168,0,0,1-4.378,1.042,15.148,15.148,0,0,1-2.261.043,14.337,14.337,0,0,1-2.251-.231,16.436,16.436,0,0,1-8.057-3.975l.193.059-8.127,1.251-.585.107.3-.537,4.05-7.052v.279a16.425,16.425,0,1,1,31.529-4.566Zm0,0A16.117,16.117,0,0,0,203.7,194.337a16.839,16.839,0,0,0-4.866,5.307,16.114,16.114,0,0,0-2.073,6.886,16.307,16.307,0,0,0,1.155,7.112l.059.145-.081.129-4.093,7.02-.29-.43,8.143-1.139h.113l.081.075a16.034,16.034,0,0,0,7.788,4.012,14.413,14.413,0,0,0,2.208.269,16.181,16.181,0,0,0,2.224,0,15.9,15.9,0,0,0,4.345-.956,15.2,15.2,0,0,0,3.921-2.111,19.923,19.923,0,0,0,1.719-1.434,18.27,18.27,0,0,0,1.477-1.681,16.323,16.323,0,0,0,3.33-8.256Z" transform="translate(-193 -106.836)" fill="#263238"/>
      <path id="Path_2248" data-name="Path 2248" d="M243.133,220.966a1.966,1.966,0,1,1-.578-1.392,1.971,1.971,0,0,1,.578,1.392Z" transform="translate(-214.38 -119.715)" fill="#263238"/>
      <path id="Path_2249" data-name="Path 2249" d="M229.992,220.966A1.971,1.971,0,1,1,228.027,219a1.971,1.971,0,0,1,1.966,1.966Z" transform="translate(-208.298 -119.715)" fill="#263238"/>
      <path id="Path_2250" data-name="Path 2250" d="M216.863,220.966A1.971,1.971,0,1,1,214.891,219,1.971,1.971,0,0,1,216.863,220.966Z" transform="translate(-202.22 -119.715)" fill="#263238"/>
      <path id="Path_2251" data-name="Path 2251" d="M272.514,52.391a16.264,16.264,0,0,0,27.173,10.275l8.132,1.192-4.066-7.031a16.264,16.264,0,1,0-31.239-4.447Z" transform="translate(-229.764 -34.282)" fill="#fff"/>
      <path id="Path_2252" data-name="Path 2252" d="M277.371,38.831a16.232,16.232,0,0,1,13.616-4.523A16.421,16.421,0,0,1,304.023,56.83v-.279l4.039,7.063.3.537-.585-.091-8.132-1.246.193-.059a16.436,16.436,0,0,1-8.057,3.975,14.336,14.336,0,0,1-2.251.231,15.818,15.818,0,0,1-2.256-.043,16.393,16.393,0,0,1-8.3-3.223,19.174,19.174,0,0,1-1.719-1.45,19.146,19.146,0,0,1-1.472-1.7,16.366,16.366,0,0,1,1.585-21.678Zm-1.536,21.641a14.633,14.633,0,0,0,3.2,3.11,15,15,0,0,0,3.926,2.116,16.06,16.06,0,0,0,4.34.956,16.248,16.248,0,0,0,2.229,0,14.422,14.422,0,0,0,2.2-.269,16.033,16.033,0,0,0,7.788-4.012l.081-.075h.113l8.143,1.139-.29.43-4.093-7.02-.081-.134.059-.145A16.044,16.044,0,0,0,302.53,42.6a16.78,16.78,0,0,0-4.866-5.307,16.095,16.095,0,0,0-21.829,23.156Z" transform="translate(-229.755 -34.156)" fill="#263238"/>
      <path id="Path_2253" data-name="Path 2253" d="M299,57.255v2.03a1.5,1.5,0,0,1-1.531,1.531,1.536,1.536,0,0,1-1.531-1.531V56.063c0-.032.032-.032.032-.064s-.032-.032-.032-.059a1.574,1.574,0,0,1,1.531-1.531,3.5,3.5,0,1,0,0-6.983,3.448,3.448,0,0,0-3,1.719,1.552,1.552,0,0,1-2.148.537,1.525,1.525,0,0,1-.537-2.095,6.564,6.564,0,1,1,7.181,9.668Zm0,6.838v.537a1.493,1.493,0,0,1-1.531,1.531,1.531,1.531,0,0,1-1.531-1.531v-.537a1.552,1.552,0,0,1,1.531-1.531A1.515,1.515,0,0,1,299,64.093Z" transform="translate(-238.626 -38.851)" fill="#464698"/>
    </g>
  </g>
</svg>
