<svg xmlns="http://www.w3.org/2000/svg" width="206.017" height="192.501" viewBox="0 0 206.017 192.501">
  <g id="Checking_boxes-cuate_1_" data-name="Checking boxes-cuate (1)" transform="translate(-40.29 -56.31)">
    <g id="freepik--Floor--inject-3" transform="translate(40.29 205.027)">
      <path id="Path_2254" data-name="Path 2254" d="M40.29,367.919l25.042-.119,25.037-.043,50.083-.076,50.083.076,25.037.043,25.042.119-25.042.115-25.037.043-50.083.076-50.083-.076-25.037-.043Z" transform="translate(-40.29 -367.68)" fill="#263238"/>
    </g>
    <g id="freepik--Shadow--inject-3" transform="translate(40.29 225.312)">
      <ellipse id="Ellipse_85" data-name="Ellipse 85" cx="103.009" cy="11.749" rx="103.009" ry="11.749" fill="#f1f1f9"/>
    </g>
    <g id="freepik--Shelf--inject-3" transform="translate(88.315 56.31)">
      <rect id="Rectangle_1470" data-name="Rectangle 1470" width="13.87" height="148.889" fill="#263238"/>
      <rect id="Rectangle_1471" data-name="Rectangle 1471" width="13.87" height="148.889" transform="translate(90.404)" fill="#455a64"/>
      <rect id="Rectangle_1472" data-name="Rectangle 1472" width="84.711" height="5.001" transform="translate(5.693 14.601)" fill="#37474f"/>
      <rect id="Rectangle_1473" data-name="Rectangle 1473" width="84.711" height="5.001" transform="translate(5.693 46.922)" fill="#37474f"/>
      <rect id="Rectangle_1474" data-name="Rectangle 1474" width="84.711" height="5.001" transform="translate(5.693 79.242)" fill="#37474f"/>
      <rect id="Rectangle_1475" data-name="Rectangle 1475" width="84.711" height="5.001" transform="translate(5.693 111.563)" fill="#37474f"/>
      <rect id="Rectangle_1476" data-name="Rectangle 1476" width="84.711" height="5.001" transform="translate(5.693 143.884)" fill="#37474f"/>
      <rect id="Rectangle_1477" data-name="Rectangle 1477" width="26.25" height="27.067" transform="translate(15.499 19.85)" fill="#e5e5fa"/>
      <rect id="Rectangle_1478" data-name="Rectangle 1478" width="13.555" height="27.072" transform="translate(41.754 19.85)" fill="#f1f1f9"/>
      <path id="Path_2255" data-name="Path 2255" d="M200,104.156h-.974l-.239-.482-.334.482-.454-1-.43,1h-1.786l-.205-.664-.191.664h-.363V97.87H200Z" transform="translate(-169.143 -78.02)" fill="#464698"/>
      <path id="Path_2256" data-name="Path 2256" d="M241.892,125.407q-1.5-2.866-2.985-5.794l-2.937-5.822-2.9-5.846q-1.433-2.933-2.866-5.875,1.5,2.866,2.985,5.794l2.942,5.822,2.9,5.846Q240.478,122.46,241.892,125.407Z" transform="translate(-187.52 -80.214)" fill="#ebebeb"/>
      <path id="Path_2257" data-name="Path 2257" d="M241.887,102.07q-1.433,2.947-2.866,5.875l-2.9,5.846-2.942,5.827q-1.476,2.9-2.985,5.789,1.433-2.947,2.866-5.875l2.9-5.846,2.937-5.822Q240.387,104.955,241.887,102.07Z" transform="translate(-187.515 -80.214)" fill="#ebebeb"/>
      <rect id="Rectangle_1479" data-name="Rectangle 1479" width="2.913" height="2.913" transform="translate(37.106 42.327)" fill="#fff"/>
      <rect id="Rectangle_1480" data-name="Rectangle 1480" width="26.25" height="16.836" transform="translate(32.034 62.406)" fill="#e5e5fa"/>
      <rect id="Rectangle_1481" data-name="Rectangle 1481" width="13.555" height="16.836" transform="translate(58.284 62.406)" fill="#f1f1f9"/>
      <path id="Path_2258" data-name="Path 2258" d="M234.607,193.251h-.974l-.239-.482-.334.482-.449-.993-.43.993h-1.791l-.205-.664-.186.664h-.368V186.97h4.977Z" transform="translate(-187.222 -124.564)" fill="#fff"/>
      <path id="Path_2259" data-name="Path 2259" d="M276.507,203.9q-1.514-1.834-2.985-3.678l-2.942-3.7-2.9-3.716q-1.433-1.863-2.866-3.735,1.514,1.834,2.985,3.678l2.942,3.7,2.9,3.716Q275.093,202.028,276.507,203.9Z" transform="translate(-205.599 -125.661)" fill="#dbdbdb"/>
      <path id="Path_2260" data-name="Path 2260" d="M276.507,189.07q-1.433,1.872-2.866,3.735l-2.9,3.716-2.942,3.7q-1.476,1.844-2.985,3.678,1.433-1.872,2.866-3.735l2.9-3.716,2.942-3.7Q275,190.9,276.507,189.07Z" transform="translate(-205.599 -125.661)" fill="#dbdbdb"/>
    </g>
    <g id="freepik--character-2--inject-3" transform="translate(116.915 99.609)">
      <path id="Path_2261" data-name="Path 2261" d="M410.672,394.524c-.119-1.122-13.02-28.915-14.181-29.66-.439-.291-4.6,1.352-9.552,3.482l-.158.067c-1.022.435-19.931,5.517-19.931,5.517l8.368,18.207,19.673-5.679.3-.148s9.7,8.43,11.062,9.113S410.8,395.665,410.672,394.524Z" transform="translate(-287.503 -260.773)" fill="#ffc4c0"/>
      <path id="Path_2262" data-name="Path 2262" d="M401,369.508l8.6,17.858,3.1-.893.306-.143s9.7,8.43,11.057,9.113,4.557.244,4.423-.879-13.02-28.92-14.181-29.66c-.439-.291-4.6,1.347-9.552,3.482l-.148.067C404.343,368.562,402.958,368.963,401,369.508Z" transform="translate(-305.342 -260.794)" fill="#ebebeb"/>
      <path id="Path_2263" data-name="Path 2263" d="M432.706,394.478c-.119-1.132-13.049-29.245-14.219-30-.439-.291-4.647,1.352-9.667,3.482L417.1,386.1s9.763,8.549,11.133,9.247S432.83,395.61,432.706,394.478Z" transform="translate(-309.427 -260.569)" fill="#464698"/>
      <path id="Path_2264" data-name="Path 2264" d="M441.939,396.417c-2.283-4.657-11.028-23.676-12.939-28.452,0-.038,0-.048.033,0,2.36,4.566,10.985,23.642,13,28.423C442.058,396.483,441.987,396.517,441.939,396.417Z" transform="translate(-319.969 -262.394)" fill="#263238"/>
      <path id="Path_2265" data-name="Path 2265" d="M445.144,420.275a4.16,4.16,0,0,1-.143-3.343,4.007,4.007,0,0,1,2.03-2.211c.029,0,.052.038.029.057a4.814,4.814,0,0,0-1.853,5.474C445.22,420.284,445.163,420.313,445.144,420.275Z" transform="translate(-328.179 -286.835)" fill="#263238"/>
      <path id="Path_2266" data-name="Path 2266" d="M427.978,406.309a7.224,7.224,0,0,1-.229-6.252c.038-.072.139,0,.139.053a28.893,28.893,0,0,0,.334,6.123.129.129,0,0,1-.244.076Z" transform="translate(-318.994 -279.159)" fill="#263238"/>
      <path id="Path_2267" data-name="Path 2267" d="M430.568,408.812a7.213,7.213,0,0,1-.229-6.247c.038-.076.139,0,.139.053a28.848,28.848,0,0,0,.334,6.118.129.129,0,0,1-.244.076Z" transform="translate(-320.347 -280.468)" fill="#263238"/>
      <path id="Path_2268" data-name="Path 2268" d="M433.158,411.314a7.212,7.212,0,0,1-.229-6.247c.038-.072.138,0,.138.052a28.915,28.915,0,0,0,.334,6.123.129.129,0,0,1-.244.072Z" transform="translate(-321.7 -281.776)" fill="#263238"/>
      <path id="Path_2269" data-name="Path 2269" d="M435.75,413.814a7.229,7.229,0,0,1-.229-6.247c.038-.072.139,0,.139.053a28.892,28.892,0,0,0,.334,6.123.129.129,0,0,1-.244.072Z" transform="translate(-323.055 -283.082)" fill="#263238"/>
      <path id="Path_2270" data-name="Path 2270" d="M420.571,372.074a1.81,1.81,0,0,1,3.291-1.5A1.81,1.81,0,0,1,420.571,372.074Z" transform="translate(-315.476 -263.237)" fill="#263238"/>
      <path id="Path_2271" data-name="Path 2271" d="M422.071,413.149c.845-1.619.955-3.554,1.271-5.321a.248.248,0,0,0-.306-.267.054.054,0,0,0-.081-.038,10.922,10.922,0,0,0-4.036,3.936c-.549.955-.774,2.522.478,3.114S421.56,414.1,422.071,413.149Zm-1.538.807c-2.14.755-1.433-1.82-.955-2.517a11.244,11.244,0,0,1,.955-1.275,32.4,32.4,0,0,1,2.307-2.345c-.21.86-.339,1.729-.511,2.6C422.1,411.449,421.713,413.541,420.533,413.956Z" transform="translate(-314.473 -283.071)" fill="#263238"/>
      <path id="Path_2272" data-name="Path 2272" d="M418.021,394.414c-1.161.712-.783,2.24-.134,3.148a10.913,10.913,0,0,0,4.418,3.5.057.057,0,0,0,.076-.043c.153,0,.329-.119.277-.3a17.714,17.714,0,0,0-1.81-5.163C420.261,394.657,419.124,393.735,418.021,394.414Zm3.343,3.821c.263.845.478,1.7.774,2.531-.86-.683-1.743-1.328-2.536-2.1a12.534,12.534,0,0,1-1.079-1.17c-.5-.65-1.49-3.138.716-2.6,1.247.3,1.824,2.345,2.14,3.348Z" transform="translate(-313.842 -276.104)" fill="#263238"/>
      <path id="Path_2273" data-name="Path 2273" d="M305.574,259.68s.349,10.895,1.982,16.263c0,0,1.782.955,2.316,1.27,0,0-13.536,32.411-12.767,44.9.253,4.088,4.886,10.809,9.552,13.717,8.272,5.149,48.665.63,48.665.63l-5.86-24.282s-25.538,1.433-26.183.038c-.817-1.753,4.265-15.384,8.33-26.46.406-1.118,4.494-5.254,4.017-12.714a38.686,38.686,0,0,0-3.515-13.34Z" transform="translate(-251.053 -205.845)" fill="#37474f"/>
      <path id="Path_2274" data-name="Path 2274" d="M369.53,316.986c-5.574-.105-10.111.368-15.685.373h-6.286a6.212,6.212,0,0,1-1.433-.134,1.8,1.8,0,0,1-1.122-.664,2.4,2.4,0,0,1-.043-1.853q.42-1.963.955-3.907c1.4-5.254,3.238-10.4,4.962-15.566l2.617-7.957c.215-.645.43-1.294.7-1.911a15.915,15.915,0,0,1,.879-1.672,15.391,15.391,0,0,0,1.509-3.286c1.509-4.953.062-10.078-1.7-14.754-.239-.626-.478-1.251-.74-1.872,0-.043-.086-.024-.067.024,1.6,4.934,3.52,10.068,2.441,15.332a12.661,12.661,0,0,1-1.285,3.544c-.31.564-.65,1.113-.955,1.681a14.248,14.248,0,0,0-.779,1.8c-.955,2.613-1.777,5.254-2.66,7.909-1.762,5.254-3.616,10.47-5.082,15.8-.363,1.328-.7,2.665-1,4.007-.22.993-.716,2.34.148,3.162a3.6,3.6,0,0,0,2.455.683h4.165c5.65,0,17.319-.478,18.021-.5a.12.12,0,1,0-.014-.239Z" transform="translate(-275.782 -207.976)" fill="#263238"/>
      <path id="Path_2275" data-name="Path 2275" d="M404.5,394.355c-.544-2.837-1.07-5.688-1.7-8.506s-1.309-5.646-2.039-8.449c-.21-.793-.42-1.581-.635-2.388-.1-.377-.2-.75-.31-1.127a9.385,9.385,0,0,0-.349-1.132c0-.038-.072,0-.067.024a15.523,15.523,0,0,0,.387,2.178c.139.683.267,1.371.411,2.054q.439,2.111.893,4.217c.616,2.813,1.313,5.6,2.03,8.392.411,1.581.817,3.167,1.232,4.748C404.377,394.484,404.515,394.465,404.5,394.355Z" transform="translate(-304.506 -264.903)" fill="#263238"/>
      <path id="Path_2276" data-name="Path 2276" d="M306.85,299.385,335.507,289c.4-1.1.8-2.2,1.194-3.267s4.494-5.254,4.022-12.719a38.539,38.539,0,0,0-3.515-13.335H310.681s.344,10.895,1.982,16.239c0,0,1.782.955,2.316,1.275C314.979,277.214,310.509,287.912,306.85,299.385Z" transform="translate(-256.16 -205.845)" fill="#263238"/>
      <path id="Path_2277" data-name="Path 2277" d="M215.034,395.215c1.079.325,31.7-.688,32.846-1.466.439-.287.549-4.776.53-10.164v-.172c0-1.113-2.536-19.793-2.536-19.793l-21.436.659,4.208,19.582v.334s-11.506,5.617-12.7,6.606S213.95,394.895,215.034,395.215Z" transform="translate(-207.932 -260.141)" fill="#ffc4c0"/>
      <path id="Path_2278" data-name="Path 2278" d="M215.028,412.369c1.079.325,31.7-.693,32.846-1.471.439-.291.554-4.776.53-10.164v-.172c0-.306-.191-1.911-.478-4.112l-20.108.783.8,3.764v.334s-11.554,5.631-12.719,6.62S213.943,412.044,215.028,412.369Z" transform="translate(-207.925 -277.291)" fill="#ebebeb"/>
      <path id="Path_2279" data-name="Path 2279" d="M214.545,417.2c1.094.325,32-.7,33.171-1.485.439-.3.554-4.81.535-10.264l-19.941.607s-11.664,5.688-12.839,6.687S213.452,416.875,214.545,417.2Z" transform="translate(-207.677 -281.992)" fill="#464698"/>
      <path id="Path_2280" data-name="Path 2280" d="M215.852,426.412c5.182-.3,26.1-1.017,31.241-.922.043,0,.043.029,0,.033-5.125.406-26.049.955-31.236.955C215.747,426.5,215.743,426.422,215.852,426.412Z" transform="translate(-208.583 -292.456)" fill="#263238"/>
      <path id="Path_2281" data-name="Path 2281" d="M221.093,418.242a4.161,4.161,0,0,1,3.143,1.161,4.036,4.036,0,0,1,1.251,2.727c0,.033-.057.033-.062,0a4.814,4.814,0,0,0-4.332-3.821.033.033,0,0,1,0-.067Z" transform="translate(-211.345 -288.67)" fill="#263238"/>
      <path id="Path_2282" data-name="Path 2282" d="M239.585,407.92a7.242,7.242,0,0,1,5.851,2.211c.053.062-.038.138-.1.105a29.076,29.076,0,0,0-5.774-2.059.13.13,0,0,1,.024-.258Z" transform="translate(-220.948 -283.278)" fill="#263238"/>
      <path id="Path_2283" data-name="Path 2283" d="M236.275,409.34a7.226,7.226,0,0,1,5.851,2.211c.053.062-.038.134-.1.105a28.765,28.765,0,0,0-5.774-2.059.13.13,0,1,1,.024-.258Z" transform="translate(-219.219 -284.019)" fill="#263238"/>
      <path id="Path_2284" data-name="Path 2284" d="M232.965,410.76a7.226,7.226,0,0,1,5.851,2.211c.053.062-.038.134-.1.105a28.768,28.768,0,0,0-5.774-2.059.13.13,0,0,1,.024-.258Z" transform="translate(-217.49 -284.761)" fill="#263238"/>
      <path id="Path_2285" data-name="Path 2285" d="M229.655,412.18a7.226,7.226,0,0,1,5.851,2.211c.053.062-.038.134-.1.105a28.772,28.772,0,0,0-5.774-2.059.13.13,0,0,1,.024-.258Z" transform="translate(-215.761 -285.503)" fill="#263238"/>
      <path id="Path_2286" data-name="Path 2286" d="M276.385,415.279a1.812,1.812,0,0,1,.11,3.62A1.812,1.812,0,0,1,276.385,415.279Z" transform="translate(-239.36 -287.126)" fill="#263238"/>
      <path id="Path_2287" data-name="Path 2287" d="M234.333,399.087a18.021,18.021,0,0,0,4.418,3.233.253.253,0,0,0,.368-.177c.033,0,.067,0,.062-.062a10.89,10.89,0,0,0-2.063-5.254c-.678-.884-2.03-1.691-3.052-.783S233.655,398.265,234.333,399.087Zm-.153-1.715c.134-2.264,2.226-.6,2.7.072a12.047,12.047,0,0,1,.807,1.376,30.57,30.57,0,0,1,1.27,3.038c-.712-.525-1.466-.984-2.2-1.481C235.89,399.789,234.108,398.623,234.18,397.372Z" transform="translate(-217.855 -276.871)" fill="#263238"/>
      <path id="Path_2288" data-name="Path 2288" d="M252.131,404.268c-.205-1.347-1.762-1.59-2.866-1.342a10.914,10.914,0,0,0-4.934,2.718.053.053,0,0,0,0,.086.253.253,0,0,0,.167.377,18.1,18.1,0,0,0,5.459.33C251.037,406.26,252.327,405.543,252.131,404.268Zm-4.834,1.61c-.879-.081-1.748-.21-2.632-.263a31.919,31.919,0,0,1,2.918-1.524,10.949,10.949,0,0,1,1.495-.544c.793-.215,3.468-.162,2.125,1.667C250.459,406.222,248.348,405.983,247.3,405.878Z" transform="translate(-223.483 -280.629)" fill="#263238"/>
      <path id="Path_2289" data-name="Path 2289" d="M238.144,328.056h23.981s-4.27-32.645-2.866-34.776c.626-.955,31.757,2.183,40.865-7.68,8.325-9.022-.148-25.921-.148-25.921H274.424s-.521,7.246-1.91,10.14c-.587,1.242-29.135-.53-33.605,7.642C232.966,288.347,238.144,328.056,238.144,328.056Z" transform="translate(-219.177 -205.845)" fill="#37474f"/>
      <path id="Path_2290" data-name="Path 2290" d="M262.606,393.091c-2.708-.081-5.421-.186-8.12-.182s-5.431.057-8.148.162c-.764.033-3.028.138-3.391.167a8.523,8.523,0,0,0-1.108.1c-.043,0-.033.067,0,.072.587.1,6.725.172,8.072.172,2.7,0,5.392-.072,8.091-.167q2.3-.076,4.6-.172C262.682,393.235,262.692,393.1,262.606,393.091Z" transform="translate(-222.184 -275.441)" fill="#263238"/>
      <path id="Path_2291" data-name="Path 2291" d="M315.667,267.331c.11-.769.21-1.538.3-2.3.205-1.753.387-3.52.439-5.283,0-.139-.191-.124-.205,0-.167,1.361-.291,2.727-.444,4.088s-.272,2.722-.525,4.06c-.076.4-.248,1.075-.759,1.084-.693,0-.826-.927-.884-1.433a23.085,23.085,0,0,1-.072-3.821c.076-1.433.258-2.894.42-4.332a.045.045,0,0,0-.091,0c-.6,2.8-1.17,5.731-.673,8.6a1.59,1.59,0,0,0,.927,1.352h.029a.445.445,0,0,0,0,.048v.244a1.469,1.469,0,0,0,0,.205v.425a.105.105,0,0,0,.21,0,.086.086,0,0,0,.072-.072,2.212,2.212,0,0,0,0-.831,1,1,0,0,0,.85-.478A3.592,3.592,0,0,0,315.667,267.331Z" transform="translate(-259.364 -205.672)" fill="#263238"/>
      <path id="Path_2292" data-name="Path 2292" d="M313.036,280.374a40.878,40.878,0,0,1,5.5,4.523.073.073,0,0,1-.091.115c-1.872-1.433-3.821-2.866-5.583-4.413a.143.143,0,0,1,.177-.224Z" transform="translate(-259.275 -216.642)" fill="#263238"/>
      <path id="Path_2293" data-name="Path 2293" d="M348.379,275.225a10.6,10.6,0,0,1-1.653-.124,13.7,13.7,0,0,1-1.433-.368,5.661,5.661,0,0,1-2.608-1.27,9.323,9.323,0,0,1-1.481-2.551,10.261,10.261,0,0,1-.869-3.047c0-.043-.081-.043-.076,0a15.686,15.686,0,0,0,.544,3.224,10.415,10.415,0,0,0,.6,1.524,4.252,4.252,0,0,0,3.721,2.713,9.075,9.075,0,0,0,3.253,0C348.47,275.335,348.446,275.23,348.379,275.225Z" transform="translate(-273.613 -210.104)" fill="#263238"/>
      <path id="Path_2294" data-name="Path 2294" d="M278.839,293.424a1.4,1.4,0,0,1,1.175-1.113,11.554,11.554,0,0,1,2.073-.043c1.6,0,3.2.033,4.776.038a95.624,95.624,0,0,0,18.833-1.4,44.217,44.217,0,0,0,8.841-2.632,14.242,14.242,0,0,0,6.3-4.676c1.724-2.541,1.858-5.87,1.8-8.846a33.912,33.912,0,0,0-1.538-9.466c-.248-.779-.521-1.547-.831-2.3,0-.048.052-.091.072-.043a32.846,32.846,0,0,1,2.474,9.094,31.093,31.093,0,0,1,.21,4.666,17.908,17.908,0,0,1-.587,4.533c-1.633,5.569-7.871,7.867-12.9,9.28a72.954,72.954,0,0,1-18.689,2.269c-3.152.048-6.314,0-9.471-.043-.6,0-1.6-.177-1.953.454a3.512,3.512,0,0,0-.282,1.151c-.067.444-.119.888-.153,1.337a38.564,38.564,0,0,0,.067,5.039q.3,5.106.707,10.216c.272,3.42.654,6.835.9,10.259.062.841.143,1.676.224,2.512a.086.086,0,0,1-.172,0c-.874-6.768-1.5-13.56-1.944-20.366-.11-1.681-.234-3.367-.282-5.048A18.176,18.176,0,0,1,278.839,293.424Z" transform="translate(-241.327 -207.536)" fill="#263238"/>
      <path id="Path_2295" data-name="Path 2295" d="M311.331,322.028a52.179,52.179,0,0,0,6.367-.478c1.992-.248,3.974-.521,5.951-.855a49.411,49.411,0,0,0,10.2-2.541,17.868,17.868,0,0,0,4.915-2.866c.038-.033.1.024.057.057a19.837,19.837,0,0,1-8.846,4.676,71.445,71.445,0,0,1-11.463,2.011,62.387,62.387,0,0,1-7.2.21.124.124,0,0,1,.019-.215Z" transform="translate(-258.463 -234.889)" fill="#263238"/>
      <path id="Path_2296" data-name="Path 2296" d="M295.2,195.558c.072,7.847-2.059,19.754-5,25.524-2.1,4.122-14.61,12.232-21.254,14.056-2.35.65-3.52-9.118-2.388-11.511.688-1.433,13.187-8.373,14.467-10.283,1.944-2.909,5.884-11.162,8.8-18.216C291.381,191.407,295.144,190.681,295.2,195.558Z" transform="translate(-234.887 -170.552)" fill="#ffc4c0"/>
      <path id="Path_2297" data-name="Path 2297" d="M262.027,253.083a36.212,36.212,0,0,0-5.34-.282c-1.657.162-7.642,3.042-7.078,4.365.712,1.71,4.48.726,6.266,0,0,0,1.633,3.955,4.494,3.821S262.027,253.083,262.027,253.083Z" transform="translate(-226.239 -202.233)" fill="#ffc4c0"/>
      <path id="Path_2298" data-name="Path 2298" d="M256.687,268.477a61.209,61.209,0,0,1-9.333,2.928c-1.853.21-7.231.43-7.537-.955s1.261-1.591,1.261-1.591-2.283-.267-2.46-1.71,2.269-1.657,2.269-1.657-2.326-.444-2.388-1.911,2.426-1.256,2.426-1.256-2.145-.306-1.705-1.528c.53-1.466,4.423-.449,6.453-.836.478-.091,9.213-2.441,9.213-2.441Z" transform="translate(-220.454 -204.717)" fill="#ffc4c0"/>
      <path id="Path_2299" data-name="Path 2299" d="M242.964,267.2a10.372,10.372,0,0,0,7.021-.325c.057,0,.1.062.038.086-2.636,1.118-4.337,1.581-7.1.373C242.787,267.281,242.83,267.167,242.964,267.2Z" transform="translate(-222.722 -209.606)" fill="#263238"/>
      <path id="Path_2300" data-name="Path 2300" d="M242.9,273.582a15.536,15.536,0,0,0,7.518-.382c.043,0,.062.062,0,.076-2.866.955-4.566,1.371-7.537.478C242.771,273.721,242.771,273.582,242.9,273.582Z" transform="translate(-222.702 -212.908)" fill="#263238"/>
      <path id="Path_2301" data-name="Path 2301" d="M244.069,280.133a13.958,13.958,0,0,0,7.432-.908c.067-.024.11.072.048.1a9.929,9.929,0,0,1-7.48.9C243.888,280.181,243.883,280.114,244.069,280.133Z" transform="translate(-223.293 -216.053)" fill="#263238"/>
      <path id="Path_2302" data-name="Path 2302" d="M250.367,262.182c1.772,1.094,4.05,0,5.837-.583a.172.172,0,0,1,.229.162c.8,1.61,2.388,3.654,4.265,3.936a.043.043,0,1,1,0,.086c-2.054-.029-3.783-1.91-4.542-3.73-1.82.616-4.155,1.619-5.794.143C250.348,262.192,250.357,262.177,250.367,262.182Z" transform="translate(-226.648 -206.842)" fill="#263238"/>
      <path id="Path_2303" data-name="Path 2303" d="M304.8,202.307l9.963,6.582s1.323-13.068.626-17.018c-.783-4.447-2.866-3.076-5.378.42A63.681,63.681,0,0,0,304.8,202.307Z" transform="translate(-255.089 -168.958)" fill="#464698"/>
      <path id="Path_2304" data-name="Path 2304" d="M304.8,202.307l9.963,6.582s1.323-13.068.626-17.018c-.783-4.447-2.866-3.076-5.378.42A63.681,63.681,0,0,0,304.8,202.307Z" transform="translate(-255.089 -168.958)" opacity="0.1"/>
      <path id="Path_2305" data-name="Path 2305" d="M307.964,213.505c1.385.664,5.254,3.243,5.889,3.663.339.224,1.653,1.165,1.992,1.385.043.029,0,.091-.048.062-.65-.416-1.342-.769-2-1.18s-4.681-2.894-5.865-3.883C307.916,213.534,307.964,213.486,307.964,213.505Z" transform="translate(-256.725 -181.722)" fill="#263238"/>
      <path id="Path_2306" data-name="Path 2306" d="M325.417,205.959c0-.057.081-.043.081,0,0,1.118,0,2.23-.029,3.343a9.922,9.922,0,0,0,.291-1.724h.043a8.117,8.117,0,0,1-.344,1.992c0,.779-.057,1.552-.1,2.331-.105,1.977-.186,3.959-.4,5.927a.139.139,0,0,1-.215.1c-.339-.244-.673-.478-.993-.75-.033-.029,0-.091.038-.072.31.153.607.32.907.478.048-1.91.2-3.821.3-5.731S325.231,207.926,325.417,205.959Z" transform="translate(-264.984 -177.762)" fill="#263238"/>
      <path id="Path_2307" data-name="Path 2307" d="M342.866,224.806s-32.144,4.461-32.144,4.466c.091.63-1.7-25.429,4.537-41.768.425-1.113,5.321-2.928,7.833-1.184C334.1,193.961,342.924,225.216,342.866,224.806Z" transform="translate(-258.093 -167.145)" fill="#464698"/>
      <path id="Path_2308" data-name="Path 2308" d="M323.879,188.154l-8.846,1.29a.953.953,0,0,1,.057-.148l8.635-1.275A1.866,1.866,0,0,1,323.879,188.154Zm2.436,2.34-12.208,1.815a.82.82,0,0,0-.043.143l12.361-1.815Zm2.035,2.541-15.036,2.216a.227.227,0,0,1-.033.143l15.184-2.23Zm1.743,2.584-17.424,2.565-.029.148,17.529-2.584Zm1.548,2.613-19.5,2.866a.3.3,0,0,1-.024.143l19.582-2.866Zm1.433,2.632-21.34,3.143v.143L333.159,201a.368.368,0,0,1-.105-.134Zm1.309,2.646L311.389,206.9v.143l23.069-3.4Zm1.223,2.66-24.488,3.606v.143l24.512-3.616a1.138,1.138,0,0,1-.043-.143Zm1.151,2.67-25.849,3.821v.143l25.911-3.821a.492.492,0,0,1-.081-.143Zm1.094,2.679-27.1,3.988v.139l27.158-4a.276.276,0,0,1-.081-.129Zm1.036,2.689-28.232,4.155a1.31,1.31,0,0,0,0,.139l28.28-4.165Zm.989,2.694-29.269,4.3a.674.674,0,0,0,0,.139l29.316-4.3a.453.453,0,0,1-.067-.138Zm.955,2.7-30.219,4.451v.134l30.262-4.451Zm.9,2.7-31.079,4.576v.143l31.117-4.58Zm.86,2.718-31.843,4.685v.139l31.877-4.69a.419.419,0,0,1-.062-.134Z" transform="translate(-258.12 -168.411)" opacity="0.1"/>
      <path id="Path_2309" data-name="Path 2309" d="M326.41,210.116l5.058-.716s.955,5.192.955,5.335a12,12,0,0,1-2.651,2.035,24.646,24.646,0,0,1-2.689-.893C327.007,215.729,326.41,210.116,326.41,210.116Z" transform="translate(-266.378 -179.58)" opacity="0.1"/>
      <rect id="Rectangle_1482" data-name="Rectangle 1482" width="31.299" height="34.656" transform="translate(21.302 39.516)" fill="#464698"/>
      <rect id="Rectangle_1483" data-name="Rectangle 1483" width="31.299" height="34.656" transform="translate(21.302 39.516)" opacity="0.1"/>
      <rect id="Rectangle_1484" data-name="Rectangle 1484" width="16.158" height="34.656" transform="translate(21.302 74.172) rotate(180)" fill="#464698"/>
      <path id="Path_2310" data-name="Path 2310" d="M272.53,237.189h1.156l.287-.578.4.578.544-1.184.511,1.184h2.135l.239-.793.229.793h.435V229.7H272.53Z" transform="translate(-238.232 -190.184)" fill="#fff"/>
      <g id="Group_48" data-name="Group 48" transform="translate(6.257 41.904)" opacity="0.1">
        <path id="Path_2311" data-name="Path 2311" d="M213.82,264.58q1.8-3.7,3.558-7.413l3.506-7.456,3.463-7.489q1.719-3.745,3.405-7.523-1.791,3.7-3.558,7.417l-3.506,7.451-3.439,7.489Q215.506,260.807,213.82,264.58Z" transform="translate(-213.82 -234.7)"/>
        <path id="Path_2312" data-name="Path 2312" d="M213.82,234.7q1.691,3.778,3.41,7.523l3.458,7.489,3.506,7.456q1.762,3.716,3.558,7.413-1.686-3.768-3.405-7.523l-3.463-7.489-3.506-7.451Q215.616,238.392,213.82,234.7Z" transform="translate(-213.82 -234.7)"/>
      </g>
      <path id="Path_2313" data-name="Path 2313" d="M281.82,237.189H250.527l-5.2-7.5h31.294Z" transform="translate(-224.023 -190.179)" fill="#464698"/>
      <g id="Group_49" data-name="Group 49" transform="translate(21.307 39.511)" opacity="0.2">
        <path id="Path_2314" data-name="Path 2314" d="M281.82,237.189H250.527l-5.2-7.5h31.294Z" transform="translate(-245.33 -229.69)"/>
      </g>
      <path id="Path_2315" data-name="Path 2315" d="M216.835,237.2H200.72l5.2-7.5h16.11Z" transform="translate(-200.72 -190.184)" fill="#464698"/>
      <path id="Path_2316" data-name="Path 2316" d="M216.835,237.2H200.72l5.2-7.5h16.11Z" transform="translate(-200.72 -190.184)" opacity="0.1"/>
      <path id="Path_2317" data-name="Path 2317" d="M320.051,185.777c1.581.148,4.518-2.1,5.306-4.437.053-.162-.444-1.662-.955-3.515-.31-1.127-.63-2.388-.836-3.558-.043-.239-7.026,3.1-7.026,3.1a19.1,19.1,0,0,1,1.509,4.37,2.863,2.863,0,0,1,.033.478.481.481,0,0,0,0,.081C318.092,183.241,318.36,185.6,320.051,185.777Z" transform="translate(-261.222 -161.22)" fill="#ffc4c0"/>
      <path id="Path_2318" data-name="Path 2318" d="M318.058,182.29a.463.463,0,0,0,0,.081,5.157,5.157,0,0,0,.759-.1c4.3-.865,4.48-6.477,4.456-7.886-1.27.416-6.763,3.042-6.763,3.042a19.107,19.107,0,0,1,1.509,4.37,2.866,2.866,0,0,1,.038.487Z" transform="translate(-261.206 -161.291)" fill="#263238"/>
      <path id="Path_2319" data-name="Path 2319" d="M317.939,150.976c1.18,2.5.9,10.264-.716,12.218-2.345,2.837-6.73,3.716-9.275.774-2.474-2.866-1.91-12.963-.067-14.806C310.612,146.472,316.181,147.3,317.939,150.976Z" transform="translate(-255.867 -147.287)" fill="#ffc4c0"/>
      <path id="Path_2320" data-name="Path 2320" d="M316.567,166.41s.038.029.038.048c-.033.525,0,1.127.478,1.318v.029C316.51,167.7,316.452,166.9,316.567,166.41Z" transform="translate(-261.211 -157.123)" fill="#263238"/>
      <path id="Path_2321" data-name="Path 2321" d="M317.062,165.3c.845-.038.855,1.653.076,1.686S316.355,165.333,317.062,165.3Z" transform="translate(-261.223 -156.542)" fill="#263238"/>
      <path id="Path_2322" data-name="Path 2322" d="M309.669,166.64s-.043.024-.043.048c.024.521-.043,1.122-.516,1.3v.033C309.693,167.934,309.769,167.132,309.669,166.64Z" transform="translate(-257.341 -157.243)" fill="#263238"/>
      <path id="Path_2323" data-name="Path 2323" d="M308.562,165.5c-.841-.057-.893,1.633-.115,1.686S309.268,165.546,308.562,165.5Z" transform="translate(-256.706 -156.646)" fill="#263238"/>
      <path id="Path_2324" data-name="Path 2324" d="M317.547,162.367a5.569,5.569,0,0,1-.654-.224,1.136,1.136,0,0,1-.626-.358.354.354,0,0,1,.057-.43.869.869,0,0,1,.888-.1,1.294,1.294,0,0,1,.755.559.377.377,0,0,1-.42.554Z" transform="translate(-261.054 -154.389)" fill="#263238"/>
      <path id="Path_2325" data-name="Path 2325" d="M307.4,162.483a6.256,6.256,0,0,0,.669-.177,1.127,1.127,0,0,0,.65-.315.358.358,0,0,0-.024-.435.879.879,0,0,0-.884-.158,1.266,1.266,0,0,0-.788.478.377.377,0,0,0,.377.607Z" transform="translate(-256.208 -154.476)" fill="#263238"/>
      <path id="Path_2326" data-name="Path 2326" d="M316.585,176.56c-.124.124-.248.291-.439.31a1.3,1.3,0,0,1-.564-.129s-.033,0-.024.029a.712.712,0,0,0,.669.282.559.559,0,0,0,.406-.478C316.642,176.555,316.6,176.541,316.585,176.56Z" transform="translate(-260.708 -162.42)" fill="#263238"/>
      <path id="Path_2327" data-name="Path 2327" d="M313.192,167.142a1.782,1.782,0,0,1-1.185.8,2.2,2.2,0,0,1-.64.033.474.474,0,0,1-.119,0h-.115a.139.139,0,0,1-.11-.119h0a.237.237,0,0,0,0-.057h0v-1.065c-.148.076-.893.42-.884.21a26.8,26.8,0,0,1,.65-5.4c0-.057.1-.043.1,0,0,1.676-.339,3.343-.387,5.025a3.118,3.118,0,0,1,.841-.258c.057,0-.086,1.18-.067,1.361a2.46,2.46,0,0,0,1.839-.587C313.182,167.065,313.225,167.1,313.192,167.142Z" transform="translate(-257.879 -154.564)" fill="#263238"/>
      <path id="Path_2328" data-name="Path 2328" d="M313.21,173.951a2.112,2.112,0,0,0,.855.659.984.984,0,0,0,.578.033c.415-.115.425-.478.344-.826a2.215,2.215,0,0,0-.191-.478A2.727,2.727,0,0,1,313.21,173.951Z" transform="translate(-259.482 -160.743)" fill="#263238"/>
      <path id="Path_2329" data-name="Path 2329" d="M315,175.133a.984.984,0,0,0,.578.033c.416-.115.425-.478.344-.826A.984.984,0,0,0,315,175.133Z" transform="translate(-260.417 -161.265)" fill="#ff99ba"/>
      <path id="Path_2330" data-name="Path 2330" d="M307.32,151.424c.282-.669.607-1.337,1-1.471s.673.836,1.581.888c1.227.072,1.81-1.06,3.525-1.2,2.465-.191,3.568,1.858,3.659,5.354.081,3.124,1.973,3.4,1.973,3.4s1.084-6.9-.879-9.161a7.39,7.39,0,0,0-9.4-1.027C307.7,149.012,307.32,151.424,307.32,151.424Z" transform="translate(-256.406 -146.965)" fill="#263238"/>
      <path id="Path_2331" data-name="Path 2331" d="M328.392,165.891s1.409-2.665,2.6-2.192.344,4.189-.9,4.838a1.337,1.337,0,0,1-1.867-.478Z" transform="translate(-267.323 -155.677)" fill="#ffc4c0"/>
      <path id="Path_2332" data-name="Path 2332" d="M331.485,166v.033a3.376,3.376,0,0,0-1.476,2.316.74.74,0,0,1,1.075-.339.029.029,0,0,1,0,.053.821.821,0,0,0-.864.4,4.041,4.041,0,0,0-.339.779c-.033.086-.186.062-.167-.033h0C329.546,168.011,330.248,166.263,331.485,166Z" transform="translate(-268.091 -156.909)" fill="#263238"/>
      <path id="Path_2333" data-name="Path 2333" d="M326.422,194.8c3.2,7.126,10.278,21.732,8.459,27.224-2.388,7.212-14.887,15.165-18.121,17.395-1.409.955-8.42-8.019-7.991-9.8s13.569-12.184,14.276-13.373-2.264-13.015-2.765-19.63C319.64,188.3,323.709,188.771,326.422,194.8Z" transform="translate(-257.153 -169.612)" fill="#ffc4c0"/>
      <path id="Path_2334" data-name="Path 2334" d="M292.03,274.618c.382-.783-.029-.989-1.433-.31s-6.343,4.547-7.546,2.708,5.856-7.2,8.268-8.148a42.123,42.123,0,0,1,6.639-1.648C296.806,268.548,294.289,272.006,292.03,274.618Z" transform="translate(-243.656 -209.784)" fill="#ffc4c0"/>
      <path id="Path_2335" data-name="Path 2335" d="M305.07,276.806c-3.42,3.6-7.451,8.277-12.829,9.815a2.789,2.789,0,0,1-1.815-.053c-2.388.731-3.463-.181-3.463-.181a4.59,4.59,0,0,1-3.405-1.084s-2.828.831-3.611-.793c-.884-1.82,3.257-2.632,5.254-4.466,4.595-4.213,9.949-11.463,11.152-12.824Z" transform="translate(-242.043 -209.784)" fill="#ffc4c0"/>
      <path id="Path_2336" data-name="Path 2336" d="M297.2,291.89a40.7,40.7,0,0,1-4.232,3.453,40.064,40.064,0,0,1-5.311,2.77c-.057.024-.024.105.038.091a21.2,21.2,0,0,0,9.552-6.257C297.315,291.88,297.268,291.828,297.2,291.89Z" transform="translate(-246.119 -222.656)" fill="#263238"/>
      <path id="Path_2337" data-name="Path 2337" d="M303.847,296.946a29.649,29.649,0,0,1-9.127,4.915v.029a19.014,19.014,0,0,0,9.17-4.876C303.981,296.912,303.929,296.845,303.847,296.946Z" transform="translate(-249.824 -225.286)" fill="#263238"/>
      <path id="Path_2338" data-name="Path 2338" d="M309.254,299.682a30.228,30.228,0,0,1-7.164,3.821v.033a17.793,17.793,0,0,0,7.255-3.768C309.417,299.692,309.35,299.615,309.254,299.682Z" transform="translate(-253.674 -226.728)" fill="#263238"/>
      <path id="Path_2339" data-name="Path 2339" d="M333.262,205.044l11.941.573s-5.526-11.912-8.12-14.954c-2.942-3.429-4.05-1.175-4.413,3.1A66.766,66.766,0,0,0,333.262,205.044Z" transform="translate(-269.605 -168.919)" fill="#464698"/>
      <path id="Path_2340" data-name="Path 2340" d="M333.262,205.044l11.941.573s-5.526-11.912-8.12-14.954c-2.942-3.429-4.05-1.175-4.413,3.1A66.766,66.766,0,0,0,333.262,205.044Z" transform="translate(-269.605 -168.919)" opacity="0.1"/>
      <path id="Path_2341" data-name="Path 2341" d="M335.115,218.078c1.528-.134,6.166.119,6.935.153.4,0,2.016.158,2.417.172.053,0,.038.081,0,.081-.774-.029-1.547.024-2.321,0s-5.5-.105-7.026-.349a.033.033,0,0,1,0-.057Z" transform="translate(-270.918 -184.093)" fill="#263238"/>
      <path id="Path_2342" data-name="Path 2342" d="M347.825,201.788c-.024-.048.053-.081.076-.033.583.955,1.142,1.91,1.681,2.9a9.723,9.723,0,0,0-.626-1.638s.024-.038.038,0a7.963,7.963,0,0,1,.716,1.91c.377.683.745,1.366,1.108,2.059.917,1.748,1.863,3.5,2.679,5.3a.139.139,0,0,1-.139.191c-.415-.033-.826-.081-1.237-.139-.043,0-.048-.076,0-.081.344-.029.683-.033,1.027-.043-.955-1.667-1.782-3.386-2.665-5.082S348.67,203.579,347.825,201.788Z" transform="translate(-277.562 -175.574)" fill="#263238"/>
      <path id="Path_2343" data-name="Path 2343" d="M332.108,208.427c-.124-.616-.253-1.232-.358-1.853h0c.11.449.21.9.31,1.356-.053-.927-.086-1.848-.076-2.77h.024c.191,1.385.306,2.785.478,4.174s.291,2.732.42,4.1c.267.057.54.105.812.153a.043.043,0,0,1,0,.081h-.9a.134.134,0,0,1-.153-.11C332.414,211.851,332.223,210.137,332.108,208.427Z" transform="translate(-269.167 -177.365)" fill="#263238"/>
    </g>
    <g id="freepik--speech-bubble--inject-3" transform="translate(87.727 59.658)">
      <path id="Path_2344" data-name="Path 2344" d="M162.844,74.992a10.383,10.383,0,0,1-17.352,6.567l-5.192.759,2.6-4.49a10.279,10.279,0,0,1-.712-5.005,10.385,10.385,0,1,1,20.657,2.164Z" transform="translate(-139.97 -63.424)" fill="#fff"/>
      <path id="Path_2345" data-name="Path 2345" d="M162.483,74.888a10.508,10.508,0,0,1-2.1,5.254,11.9,11.9,0,0,1-.955,1.079,12.037,12.037,0,0,1-1.1.955,10.46,10.46,0,0,1-5.3,2.059,9.712,9.712,0,0,1-1.433.029,9.074,9.074,0,0,1-1.433-.148,10.508,10.508,0,0,1-5.12-2.55l.124.038-5.192.793-.373.062.186-.334,2.584-4.5V77.8a10.484,10.484,0,0,1,8.325-14.381,10.422,10.422,0,0,1,11.778,11.468Zm0,0a10.3,10.3,0,0,0-16.077-9.548,10.689,10.689,0,0,0-3.1,3.386,10.245,10.245,0,0,0-1.318,4.394,10.383,10.383,0,0,0,.731,4.523l.038.091-.053.086-2.613,4.485-.186-.277,5.211-.712h.072l.053.048a10.235,10.235,0,0,0,4.972,2.56,9.23,9.23,0,0,0,1.409.172,10,10,0,0,0,4.194-.616,9.6,9.6,0,0,0,2.5-1.347,12.55,12.55,0,0,0,1.1-.917,11.771,11.771,0,0,0,.955-1.07,10.436,10.436,0,0,0,2.116-5.259Z" transform="translate(-139.61 -63.32)" fill="#263238"/>
      <path id="Path_2346" data-name="Path 2346" d="M158.477,84.793,154.04,80.3l1.49-1.471,2.593,2.622,5.383-8.435,1.762,1.122Z" transform="translate(-147.148 -68.387)" fill="#464698"/>
    </g>
    <g id="freepik--character-1--inject-3" transform="translate(45.864 66.42)">
      <path id="Path_2347" data-name="Path 2347" d="M84.142,106.775c-1.748-.306-6.147,1.127-7.532,3.506s-1.094,6.133-.32,6.438,4.065-.1,6.271-1.433S85.006,106.923,84.142,106.775Z" transform="translate(-64.33 -92.761)" fill="#263238"/>
      <path id="Path_2348" data-name="Path 2348" d="M83.465,106.72c.057,0,.062-.115,0-.11a15.786,15.786,0,0,0-4.542,1.094,8.765,8.765,0,0,0-3.238,1.672,4.069,4.069,0,0,0-1.347,3.152,8.411,8.411,0,0,0,.984,4.1c0,.033.086,0,.072,0-.807-2.493-1.557-5.55.874-7.384C78.331,107.646,81.048,107.355,83.465,106.72Z" transform="translate(-63.649 -92.695)" fill="#263238"/>
      <path id="Path_2349" data-name="Path 2349" d="M71.006,126.239c-1.5.263-5.311,3.343-5.846,6.209s2,7.059,2.751,7.336,3.979-2.632,4.982-4.709c.669-1.385,0-2.942-.377-4.494C71.923,128.3,71.254,126.2,71.006,126.239Z" transform="translate(-58.817 -102.949)" fill="#263238"/>
      <path id="Path_2350" data-name="Path 2350" d="M77.13,134.748c.32-2.956-1.471-5.784-2.589-8.392,0-.029-.057,0-.048,0,.664,2.517,2.3,4.733,2.46,7.389a4.867,4.867,0,0,1-1.643,4.174,14.267,14.267,0,0,1-3.778,1.858c-.081.033,0,.158.062.129C74.164,138.956,76.8,137.8,77.13,134.748Z" transform="translate(-62.167 -103.004)" fill="#263238"/>
      <path id="Path_2351" data-name="Path 2351" d="M70.063,126.706a.067.067,0,0,0-.057-.119c-2.106,1.118-4.633,2.718-5.688,4.953-1.146,2.417.215,4.834,1.433,6.916h.043c-1.194-2.116-2.469-4.776-1.151-7.117C65.764,129.285,68.076,127.79,70.063,126.706Z" transform="translate(-58.19 -103.129)" fill="#263238"/>
      <path id="Path_2352" data-name="Path 2352" d="M68.367,153.84a6.518,6.518,0,0,1,3.071,4.117c.774,3.439,2.044,2.679,5.889,3.386a3.778,3.778,0,0,1,2.531,6.013,2.5,2.5,0,0,0-1.356-3.229c-2.656-1.146-8.406,1.91-11.558-1.571C62.865,158.057,68.367,153.84,68.367,153.84Z" transform="translate(-59.001 -117.368)" fill="#263238"/>
      <path id="Path_2353" data-name="Path 2353" d="M74.606,156.9c-.043-.048.029-.124.076-.081a5.12,5.12,0,0,1,1.132,1.433c.368.716.43,1.514.74,2.245.8,1.863,3.095,1.667,4.776,1.691a4.136,4.136,0,0,1,4.394,3.635.029.029,0,1,1-.053,0,4,4,0,0,0-2.57-3.191c-1.342-.478-2.8-.1-4.17-.349a3.135,3.135,0,0,1-2.388-1.39,7.8,7.8,0,0,1-.511-1.567,5.536,5.536,0,0,0-1.428-2.426Z" transform="translate(-63.783 -118.916)" fill="#263238"/>
      <path id="Path_2354" data-name="Path 2354" d="M67.374,154.79s.053,0,.033.033c-1.194,1.323-2.46,2.656-2.718,4.5a5.33,5.33,0,0,0,2.46,5c1.81,1.232,3.625.478,5.54,0a7.944,7.944,0,0,1,4.2-.2c.043,0,0,.081,0,.076-2.24-.387-4.227.387-6.376.865A4.366,4.366,0,0,1,66.1,163.6C63.39,160.713,64.732,157.154,67.374,154.79Z" transform="translate(-58.571 -117.864)" fill="#263238"/>
      <path id="Path_2355" data-name="Path 2355" d="M89.356,103.393a.606.606,0,0,0-.907.8A.606.606,0,0,0,89.356,103.393Z" transform="translate(-70.939 -90.906)" fill="#464698"/>
      <path id="Path_2356" data-name="Path 2356" d="M90.429,105.486a.6.6,0,0,0-.9.8A.6.6,0,0,0,90.429,105.486Z" transform="translate(-71.501 -92.001)" fill="#464698"/>
      <path id="Path_2357" data-name="Path 2357" d="M91.836,107.385a.606.606,0,0,0-.907.8A.606.606,0,0,0,91.836,107.385Z" transform="translate(-72.235 -92.993)" fill="#464698"/>
      <path id="Path_2358" data-name="Path 2358" d="M93.489,109.026a.6.6,0,0,0-.9.8A.6.6,0,0,0,93.489,109.026Z" transform="translate(-73.1 -93.85)" fill="#464698"/>
      <path id="Path_2359" data-name="Path 2359" d="M95.416,110.4a.606.606,0,0,0-.907.8A.606.606,0,0,0,95.416,110.4Z" transform="translate(-74.105 -94.566)" fill="#464698"/>
      <path id="Path_2360" data-name="Path 2360" d="M97.476,111.365a.606.606,0,0,0-.907.8A.606.606,0,0,0,97.476,111.365Z" transform="translate(-75.181 -95.072)" fill="#464698"/>
      <path id="Path_2361" data-name="Path 2361" d="M138.6,408.292c-1.1.344-33.348-.353-34.523-1.137-.454-.291,2.312-30.835,2.312-30.835l20.447.392-2.326,20.428s11.9,5.641,13.1,6.639S139.706,407.948,138.6,408.292Z" transform="translate(-79.158 -233.586)" fill="#ffc4c0"/>
      <path id="Path_2362" data-name="Path 2362" d="M138.554,434.108c-1.1.344-33.352-.353-34.527-1.142a30.387,30.387,0,0,1,.33-7.226c5.846.979,26.713,4.184,28.342,3.229,1.132-.669.129-1.71-.8-2.388a56.668,56.668,0,0,1,5.665,3.033C138.759,430.593,139.652,433.769,138.554,434.108Z" transform="translate(-79.109 -259.402)" fill="#263238"/>
      <path id="Path_2363" data-name="Path 2363" d="M114.521,293.373l-20.06-.282s3.974-48.082,3.821-49.009C98.043,242.908,83.8,187.05,83.8,187.05h19.162s15.107,52.061,15.652,57.071C119.493,252.221,114.521,293.373,114.521,293.373Z" transform="translate(-68.593 -134.716)" fill="#37474f"/>
      <path id="Path_2364" data-name="Path 2364" d="M109.8,399.479c1.189-.086,2.388-.072,3.577-.086s2.388,0,3.573,0c2.388.024,4.776.062,7.164.129.65,0,1.3.038,1.953.067s1.39.153,2.082.177a.043.043,0,1,1,0,.086c-.587,0-1.17.091-1.758.11s-1.213,0-1.82,0H121c-2.388,0-4.776-.053-7.14-.148-1.342-.057-2.7-.072-4.036-.21a.063.063,0,0,1-.024-.124Z" transform="translate(-82.15 -245.636)" fill="#263238"/>
      <path id="Path_2365" data-name="Path 2365" d="M92.564,196.481c1.715,6.071,3.281,12.194,4.814,18.312s3.066,12.246,4.59,18.369q1.146,4.6,2.288,9.189a50.093,50.093,0,0,1,1.786,9.075,66.25,66.25,0,0,1-.478,9.409c-.267,3.119-.525,6.266-.8,9.4-.549,6.266-1.075,12.542-1.758,18.8-.081.783-.167,1.567-.248,2.35,0,.067-.11.067-.105,0,.416-6.276.85-12.547,1.352-18.814q.373-4.7.764-9.4c.258-3.128.621-6.271.721-9.409a33.625,33.625,0,0,0-1.242-9.256c-.764-3.047-1.5-5.994-2.254-8.994q-2.3-9.175-4.585-18.369c-1.7-6.859-3.4-13.727-4.9-20.633a.032.032,0,1,1,.057-.029Z" transform="translate(-73.139 -139.633)" fill="#263238"/>
      <path id="Path_2366" data-name="Path 2366" d="M83.8,187.06s6.114,23.958,10.388,40.822l8.153-40.822Z" transform="translate(-68.593 -134.721)" fill="#263238"/>
      <path id="Path_2367" data-name="Path 2367" d="M88.158,408.426c-1.1.349-33.348-.349-34.523-1.137-.454-.291,1.227-30.85,1.227-30.85l20.18.392-.955,20.447s11.9,5.636,13.1,6.639S89.261,408.087,88.158,408.426Z" transform="translate(-52.795 -233.649)" fill="#ffc4c0"/>
      <path id="Path_2368" data-name="Path 2368" d="M88.138,434.258c-1.1.344-33.348-.349-34.523-1.137a56.89,56.89,0,0,1,0-7.231c5.846.979,27.038,4.189,28.657,3.229,1.132-.664.134-1.705-.8-2.388a56.343,56.343,0,0,1,5.665,3.038C88.344,430.743,89.242,433.919,88.138,434.258Z" transform="translate(-52.775 -259.481)" fill="#263238"/>
      <path id="Path_2369" data-name="Path 2369" d="M87.093,187a85.03,85.03,0,0,1-2.746,16.4c-.177.6-.368,1.185-.568,1.748a33.91,33.91,0,0,0-5.56,2.77s-1.38,35.038-1.356,37.216c.091,8.163-2.006,47.815-2.006,47.815l-20.246-.2s2.1-44.839,2.111-47.819c0-4.776,4.246-57.907,4.246-57.907Z" transform="translate(-53.345 -134.69)" fill="#37474f"/>
      <path id="Path_2370" data-name="Path 2370" d="M113.251,201.189l.229-1.519c.143-.955.334-1.853.478-2.78.368-2.1.755-4.2,1.218-6.286,0-.048.1-.038.091,0-.081.841-.177,1.681-.3,2.517s-.2,1.676-.32,2.512c-.234,1.657-.478,3.343-.745,4.972-.11.635-.506,1.777.411,1.973.721.158,1.256-.554,1.466-1.151a13.885,13.885,0,0,0,.478-2.293c.153-.836.282-1.676.4-2.517.258-1.834.545-3.663.841-5.488,0-.053.1-.038.091,0a55.315,55.315,0,0,1-.406,5.617c-.119.893-.248,1.782-.4,2.67a9.419,9.419,0,0,1-.616,2.484,2.011,2.011,0,0,1-1.514,1.218h-.043a.062.062,0,0,1,.029.053,8.016,8.016,0,0,1-.033.9c-.033.3-.091.583-.148.874a6.176,6.176,0,0,1-.224.874c-.053.134-.1.267-.162.4a3.445,3.445,0,0,1-.239.368c-.029.053-.091,0-.1-.033h0v-.143h0a2.345,2.345,0,0,1,0-.258,4.189,4.189,0,0,1,.086-.425c.062-.282.139-.564.215-.845s.134-.559.205-.841.172-.568.239-.86v-.029a1.323,1.323,0,0,1-1.28-.8A2.331,2.331,0,0,1,113.251,201.189Z" transform="translate(-83.926 -136.556)" fill="#263238"/>
      <path id="Path_2371" data-name="Path 2371" d="M100.591,227.97a16.2,16.2,0,0,1,1.91-1.256,18.352,18.352,0,0,1,2.173-1.127c1.462-.635,2.971-1.07,4.485-1.567.043,0,.072.057.029.076-1.462.583-2.866,1.356-4.3,2.049q-1.046.511-2.111.955c-.707.315-1.433.683-2.145.955C100.591,228.089,100.548,228,100.591,227.97Z" transform="translate(-77.355 -154.028)" fill="#263238"/>
      <path id="Path_2372" data-name="Path 2372" d="M76.635,198.2a12.7,12.7,0,0,0,3.052-.411c.478-.119.912-.267,1.361-.416a3.558,3.558,0,0,0,1.232-.616,5.471,5.471,0,0,0,1.318-2.388,22.451,22.451,0,0,0,.8-2.866.043.043,0,0,1,.086,0,11.182,11.182,0,0,1-.416,3.276,5.064,5.064,0,0,1-1.313,2.546,5.129,5.129,0,0,1-2.8,1.022,12.9,12.9,0,0,1-3.343-.043.057.057,0,0,1,.024-.105Z" transform="translate(-64.824 -137.019)" fill="#263238"/>
      <path id="Path_2373" data-name="Path 2373" d="M61.749,270.417q.516-9.591,1.089-19.191c.736-12.729,1.433-25.462,2.25-38.21.478-7.164.917-14.362,1.481-21.536a.062.062,0,0,1,.119,0c-.525,12.834-1.29,25.624-2.03,38.434s-1.495,25.448-2.316,38.172c-.43,7.2-1,14.367-1.433,21.531a.043.043,0,1,1-.081,0C61.157,283.218,61.386,276.817,61.749,270.417Z" transform="translate(-56.591 -137.007)" fill="#263238"/>
      <path id="Path_2374" data-name="Path 2374" d="M56.457,400.1c1.185-.086,2.388-.072,3.573-.086s2.388,0,3.573,0c2.388.024,4.776.062,7.164.129.65,0,1.3.038,1.953.067s1.39.153,2.082.177a.043.043,0,0,1,0,.086c-.583,0-1.17.091-1.758.11s-1.213,0-1.82,0H67.657q-3.582,0-7.164-.148c-1.347-.057-2.7-.072-4.041-.205a.065.065,0,0,1,0-.129Z" transform="translate(-54.274 -245.96)" fill="#263238"/>
      <path id="Path_2375" data-name="Path 2375" d="M103.938,135.3c1.944,4.824,9.667,20.418,14.739,21.522,3.343.721,16.779-.583,19.1-3.764,1.008-1.385-.7-11.052-2.493-10.67s-12.576,1.81-13.9,1.433-11.248-11.812-14.959-14.649C100.031,124.276,102.892,132.706,103.938,135.3Z" transform="translate(-78.304 -103.699)" fill="#ffc4c0"/>
      <path id="Path_2376" data-name="Path 2376" d="M115.024,136.922l-8.454,5a88.764,88.764,0,0,1-4.948-11.2c-1.39-4.432-.2-6.457,4.905-2.049a96.961,96.961,0,0,1,8.5,8.253Z" transform="translate(-77.622 -102.933)" fill="#464698"/>
      <path id="Path_2377" data-name="Path 2377" d="M111.8,150.486q1.681-1.218,3.425-2.355c.568-.373,1.137-.755,1.715-1.113s1.223-.707,1.82-1.079a.038.038,0,1,1,.043.062c-.564.382-1.1.8-1.662,1.189s-1.175.774-1.762,1.156q-1.739,1.137-3.539,2.192C111.8,150.557,111.762,150.509,111.8,150.486Z" transform="translate(-83.211 -113.235)" fill="#263238"/>
      <path id="Path_2378" data-name="Path 2378" d="M95.145,160.259l-1.91-10.78s2.937-5.125,1.232-8.807c-.86-1.863-8.406-13.459-11.582-15.762-2.98-2.164-7.308.148-8.917,1.844C67.758,133.288,66.106,145.338,63.88,163Z" transform="translate(-58.187 -101.797)" fill="#464698"/>
      <path id="Path_2379" data-name="Path 2379" d="M124.4,153.534a8.335,8.335,0,0,0-1.032-2.187c-.148-.253-.478-.779-.879-1.39a8.78,8.78,0,0,0-.382-.864,12.752,12.752,0,0,1-.635-1.28c0-.043-.086,0-.062.029a13.725,13.725,0,0,1,.535,1.285c-.673-1.022-1.38-2.073-1.686-2.5,0-.038-.081,0-.057.033.645.845,2.761,4.552,3.272,5.493a6.357,6.357,0,0,1,.74,3.019,13.886,13.886,0,0,1-.42,3.233c-.029.086.062.134.1.048a8.827,8.827,0,0,0,.6-2.388,7.051,7.051,0,0,0-.091-2.527Z" transform="translate(-87.608 -113.589)" fill="#263238"/>
      <path id="Path_2380" data-name="Path 2380" d="M101.477,141.679s-1.91-2.116-.349-3.3,3.081,1.218,3.081,1.218Z" transform="translate(-77.324 -109.123)" fill="#455a64"/>
      <path id="Path_2381" data-name="Path 2381" d="M117.255,157.015h0l.478,2.746.158.9-.836-.387-2.522-1.18h0l-12.112-15.91,2.732-2.078,12.112,15.91Z" transform="translate(-78.32 -110.718)" fill="#455a64"/>
      <path id="Path_2382" data-name="Path 2382" d="M133.718,180.16l.158.9-.836-.387Z" transform="translate(-94.315 -131.117)" fill="#37474f"/>
      <rect id="Rectangle_1485" data-name="Rectangle 1485" width="4.007" height="0.793" transform="translate(23.791 32.559) rotate(-37.29)" fill="#263238"/>
      <rect id="Rectangle_1486" data-name="Rectangle 1486" width="4.007" height="0.793" transform="translate(24.324 33.258) rotate(-37.29)" fill="#263238"/>
      <path id="Path_2383" data-name="Path 2383" d="M103.9,147.573l1.027-.783,3.816,6.185-.4.267Z" transform="translate(-79.093 -113.685)" fill="#263238"/>
      <path id="Path_2384" data-name="Path 2384" d="M64.875,132.94c-7.642,9.552-15.967,25.443-11.8,28.466,3.821,2.756,16.846-.9,24.951-4.662,1.543-.716-5.731-14.329-7.3-13.373a45.673,45.673,0,0,1-5.111,2.694c-.449.153,1.863-3.052,4.189-10.56C72.173,127.854,69.255,127.443,64.875,132.94Z" transform="translate(-51.961 -104.511)" fill="#ffc4c0"/>
      <path id="Path_2385" data-name="Path 2385" d="M110.379,150.886c.11,1.624-3.921,1.552-3.921,1.552A3.014,3.014,0,0,1,107.781,154c.377,1.18-1.309,2.288-1.309,2.288a3.721,3.721,0,0,1,1.132,1.868c.248,1.165-1.294,2.527-1.294,2.527a3.238,3.238,0,0,1-.038,2.269c-.836,1.911-4.041,2.145-5.994,2.684a42.758,42.758,0,0,0-6.362,2.445L89.33,153.7s8.268-5.626,10.675-5.66C102.035,148.02,110.212,148.4,110.379,150.886Z" transform="translate(-71.482 -114.337)" fill="#ffc4c0"/>
      <path id="Path_2386" data-name="Path 2386" d="M117.818,156.672a26.368,26.368,0,0,0-6.629-.4.038.038,0,0,0,0,.076c2.183-.081,4.442.42,6.62.425a.053.053,0,0,0,.01-.105Z" transform="translate(-82.88 -118.619)" fill="#263238"/>
      <path id="Path_2387" data-name="Path 2387" d="M118.151,164.945a5.731,5.731,0,0,0-1.514,0c-.535.043-1.065.091-1.6.148-1.065.115-2.13.258-3.186.425-.048,0-.048.081,0,.076,1.065-.11,2.13-.21,3.2-.277.535-.033,1.07-.067,1.6-.091a6.939,6.939,0,0,0,1.509-.143.076.076,0,0,0,0-.139Z" transform="translate(-83.227 -123.142)" fill="#263238"/>
      <path id="Path_2388" data-name="Path 2388" d="M118.505,174.474a4.1,4.1,0,0,0-1.361.081l-1.433.182c-.955.115-1.944.229-2.918.31-.048,0-.043.081,0,.076.989-.076,1.982-.143,2.971-.229.478-.038.955-.086,1.433-.134a3.691,3.691,0,0,0,1.309-.239.029.029,0,0,0,0-.048Z" transform="translate(-83.72 -128.134)" fill="#263238"/>
      <path id="Path_2389" data-name="Path 2389" d="M74.712,143.918l-8.292-5.254a89.177,89.177,0,0,1,7.747-9.486c3.319-3.248,5.665-3.1,4.05,3.444a96.861,96.861,0,0,1-3.506,11.3Z" transform="translate(-59.514 -103.4)" fill="#464698"/>
      <path id="Path_2390" data-name="Path 2390" d="M69.272,148.983q1.848.955,3.649,1.982c.592.339,1.189.673,1.772,1.027s1.185.764,1.786,1.127c.043.029,0,.1-.033.072-.6-.33-1.218-.616-1.815-.955s-1.223-.693-1.829-1.046q-1.805-1.032-3.558-2.159C69.21,148.983,69.239,148.945,69.272,148.983Z" transform="translate(-60.981 -114.822)" fill="#263238"/>
      <path id="Path_2391" data-name="Path 2391" d="M83.779,153.324c.4-1.395.955-2.732,1.433-4.1s.955-2.765,1.356-4.155a.029.029,0,1,1,.053,0c-.172.7-.33,1.433-.525,2.111-.1.344-.205.693-.315,1.032.072-.124.139-.248.215-.373a12.514,12.514,0,0,1,.755-1.06s.043,0,.033.024a12.566,12.566,0,0,1-.626,1.142c-.162.267-.344.525-.516.788l-.205.583a23.643,23.643,0,0,1-1.581,4.026C83.831,153.386,83.769,153.367,83.779,153.324Z" transform="translate(-68.581 -112.763)" fill="#263238"/>
      <path id="Path_2392" data-name="Path 2392" d="M73.584,164.549a24.423,24.423,0,0,0-5.731,4.017c-.038.038,0,.1.048.067,1.223-.955,4.853-3.171,5.789-3.8C73.981,164.639,74.191,164.224,73.584,164.549Z" transform="translate(-60.254 -122.899)" fill="#263238"/>
      <path id="Path_2393" data-name="Path 2393" d="M139.279,166.667l-16.889.363,7.422-21.837,16.889-.363Z" transform="translate(-88.751 -112.661)" fill="#ebebeb"/>
      <path id="Path_2394" data-name="Path 2394" d="M141.7,166.617l-16.889.358,7.422-21.832,16.889-.363Z" transform="translate(-90.016 -112.635)" fill="#37474f"/>
      <path id="Path_2395" data-name="Path 2395" d="M142.851,144.567a1.509,1.509,0,0,1-.707.9c-.158.091-.205-.119-.048-.205a1.108,1.108,0,0,0,.478-.564.536.536,0,0,1,.038-.124.807.807,0,0,0,0-.411.258.258,0,0,0-.1-.148h-.033a.244.244,0,0,0-.115,0,.478.478,0,0,0-.191.129,1.08,1.08,0,0,0-.167.229l-.072.124v.029a.172.172,0,0,0,0,.043.119.119,0,0,0,0,.033H141.7a1.721,1.721,0,0,1,.22-.425.912.912,0,0,1,.64-.425.377.377,0,0,1,.387.339A1,1,0,0,1,142.851,144.567Z" transform="translate(-98.839 -112.097)" fill="#c7c7c7"/>
      <path id="Path_2396" data-name="Path 2396" d="M145.611,144.506a1.509,1.509,0,0,1-.707.9c-.158.091-.205-.119-.048-.205a1.132,1.132,0,0,0,.478-.564.6.6,0,0,0,.033-.124.759.759,0,0,0,0-.411.267.267,0,0,0-.1-.148h-.033a.21.21,0,0,0-.119,0,.477.477,0,0,0-.191.129,2.286,2.286,0,0,0-.234.353v.029a.337.337,0,0,0,0,.048.067.067,0,0,0,0,.029h-.239a1.72,1.72,0,0,1,.22-.425.912.912,0,0,1,.64-.425.368.368,0,0,1,.382.339A.955.955,0,0,1,145.611,144.506Z" transform="translate(-100.275 -112.065)" fill="#c7c7c7"/>
      <path id="Path_2397" data-name="Path 2397" d="M148.365,144.446a1.471,1.471,0,0,1-.7.9c-.158.091-.205-.119-.053-.205a1.117,1.117,0,0,0,.478-.564.691.691,0,0,1,.033-.124.759.759,0,0,0,0-.411.267.267,0,0,0-.1-.148h0a.076.076,0,0,1-.033,0,.21.21,0,0,0-.119,0,.478.478,0,0,0-.191.129,1.183,1.183,0,0,0-.162.229,1.053,1.053,0,0,0-.072.124v.033a.175.175,0,0,0,0,.043v.029H147.2a1.911,1.911,0,0,1,.22-.425.955.955,0,0,1,.64-.425.373.373,0,0,1,.387.339A1,1,0,0,1,148.365,144.446Z" transform="translate(-101.712 -112.034)" fill="#c7c7c7"/>
      <path id="Path_2398" data-name="Path 2398" d="M151.13,144.386a1.471,1.471,0,0,1-.7.9c-.162.091-.21-.119-.053-.205a1.108,1.108,0,0,0,.478-.564,1.145,1.145,0,0,0,.038-.119.773.773,0,0,0,0-.416.258.258,0,0,0-.1-.148h-.053a.2.2,0,0,0-.119,0,.5.5,0,0,0-.191.129,1.007,1.007,0,0,0-.162.229.829.829,0,0,0-.072.129v.029a.2.2,0,0,0,0,.043s0,0,0,.029h-.239a1.867,1.867,0,0,1,.22-.42.922.922,0,0,1,.64-.43.373.373,0,0,1,.387.339A1,1,0,0,1,151.13,144.386Z" transform="translate(-103.153 -112.002)" fill="#c7c7c7"/>
      <path id="Path_2399" data-name="Path 2399" d="M153.921,144.337a1.509,1.509,0,0,1-.707.9c-.158.086-.205-.124-.048-.205a1.133,1.133,0,0,0,.516-.688.826.826,0,0,0,0-.416.234.234,0,0,0-.1-.143h-.033a.191.191,0,0,0-.115,0,.5.5,0,0,0-.191.129,1.218,1.218,0,0,0-.167.229l-.072.129v.029a.17.17,0,0,0,0,.043v.029h-.239a1.691,1.691,0,0,1,.22-.42.955.955,0,0,1,.64-.43.377.377,0,0,1,.387.339A1.017,1.017,0,0,1,153.921,144.337Z" transform="translate(-104.621 -111.976)" fill="#c7c7c7"/>
      <path id="Path_2400" data-name="Path 2400" d="M156.736,144.276a1.524,1.524,0,0,1-.707.9c-.158.086-.205-.124-.048-.205a1.123,1.123,0,0,0,.478-.568.56.56,0,0,0,.033-.119.779.779,0,0,0,0-.416.258.258,0,0,0-.1-.143h-.033a.211.211,0,0,0-.119,0,.54.54,0,0,0-.191.129,1.182,1.182,0,0,0-.162.229,1.109,1.109,0,0,0-.072.129v.029a.17.17,0,0,0,0,.043.066.066,0,0,0,0,.029h-.239a1.692,1.692,0,0,1,.22-.42.955.955,0,0,1,.64-.43.368.368,0,0,1,.382.339A.955.955,0,0,1,156.736,144.276Z" transform="translate(-106.089 -111.945)" fill="#c7c7c7"/>
      <path id="Path_2401" data-name="Path 2401" d="M159.441,144.222a1.5,1.5,0,0,1-.7.9c-.158.086-.205-.119-.048-.205a1.037,1.037,0,0,0,.511-.688.779.779,0,0,0,0-.416.239.239,0,0,0-.1-.143h-.033a.211.211,0,0,0-.119,0,.54.54,0,0,0-.191.129,1.183,1.183,0,0,0-.162.229c-.029.043-.048.086-.072.129v.029a.173.173,0,0,0,0,.043v.029h-.244a1.867,1.867,0,0,1,.22-.42.922.922,0,0,1,.64-.425.373.373,0,0,1,.387.334A1.017,1.017,0,0,1,159.441,144.222Z" transform="translate(-107.5 -111.919)" fill="#c7c7c7"/>
      <path id="Path_2402" data-name="Path 2402" d="M162.185,144.156a1.485,1.485,0,0,1-.7.9c-.162.091-.21-.119-.053-.205a1.1,1.1,0,0,0,.478-.568,1.149,1.149,0,0,0,.038-.119.774.774,0,0,0,0-.416.248.248,0,0,0-.1-.143h-.029a.177.177,0,0,0-.119,0,.415.415,0,0,0-.191.129.893.893,0,0,0-.162.224c-.029.043-.048.086-.072.129v.029l-.024.043v.029H161a1.867,1.867,0,0,1,.22-.42.912.912,0,0,1,.64-.425.373.373,0,0,1,.387.334A1.017,1.017,0,0,1,162.185,144.156Z" transform="translate(-108.92 -111.882)" fill="#c7c7c7"/>
      <path id="Path_2403" data-name="Path 2403" d="M164.991,144.106a1.5,1.5,0,0,1-.707.9c-.158.091-.205-.119-.048-.205a1.1,1.1,0,0,0,.478-.568,1.154,1.154,0,0,0,.038-.119.807.807,0,0,0,0-.411.258.258,0,0,0-.1-.148h-.033a.162.162,0,0,0-.115,0,.416.416,0,0,0-.191.129.955.955,0,0,0-.167.229c0,.038-.043.081-.072.124v.029a.172.172,0,0,0,0,.043v.029h-.239a1.776,1.776,0,0,1,.22-.42.912.912,0,0,1,.64-.425.373.373,0,0,1,.387.334A1.017,1.017,0,0,1,164.991,144.106Z" transform="translate(-110.404 -111.856)" fill="#c7c7c7"/>
      <path id="Path_2404" data-name="Path 2404" d="M167.741,144.036a1.509,1.509,0,0,1-.707.9c-.158.091-.205-.119-.048-.205a1.123,1.123,0,0,0,.478-.568,1.168,1.168,0,0,0,.038-.119.808.808,0,0,0,0-.411.287.287,0,0,0-.1-.148h-.033a.215.215,0,0,0-.119,0,.478.478,0,0,0-.191.129.955.955,0,0,0-.162.229,1.047,1.047,0,0,0-.072.124v.029a.171.171,0,0,0,0,.043.068.068,0,0,0,0,.029h-.239a1.777,1.777,0,0,1,.22-.42.912.912,0,0,1,.64-.425.368.368,0,0,1,.382.334A.955.955,0,0,1,167.741,144.036Z" transform="translate(-111.841 -111.82)" fill="#c7c7c7"/>
      <path id="Path_2405" data-name="Path 2405" d="M170.516,143.971a1.485,1.485,0,0,1-.7.9c-.158.091-.205-.119-.048-.205a1.036,1.036,0,0,0,.511-.688.759.759,0,0,0,0-.411.267.267,0,0,0-.1-.148h-.033a.21.21,0,0,0-.119,0,.478.478,0,0,0-.191.129.955.955,0,0,0-.162.229,1.053,1.053,0,0,0-.072.124v.029a.172.172,0,0,0,0,.043V144h-.239a1.571,1.571,0,0,1,.22-.425.908.908,0,0,1,.635-.425.373.373,0,0,1,.387.334A.912.912,0,0,1,170.516,143.971Z" transform="translate(-113.288 -111.783)" fill="#c7c7c7"/>
      <path id="Path_2406" data-name="Path 2406" d="M173.218,143.916a1.485,1.485,0,0,1-.7.9c-.162.091-.21-.119-.053-.205a1.108,1.108,0,0,0,.478-.564.537.537,0,0,1,.038-.124.807.807,0,0,0,0-.411.3.3,0,0,0-.1-.148h-.053a.258.258,0,0,0-.119,0,.478.478,0,0,0-.191.129.918.918,0,0,0-.162.229,1.046,1.046,0,0,0-.072.124v.029a.169.169,0,0,0,0,.043.1.1,0,0,0,0,.033H172a1.911,1.911,0,0,1,.22-.425.912.912,0,0,1,.64-.425.373.373,0,0,1,.387.339A1,1,0,0,1,173.218,143.916Z" transform="translate(-114.667 -111.757)" fill="#c7c7c7"/>
      <path id="Path_2407" data-name="Path 2407" d="M162.642,155.12c.8,1.868,2.894,4.232,3.019,5.731a1.743,1.743,0,0,1-1.036,1.791,2.572,2.572,0,0,1,1.352,2.183c-.062.716-1.251,1.247-1.251,1.247a2.063,2.063,0,0,1,.955,1.911c-.143.955-1.313,1.361-1.313,1.361a2.465,2.465,0,0,1,.325,2.125c-.955,1.91-9.39,1.586-10.575-1.576-.549-1.476,1.509-1.285,1.509-1.285s-2.894-.993-2.866-2.737,2.684-1.328,2.684-1.328-2.785-.979-2.57-2.794c.215-1.882,2.808-1.013,2.808-1.013s-1.829-1.347-1.356-2.694c.788-2.221,4.232.75,6.109.382l1.146-3.023Z" transform="translate(-104.616 -118.036)" fill="#ffc4c0"/>
      <path id="Path_2408" data-name="Path 2408" d="M173.751,153.346c-.6-1.834,1.724-3.979,1.4-5.813-.435-2.484-3.305-.181-4.06,3.372l-.105,2.866Z" transform="translate(-114.139 -113.53)" fill="#ffc4c0"/>
      <path id="Path_2409" data-name="Path 2409" d="M167.167,184.016a.024.024,0,1,1,0,.048,14.658,14.658,0,0,1-8.683-.865c-.086-.038-.057-.2.043-.172A29.923,29.923,0,0,0,167.167,184.016Z" transform="translate(-107.58 -132.613)" fill="#263238"/>
      <path id="Path_2410" data-name="Path 2410" d="M167.51,176.31c.033,0,.033.053,0,.057a13.751,13.751,0,0,1-9.414-1.528c-.1-.062-.129-.21,0-.153C160.073,175.694,164.778,176.434,167.51,176.31Z" transform="translate(-107.358 -128.25)" fill="#263238"/>
      <path id="Path_2411" data-name="Path 2411" d="M158.422,166.492a18.887,18.887,0,0,0,9.008,2.121c.038,0,.033.057,0,.067a12.365,12.365,0,0,1-5.139-.191,8.483,8.483,0,0,1-3.921-1.91C158.327,166.554,158.365,166.459,158.422,166.492Z" transform="translate(-107.537 -123.973)" fill="#263238"/>
      <path id="Path_2412" data-name="Path 2412" d="M92.241,115.315c.119.511,3.821,3.749,6.176,3.639.759-.033-.549-4.108-.549-4.108l.072-.306.955-4.3L93.856,107l-.731-.43s-.186,1.194-.4,2.679a.474.474,0,0,1-.033.21.812.812,0,0,0-.038.244c-.038.22-.072.449-.1.673s-.048.339-.067.521-.043.358-.067.54A28.033,28.033,0,0,0,92.241,115.315Z" transform="translate(-72.998 -92.675)" fill="#ffc4c0"/>
      <path id="Path_2413" data-name="Path 2413" d="M93.28,109.249a8.841,8.841,0,0,0,5.206,5.292l.955-4.3L94.4,107l-.731-.43S93.495,107.764,93.28,109.249Z" transform="translate(-73.545 -92.675)" fill="#263238"/>
      <path id="Path_2414" data-name="Path 2414" d="M105.009,91.939c-.578,7.7-5.254,8.229-6.921,8.12-1.5-.115-6.625-.7-6.849-8.42s3.544-9.892,7.007-9.81S105.583,84.23,105.009,91.939Z" transform="translate(-72.474 -79.749)" fill="#ffc4c0"/>
      <path id="Path_2415" data-name="Path 2415" d="M90.652,90c1.81.31,2.264-2.555,2.264-2.555s2.092.143,2.785-3.157a5.106,5.106,0,0,0,3.391,3.033c.578.181-1.156-1.672-1.156-1.672s2.025,2.536,6.567,2.436c.32,0,.411-4.776-2.789-6.916a7.454,7.454,0,0,0-8.96.081A4.251,4.251,0,0,0,90,84.149C89.329,86.537,89.945,89.881,90.652,90Z" transform="translate(-71.681 -78.646)" fill="#263238"/>
      <path id="Path_2416" data-name="Path 2416" d="M90.642,100.187s-1.29-2.651-2.465-2.235-.478,4.074.7,4.776a1.309,1.309,0,0,0,1.844-.416Z" transform="translate(-70.563 -88.15)" fill="#ffc4c0"/>
      <path id="Path_2417" data-name="Path 2417" d="M89.286,100.18s-.029,0,0,.033a3.291,3.291,0,0,1,1.352,2.316.716.716,0,0,0-1.032-.368c-.029,0,0,.053,0,.048a.812.812,0,0,1,.831.42,4,4,0,0,1,.3.774c.029.086.181.067.162-.029v-.024C91.111,102.224,90.485,100.5,89.286,100.18Z" transform="translate(-71.452 -89.337)" fill="#263238"/>
      <path id="Path_2418" data-name="Path 2418" d="M116.166,98.809a3.443,3.443,0,0,1-.478-.181.86.86,0,0,1-.478-.282.277.277,0,0,1,.048-.334.683.683,0,0,1,.688-.062,1,1,0,0,1,.573.439.291.291,0,0,1-.353.42Z" transform="translate(-84.983 -88.137)" fill="#263238"/>
      <path id="Path_2419" data-name="Path 2419" d="M106.592,97.43a4.948,4.948,0,0,0,.516-.033.865.865,0,0,0,.535-.139.277.277,0,0,0,.048-.334.683.683,0,0,0-.645-.253.989.989,0,0,0-.669.263.291.291,0,0,0,.215.5Z" transform="translate(-80.342 -87.499)" fill="#263238"/>
      <path id="Path_2420" data-name="Path 2420" d="M107.846,102.64c0-.024-.043,0-.048.038-.043.525-.182,1.118-.678,1.237v.029C107.707,103.929,107.889,103.141,107.846,102.64Z" transform="translate(-80.775 -90.617)" fill="#263238"/>
      <path id="Path_2421" data-name="Path 2421" d="M106.941,101.378c-.836-.162-1.1,1.514-.325,1.667S107.638,101.516,106.941,101.378Z" transform="translate(-80.271 -89.957)" fill="#263238"/>
      <path id="Path_2422" data-name="Path 2422" d="M105.983,101.256c-.162.072-.334.215-.511.205s-.334-.215-.439-.4H105c-.057.32,0,.669.353.769s.578-.153.707-.478C106.083,101.323,106.05,101.227,105.983,101.256Z" transform="translate(-79.657 -89.796)" fill="#263238"/>
      <path id="Path_2423" data-name="Path 2423" d="M114.436,103.52s.033.029.033.048c-.105.521-.134,1.127.306,1.376v.029C114.206,104.8,114.254,103.988,114.436,103.52Z" transform="translate(-84.532 -91.081)" fill="#263238"/>
      <path id="Path_2424" data-name="Path 2424" d="M115.024,102.538c.845.076.63,1.762-.153,1.691S114.312,102.476,115.024,102.538Z" transform="translate(-84.566 -90.568)" fill="#263238"/>
      <path id="Path_2425" data-name="Path 2425" d="M116.332,102.859c.124.105.234.282.392.315s.344-.134.478-.291h0c-.033.325-.182.65-.478.669s-.478-.282-.478-.611C116.227,102.921,116.284,102.816,116.332,102.859Z" transform="translate(-85.54 -90.731)" fill="#263238"/>
      <path id="Path_2426" data-name="Path 2426" d="M107.215,111.424c.1.143.186.334.368.387a1.433,1.433,0,0,0,.583,0s.029,0,0,.033a.716.716,0,0,1-.712.143.559.559,0,0,1-.315-.54C107.158,111.405,107.2,111.4,107.215,111.424Z" transform="translate(-80.784 -95.203)" fill="#263238"/>
      <path id="Path_2427" data-name="Path 2427" d="M110.368,102.55a11.307,11.307,0,0,1-.062,1.161c0,.033-.1.038-.22,0a1.767,1.767,0,0,1-1.6-.9.038.038,0,0,1,.062-.043,2.655,2.655,0,0,0,1.528.688c.038-.1-.038-1.356,0-1.352a3.229,3.229,0,0,1,.8.306c.062-1.648-.143-3.3-.057-4.943a.048.048,0,0,1,.1,0,26.594,26.594,0,0,1,.291,5.325C111.218,103.018,110.506,102.631,110.368,102.55Z" transform="translate(-81.486 -87.895)" fill="#263238"/>
      <path id="Path_2428" data-name="Path 2428" d="M109.6,109.4a1.91,1.91,0,0,1-.817.506.845.845,0,0,1-.521,0c-.363-.138-.339-.478-.239-.769a2.058,2.058,0,0,1,.215-.43,2.45,2.45,0,0,0,1.361.693Z" transform="translate(-81.211 -93.793)" fill="#263238"/>
      <path id="Path_2429" data-name="Path 2429" d="M108.779,110.379a.845.845,0,0,1-.521,0c-.363-.139-.339-.478-.239-.769a.888.888,0,0,1,.759.769Z" transform="translate(-81.211 -94.263)" fill="#ff9cbd"/>
      <path id="Path_2430" data-name="Path 2430" d="M103.868,82.026a21.4,21.4,0,0,0-8.048.888c-2.221.955-6.161,4.151-6.362,4.3s-1.218-7.976,5.383-9.462C102.043,76.16,103.868,82.026,103.868,82.026Z" transform="translate(-71.457 -77.477)" fill="#464698"/>
      <path id="Path_2431" data-name="Path 2431" d="M90.44,87.951s4.365-5.731,6.792-7.074,7.857-2.059,11.215-.578c2.622,1.151-3.773,4.523-3.773,4.523a1.815,1.815,0,0,0-1.022-1.275c-1.633-.65-4.738-.148-6.51.444C94.915,84.751,90.44,87.951,90.44,87.951Z" transform="translate(-72.061 -78.522)" fill="#464698"/>
      <path id="Path_2432" data-name="Path 2432" d="M90.44,87.951s4.365-5.731,6.792-7.074,7.857-2.059,11.215-.578c2.622,1.151-3.773,4.523-3.773,4.523a1.815,1.815,0,0,0-1.022-1.275c-1.633-.65-4.738-.148-6.51.444C94.915,84.751,90.44,87.951,90.44,87.951Z" transform="translate(-72.061 -78.522)" opacity="0.2"/>
      <path id="Path_2433" data-name="Path 2433" d="M96.624,123.478l-1.041,3.53-4.638-3.9L89.88,124.6s4.776,6.448,4.776,6.133l1.122-3.062,2.216,1.848-.65-5.106Z" transform="translate(-71.769 -101.315)" fill="#464698"/>
      <path id="Path_2434" data-name="Path 2434" d="M98.1,128.42c-.139-.836-.248-1.686-.425-2.517a.029.029,0,0,0-.057,0,46.666,46.666,0,0,0,.516,4.814h0c-.1-.081-2.049-1.614-2.063-1.586-.258.478-1.084,2.727-1.137,2.928-.759-1.027-3.639-4.733-4.509-5.688a.029.029,0,1,0-.048.033c.688,1.094,4.509,6.094,4.557,6.075a32.819,32.819,0,0,0,1.17-3.238,21.872,21.872,0,0,0,2.326,1.968C98.374,130.344,98.231,129.279,98.1,128.42Z" transform="translate(-72.024 -102.76)" fill="#263238"/>
    </g>
  </g>
</svg>
