<svg xmlns="http://www.w3.org/2000/svg" width="184" height="72.792" viewBox="0 0 184 72.792">
  <g id="Group_367" data-name="Group 367" transform="translate(-61 -128)">
    <circle id="Ellipse_81" data-name="Ellipse 81" cx="11" cy="11" r="11" transform="translate(223 151)" fill="#f1f1f9"/>
    <path id="Path_842" data-name="Path 842" d="M213.383,363.331c2.282-4.183,7.75-6.832,12.223-4.444a8.091,8.091,0,0,1,4.122,5.222c.59,2.61-.653,5.1-1.935,7.291-.7,1.19-1.459,2.356-2.035,3.611a5.938,5.938,0,0,0-.574,4.216,5.488,5.488,0,0,0,2.528,2.882,18.84,18.84,0,0,0,3.885,1.735,22.866,22.866,0,0,0,8.673,1.122,23.722,23.722,0,0,0,4.322-.7c1.506-.384,2.985-.871,4.494-1.247,2.519-.626,5.392-.937,7.781.32,2.321,1.222,3.36,3.776,3.681,6.262a15.21,15.21,0,0,1-4.512,12.566,12.652,12.652,0,0,1-5.72,3.337c-1.885.455-4.306.426-5.806-.984-1.674-1.573-1.28-4.095.049-5.754,1.7-2.117,4.572-2.626,7.138-2.677,2.919-.059,5.834.376,8.751.106a13.443,13.443,0,0,0,4.138-1,10.488,10.488,0,0,0,3.119-2.11,13.7,13.7,0,0,0,3.619-6.5,20.7,20.7,0,0,0,0-8.9,40.145,40.145,0,0,0-1.16-4.465c-.195-.618-1.171-.354-.975.269,1.738,5.512,2.708,11.886-.651,17a10.125,10.125,0,0,1-6.055,4.358c-2.907.722-5.957.365-8.912.258-2.81-.1-5.9.008-8.3,1.645a6.193,6.193,0,0,0-2.761,6.306c.576,2.325,2.81,3.5,5.044,3.685a10.969,10.969,0,0,0,6.62-1.826,16.363,16.363,0,0,0,7.388-11.832,13.292,13.292,0,0,0-1.133-7.422,7.266,7.266,0,0,0-2.669-2.975,8.78,8.78,0,0,0-3.8-1.172c-3.023-.278-5.928.76-8.8,1.554a24.392,24.392,0,0,1-4.485.856,22.4,22.4,0,0,1-4.425-.072,21.791,21.791,0,0,1-4.288-.952,17.166,17.166,0,0,1-3.892-1.76,3.888,3.888,0,0,1-2.059-3.015,7.858,7.858,0,0,1,1.375-4.044c1.379-2.424,3.083-4.8,3.442-7.633a8.226,8.226,0,0,0-2.409-6.7,9.058,9.058,0,0,0-6.694-2.777,10.854,10.854,0,0,0-6.892,2.9,11.346,11.346,0,0,0-2.325,2.953c-.312.571.561,1.082.873.51Z" transform="translate(-143.442 -205.977)" fill="#e0e0fc"/>
    <text id="عن_التطبيق" data-name="عن التطبيق" transform="translate(180 167)" fill="#464698" font-size="25" font-family="HelveticaNeueLTArabic-Bold, Helvetica Neue LT Arabic" font-weight="700"><tspan x="-55.512" y="0">عن التطبيق</tspan></text>
    <circle id="Ellipse_72" data-name="Ellipse 72" cx="8" cy="8" r="8" transform="translate(61 149)" fill="#464698"/>
    <path id="Icon_ionic-ios-heart" data-name="Icon ionic-ios-heart" d="M7.479,3.937H7.465a1.536,1.536,0,0,0-1.282.7,1.536,1.536,0,0,0-1.282-.7H4.887A1.526,1.526,0,0,0,3.375,5.463,3.286,3.286,0,0,0,4.02,7.254,11.308,11.308,0,0,0,6.183,9.337,11.308,11.308,0,0,0,8.346,7.254a3.286,3.286,0,0,0,.645-1.791A1.526,1.526,0,0,0,7.479,3.937Z" transform="translate(62.625 150.063)" fill="#fff"/>
  </g>
</svg>
