<svg width="184" height="74" viewBox="0 0 184 74" fill="none" xmlns="http://www.w3.org/2000/svg">
<path d="M173 46C179.075 46 184 41.0751 184 35C184 28.9249 179.075 24 173 24C166.925 24 162 28.9249 162 35C162 41.0751 166.925 46 173 46Z" fill="#F1F1F9"/>
<path d="M8.94095 30.3539C11.223 26.1709 16.691 23.5219 21.164 25.9099C22.1819 26.4385 23.0759 27.1774 23.7865 28.0777C24.4972 28.978 25.0083 30.0191 25.286 31.132C25.876 33.742 24.633 36.2319 23.351 38.4229C22.651 39.6129 21.892 40.7789 21.316 42.0339C20.6104 43.3201 20.4059 44.8219 20.742 46.2499C21.2108 47.4833 22.1082 48.5064 23.27 49.132C24.4953 49.8551 25.7986 50.4372 27.155 50.8669C29.9468 51.7954 32.8917 52.1764 35.828 51.9889C37.2871 51.8893 38.7339 51.655 40.15 51.2889C41.656 50.9049 43.135 50.418 44.644 50.042C47.163 49.416 50.036 49.1049 52.425 50.3619C54.746 51.5839 55.785 54.138 56.106 56.624C56.3592 58.9237 56.0843 61.2509 55.3025 63.4285C54.5206 65.606 53.2522 67.5765 51.594 69.1899C50.0174 70.7904 48.0431 71.9422 45.874 72.5269C43.989 72.9819 41.568 72.9529 40.068 71.5429C38.394 69.9699 38.788 67.4479 40.117 65.7889C41.817 63.6719 44.689 63.1629 47.255 63.1119C50.174 63.0529 53.089 63.488 56.006 63.218C57.4296 63.1065 58.8265 62.769 60.144 62.218C61.3024 61.7086 62.3591 60.9937 63.2629 60.1079C65.0457 58.3166 66.2983 56.0669 66.882 53.6079C67.5273 50.6764 67.5273 47.6395 66.882 44.7079C66.5812 43.1986 66.1939 41.7078 65.722 40.2429C65.527 39.6249 64.551 39.889 64.747 40.512C66.485 46.024 67.455 52.398 64.096 57.512C62.7059 59.6823 60.5404 61.2409 58.041 61.8699C55.134 62.5919 52.084 62.235 49.129 62.128C46.319 62.028 43.229 62.1359 40.829 63.7729C39.7965 64.433 38.9831 65.3845 38.4916 66.507C38.0001 67.6295 37.8527 68.8726 38.068 70.0789C38.644 72.4039 40.878 73.5789 43.112 73.7639C45.4572 73.8795 47.7776 73.2395 49.732 71.938C51.7592 70.632 53.4727 68.8941 54.7499 66.8486C56.0271 64.8032 56.8365 62.5007 57.12 60.106C57.4634 57.5745 57.07 54.9977 55.9869 52.684C55.3929 51.4623 54.4682 50.4316 53.318 49.7089C52.1576 49.0328 50.8576 48.6319 49.518 48.537C46.495 48.259 43.59 49.2969 40.718 50.0909C39.253 50.5159 37.7514 50.8025 36.233 50.947C34.7592 51.0691 33.277 51.0449 31.808 50.8749C30.3502 50.7028 28.9136 50.3839 27.52 49.9229C26.1544 49.5006 24.847 48.9094 23.628 48.163C23.0642 47.8674 22.5816 47.4379 22.2226 46.9122C21.8635 46.3865 21.6391 45.7807 21.569 45.1479C21.6451 43.6988 22.121 42.2991 22.944 41.1039C24.323 38.6799 26.027 36.3039 26.386 33.4709C26.5119 32.245 26.3609 31.0065 25.9439 29.8468C25.5269 28.6871 24.8547 27.6359 23.977 26.7709C23.1124 25.8722 22.0717 25.1617 20.9198 24.6838C19.7679 24.206 18.5298 23.9711 17.283 23.994C14.7147 24.1138 12.2723 25.1415 10.391 26.8939C9.45717 27.7422 8.6714 28.7402 8.06595 29.8469C7.75395 30.4179 8.62695 30.929 8.93895 30.357L8.94095 30.3539Z" fill="#E0E0FC"/>
<path d="M80.575 39C80.4583 40.0167 80.1833 40.8917 79.75 41.625C79.3167 42.3583 78.75 42.9667 78.05 43.45C77.35 43.9333 76.5167 44.2917 75.55 44.525C74.6 44.7583 73.5333 44.875 72.35 44.875C70.8 44.875 69.4917 44.7167 68.425 44.4C67.3583 44.1 66.5 43.675 65.85 43.125C65.2 42.5917 64.725 41.95 64.425 41.2C64.1417 40.4667 64 39.6583 64 38.775V35.05H66.025V38.325C66.025 39.8083 66.5417 40.925 67.575 41.675C68.625 42.4417 70.2167 42.825 72.35 42.825C73.15 42.825 73.925 42.7583 74.675 42.625C75.425 42.5083 76.0833 42.3 76.65 42C77.2333 41.7 77.6917 41.3083 78.025 40.825C78.375 40.3417 78.55 39.7333 78.55 39H75.725C75.0417 39 74.4083 38.925 73.825 38.775C73.2583 38.625 72.7583 38.3833 72.325 38.05C71.9083 37.7 71.575 37.25 71.325 36.7C71.0917 36.15 70.975 35.4667 70.975 34.65C70.975 33.9667 71.0833 33.3 71.3 32.65C71.5333 32 71.8583 31.425 72.275 30.925C72.7083 30.425 73.225 30.025 73.825 29.725C74.4417 29.4083 75.1417 29.25 75.925 29.25C76.7917 29.25 77.525 29.4083 78.125 29.725C78.725 30.025 79.2083 30.4583 79.575 31.025C79.9583 31.5917 80.2333 32.275 80.4 33.075C80.5667 33.875 80.65 34.7667 80.65 35.75V36.925H82.575C83.2417 36.925 83.575 37.2583 83.575 37.925C83.575 38.3417 83.4917 38.625 83.325 38.775C83.175 38.925 82.925 39 82.575 39H80.575ZM72.975 34.45C72.975 35.3 73.2167 35.925 73.7 36.325C74.2 36.725 74.925 36.925 75.875 36.925H78.55V35.275C78.55 34.0417 78.3417 33.0583 77.925 32.325C77.5083 31.5917 76.7917 31.225 75.775 31.225C75.2917 31.225 74.875 31.325 74.525 31.525C74.175 31.7083 73.8833 31.9583 73.65 32.275C73.4333 32.575 73.2667 32.9167 73.15 33.3C73.0333 33.6833 72.975 34.0667 72.975 34.45ZM73.175 25.175C73.175 24.8083 73.3 24.5 73.55 24.25C73.8167 23.9833 74.1333 23.85 74.5 23.85C74.8667 23.85 75.175 23.9833 75.425 24.25C75.6917 24.5 75.825 24.8083 75.825 25.175C75.825 25.5417 75.6917 25.8583 75.425 26.125C75.175 26.375 74.8667 26.5 74.5 26.5C74.1333 26.5 73.8167 26.375 73.55 26.125C73.3 25.8583 73.175 25.5417 73.175 25.175ZM76.425 25.175C76.425 24.8083 76.55 24.5 76.8 24.25C77.0667 23.9833 77.3833 23.85 77.75 23.85C78.1167 23.85 78.425 23.9833 78.675 24.25C78.9417 24.5 79.075 24.8083 79.075 25.175C79.075 25.5417 78.9417 25.8583 78.675 26.125C78.425 26.375 78.1167 26.5 77.75 26.5C77.3833 26.5 77.0667 26.375 76.8 26.125C76.55 25.8583 76.425 25.5417 76.425 25.175ZM82.5791 39C81.9124 39 81.5791 38.6667 81.5791 38C81.5791 37.5833 81.6624 37.3 81.8291 37.15C81.9791 37 82.2291 36.925 82.5791 36.925H84.2541C84.6541 36.925 84.9958 36.9083 85.2791 36.875C85.5624 36.8417 85.7958 36.7667 85.9791 36.65C86.1791 36.5167 86.3208 36.3333 86.4041 36.1C86.5041 35.85 86.5541 35.5167 86.5541 35.1V29.375H88.6041V34.175C88.6041 34.5917 88.6291 34.975 88.6791 35.325C88.7458 35.6583 88.8624 35.9417 89.0291 36.175C89.1958 36.4083 89.4208 36.5917 89.7041 36.725C89.9874 36.8583 90.3458 36.925 90.7791 36.925C91.4458 36.925 91.7791 37.2583 91.7791 37.925C91.7791 38.3417 91.6958 38.625 91.5291 38.775C91.3791 38.925 91.1291 39 90.7791 39C90.1291 39 89.6041 38.85 89.2041 38.55C88.8041 38.2333 88.5374 37.8417 88.4041 37.375C88.1041 38.0583 87.6291 38.5 86.9791 38.7C86.3458 38.9 85.5624 39 84.6291 39H82.5791ZM84.5541 42.775C84.5541 42.4083 84.6791 42.0917 84.9291 41.825C85.1958 41.575 85.5124 41.45 85.8791 41.45C86.2458 41.45 86.5541 41.575 86.8041 41.825C87.0708 42.0917 87.2041 42.4083 87.2041 42.775C87.2041 43.1417 87.0708 43.45 86.8041 43.7C86.5541 43.9667 86.2458 44.1 85.8791 44.1C85.5124 44.1 85.1958 43.9667 84.9291 43.7C84.6791 43.45 84.5541 43.1417 84.5541 42.775ZM87.8041 42.775C87.8041 42.4083 87.9291 42.0917 88.1791 41.825C88.4458 41.575 88.7624 41.45 89.1291 41.45C89.4958 41.45 89.8041 41.575 90.0541 41.825C90.3208 42.0917 90.4541 42.4083 90.4541 42.775C90.4541 43.1417 90.3208 43.45 90.0541 43.7C89.8041 43.9667 89.4958 44.1 89.1291 44.1C88.7624 44.1 88.4458 43.9667 88.1791 43.7C87.9291 43.45 87.8041 43.1417 87.8041 42.775ZM90.7822 39C90.1156 39 89.7822 38.6667 89.7822 38C89.7822 37.5833 89.8656 37.3 90.0322 37.15C90.1822 37 90.4322 36.925 90.7822 36.925H92.4572C92.8572 36.925 93.1989 36.9083 93.4822 36.875C93.7656 36.8417 93.9989 36.7667 94.1822 36.65C94.3822 36.5167 94.5239 36.3333 94.6072 36.1C94.7072 35.85 94.7572 35.5167 94.7572 35.1V29.375H96.8072V34.175C96.8072 34.5917 96.8322 34.975 96.8822 35.325C96.9489 35.6583 97.0656 35.9417 97.2322 36.175C97.3989 36.4083 97.6239 36.5917 97.9072 36.725C98.1906 36.8583 98.5489 36.925 98.9822 36.925C99.6489 36.925 99.9822 37.2583 99.9822 37.925C99.9822 38.3417 99.8989 38.625 99.7322 38.775C99.5822 38.925 99.3322 39 98.9822 39C98.3322 39 97.8072 38.85 97.4072 38.55C97.0072 38.2333 96.7406 37.8417 96.6072 37.375C96.3072 38.0583 95.8322 38.5 95.1822 38.7C94.5489 38.9 93.7656 39 92.8322 39H90.7822ZM94.0072 42.725C94.0072 42.3583 94.1322 42.0417 94.3822 41.775C94.6489 41.525 94.9656 41.4 95.3322 41.4C95.6989 41.4 96.0072 41.525 96.2572 41.775C96.5239 42.0417 96.6572 42.3583 96.6572 42.725C96.6572 43.0917 96.5239 43.4 96.2572 43.65C96.0072 43.9167 95.6989 44.05 95.3322 44.05C94.9656 44.05 94.6489 43.9167 94.3822 43.65C94.1322 43.4 94.0072 43.0917 94.0072 42.725ZM98.9854 39C98.3187 39 97.9854 38.6667 97.9854 38C97.9854 37.5833 98.0687 37.3 98.2354 37.15C98.3854 37 98.6354 36.925 98.9854 36.925H101.81V21.15H103.86V33.375C104.71 31.9917 105.702 30.925 106.835 30.175C107.985 29.4083 109.319 29.025 110.835 29.025C112.452 29.025 113.71 29.5333 114.61 30.55C115.527 31.5667 115.985 32.975 115.985 34.775V36.925H117.885C118.552 36.925 118.885 37.2583 118.885 37.925C118.885 38.3417 118.802 38.625 118.635 38.775C118.485 38.925 118.235 39 117.885 39H98.9854ZM113.935 36.925V35.25C113.935 34.6833 113.877 34.15 113.76 33.65C113.644 33.1333 113.444 32.6917 113.16 32.325C112.877 31.9583 112.502 31.6667 112.035 31.45C111.585 31.2333 111.027 31.125 110.36 31.125C109.56 31.125 108.819 31.3083 108.135 31.675C107.452 32.0417 106.835 32.5083 106.285 33.075C105.735 33.625 105.252 34.2417 104.835 34.925C104.435 35.6083 104.11 36.275 103.86 36.925H113.935ZM117.882 39C117.215 39 116.882 38.6667 116.882 38C116.882 37.5833 116.965 37.3 117.132 37.15C117.282 37 117.532 36.925 117.882 36.925H119.557C119.957 36.925 120.299 36.9083 120.582 36.875C120.865 36.8417 121.099 36.7667 121.282 36.65C121.482 36.5167 121.624 36.3333 121.707 36.1C121.807 35.85 121.857 35.5167 121.857 35.1V29.375H123.907V34.175C123.907 34.5917 123.932 34.975 123.982 35.325C124.049 35.6583 124.165 35.9417 124.332 36.175C124.499 36.4083 124.724 36.5917 125.007 36.725C125.29 36.8583 125.649 36.925 126.082 36.925C126.749 36.925 127.082 37.2583 127.082 37.925C127.082 38.3417 126.999 38.625 126.832 38.775C126.682 38.925 126.432 39 126.082 39C125.432 39 124.907 38.85 124.507 38.55C124.107 38.2333 123.84 37.8417 123.707 37.375C123.407 38.0583 122.932 38.5 122.282 38.7C121.649 38.9 120.865 39 119.932 39H117.882ZM119.857 25.175C119.857 24.8083 119.982 24.5 120.232 24.25C120.499 23.9833 120.815 23.85 121.182 23.85C121.549 23.85 121.857 23.9833 122.107 24.25C122.374 24.5 122.507 24.8083 122.507 25.175C122.507 25.5417 122.374 25.8583 122.107 26.125C121.857 26.375 121.549 26.5 121.182 26.5C120.815 26.5 120.499 26.375 120.232 26.125C119.982 25.8583 119.857 25.5417 119.857 25.175ZM123.107 25.175C123.107 24.8083 123.232 24.5 123.482 24.25C123.749 23.9833 124.065 23.85 124.432 23.85C124.799 23.85 125.107 23.9833 125.357 24.25C125.624 24.5 125.757 24.8083 125.757 25.175C125.757 25.5417 125.624 25.8583 125.357 26.125C125.107 26.375 124.799 26.5 124.432 26.5C124.065 26.5 123.749 26.375 123.482 26.125C123.232 25.8583 123.107 25.5417 123.107 25.175ZM126.085 39C125.418 39 125.085 38.6667 125.085 38C125.085 37.5833 125.168 37.3 125.335 37.15C125.485 37 125.735 36.925 126.085 36.925H129.985V21.15H132.035V39H126.085ZM137.575 21.15V39H135.525V21.15H137.575ZM162.175 39C161.592 39 161.125 38.8833 160.775 38.65C160.442 38.4 160.184 38.1083 160 37.775V38.7C160 39.8 159.842 40.7417 159.525 41.525C159.225 42.3083 158.784 42.95 158.2 43.45C157.617 43.95 156.9 44.3167 156.05 44.55C155.2 44.7833 154.234 44.9 153.15 44.9C150.867 44.9 149.15 44.3833 148 43.35C146.85 42.3167 146.275 40.8333 146.275 38.9V35.05H148.3V38.475C148.3 40.0917 148.709 41.225 149.525 41.875C150.359 42.525 151.584 42.85 153.2 42.85C154.034 42.85 154.75 42.7833 155.35 42.65C155.95 42.5333 156.442 42.3167 156.825 42C157.225 41.7 157.517 41.275 157.7 40.725C157.884 40.1917 157.975 39.5083 157.975 38.675V32.25H160V34.175C160 34.5917 160.025 34.975 160.075 35.325C160.125 35.6583 160.225 35.9417 160.375 36.175C160.542 36.4083 160.767 36.5917 161.05 36.725C161.334 36.8583 161.709 36.925 162.175 36.925C162.842 36.925 163.175 37.2583 163.175 37.925C163.175 38.3417 163.092 38.625 162.925 38.775C162.775 38.925 162.525 39 162.175 39ZM152.025 30.075C152.025 29.7083 152.15 29.4 152.4 29.15C152.667 28.8833 152.984 28.75 153.35 28.75C153.717 28.75 154.025 28.8833 154.275 29.15C154.542 29.4 154.675 29.7083 154.675 30.075C154.675 30.4417 154.542 30.7583 154.275 31.025C154.025 31.275 153.717 31.4 153.35 31.4C152.984 31.4 152.667 31.275 152.4 31.025C152.15 30.7583 152.025 30.4417 152.025 30.075ZM162.169 39C161.502 39 161.169 38.6667 161.169 38C161.169 37.5833 161.252 37.3 161.419 37.15C161.569 37 161.819 36.925 162.169 36.925H165.244C164.944 36.6083 164.694 36.2 164.494 35.7C164.294 35.2 164.194 34.6333 164.194 34C164.194 33.1333 164.352 32.3833 164.669 31.75C165.002 31.1167 165.427 30.5917 165.944 30.175C166.477 29.7583 167.061 29.45 167.694 29.25C168.344 29.05 168.994 28.95 169.644 28.95C170.227 28.95 170.736 28.9833 171.169 29.05C171.602 29.1167 171.911 29.1917 172.094 29.275V31.5C171.777 31.4 171.436 31.3167 171.069 31.25C170.702 31.1667 170.252 31.125 169.719 31.125C168.669 31.125 167.836 31.3833 167.219 31.9C166.602 32.4167 166.294 33.125 166.294 34.025C166.294 34.875 166.561 35.575 167.094 36.125C167.627 36.6583 168.436 36.925 169.519 36.925H173.169V39H162.169Z" fill="#464698"/>
<path d="M8 38C12.4183 38 16 34.4183 16 30C16 25.5817 12.4183 22 8 22C3.58172 22 0 25.5817 0 30C0 34.4183 3.58172 38 8 38Z" fill="#464698"/>
<path d="M9.104 27H9.09C8.835 27.0011 8.58428 27.0657 8.36047 27.1879C8.13665 27.3101 7.94679 27.4861 7.808 27.7C7.66921 27.4861 7.47934 27.3101 7.25553 27.1879C7.03172 27.0657 6.781 27.0011 6.526 27H6.512C6.10971 27.0037 5.72515 27.1661 5.44199 27.4519C5.15883 27.7377 4.99998 28.1237 5 28.526C5.03358 29.1736 5.258 29.7967 5.645 30.317C6.27019 31.1044 6.9976 31.8049 7.808 32.4C8.6184 31.8049 9.34581 31.1044 9.971 30.317C10.358 29.7967 10.5824 29.1736 10.616 28.526C10.616 28.1237 10.4572 27.7377 10.174 27.4519C9.89085 27.1661 9.50629 27.0037 9.104 27Z" fill="white"/>
</svg>
