<svg xmlns="http://www.w3.org/2000/svg" width="162.76" height="349.999" viewBox="0 0 162.76 349.999">
  <g id="إضافة_سلعة" data-name="إضافة سلعة" transform="translate(-47.047 -94.169)">
    <g id="freepik--Character--inject-20" transform="translate(47.047 94.169)">
      <path id="Path_1849" data-name="Path 1849" d="M101.8,123.023c-3.5,8.865-9.192,18.921-8.3,28.767.711,7.692,5.461,14.364,10.989,19.489,12.162,11.268,31.949,18.97,46.881,8.192,5.951-4.317,10.7-15.922,5.538-22.537-2.654-3.384-6.548-5.3-10.047-7.692a17.412,17.412,0,0,1-8.047-12.778c-1.433-10.816,1.808-17.306,4.355-27.565a7.576,7.576,0,0,0-.635-6.076,13.461,13.461,0,0,0-4.807-5.326,13.46,13.46,0,0,0-5.721-3.086c-4.586-1.048-10.23,1.577-14.528,2.942s-6.865,3.529-8.653,7.788C106.419,111.082,104.159,117.081,101.8,123.023Z" transform="translate(-63.72 -94.169)" fill="#263238"/>
      <path id="Path_1850" data-name="Path 1850" d="M99.135,127.252c3.721-7.922,7.605-15.758,11.432-23.633,0-.048.106,0,.077,0-2.961,6.567-5.826,13.172-8.884,19.7s-6.5,12.778-8.922,19.412c-5.423,14.9,7.9,26.305,20.912,29.949.6.163.269,1.086-.327.9-11.316-3.529-23.392-11.912-22.6-25.315C91.251,140.972,96.087,133.732,99.135,127.252Z" transform="translate(-63.619 -94.533)" fill="#263238"/>
      <path id="Path_1851" data-name="Path 1851" d="M144.513,108.447a.128.128,0,0,1,.24.087c-2.452,8.374-6.1,17.922-3.846,26.719a22.2,22.2,0,0,0,6.826,11.22c2.663,2.327,5.913,3.557,8.932,5.307,11.816,6.836,6.076,23.979-5.423,27.488-.24.077-.375-.337-.135-.423,8.249-2.932,13.6-11.586,10.682-20.287-2.336-6.98-11.086-8.019-15.845-12.989C136.091,135.223,140.148,120.34,144.513,108.447Z" transform="translate(-65.51 -94.716)" fill="#263238"/>
      <path id="Path_1852" data-name="Path 1852" d="M186.3,448.193c-2.221.711-65.658-.106-68.052-1.673-.961-.577-1.452-62.37-1.452-62.37l42.439.433-1.606,41.343S181.775,437.1,184.227,439.1,188.534,447.462,186.3,448.193Z" transform="translate(-64.622 -105.346)" fill="#ffc4c0"/>
      <path id="Path_1853" data-name="Path 1853" d="M169.259,432.094c-.173-.048-.26-.1-.269-.144Z" transform="translate(-66.633 -107.188)" fill="#464698"/>
      <path id="Path_1854" data-name="Path 1854" d="M186.33,450c-2.221.711-65.658-.106-68.052-1.673-.317-.2-.587-7.692-.808-17.306,9.288,3.288,46.544,11,54.226,10.4,6.913-.538.654-6.105-1.125-7.576,6.182,2.961,12.5,6.105,13.682,7.076C186.685,442.884,188.56,449.268,186.33,450Z" transform="translate(-64.648 -107.152)" fill="#263238"/>
      <path id="Path_1855" data-name="Path 1855" d="M103.26,194.089s9.528,107.193,11.076,115.375c.356,1.865.586,12,.731,25,.327,28.421.135,79.666.135,79.666h44.717s-1.327-88.8-3.307-105.135S141.978,194.07,141.978,194.07Z" transform="translate(-64.1 -98.02)" fill="#455a64"/>
      <path id="Path_1856" data-name="Path 1856" d="M158.435,414.857c-6.971-.144-4.971-.2-11.951-.269-3.413,0-25.854-.231-29.046.3-.067,0-.067.135,0,.144,3.192.529,25.632.327,29.046.3,6.98-.067,4.98-.125,11.951-.269a.106.106,0,0,0,0-.2Z" transform="translate(-64.644 -106.517)" fill="#263238"/>
      <path id="Path_1857" data-name="Path 1857" d="M123.918,355.8l-.144-19.46c0-6.278,0-12.566-.337-18.845-.606-12.72-3.182-25.219-5.009-37.718s-3.365-25.19-4.75-37.814c-1.558-14.162-2.884-28.353-4.384-42.535,0-.1-.163-.087-.154,0,2.106,25.315,4.461,50.621,7.961,75.782q1.308,9.393,2.884,18.739c1.048,6.317,2.086,12.624,2.586,19.008s.567,12.5.625,18.777q.1,9.72.192,19.45c.144,14.422.279,36.535.423,50.957a.221.221,0,0,0,.433,0C124.119,389.248,124.014,368.644,123.918,355.8Z" transform="translate(-64.326 -98.223)" fill="#263238"/>
      <path id="Path_1858" data-name="Path 1858" d="M93.45,194.088s18.96,107.193,20.508,115.375c.356,1.865.586,12,.731,25h0l21.306-140.43Z" transform="translate(-63.722 -98.018)" fill="#263238"/>
      <path id="Path_1859" data-name="Path 1859" d="M130.7,455.353c-2.288.51-65.379-6.249-67.6-8.028-.865-.663,4.384-62.235,4.384-62.235l42.218,4.394-5.471,41.006s22.988,13.384,25.248,15.6S132.975,454.853,130.7,455.353Z" transform="translate(-62.548 -105.382)" fill="#ffc4c0"/>
      <path id="Path_1860" data-name="Path 1860" d="M115.4,437.733c-.154-.067-.24-.125-.24-.173Z" transform="translate(-64.558 -107.404)" fill="#464698"/>
      <path id="Path_1861" data-name="Path 1861" d="M130.7,457.109c-2.288.51-65.379-6.249-67.6-8.028-.308-.24.163-8.249.9-18.45,9.874,4.384,44.785,15.2,52.332,15.383,5.221.106,3.279-3.365,1.308-5.769,5.49,3.317,10.807,6.624,11.836,7.692C131.706,450.061,132.975,456.609,130.7,457.109Z" transform="translate(-62.548 -107.137)" fill="#263238"/>
      <path id="Path_1862" data-name="Path 1862" d="M107.209,416.559,62.53,414.636s12.191-98.069,12.422-104.059c.337-8.961,4.634-45.929,8.24-75.869,0,0-6.846-16.2,5.961-40.689h51.342s-3.442,23.3-9.336,38.074a67.961,67.961,0,0,0-11.451,5.24s-5.115,66.744-5.307,75.061C114.016,328.855,107.209,416.559,107.209,416.559Z" transform="translate(-62.53 -98.018)" fill="#455a64"/>
      <path id="Path_1863" data-name="Path 1863" d="M106.066,416.927c-6.961-.442-4.961-.413-11.932-.779-3.413-.173-25.825-1.327-29.036-.961-.067,0-.067.135,0,.144,3.163.663,25.594,1.423,29.007,1.529,6.971.231,4.971.086,11.951.24a.106.106,0,0,0,.01-.173Z" transform="translate(-62.627 -106.539)" fill="#263238"/>
      <path id="Path_1864" data-name="Path 1864" d="M135.351,232.59a84.81,84.81,0,0,0-13.364,6.23.148.148,0,1,0,.125.269c4.5-1.923,9.086-3.779,13.46-5.961a.3.3,0,0,0-.221-.538Z" transform="translate(-64.818 -99.504)" fill="#263238"/>
      <path id="Path_1865" data-name="Path 1865" d="M137.012,200.465c0-.163-.288-.192-.288,0,0,5.346-.308,10.047-.75,15.047-.212,2.317-2.077,15.133-6.1,14.2-.673-.163-1.019-.827-1.125-1.836a16.19,16.19,0,0,1,.529-3.932c.452-2.682.808-5.375,1.038-8.086a73.226,73.226,0,0,0-.163-15.153.135.135,0,0,0-.26,0,138.55,138.55,0,0,1-1.221,20.931c-.51,3.327-2.183,8.345,1.3,8.865s5.855-7.884,6.288-10.182A77.427,77.427,0,0,0,137.012,200.465Z" transform="translate(-65.047 -98.261)" fill="#263238"/>
      <path id="Path_1866" data-name="Path 1866" d="M130.019,231.2a20.19,20.19,0,0,0-.9,2.663,5.864,5.864,0,0,0-.375,2.182c0,.135.2.154.269.058a7.548,7.548,0,0,0,.961-2.125c.3-.817.625-1.634.9-2.471a.455.455,0,0,0-.856-.308Z" transform="translate(-65.082 -99.439)" fill="#263238"/>
      <path id="Path_1867" data-name="Path 1867" d="M71.08,400.6l2.634-25.623,2.731-25.613,5.6-51.217,5.769-51.188.731-6.394.346-3.182.087-.788a2.768,2.768,0,0,0-.125-.711l-.423-1.548a40.006,40.006,0,0,1-1.077-6.384,45.43,45.43,0,0,1-.067-6.471,60.37,60.37,0,0,1,2.259-12.691,91.426,91.426,0,0,1,4.5-12.066,89.49,89.49,0,0,0-4.269,12.134,60.062,60.062,0,0,0-2.019,12.653,45.775,45.775,0,0,0,.135,6.394,39.593,39.593,0,0,0,1.183,6.269l.442,1.558a3.076,3.076,0,0,1,.144.865l-.067.817-.317,3.221-.663,6.4L83.05,298.25l-5.826,51.188-3.048,25.584Z" transform="translate(-62.86 -98.122)" fill="#263238"/>
      <path id="Path_1868" data-name="Path 1868" d="M124.4,144.149c6.144,8.134,22.8,31.526,34.786,30.767,10.259-.692,30.815-8.547,35.189-10.211,3.4-1.288-7.153-24.431-11.961-22.7-7.644,2.731-15.383,9.047-23.421,10.163-3.3.462-10.576-6.586-28.93-14.422C122.976,134.679,120.092,138.458,124.4,144.149Z" transform="translate(-64.837 -95.807)" fill="#ffc4c0"/>
      <path id="Path_1869" data-name="Path 1869" d="M197.326,133.943c3.99-.74,8.509-1.923,12.71-1.192s6.817,6.836,6.567,8.422-3.375,11.259-7.586,10.576-.481-7.874-.5-8.778,0-2.038-.817-2.077-15.7,4.365-15.7,4.365Z" transform="translate(-67.52 -95.647)" fill="#ffc4c0"/>
      <path id="Path_1870" data-name="Path 1870" d="M197.654,134.518c.24,0,12.2-2.654,16.4-1.923s6.817,6.826,6.567,8.422-3.375,11.259-7.586,10.576-.481-7.884-.5-8.778,0-2.038-.817-2.086S196,145.152,196,145.152Z" transform="translate(-67.674 -95.645)" fill="#ffc4c0"/>
      <path id="Path_1871" data-name="Path 1871" d="M211.989,151.2a5.038,5.038,0,0,1-.308-2.6,8.8,8.8,0,0,1,.567-2.663,14.7,14.7,0,0,0,.875-2.231,4.807,4.807,0,0,0-.24-2.317c-.231-.635-.885-.529-1.442-.433a21.521,21.521,0,0,0-2.452.683c-.865.269-1.721.567-2.586.856a20.359,20.359,0,0,0-2.654.961c-.058,0,0,.135,0,.115a21.028,21.028,0,0,0,2.279-.625c.856-.25,1.721-.49,2.577-.721s1.606-.481,2.413-.683a2.433,2.433,0,0,1,1.163-.163c.308.125.337.961.375,1.2a4,4,0,0,1-.5,2.25,11.737,11.737,0,0,0-.8,2.24,6.4,6.4,0,0,0-.163,2.221,8.432,8.432,0,0,0,.721,1.923C211.893,151.35,212.037,151.283,211.989,151.2Z" transform="translate(-67.972 -95.97)" fill="#263238"/>
      <path id="Path_1872" data-name="Path 1872" d="M182.06,143.155s13.307-8.807,16.066-10.576c5.528-3.471,27.334-8.653,30.238-8.509s3.019,6.163-11.845,10.076c-7.826,2.067-9.788,6.057-10.009,8.413s1.317,7.028,5.25,7.538,7.365-4.807,11.057-4.894.3,6.153-2.836,9.567a24.277,24.277,0,0,1-11.816,6.576c-3.586.74-14.768,3.625-14.768,3.625Z" transform="translate(-67.137 -95.322)" fill="#ffc4c0"/>
      <path id="Path_1873" data-name="Path 1873" d="M218.028,148.539c-1.654.961-3.548,2.134-5.5,1.923s-3.125-1.74-3.8-3.519a7.509,7.509,0,0,1-.183-5.576,9.192,9.192,0,0,1,3.365-3.971,22.681,22.681,0,0,1,5.855-2.711c.087,0,0-.163-.058-.135-1.923.529-7.894,1.923-9.778,6.73a7.634,7.634,0,0,0,.231,5.682c.625,1.7,1.654,3.394,3.529,3.846,2.279.548,4.567-1.019,6.442-2.163C218.22,148.558,218.114,148.491,218.028,148.539Z" transform="translate(-68.117 -95.725)" fill="#263238"/>
      <path id="Path_1874" data-name="Path 1874" d="M177.237,143.362l9.73,27.257s-21.873,6.971-31.632,5-24.594-22.238-31.1-30.959-.567-10.98,10.5-5.538,22.95,12.412,23.96,12.412S177.237,143.362,177.237,143.362Z" transform="translate(-64.804 -95.788)" fill="#464698"/>
      <path id="Path_1875" data-name="Path 1875" d="M133.972,149.338a.827.827,0,1,1-.827-.817.817.817,0,0,1,.827.817Zm12.259-.817a.827.827,0,1,0,.827.817.817.817,0,0,0-.827-.817Zm26.161,0a.827.827,0,1,0,.827.817.817.817,0,0,0-.827-.817Zm-45.785-9.7a.827.827,0,1,0,.827.827A.827.827,0,0,0,126.607,138.82Zm19.623,29.267a.827.827,0,1,0,.827.827A.827.827,0,0,0,146.23,168.087Zm13.076,0a.827.827,0,1,0,.827.827A.836.836,0,0,0,159.306,168.087Zm13.085,0a.827.827,0,1,0,.827.827A.827.827,0,0,0,172.391,168.087Zm13.076,0a.827.827,0,1,0,.827.827.836.836,0,0,0-.827-.827ZM139.692,158.4a.827.827,0,1,0,.817.827.817.817,0,0,0-.817-.827Zm13.076,0a.827.827,0,1,0,.827.827.827.827,0,0,0-.827-.827Zm13.085,0a.827.827,0,1,0,.817.827.817.817,0,0,0-.817-.827Zm13.076,0a.827.827,0,1,0,.827.827.827.827,0,0,0-.827-.827Z" transform="translate(-64.968 -95.89)" fill="#fff"/>
      <path id="Path_1876" data-name="Path 1876" d="M174.51,146.717a30.17,30.17,0,0,0,.885,3.288c.308,1.086.6,2.183.961,3.269q.961,3.144,2.009,6.24a129.9,129.9,0,0,0,4.73,12.278.078.078,0,1,0,.144-.058c-1.346-4.24-2.884-8.413-4.336-12.624-.711-2.067-1.413-4.144-2.115-6.211-.356-1.038-.731-2.067-1.077-3.105a31.272,31.272,0,0,0-1.067-3.115A.075.075,0,0,0,174.51,146.717Z" transform="translate(-66.846 -96.192)" fill="#263238"/>
      <path id="Path_1877" data-name="Path 1877" d="M167.28,175.363h-.154l-.875.125-.423.058-.961.115-.606.067-.961.1h-.077l-.894.067c-.615,0-1.211.077-1.8.1h-.1a25.183,25.183,0,0,1-4.1-.183,5.413,5.413,0,0,1-.961-.154c-9.749-1.971-24.594-22.277-31.1-31.017a20.791,20.791,0,0,1-1.683-2.606c-.125-.221-.221-.423-.317-.625a10.259,10.259,0,0,1-.4-1.029,1.986,1.986,0,0,1-.1-.317,2.7,2.7,0,0,1-.077-.3,1.7,1.7,0,0,1-.058-.288v-.548h0a2.317,2.317,0,0,1,.961-2.154Z" transform="translate(-64.808 -95.811)" opacity="0.1"/>
      <path id="Path_1878" data-name="Path 1878" d="M143.075,199.328l-58.745,1.49s15.037-48,27.142-60.928c5.509-5.894,10.893-4.99,15.46-1.2,1.135.961,15.258,18.864,16.451,25.1,1.058,5.519-3.432,11.643-3.432,11.643Z" transform="translate(-63.37 -95.768)" fill="#464698"/>
      <path id="Path_1879" data-name="Path 1879" d="M142.291,156.757c-.846-1.279-1.721-2.557-2.615-3.788-.144-.442-.327-.865-.49-1.3a16.257,16.257,0,0,0-.961-1.827,13.868,13.868,0,0,0,.683,1.923l.231.519q-1.356-1.836-2.8-3.6c1.769,2.827,3.692,5.548,5.471,8.345a38.281,38.281,0,0,1,2.481,4.3,11.534,11.534,0,0,1,.606,1.471,11.97,11.97,0,0,1-.356,7.778,26.3,26.3,0,0,1-1.5,3.913.087.087,0,0,0,.144.077,38.536,38.536,0,0,0,1.8-3.952,13.355,13.355,0,0,0,.846-4.115C146.108,162.506,144.08,159.843,142.291,156.757Z" transform="translate(-65.375 -96.271)" fill="#263238"/>
      <path id="Path_1880" data-name="Path 1880" d="M106.241,149.337a.817.817,0,0,1-.827.827.788.788,0,0,1-.606-.279c.24-.462.49-.9.74-1.346a.808.808,0,0,1,.692.8Zm12.259-.817a.827.827,0,1,0,.827.817.817.817,0,0,0-.827-.817Zm13.076,0a.827.827,0,1,0,.827.817.817.817,0,0,0-.827-.817ZM112.5,138.992a12.966,12.966,0,0,0-.961.961l-.154.173h0a.788.788,0,0,0,.615.279.827.827,0,0,0,.827-.827A.837.837,0,0,0,112.5,138.992Zm12.5-.2a.827.827,0,1,0,.827.827A.827.827,0,0,0,125,138.79Zm-19.623,29.267a3.96,3.96,0,1,0,.038.029Zm13.085,0a3.964,3.964,0,1,0,.038.029Zm13.076,0a3.96,3.96,0,1,0,.038.029Zm-19.614-9.663a.827.827,0,1,0,.827.827A.827.827,0,0,0,111.924,158.394Zm13.076,0a.808.808,0,1,0,.038,0Zm13.085,0a.827.827,0,1,0,.817.827.817.817,0,0,0-.779-.827ZM92.339,187.661a.827.827,0,1,0,.827.827A.827.827,0,0,0,92.339,187.661Zm13.076,0a.827.827,0,1,0,.827.827.817.817,0,0,0-.827-.827Zm13.085,0a.827.827,0,1,0,.827.827.827.827,0,0,0-.827-.827Zm13.076,0a.827.827,0,1,0,.827.827.817.817,0,0,0-.827-.827Zm-32.69-9.691a.832.832,0,1,1-.01,0Zm13.085,0a.827.827,0,1,0,.827.817.817.817,0,0,0-.875-.817Zm13.076,0a.832.832,0,1,1-.01,0Zm13.085,0a.827.827,0,1,0,.817.817.817.817,0,0,0-.827-.817ZM85.8,197.535a.73.73,0,0,0-.375.1c-.135.4-.25.769-.356,1.106a.8.8,0,0,0,.731.452.827.827,0,1,0,0-1.654Zm13.076,0a.827.827,0,1,0,.827.827A.827.827,0,0,0,98.877,197.535Zm13.085,0a.878.878,0,1,1-.038,0Zm13.076,0a.827.827,0,1,0,.827.827A.827.827,0,0,0,125.038,197.535Zm13.085,0a.827.827,0,1,0,.817.827.827.827,0,0,0-.817-.827Z" transform="translate(-63.399 -95.889)" fill="#fff"/>
      <path id="Path_1881" data-name="Path 1881" d="M108.743,140.94C85.313,157.958,61.276,197.9,70,203.665c7.932,5.269,35.853,6.913,47.563,6.317,3.442-.183,2.423-26.844-1.26-26.661-4.442.221-16.527-.317-16.96-.433-.961-.24,14.422-26.921,19.623-37.314C126.242,131.172,117.531,134.546,108.743,140.94Z" transform="translate(-62.747 -95.76)" fill="#ffc4c0"/>
      <path id="Path_1882" data-name="Path 1882" d="M115.986,185.361s10.374-.913,17.181-1.192c3.846-.163,10.336.154,13.182,1.317,4.259,1.74,20.941,11.72,18.6,15.816-2.115,3.711-15.383-6.73-15.383-6.73s14.287,9.317,10.922,13.316-16.758-9.74-16.758-9.74,14.422,9.893,10.345,13.46c-3.115,2.7-15.96-9.057-15.96-9.057s12.384,8.6,9.3,11.537c-3.4,3.221-15.941-6.884-15.941-6.884-9.086,6.086-15.9,5.269-20.681,4.115C109.67,211.051,115.986,185.361,115.986,185.361Z" transform="translate(-64.385 -97.636)" fill="#ffc4c0"/>
      <path id="Path_1883" data-name="Path 1883" d="M146.227,191.36c1.721,1.029,3.471,2.067,5.086,3.24s3.2,2.423,4.7,3.75a34.2,34.2,0,0,1,5.365,5.769c-3.048-3.538-8.788-7.865-10.4-9.038s-3.173-2.442-4.807-3.625C146.141,191.389,146.189,191.331,146.227,191.36Z" transform="translate(-65.753 -97.915)" fill="#263238"/>
      <path id="Path_1884" data-name="Path 1884" d="M141.678,197.36c2.144,1.413,4.317,2.74,6.384,4.25s3.894,3.105,5.855,4.75c.144.125,0,.163-.125,0-2.019-1.558-4.009-2.884-6.048-4.384s-4.019-3.154-6.105-4.605C141.611,197.389,141.649,197.341,141.678,197.36Z" transform="translate(-65.579 -98.146)" fill="#263238"/>
      <path id="Path_1885" data-name="Path 1885" d="M136.846,201.81a57.171,57.171,0,0,1,9.268,7.249c.144.125,0,.163-.173,0-3.029-2.471-5.394-4.423-9.163-7.172C136.721,201.887,136.779,201.771,136.846,201.81Z" transform="translate(-65.391 -98.318)" fill="#263238"/>
      <path id="Path_1886" data-name="Path 1886" d="M100.461,182.226c-1.134-1.394,14.528-26.305,19.71-38.006s-.6-12.076-11.384-3.846c-11.537,8.788-31.843,29.2-39.929,52.592-2.529,7.307-5.048,12.393,12.393,15.3a201.511,201.511,0,0,0,30.661,2.942l1.288-28.19S100.788,182.63,100.461,182.226Z" transform="translate(-62.705 -95.733)" fill="#464698"/>
      <path id="Path_1887" data-name="Path 1887" d="M105.712,149.338a.827.827,0,1,1-.827-.817.817.817,0,0,1,.827.817Zm12.259-.817a.817.817,0,0,0-.827.817.8.8,0,0,0,.423.721c.26-.5.51-.961.75-1.461A.827.827,0,0,0,117.971,148.521Zm-6.576-9.7a.827.827,0,1,0,.827.827A.827.827,0,0,0,111.395,138.82ZM91.81,168.087a.827.827,0,1,0,.827.827A.836.836,0,0,0,91.81,168.087Zm13.076,0a.827.827,0,1,0,.827.827.827.827,0,0,0-.827-.827ZM98.348,158.4a.827.827,0,1,0,.827.827A.827.827,0,0,0,98.348,158.4Zm13.085,0a.827.827,0,1,0,.827.827A.827.827,0,0,0,111.433,158.4ZM78.705,187.662a.827.827,0,1,0,.827.827.817.817,0,0,0-.827-.827Zm13.085,0a.817.817,0,1,0,.019,0Zm13.076,0a.827.827,0,1,0,.827.827.817.817,0,0,0-.808-.827Zm-19.614-9.691a.827.827,0,1,0,.827.817.817.817,0,0,0-.808-.817Zm13.076,0a.817.817,0,1,0,.019,0ZM78.705,207.257a.808.808,0,0,0-.75.5c.5.115,1.029.221,1.577.327A.827.827,0,0,0,78.705,207.257Zm13.085,0a.827.827,0,1,0,.827.827.837.837,0,0,0-.808-.827Zm13.076,0a.817.817,0,1,0,.019,0Zm-32.69-9.691a.827.827,0,1,0,.827.827.827.827,0,0,0-.827-.827Zm13.085,0a.321.321,0,1,0,.01-.029Zm13.076,0a.827.827,0,1,0,.827.827.827.827,0,0,0-.827-.827Zm13.085,0a.78.78,0,1,0-.029-.029Z" transform="translate(-62.87 -95.89)" fill="#fff"/>
      <path id="Path_1888" data-name="Path 1888" d="M107.369,211.814c-.212-11.288,1.269-23.181,1.384-25.267a.077.077,0,0,1,.154,0c-.221,2.038-.442,15.816-1.365,25.267C107.533,211.977,107.369,211.92,107.369,211.814Z" transform="translate(-64.257 -97.727)" fill="#263238"/>
      <path id="Path_1889" data-name="Path 1889" d="M87.639,182.849a23.621,23.621,0,0,1,3.4-.077h4.4l-1.721-.577c-.577-.2-1.144-.442-1.731-.6-.1,0-.058-.183,0-.154.577.192,1.173.3,1.759.442l1.827.471c.529.135,1.058.308,1.586.471,1.019,0,2.029,0,3.048.087.788-1.875,1.836-3.682,2.779-5.471s2.009-3.74,3.057-5.6,2.086-3.605,3.182-5.384c.558-.885,3.644-6.384,4.577-7.8.058-.087.173,0,.125.087-.663,1.481-3.846,7.134-4.3,8.057-.356.673-.711,1.336-1.058,2.009l.1-.1,1.49-1.365c.961-.961,1.99-1.875,2.884-2.884.077-.087.2,0,.135.125-.875,1.067-1.731,2.163-2.644,3.211-.452.519-.961,1.029-1.413,1.519a9.693,9.693,0,0,1-1.519,1.356h0c-.3.548-.577,1.106-.875,1.654q-1.442,2.755-2.884,5.519c-.894,1.683-1.711,3.442-2.682,5.086,2.077.106,4.154.24,6.23.365l3.182.212c1.125.077,2.288.3,3.423.3.1,0,.106.163,0,.154-1.115-.077-2.279.058-3.4.048s-2.115,0-3.163,0c-2.24,0-4.471-.048-6.73-.115s-4.4-.221-6.6-.365l-3.24-.279a22.119,22.119,0,0,1-3.2-.308.058.058,0,0,1-.029-.106Z" transform="translate(-63.497 -96.654)" fill="#263238"/>
      <path id="Path_1890" data-name="Path 1890" d="M122.412,134.086c-4.942.7-4.125,7.942-2.115,11.807s7.124,7.9,8.3,7.692,2.288-6.951,2.288-6.951,3.846,4.144,4.807,3.615c.615-.327-.76-5.519-1.452-7.5S129.979,133.038,122.412,134.086Z" transform="translate(-64.696 -95.704)" fill="#fff"/>
      <path id="Path_1891" data-name="Path 1891" d="M120.648,138.167c.26,1.029,5.317,7.692,10.047,7.355,1.538-.106,1.346-8.528,1.346-8.528l.135-.625,1.788-8.759-10.355-6.384-1.5-.836s-.327,2.423-.712,5.451a1.145,1.145,0,0,1-.058.433,2.079,2.079,0,0,0-.067.49c-.067.452-.125.961-.183,1.375s-.077.692-.115,1.058-.067.731-.106,1.1a56.422,56.422,0,0,0-.221,7.874Z" transform="translate(-64.768 -95.18)" fill="#ffc4c0"/>
      <path id="Path_1892" data-name="Path 1892" d="M121.43,125.841a17.9,17.9,0,0,0,10.778,10.518L134,127.6l-10.355-6.384-1.5-.836S121.815,122.812,121.43,125.841Z" transform="translate(-64.8 -95.179)" fill="#263238"/>
      <path id="Path_1893" data-name="Path 1893" d="M146.7,112.521c2.49,15.479-6.509,18.72-9.845,19.229-3.029.481-13.46,1.74-17.479-13.393s2.336-21.152,9.211-22.662S144.224,97.042,146.7,112.521Z" transform="translate(-64.673 -94.214)" fill="#ffc4c0"/>
      <path id="Path_1894" data-name="Path 1894" d="M145.037,110.737a5.079,5.079,0,0,1-1.077-.077,1.779,1.779,0,0,1-1.086-.288.567.567,0,0,1-.1-.673,1.394,1.394,0,0,1,1.308-.51,1.981,1.981,0,0,1,1.365.538.6.6,0,0,1-.413,1.01Z" transform="translate(-65.62 -94.747)" fill="#263238"/>
      <path id="Path_1895" data-name="Path 1895" d="M134.41,113.825a9.985,9.985,0,0,0,1.019-.375,1.731,1.731,0,0,0,.961-.567.558.558,0,0,0-.1-.673,1.384,1.384,0,0,0-1.394-.135,2,2,0,0,0-1.163.885.6.6,0,0,0,.673.865Z" transform="translate(-65.272 -94.854)" fill="#263238"/>
      <path id="Path_1896" data-name="Path 1896" d="M137.132,115.9s-.077.067-.067.106c.2,1.048.26,2.288-.635,2.788v.058C137.584,118.5,137.488,116.861,137.132,115.9Z" transform="translate(-65.378 -95.007)" fill="#263238"/>
      <path id="Path_1897" data-name="Path 1897" d="M135.956,114.91c-1.711.154-1.3,3.567.3,3.432S137.388,114.795,135.956,114.91Z" transform="translate(-65.317 -94.968)" fill="#263238"/>
      <path id="Path_1898" data-name="Path 1898" d="M135.239,115.189c-.279.231-.529.606-.885.683s-.769-.221-1.086-.538h-.048c.067.654.4,1.3,1.115,1.308s1.038-.625,1.125-1.3C135.479,115.266,135.345,115.093,135.239,115.189Z" transform="translate(-65.255 -94.978)" fill="#263238"/>
      <path id="Path_1899" data-name="Path 1899" d="M143.26,114.92a.085.085,0,0,1,.086.087c.087,1.067.365,2.269,1.365,2.509v.058C143.519,117.545,143.173,115.958,143.26,114.92Z" transform="translate(-65.641 -94.969)" fill="#263238"/>
      <path id="Path_1900" data-name="Path 1900" d="M144.077,113.659c1.692-.327,2.211,3.077.654,3.384S142.663,113.928,144.077,113.659Z" transform="translate(-65.641 -94.92)" fill="#263238"/>
      <path id="Path_1901" data-name="Path 1901" d="M144.884,113.762c.288.135.606.423.961.394s.6-.442.779-.836h.058c.125.654,0,1.365-.6,1.586s-1.058-.3-1.317-.961C144.692,113.9,144.759,113.7,144.884,113.762Z" transform="translate(-65.698 -94.907)" fill="#263238"/>
      <path id="Path_1902" data-name="Path 1902" d="M138.135,125c.269.231.548.558.961.558a2.7,2.7,0,0,0,1.125-.356l.048.058a1.461,1.461,0,0,1-1.308.683A1.154,1.154,0,0,1,138,125S138.087,124.932,138.135,125Z" transform="translate(-65.439 -95.356)" fill="#263238"/>
      <path id="Path_1903" data-name="Path 1903" d="M142,122.574a4.375,4.375,0,0,1-1.442,1.663,1.923,1.923,0,0,1-1.154.3c-.885,0-1.067-.817-1.038-1.519a4.915,4.915,0,0,1,.173-1.086,5.624,5.624,0,0,0,3.461.644Z" transform="translate(-65.453 -95.239)" fill="#263238"/>
      <path id="Path_1904" data-name="Path 1904" d="M140.562,124.28a1.923,1.923,0,0,1-1.154.3c-.885,0-1.067-.817-1.038-1.519A2.038,2.038,0,0,1,140.562,124.28Z" transform="translate(-65.453 -95.282)" fill="#ff9bbc"/>
      <path id="Path_1905" data-name="Path 1905" d="M142.059,119.959s.433,1.548.538,2.3c0,.067-.173.125-.423.173h0a3.577,3.577,0,0,1-3.615-.865c-.067-.067,0-.154.1-.115a5.413,5.413,0,0,0,3.355.49c0-.212-.827-2.634-.7-2.654a6.251,6.251,0,0,1,1.74.154c-.8-3.259-2.125-6.355-2.884-9.615,0-.115.144-.173.192-.077a53.84,53.84,0,0,1,3.529,10.23C143.991,120.4,142.376,120.045,142.059,119.959Z" transform="translate(-65.459 -94.768)" fill="#263238"/>
      <path id="Path_1906" data-name="Path 1906" d="M136.366,98.363a6.8,6.8,0,0,1-.183,4.019c-1.644,3.471-5.826,2.577-7.249,3.952s-.865,3.952-2.077,5.24c-1.673,1.779-3.961,1.1-4.23,2.3s-1.067,5.019-2.586,5.5S111.388,94.5,131.415,95.248c0,0,2.74-1.125,6.99.961,4.7,2.346,6.73,10.066,6.73,10.066s-.1-.106-.779-.711c-.961-.846-1.346-1.634-2.048-2.183-1.115-.856-1.721-.529-2.884-1.375A13.048,13.048,0,0,1,136.366,98.363Z" transform="translate(-64.651 -94.199)" fill="#263238"/>
      <path id="Path_1907" data-name="Path 1907" d="M136.242,97.35a13.46,13.46,0,0,1,.6,3.057,5.634,5.634,0,0,1-.423,2.971,4.163,4.163,0,0,1-2.288,1.788c-.961.346-1.99.452-3.019.865a3.153,3.153,0,0,0-1.336,1.01,4.25,4.25,0,0,0-.577,1.529,5.509,5.509,0,0,1-1.106,2.769,3.481,3.481,0,0,1-2.673,1.135,7.312,7.312,0,0,0-3.1.163c1.01-.365,2.038,0,3.086.077a3.769,3.769,0,0,0,2.961-1.115,5.528,5.528,0,0,0,1.26-2.884,3.846,3.846,0,0,1,.529-1.365,2.711,2.711,0,0,1,1.144-.827c.961-.394,1.981-.519,2.99-.9a5.087,5.087,0,0,0,1.413-.779,3.288,3.288,0,0,0,1.058-1.26,5.961,5.961,0,0,0,.317-3.163A13.23,13.23,0,0,0,136.242,97.35Z" transform="translate(-64.834 -94.292)" fill="#263238"/>
      <path id="Path_1908" data-name="Path 1908" d="M137.2,98.3a10.923,10.923,0,0,0,.961,2.75,5.077,5.077,0,0,0,2.009,2.192,7.248,7.248,0,0,0,1.375.538,2.327,2.327,0,0,1,1.086.721,7.355,7.355,0,0,0,.865,1.173,3.27,3.27,0,0,0,1.269.74,3.693,3.693,0,0,1-1.086-.9,7.205,7.205,0,0,1-.731-1.221,2.49,2.49,0,0,0-1.24-.961,8.489,8.489,0,0,1-1.3-.529,5.278,5.278,0,0,1-1.923-1.923A21.294,21.294,0,0,1,137.2,98.3Z" transform="translate(-65.408 -94.328)" fill="#263238"/>
      <path id="Path_1909" data-name="Path 1909" d="M120.177,124.867a3.788,3.788,0,0,0,.74.135,2.336,2.336,0,0,0,.74,0,2.182,2.182,0,0,0,.875-.356,2.576,2.576,0,0,0,.558-.5,3.02,3.02,0,0,0,.529-.961l-1.163-4.115s-3.779-4.634-5.894-3.25S117.5,124.088,120.177,124.867Z" transform="translate(-64.585 -94.994)" fill="#ffc4c0"/>
      <path id="Path_1910" data-name="Path 1910" d="M117.55,117.86v.067c1.875.606,2.961,2.231,3.759,3.932a1.461,1.461,0,0,0-2.211-.24c-.048,0,0,.106.058.1a1.615,1.615,0,0,1,1.827.433,7.587,7.587,0,0,1,.961,1.384c.106.163.385,0,.317-.135h0C122.107,121.033,120.059,117.908,117.55,117.86Z" transform="translate(-64.651 -95.082)" fill="#263238"/>
      <path id="Path_1911" data-name="Path 1911" d="M120.529,124.5a.724.724,0,1,0,.5-.894.724.724,0,0,0-.5.894Z" transform="translate(-64.764 -95.303)" fill="#fff"/>
      <path id="Path_1912" data-name="Path 1912" d="M118.89,123.486a.519.519,0,0,0,.635.356.51.51,0,0,0-.269-.961.529.529,0,0,0-.365.606Z" transform="translate(-64.702 -95.276)" fill="#fff"/>
    </g>
  </g>
</svg>
