<svg xmlns="http://www.w3.org/2000/svg" width="200.547" height="222.755" viewBox="0 0 200.547 222.755">
  <g id="مستعد_للاستلام_" data-name="مستعد للاستلام ؟" transform="translate(-54.866 -35.177)">
    <g id="freepik--Shadow--inject-11" transform="translate(58.436 239.57)">
      <ellipse id="Ellipse_80" data-name="Ellipse 80" cx="94.321" cy="9.182" rx="94.321" ry="9.182" transform="translate(0)" fill="#f1f1f9"/>
    </g>
    <g id="freepik--Plant--inject-11" transform="translate(199.616 156.113)">
      <path id="Path_2020" data-name="Path 2020" d="M411.627,296.176c-1.987-1.945-4.554-4.3-7.592-3.456-2.855.79-3.948,3.906-4.46,6.5-.659,3.352-1.171,6.729-1.7,10.1s-1.046,6.8-1.532,10.222q-.418,2.886-.816,5.778-.2,1.443-.4,2.886c-.131.946-.288,1.893-.34,2.844a.267.267,0,0,0,.523.057c.371-1.605.523-3.278.758-4.9s.476-3.284.711-4.92c.476-3.257.973-6.51,1.459-9.767s1-6.5,1.522-9.757c.439-2.761.648-6.186,3.09-8.005a4.742,4.742,0,0,1,4.575-.429,13.79,13.79,0,0,1,4.152,2.907C411.627,296.275,411.679,296.218,411.627,296.176Z" transform="translate(-365.938 -278.91)" fill="#263238"/>
      <path id="Path_2021" data-name="Path 2021" d="M415.761,290.452s-4.063-1.459-6.065,1.5.392,10.5,18.876,14.75A52.093,52.093,0,0,0,424.126,290C420.163,281.354,413.1,284.627,415.761,290.452Z" transform="translate(-372.775 -275.172)" fill="#464698"/>
      <path id="Path_2022" data-name="Path 2022" d="M431.641,310.458a14.275,14.275,0,0,0-.931-1.5c-.309-.476-.622-.952-.936-1.422-.235-.356-.481-.711-.722-1.046a.762.762,0,0,1,.031-.261l.063-.481c.047-.345.1-.7.146-1.046s.11-.685.178-1.046a5.374,5.374,0,0,1,.241-1.088c0-.057-.073-.084-.078,0a4.124,4.124,0,0,1-.167.617l-.125.465c-.089.35-.173.7-.251,1.046s-.136.654-.193.978c-.026.162-.047.319-.068.476-.329-.471-.669-.936-1.014-1.391-.983-1.292-2.018-2.536-3.1-3.754v-.031a33.451,33.451,0,0,1,.481-5.752c0-.052-.063-.084-.078-.031a19.955,19.955,0,0,0-.69,5.527c-.382-.429-.774-.858-1.166-1.281-.9-.967-1.82-1.924-2.756-2.855-.037-.037-.1,0-.063.057,1.569,1.678,3.038,3.425,4.481,5.2a31.771,31.771,0,0,0-3.383.125c-1.25.089-2.494.251-3.739.424-.057,0-.042.089,0,.084a32.992,32.992,0,0,1,3.733-.335c1.208-.052,2.405,0,3.613,0q1.171,1.443,2.306,2.918h-1c-.565,0-1.124.052-1.684.1a25.013,25.013,0,0,0-3.414.523.042.042,0,1,0,0,.084c1.135-.131,2.274-.235,3.414-.277H427.3a1.045,1.045,0,0,0,.465-.042q.742.967,1.485,1.94.588.784,1.161,1.569c.382.523.742,1.124,1.171,1.626C431.6,310.547,431.662,310.5,431.641,310.458Z" transform="translate(-376.907 -280.162)" fill="#263238"/>
      <path id="Path_2023" data-name="Path 2023" d="M421.561,303.628a12.484,12.484,0,0,0-1.976-.094c-.659,0-1.323,0-1.982.042a.042.042,0,0,0,0,.084c.669-.052,1.339-.063,2.008-.052s1.3.073,1.94.052C421.581,303.66,421.581,303.634,421.561,303.628Z" transform="translate(-376.808 -284.151)" fill="#263238"/>
      <path id="Path_2024" data-name="Path 2024" d="M436.033,304.809c.073-.633.152-1.265.288-1.888a.042.042,0,1,0-.084,0c-.094.622-.214,1.239-.3,1.861-.047.308-.089.622-.131.931a4.575,4.575,0,0,0-.073.884.058.058,0,0,0,.11,0,5.578,5.578,0,0,0,.094-.884C435.96,305.411,436,305.107,436.033,304.809Z" transform="translate(-385.476 -283.841)" fill="#263238"/>
      <path id="Path_2025" data-name="Path 2025" d="M433.4,293.165c-.162.617-.324,1.239-.434,1.861-.058.319-.11.638-.152.957a4.013,4.013,0,0,0-.063.936.026.026,0,0,0,.052,0,5.088,5.088,0,0,0,.141-.889c.042-.309.089-.612.141-.92.115-.643.23-1.281.392-1.914C433.487,293.145,433.4,293.113,433.4,293.165Z" transform="translate(-384.055 -279.194)" fill="#263238"/>
      <path id="Path_2026" data-name="Path 2026" d="M379.7,344.377c-.1-1.161-.22-2.327-.34-3.488q-.371-3.451-.831-6.9c-.309-2.285-.6-4.58-.973-6.86a16.653,16.653,0,0,0-.706-3.137,2.954,2.954,0,0,0-1.725-1.95c-2.175-.748-3.66,1.506-4.518,3.1-.026.047.042.084.073.042.523-.758,1.976-2.876,3.629-2.776,1.108.063,2,.852,2.531,3.618,1.328,6.9,2.525,20.915,2.667,21.809.073.486.413.465.418-.057C379.9,346.662,379.771,345.517,379.7,344.377Z" transform="translate(-354.401 -292.915)" fill="#263238"/>
      <path id="Path_2027" data-name="Path 2027" d="M362.972,322.6s1.9-6.714-2.3-3.357c-7,5.59-7.242,17.725-7.242,17.725s12.434-7.221,13.976-11.984C369.712,317.9,362.972,322.6,362.972,322.6Z" transform="translate(-346.209 -291.2)" fill="#464698"/>
      <path id="Path_2028" data-name="Path 2028" d="M366.031,329.04c-.973.2-1.966.329-2.949.471l-1.4.2c-.314.042-.633.073-.952.11.925-1.276,1.861-2.546,2.75-3.848a.052.052,0,1,0-.084-.063,28.464,28.464,0,0,0-2.091,2.4l-.554-1.569c-.209-.6-.439-1.2-.591-1.82,0-.052-.094,0-.078.026.167.612.288,1.244.455,1.861s.34,1.182.549,1.762c-.455.591-.894,1.2-1.318,1.809-.214-.607-.481-1.192-.664-1.809,0-.052-.1-.026-.084,0,.225.685.345,1.391.554,2.091-.288.418-.57.837-.842,1.255-.523.779-.978,1.569-1.438,2.363a.183.183,0,0,0-.11.188c-.784,1.359-1.532,2.735-2.269,4.125a.042.042,0,1,0,.073.042c.737-1.375,1.569-2.714,2.41-4.026h0a1.615,1.615,0,0,1,.408-.078l.429-.094c.319-.068.638-.152.957-.23.633-.157,1.255-.309,1.9-.418.052,0,.026-.089,0-.078-.753.141-1.506.23-2.269.314-.361.042-.716.089-1.072.146H357.7q.664-1.014,1.359-2.018c.45-.654.915-1.3,1.38-1.95.434-.057.858-.172,1.286-.251l1.443-.282c.962-.194,1.924-.408,2.892-.565C366.11,329.134,366.083,329.029,366.031,329.04Z" transform="translate(-346.915 -294.346)" fill="#263238"/>
      <path id="Path_2029" data-name="Path 2029" d="M361.4,332.555c-.057-.178-.11-.355-.167-.523a10.52,10.52,0,0,1-.288-1.129c0-.052-.089-.026-.078,0,.084.382.173.758.256,1.135a6.805,6.805,0,0,0,.324,1.114.078.078,0,0,0,.146-.042C361.539,332.931,361.46,332.743,361.4,332.555Z" transform="translate(-349.758 -297.197)" fill="#263238"/>
      <path id="Path_2030" data-name="Path 2030" d="M375.473,329.85c-.565.084-1.135.126-1.71.178s-1.135.125-1.7.214c-.031,0-.031.052,0,.047.57-.037,1.14-.084,1.71-.157s1.135-.157,1.71-.2C375.53,329.928,375.525,329.845,375.473,329.85Z" transform="translate(-355.086 -296.709)" fill="#263238"/>
      <path id="Path_2031" data-name="Path 2031" d="M385.488,315.472c-.225-4.941-.523-9.877-1.046-14.8-.246-2.452-.523-4.9-.868-7.32a51.461,51.461,0,0,0-1.417-7.106,13.679,13.679,0,0,0-2.363-5.009,5.38,5.38,0,0,0-4.779-2.091,9.688,9.688,0,0,0-5.412,3.111c-1.689,1.663-3.237,3.477-4.8,5.229-.4.45-.79.9-1.182,1.359-.031.042.026.1.063.057,1.532-1.757,3.137-3.467,4.784-5.1,1.537-1.511,3.137-3.137,5.229-3.786a5.469,5.469,0,0,1,3.054-.073,4.847,4.847,0,0,1,2.091,1.323,10.879,10.879,0,0,1,2.353,4.57,79.122,79.122,0,0,1,2.3,14c.491,4.69.842,9.542,1.082,14.332s.429,9.626.894,14.426c.058.591.131,1.182.209,1.773.047.392.664.4.633,0C385.938,325.4,385.708,320.44,385.488,315.472Z" transform="translate(-351.068 -272.507)" fill="#263238"/>
      <path id="Path_2032" data-name="Path 2032" d="M357.894,279.685s2.823-5.229-.523-6.9-14.494,10.782-17.752,29c0,0,18.023-7.974,24.146-15.921S362.956,276.166,357.894,279.685Z" transform="translate(-339.62 -269.409)" fill="#464698"/>
      <path id="Path_2033" data-name="Path 2033" d="M363.09,289.476c-2.023,0-4.047-.152-6.07-.141l1.14-1.3a18.269,18.269,0,0,0,1.569-1.84c.026-.042-.031-.1-.073-.068a13.723,13.723,0,0,0-1.532,1.537c-.523.523-1.014,1.077-1.516,1.621-.774.842-1.532,1.689-2.29,2.546v-3.352c0-1.391,0-2.792.1-4.183,0-.052-.078-.052-.084,0-.094,1.4-.241,2.792-.308,4.183-.031.69-.047,1.375-.058,2.065v1.642c-.115.136-.24.267-.356.4-1.616,1.851-3.137,3.759-4.654,5.7a1.355,1.355,0,0,0-.026-.324c0-.214-.047-.429-.068-.643-.052-.465-.115-.926-.188-1.391s-.131-.868-.2-1.3-.2-.978-.241-1.469a.042.042,0,1,0-.078,0,14.165,14.165,0,0,1,.167,1.485l.126,1.339c.037.444.078.889.125,1.339l.063.643a2.222,2.222,0,0,0,.042.319.523.523,0,0,0,.084.256l-.769,1c-1.046,1.354-2.029,2.724-3.033,4.089-.031.042.031.1.063.058.952-1.239,1.929-2.457,2.918-3.66.742.031,1.5-.026,2.243-.037s1.569,0,2.342,0a.042.042,0,1,0,0-.084c-.784,0-1.569.026-2.348.031s-1.438-.031-2.149,0c.868-1.046,1.752-2.092,2.614-3.163l1.025-1.15a4.75,4.75,0,0,0,.9.031h1.046c.664,0,1.328,0,2-.026,1.375,0,2.75-.068,4.125-.073a.042.042,0,1,0,0-.078c-1.38,0-2.755-.078-4.131-.115-.669,0-1.333-.037-2-.047h-1.663l2.275-2.693a.126.126,0,0,0,.042-.047c.737-.873,1.475-1.741,2.222-2.614.1-.115.209-.23.309-.35,2.091.063,4.183-.073,6.274-.031C363.148,289.56,363.148,289.476,363.09,289.476Z" transform="translate(-342.165 -274.955)" fill="#263238"/>
      <path id="Path_2034" data-name="Path 2034" d="M377.178,301.09h-.492a.037.037,0,0,0,0,.073h.486a.042.042,0,0,0,.005-.073Z" transform="translate(-357.288 -282.987)" fill="#263238"/>
      <path id="Path_2035" data-name="Path 2035" d="M372.058,301.027c-.648,0-1.3,0-1.945-.042l-.967-.01a3.731,3.731,0,0,0-.9,0,.031.031,0,1,0,0,.063,3.522,3.522,0,0,0,.91.063h2.918C372.116,301.111,372.116,301.027,372.058,301.027Z" transform="translate(-353.261 -282.919)" fill="#263238"/>
      <path id="Path_2036" data-name="Path 2036" d="M361.1,312.411a26.206,26.206,0,0,0-3.99-.361v.026c1.328.125,2.651.2,3.969.413C361.131,312.5,361.152,312.416,361.1,312.411Z" transform="translate(-347.965 -288.217)" fill="#263238"/>
      <path id="Path_2037" data-name="Path 2037" d="M353.917,299.234a2.58,2.58,0,0,0-.042-.345c-.031-.261-.073-.523-.115-.779-.078-.5-.162-.988-.256-1.485,0-.042-.089-.031-.084,0,.063.523.12,1.02.167,1.532l.063.753a2.147,2.147,0,0,0,.1.711.1.1,0,0,0,.178-.026A1.014,1.014,0,0,0,353.917,299.234Z" transform="translate(-346.204 -280.844)" fill="#263238"/>
      <path id="Path_2038" data-name="Path 2038" d="M398.6,270.833c-.648-1.2-1.469-2.787-3.08-2.688-1.328.084-1.929,1.438-2.212,2.562A53.793,53.793,0,0,0,392.2,281.39c-.366,7.514-.69,15.033-.737,22.557v6.274c0,2.128,0,4.267.146,6.389a.157.157,0,1,0,.314,0c0-1.82-.052-3.66-.057-5.459s0-3.55.031-5.328q.089-5.391.288-10.782c.136-3.571.293-7.142.444-10.714.073-1.783.152-3.571.23-5.354s.152-3.456.35-5.176c.11-.967.251-1.929.455-2.876a3.978,3.978,0,0,1,.831-1.929,1.809,1.809,0,0,1,2.348-.167,4.957,4.957,0,0,1,1.668,2.092.061.061,0,1,0,.089-.084Z" transform="translate(-364.354 -267.267)" fill="#263238"/>
      <path id="Path_2039" data-name="Path 2039" d="M401.145,269.46s-1.323-4.674,1.605-2.337c4.873,3.89,5.046,12.355,5.046,12.355s-8.664-5.03-9.741-8.366C396.45,266.187,401.145,269.46,401.145,269.46Z" transform="translate(-367.341 -266.468)" fill="#464698"/>
      <path id="Path_2040" data-name="Path 2040" d="M407.946,279.076c-.078-.131-.162-.256-.246-.387a2.522,2.522,0,0,0,0-.4c0-.2,0-.4,0-.6a11.212,11.212,0,0,1,.042-1.187.042.042,0,0,0-.084,0c0,.387-.037.779-.047,1.166v.831c-.34-.523-.69-1.046-1.046-1.569-.1-.152-.214-.3-.319-.444a8.28,8.28,0,0,1-.026-1.527c0-.523,0-1.088.031-1.631a.042.042,0,0,0-.084,0c0,.565-.042,1.129-.073,1.694a10.314,10.314,0,0,0-.031,1.208c-.837-1.135-1.725-2.233-2.614-3.325a.041.041,0,0,0-.063.052c.554.706,1.088,1.427,1.61,2.159-1.02-.241-2.055-.376-3.09-.523-.052,0-.073.073,0,.084,1.1.167,2.175.439,3.258.68h0c.413.586.826,1.171,1.229,1.762l.491.722h-.042l-.34-.047-.722-.063c-.5-.042-1-.068-1.5-.094-.052,0-.047.084,0,.084a13.777,13.777,0,0,1,1.469.1l.779.094.335.042h.1c.277.408.559.816.831,1.223.491.727.931,1.5,1.448,2.2a.042.042,0,0,0,.068-.042A21.913,21.913,0,0,0,407.946,279.076Z" transform="translate(-369.316 -269.533)" fill="#263238"/>
      <path id="Path_2041" data-name="Path 2041" d="M409.285,273.023v-.549a8.353,8.353,0,0,1,.047-1.145.042.042,0,1,0-.078,0c0,.382-.042.758-.063,1.135v.831a.942.942,0,0,0,0,.272.037.037,0,0,0,.073,0,.807.807,0,0,0,0-.251Z" transform="translate(-372.81 -268.76)" fill="#263238"/>
      <path id="Path_2042" data-name="Path 2042" d="M405.445,278.129c-.324-.058-.654-.073-.978-.1s-.711-.063-1.046-.11a.042.042,0,1,0,0,.084c.685.042,1.365.167,2.05.188C405.477,278.2,405.482,278.134,405.445,278.129Z" transform="translate(-370.042 -271.932)" fill="#263238"/>
      <path id="Path_2043" data-name="Path 2043" d="M412.514,278.329c.026.037,0,.141,0,.183v.805a.732.732,0,0,0,0,.282h.031a.3.3,0,0,0,0-.136,1.428,1.428,0,0,1,0-.152v-.983C412.546,278.293,412.462,278.251,412.514,278.329Z" transform="translate(-374.392 -272.106)" fill="#263238"/>
      <path id="Path_2044" data-name="Path 2044" d="M391.9,317.867c-1.82-1.365-3.456-3.331-5.908-3.43-2.023-.078-3.44,1.443-4.251,3.137a18.122,18.122,0,0,0-.988,2.8q-.549,1.914-1.046,3.854-.946,3.812-1.621,7.686c-.246,1.438-.476,2.881-.659,4.329a37.084,37.084,0,0,0-.423,4.434.23.23,0,0,0,.455.052c.246-1.213.35-2.463.523-3.686s.366-2.463.57-3.686q.628-3.66,1.454-7.32c.523-2.3,1.046-4.622,1.773-6.855.523-1.6,1.38-3.467,3.111-4.042,2.614-.873,5.014,1.349,6.939,2.8C391.881,317.961,391.938,317.9,391.9,317.867Z" transform="translate(-357.455 -289.354)" fill="#263238"/>
      <path id="Path_2045" data-name="Path 2045" d="M396.146,313.139s-1.684-4.795.748-5.752c3.66-1.406,13.166,9.323,11.3,25.762a93.667,93.667,0,0,1-12.795-8.617c-5.438-4.565-6.8-10.52-4.429-12.057S396.146,313.139,396.146,313.139Z" transform="translate(-363.587 -285.933)" fill="#464698"/>
      <path id="Path_2046" data-name="Path 2046" d="M411.5,334.259a12.6,12.6,0,0,0-.884-1.658c-.314-.565-.627-1.124-.952-1.678-.633-1.082-1.26-2.165-1.908-3.242l-.319-.523a1.259,1.259,0,0,1,.037-.194l.11-.476c.084-.356.146-.716.209-1.077.136-.7.256-1.412.445-2.091,0-.047-.068-.063-.078,0-.152.7-.377,1.4-.58,2.091-.1.34-.214.675-.3,1.02l-.094.35c-.779-1.281-1.569-2.557-2.437-3.791a1.748,1.748,0,0,0,.089-.523c.026-.24.052-.481.084-.722.063-.523.126-1.082.2-1.621.157-1.046.314-2.092.575-3.137,0-.052-.068-.068-.078,0-.267,1.046-.549,2.091-.748,3.137-.094.523-.188,1.046-.256,1.569-.031.261-.063.523-.089.784a.623.623,0,0,1-.031.235c-.261-.371-.523-.748-.8-1.108-.842-1.108-1.715-2.186-2.614-3.263-.031-.042-.1,0-.068.047a58.245,58.245,0,0,1,4.141,6.044l.716,1.166-.241-.031c-.309-.042-.617-.057-.926-.089l-1.861-.162c-1.239-.1-2.484-.173-3.718-.3-.052,0-.068.073,0,.078,1.255.146,2.5.345,3.749.523.617.089,1.229.173,1.846.251a7.354,7.354,0,0,0,1.417.141c.486.795.978,1.569,1.464,2.374h-4.5c-.058,0-.047.078,0,.078.81,0,1.616.052,2.426.094l1.15.068.575.042a1.157,1.157,0,0,0,.523,0l1.244,2.018c.382.622.769,1.239,1.161,1.856a15.155,15.155,0,0,0,1.25,1.872C411.448,334.338,411.516,334.311,411.5,334.259Z" transform="translate(-367.987 -290.551)" fill="#263238"/>
      <path id="Path_2047" data-name="Path 2047" d="M415.4,324.614a11.535,11.535,0,0,1-.329,1.569c-.136.523-.288,1.046-.46,1.569a.052.052,0,1,0,.1.031c.162-.523.308-1.046.434-1.569s.209-1.046.34-1.595a.042.042,0,1,0-.084-.005Z" transform="translate(-375.396 -294.193)" fill="#263238"/>
      <path id="Path_2048" data-name="Path 2048" d="M401.1,330.146a.648.648,0,0,0-.4-.152l-.7-.094c-.429-.057-.863-.1-1.291-.157-.9-.1-1.793-.193-2.693-.3-.052,0-.068.073,0,.078.847.1,1.689.235,2.536.345l1.239.162.6.063a2.091,2.091,0,0,1,.68.12.037.037,0,0,0,.026-.063Z" transform="translate(-366.508 -296.514)" fill="#263238"/>
      <path id="Path_2049" data-name="Path 2049" d="M413.659,344.563c-.423-.037-.852-.052-1.276-.063h-.952a2.088,2.088,0,0,1-.4,0c-.058,0-.063.089,0,.078a1.812,1.812,0,0,1,.376,0h.335l.638.042c.424.026.852.052,1.276.052C413.706,344.652,413.711,344.563,413.659,344.563Z" transform="translate(-373.67 -303.699)" fill="#263238"/>
      <path id="Path_2050" data-name="Path 2050" d="M420.828,339.106l.141-.722c.084-.476.172-.952.261-1.422a.042.042,0,0,0-.084,0l-.314,1.386c-.052.23-.1.46-.152.69a1.435,1.435,0,0,1-.068.324.929.929,0,0,0-.037.34.052.052,0,0,0,.094.026A1.7,1.7,0,0,0,420.828,339.106Z" transform="translate(-378.246 -300.083)" fill="#263238"/>
      <path id="Path_2051" data-name="Path 2051" d="M373.4,361.1l.512,5.83,1.741,19.676h15.409l2.175-19.676.643-5.83Z" transform="translate(-355.737 -311.62)" fill="#37474f"/>
      <path id="Path_2052" data-name="Path 2052" d="M373.4,361.1l.512,5.83h19.325l.643-5.83Z" transform="translate(-355.737 -311.62)" fill="#263238"/>
      <rect id="Rectangle_1459" data-name="Rectangle 1459" width="23.534" height="4.727" transform="translate(39.67 52.623) rotate(180)" fill="#37474f"/>
    </g>
    <g id="freepik--question-mark--inject-11" transform="translate(107.544 61.714)">
      <path id="Path_2053" data-name="Path 2053" d="M193.436,210.478a59,59,0,0,1,4.1-22.551q4.1-10,16.91-17.427,3.848-2.306,9.485-5.229a76.509,76.509,0,0,0,11.017-7.048,40.261,40.261,0,0,0,9.1-9.605,22.149,22.149,0,0,0,3.718-12.69,20.957,20.957,0,0,0-2.039-9.506,21.757,21.757,0,0,0-5.38-6.918,22.41,22.41,0,0,0-7.843-4.23,30.327,30.327,0,0,0-9.1-1.407,26.436,26.436,0,0,0-10.217,1.9,34.975,34.975,0,0,0-8.324,4.868,40.815,40.815,0,0,0-6.667,6.667,73.105,73.105,0,0,0-4.993,7.043h-3.859L170.9,118.975a49.762,49.762,0,0,1,8.842-14.118,54.252,54.252,0,0,1,12.549-10.379,58.807,58.807,0,0,1,15.263-6.369,65.761,65.761,0,0,1,16.915-2.18,67.21,67.21,0,0,1,19.221,2.818,48.847,48.847,0,0,1,17.04,8.972,46.535,46.535,0,0,1,12.3,15.759q4.737,9.61,4.737,22.938a49.546,49.546,0,0,1-1.919,14.478,40.376,40.376,0,0,1-5.516,11.409,48.046,48.046,0,0,1-8.455,9.223,96.876,96.876,0,0,1-11.022,7.942q-5.129,3.085-10.248,5.9a61.7,61.7,0,0,0-9.354,6.274,30.6,30.6,0,0,0-6.923,7.948,20.828,20.828,0,0,0-2.688,10.891Zm.523,59.707V234.823H222.4v35.362Z" transform="translate(-167.046 -85.93)" fill="#464698"/>
      <g id="Group_45" data-name="Group 45" transform="translate(3.854 0)" opacity="0.2">
        <path id="Path_2054" data-name="Path 2054" d="M193.436,210.478a59,59,0,0,1,4.1-22.551q4.1-10,16.91-17.427,3.848-2.306,9.485-5.229a76.509,76.509,0,0,0,11.017-7.048,40.261,40.261,0,0,0,9.1-9.605,22.149,22.149,0,0,0,3.718-12.69,20.957,20.957,0,0,0-2.039-9.506,21.757,21.757,0,0,0-5.38-6.918,22.41,22.41,0,0,0-7.843-4.23,30.327,30.327,0,0,0-9.1-1.407,26.436,26.436,0,0,0-10.217,1.9,34.975,34.975,0,0,0-8.324,4.868,40.815,40.815,0,0,0-6.667,6.667,73.105,73.105,0,0,0-4.993,7.043h-3.859L170.9,118.975a49.762,49.762,0,0,1,8.842-14.118,54.252,54.252,0,0,1,12.549-10.379,58.807,58.807,0,0,1,15.263-6.369,65.761,65.761,0,0,1,16.915-2.18,67.21,67.21,0,0,1,19.221,2.818,48.847,48.847,0,0,1,17.04,8.972,46.535,46.535,0,0,1,12.3,15.759q4.737,9.61,4.737,22.938a49.546,49.546,0,0,1-1.919,14.478,40.376,40.376,0,0,1-5.516,11.409,48.046,48.046,0,0,1-8.455,9.223,96.876,96.876,0,0,1-11.022,7.942q-5.129,3.085-10.248,5.9a61.7,61.7,0,0,0-9.354,6.274,30.6,30.6,0,0,0-6.923,7.948,20.828,20.828,0,0,0-2.688,10.891Zm.523,59.707V234.823H222.4v35.362Z" transform="translate(-170.9 -85.93)"/>
      </g>
      <path id="Path_2055" data-name="Path 2055" d="M186.081,210.478a59,59,0,0,1,4.1-22.551q4.1-10,16.915-17.427,3.843-2.306,9.48-5.229a76.267,76.267,0,0,0,11.022-7.048,40.356,40.356,0,0,0,9.1-9.605,22.185,22.185,0,0,0,3.712-12.69,20.957,20.957,0,0,0-2.05-9.48,21.757,21.757,0,0,0-5.38-6.918,22.41,22.41,0,0,0-7.843-4.23,30.327,30.327,0,0,0-9.1-1.407,26.4,26.4,0,0,0-10.222,1.877,35.033,35.033,0,0,0-8.329,4.868,40.784,40.784,0,0,0-6.661,6.667,73.2,73.2,0,0,0-5,7.043l-22.3-15.372a49.673,49.673,0,0,1,8.842-14.118,54.118,54.118,0,0,1,12.549-10.379,58.839,58.839,0,0,1,15.257-6.369,65.719,65.719,0,0,1,16.931-2.18,67.185,67.185,0,0,1,19.221,2.818,48.8,48.8,0,0,1,17.04,8.972,46.484,46.484,0,0,1,12.3,15.759q4.737,9.61,4.742,22.938a49.542,49.542,0,0,1-1.924,14.478,40.261,40.261,0,0,1-5.532,11.409,48.047,48.047,0,0,1-8.455,9.223,95.959,95.959,0,0,1-11.022,7.942q-5.119,3.085-10.248,5.9a61.7,61.7,0,0,0-9.354,6.274,30.576,30.576,0,0,0-6.918,7.948,20.862,20.862,0,0,0-2.693,10.891Zm.523,59.707V234.823h28.413v35.362Z" transform="translate(-163.53 -85.93)" fill="#464698"/>
    </g>
    <g id="freepik--Character--inject-11" transform="translate(54.866 69.97)">
      <path id="Path_2056" data-name="Path 2056" d="M152.413,414.477c-1.114.356-32.868-.052-34.065-.837-.46-.293-.669-4.92-.763-10.525v-.172c0-1.156-.037-2.348-.042-3.55v-.5c-.042-8.084.084-16.476.084-16.476l21.244.214-.643,16.3-.026.648-.131,3.378v.345s12.073,5.616,13.3,6.609S153.526,414.122,152.413,414.477Z" transform="translate(-88.906 -235.648)" fill="#ffc4c0"/>
      <path id="Path_2057" data-name="Path 2057" d="M152.42,429.512c-1.114.355-32.868-.052-34.065-.837-.46-.293-.669-4.92-.763-10.525v-.173c0-1.156-.037-2.348-.042-3.55v-.5l20.69.057-.026.648-.131,3.378v.345s12.068,5.595,13.3,6.588S153.534,429.156,152.42,429.512Z" transform="translate(-88.914 -250.683)" fill="#ebebeb"/>
      <path id="Path_2058" data-name="Path 2058" d="M152.463,433.2c-.685.22-12.988.146-22.619-.125-6.013-.162-10.98-.413-11.446-.711s-.664-4.789-.758-10.29v-.413l20.491.042v.345s12.089,5.595,13.312,6.593S153.577,432.844,152.463,433.2Z" transform="translate(-88.956 -254.371)" fill="#464698"/>
      <path id="Path_2059" data-name="Path 2059" d="M154.123,441.018c-5.354-.2-26.954-.523-32.261-.3-.042,0-.042.031,0,.037,5.3.314,26.9.444,32.256.35C154.232,441.107,154.232,441.024,154.123,441.018Z" transform="translate(-90.956 -263.429)" fill="#263238"/>
      <path id="Path_2060" data-name="Path 2060" d="M155.388,421.74a7.477,7.477,0,0,0-6.311,1.349c-.063.057,0,.146.089.125a29.873,29.873,0,0,1,6.212-1.208.136.136,0,0,0,.01-.267Z" transform="translate(-103.944 -254.326)" fill="#263238"/>
      <path id="Path_2061" data-name="Path 2061" d="M158.278,423.53a7.477,7.477,0,0,0-6.311,1.349c-.063.057,0,.146.089.125a29.8,29.8,0,0,1,6.191-1.208.136.136,0,0,0,.031-.267Z" transform="translate(-105.323 -255.18)" fill="#263238"/>
      <path id="Path_2062" data-name="Path 2062" d="M161.158,425.32a7.477,7.477,0,0,0-6.311,1.349c-.063.057,0,.146.089.126a29.873,29.873,0,0,1,6.212-1.2.136.136,0,0,0,.01-.272Z" transform="translate(-106.697 -256.034)" fill="#263238"/>
      <path id="Path_2063" data-name="Path 2063" d="M160.543,412.557c-.816-1.15-2.363-.654-3.252.073a11.216,11.216,0,0,0-3.3,4.784.052.052,0,0,0,.047.073.259.259,0,0,0,.329.267c1.746-.622,3.691-1.046,5.2-2.207C160.438,414.884,161.311,413.65,160.543,412.557Zm-3.728,3.712c-.852.329-1.715.612-2.552.967.648-.931,1.25-1.882,1.992-2.75a13.534,13.534,0,0,1,1.129-1.192c.638-.559,3.137-1.741,2.729.565C159.894,415.129,157.834,415.882,156.815,416.269Z" transform="translate(-106.296 -249.702)" fill="#263238"/>
      <path id="Path_2064" data-name="Path 2064" d="M142.143,417.88c1.725.763,3.723.753,5.569.957a.274.274,0,0,0,.256-.34.057.057,0,0,0,.031-.084,11.3,11.3,0,0,0-4.319-3.9c-1.046-.523-2.656-.627-3.179.68S141.134,417.436,142.143,417.88Zm-.931-1.516c-.92-2.149,1.783-1.569,2.525-1.171a11.3,11.3,0,0,1,1.375.9,32.469,32.469,0,0,1,2.573,2.217c-.9-.157-1.8-.23-2.708-.356-1.077-.141-3.231-.4-3.754-1.59Z" transform="translate(-99.802 -250.79)" fill="#263238"/>
      <path id="Path_2065" data-name="Path 2065" d="M129.864,433.451c-6.013-.162-10.98-.413-11.446-.711s-.664-4.79-.758-10.29C120.118,424.651,126.246,430.115,129.864,433.451Z" transform="translate(-88.966 -254.748)" fill="#263238"/>
      <path id="Path_2066" data-name="Path 2066" d="M105.24,207.48s4.769,53.657,5.542,57.751c.183.936.293,6.008.366,12.523.162,14.227.068,39.88.068,39.88H133.6s-.664-44.444-1.658-52.627-7.32-57.516-7.32-57.516Z" transform="translate(-83.04 -152.18)" fill="#37474f"/>
      <path id="Path_2067" data-name="Path 2067" d="M138.779,410.545c-3.493-.073-2.489-.1-5.982-.136-1.71,0-12.941-.11-14.541.152a.037.037,0,0,0,0,.073c1.6.261,12.831.167,14.541.146,3.493-.031,2.489-.058,5.982-.131a.052.052,0,1,0,0-.1Z" transform="translate(-89.233 -248.992)" fill="#263238"/>
      <path id="Path_2068" data-name="Path 2068" d="M118.048,290.637q-.042-4.873-.073-9.741c0-3.137,0-6.275-.167-9.412-.3-6.363-1.569-12.617-2.51-18.907s-1.684-12.606-2.379-18.928c-.779-7.09-1.464-14.2-2.191-21.291,0-.047-.084-.047-.078,0,1.046,12.674,2.233,25.344,3.984,37.94q.659,4.706,1.433,9.38c.523,3.137,1.046,6.316,1.291,9.511s.282,6.275.314,9.412q.058,4.873.1,9.736c.068,7.205.136,18.3.209,25.506a.11.11,0,0,0,.214,0C118.153,307.379,118.1,297.063,118.048,290.637Z" transform="translate(-85.621 -154.49)" fill="#263238"/>
      <path id="Path_2069" data-name="Path 2069" d="M96.21,207.48s9.49,53.657,10.264,57.751c.183.936.293,6.008.366,12.523h0l10.7-70.274Z" transform="translate(-78.732 -152.18)" fill="#263238"/>
      <path id="Path_2070" data-name="Path 2070" d="M103.313,415.9c-1.135.277-32.784-2.384-33.924-3.247-.439-.324-.319-4.957,0-10.552v-.178c.063-1.15.131-2.337.214-3.54l.031-.523c.523-8.068,1.25-16.429,1.25-16.429l21.171,1.746-1.793,16.209-.068.643-.366,3.362-.037.345s11.655,6.437,12.81,7.519S104.448,415.621,103.313,415.9Z" transform="translate(-65.798 -235.176)" fill="#ffc4c0"/>
      <path id="Path_2071" data-name="Path 2071" d="M103.313,430.889c-1.135.277-32.784-2.384-33.924-3.247-.439-.324-.319-4.957,0-10.552v-.178c.063-1.15.131-2.337.214-3.54l.031-.523,20.627,1.522-.068.643-.366,3.362-.037.345s11.655,6.437,12.81,7.519S104.448,430.612,103.313,430.889Z" transform="translate(-65.798 -250.167)" fill="#ebebeb"/>
      <path id="Path_2072" data-name="Path 2072" d="M103.313,434.6c-1.135.277-32.784-2.384-33.924-3.247-.439-.324-.319-4.957,0-10.552v-.178l20.439,1.49-.037.345s11.655,6.437,12.81,7.519S104.448,434.319,103.313,434.6Z" transform="translate(-65.798 -253.875)" fill="#464698"/>
      <path id="Path_2073" data-name="Path 2073" d="M104.626,442.583C99.3,442,77.777,440.173,72.47,440c-.042,0-.047.031,0,.037,5.26.69,26.8,2.348,32.151,2.614C104.752,442.677,104.762,442.614,104.626,442.583Z" transform="translate(-67.388 -263.121)" fill="#263238"/>
      <path id="Path_2074" data-name="Path 2074" d="M107.2,423.646a7.462,7.462,0,0,0-6.389.9c-.068.052,0,.152.078.136a29.522,29.522,0,0,1,6.274-.769.136.136,0,0,0,.037-.267Z" transform="translate(-80.915 -255.165)" fill="#263238"/>
      <path id="Path_2075" data-name="Path 2075" d="M109.961,425.636a7.474,7.474,0,0,0-6.395.9c-.063.052,0,.152.078.136a29.564,29.564,0,0,1,6.274-.769.136.136,0,0,0,.042-.267Z" transform="translate(-82.229 -256.114)" fill="#263238"/>
      <path id="Path_2076" data-name="Path 2076" d="M112.711,427.626a7.474,7.474,0,0,0-6.395.9c-.063.052,0,.152.084.136a29.472,29.472,0,0,1,6.274-.769.136.136,0,0,0,.037-.267Z" transform="translate(-83.542 -257.064)" fill="#263238"/>
      <path id="Path_2077" data-name="Path 2077" d="M112.7,414.913c-.727-1.208-2.306-.826-3.247-.162a11.2,11.2,0,0,0-3.66,4.539c0,.042,0,.068.042.078a.261.261,0,0,0,.308.288c1.783-.5,3.759-.805,5.339-1.835C112.441,417.2,113.4,416.053,112.7,414.913Zm-3.979,3.435c-.873.267-1.752.486-2.614.784a33.346,33.346,0,0,1,2.18-2.614,12.146,12.146,0,0,1,1.213-1.108c.675-.523,3.247-1.522,2.682.753-.3,1.265-2.41,1.872-3.451,2.186Z" transform="translate(-83.303 -250.777)" fill="#263238"/>
      <path id="Path_2078" data-name="Path 2078" d="M94.26,418.708c1.668.884,3.66,1.014,5.485,1.344.188.037.3-.157.282-.314a.057.057,0,0,0,.031-.084,11.189,11.189,0,0,0-4.031-4.183c-.993-.58-2.614-.816-3.216.45S93.287,418.19,94.26,418.708Zm-.821-1.569c-.769-2.212,1.888-1.443,2.614-.993a12.156,12.156,0,0,1,1.307,1,32.533,32.533,0,0,1,2.41,2.395c-.889-.22-1.783-.361-2.677-.523-1.077-.256-3.221-.664-3.655-1.888Z" transform="translate(-77.027 -251.194)" fill="#263238"/>
      <path id="Path_2079" data-name="Path 2079" d="M90.063,318.808,67.7,317.862s6.107-49.077,6.217-52.1c.293-7.843,5.5-58.347,5.5-58.347h27.315s-1.725,11.665-4.669,19.059a34.071,34.071,0,0,0-5.715,2.614s-2.562,33.406-2.656,37.574C93.478,274.908,90.063,318.808,90.063,318.808Z" transform="translate(-65.129 -152.146)" fill="#37474f"/>
      <path id="Path_2080" data-name="Path 2080" d="M90.6,411.806c-3.482-.22-2.478-.2-5.971-.387-1.7-.089-12.925-.659-14.531-.465-.037,0-.037.063,0,.073,1.569.329,12.816.711,14.52.763,3.493.115,2.494.047,5.987.12a.052.052,0,0,0-.005-.1Z" transform="translate(-66.258 -249.244)" fill="#263238"/>
      <path id="Path_2081" data-name="Path 2081" d="M84.368,213.107c-1.014,12.721-2.055,25.448-3.221,38.17s-2.531,25.5-4.183,38.2c-.925,7.085-1.971,17.077-3.074,24.146,0,.047.063.068.073,0,2.254-12.549,3.911-28.151,5.318-40.831s2.562-25.4,3.592-38.112c.58-7.195,1.1-14.395,1.658-21.589C84.536,213.018,84.4,213.018,84.368,213.107Z" transform="translate(-68.082 -154.831)" fill="#263238"/>
      <path id="Path_2082" data-name="Path 2082" d="M129.128,242.909a42.225,42.225,0,0,0-6.688,3.137.075.075,0,0,0,.063.136c2.254-.967,4.549-1.893,6.745-2.986a.156.156,0,1,0-.12-.288Z" transform="translate(-91.226 -169.078)" fill="#263238"/>
      <path id="Path_2083" data-name="Path 2083" d="M132.451,213.291c0-.078-.141-.094-.141,0,0,2.672-.152,5.025-.376,7.529-.1,1.161-1.046,7.571-3.054,7.106-.335-.078-.523-.413-.559-.92a7.707,7.707,0,0,1,.267-1.966c.22-1.344.4-2.688.523-4.047a36.8,36.8,0,0,0-.084-7.587.068.068,0,0,0-.131,0,69.475,69.475,0,0,1-.612,10.457c-.251,1.668-1.093,4.183.654,4.434s2.928-3.942,3.137-5.093A38.285,38.285,0,0,0,132.451,213.291Z" transform="translate(-93.832 -154.921)" fill="#263238"/>
      <path id="Path_2084" data-name="Path 2084" d="M129.327,241.518a9.936,9.936,0,0,0-.45,1.328,2.918,2.918,0,0,0-.188,1.093c0,.073.1.078.136.031a3.87,3.87,0,0,0,.471-1.046c.152-.413.314-.821.455-1.239a.228.228,0,0,0-.424-.167Z" transform="translate(-94.228 -168.352)" fill="#263238"/>
      <path id="Path_2085" data-name="Path 2085" d="M105.061,216.578a3.4,3.4,0,0,0-.084-.831.047.047,0,0,0-.084,0,3.659,3.659,0,0,0-.094.722,8.169,8.169,0,0,1-.094.826,12.113,12.113,0,0,1-.293,1.678,5.955,5.955,0,0,1-1.537,2.761,7.938,7.938,0,0,1-2.614,1.71,29.6,29.6,0,0,1-3.3.957.042.042,0,1,0,0,.084,9.6,9.6,0,0,0,3.608-.711,7.764,7.764,0,0,0,2.714-1.731,6.029,6.029,0,0,0,1.569-2.839,8.685,8.685,0,0,0,.22-1.684,8.078,8.078,0,0,0-.01-.941Z" transform="translate(-79.07 -156.112)" fill="#263238"/>
      <path id="Path_2086" data-name="Path 2086" d="M151.138,118.732c1.684,2.034,3.514,7.529,3.446,9.03s-9.318,4.91-10.625,4.094-6.452-8.084-6.5-10.776S149.392,116.63,151.138,118.732Z" transform="translate(-98.413 -109.392)" fill="#ffc4c0"/>
      <path id="Path_2087" data-name="Path 2087" d="M132.449,110.035c-.847-.884-3.587-3.524-4.805-2.332-.763.742,1.077,2.776,1.851,3.582a20.482,20.482,0,0,1,3.4,6c.575,1.427,3.268-1.391,3.268-1.391A22.443,22.443,0,0,0,132.449,110.035Z" transform="translate(-93.643 -104.428)" fill="#ffc4c0"/>
      <path id="Path_2088" data-name="Path 2088" d="M140.332,120.916s.946,2.541,2.489,2.484,1.15-2.243,1.129-2.4c.047.136.978,2.447,2.525,2.233s.889-2.363.842-2.5c.084.11,1.276,1.569,2.41,1.135,1.956-.742-.978-4.544-.7-6.212,0,0,2.886.162,2.97.146,0,0-2.719-3.66-4.993-3.932a1.454,1.454,0,0,0-1.569.952,2.3,2.3,0,0,0-1.971-1.15c-.627.068-1.077,1.135-1.077,1.135a1.82,1.82,0,0,0-1.72-.816c-.863.141-1.291,1.218-1.339,1.637A20.528,20.528,0,0,0,140.332,120.916Z" transform="translate(-99.277 -106.462)" fill="#ffc4c0"/>
      <path id="Path_2089" data-name="Path 2089" d="M139.351,114.86h-.042a13.019,13.019,0,0,0,.946,7.686c.037.073.173.047.146-.042A26.783,26.783,0,0,1,139.351,114.86Z" transform="translate(-99.196 -107.988)" fill="#263238"/>
      <path id="Path_2090" data-name="Path 2090" d="M145.025,113.759c0-.031-.047-.031-.052,0a12.178,12.178,0,0,0,1.569,8.314c.058.089.193.11.136,0A21.494,21.494,0,0,1,145.025,113.759Z" transform="translate(-101.916 -107.451)" fill="#263238"/>
      <path id="Path_2091" data-name="Path 2091" d="M152.935,122a16.745,16.745,0,0,1-2.06-7.942c0-.037-.052-.031-.063,0a11,11,0,0,0,.277,4.554,7.5,7.5,0,0,0,1.762,3.435C152.878,122.088,152.935,122.051,152.935,122Z" transform="translate(-104.717 -107.593)" fill="#263238"/>
      <path id="Path_2092" data-name="Path 2092" d="M141.3,124.555a8.652,8.652,0,0,0,.805,1.339,2.875,2.875,0,0,0,1.129.983.941.941,0,0,0,.674,0,1.381,1.381,0,0,0,.575-.392,1.689,1.689,0,0,0,.282-1.333l-.193-1.129.575.993a4.753,4.753,0,0,0,.952,1.187,1.657,1.657,0,0,0,1.276.491.957.957,0,0,0,.889-.816,2.944,2.944,0,0,0-.183-1.443l-.465-1.276.852,1.046a4.581,4.581,0,0,0,.81.779,1.825,1.825,0,0,0,.973.387.868.868,0,0,0,.795-.439,1.908,1.908,0,0,0,.078-1.046,15.127,15.127,0,0,0-.627-2.269c-.126-.376-.251-.758-.356-1.145a2.839,2.839,0,0,1-.136-1.182,3.137,3.137,0,0,0,.241,1.15c.136.371.288.737.439,1.108a12.832,12.832,0,0,1,.758,2.3,2.243,2.243,0,0,1-.052,1.281,1.223,1.223,0,0,1-1.15.7,2.217,2.217,0,0,1-1.218-.45,4.878,4.878,0,0,1-.915-.852l.387-.23a3.33,3.33,0,0,1,.235,1.7,1.385,1.385,0,0,1-.45.831,1.568,1.568,0,0,1-.852.356,2.091,2.091,0,0,1-1.621-.622,5,5,0,0,1-1.046-1.318l.382-.136a2.008,2.008,0,0,1-.439,1.626,1.7,1.7,0,0,1-.732.45,1.182,1.182,0,0,1-.858-.063,2.913,2.913,0,0,1-1.145-1.135,6.966,6.966,0,0,1-.669-1.427Z" transform="translate(-100.245 -110.102)" fill="#263238"/>
      <path id="Path_2093" data-name="Path 2093" d="M141.438,133.267s-9.971-5.1-6.065-8.016c1.156-.868,6.954-3.048,7.414-1.893.6,1.49-1.658,2.855-3.205,3.482,0,0,3.634,1.26,3.514,4.047a2.776,2.776,0,0,1-1.658,2.379Z" transform="translate(-96.984 -111.886)" fill="#ffc4c0"/>
      <path id="Path_2094" data-name="Path 2094" d="M135.61,125.287A5.673,5.673,0,0,1,137,124.3a13.466,13.466,0,0,1,1.569-.711,19.724,19.724,0,0,1,3.294-.973,3.064,3.064,0,0,1,.91-.052,1.2,1.2,0,0,1,.523.157.848.848,0,0,1,.22.183.785.785,0,0,1,.141.246,1.428,1.428,0,0,1,0,1,2.572,2.572,0,0,1-.481.8,5.1,5.1,0,0,1-1.386,1.1,11.175,11.175,0,0,1-1.569.742v-.371a7.073,7.073,0,0,1,1.176.591,6.3,6.3,0,0,1,1.046.79,4.423,4.423,0,0,1,.795,1.046,3.4,3.4,0,0,1,.413,1.218,3.875,3.875,0,0,0-.523-1.145,4.669,4.669,0,0,0-.847-.91,5.96,5.96,0,0,0-1.046-.7,6.532,6.532,0,0,0-1.135-.492l-.486-.152.471-.22a12.345,12.345,0,0,0,1.48-.763,5.108,5.108,0,0,0,1.255-1.02,1.412,1.412,0,0,0,.4-1.318c-.115-.366-.737-.35-1.265-.272s-1.088.22-1.637.356-1.088.288-1.626.46a10.933,10.933,0,0,0-3.08,1.391Z" transform="translate(-97.53 -111.66)" fill="#263238"/>
      <path id="Path_2095" data-name="Path 2095" d="M123.065,150.179c8.816,10.881,21.631,17.929,24.795,15.634s-7.5-14.311-7.681-14.489c-.622-.6-5.339-3.048-13.9-6.656C117.873,141.128,119.128,145.322,123.065,150.179Z" transform="translate(-90.089 -121.582)" fill="#ffc4c0"/>
      <path id="Path_2096" data-name="Path 2096" d="M135.53,148.494l-6.64,8.732s-5.574-5.752-8.523-9.558-2.656-6.766,3.942-4.309a82.793,82.793,0,0,1,11.221,5.135Z" transform="translate(-89.404 -121.157)" fill="#464698"/>
      <path id="Path_2097" data-name="Path 2097" d="M137.076,160.556c.81-1.192,1.658-2.363,2.525-3.508.434-.565.852-1.14,1.3-1.7s.952-1.119,1.407-1.694c.031-.042.094,0,.063.042-.418.575-.795,1.176-1.213,1.752s-.878,1.171-1.323,1.757q-1.312,1.725-2.7,3.388C137.1,160.624,137.029,160.593,137.076,160.556Z" transform="translate(-98.223 -126.49)" fill="#263238"/>
      <path id="Path_2098" data-name="Path 2098" d="M132.1,154.516l-3.179,4.183s-5.574-5.752-8.523-9.558l-.282-.371L120,148.6l-.183-.267q-.235-.345-.424-.675c-.047-.078-.089-.157-.131-.235a6.389,6.389,0,0,1-.523-1.25,3.188,3.188,0,0,1-.089-.408v-.193C121.547,147.578,128.344,151.975,132.1,154.516Z" transform="translate(-89.438 -122.641)" fill="#263238"/>
      <path id="Path_2099" data-name="Path 2099" d="M117.093,181.92s-30.259.523-30.436.335c-.471-.523,5.642-31.681,11.963-38.1,2.233-2.269,6.839-1.344,7.608-.973,1.773.858,3.44,2.708,4.837,6.139C113.857,156.179,117.475,181.428,117.093,181.92Z" transform="translate(-74.161 -121.26)" fill="#464698"/>
      <path id="Path_2100" data-name="Path 2100" d="M107.718,145.032H98.552l.047-.052a4.062,4.062,0,0,1,.706-.57h7.608a6.277,6.277,0,0,1,.805.622Zm1.009,1.046H97.689c-.146.193-.288.4-.429.622h11.948c-.152-.22-.309-.413-.444-.622Zm1.14,1.668H96.628c-.115.2-.23.413-.34.627h13.935c-.11-.214-.225-.429-.345-.627Zm.852,1.673H95.76l-.3.622H111c-.084-.214-.173-.424-.267-.617Zm.664,1.668H95l-.267.622H111.6c-.068-.193-.136-.424-.22-.622Zm.523,1.668H94.311c-.078.209-.162.413-.246.627h18.023Zm.45,1.668H93.679c-.073.209-.152.413-.225.627h19.069a5.5,5.5,0,0,1-.157-.627Zm.408,1.673H93.077c-.073.2-.141.413-.209.622H112.9Zm.376,1.668H92.554c-.068.2-.131.413-.2.622h20.957c-.073-.209-.115-.418-.162-.6Zm.356,1.668H92.032c-.068.2-.131.413-.193.627h21.825c-.068-.209-.11-.418-.157-.627Zm.34,1.668H91.509c-.063.209-.125.418-.183.627h22.667Zm.324,1.673H91.017c-.063.209-.12.413-.178.622h23.446c-.037-.209-.073-.418-.115-.622Zm.309,1.668H90.552c-.058.209-.115.418-.167.622h24.209c-.037-.209-.078-.413-.115-.622Zm.3,1.668H90.107c-.058.209-.11.418-.162.627h24.941q-.047-.314-.11-.627Zm.3,1.673H89.673c-.047.209-.1.413-.152.622h25.652c-.031-.2-.068-.413-.1-.622Zm.272,1.668H89.26c-.047.209-.1.418-.146.622h26.337c-.031-.2-.068-.413-.1-.622Zm.272,1.668H88.863c-.047.214-.094.424-.146.627h27c-.031-.209-.063-.413-.1-.627Zm.267,1.668H88.481c-.047.209-.094.424-.141.627h27.634c-.031-.2-.063-.413-.089-.627Zm.246,1.673H88.11c-.042.209-.089.418-.131.622h28.235Zm.241,1.668H87.754c-.042.214-.084.418-.125.622H116.46c-.031-.2-.058-.413-.089-.622Zm.23,1.668H87.425q-.073.324-.125.627h29.385a4.9,4.9,0,0,1-.078-.627Zm.209,1.668H87.106c-.042.22-.078.429-.115.627h29.9q-.031-.3-.078-.627Zm.193,1.673H86.8c-.037.225-.063.434-.094.622h30.327a4.457,4.457,0,0,0-.031-.622ZM86.6,182.8a.559.559,0,0,0,0,.277c.141.141,18.907-.146,26.9-.277Z" transform="translate(-74.14 -122.087)" fill="#030402" opacity="0.1"/>
      <path id="Path_2101" data-name="Path 2101" d="M88.967,148.645c-2.039,2.8-12.5,14.358-12.884,15.43s2.034,3.441,1.992,3.885c-.157,1.809-4.063,13.846-5.626,12.622-2.06-1.61-10.782-13.145-9.548-18.138s21.6-16.983,24.831-18.023S90.98,145.884,88.967,148.645Z" transform="translate(-62.782 -121.977)" fill="#ffc4c0"/>
      <path id="Path_2102" data-name="Path 2102" d="M91.73,158.791l-5.94-8.34a90.1,90.1,0,0,1,11.09-6.222c4.444-1.861,6.635-.826,2.573,4.92A100.883,100.883,0,0,1,91.73,158.791Z" transform="translate(-73.76 -121.598)" fill="#464698"/>
      <path id="Path_2103" data-name="Path 2103" d="M89.1,155.85q1.412,1.637,2.745,3.346c.439.56.884,1.114,1.307,1.684s.842,1.208,1.286,1.793c.031.042-.031.094-.063.052-.45-.523-.931-1.046-1.38-1.621s-.91-1.15-1.359-1.725c-.889-1.14-1.752-2.306-2.583-3.488C89.02,155.86,89.072,155.818,89.1,155.85Z" transform="translate(-75.311 -127.54)" fill="#263238"/>
      <path id="Path_2104" data-name="Path 2104" d="M97.122,166.589c.91-1.208,1.982-2.285,2.965-3.43s1.961-2.327,2.9-3.519c0,0,.068,0,.047.031-.434.622-.858,1.25-1.312,1.856-.225.3-.46.591-.7.884l.35-.288a13.413,13.413,0,0,1,1.114-.753s.042,0,0,.031a12.634,12.634,0,0,1-1.046.868c-.261.2-.523.382-.8.565l-.418.523a24.867,24.867,0,0,1-3.038,3.268A.034.034,0,1,1,97.122,166.589Z" transform="translate(-79.162 -129.354)" fill="#263238"/>
      <path id="Path_2105" data-name="Path 2105" d="M81.716,206.2c1.4-.946-.523-2.055-.523-2.055s3.137.931,4.183-.6-1.339-2.735-1.506-2.829c.167.052,3.075.826,3.984-.821s-1.642-2.567-1.809-2.614c.173,0,2.437-.1,2.844-1.511.7-2.421-5.809-2.7-7.21-4.183,0,0,.627-3.2.68-3.289a3.66,3.66,0,0,1-1.851,1.569c-1.407.4-2.672.627-3.242,1.3a1.851,1.851,0,0,0-.209,2.2,2.768,2.768,0,0,0-2.536,1.072c-.387.654.319,1.861.319,1.861a2.2,2.2,0,0,0-2.034,1.046,2.123,2.123,0,0,0,.3,2s-1.422.523-1.605,1.652C71.149,203.265,78.725,208.221,81.716,206.2Z" transform="translate(-66.936 -143.029)" fill="#ffc4c0"/>
      <path id="Path_2106" data-name="Path 2106" d="M74.782,209.8s-.058,0-.037.037a15.686,15.686,0,0,0,8.1,4.643c.1,0,.173-.136.068-.178A32.157,32.157,0,0,1,74.782,209.8Z" transform="translate(-68.488 -153.287)" fill="#263238"/>
      <path id="Path_2107" data-name="Path 2107" d="M77.81,203.553a.033.033,0,0,0-.042.052,14.724,14.724,0,0,0,9.155,4.512c.12,0,.241-.1.1-.125C84.681,207.637,80.111,205.352,77.81,203.553Z" transform="translate(-69.927 -150.303)" fill="#263238"/>
      <path id="Path_2108" data-name="Path 2108" d="M91.462,201.914A20.2,20.2,0,0,1,82.3,198.17c-.037,0-.068.026-.047.058a13.229,13.229,0,0,0,4.6,3.027,9.014,9.014,0,0,0,4.591.779A.061.061,0,0,0,91.462,201.914Z" transform="translate(-72.07 -147.738)" fill="#263238"/>
      <path id="Path_2109" data-name="Path 2109" d="M73.872,199.587a2.18,2.18,0,0,1-.523-2.222,1.652,1.652,0,0,1,.81-.816,2.781,2.781,0,0,1,1.333-.12,2.133,2.133,0,0,1-.037-2.416,1.631,1.631,0,0,1,1.046-.549,5.171,5.171,0,0,1,1.386.052,1.893,1.893,0,0,1-.4-1.647,2.06,2.06,0,0,1,1.255-1.375,9.933,9.933,0,0,1,2.2-.523,4.91,4.91,0,0,0,1.124-.308,2.123,2.123,0,0,0,.936-.837c.042-.063.042,0,0,.057a2.573,2.573,0,0,1-.554.659,3.331,3.331,0,0,1-.758.5,14.321,14.321,0,0,1-2.091.612,2.928,2.928,0,0,0-1.569,1.046,1.757,1.757,0,0,0-.063,1.84s0,.068-.047.063a5.129,5.129,0,0,0-1.239.146,1.673,1.673,0,0,0-.868.523,2.248,2.248,0,0,0-.1,2.238,3.66,3.66,0,0,0-1.3.335,1.647,1.647,0,0,0-.617.68,1.94,1.94,0,0,0,.2,2.024.057.057,0,0,1,0,.026h0s-.455.188-.476.188h0a3.216,3.216,0,0,1,.356-.173Z" transform="translate(-67.771 -143.267)" fill="#263238"/>
      <path id="Path_2110" data-name="Path 2110" d="M118.016,142.617c-1.663.612-4.915-1.652-6.332-3.629-.094-.136-.188-6.018-.324-7.179-.031-.241,7.514.9,7.514.9a18.661,18.661,0,0,0-.167,4.549C118.727,137.425,119.621,142.032,118.016,142.617Z" transform="translate(-85.96 -116.059)" fill="#ffc4c0"/>
      <path id="Path_2111" data-name="Path 2111" d="M118.874,132.71s-.084.486-.152,1.208c-2.091,2.567-5.448,2.839-7.153,2.782-.058-1.825-.125-4.183-.209-4.889C111.329,131.575,118.874,132.71,118.874,132.71Z" transform="translate(-85.96 -116.061)" fill="#263238"/>
      <path id="Path_2112" data-name="Path 2112" d="M108.584,107.87a4.976,4.976,0,0,0-2.9,3.336,10.067,10.067,0,0,0,.2,5.088C106.084,116.424,108.584,107.87,108.584,107.87Z" transform="translate(-83.152 -104.653)" fill="#263238"/>
      <path id="Path_2113" data-name="Path 2113" d="M118.207,109.575c.617,2.651-1.255,10.071-3.221,11.618-2.844,2.248-7.257,2.186-9.108-1.176-1.788-3.257.826-12.878,3-14.264C112.063,103.719,117.282,105.653,118.207,109.575Z" transform="translate(-83.061 -103.252)" fill="#ffc4c0"/>
      <path id="Path_2114" data-name="Path 2114" d="M115.615,121.78s.037.031.031.052c-.1.523-.141,1.114.3,1.365v.026C115.38,123.045,115.432,122.245,115.615,121.78Z" transform="translate(-87.93 -111.29)" fill="#263238"/>
      <path id="Path_2115" data-name="Path 2115" d="M116.2,120.9c.842.078.617,1.752-.157,1.678S115.495,120.83,116.2,120.9Z" transform="translate(-87.961 -110.868)" fill="#263238"/>
      <path id="Path_2116" data-name="Path 2116" d="M109.487,120.79a.047.047,0,0,0-.047.042c-.047.523-.188,1.1-.68,1.218v.031C109.346,122.071,109.523,121.287,109.487,120.79Z" transform="translate(-84.72 -110.818)" fill="#263238"/>
      <path id="Path_2117" data-name="Path 2117" d="M108.682,119.629c-.826-.167-1.1,1.5-.335,1.652S109.372,119.77,108.682,119.629Z" transform="translate(-84.307 -110.258)" fill="#263238"/>
      <path id="Path_2118" data-name="Path 2118" d="M114.584,130.041c-.136.11-.277.267-.465.267a1.385,1.385,0,0,1-.549-.178.69.69,0,0,0,.633.34.523.523,0,0,0,.45-.424S114.605,130.014,114.584,130.041Z" transform="translate(-87.015 -115.226)" fill="#263238"/>
      <path id="Path_2119" data-name="Path 2119" d="M110.075,120.9s-.22.753-.272,1.119a7.461,7.461,0,0,1,2.055.612c.152.073.173-.058,0-.193a3.137,3.137,0,0,0-1.7-.69c0-.1.361-1.156.3-1.171a3.07,3.07,0,0,0-.842.068c.408-1.569,1.046-3.1,1.454-4.706,0-.058-.068-.089-.094-.042a26.919,26.919,0,0,0-1.778,4.978C109.128,121.107,109.918,120.945,110.075,120.9Z" transform="translate(-84.926 -108.473)" fill="#263238"/>
      <path id="Path_2120" data-name="Path 2120" d="M117.091,118.564a4.7,4.7,0,0,1-.523-.418,1.2,1.2,0,0,1-.465-.523.34.34,0,0,1,.188-.382.858.858,0,0,1,.858.193,1.255,1.255,0,0,1,.523.758.371.371,0,0,1-.58.371Z" transform="translate(-88.219 -109.104)" fill="#263238"/>
      <path id="Path_2121" data-name="Path 2121" d="M108.326,115.116c.23-.037.439-.1.664-.157a1.088,1.088,0,0,0,.648-.288.356.356,0,0,0,0-.429.873.873,0,0,0-.863-.183,1.281,1.281,0,0,0-.795.471.376.376,0,0,0,.345.586Z" transform="translate(-84.317 -107.585)" fill="#263238"/>
      <path id="Path_2122" data-name="Path 2122" d="M117.479,114.378c-1.537-.152-.7-6.933-.7-6.933a9.841,9.841,0,0,1-2.944.523,13.339,13.339,0,0,1-3-.45,17.33,17.33,0,0,1,2.567-.863s-6.829.6-7.059-.69c-.084-.444,1.187-4.491,6.855-4.235,4.183.188,6.133,4.559,6.133,4.559s2.034,2.264,1.684,3.289C120.422,111.376,119.11,114.54,117.479,114.378Z" transform="translate(-83.566 -101.718)" fill="#263238"/>
      <path id="Path_2123" data-name="Path 2123" d="M125.3,124.443s1.908-2.28,2.959-1.569-.523,4.1-1.872,4.476a1.323,1.323,0,0,1-1.7-.863Z" transform="translate(-92.32 -111.747)" fill="#ffc4c0"/>
      <path id="Path_2124" data-name="Path 2124" d="M128.422,124.82v.037a3.325,3.325,0,0,0-1.9,1.924.732.732,0,0,1,1.1-.1.031.031,0,0,1-.031.047.821.821,0,0,0-.915.2,3.957,3.957,0,0,0-.486.685c-.052.078-.193,0-.152-.068h0C126.132,126.362,127.172,124.825,128.422,124.82Z" transform="translate(-92.962 -112.74)" fill="#263238"/>
      <path id="Path_2125" data-name="Path 2125" d="M161.781,161.321c4.246-3.278.188-19.921-2.28-26.049-.727-1.8-12.256,1.569-11.718,3.592C150.863,150.309,157.132,164.913,161.781,161.321Z" transform="translate(-103.33 -117.482)" fill="#ffc4c0"/>
      <path id="Path_2126" data-name="Path 2126" d="M151.45,154.62l1.271,3.137c.434,1.046.857,2.092,1.328,3.137s.926,2.055,1.407,3.074,1.014,2.018,1.537,3.022a26.852,26.852,0,0,1-1.8-2.881c-.523-1-1.046-2.023-1.5-3.059s-.873-2.091-1.25-3.169S151.738,155.723,151.45,154.62Z" transform="translate(-105.088 -126.959)" fill="#263238"/>
    </g>
    <g id="freepik--speech-bubble--inject-11" transform="translate(90.394 35.177)">
      <path id="Path_2127" data-name="Path 2127" d="M144.561,88.858a2.986,2.986,0,1,1-1.054-2.031A2.986,2.986,0,0,1,144.561,88.858Z" transform="translate(-134.486 -59.487)" fill="#fff"/>
      <path id="Path_2128" data-name="Path 2128" d="M144.1,88.748a3.273,3.273,0,1,1-3.231-2.85A3.137,3.137,0,0,1,144.1,88.748Zm0,0a2.86,2.86,0,1,0-.7,2.136A2.86,2.86,0,0,0,144.1,88.748Z" transform="translate(-134.027 -59.377)" fill="#263238"/>
      <path id="Path_2129" data-name="Path 2129" d="M134.551,100.49a1.657,1.657,0,1,1-.584-1.133A1.663,1.663,0,0,1,134.551,100.49Z" transform="translate(-130.97 -65.614)" fill="#fff"/>
      <path id="Path_2130" data-name="Path 2130" d="M134.312,100.377A1.793,1.793,0,1,1,132.5,98.73a1.793,1.793,0,0,1,1.809,1.647Zm0,0a1.537,1.537,0,1,0-1.359,1.658A1.532,1.532,0,0,0,134.312,100.377Z" transform="translate(-130.731 -65.5)" fill="#263238"/>
      <path id="Path_2131" data-name="Path 2131" d="M163.371,50.778a8.727,8.727,0,0,1-7.6,9.71,8.633,8.633,0,0,1-4.444-.622,7.32,7.32,0,0,1-11.634,0,6.071,6.071,0,0,1-.983.2,5.929,5.929,0,0,1-5.569-9.3,8.722,8.722,0,0,1,11.738-12.617,7.32,7.32,0,0,1,12.549,1.992,4.564,4.564,0,0,1,.941-.209,4.79,4.79,0,0,1,4.136,7.953,8.591,8.591,0,0,1,.868,2.886Z" transform="translate(-130.99 -35.295)" fill="#fff"/>
      <path id="Path_2132" data-name="Path 2132" d="M163.127,50.661a8.852,8.852,0,0,1-1.773,6.437,9.176,9.176,0,0,1-1.621,1.595,8.831,8.831,0,0,1-8.68,1.129h.084a7.409,7.409,0,0,1-5.882,2.949,7.487,7.487,0,0,1-3.31-.758,7.692,7.692,0,0,1-2.641-2.154l.188.063a6.154,6.154,0,0,1-3.723-.052,6.092,6.092,0,0,1-3.017-2.2,6.61,6.61,0,0,1-.863-1.689,6.352,6.352,0,0,1-.308-1.872,6.18,6.18,0,0,1,1.108-3.587v.293A8.916,8.916,0,0,1,144.716,37.9l-.23.031a7.448,7.448,0,0,1,12.763,2.086l-.068-.037a4.873,4.873,0,0,1,3.137.042,4.805,4.805,0,0,1,1.94,7.754h0A8.539,8.539,0,0,1,163.127,50.661Zm0,0a8.555,8.555,0,0,0-.889-2.881h0a4.754,4.754,0,0,0-5.025-7.707h-.052v-.052a7.32,7.32,0,0,0-2.222-3.033,7.169,7.169,0,0,0-3.441-1.506,7.268,7.268,0,0,0-3.718.418,7.163,7.163,0,0,0-2.986,2.227l-.1.125-.136-.094a8.518,8.518,0,0,0-11.446,12.319l.115.146-.11.152a5.684,5.684,0,0,0-1.046,3.3,6.081,6.081,0,0,0,.277,1.731,5.894,5.894,0,0,0,.79,1.569,5.752,5.752,0,0,0,6.274,2.18l.12-.031.068.094a7.32,7.32,0,0,0,2.5,2.091,7.2,7.2,0,0,0,8.941-2.008l.037-.047h.052a8.612,8.612,0,0,0,4.429.648,8.789,8.789,0,0,0,4.183-1.678,9.087,9.087,0,0,0,1.621-1.569A9.214,9.214,0,0,0,162.52,55.1,8.832,8.832,0,0,0,163.127,50.661Z" transform="translate(-130.746 -35.177)" fill="#263238"/>
      <path id="Path_2133" data-name="Path 2133" d="M162.475,55.934a4.879,4.879,0,0,1,.335-1.861,3.069,3.069,0,0,1,1.4-1.438c.214-.131.471-.272.784-.434a6.275,6.275,0,0,0,.9-.58,3.388,3.388,0,0,0,.753-.795,1.835,1.835,0,0,0,.309-1.046,1.715,1.715,0,0,0-.173-.784,1.767,1.767,0,0,0-.444-.57,1.814,1.814,0,0,0-.643-.345,2.457,2.457,0,0,0-.748-.12,2.091,2.091,0,0,0-.847.162,2.939,2.939,0,0,0-.685.4,3.237,3.237,0,0,0-.523.554,5.539,5.539,0,0,0-.413.58l-1.841-1.271a4.183,4.183,0,0,1,.732-1.161,4.314,4.314,0,0,1,1.025-.863,4.946,4.946,0,0,1,1.255-.523,5.381,5.381,0,0,1,1.4-.178,5.663,5.663,0,0,1,1.569.23,4.089,4.089,0,0,1,1.407.742,3.827,3.827,0,0,1,1.014,1.3,4.3,4.3,0,0,1,.387,1.893,4.115,4.115,0,0,1-.157,1.192,3.274,3.274,0,0,1-.455.941,4.01,4.01,0,0,1-.7.763,7.545,7.545,0,0,1-.91.654l-.847.486a5.192,5.192,0,0,0-.769.523,2.41,2.41,0,0,0-.58.654,1.689,1.689,0,0,0-.225.9Zm.042,4.925V57.942h2.342V60.86Z" transform="translate(-145.002 -40.179)" fill="#464698"/>
      <path id="Path_2134" data-name="Path 2134" d="M149.009,50.48a4.706,4.706,0,0,1,.052,1.888,3.048,3.048,0,0,1-1.046,1.694c-.183.167-.408.361-.68.586a6.5,6.5,0,0,0-.769.753,3.352,3.352,0,0,0-.57.931,1.825,1.825,0,0,0-.084,1.088,1.657,1.657,0,0,0,.324.727,1.762,1.762,0,0,0,.554.471,1.825,1.825,0,0,0,.7.209,2.614,2.614,0,0,0,.758-.042,2.128,2.128,0,0,0,.795-.329,3.047,3.047,0,0,0,.591-.523,3.184,3.184,0,0,0,.424-.654,6.021,6.021,0,0,0,.282-.654l2.06.868a4.046,4.046,0,0,1-.476,1.286,4.381,4.381,0,0,1-.837,1.046,4.956,4.956,0,0,1-1.119.774,5.328,5.328,0,0,1-1.328.46,5.453,5.453,0,0,1-1.6.1,3.953,3.953,0,0,1-1.527-.434,3.9,3.9,0,0,1-1.26-1.046,4.675,4.675,0,0,1-.863-2.975,3.252,3.252,0,0,1,.251-1.009,3.911,3.911,0,0,1,.523-.889,7.733,7.733,0,0,1,.753-.831c.241-.22.486-.439.727-.648a4.842,4.842,0,0,0,.633-.685,2.531,2.531,0,0,0,.424-.758,1.71,1.71,0,0,0,.031-.925Zm-1.046-4.81.6,2.855-2.3.481-.6-2.855Z" transform="translate(-136.769 -40.184)" fill="#464698"/>
    </g>
  </g>
</svg>
