<svg xmlns="http://www.w3.org/2000/svg" width="236.195" height="236.195" viewBox="0 0 236.195 236.195">
  <g id="الانتظار" transform="translate(-8.104 -18.099)">
    <g id="freepik--Shadows--inject-24" transform="translate(11.207 208.396)">
      <ellipse id="Ellipse_73" data-name="Ellipse 73" cx="71.746" cy="9.671" rx="71.746" ry="9.671" transform="translate(43.245)" fill="#f1f1f9"/>
      <ellipse id="Ellipse_74" data-name="Ellipse 74" cx="20.143" cy="3.989" rx="20.143" ry="3.989" transform="translate(180.225 5.81)" fill="#f1f1f9"/>
      <ellipse id="Ellipse_75" data-name="Ellipse 75" cx="75.193" cy="8.807" rx="75.193" ry="8.807" transform="translate(0 11.014)" fill="#f1f1f9"/>
    </g>
    <g id="freepik--Floor--inject-24" transform="translate(20.453 206.004)">
      <path id="Path_1919" data-name="Path 1919" d="M33.4,403.234l26.436-.117,26.436-.044,52.872-.083,52.872.083,26.436.044,26.436.117-26.436.122-26.436.039-52.872.083L86.272,403.4l-26.436-.039Z" transform="translate(-33.4 -402.99)" fill="#263238"/>
    </g>
    <g id="freepik--Clock--inject-24" transform="translate(8.104 18.099)">
      <path id="Path_1920" data-name="Path 1920" d="M135.372,389.23l-6.962,18.781h8.173L151.717,397.7Z" transform="translate(-69.676 -208.042)" fill="#464698"/>
      <path id="Path_1921" data-name="Path 1921" d="M135.372,389.23l-6.962,18.781h8.173L151.717,397.7Z" transform="translate(-69.676 -208.042)" opacity="0.1"/>
      <path id="Path_1922" data-name="Path 1922" d="M340.2,389.23l6.962,18.781h-8.172L323.85,397.7Z" transform="translate(-169.702 -208.042)" fill="#464698"/>
      <path id="Path_1923" data-name="Path 1923" d="M340.2,389.23l6.962,18.781h-8.172L323.85,397.7Z" transform="translate(-169.702 -208.042)" opacity="0.1"/>
      <circle id="Ellipse_76" data-name="Ellipse 76" cx="83.507" cy="83.507" r="83.507" transform="translate(0 118.098) rotate(-45)" fill="#464698"/>
      <circle id="Ellipse_77" data-name="Ellipse 77" cx="79.685" cy="79.685" r="79.685" transform="translate(37.395 37.041)" opacity="0.1"/>
      <circle id="Ellipse_78" data-name="Ellipse 78" cx="74.651" cy="74.651" r="74.651" transform="translate(12.521 117.743) rotate(-45)" fill="#fff"/>
      <path id="Path_1924" data-name="Path 1924" d="M251.106,174.121c-33.994,20.6-89.864,54.386-121.074,72.908a74.7,74.7,0,0,1-20.4-27.432L212.9,123.88a74.724,74.724,0,0,1,38.207,50.241Z" transform="translate(-60.065 -72.237)" fill="#f1f1f9"/>
      <path id="Path_1925" data-name="Path 1925" d="M287.692,264.58a74,74,0,0,1-4.936,24.259L189.671,332.87a73.9,73.9,0,0,1-11.761-5.053C206.016,311.565,257.414,281.994,287.692,264.58Z" transform="translate(-95.01 -144.247)" fill="#f1f1f9"/>
      <rect id="Rectangle_1441" data-name="Rectangle 1441" width="1.44" height="11.317" transform="translate(117.372 48.508)" fill="#dadaff"/>
      <rect id="Rectangle_1442" data-name="Rectangle 1442" width="1.445" height="11.317" transform="translate(82.855 58.137) rotate(-30)" fill="#dadaff"/>
      <rect id="Rectangle_1443" data-name="Rectangle 1443" width="1.44" height="11.317" transform="translate(57.775 83.738) rotate(-60)" fill="#dadaff"/>
      <rect id="Rectangle_1444" data-name="Rectangle 1444" width="11.317" height="1.44" transform="translate(48.862 117.018)" fill="#dadaff"/>
      <rect id="Rectangle_1445" data-name="Rectangle 1445" width="11.317" height="1.44" transform="translate(57.767 151.737) rotate(-30)" fill="#dadaff"/>
      <rect id="Rectangle_1446" data-name="Rectangle 1446" width="11.317" height="1.445" transform="translate(82.858 177.35) rotate(-60.03)" fill="#dadaff"/>
      <rect id="Rectangle_1447" data-name="Rectangle 1447" width="1.44" height="11.317" transform="translate(117.372 175.656)" fill="#dadaff"/>
      <rect id="Rectangle_1448" data-name="Rectangle 1448" width="1.445" height="11.317" transform="translate(146.431 168.257) rotate(-30)" fill="#dadaff"/>
      <rect id="Rectangle_1449" data-name="Rectangle 1449" width="1.44" height="11.317" transform="translate(167.889 147.31) rotate(-60)" fill="#dadaff"/>
      <rect id="Rectangle_1450" data-name="Rectangle 1450" width="11.317" height="1.44" transform="translate(176.01 117.018)" fill="#c7c7c7"/>
      <rect id="Rectangle_1451" data-name="Rectangle 1451" width="11.317" height="1.44" transform="translate(167.892 88.171) rotate(-30)" fill="#dadaff"/>
      <rect id="Rectangle_1452" data-name="Rectangle 1452" width="11.317" height="1.445" transform="translate(146.437 67.233) rotate(-60.03)" fill="#c7c7c7"/>
      <path id="Path_1926" data-name="Path 1926" d="M314.755,255.938l-72.405,2.021.088-7.079,72.337,3.134Z" transform="translate(-127.99 -137.235)" fill="#464698"/>
      <path id="Path_1927" data-name="Path 1927" d="M246.88,154.954l3.134,55.1-7.084-.093,2.031-55.03Z" transform="translate(-128.287 -88.129)" fill="#263238"/>
      <circle id="Ellipse_79" data-name="Ellipse 79" cx="2.417" cy="2.417" r="2.417" transform="translate(115.678 115.324)" fill="#464698"/>
    </g>
    <g id="freepik--Character--inject-24" transform="translate(120.44 70.989)">
      <path id="Path_1928" data-name="Path 1928" d="M350.1,238.047c-.269-.81-14.646-19.8-15.623-20.158-.112-.049-6.532,4.521-6.532,4.521-.268.351-12.474-2.226-12.474-2.226l-.122,14.724,22.238-.488s3,1.767,5.751,3.207h0a32.941,32.941,0,0,0,3.613,1.753C348.079,239.683,350.374,238.853,350.1,238.047Z" transform="translate(-277.687 -173.241)" fill="#ffc4c0"/>
      <path id="Path_1929" data-name="Path 1929" d="M356.972,239.395a31.582,31.582,0,0,1-3.613-1.753h0c-2.749-1.465-5.751-3.207-5.751-3.207l-4.95.107-7.758-12.5a11.975,11.975,0,0,0,3.056.371s6.42-4.574,6.532-4.521c.976.361,15.349,19.343,15.622,20.158S358.085,239.683,356.972,239.395Z" transform="translate(-287.693 -173.241)" fill="#fff"/>
      <path id="Path_1930" data-name="Path 1930" d="M363.442,238.069c-.283-.83-14.714-19.8-15.725-20.177-.381-.146-3.52,1.8-6.557,4.516l9.315,12.205s8.6,4.555,9.764,4.848S363.725,238.9,363.442,238.069Z" transform="translate(-290.897 -173.239)" fill="#dadaff"/>
      <path id="Path_1931" data-name="Path 1931" d="M369.609,239.679c-2.5-3.12-12.278-15.94-14.509-19.216h0c2.539,3.037,12.205,15.94,14.539,19.191C369.7,239.708,369.663,239.752,369.609,239.679Z" transform="translate(-298.031 -174.545)" fill="#263238"/>
      <path id="Path_1932" data-name="Path 1932" d="M376.17,255.956a3.193,3.193,0,0,1-.669-2.49,3.09,3.09,0,0,1,1.157-2.007s.044,0,.029.039a3.705,3.705,0,0,0-.488,4.428.024.024,0,1,1-.029.029Z" transform="translate(-308.453 -190.423)" fill="#263238"/>
      <path id="Path_1933" data-name="Path 1933" d="M361.028,248.8a5.607,5.607,0,0,1-1.221-4.662c0-.063.107-.034.112,0a22.06,22.06,0,0,0,1.284,4.55.1.1,0,0,1-.176.112Z" transform="translate(-300.371 -186.658)" fill="#263238"/>
      <path id="Path_1934" data-name="Path 1934" d="M363.348,250.217a5.6,5.6,0,0,1-1.22-4.657c0-.063.1-.039.112,0a22.314,22.314,0,0,0,1.279,4.545.1.1,0,0,1-.171.112Z" transform="translate(-301.558 -187.383)" fill="#263238"/>
      <path id="Path_1935" data-name="Path 1935" d="M365.658,251.635a5.607,5.607,0,0,1-1.221-4.662c0-.059.107-.034.117,0a21.7,21.7,0,0,0,1.279,4.545.106.106,0,0,1-.176.117Z" transform="translate(-302.74 -188.108)" fill="#263238"/>
      <path id="Path_1936" data-name="Path 1936" d="M367.978,253.077a5.6,5.6,0,0,1-1.22-4.657c0-.063.1-.039.112,0a22.314,22.314,0,0,0,1.279,4.545.1.1,0,0,1-.171.112Z" transform="translate(-303.928 -188.847)" fill="#263238"/>
      <path id="Path_1937" data-name="Path 1937" d="M349.876,224.521a1.4,1.4,0,0,1,2.226-1.684A1.4,1.4,0,0,1,349.876,224.521Z" transform="translate(-295.209 -175.494)" fill="#263238"/>
      <path id="Path_1938" data-name="Path 1938" d="M358.392,254.124a13.846,13.846,0,0,0,.063-4.213.2.2,0,0,0-.278-.151.039.039,0,0,0-.064,0,8.427,8.427,0,0,0-2.378,3.632c-.254.82-.156,2.031.869,2.27S358.182,254.92,358.392,254.124Zm-1.011.859c-1.465.928-1.367-1.128-1.157-1.728a9.564,9.564,0,0,1,.488-1.118,25.015,25.015,0,0,1,1.338-2.148c0,.679.039,1.357.054,2.036C358.138,252.835,358.2,254.476,357.381,254.984Z" transform="translate(-298.296 -189.543)" fill="#263238"/>
      <path id="Path_1939" data-name="Path 1939" d="M351.613,241.407c-.757.732-.215,1.816.425,2.387a8.392,8.392,0,0,0,3.906,1.889.044.044,0,0,0,.049-.044.2.2,0,0,0,.161-.273,14.016,14.016,0,0,0-2.226-3.579C353.346,241.217,352.336,240.714,351.613,241.407Zm3.168,2.319c.337.591.644,1.2,1.006,1.772a25.23,25.23,0,0,1-2.26-1.152,9.473,9.473,0,0,1-1.006-.7c-.488-.4-1.645-2.109.1-2.08.976.02,1.767,1.455,2.172,2.158Z" transform="translate(-296.058 -185.105)" fill="#263238"/>
      <path id="Path_1940" data-name="Path 1940" d="M275.32,209.695h-9.979s-10.443-5.019-18.85-3c-9.642,2.319-10.877,14.426-3.671,18.708,9.134,5.424,49.763,4.394,49.763,4.394L283.8,214.9s-13.513-2.841-25.767-2.441l17.287,2.358Z" transform="translate(-238.204 -167.268)" fill="#455a64"/>
      <path id="Path_1941" data-name="Path 1941" d="M298.836,221.471a.439.439,0,0,1,0-.078v-.063a.847.847,0,0,0-.034-.142c-.01-.049-.068-.2-.1-.293a2.94,2.94,0,0,0-.127-.283,1.811,1.811,0,0,0-.161-.264h-.024c-1.489-.278-11.585-1.723-13.084-1.894s-3.032-.312-4.55-.439a90.061,90.061,0,0,0-9.11-.327h-.854a.854.854,0,0,1-.186-.044l-.439-.1c-.273-.049-.552-.093-.825-.132-.576-.088-1.152-.151-1.728-.259-.034,0-.044.049,0,.054.576.132,1.138.3,1.714.42l.488.107c-1.113.059-2.226.146-3.339.244-.034,0-.034.059,0,.059,1.513-.093,3.042-.1,4.555-.078s3.007.059,4.511.146c3.042.176,6.078.444,9.105.762,1.7.181,12,1.679,13.7,1.753h.024a1.139,1.139,0,0,0,.044.117l.146.278c.049.088.1.171.151.254l.083.127.044.059a.273.273,0,0,1,.044.063C298.885,221.534,298.861,221.471,298.836,221.471Z" transform="translate(-252.659 -172.863)" fill="#263238"/>
      <path id="Path_1942" data-name="Path 1942" d="M334.7,238.32c-.537-.869-1.025-1.772-1.513-2.695s-.976-1.8-1.5-2.7c-1-1.792-4.584-7.811-4.941-8.246,0-.024-.068,0-.059.034.171.488,2.412,4.462,2.929,5.37,1.03,1.782,2.114,3.525,3.183,5.287.3.488.62.976.928,1.494s.639.976.923,1.5C334.652,238.379,334.72,238.349,334.7,238.32Z" transform="translate(-283.49 -176.712)" fill="#263238"/>
      <path id="Path_1943" data-name="Path 1943" d="M297.134,223.609c-.893-.22-1.811-.356-2.719-.527l-2.724-.513-5.458-.976c-3.637-.615-7.289-1.123-10.96-1.465-2.07-.2-4.145-.327-6.225-.488-.044,0-.039.063,0,.068,3.7.166,7.387.664,11.048,1.191s7.24,1.094,10.853,1.7l3.056.522c1.035.181,2.07.4,3.11.532C297.158,223.673,297.178,223.614,297.134,223.609Z" transform="translate(-253.974 -174.137)" fill="#263238"/>
      <path id="Path_1944" data-name="Path 1944" d="M323.376,324.325c-.874-.088-22.638-9.871-23.234-10.77-.225-.337,1.016-3.588,2.622-7.479.352-.84.713-1.7,1.089-2.578,2.441-5.692,5.131-11.678,5.131-11.678l14.578,6.5-5.531,11.5-1.211,2.524s6.654,7.469,7.2,8.524S324.255,324.412,323.376,324.325Z" transform="translate(-269.891 -211.079)" fill="#ffc4c0"/>
      <path id="Path_1945" data-name="Path 1945" d="M323.376,336.567c-.874-.088-22.638-9.871-23.234-10.77-.273-.41,1.611-5.126,3.71-10.057l14.158,6.322-1.211,2.524s6.654,7.47,7.2,8.524S324.255,336.655,323.376,336.567Z" transform="translate(-269.89 -223.321)" fill="#fff"/>
      <path id="Path_1946" data-name="Path 1946" d="M323.376,339.269c-.874-.088-22.638-9.871-23.234-10.77-.225-.337,1.016-3.588,2.622-7.479l14.055,6.269s6.654,7.469,7.2,8.524S324.255,339.357,323.376,339.269Z" transform="translate(-269.891 -226.023)" fill="#dadaff"/>
      <path id="Path_1947" data-name="Path 1947" d="M324.814,346.058c-3.608-1.728-18.327-8.363-22.023-9.8h0c3.539,1.792,18.313,8.3,22.008,9.837C324.848,346.151,324.887,346.092,324.814,346.058Z" transform="translate(-271.246 -233.823)" fill="#263238"/>
      <path id="Path_1948" data-name="Path 1948" d="M342.452,348.1a3.212,3.212,0,0,0-2.583-.088,3.086,3.086,0,0,0-1.689,1.582s.029.039.044,0a3.705,3.705,0,0,1,4.208-1.465.024.024,0,0,0,.02-.029Z" transform="translate(-289.372 -239.719)" fill="#263238"/>
      <path id="Path_1949" data-name="Path 1949" d="M331.813,335.248a5.583,5.583,0,0,0-4.819-.132c-.059.029,0,.107.039.1a22.21,22.21,0,0,1,4.726.225.1.1,0,0,0,.054-.2Z" transform="translate(-283.634 -232.987)" fill="#263238"/>
      <path id="Path_1950" data-name="Path 1950" d="M333.715,337.185a5.584,5.584,0,0,0-4.819-.137c-.054.034,0,.112.044.107a22.157,22.157,0,0,1,4.721.22.1.1,0,1,0,.054-.19Z" transform="translate(-284.609 -233.976)" fill="#263238"/>
      <path id="Path_1951" data-name="Path 1951" d="M335.623,339.123a5.567,5.567,0,0,0-4.819-.137c-.059.029,0,.112.039.107a22.144,22.144,0,0,1,4.721.22.1.1,0,0,0,.059-.19Z" transform="translate(-285.584 -234.968)" fill="#263238"/>
      <path id="Path_1952" data-name="Path 1952" d="M337.525,341.063a5.567,5.567,0,0,0-4.819-.137c-.054.029,0,.107.044.107a22.153,22.153,0,0,1,4.721.22.1.1,0,0,0,.054-.19Z" transform="translate(-286.559 -235.961)" fill="#263238"/>
      <path id="Path_1953" data-name="Path 1953" d="M305.877,329.863a1.4,1.4,0,0,0-1.138,2.553A1.4,1.4,0,0,0,305.877,329.863Z" transform="translate(-271.847 -230.482)" fill="#263238"/>
      <path id="Path_1954" data-name="Path 1954" d="M338.03,328.66c-.464-.947-1.665-.766-2.407-.337a8.383,8.383,0,0,0-3,3.139.039.039,0,0,0,.024.063.2.2,0,0,0,.21.234,13.857,13.857,0,0,0,4.1-1.015C337.683,330.359,338.469,329.554,338.03,328.66Zm-3.188,2.295c-.664.142-1.338.249-2,.415.586-.61,1.147-1.245,1.792-1.8a9.577,9.577,0,0,1,.976-.747c.537-.337,2.519-.913,1.953.742C337.249,330.477,335.638,330.789,334.842,330.955Z" transform="translate(-286.522 -229.582)" fill="#263238"/>
      <path id="Path_1955" data-name="Path 1955" d="M323.544,330a14.521,14.521,0,0,0,3.993,1.362c.137.039.234-.1.229-.22a.039.039,0,0,0,.029-.059,8.367,8.367,0,0,0-2.724-3.383c-.7-.488-1.884-.776-2.441.127S322.851,329.563,323.544,330Zm-.513-1.23c-.425-1.694,1.5-.952,2.007-.566a9.674,9.674,0,0,1,.908.825,24.758,24.758,0,0,1,1.635,1.953c-.644-.22-1.3-.386-1.953-.581C324.847,330.153,323.265,329.7,323.031,328.767Z" transform="translate(-281.316 -229.206)" fill="#263238"/>
      <path id="Path_1956" data-name="Path 1956" d="M308.45,258.667l16.379,7.411s19.528-37.455,20.016-48.923c.435-9.764-6.347-13.523-28.316-7.211l-5.37.068v3.71c2.358.312,8.661,1.3,8.661,1.3,4.584,1.728,6.059,2.441,5.985,2.592A353.509,353.509,0,0,0,308.45,258.667Z" transform="translate(-274.156 -167.585)" fill="#455a64"/>
      <path id="Path_1957" data-name="Path 1957" d="M332.427,219.978c-.659.884-1.274,1.8-1.86,2.739a39.341,39.341,0,0,0-11.17-2.929q-1.616-.2-3.251-.288a.034.034,0,0,0,0,.068,49.009,49.009,0,0,1,11.37,2.129c1.02.312,2.021.679,3.027,1.04-.7,1.128-1.367,2.28-2,3.442a68.434,68.434,0,0,0-3.208,6.713c-.527,1.264-1.04,2.539-1.494,3.832,0,.039.049.063.063.024q3.012-6.7,6.561-13.113c.669-1.206,1.367-2.4,2.021-3.613C332.505,219.988,332.451,219.949,332.427,219.978Z" transform="translate(-278.078 -174.066)" fill="#263238"/>
      <path id="Path_1958" data-name="Path 1958" d="M327.5,313.6c-.976-.376-1.884-.84-2.822-1.26l-2.817-1.264c-1.87-.84-8.353-3.525-8.89-3.652a.036.036,0,0,0-.024.064c.415.268,4.6,2.129,5.541,2.534,1.894.81,3.8,1.562,5.712,2.334.547.22,1.094.425,1.64.644s1.1.41,1.635.649C327.508,313.659,327.528,313.606,327.5,313.6Z" transform="translate(-276.449 -219.063)" fill="#263238"/>
      <path id="Path_1959" data-name="Path 1959" d="M333.044,223.955c-1.294,2.441-2.4,5.033-3.52,7.572s-2.207,5.072-3.266,7.626Q323.1,246.788,320.4,254.6c-1.03,2.929-1.992,5.907-2.929,8.88,0,.039.054.059.068,0,1.738-5.258,3.618-10.467,5.585-15.623s4.042-10.282,6.244-15.344q.928-2.129,1.884-4.252c.639-1.416,1.3-2.822,1.9-4.252C333.156,223.921,333.073,223.872,333.044,223.955Z" transform="translate(-278.772 -176.324)" fill="#263238"/>
      <path id="Path_1960" data-name="Path 1960" d="M293.962,185.936c.371.366,23.165.146,23.278,0,.3-.4-3.115-14.763-5.678-20.212-3.281-6.981-5.014-7.562-6.054-7.953a8.065,8.065,0,0,0-4.262-.034,15.057,15.057,0,0,0-4.135,6.146C295.573,169.088,293.635,185.614,293.962,185.936Z" transform="translate(-266.722 -142.318)" fill="#464698"/>
      <path id="Path_1961" data-name="Path 1961" d="M321.609,160.158c10.062,7.059,18.893,17.029,18.181,20.3-.752,3.456-7.416,7.518-13.387,8.495-1.22.2-5.317-8.68-4.072-9.139.976-.352,5.37-1.762,5.9-2.392.356-.439-6.874-9.94-9.276-14.949C316.409,157.233,318.924,158.268,321.609,160.158Z" transform="translate(-278.991 -142.908)" fill="#ffc4c0"/>
      <path id="Path_1962" data-name="Path 1962" d="M315.172,201.31s-3.735.488-6.166.937a15.114,15.114,0,0,0-4.55,1.513c-1.362.952-6.464,5.8-5.312,7.064,1.04,1.142,2.49-.766,2.49-.766s-1.782,1.953-.4,2.749,3.042-1.845,3.042-1.845-2.036,1.924-.488,2.656c1.347.635,3.583-2.236,3.583-2.236s-2.358,1.787-1.04,2.573c1.465.869,5.37-3.012,5.37-3.012a17.683,17.683,0,0,0,7.426-.737C319.526,210.073,315.172,201.31,315.172,201.31Z" transform="translate(-269.307 -164.756)" fill="#ffc4c0"/>
      <path id="Path_1963" data-name="Path 1963" d="M308.367,218.4l.425-.605a12.453,12.453,0,0,1,.859-1.157c.308-.352.63-.688.976-1.02s.742-.659,1.084-1.016a.029.029,0,1,1,.039.039,13.763,13.763,0,0,0-.976,1.1l-.913,1.108c-.3.366-.615.7-.923,1.059-.151.176-.3.361-.439.542a4.306,4.306,0,0,1-.425.513l-.034-.024A3.385,3.385,0,0,1,308.367,218.4Z" transform="translate(-273.946 -171.551)" fill="#263238"/>
      <path id="Path_1964" data-name="Path 1964" d="M303.676,215.824a18.708,18.708,0,0,1,1.548-2.177,13.358,13.358,0,0,1,1.919-1.87.029.029,0,0,1,.039.039c-.576.688-1.162,1.367-1.743,2.041-.288.332-1.538,1.88-1.689,2.026C303.71,215.917,303.656,215.863,303.676,215.824Z" transform="translate(-271.71 -170.112)" fill="#263238"/>
      <path id="Path_1965" data-name="Path 1965" d="M313.387,220.858a19.04,19.04,0,0,1,1.494-2.021,16.711,16.711,0,0,1,1.953-1.66.029.029,0,0,1,.039.039c-.61.6-1.23,1.186-1.806,1.821-.283.308-1.338,1.6-1.635,1.865C313.416,220.926,313.372,220.892,313.387,220.858Z" transform="translate(-276.681 -172.875)" fill="#263238"/>
      <path id="Path_1966" data-name="Path 1966" d="M332.432,168.6l-7.323,5.092s-5.829-8.412-7.4-12.435.107-4.086,4.13-1.264S332.432,168.6,332.432,168.6Z" transform="translate(-278.596 -142.61)" fill="#464698"/>
      <path id="Path_1967" data-name="Path 1967" d="M338.5,177.546a61.3,61.3,0,0,1-6.093,4.394c-.024,0-.054-.024-.024-.044.557-.361,3.535-2.7,6.088-4.394C338.5,177.478,338.538,177.522,338.5,177.546Z" transform="translate(-286.4 -152.568)" fill="#263238"/>
      <path id="Path_1968" data-name="Path 1968" d="M328.293,180.812a3.518,3.518,0,0,0-.444.249c-.879-1.406-1.821-2.832-2.714-4.233-.435-.683-.874-1.367-1.308-2.055s-.869-1.465-1.362-2.153h-.034a22.657,22.657,0,0,0,1.089,2,3.61,3.61,0,0,0-.244-.3c-.19-.215-.376-.43-.552-.654-.029-.039-.088,0-.059.034.166.22.317.444.464.674a7.78,7.78,0,0,0,.488.669c.176.22.327.41.488.61l.063.073c.239.41.488.82.727,1.225.879,1.416,2.866,4.262,2.89,4.252a4.1,4.1,0,0,0,.527-.376S328.318,180.807,328.293,180.812Z" transform="translate(-281.311 -150.073)" fill="#263238"/>
      <path id="Path_1969" data-name="Path 1969" d="M282.755,160.2c-7.841,4.394-15.134,9.686-16.452,13.23-.81,2.231.41,6.186,1.377,8.558.488,1.152,11.351-3.754,10.4-4.692-2.343-2.324-2.739-3.276-2.509-3.769.142-.312,8.622-8.173,10.955-11.663C289.785,157,286.182,158.284,282.755,160.2Z" transform="translate(-252.449 -142.84)" fill="#ffc4c0"/>
      <path id="Path_1970" data-name="Path 1970" d="M283.648,204.718c-1.025.62-2.334-2.031-2.334-2.031a2.2,2.2,0,0,1-.571,1.386c-.64.64-1.928-.083-1.928-.083a2.734,2.734,0,0,1-.835,1.367c-.679.552-2.08,0-2.08,0a2.407,2.407,0,0,1-1.494.737c-1.528.1-2.89-1.8-3.769-3s-2.246-5.419-2.587-6.2l7.645-5.7s5.468,4.252,6.3,5.81C282.672,198.323,285.191,203.791,283.648,204.718Z" transform="translate(-253.479 -159.577)" fill="#ffc4c0"/>
      <path id="Path_1971" data-name="Path 1971" d="M293.109,209.975a19.871,19.871,0,0,0-1.953-4.457c0-.029-.063,0-.049.029.786,1.4,1.221,3.032,1.953,4.457a.039.039,0,0,0,.049-.029Z" transform="translate(-265.279 -166.903)" fill="#263238"/>
      <path id="Path_1972" data-name="Path 1972" d="M287.545,213.1a4.086,4.086,0,0,0-.513-.976c-.205-.337-.42-.664-.635-.976q-.649-.976-1.352-1.953c0-.029-.068,0-.049,0,.435.654.854,1.313,1.26,1.987.2.337.4.674.6,1.011a5.369,5.369,0,0,0,.6.937.054.054,0,0,0,.093-.029Z" transform="translate(-262.151 -168.786)" fill="#263238"/>
      <path id="Path_1973" data-name="Path 1973" d="M281.585,216.444a2.929,2.929,0,0,0-.513-.859l-.605-.889c-.4-.591-.8-1.186-1.181-1.792,0-.034-.068,0-.049.024.381.62.757,1.245,1.147,1.86.19.3.381.605.576.9a2.792,2.792,0,0,0,.6.771Z" transform="translate(-259.203 -170.683)" fill="#263238"/>
      <path id="Path_1974" data-name="Path 1974" d="M277.1,166.56l6.024,5.531s7.455-7.045,9.549-10.823.444-4.062-3.906-1.811S277.1,166.56,277.1,166.56Z" transform="translate(-258.111 -142.607)" fill="#464698"/>
      <path id="Path_1975" data-name="Path 1975" d="M277.1,166.56l6.024,5.531s7.455-7.045,9.549-10.823.444-4.062-3.906-1.811S277.1,166.56,277.1,166.56Z" transform="translate(-258.111 -142.607)" fill="#464698"/>
      <path id="Path_1976" data-name="Path 1976" d="M286.246,178.448a57.182,57.182,0,0,1-5.316-4.965c-.024,0,0-.054.034-.029.449.459,3.232,2.851,5.321,4.955C286.329,178.433,286.271,178.467,286.246,178.448Z" transform="translate(-260.066 -150.496)" fill="#263238"/>
      <path id="Path_1977" data-name="Path 1977" d="M300.263,167.733c-.273.635-.547,1.269-.771,1.924a1.172,1.172,0,0,0,0-.132,8.86,8.86,0,0,1,.142-1.181c0-.044-.059-.059-.063,0-.078.391-.146.786-.2,1.186-.024.19-.034.381-.044.571v.068h0c-.254.869-.405,1.753-.62,2.627,0,.044.059.059.068,0,.21-.859.527-1.694.8-2.534s.488-1.694.747-2.534C300.316,167.724,300.277,167.7,300.263,167.733Z" transform="translate(-269.171 -147.564)" fill="#263238"/>
      <path id="Path_1978" data-name="Path 1978" d="M308.679,157c1.294.312,3.525-1.66,4.394-3.256.059-.112-.1-1.269-.234-2.69-.078-.859-.142-1.821-.142-2.7,0-.181-5.526,1.318-5.526,1.318a14.117,14.117,0,0,1,.518,3.383,1.706,1.706,0,0,1-.039.361.354.354,0,0,1,0,.059C307.541,154.164,307.429,156.7,308.679,157Z" transform="translate(-273.501 -137.646)" fill="#ffc4c0"/>
      <path id="Path_1979" data-name="Path 1979" d="M312.385,148.41c-.264,1.489-1.206,5.082-4.155,5.136a2.929,2.929,0,0,1-.561-.034v-.059a2.16,2.16,0,0,0,.044-.361,14.006,14.006,0,0,0-.522-3.383S311.184,148.625,312.385,148.41Z" transform="translate(-273.511 -137.682)" fill="#263238"/>
      <path id="Path_1980" data-name="Path 1980" d="M309.054,131.022c.976,1.8,1.069,7.552-.049,9.061-1.621,2.192-4.828,3.012-6.835.937s-1.953-9.505-.635-10.936A4.9,4.9,0,0,1,309.054,131.022Z" transform="translate(-270.137 -127.613)" fill="#ffc4c0"/>
      <path id="Path_1981" data-name="Path 1981" d="M318.08,151.81h0" transform="translate(-279.084 -139.422)" fill="none" stroke="#f5a79e" stroke-linecap="round" stroke-linejoin="round" stroke-width="0"/>
      <path id="Path_1982" data-name="Path 1982" d="M308.974,143.94a.03.03,0,0,1,.029.034c0,.391.059.835.41.976h0C308.974,144.9,308.9,144.311,308.974,143.94Z" transform="translate(-274.411 -135.394)" fill="#263238"/>
      <path id="Path_1983" data-name="Path 1983" d="M309.3,143.1c.62-.059.7,1.186.122,1.245S308.777,143.152,309.3,143.1Z" transform="translate(-274.409 -134.962)" fill="#263238"/>
      <path id="Path_1984" data-name="Path 1984" d="M304.176,144.24a.03.03,0,0,0-.029.034c.039.386,0,.835-.327.976h0C304.245,145.192,304.269,144.611,304.176,144.24Z" transform="translate(-271.786 -135.548)" fill="#263238"/>
      <path id="Path_1985" data-name="Path 1985" d="M303.31,143.45c-.625,0-.6,1.245,0,1.25S303.832,143.46,303.31,143.45Z" transform="translate(-271.291 -135.144)" fill="#263238"/>
      <path id="Path_1986" data-name="Path 1986" d="M309.58,140.2a4.445,4.445,0,0,1-.513-.054.825.825,0,0,1-.513-.151.273.273,0,0,1-.034-.322.659.659,0,0,1,.63-.22.976.976,0,0,1,.635.273.283.283,0,0,1-.205.474Z" transform="translate(-274.173 -133.094)" fill="#263238"/>
      <path id="Path_1987" data-name="Path 1987" d="M302.128,140.738a4.085,4.085,0,0,0,.488-.161.81.81,0,0,0,.488-.254.264.264,0,0,0-.034-.322.649.649,0,0,0-.7-.073.977.977,0,0,0-.566.405.283.283,0,0,0,.322.405Z" transform="translate(-270.739 -133.305)" fill="#263238"/>
      <path id="Path_1988" data-name="Path 1988" d="M309.971,151.212c-.088.1-.171.229-.312.249a1.045,1.045,0,0,1-.42-.073h0a.517.517,0,0,0,.488.181.41.41,0,0,0,.283-.361A.04.04,0,0,0,309.971,151.212Z" transform="translate(-274.554 -139.112)" fill="#263238"/>
      <path id="Path_1989" data-name="Path 1989" d="M307.389,144.636a1.313,1.313,0,0,1-.84.64,1.9,1.9,0,0,1-.488.054h-.176a.1.1,0,0,1-.083-.083h0v-.073h0c-.029-.3-.024-.752-.024-.752-.107.059-.644.342-.649.186a20.148,20.148,0,0,1,.269-4.013.039.039,0,0,1,.073,0c.049,1.245-.117,2.485-.088,3.735a2.485,2.485,0,0,1,.61-.229,7.686,7.686,0,0,1,0,1.011h0a1.845,1.845,0,0,0,1.338-.488C307.379,144.582,307.413,144.606,307.389,144.636Z" transform="translate(-272.45 -133.669)" fill="#263238"/>
      <path id="Path_1990" data-name="Path 1990" d="M307.42,149.437a1.586,1.586,0,0,0,.654.449.717.717,0,0,0,.43,0c.3-.1.293-.386.225-.625a1.714,1.714,0,0,0-.161-.361A2.021,2.021,0,0,1,307.42,149.437Z" transform="translate(-273.629 -137.933)" fill="#263238"/>
      <path id="Path_1991" data-name="Path 1991" d="M308.76,150.245a.717.717,0,0,0,.43,0c.3-.1.293-.386.225-.625A.732.732,0,0,0,308.76,150.245Z" transform="translate(-274.315 -138.301)" fill="#ff98b9"/>
      <path id="Path_1992" data-name="Path 1992" d="M300.167,131.481c2.036,1.064,4.394-1.191,4.394-1.191a2.06,2.06,0,0,0,2.231,1.05s.747,3.144,1.582,3.037c1.279-.161,1.162-4.55.659-5.37a2.314,2.314,0,0,0-1.616-.9,2.128,2.128,0,0,0-1.02-1.162c-.976-.566-3.862.693-3.862.693a2.821,2.821,0,0,0-.9-.976.8.8,0,0,0-1.128.239,1.815,1.815,0,0,1,.4.752c.264.913-.488,1-.591.156a1.318,1.318,0,0,1,.19-.908c-.439-.488-1.074-.615-1.411-.273C298.468,127.282,298.478,130.617,300.167,131.481Z" transform="translate(-269.173 -126.436)" fill="#263238"/>
      <path id="Path_1993" data-name="Path 1993" d="M301.986,144.417c-.581.039-1.1-.64-1.162-1.513s.356-1.626.937-1.665,1.1.64,1.162,1.513S302.567,144.373,301.986,144.417Zm-.21-2.963c-.464.029-.8.674-.742,1.435s.488,1.347.937,1.313.8-.674.737-1.435S302.235,141.419,301.776,141.453Z" transform="translate(-270.25 -134.011)" fill="#464698"/>
      <path id="Path_1994" data-name="Path 1994" d="M308.6,143.9a1.6,1.6,0,1,1,1.372-1.694A1.548,1.548,0,0,1,308.6,143.9Zm-.21-2.968a1.386,1.386,0,1,0,1.372,1.289A1.338,1.338,0,0,0,308.385,140.931Z" transform="translate(-273.3 -133.747)" fill="#464698"/>
      <path id="Path_1995" data-name="Path 1995" d="M305.993,143.579c-.815-.225-1.157.063-1.157.063l-.146-.156a1.481,1.481,0,0,1,1.357-.112Z" transform="translate(-272.232 -135.058)" fill="#464698"/>
      <path id="Path_1996" data-name="Path 1996" d="M313.014,142.318l-.054-.21c.137-.034,3.334-.864,3.686-.908a3.823,3.823,0,0,1,1.372.425l-.088.19a4.1,4.1,0,0,0-1.24-.405h0C316.4,141.444,314.161,142.02,313.014,142.318Z" transform="translate(-276.464 -133.992)" fill="#464698"/>
      <path id="Path_1997" data-name="Path 1997" d="M317.289,141.321s.932-2.026,1.831-1.723.42,3.081-.488,3.613a.976.976,0,0,1-1.4-.293Z" transform="translate(-278.649 -133.156)" fill="#ffc4c0"/>
      <path id="Path_1998" data-name="Path 1998" d="M319.515,141.26v.024a2.49,2.49,0,0,0-.976,1.767.547.547,0,0,1,.781-.288v.039a.605.605,0,0,0-.62.327,2.888,2.888,0,0,0-.225.591c0,.063-.132.054-.122,0h0A2.182,2.182,0,0,1,319.515,141.26Z" transform="translate(-279.201 -134.023)" fill="#263238"/>
      <path id="Path_1999" data-name="Path 1999" d="M313.745,159.794a25.879,25.879,0,0,1-1.855,2.2,4.243,4.243,0,0,1-2.314,1.338,1.691,1.691,0,0,1-2.114-1.084,6.347,6.347,0,0,1-.181-2.8c0-.049-.063-.059-.068,0-.142,1.411-.259,3.583,1.035,4.013a3.629,3.629,0,0,0,3.764-1.333,13.332,13.332,0,0,0,1.762-2.3S313.759,159.78,313.745,159.794Z" transform="translate(-273.48 -143.311)" fill="#263238"/>
      <rect id="Rectangle_1453" data-name="Rectangle 1453" width="26.192" height="1.177" transform="translate(22.792 48.334)" fill="#263238"/>
      <path id="Path_2000" data-name="Path 2000" d="M295.782,209.666H270.254L268.13,192.33h25.523Z" transform="translate(-253.52 -160.16)" fill="#263238"/>
      <path id="Path_2001" data-name="Path 2001" d="M296.369,208.457a1.518,1.518,0,0,1-1.528,1.552,1.592,1.592,0,0,1-1.582-1.552,1.523,1.523,0,0,1,1.528-1.557A1.592,1.592,0,0,1,296.369,208.457Z" transform="translate(-266.381 -167.617)" fill="#fff"/>
    </g>
    <g id="freepik--Plant--inject-24" transform="translate(188.381 154.754)">
      <path id="Path_2002" data-name="Path 2002" d="M414.375,315.335a38.365,38.365,0,0,1,.884-6.23,13.866,13.866,0,0,1,2.226-5.253,6.684,6.684,0,0,1,4.365-2.719,6.075,6.075,0,0,1,4.589,1.631,22.083,22.083,0,0,1,3.935,4.809,58.271,58.271,0,0,1,3.417,5.951.059.059,0,0,1-.1.054,36.715,36.715,0,0,0-3.037-4.975,30.976,30.976,0,0,0-3.5-4.238,6.875,6.875,0,0,0-4.365-2.27,5.37,5.37,0,0,0-4.267,2.2,13.143,13.143,0,0,0-2.153,5.053,37.3,37.3,0,0,0-.9,5.932c-.337,4.1-.425,8.231-.517,12.347q-.078,3.491-.107,6.986l-.029,3.539a21.512,21.512,0,0,1-.137,3.417.234.234,0,0,1-.449,0,19.9,19.9,0,0,1-.156-3.237q-.029-1.674-.044-3.354-.029-3.261-.024-6.522C414.024,324.074,414.077,319.69,414.375,315.335Z" transform="translate(-396.116 -299.592)" fill="#263238"/>
      <path id="Path_2003" data-name="Path 2003" d="M425.859,310.666a9.635,9.635,0,0,1,1.269-3.574c1.191-1.616,2.47-.913,1.284.874a10.686,10.686,0,0,0-1.665,4.394,17.031,17.031,0,0,0,4.394,4.257,18.875,18.875,0,0,1-.2-4.394c.464-3.52,2.592-3.325,2.065-.522a24.226,24.226,0,0,0-.488,5.658,11.98,11.98,0,0,0,2.573,1.264c-.137-.41-.283-.9-.444-1.494-.859-3.159,1.25-4.145,1.318-2.368a24.459,24.459,0,0,0,.82,4.482c1.157.391,2.114.654,2.7.859a9.828,9.828,0,0,1,3.95,2.7,12.415,12.415,0,0,0,2.695-3.481c-.737-.635-1.9-1.577-3.515-2.719-3.032-2.138-1.953-4.838.425-3.159a13.85,13.85,0,0,1,3.686,4.609,18.616,18.616,0,0,0,1.377-6.308c-2.382-2.231-8.265-5.346-6.493-5.346,1.6,0,5.17,2.339,6.478,3.242a16.782,16.782,0,0,0-.2-1.831c-2.241-1.465-9.525-3.754-8.363-4.394,1.274-.718,6.347,1.631,7.889,2.378a9.143,9.143,0,0,0-1.343-2.788c-3.1-4.145-8.68-5.575-11.116-4.784-1.723.557-1.221,4.931-1.592,4.784C426.454,300.2,423.311,302.166,425.859,310.666Zm16.975-.488c.488-.591,2.763,1.152,2.109,2.109s-2.744-1.343-2.109-2.1Zm-11.873-3.73c.6.381-.288,2.592-1.211,1.924-.781-.566.61-2.3,1.211-1.919Z" transform="translate(-401.737 -298.013)" fill="#464698"/>
      <path id="Path_2004" data-name="Path 2004" d="M437.243,312.563c.312-.62.64-1.23.976-1.826a10.8,10.8,0,0,1,1.147-1.66l-.3-.366c-.039-.049.029-.117.073-.068.117.132.225.269.337.405a.088.088,0,0,1,.049.054,19.641,19.641,0,0,1,1.216,1.582,17.867,17.867,0,0,1,2.011.581c.679.229,1.352.488,2.011.742.073.029.039.146-.034.112-.649-.288-1.313-.566-1.992-.8s-1.294-.386-1.953-.566c.21.3.415.6.615.9a23.963,23.963,0,0,1,3.559,1.465c1.2.571,2.358,1.235,3.51,1.9.063.039,0,.142-.063.1a38.67,38.67,0,0,0-3.491-1.806c-1.113-.522-2.265-.952-3.388-1.465,2.827,4.394,4.521,9.51,6.791,14.221.034.068-.073.127-.1.059-.693-1.655-1.489-3.266-2.246-4.882-.674-1.465-1.338-2.929-2.016-4.394-.2-.425-.4-.854-.605-1.279a63.447,63.447,0,0,0,.459,7.084.059.059,0,0,1-.117,0c-.161-2.519-.605-5-.591-7.533V315.1q-.718-1.465-1.543-2.836a32.713,32.713,0,0,0-2.358,6.835c0,.073-.132.039-.112-.034a33.252,33.252,0,0,1,2.373-6.947,27.084,27.084,0,0,0-1.992-2.871c-.317.586-.718,1.142-1.074,1.7s-.693,1.1-1.015,1.665a23.589,23.589,0,0,0-1.772,3.74c-.024.068-.142.034-.112-.034C436.081,315.043,436.628,313.783,437.243,312.563Z" transform="translate(-407.116 -303.444)" fill="#263238"/>
      <path id="Path_2005" data-name="Path 2005" d="M397.84,325.337c1.557-2.046,3.33-4.692,6.112-5.063,2.685-.356,4.945,1.543,6.381,3.618a23.255,23.255,0,0,1,2.958,7.274,91.733,91.733,0,0,1,1.953,9.173c.283,1.714.488,3.417.693,5.16a34.539,34.539,0,0,1,.308,5.263c0,.283-.459.356-.518.059-.273-1.44-.41-2.9-.6-4.355s-.4-2.851-.644-4.272q-.732-4.313-1.811-8.548a42.068,42.068,0,0,0-2.29-7.323c-.976-2.094-2.573-4.418-4.911-5.082-3.2-.9-5.829,1.884-7.533,4.169C397.913,325.459,397.8,325.4,397.84,325.337Z" transform="translate(-387.841 -309.384)" fill="#263238"/>
      <path id="Path_2006" data-name="Path 2006" d="M377.37,324.383h0v1.1A6.48,6.48,0,0,1,380.4,324.4c2.587-.151,2.329,1.8.605,1.8a9.833,9.833,0,0,0-3.564.537,22.09,22.09,0,0,0,1.2,6.239,50.218,50.218,0,0,0,6.835-.537c-.576-1.391-1.953-3.276-1.2-3.383s1.465,1.538,1.811,3.29a32.791,32.791,0,0,0,5.024-1.123c-1.084-1.03-2.773-2.334-2.08-2.822s2,1.294,2.768,2.583a10.018,10.018,0,0,0,2.2-1.089c-1.421-2.314-5.111-2.929-4.55-4.545s3.93.815,5.37,3.906a8.875,8.875,0,0,0,2.5-6.786c-1.587-.264-4.677-.073-4.394-1.211s2.485-.81,4.272-.054a6.347,6.347,0,0,0-.947-2.578c-1.577-2.241-6.835.259-6.835.259s.8-5.136-1.123-6.122a5.867,5.867,0,0,0-5.151.425,4.335,4.335,0,0,1,2.963,1.372c.649,1.025-.488,1.513-1.152,1.02a5.667,5.667,0,0,0-3-1.626,10.181,10.181,0,0,0-1.953,1.953,9.939,9.939,0,0,0-.581.83,7.035,7.035,0,0,1,6,.4c2.173,1.211.82,3.461-1.055,2.475s-3.652-1.953-5.707-1.548a14.391,14.391,0,0,0-1.255,5.707,10.252,10.252,0,0,1,3.373-1.426c2.246-.488,2.851.879.405,1.011A9.764,9.764,0,0,0,377.37,324.383Zm2.861-3.417c-.117-.727,1.465-.859,1.7-.264.19.488-1.582.967-1.7.264Zm13.245,4.614c.166-.386,1.2.107,1.074.591-.161.625-1.25-.229-1.074-.61Zm-7.538,2.158c.781-.268,1.884,1.694,1.03,2.09s-1.665-1.884-1.03-2.109Z" transform="translate(-377.37 -305.349)" fill="#464698"/>
      <path id="Path_2007" data-name="Path 2007" d="M377.37,324.383h0v1.1A6.48,6.48,0,0,1,380.4,324.4c2.587-.151,2.329,1.8.605,1.8a9.833,9.833,0,0,0-3.564.537,22.09,22.09,0,0,0,1.2,6.239,50.218,50.218,0,0,0,6.835-.537c-.576-1.391-1.953-3.276-1.2-3.383s1.465,1.538,1.811,3.29a32.791,32.791,0,0,0,5.024-1.123c-1.084-1.03-2.773-2.334-2.08-2.822s2,1.294,2.768,2.583a10.018,10.018,0,0,0,2.2-1.089c-1.421-2.314-5.111-2.929-4.55-4.545s3.93.815,5.37,3.906a8.875,8.875,0,0,0,2.5-6.786c-1.587-.264-4.677-.073-4.394-1.211s2.485-.81,4.272-.054a6.347,6.347,0,0,0-.947-2.578c-1.577-2.241-6.835.259-6.835.259s.8-5.136-1.123-6.122a5.867,5.867,0,0,0-5.151.425,4.335,4.335,0,0,1,2.963,1.372c.649,1.025-.488,1.513-1.152,1.02a5.667,5.667,0,0,0-3-1.626,10.181,10.181,0,0,0-1.953,1.953,9.939,9.939,0,0,0-.581.83,7.035,7.035,0,0,1,6,.4c2.173,1.211.82,3.461-1.055,2.475s-3.652-1.953-5.707-1.548a14.391,14.391,0,0,0-1.255,5.707,10.252,10.252,0,0,1,3.373-1.426c2.246-.488,2.851.879.405,1.011A9.764,9.764,0,0,0,377.37,324.383Zm2.861-3.417c-.117-.727,1.465-.859,1.7-.264.19.488-1.582.967-1.7.264Zm13.245,4.614c.166-.386,1.2.107,1.074.591-.161.625-1.25-.229-1.074-.61Zm-7.538,2.158c.781-.268,1.884,1.694,1.03,2.09s-1.665-1.884-1.03-2.109Z" transform="translate(-377.37 -305.349)" opacity="0.1"/>
      <path id="Path_2008" data-name="Path 2008" d="M380.632,339.568c1.245-1.875,2.48-3.759,3.784-5.595q.908-1.279,1.889-2.509l-.268-.078-.459-.107c-.352-.078-.7-.146-1.059-.2a10.131,10.131,0,0,0-1.011-.107,5.368,5.368,0,0,0-1.084,0c-.044,0-.049-.059,0-.059.361.034.732,0,1.094,0a9.229,9.229,0,0,1,1.05.078c.347.039.654.083.976.146l.532.122a2.4,2.4,0,0,1,.322.083q1.006-1.245,2.065-2.441a23.078,23.078,0,0,0-6.22-2.314c-.034,0,0-.063,0-.059a21.481,21.481,0,0,1,6.312,2.251c.391-.435.781-.869,1.177-1.3s.913-.952,1.313-1.465c.029-.034.078,0,.049.034a22.685,22.685,0,0,0-1.552,1.723h0a22.479,22.479,0,0,1,2.26,2c.732.718,1.465,1.465,2.143,2.212.024.029,0,.068-.044.044-.683-.752-1.4-1.465-2.148-2.153s-1.538-1.323-2.295-2h0l-.571.679c-.093.117-.19.229-.288.342a.049.049,0,0,1,0,.024l-.957,1.152a9.475,9.475,0,0,1,.815,1.655c.234.557.43,1.128.61,1.7a24.576,24.576,0,0,1,.791,3.662.029.029,0,1,1-.059,0,21.149,21.149,0,0,0-.879-3.6c-.2-.6-.425-1.186-.659-1.772s-.488-1.05-.683-1.587l-.82,1-.229.3a.034.034,0,0,1-.029.049h0c-.845,1.069-1.655,2.168-2.441,3.276a1.157,1.157,0,0,1,.088.259c.039.137.078.283.112.425a8.781,8.781,0,0,1,.161.869c.034.273.059.552.073.825a7.467,7.467,0,0,0,.024.937c0,.049-.068.049-.054,0a3.273,3.273,0,0,0-.024-.874c-.029-.3-.068-.6-.122-.9s-.112-.532-.176-.8c-.034-.137-.068-.268-.107-.4s-.054-.146-.073-.22c-.366.522-.732,1.045-1.094,1.577-.718,1.045-1.426,2.094-2.138,3.144C380.68,339.67,380.6,339.621,380.632,339.568Z" transform="translate(-379.035 -312.337)" fill="#263238"/>
      <path id="Path_2009" data-name="Path 2009" d="M413.73,359.255c.029-.976.181-1.924.283-2.876s.21-1.914.312-2.876a43.837,43.837,0,0,1,.742-5.536,8.055,8.055,0,0,1,2.256-4.145,3.657,3.657,0,0,1,2.212-1.055,3.779,3.779,0,0,1,2.343.723,8.178,8.178,0,0,1,1.977,2.08,20.806,20.806,0,0,1,1.538,2.5c0,.034-.034.054-.054,0a12.8,12.8,0,0,0-3.33-3.73,3.94,3.94,0,0,0-2.1-.874,2.851,2.851,0,0,0-2.036.81,7.65,7.65,0,0,0-2.148,3.8,38.457,38.457,0,0,0-.83,5.121q-.205,1.513-.4,3.042c-.132,1.006-.22,2.041-.43,3.037a.171.171,0,0,1-.337-.024Z" transform="translate(-395.979 -320.917)" fill="#263238"/>
      <path id="Path_2010" data-name="Path 2010" d="M422.106,351.3a5.372,5.372,0,0,0,1.04,1.069,6.524,6.524,0,0,1,.127-3.481c.732-1.377,1.6-.693,1.162.488a9.764,9.764,0,0,0-.708,3.388,14.8,14.8,0,0,0,3.183,1.5,5.433,5.433,0,0,1-.112-1.64c.146-1.465,1.269-1.465.976.083a9.6,9.6,0,0,0-.151,1.8,32.776,32.776,0,0,0,4.96,1.118,14.484,14.484,0,0,0,2.05-3.657c-1.191-.3-3.613-.366-3.564-1.22.068-1.147,2.441-.264,3.788.571a9.121,9.121,0,0,0,.41-3.1,15.528,15.528,0,0,0-3.3-.547c-2.441-.21-2.339-1.606-.557-1.572a9.818,9.818,0,0,1,3.769,1.245c-.513-3.344-3.066-5.492-5.111-5.575-3.442-.137-2.207,4.145-2.207,4.145a9.118,9.118,0,0,0-4.531-1.6C421.14,344.359,419.753,348.025,422.106,351.3Zm9.193-6.19c-.078-.488,1.465-.6,1.538,0C432.93,345.819,431.377,345.6,431.3,345.106Zm2.47,5.024c-.029-.312.635-.366.781.029.1.259-.752.283-.781-.029Zm-8.265.293c.517.073.815,1.928-.078,1.894C424.743,352.287,425.065,350.364,425.5,350.423Z" transform="translate(-399.639 -320.404)" fill="#464698"/>
      <path id="Path_2011" data-name="Path 2011" d="M431.815,362.988c.088-.229.161-.488.234-.7-.064.239-.127.488-.171.718a.034.034,0,1,1-.063-.02Z" transform="translate(-405.232 -330.91)" fill="#263238"/>
      <path id="Path_2012" data-name="Path 2012" d="M433.045,354.062c.161-.488.342-.947.527-1.416.1-.249.2-.488.312-.737a2.861,2.861,0,0,1,.308-.625,4.159,4.159,0,0,1-.278-.6s0-.034.029,0a6.4,6.4,0,0,1,.669,1.04c.1.161.19.327.283.488a4.791,4.791,0,0,1,.581.093c.205.034.41.078.615.122l.615.146c.2.044.4.112.61.146.044,0,.024.083,0,.063a4.179,4.179,0,0,0-.644-.171c-.2-.039-.4-.073-.6-.1l-.6-.073-.454-.039c.078.146.166.288.244.435,0,0,.024.044.039.068a1.868,1.868,0,0,1,.488.059c.176.029.356.063.532.1.356.083.718.166,1.069.264.747.21,1.465.449,2.216.688.039,0,0,.073-.024.059a22.1,22.1,0,0,0-2.226-.615c-.352-.078-.7-.161-1.059-.234l-.527-.112a2.989,2.989,0,0,1-.415-.093c.381.7.737,1.411,1.064,2.138.713,1.577,1.318,3.207,1.928,4.828,0,.039-.049.063-.063,0a43.908,43.908,0,0,0-2.05-4.721l-.415-.835q-.024.084-.039.171l-.1.576c-.063.381-.127.767-.186,1.152a13.61,13.61,0,0,0-.278,2.392c0,.049-.073.044-.064,0,.059-.381.059-.781.083-1.167s.054-.806.1-1.206.093-.771.156-1.157l.1-.576a1.186,1.186,0,0,1,.107-.415c-.2-.405-.4-.81-.605-1.216s-.386-.752-.581-1.128c-.083-.161-.171-.322-.259-.488a5.985,5.985,0,0,1-.229.581c-.088.215-.176.435-.268.649-.2.488-.381.976-.561,1.465-.264.688-.552,1.4-.762,2.114C432.635,355.473,432.811,354.736,433.045,354.062Z" transform="translate(-405.555 -324.962)" fill="#263238"/>
      <path id="Path_2013" data-name="Path 2013" d="M432.3,362.116a.508.508,0,0,1,.054-.166C432.334,362,432.32,362.057,432.3,362.116Z" transform="translate(-405.483 -330.736)" fill="#263238"/>
      <path id="Path_2014" data-name="Path 2014" d="M397.6,377.11l.42,6.186L399.1,399.24h23.629l1.079-15.945.42-6.186Z" transform="translate(-387.724 -338.495)" fill="#37474f"/>
      <path id="Path_2015" data-name="Path 2015" d="M397.6,377.11l.42,6.186h25.792l.42-6.186Z" transform="translate(-387.724 -338.495)" fill="#263238"/>
      <rect id="Rectangle_1454" data-name="Rectangle 1454" width="29.99" height="4.999" transform="translate(38.187 41.115) rotate(180)" fill="#37474f"/>
      <rect id="Rectangle_1455" data-name="Rectangle 1455" width="4.15" height="2.617" transform="translate(28.946 60.746)" fill="#37474f"/>
      <rect id="Rectangle_1456" data-name="Rectangle 1456" width="4.15" height="1.308" transform="translate(28.946 60.746)" fill="#263238"/>
      <rect id="Rectangle_1457" data-name="Rectangle 1457" width="4.145" height="2.617" transform="translate(13.289 60.746)" fill="#37474f"/>
      <rect id="Rectangle_1458" data-name="Rectangle 1458" width="4.145" height="1.308" transform="translate(13.289 60.746)" fill="#263238"/>
    </g>
    <g id="freepik--speech-bubble--inject-24" transform="translate(165.894 52.997)">
      <path id="Path_2016" data-name="Path 2016" d="M358.38,103.164a12.093,12.093,0,0,1-20.216,7.655l-6.054.889,3.027-5.234a11.966,11.966,0,0,1-.83-5.824,12.1,12.1,0,1,1,24.074,2.514Z" transform="translate(-331.719 -89.695)" fill="#fff"/>
      <path id="Path_2017" data-name="Path 2017" d="M357.971,103.051a12.205,12.205,0,0,1-2.441,6.137,14.175,14.175,0,0,1-1.1,1.26,13.513,13.513,0,0,1-1.279,1.084,12.2,12.2,0,0,1-7.836,2.436,10.707,10.707,0,0,1-1.675-.176,12.205,12.205,0,0,1-5.99-2.959l.146.044-6.049.932-.439.063.225-.386,3.007-5.243v.205A12.249,12.249,0,0,1,349.715,90.2a12.425,12.425,0,0,1,4.667,2.861,12.205,12.205,0,0,1,3.588,9.994Zm0,0A12.02,12.02,0,0,0,339.248,91.91a12.494,12.494,0,0,0-3.618,3.95,11.917,11.917,0,0,0-.683,10.394l.039.107-.054.1-3.046,5.224-.22-.317,6.059-.849h.088l.059.059a11.888,11.888,0,0,0,5.795,2.983,9.717,9.717,0,0,0,1.64.2,11.465,11.465,0,0,0,4.887-.713,11.472,11.472,0,0,0,2.929-1.572A14,14,0,0,0,354.4,110.4a12.732,12.732,0,0,0,1.1-1.25,12.132,12.132,0,0,0,2.47-6.1Z" transform="translate(-331.31 -89.583)" fill="#263238"/>
      <path id="Path_2018" data-name="Path 2018" d="M352.945,114.343l-5.165-5.229,1.733-1.718,3.022,3.056,6.273-9.832,2.055,1.313Z" transform="translate(-339.739 -95.232)" fill="#464698"/>
    </g>
  </g>
</svg>
