<svg xmlns="http://www.w3.org/2000/svg" width="130.802" height="55.126" viewBox="0 0 130.802 55.126">
  <g id="logo" transform="translate(-66.047 -27.537)">
    <path id="Path_1809" data-name="Path 1809" d="M273.486,109.043c.5.243,3.941,1.53,4.6,1.708a18.416,18.416,0,0,1,2.742.95c5.25,2.378,9.121,6.3,9.183,12.2l-17.394.006c-.38.092-1.138,3.177-1.279,3.658-.371,1.266-.859,2.643-1.138,3.869l26.636.016c0-12.015,1.33-25.962-20.892-30.284Z" transform="translate(-159.35 -62.17)" fill="#fff"/>
    <path id="Path_1811" data-name="Path 1811" d="M262.5,163.489v-6.548h-2.523V155.61h6.76v1.331h-2.511v6.548Zm12.148,0-3.413-7.879h-1.823l-3.308,7.879h1.825l.708-1.794h3.418l.735,1.794Zm-3.154-3.126h-2.335l1.151-2.916Zm4.073-4.753h3.408a10.727,10.727,0,0,1,1.51.077,2.353,2.353,0,0,1,.89.324,2.094,2.094,0,0,1,.655.657,1.679,1.679,0,0,1,.262.921,1.731,1.731,0,0,1-.322,1.012,1.957,1.957,0,0,1-.872.692,2.273,2.273,0,0,1,1.194.716,1.818,1.818,0,0,1,.416,1.19,2.2,2.2,0,0,1-.269,1.048,2.175,2.175,0,0,1-.74.814,2.577,2.577,0,0,1-1.155.374q-.428.041-2.074.053h-2.9Zm1.725,1.31v1.815h1.127c.669,0,1.086-.009,1.248-.028a1.173,1.173,0,0,0,.694-.28.8.8,0,0,0,.252-.613.825.825,0,0,0-.217-.592,1.018,1.018,0,0,0-.647-.275c-.171-.018-.661-.027-1.468-.027Zm0,3.125v2.112h1.6a8.606,8.606,0,0,0,1.181-.048,1.1,1.1,0,0,0,.624-.315.929.929,0,0,0,.243-.671.965.965,0,0,0-.187-.6,1.04,1.04,0,0,0-.538-.361,6.285,6.285,0,0,0-1.527-.114Zm14.547,3.444h-1.859l-.736-1.794H285.83l-.708,1.794H283.3l3.309-7.879h1.823Zm-3.155-3.126-1.185-2.916-1.15,2.916Zm4.073-4.753H295.9a6.591,6.591,0,0,1,1.62.15,2.886,2.886,0,0,1,1.282.727,3.378,3.378,0,0,1,.813,1.276,5.451,5.451,0,0,1,.278,1.862,4.819,4.819,0,0,1-.262,1.676,3.43,3.43,0,0,1-.911,1.392,3.071,3.071,0,0,1-1.206.629,5.547,5.547,0,0,1-1.52.167h-3.231Zm1.726,1.331v5.216h1.279a5.056,5.056,0,0,0,1.035-.075,1.6,1.6,0,0,0,.693-.329,1.629,1.629,0,0,0,.449-.759,4.748,4.748,0,0,0,.174-1.443,4.349,4.349,0,0,0-.174-1.4,1.776,1.776,0,0,0-.486-.762,1.684,1.684,0,0,0-.794-.371,8.385,8.385,0,0,0-1.406-.075Zm6.87-1.331h1.726v4.269a8.374,8.374,0,0,0,.063,1.317,1.27,1.27,0,0,0,.52.778,1.909,1.909,0,0,0,1.127.293,1.8,1.8,0,0,0,1.092-.277,1.086,1.086,0,0,0,.443-.681,8.322,8.322,0,0,0,.075-1.339V155.61h1.727v4.143a9.765,9.765,0,0,1-.14,2.006,2.157,2.157,0,0,1-.513.99,2.583,2.583,0,0,1-1,.642,4.652,4.652,0,0,1-1.634.241,5.023,5.023,0,0,1-1.845-.261,2.631,2.631,0,0,1-.994-.679,2.1,2.1,0,0,1-.48-.874,8.8,8.8,0,0,1-.168-2ZM310,163.489v-7.813h1.725v6.481H316v1.332Z" transform="translate(-155.555 -82.396)" fill="#fff"/>
    <path id="Path_1812" data-name="Path 1812" d="M232.053,115.558c0,3.212.18,7.1-1.082,9.866-1.2,2.631-3.261,4.045-7,4.565-4.788.666-10.551.123-13.016-3.991-2.653-4.428-1.566-9.565-.953-13.876l-6.617-1.111a31.138,31.138,0,0,0-.482,13.09c.627,3.305,2.523,7.45,5.227,9.685,2.8,2.314,6.371,3.836,11.56,3.93,9.8.178,15.864-3.3,18.26-12.257,1.15-4.3.907-9.153.907-13.726v-28.8h-6.8Z" transform="translate(-134.167 -55.397)" fill="#fff"/>
    <path id="Path_1813" data-name="Path 1813" d="M228.56,115.9c0,3.212.18,7.1-1.082,9.866-1.2,2.631-3.26,4.045-7,4.565-4.789.666-10.552.123-13.017-3.991-2.653-4.428-1.566-10.242-.953-14.553l-6.617-1.111a34.416,34.416,0,0,0-.482,13.767c.627,3.305,2.524,7.45,5.227,9.685,2.8,2.314,6.371,3.836,11.56,3.93,9.8.178,15.865-3.3,18.26-12.257,1.15-4.3.908-9.153.908-13.726V82.934h-6.8Z" transform="translate(-132.87 -55.397)" fill="#fff"/>
    <path id="Path_1814" data-name="Path 1814" d="M271.639,110.958c.5.243,2.3.515,2.951.693a18.5,18.5,0,0,1,2.741.95c5.25,2.378,9.121,6.3,9.183,12.2l-17.394.006c-.378.092-1.138,3.177-1.278,3.658-.37,1.266-.859,2.643-1.138,3.869l26.637.016c0-7.9.552-13.784-3.629-19.831a18.757,18.757,0,0,0-6.283-5.779c-1.911-1.1-6.391-3.119-9.151-3.152Z" transform="translate(-158.052 -63.07)" fill="#fff"/>
    <path id="Path_1817" data-name="Path 1817" d="M319.623,88.074h4.716q3.052,0,3.051,2.885v25a3.752,3.752,0,0,0,1.317,3.11,6.766,6.766,0,0,0,4.23,1.058h4.369a3.473,3.473,0,0,0,2.6-.833,2.936,2.936,0,0,0,.8-2.116V106.155q0-2.95,3.051-2.95h4.716v15.836q0,.705,1.283.9a29.666,29.666,0,0,0,3.988.192h4.646a6.612,6.612,0,0,0,3.987-1.09,3.652,3.652,0,0,0,1.491-3.142v-9.745q0-2.95,2.982-2.95h4.785v13.464q0,5.321-3.225,7.854t-9.743,2.533h-4.924a13.69,13.69,0,0,1-3.606-.609,12.738,12.738,0,0,1-3.883-1.828,11.561,11.561,0,0,1-3.016,1.7,11.391,11.391,0,0,1-4.265.738h-6.1a19.73,19.73,0,0,1-6.484-.9,9.837,9.837,0,0,1-4.057-2.565,9.133,9.133,0,0,1-2.115-4.071,22.817,22.817,0,0,1-.589-5.418Z" transform="translate(-177.712 -57.307)" fill="#fff"/>
    <path id="Path_1818" data-name="Path 1818" d="M324.281,88.074H329q3.052,0,3.051,2.885v25a3.752,3.752,0,0,0,1.317,3.11,6.766,6.766,0,0,0,4.23,1.058h4.369a3.473,3.473,0,0,0,2.6-.833,2.936,2.936,0,0,0,.8-2.116V106.155q0-2.95,3.051-2.95h4.716v15.836q0,.705,1.283.9a29.665,29.665,0,0,0,3.988.192h4.646a6.611,6.611,0,0,0,3.987-1.09,3.653,3.653,0,0,0,1.491-3.142v-9.745q0-2.95,2.982-2.95h4.785v13.464q0,5.321-3.225,7.854t-9.743,2.533H358.4a13.691,13.691,0,0,1-3.606-.609,12.74,12.74,0,0,1-3.883-1.828,11.559,11.559,0,0,1-3.016,1.7,11.39,11.39,0,0,1-4.265.738h-6.1a19.73,19.73,0,0,1-6.484-.9,9.837,9.837,0,0,1-4.057-2.565,9.132,9.132,0,0,1-2.115-4.071,22.812,22.812,0,0,1-.59-5.418Z" transform="translate(-179.443 -57.307)" fill="#fff"/>
    <circle id="Ellipse_68" data-name="Ellipse 68" cx="4" cy="4" r="4" transform="translate(174.448 30.1)" fill="#fff"/>
    <circle id="Ellipse_70" data-name="Ellipse 70" cx="3.5" cy="3.5" r="3.5" transform="translate(160.448 72.1)" fill="#fff"/>
    <circle id="Ellipse_69" data-name="Ellipse 69" cx="4" cy="4" r="4" transform="translate(185.448 30.1)" fill="#fff"/>
  </g>
</svg>
